<svg width="44" height="44" viewBox="0 0 44 44" fill="none" xmlns="http://www.w3.org/2000/svg">
<rect width="44" height="44" rx="22" fill="#3573FC" fill-opacity="0.08"/>
<path d="M25.75 31H15.25C15.0511 31 14.8603 30.921 14.7197 30.7803C14.579 30.6397 14.5 30.4489 14.5 30.25V16.75C14.5 16.5511 14.579 16.3603 14.7197 16.2197C14.8603 16.079 15.0511 16 15.25 16H22.75L26.5 19.75V30.25C26.5 30.4489 26.421 30.6397 26.2803 30.7803C26.1397 30.921 25.9489 31 25.75 31Z" stroke="#3573FC" stroke-width="1.6" stroke-linecap="round" strokeLinejoin="round"/>
<path d="M17.5 16V13.75C17.5 13.5511 17.579 13.3603 17.7197 13.2197C17.8603 13.079 18.0511 13 18.25 13H25.75L29.5 16.75V27.25C29.5 27.4489 29.421 27.6397 29.2803 27.7803C29.1397 27.921 28.9489 28 28.75 28H26.5" stroke="#3573FC" stroke-width="1.6" stroke-linecap="round" strokeLinejoin="round"/>
<path d="M18.25 24.25H22.75" stroke="#3573FC" stroke-width="1.6" stroke-linecap="round" strokeLinejoin="round"/>
<path d="M18.25 27.25H22.75" stroke="#3573FC" stroke-width="1.6" stroke-linecap="round" strokeLinejoin="round"/>
</svg>
