<svg width="19" height="17" viewBox="0 0 19 17" fill="none" xmlns="http://www.w3.org/2000/svg">
<path d="M2.35059 7.73193C2.35059 5.89859 3.07888 4.14034 4.37524 2.84398C5.67161 1.54761 7.42986 0.819322 9.2632 0.819322C11.0965 0.819322 12.8548 1.54761 14.1511 2.84398C15.4475 4.14034 16.1758 5.89859 16.1758 7.73193C16.1758 11.171 16.9727 13.9341 17.6063 15.0286C17.6736 15.1451 17.7091 15.2773 17.7092 15.4119C17.7094 15.5465 17.6741 15.6788 17.607 15.7955C17.5399 15.9122 17.4433 16.0092 17.327 16.0768C17.2106 16.1444 17.0785 16.1802 16.9439 16.1807H1.58252C1.44809 16.1799 1.31622 16.1438 1.20011 16.076C1.08399 16.0083 0.987683 15.9113 0.920818 15.7946C0.853953 15.678 0.818869 15.5459 0.819073 15.4115C0.819277 15.277 0.854762 15.145 0.921982 15.0286C1.55468 13.9341 2.35059 11.17 2.35059 7.73193Z" stroke="#FBAB00" stroke-width="1.6" stroke-linecap="round" strokeLinejoin="round"/>
</svg>
