<svg width="64" height="64" viewBox="0 0 64 64" fill="none" xmlns="http://www.w3.org/2000/svg">
<rect width="64" height="64" rx="32" fill="#3573FC" fill-opacity="0.08"/>
<path d="M39.8888 30.1112C42.8888 27.1112 43.0763 23.5424 42.9825 21.9512C42.9669 21.7087 42.8635 21.4801 42.6917 21.3083C42.5198 21.1364 42.2913 21.033 42.0487 21.0174C40.4575 20.9237 36.8913 21.1087 33.8888 24.1112L26 31.9999L32 37.9999L39.8888 30.1112Z" stroke="#3573FC" stroke-width="1.6" stroke-linecap="round" stroke-linejoin="round"/>
<path d="M32.9984 25H25.2921C25.0273 25.0001 24.7733 25.1053 24.5859 25.2925L20.2921 29.5863C20.161 29.7176 20.0691 29.8829 20.0266 30.0636C19.9841 30.2442 19.9927 30.4332 20.0515 30.6092C20.1102 30.7853 20.2168 30.9415 20.3593 31.0604C20.5018 31.1793 20.6746 31.2562 20.8584 31.2825L25.9984 32" stroke="#3573FC" stroke-width="1.6" stroke-linecap="round" stroke-linejoin="round"/>
<path d="M39 31V38.7062C38.9999 38.9711 38.8947 39.2251 38.7075 39.4125L34.4137 43.7062C34.2824 43.8373 34.1171 43.9293 33.9364 43.9718C33.7558 44.0143 33.5668 44.0057 33.3908 43.9469C33.2147 43.8881 33.0585 43.7815 32.9396 43.639C32.8207 43.4965 32.7438 43.3237 32.7175 43.14L32 38" stroke="#3573FC" stroke-width="1.6" stroke-linecap="round" stroke-linejoin="round"/>
<path d="M27.82 39.4777C27.3362 40.5389 25.7063 43.0002 21 43.0002C21 38.2939 23.4613 36.6639 24.5225 36.1802" stroke="#3573FC" stroke-width="1.6" stroke-linecap="round" stroke-linejoin="round"/>
</svg>
