<svg width="32" height="32" viewBox="0 0 32 32" fill="none" xmlns="http://www.w3.org/2000/svg">
<rect width="32" height="32" rx="16" fill="#F9FAFD"/>
<path d="M10.13 11.8363C10.0649 11.7646 10.022 11.6757 10.0065 11.5802C9.99096 11.4847 10.0035 11.3868 10.0425 11.2983C10.0815 11.2097 10.1454 11.1344 10.2264 11.0815C10.3074 11.0286 10.402 11.0003 10.4987 11H21.4987C21.5956 11 21.6903 11.0281 21.7715 11.081C21.8526 11.1338 21.9167 11.2091 21.9559 11.2977C21.9951 11.3863 22.0077 11.4843 21.9922 11.5799C21.9767 11.6755 21.9338 11.7646 21.8687 11.8363L17.4987 16.5V20.1656C17.4988 20.248 17.4785 20.329 17.4397 20.4017C17.4008 20.4743 17.3447 20.5362 17.2762 20.5819L15.2762 21.915C15.201 21.9652 15.1135 21.994 15.0232 21.9985C14.9329 22.0029 14.843 21.9828 14.7633 21.9402C14.6835 21.8976 14.6167 21.8342 14.5702 21.7566C14.5236 21.6791 14.4989 21.5904 14.4987 21.5V16.5L10.13 11.8363Z" stroke="#55607A" stroke-width="1.2" stroke-linecap="round" stroke-linejoin="round"/>
</svg>
