<svg width="80" height="43" viewBox="0 0 80 43" fill="none" xmlns="http://www.w3.org/2000/svg">
<path fill-rule="evenodd" clip-rule="evenodd" d="M72.6717 30.8838C72.4008 30.8838 72.1385 30.9828 71.9334 31.1614C65.2974 36.9524 52.8822 40.8497 38.6568 40.8497C22.5806 40.8497 8.81277 35.8718 3.09086 28.8083C3.00998 28.709 3.07155 28.5561 3.19889 28.5561C3.38668 28.5561 3.57056 28.6275 3.69818 28.7659C9.13322 34.6334 20.947 38.6999 34.6463 38.6999C45.5505 38.6999 55.2589 36.1234 61.5077 32.1127C62.0692 31.752 61.7876 30.8838 61.1215 30.8838H59.2207C58.9464 30.8838 58.6774 30.967 58.4493 31.121C52.6163 35.0683 43.2858 37.6253 32.7686 37.6253C15.0953 37.6253 0.938398 30.4052 0.938398 21.5001C0.938398 12.5945 15.0953 5.37496 32.7686 5.37496C43.2858 5.37496 52.6163 7.93172 58.4493 11.8792C58.6774 12.033 58.9464 12.1162 59.2207 12.1162H61.1215C61.7876 12.1162 62.0692 11.248 61.5077 10.8881C55.2589 6.87743 45.5505 4.30037 34.6463 4.30037C20.9221 4.30037 9.09096 8.38158 3.66935 14.2671C3.54257 14.405 3.35926 14.4769 3.17287 14.4769C3.04525 14.4769 2.98451 14.3235 3.06484 14.2242C8.77135 7.14312 22.5565 2.15032 38.6568 2.15032C52.8822 2.15032 65.2974 6.04849 71.9334 11.8395C72.1385 12.018 72.4008 12.1162 72.6717 12.1162H77.6528C78.8697 12.1162 79.4912 10.5971 78.5288 9.84625C70.9304 3.92186 57.7085 0 42.6679 0C19.103 0 0 9.62569 0 21.5001C0 33.3743 19.103 43 42.6679 43C57.7085 43 70.9304 39.0784 78.5288 33.154C79.4912 32.4032 78.8697 30.8838 77.6528 30.8838H72.6717Z" fill="#55607A"/>
<path fill-rule="evenodd" clip-rule="evenodd" d="M54 24.9966L60 25C59.9663 24.5193 59.5695 23.685 58.7029 23.685H56.0404C55.8551 23.6678 55.7221 23.5273 55.7141 23.3575L55.7135 21.9922C55.7221 21.8111 55.8551 21.6723 56.0221 21.6562L59.4871 21.6557V20.3429H56.0467C55.8681 20.3404 55.7227 20.1962 55.7141 20.0157L55.7135 18.6515C55.7221 18.4696 55.8512 18.333 56.0188 18.3145L58.6741 18.3136C59.5399 18.3136 59.9364 17.4815 59.971 17H54V24.9966Z" fill="#55607A"/>
<path fill-rule="evenodd" clip-rule="evenodd" d="M16 17.0106H15.7215C14.7135 17.0106 14.1992 17.564 14.1934 18.656L14.1736 22.9008C14.089 23.3981 13.692 23.6984 13.0953 23.6984H11.9012C11.2409 23.6984 10.8215 23.3258 10.8077 22.7253L10.8104 18.6446C10.8048 17.5528 10.2903 17 9.27942 17H9V22.4864C9 23.8725 10.1801 25 11.63 25H13.3706C14.8205 25 16 23.8725 16 22.4864V17.0106Z" fill="#55607A"/>
<path fill-rule="evenodd" clip-rule="evenodd" d="M48.0216 20.7098C47.8372 20.7048 47.6917 20.5511 47.6917 20.3686V18.6429C47.6917 18.4632 47.8321 18.3145 48.0107 18.3039H48.0216L50.0415 18.3139C50.6242 18.3658 50.8662 18.6655 50.8662 19.308V19.7048C50.8662 20.3245 50.4727 20.7093 49.8397 20.7093L48.0216 20.7098ZM49.737 22.2213L50.9162 24.4174C51.1715 24.8172 51.4743 24.9955 51.9211 25H53L51.6087 22.3153C51.5429 22.1808 51.4571 22.0706 51.3509 21.9827L51.1281 21.7977L51.3733 21.6459C52.1169 21.1855 52.5603 20.382 52.5603 19.498V18.7955C52.5603 17.8089 51.7764 17.0045 50.8113 17.0022L46 17V24.9389H47.6917V22.3541C47.7007 22.1691 47.8372 22.0296 48.0096 22.0184H49.4134C49.5505 22.0184 49.6748 22.0963 49.737 22.2213Z" fill="#55607A"/>
<path fill-rule="evenodd" clip-rule="evenodd" d="M65.9182 21.5781H64.083C63.8872 21.5781 63.7293 21.4276 63.7293 21.2427L63.7375 21.1763C63.7375 21.1763 64.29 18.6318 64.3637 18.5058C64.4666 18.3298 64.6213 18.3071 64.7127 18.3071H65.2876C65.3787 18.3071 65.5334 18.3298 65.6366 18.5058C65.7114 18.6318 66.2625 21.1763 66.2625 21.1763L66.2722 21.2427C66.2722 21.4276 66.1131 21.5781 65.9182 21.5781ZM66.8812 17.2317C66.8507 17.0838 66.7436 17.0017 66.6191 17L63.38 17.0022C63.2552 17.0022 63.1496 17.0871 63.1236 17.2087L61 25H61.215C62.2531 25 62.9369 24.4355 63.2448 23.3217L63.2969 23.1301C63.3398 22.9835 63.4788 22.883 63.6343 22.883H66.2545C66.6534 22.883 66.7407 23.2542 66.7407 23.2542L66.8102 23.5167C67.0784 24.5425 67.1627 24.8594 67.1879 24.9692H69L66.8812 17.2317Z" fill="#55607A"/>
<path fill-rule="evenodd" clip-rule="evenodd" d="M27.0013 25H29V17H28.6899C27.575 17 27.0068 17.5534 27 18.6463L27.0013 25Z" fill="#55607A"/>
<path fill-rule="evenodd" clip-rule="evenodd" d="M38.2257 17C37.41 17 37.0339 17.817 37 18.2922H39.3422C39.5265 18.3071 39.6543 18.4461 39.6617 18.6232L39.6633 25H41.2818V18.626C41.2988 18.4387 41.4247 18.3071 41.5822 18.2936L42.773 18.2922C43.5897 18.2922 43.9663 17.4753 44 17H38.2257Z" fill="#55607A"/>
<path fill-rule="evenodd" clip-rule="evenodd" d="M37 22.1487C37 21.1526 36.1577 20.3423 35.1229 20.3423H32.162C31.9701 20.3423 31.8121 20.1899 31.8083 20.0028V19.3017C31.8194 18.69 32.2191 18.3207 32.8769 18.312H35.2765C36.1874 18.312 36.6055 17.4815 36.6428 17H32.627C31.2135 17 30.0574 18.0794 30 19.428L30.0017 19.8456C30.0017 20.8438 30.8438 21.6557 31.8783 21.6557H34.8368C35.0401 21.6647 35.1905 21.8177 35.1905 22.0039L35.1721 22.8803C35.0879 23.3823 34.6911 23.686 34.0939 23.686L31.3488 23.6888C30.4385 23.7215 30.0997 24.559 30.0682 25L34.3709 24.9983C35.7947 24.9983 36.958 23.9017 36.9988 22.5397L37 22.1487Z" fill="#55607A"/>
<path fill-rule="evenodd" clip-rule="evenodd" d="M19.1051 20.1792C18.9331 19.9617 18.6707 20.0423 18.6443 20.2375V23.3974C18.6392 24.4611 18.1855 25 17.2556 25H17V17.0878H18.7045C18.7143 17.1057 21.8952 21.8908 21.8952 21.8908C22.0672 22.1082 22.3295 22.0277 22.3559 21.8325V18.6026C22.3614 17.5392 22.8151 17 23.7447 17H24V24.9272H22.2958C22.286 24.9091 19.1051 20.1792 19.1051 20.1792Z" fill="#55607A"/>
<path fill-rule="evenodd" clip-rule="evenodd" d="M78.3317 17C78.0296 17 77.8301 17 77.7122 17.0332C77.5718 17.0729 77.5173 17.1794 77.3098 17.698C77.3098 17.698 75.9606 21.4681 75.758 21.835C75.6881 21.9617 75.5924 22.0116 75.5 22.0121C75.4076 22.0116 75.3119 21.9617 75.2423 21.835C75.0397 21.4681 73.6902 17.698 73.6902 17.698C73.4824 17.1794 73.4282 17.0729 73.2881 17.0332C73.1699 17 72.9704 17 72.6683 17H71L71.0017 25H71.2691C72.2375 25 72.7254 24.4495 72.7306 23.3618V21.9747L72.7249 20.3125C72.7249 20.0774 72.8709 20.0281 72.9769 20.0281C73.1224 20.0281 73.2503 20.1202 73.2943 20.2576L74.7214 23.872H76.2786L77.7057 20.2576C77.7497 20.1202 77.8776 20.0281 78.0231 20.0281C78.1291 20.0281 78.2748 20.0774 78.2748 20.3125L78.2694 21.9747V23.3618C78.2746 24.4495 78.7622 25 79.7309 25H79.9983L80 17H78.3317Z" fill="#55607A"/>
</svg>
