<svg width="115" height="48" viewBox="0 0 115 48" fill="none" xmlns="http://www.w3.org/2000/svg">
<path fill-rule="evenodd" clip-rule="evenodd" d="M24.5801 29.5302C24.5801 28.9368 24.6684 28.4135 24.845 27.9602C25.0217 27.5068 25.2617 27.1285 25.5651 26.8252C25.8684 26.5218 26.2217 26.2935 26.6251 26.1402C27.0284 25.9868 27.4567 25.9102 27.91 25.9102C28.3567 25.9102 28.7784 25.9868 29.175 26.1402C29.5717 26.2935 29.92 26.5218 30.22 26.8252C30.52 27.1285 30.7584 27.5068 30.9351 27.9602C31.1117 28.4135 31.2001 28.9368 31.2001 29.5302C31.2001 30.1235 31.1117 30.6468 30.9351 31.1002C30.7584 31.5535 30.52 31.9318 30.22 32.2352C29.92 32.5385 29.5717 32.7668 29.175 32.9202C28.7784 33.0735 28.3567 33.1502 27.91 33.1502C27.4567 33.1502 27.0284 33.0735 26.6251 32.9202C26.2217 32.7668 25.8684 32.5385 25.5651 32.2352C25.2617 31.9318 25.0217 31.5535 24.845 31.1002C24.6684 30.6468 24.5801 30.1235 24.5801 29.5302ZM25.6 29.5302C25.6 29.9502 25.6534 30.3318 25.7601 30.6752C25.8667 31.0185 26.0184 31.3102 26.2151 31.5502C26.4118 31.7902 26.6517 31.9752 26.9351 32.1052C27.2184 32.2352 27.5367 32.3002 27.8901 32.3002C28.2434 32.3002 28.5601 32.2352 28.8401 32.1052C29.1201 31.9752 29.3584 31.7902 29.5551 31.5502C29.7517 31.3102 29.9034 31.0185 30.0101 30.6752C30.1167 30.3318 30.17 29.9502 30.17 29.5302C30.17 29.1102 30.1167 28.7285 30.0101 28.3852C29.9034 28.0418 29.7517 27.7502 29.5551 27.5102C29.3584 27.2702 29.1201 27.0852 28.8401 26.9552C28.5601 26.8252 28.2434 26.7602 27.8901 26.7602C27.5367 26.7602 27.2184 26.8252 26.9351 26.9552C26.6517 27.0852 26.4118 27.2702 26.2151 27.5102C26.0184 27.7502 25.8667 28.0418 25.7601 28.3852C25.6534 28.7285 25.6 29.1102 25.6 29.5302ZM33.61 26.9002V28.6602H34.47C34.9567 28.6602 35.3918 28.7002 35.7751 28.7802C36.1584 28.8602 36.4834 28.9885 36.7501 29.1652C37.0167 29.3418 37.22 29.5685 37.36 29.8452C37.5 30.1218 37.5701 30.4602 37.5701 30.8602C37.5701 31.5935 37.3034 32.1452 36.7701 32.5152C36.2367 32.8852 35.4834 33.0702 34.5101 33.0702C34.3701 33.0702 34.2184 33.0668 34.0551 33.0602C33.8917 33.0535 33.7284 33.0435 33.5651 33.0302C33.4017 33.0168 33.2401 33.0002 33.0801 32.9802C32.9201 32.9602 32.7734 32.9335 32.6401 32.9002V26.0702H36.92V26.9002H33.61ZM34.5901 32.2202C34.8501 32.2202 35.0984 32.2002 35.3351 32.1602C35.5718 32.1202 35.7801 32.0485 35.9601 31.9452C36.1401 31.8418 36.2834 31.7035 36.3901 31.5302C36.4967 31.3568 36.55 31.1368 36.55 30.8702C36.55 30.5902 36.5018 30.3602 36.4051 30.1802C36.3084 30.0002 36.1701 29.8568 35.9901 29.7502C35.8101 29.6435 35.5884 29.5685 35.3251 29.5252C35.0617 29.4818 34.7634 29.4602 34.4301 29.4602H33.61V32.1902C33.6834 32.1968 33.7701 32.2035 33.8701 32.2102C33.9567 32.2168 34.0601 32.2202 34.1801 32.2202H34.5901ZM44.86 30.8302C44.86 31.5768 44.5901 32.1368 44.05 32.5102C43.51 32.8835 42.7501 33.0702 41.7701 33.0702C41.4901 33.0702 41.1834 33.0585 40.85 33.0352C40.5167 33.0118 40.2101 32.9668 39.9301 32.9002V26.9002H38.1301V26.0702H40.9001V28.5902C41.0334 28.5768 41.1684 28.5685 41.3051 28.5652C41.4417 28.5618 41.5767 28.5602 41.7101 28.5602C43.8101 28.5602 44.86 29.3168 44.86 30.8302ZM43.8401 30.8302C43.8401 30.5502 43.7867 30.3168 43.6801 30.1302C43.5734 29.9435 43.425 29.7968 43.235 29.6902C43.045 29.5835 42.8184 29.5085 42.5551 29.4652C42.2917 29.4218 42.0001 29.4002 41.6801 29.4002H41.295C41.165 29.4002 41.0334 29.4068 40.9001 29.4202V32.1902C41.0201 32.2035 41.1551 32.2118 41.3051 32.2152C41.4551 32.2185 41.6367 32.2202 41.85 32.2202C42.11 32.2202 42.36 32.2002 42.6 32.1602C42.84 32.1202 43.0517 32.0468 43.235 31.9402C43.4184 31.8335 43.565 31.6918 43.675 31.5152C43.785 31.3385 43.8401 31.1102 43.8401 30.8302ZM46.0901 33.0002V26.0702H50.3201V26.9002H47.0601V28.9602H49.9601V29.7702H47.0601V32.1702H50.5701V33.0002H46.0901ZM52.0201 33.0002V34.8502H51.1V32.1702H51.8301C52.1701 31.7835 52.4317 31.3552 52.6151 30.8852C52.7984 30.4152 52.9317 29.9185 53.0151 29.3952C53.0984 28.8718 53.1484 28.3302 53.165 27.7702C53.1817 27.2102 53.1934 26.6435 53.2001 26.0702H57.1201V32.1702H57.9901V34.8502H57.0701V33.0002H52.0201ZM54.1501 26.9002C54.1301 27.3402 54.1084 27.7885 54.0851 28.2452C54.0618 28.7018 54.0117 29.1552 53.9351 29.6052C53.8584 30.0552 53.7467 30.4968 53.6 30.9302C53.4534 31.3635 53.2467 31.7768 52.98 32.1702H56.1501V26.9002H54.1501ZM59.0301 33.0002V26.0702H59.98V31.2002C60.1934 30.8468 60.4551 30.4435 60.7651 29.9902C61.0751 29.5368 61.4051 29.0752 61.7551 28.6052C62.1051 28.1352 62.4584 27.6785 62.8151 27.2352C63.1717 26.7918 63.5067 26.4035 63.8201 26.0702H64.5901V33.0002H63.6401V27.5902C63.4534 27.8035 63.2501 28.0502 63.0301 28.3302C62.8101 28.6102 62.5834 28.9085 62.35 29.2252C62.1167 29.5418 61.8817 29.8702 61.6451 30.2102C61.4084 30.5502 61.1801 30.8852 60.9601 31.2152C60.7401 31.5452 60.535 31.8635 60.345 32.1702C60.155 32.4768 59.9868 32.7535 59.8401 33.0002H59.0301ZM70.67 26.0702H71.6401V33.0002H70.67V29.8002H67.2801V33.0002H66.3101V26.0702H67.2801V28.9602H70.67V26.0702ZM73.36 33.0002V26.0702H77.5901V26.9002H74.3301V28.9602H77.23V29.7702H74.3301V32.1702H77.8401V33.0002H73.36ZM83.4301 26.0702H84.4001V33.0002H83.4301V29.8002H80.04V33.0002H79.0701V26.0702H80.04V28.9602H83.4301V26.0702ZM90.48 26.0702H91.4501V33.0002H90.48V29.8002H87.0901V33.0002H86.1201V26.0702H87.0901V28.9602H90.48V26.0702ZM92.8901 29.5302C92.8901 28.9368 92.9784 28.4135 93.1551 27.9602C93.3318 27.5068 93.5717 27.1285 93.8751 26.8252C94.1784 26.5218 94.5317 26.2935 94.9351 26.1402C95.3384 25.9868 95.7667 25.9102 96.22 25.9102C96.6667 25.9102 97.0884 25.9868 97.485 26.1402C97.8817 26.2935 98.2301 26.5218 98.5301 26.8252C98.8301 27.1285 99.0684 27.5068 99.2451 27.9602C99.4217 28.4135 99.5101 28.9368 99.5101 29.5302C99.5101 30.1235 99.4217 30.6468 99.2451 31.1002C99.0684 31.5535 98.8301 31.9318 98.5301 32.2352C98.2301 32.5385 97.8817 32.7668 97.485 32.9202C97.0884 33.0735 96.6667 33.1502 96.22 33.1502C95.7667 33.1502 95.3384 33.0735 94.9351 32.9202C94.5317 32.7668 94.1784 32.5385 93.8751 32.2352C93.5717 31.9318 93.3318 31.5535 93.1551 31.1002C92.9784 30.6468 92.8901 30.1235 92.8901 29.5302ZM93.91 29.5302C93.91 29.9502 93.9634 30.3318 94.0701 30.6752C94.1767 31.0185 94.3284 31.3102 94.5251 31.5502C94.7218 31.7902 94.9617 31.9752 95.2451 32.1052C95.5284 32.2352 95.8467 32.3002 96.2001 32.3002C96.5534 32.3002 96.8701 32.2352 97.1501 32.1052C97.4301 31.9752 97.6684 31.7902 97.8651 31.5502C98.0617 31.3102 98.2134 31.0185 98.3201 30.6752C98.4267 30.3318 98.48 29.9502 98.48 29.5302C98.48 29.1102 98.4267 28.7285 98.3201 28.3852C98.2134 28.0418 98.0617 27.7502 97.8651 27.5102C97.6684 27.2702 97.4301 27.0852 97.1501 26.9552C96.8701 26.8252 96.5534 26.7602 96.2001 26.7602C95.8467 26.7602 95.5284 26.8252 95.2451 26.9552C94.9617 27.0852 94.7218 27.2702 94.5251 27.5102C94.3284 27.7502 94.1767 28.0418 94.0701 28.3852C93.9634 28.7285 93.91 29.1102 93.91 29.5302ZM100.95 33.0002V26.0702H105.18V26.9002H101.92V28.9602H104.82V29.7702H101.92V32.1702H105.43V33.0002H100.95Z" fill="#55607A"/>
<path fill-rule="evenodd" clip-rule="evenodd" d="M29.9899 37.0702C29.7832 37.2968 29.5499 37.5485 29.2899 37.8252C29.0299 38.1018 28.7582 38.3852 28.4749 38.6752C28.1915 38.9652 27.9099 39.2502 27.6299 39.5302C27.3499 39.8102 27.0866 40.0702 26.8399 40.3102C27.1266 40.5102 27.4299 40.7568 27.7499 41.0502C28.0699 41.3435 28.3832 41.6568 28.6899 41.9902C28.9965 42.3235 29.2849 42.6635 29.5549 43.0102C29.8249 43.3568 30.0499 43.6868 30.2299 44.0002H29.0899C28.8899 43.6868 28.6599 43.3718 28.3999 43.0552C28.1399 42.7385 27.8649 42.4352 27.5749 42.1452C27.2849 41.8552 26.9916 41.5868 26.6949 41.3402C26.3982 41.0935 26.1099 40.8835 25.8299 40.7102V44.0002H24.8599V37.0702H25.8299V40.1302C26.0632 39.9102 26.3199 39.6618 26.5999 39.3852C26.8799 39.1085 27.1565 38.8302 27.4299 38.5502C27.7032 38.2702 27.9616 38.0018 28.2049 37.7452C28.4482 37.4885 28.6532 37.2635 28.8199 37.0702H29.9899ZM32.9899 37.0002C33.9632 37.0002 34.7115 37.1852 35.2349 37.5552C35.7582 37.9252 36.0199 38.4768 36.0199 39.2102C36.0199 39.6102 35.9482 39.9518 35.8049 40.2352C35.6615 40.5185 35.4549 40.7485 35.1849 40.9252C34.9149 41.1018 34.5866 41.2302 34.1999 41.3102C33.8132 41.3902 33.3766 41.4302 32.8899 41.4302H32.1199V44.0002H31.1499V37.1702C31.4232 37.1035 31.7282 37.0585 32.0649 37.0352C32.4015 37.0118 32.7099 37.0002 32.9899 37.0002ZM33.0699 37.8502C32.6566 37.8502 32.3399 37.8602 32.1199 37.8802V40.6002H32.8499C33.1832 40.6002 33.4832 40.5785 33.7499 40.5352C34.0165 40.4918 34.2415 40.4185 34.4249 40.3152C34.6082 40.2118 34.7499 40.0702 34.8499 39.8902C34.9499 39.7102 34.9999 39.4802 34.9999 39.2002C34.9999 38.9335 34.9482 38.7135 34.8448 38.5402C34.7415 38.3668 34.6015 38.2285 34.4249 38.1252C34.2482 38.0218 34.0432 37.9502 33.8099 37.9102C33.5765 37.8702 33.3299 37.8502 33.0699 37.8502ZM37.2299 44.0002V37.0702H41.4599V37.9002H38.1999V39.9602H41.0999V40.7702H38.1999V43.1702H41.7099V44.0002H37.2299ZM43.1599 44.0002V45.8502H42.2399V43.1702H42.9698C43.3099 42.7835 43.5715 42.3552 43.7549 41.8852C43.9382 41.4152 44.0716 40.9185 44.1549 40.3952C44.2382 39.8718 44.2882 39.3302 44.3049 38.7702C44.3215 38.2102 44.3332 37.6435 44.3399 37.0702H48.2599V43.1702H49.1299V45.8502H48.2099V44.0002H43.1599ZM45.2899 37.9002C45.2699 38.3402 45.2482 38.7885 45.2249 39.2452C45.2015 39.7018 45.1516 40.1552 45.0749 40.6052C44.9982 41.0552 44.8865 41.4968 44.7399 41.9302C44.5932 42.3635 44.3865 42.7768 44.1199 43.1702H47.2899V37.9002H45.2899ZM50.1699 44.0002V37.0702H51.1199V42.2002C51.3332 41.8468 51.5949 41.4435 51.9049 40.9902C52.2149 40.5368 52.5449 40.0752 52.8949 39.6052C53.2449 39.1352 53.5982 38.6785 53.9549 38.2352C54.3116 37.7918 54.6466 37.4035 54.9599 37.0702H55.7299V44.0002H54.7799V38.5902C54.5932 38.8035 54.3899 39.0502 54.1699 39.3302C53.9499 39.6102 53.7232 39.9085 53.4899 40.2252C53.2565 40.5418 53.0215 40.8702 52.7849 41.2102C52.5482 41.5502 52.3199 41.8852 52.0999 42.2152C51.8799 42.5452 51.6749 42.8635 51.4849 43.1702C51.2949 43.4768 51.1265 43.7535 50.9799 44.0002H50.1699ZM62.0799 37.0702V37.9102H59.8999V44.0002H58.9299V37.9102H56.7499V37.0702H62.0799ZM67.4599 37.0702H68.4299V44.0002H67.4599V40.8002H64.0699V44.0002H63.0999V37.0702H64.0699V39.9602H67.4599V37.0702ZM69.8699 40.5302C69.8699 39.9368 69.9582 39.4135 70.1349 38.9602C70.3116 38.5068 70.5515 38.1285 70.8549 37.8252C71.1582 37.5218 71.5115 37.2935 71.9149 37.1402C72.3182 36.9868 72.7466 36.9102 73.1999 36.9102C73.6466 36.9102 74.0682 36.9868 74.4649 37.1402C74.8616 37.2935 75.2099 37.5218 75.5099 37.8252C75.8099 38.1285 76.0482 38.5068 76.2249 38.9602C76.4015 39.4135 76.4899 39.9368 76.4899 40.5302C76.4899 41.1235 76.4015 41.6468 76.2249 42.1002C76.0482 42.5535 75.8099 42.9318 75.5099 43.2352C75.2099 43.5385 74.8616 43.7668 74.4649 43.9202C74.0682 44.0735 73.6466 44.1502 73.1999 44.1502C72.7466 44.1502 72.3182 44.0735 71.9149 43.9202C71.5115 43.7668 71.1582 43.5385 70.8549 43.2352C70.5515 42.9318 70.3116 42.5535 70.1349 42.1002C69.9582 41.6468 69.8699 41.1235 69.8699 40.5302ZM70.8899 40.5302C70.8899 40.9502 70.9432 41.3318 71.0499 41.6752C71.1565 42.0185 71.3082 42.3102 71.5049 42.5502C71.7015 42.7902 71.9415 42.9752 72.2249 43.1052C72.5082 43.2352 72.8265 43.3002 73.1799 43.3002C73.5332 43.3002 73.8499 43.2352 74.1299 43.1052C74.4099 42.9752 74.6482 42.7902 74.8448 42.5502C75.0415 42.3102 75.1932 42.0185 75.2999 41.6752C75.4065 41.3318 75.4599 40.9502 75.4599 40.5302C75.4599 40.1102 75.4065 39.7285 75.2999 39.3852C75.1932 39.0418 75.0415 38.7502 74.8448 38.5102C74.6482 38.2702 74.4099 38.0852 74.1299 37.9552C73.8499 37.8252 73.5332 37.7602 73.1799 37.7602C72.8265 37.7602 72.5082 37.8252 72.2249 37.9552C71.9415 38.0852 71.7015 38.2702 71.5049 38.5102C71.3082 38.7502 71.1565 39.0418 71.0499 39.3852C70.9432 39.7285 70.8899 40.1102 70.8899 40.5302ZM77.9299 44.0002V37.0702H82.1599V37.9002H78.8999V39.9602H81.7999V40.7702H78.8999V43.1702H82.4099V44.0002H77.9299ZM86.9199 37.9002V39.6602H87.7799C88.2666 39.6602 88.7016 39.7002 89.0849 39.7802C89.4682 39.8602 89.7932 39.9885 90.0599 40.1652C90.3265 40.3418 90.5299 40.5685 90.6699 40.8452C90.8099 41.1218 90.8799 41.4602 90.8799 41.8602C90.8799 42.5935 90.6132 43.1452 90.0799 43.5152C89.5466 43.8852 88.7932 44.0702 87.8199 44.0702C87.6799 44.0702 87.5282 44.0668 87.3649 44.0602C87.2015 44.0535 87.0382 44.0435 86.8749 44.0302C86.7115 44.0168 86.5499 44.0002 86.3899 43.9802C86.2299 43.9602 86.0832 43.9335 85.9499 43.9002V37.0702H90.2299V37.9002H86.9199ZM87.8999 43.2202C88.1599 43.2202 88.4082 43.2002 88.6449 43.1602C88.8816 43.1202 89.0899 43.0485 89.2699 42.9452C89.4499 42.8418 89.5932 42.7035 89.6999 42.5302C89.8066 42.3568 89.8599 42.1368 89.8599 41.8702C89.8599 41.5902 89.8116 41.3602 89.7149 41.1802C89.6182 41.0002 89.4799 40.8568 89.2999 40.7502C89.1199 40.6435 88.8982 40.5685 88.6349 40.5252C88.3716 40.4818 88.0732 40.4602 87.7399 40.4602H86.9199V43.1902C86.9932 43.1968 87.0799 43.2035 87.1799 43.2102C87.2665 43.2168 87.3699 43.2202 87.4899 43.2202H87.8999ZM97.8299 36.9202C98.2566 36.9202 98.6615 36.9968 99.0449 37.1502C99.4282 37.3035 99.7649 37.5318 100.055 37.8352C100.345 38.1385 100.575 38.5152 100.745 38.9652C100.915 39.4152 101 39.9368 101 40.5302C101 41.1235 100.917 41.6452 100.75 42.0952C100.583 42.5452 100.355 42.9218 100.065 43.2252C99.7749 43.5285 99.4382 43.7568 99.0549 43.9102C98.6715 44.0635 98.2632 44.1402 97.8299 44.1402C97.4099 44.1402 97.0132 44.0685 96.6399 43.9252C96.2666 43.7818 95.9382 43.5702 95.6549 43.2902C95.3716 43.0102 95.1416 42.6618 94.9649 42.2452C94.7882 41.8285 94.6865 41.3435 94.6599 40.7902H93.1099V44.0002H92.1399V37.0702H93.1099V39.9602H94.6899C94.7432 39.4602 94.8632 39.0202 95.0499 38.6402C95.2365 38.2602 95.4699 37.9435 95.7499 37.6902C96.0299 37.4368 96.3482 37.2452 96.7049 37.1152C97.0616 36.9852 97.4366 36.9202 97.8299 36.9202ZM97.8299 43.2902C98.1699 43.2902 98.4732 43.2252 98.7399 43.0952C99.0065 42.9652 99.2315 42.7802 99.4149 42.5402C99.5982 42.3002 99.7382 42.0102 99.8349 41.6702C99.9316 41.3302 99.9799 40.9502 99.9799 40.5302C99.9799 40.1102 99.9316 39.7302 99.8349 39.3902C99.7382 39.0502 99.5982 38.7602 99.4149 38.5202C99.2315 38.2802 99.0065 38.0952 98.7399 37.9652C98.4732 37.8352 98.1699 37.7702 97.8299 37.7702C97.4899 37.7702 97.1865 37.8352 96.9199 37.9652C96.6532 38.0952 96.4265 38.2802 96.2399 38.5202C96.0532 38.7602 95.9115 39.0502 95.8149 39.3902C95.7182 39.7302 95.6699 40.1102 95.6699 40.5302C95.6699 40.9502 95.7182 41.3302 95.8149 41.6702C95.9115 42.0102 96.0532 42.3002 96.2399 42.5402C96.4265 42.7802 96.6532 42.9652 96.9199 43.0952C97.1865 43.2252 97.4899 43.2902 97.8299 43.2902ZM104.28 37.0002C105.253 37.0002 106.002 37.1852 106.525 37.5552C107.048 37.9252 107.31 38.4768 107.31 39.2102C107.31 39.6102 107.238 39.9518 107.095 40.2352C106.952 40.5185 106.745 40.7485 106.475 40.9252C106.205 41.1018 105.877 41.2302 105.49 41.3102C105.103 41.3902 104.667 41.4302 104.18 41.4302H103.41V44.0002H102.44V37.1702C102.713 37.1035 103.018 37.0585 103.355 37.0352C103.692 37.0118 104 37.0002 104.28 37.0002ZM104.36 37.8502C103.947 37.8502 103.63 37.8602 103.41 37.8802V40.6002H104.14C104.473 40.6002 104.773 40.5785 105.04 40.5352C105.307 40.4918 105.532 40.4185 105.715 40.3152C105.898 40.2118 106.04 40.0702 106.14 39.8902C106.24 39.7102 106.29 39.4802 106.29 39.2002C106.29 38.9335 106.238 38.7135 106.135 38.5402C106.032 38.3668 105.892 38.2285 105.715 38.1252C105.538 38.0218 105.333 37.9502 105.1 37.9102C104.867 37.8702 104.62 37.8502 104.36 37.8502ZM108.24 40.5302C108.24 39.9368 108.328 39.4135 108.505 38.9602C108.682 38.5068 108.922 38.1285 109.225 37.8252C109.528 37.5218 109.882 37.2935 110.285 37.1402C110.688 36.9868 111.117 36.9102 111.57 36.9102C112.017 36.9102 112.438 36.9868 112.835 37.1402C113.232 37.2935 113.58 37.5218 113.88 37.8252C114.18 38.1285 114.418 38.5068 114.595 38.9602C114.772 39.4135 114.86 39.9368 114.86 40.5302C114.86 41.1235 114.772 41.6468 114.595 42.1002C114.418 42.5535 114.18 42.9318 113.88 43.2352C113.58 43.5385 113.232 43.7668 112.835 43.9202C112.438 44.0735 112.017 44.1502 111.57 44.1502C111.117 44.1502 110.688 44.0735 110.285 43.9202C109.882 43.7668 109.528 43.5385 109.225 43.2352C108.922 42.9318 108.682 42.5535 108.505 42.1002C108.328 41.6468 108.24 41.1235 108.24 40.5302ZM109.26 40.5302C109.26 40.9502 109.313 41.3318 109.42 41.6752C109.527 42.0185 109.678 42.3102 109.875 42.5502C110.072 42.7902 110.312 42.9752 110.595 43.1052C110.878 43.2352 111.197 43.3002 111.55 43.3002C111.903 43.3002 112.22 43.2352 112.5 43.1052C112.78 42.9752 113.018 42.7902 113.215 42.5502C113.412 42.3102 113.563 42.0185 113.67 41.6752C113.777 41.3318 113.83 40.9502 113.83 40.5302C113.83 40.1102 113.777 39.7285 113.67 39.3852C113.563 39.0418 113.412 38.7502 113.215 38.5102C113.018 38.2702 112.78 38.0852 112.5 37.9552C112.22 37.8252 111.903 37.7602 111.55 37.7602C111.197 37.7602 110.878 37.8252 110.595 37.9552C110.312 38.0852 110.072 38.2702 109.875 38.5102C109.678 38.7502 109.527 39.0418 109.42 39.3852C109.313 39.7285 109.26 40.1102 109.26 40.5302Z" fill="#55607A"/>
<path d="M10.5 48C12.433 48 14 46.433 14 44.5C14 42.567 12.433 41 10.5 41C8.567 41 7 42.567 7 44.5C7 46.433 8.567 48 10.5 48Z" fill="#55607A"/>
<path d="M5.5 40C7.433 40 9 38.433 9 36.5C9 34.567 7.433 33 5.5 33C3.567 33 2 34.567 2 36.5C2 38.433 3.567 40 5.5 40Z" fill="#55607A"/>
<path d="M3.5 31C5.433 31 7 29.433 7 27.5C7 25.567 5.433 24 3.5 24C1.567 24 0 25.567 0 27.5C0 29.433 1.567 31 3.5 31Z" fill="#55607A"/>
<path d="M5.5 22C7.433 22 9 20.433 9 18.5C9 16.567 7.433 15 5.5 15C3.567 15 2 16.567 2 18.5C2 20.433 3.567 22 5.5 22Z" fill="#55607A"/>
<path d="M10.5 14C12.433 14 14 12.433 14 10.5C14 8.567 12.433 7 10.5 7C8.567 7 7 8.567 7 10.5C7 12.433 8.567 14 10.5 14Z" fill="#55607A"/>
<path d="M18.5 9C20.433 9 22 7.433 22 5.5C22 3.567 20.433 2 18.5 2C16.567 2 15 3.567 15 5.5C15 7.433 16.567 9 18.5 9Z" fill="#55607A"/>
<path d="M27.5 7C29.433 7 31 5.433 31 3.5C31 1.567 29.433 0 27.5 0C25.567 0 24 1.567 24 3.5C24 5.433 25.567 7 27.5 7Z" fill="#55607A"/>
<path d="M36.5 9C38.433 9 40 7.433 40 5.5C40 3.567 38.433 2 36.5 2C34.567 2 33 3.567 33 5.5C33 7.433 34.567 9 36.5 9Z" fill="#55607A"/>
<path d="M44.5 14C46.433 14 48 12.433 48 10.5C48 8.567 46.433 7 44.5 7C42.567 7 41 8.567 41 10.5C41 12.433 42.567 14 44.5 14Z" fill="#55607A"/>
<path d="M33.5 15C34.8807 15 36 13.8807 36 12.5C36 11.1193 34.8807 10 33.5 10C32.1193 10 31 11.1193 31 12.5C31 13.8807 32.1193 15 33.5 15Z" fill="#55607A"/>
<path d="M27.5 14C28.8807 14 30 12.8807 30 11.5C30 10.1193 28.8807 9 27.5 9C26.1193 9 25 10.1193 25 11.5C25 12.8807 26.1193 14 27.5 14Z" fill="#55607A"/>
<path d="M21.5 15C22.8807 15 24 13.8807 24 12.5C24 11.1193 22.8807 10 21.5 10C20.1193 10 19 11.1193 19 12.5C19 13.8807 20.1193 15 21.5 15Z" fill="#55607A"/>
<path d="M16.5 18C17.8807 18 19 16.8807 19 15.5C19 14.1193 17.8807 13 16.5 13C15.1193 13 14 14.1193 14 15.5C14 16.8807 15.1193 18 16.5 18Z" fill="#55607A"/>
<path d="M12.5 23C13.8807 23 15 21.8807 15 20.5C15 19.1193 13.8807 18 12.5 18C11.1193 18 10 19.1193 10 20.5C10 21.8807 11.1193 23 12.5 23Z" fill="#55607A"/>
<path d="M11.5 30C12.8807 30 14 28.8807 14 27.5C14 26.1193 12.8807 25 11.5 25C10.1193 25 9 26.1193 9 27.5C9 28.8807 10.1193 30 11.5 30Z" fill="#55607A"/>
<path d="M12.5 36C13.8807 36 15 34.8807 15 33.5C15 32.1193 13.8807 31 12.5 31C11.1193 31 10 32.1193 10 33.5C10 34.8807 11.1193 36 12.5 36Z" fill="#55607A"/>
<path d="M16.5 41C17.8807 41 19 39.8807 19 38.5C19 37.1193 17.8807 36 16.5 36C15.1193 36 14 37.1193 14 38.5C14 39.8807 15.1193 41 16.5 41Z" fill="#55607A"/>
<path d="M20.5 36C21.3284 36 22 35.3284 22 34.5C22 33.6716 21.3284 33 20.5 33C19.6716 33 19 33.6716 19 34.5C19 35.3284 19.6716 36 20.5 36Z" fill="#55607A"/>
<path d="M17.5 33C18.3284 33 19 32.3284 19 31.5C19 30.6716 18.3284 30 17.5 30C16.6716 30 16 30.6716 16 31.5C16 32.3284 16.6716 33 17.5 33Z" fill="#55607A"/>
<path d="M17.5 29C18.3284 29 19 28.3284 19 27.5C19 26.6716 18.3284 26 17.5 26C16.6716 26 16 26.6716 16 27.5C16 28.3284 16.6716 29 17.5 29Z" fill="#55607A"/>
<path d="M17.5 25C18.3284 25 19 24.3284 19 23.5C19 22.6716 18.3284 22 17.5 22C16.6716 22 16 22.6716 16 23.5C16 24.3284 16.6716 25 17.5 25Z" fill="#55607A"/>
<path d="M19.5 21C20.3284 21 21 20.3284 21 19.5C21 18.6716 20.3284 18 19.5 18C18.6716 18 18 18.6716 18 19.5C18 20.3284 18.6716 21 19.5 21Z" fill="#55607A"/>
<path d="M23.5 19C24.3284 19 25 18.3284 25 17.5C25 16.6716 24.3284 16 23.5 16C22.6716 16 22 16.6716 22 17.5C22 18.3284 22.6716 19 23.5 19Z" fill="#55607A"/>
<path d="M27.5 18C28.3284 18 29 17.3284 29 16.5C29 15.6716 28.3284 15 27.5 15C26.6716 15 26 15.6716 26 16.5C26 17.3284 26.6716 18 27.5 18Z" fill="#55607A"/>
<path d="M31.5 19C32.3284 19 33 18.3284 33 17.5C33 16.6716 32.3284 16 31.5 16C30.6716 16 30 16.6716 30 17.5C30 18.3284 30.6716 19 31.5 19Z" fill="#55607A"/>
<path d="M35.5 22C36.3284 22 37 21.3284 37 20.5C37 19.6716 36.3284 19 35.5 19C34.6716 19 34 19.6716 34 20.5C34 21.3284 34.6716 22 35.5 22Z" fill="#55607A"/>
<path d="M38.5 18C39.8807 18 41 16.8807 41 15.5C41 14.1193 39.8807 13 38.5 13C37.1193 13 36 14.1193 36 15.5C36 16.8807 37.1193 18 38.5 18Z" fill="#55607A"/>
</svg>
