<svg width="215" height="36" viewBox="0 0 215 36" fill="none" xmlns="http://www.w3.org/2000/svg">
<path fill-rule="evenodd" clip-rule="evenodd" d="M27.4586 6.12033C27.3065 7.29471 26.8762 7.19012 26.6822 7.13302C26.473 7.07213 26.4159 6.98444 25.7875 6.92559C25.5894 6.90665 24.6725 6.80381 25.1632 7.19012C25.9512 7.82029 26.621 9.09927 26.621 9.09927C26.7125 8.68236 26.4995 8.08686 26.385 7.87914C26.2673 7.66792 26.4159 7.61082 26.5601 7.63937C26.7125 7.66792 26.7967 7.72502 27.0705 7.87914C27.3371 8.02568 27.5157 7.99917 27.5769 7.63937C27.6264 7.3288 27.611 6.69543 27.5501 6.12237C27.5422 6.08042 27.4741 6.05973 27.4586 6.12033ZM20.5111 4.6852C18.9614 5.9397 16.4111 8.93961 15.2081 11.7507C15.1167 11.9602 15.2081 11.9925 15.505 11.8119C15.8057 11.631 16.6698 11.2158 17.0849 11.0961C17.0849 11.0961 16.6357 12.653 16.4871 13.5113C16.3691 14.2178 16.9556 14.1624 17.3212 14.0785C17.6866 13.9967 19.2015 13.9302 19.4678 13.8979C19.4678 13.8979 18.0673 13.5684 17.9187 13.0015C17.7702 12.438 18.1699 11.178 18.4551 10.3232C18.5166 10.1405 18.4251 9.87597 18.1279 9.99193C17.8273 10.1102 17.4124 10.1996 17.2032 10.3232C17.2032 10.3232 18.5166 7.10272 20.5417 4.77638L20.5111 4.6852ZM22.4791 1.47028C22.567 1.37151 22.4791 1.2911 22.2434 1.44173C22.0033 1.58827 20.9524 2.22018 20.2445 3.40622C20.1574 3.55626 20.2104 3.77913 20.5871 3.64978C21.048 3.4878 21.5238 3.40622 21.7329 3.37563C21.9427 3.34504 21.9427 3.1985 21.7944 3.14139C21.6458 3.07876 21.6115 3.02136 21.6761 2.78188C21.7329 2.54386 22.1519 1.85688 22.4791 1.47028ZM8.77802 21.7355C8.96068 21.5109 9.34175 21.1951 9.84431 20.9474C10.5598 20.5856 12.6004 20.3496 13.7311 20.365C14.4011 20.3723 14.8504 20.6771 15.1627 20.9894C15.4744 21.3014 14.9381 21.3471 14.6709 21.1225C14.4011 20.9017 14.104 20.8256 13.7917 20.8256C13.4799 20.8256 13.1487 20.9474 12.9736 21.0768C12.7944 21.2137 12.749 21.3967 12.3035 21.5257C11.7631 21.6781 11.1387 21.191 11.1387 21.191C11.5766 22.0172 12.33 21.9904 12.749 21.8879C13.0537 21.8077 13.1487 21.6667 13.5976 21.6592C14.3131 21.6478 14.6258 22.063 14.6258 22.063C13.7311 22.0172 12.2161 22.5769 11.4965 22.7327C10.6018 22.9308 9.75312 22.9574 9.75312 22.9574C10.3311 23.6732 11.1842 23.6732 11.8123 23.6732C12.4366 23.6732 14.4466 23.5246 15.6536 23.6274C17.1686 23.753 18.3791 24.7468 18.3791 26.2201C18.3791 27.6931 17.3553 28.4963 17.3553 28.4963C18.6497 28.0969 19.1866 27.0687 19.1866 27.0687C19.8757 29.726 18.444 31.8505 17.1345 32.7184C16.0457 33.4415 12.779 34.1879 10.2705 32.9887C7.49554 31.6602 6.44469 30.3658 6.44469 30.3658C12.4786 30.8567 15.429 29.1856 15.429 29.1856C9.97745 29.5014 6.17462 28.1231 3.71514 27.046C2.73304 25.4853 2.01752 23.7798 1.59828 21.9257V21.9295C6.10965 25.3251 10.1109 25.9077 10.1109 25.9077C5.23797 23.2697 2.81316 20.3155 1.20235 17.3698C1.28655 15.6491 1.62887 14.0407 2.19232 12.4969L2.20368 12.4701C4.01202 17.2803 5.99894 18.7126 5.99894 18.7126C4.03095 14.2388 4.0461 11.0352 4.22528 8.62147C4.97926 7.55167 5.8355 6.60395 6.81411 5.73955L6.82896 5.72236C6.06799 10.0167 6.98133 12.8074 6.98133 12.8074C6.98133 9.41129 8.88872 5.37042 10.4078 3.31095C11.3709 2.82937 12.2997 2.47335 13.3544 2.17823H13.3578C11.9722 3.92014 11.3631 5.6102 11.3631 5.6102C14.2071 2.90366 18.916 1.27799 19.6315 1.09532C20.347 0.920229 22.4071 0.15867 22.9895 0.0275681C23.5223 -0.100038 23.7811 0.238789 23.747 0.562466C23.7018 0.982867 23.5223 1.6815 23.5223 1.6815C25.102 2.06606 25.7875 2.84277 25.7875 2.84277C25.7269 2.6333 25.7569 2.27554 25.7569 2.27554C27.9347 4.21294 28.5284 5.13648 28.5896 6.89296C28.6505 8.65177 29.4231 8.92038 29.8689 9.15812C30.3178 9.39643 31.422 10.0263 31.776 10.3232C32.0422 10.5478 31.928 10.7992 31.776 10.9781C31.6277 11.1549 31.6277 11.2158 31.6006 11.4233C31.4671 12.3369 31.0598 12.7063 30.4964 12.912C29.9294 13.1194 29.301 12.7937 29.301 12.7937C28.677 13.4792 28.5587 13.0318 28.5284 12.7655C28.5019 12.4969 28.1703 12.7063 27.9347 12.7937C27.6949 12.8832 27.6072 12.556 27.6072 12.556C26.473 12.4074 25.978 13.0775 25.978 13.0775C26.9639 13.2109 27.4586 13.8807 27.5006 14.149C27.5463 14.4232 27.9918 14.2388 27.9918 14.2388C27.9918 14.2388 28.034 14.149 28.2167 14.0616C28.3953 13.9719 28.441 14.0159 28.3953 14.2388C28.3498 14.4611 28.3038 14.6423 28.3038 14.6423L28.7991 14.9563C28.6161 16.1651 28.0835 16.1132 27.8129 15.9821C26.0957 15.1239 23.0314 14.9563 23.0314 14.9563C23.21 14.6877 23.6403 14.3434 23.6403 14.3434C15.7751 14.3434 14.4466 15.2987 14.0434 15.8033C13.7651 16.1534 14.0049 16.6959 14.0049 16.6959C13.0686 16.8751 10.693 17.4747 9.78313 18.3091C8.90766 19.1088 8.61487 20.9853 8.58398 21.6781C8.5767 21.8229 8.71742 21.8191 8.77802 21.7355ZM29.4458 30.1412L29.4613 30.1295C28.6461 30.9255 27.7709 31.6258 26.8078 32.2385C27.0169 31.8505 27.7558 29.726 26.4159 26.9204C25.072 24.1224 23.252 22.5996 21.4935 21.408C19.7384 20.2164 16.8755 19.318 16.3085 19.1429C15.7451 18.964 15.7751 18.7851 15.8937 18.4273C16.0114 18.0693 16.5483 17.2366 16.5483 17.2366C16.3085 17.2634 15.6536 17.4726 15.3299 17.623C14.9987 17.7715 14.7324 17.7409 14.6409 17.6515C14.0393 17.0481 15.2958 15.8662 15.2958 15.8662C15.3299 16.281 15.4744 16.4902 16.0988 16.399C16.7269 16.3134 18.8134 16.1307 19.2892 16.1307C19.2892 16.1307 17.024 17.8875 16.6357 18.4841C16.2514 19.082 16.8755 18.964 17.1761 19.0249C17.4733 19.082 19.6621 19.2038 21.7635 20.1556C22.8333 20.6392 24.2722 21.7506 25.102 22.7441C25.3991 23.1057 26.1453 23.9966 26.473 24.2669C26.473 24.2669 25.2812 24.088 24.6527 23.7303C24.6527 23.7303 25.3001 24.4726 25.738 25.0017C26.8113 26.2999 28.7452 27.7959 29.4458 30.1412ZM33.3667 24.202C33.0092 25.131 32.583 26.0027 32.0725 26.8441C30.1922 21.545 24.9234 19.4397 24.9234 19.4397C28.6161 20.3001 31.6428 22.8012 33.3667 24.202ZM23.0236 34.0393L23.016 34.0431C21.9957 34.3781 20.8688 34.622 19.7725 34.7513C23.6744 32.8742 23.5532 27.187 23.5532 27.187C24.2079 29.6042 23.5873 32.7259 23.0236 34.0393ZM34.4749 17.9932C34.4787 18.0844 34.4787 18.1302 34.4787 18.2138C34.4787 18.9031 34.4332 19.577 34.3572 20.2354V20.2622C31.4791 17.5315 28.5896 16.281 28.5896 16.281C29.838 16.4599 31.3305 16.3399 32.3123 16.0754C32.3123 16.0754 31.8939 16.8483 30.8507 16.9054C30.8507 16.9054 33.9689 17.7884 34.4749 17.9932ZM17.778 0.438647C7.95994 0.438647 0 8.3986 0 18.2138C0 28.0357 7.95994 36 17.778 36C27.5993 36 35.5601 28.0357 35.5601 18.2138C35.5601 11.3321 31.6387 5.37421 25.9131 2.42004C25.86 2.37051 25.8143 2.32681 25.7569 2.27554C25.7569 2.27554 25.7534 2.30205 25.7534 2.34225C25.0565 1.99002 24.3293 1.68528 23.5829 1.42658C23.6403 1.18476 23.7164 0.82671 23.747 0.562466C23.7811 0.238789 23.5223 -0.100038 22.9895 0.0275681C22.6201 0.109143 21.6723 0.440395 20.8423 0.720371C19.8451 0.547025 18.8248 0.438647 17.778 0.438647Z" fill="#55607A"/>
<path fill-rule="evenodd" clip-rule="evenodd" d="M187.606 20.5101L188.645 18.1728L189.673 20.5101H187.606ZM193.828 22.8527L190.018 14.1929H186.26C186.748 14.5425 187.299 15.1306 187.522 15.6448L184.331 22.858C184.002 23.6051 183.754 23.9547 182.964 24.6859H186.737C186.26 24.1457 186.213 23.6846 186.409 23.2287C186.409 23.2287 186.61 22.7623 186.742 22.4496H190.532L190.871 23.2287C191.093 23.7219 191.093 24.0236 190.553 24.6859H195.275C194.496 24.0025 194.178 23.6424 193.828 22.8527Z" fill="#55607A"/>
<path fill-rule="evenodd" clip-rule="evenodd" d="M83.3944 15.8462C84.936 15.8462 85.2807 16.3495 86.0225 17.2665L87.5856 13.6841C87.0133 14.039 86.4788 14.32 85.7893 14.32C84.9838 14.32 84.5807 14.0126 83.2776 14.0126C79.9596 14.0126 77.7236 16.1909 77.7236 19.4339C77.7236 22.741 79.743 24.882 83.1129 24.882C84.9786 24.882 86.3028 24.0287 87.1886 22.7941L86.4253 21.0717C85.593 22.2588 84.7081 23.0537 83.3944 23.0484C81.7137 23.0484 80.7281 21.4111 80.7281 19.4339C80.7281 17.5314 81.6399 15.8462 83.3944 15.8462Z" fill="#55607A"/>
<path fill-rule="evenodd" clip-rule="evenodd" d="M97.2161 22.7465L93.9938 18.8619L97.0202 15.979C97.9315 15.1152 98.3558 14.7704 99.2675 14.1929H94.3329C94.927 14.8446 94.9899 15.0884 94.5665 15.5017C94.5717 15.5017 91.62 18.3107 91.62 18.3107V15.8359C91.62 15.0831 91.8953 14.6487 92.335 14.1929H88.0107C88.4609 14.6487 88.7319 15.0831 88.7319 15.8359V23.0486C88.7319 23.7957 88.4609 24.2252 88.0107 24.6859H92.335C91.8953 24.2252 91.62 23.7957 91.62 23.0486V20.4306L94.0473 23.3398C94.4659 23.8436 94.3227 24.1035 93.8405 24.6859H99.3677C98.3979 24.0236 98.0163 23.7166 97.2161 22.7465Z" fill="#55607A"/>
<path fill-rule="evenodd" clip-rule="evenodd" d="M110.104 14.1929H105.785C106.225 14.6487 106.5 15.0831 106.5 15.8359V15.8784L103.098 19.9005V15.8359C103.098 15.0831 103.369 14.6487 103.813 14.1929H99.4941C99.9338 14.6487 100.21 15.0831 100.21 15.8359V23.0486C100.21 23.7957 99.9338 24.2252 99.4941 24.6859H103.813C103.369 24.2252 103.098 23.7957 103.098 23.0486V22.9691L106.5 18.9414V23.0486C106.5 23.7957 106.225 24.2252 105.785 24.6859H110.104C109.665 24.2252 109.389 23.7957 109.389 23.0486V15.8359C109.389 15.0831 109.665 14.6487 110.104 14.1929Z" fill="#55607A"/>
<path fill-rule="evenodd" clip-rule="evenodd" d="M64.8621 14.1929C65.1375 14.6435 65.2222 14.9614 64.9416 15.6554C64.9363 15.6554 63.7171 18.5966 63.0548 20.1918L61.1044 15.6554C60.8392 15.0673 60.8343 14.7124 61.147 14.1929H56.605C57.236 14.7651 57.5694 15.2372 57.9669 16.0265C57.9616 16.0265 60.9665 22.6248 61.5072 23.8225C60.7865 25.5024 60.1663 26.1647 59.345 26.1647C58.2954 26.1647 57.8558 25.4809 57.2515 24.3578L56.2026 26.5889C56.7854 27.1985 57.7974 28.0518 59.2818 28.0518C61.7193 28.0518 62.6837 26.2547 63.6166 24.0768L67.0615 16.0107C67.4322 15.163 67.766 14.6751 68.2061 14.1929H64.8621Z" fill="#55607A"/>
<path fill-rule="evenodd" clip-rule="evenodd" d="M50.4315 14.7007H51.0038C52.5247 14.7007 53.5155 15.1935 53.5155 16.7679C53.5155 18.3631 52.779 19.1049 51.1996 19.1049H50.4315V14.7007ZM55.5559 13.954C54.6499 13.0476 53.2612 12.5649 51.544 12.5649H46.5732C47.1613 13.1429 47.3787 13.5724 47.3787 14.399V22.8463C47.3787 23.6785 47.1613 24.1028 46.5732 24.6852H51.2313C50.6432 24.1028 50.4315 23.6785 50.4315 22.8463V21.2512H51.544C53.1606 21.2512 54.5594 20.7373 55.487 19.8098C56.2608 19.0359 56.6688 17.9867 56.6688 16.7837C56.6688 15.6603 56.2819 14.6849 55.5559 13.954Z" fill="#55607A"/>
<path fill-rule="evenodd" clip-rule="evenodd" d="M73.5324 23.0484C71.863 23.0484 70.8722 21.4111 70.8722 19.4339C70.8722 17.5314 71.7888 15.8462 73.5324 15.8462C75.0849 15.8462 75.4248 16.3495 76.1715 17.2665L77.7248 13.6841C77.1578 14.039 76.6216 14.32 75.9334 14.32C75.1275 14.32 74.7248 14.0126 73.4208 14.0126C70.1036 14.0126 67.8726 16.1909 67.8726 19.4339C67.8726 22.741 69.8919 24.882 73.257 24.882C75.1226 24.882 76.4472 24.0287 77.3375 22.7941L76.5693 21.0717C75.7371 22.2588 74.8578 23.0537 73.5324 23.0484Z" fill="#55607A"/>
<path fill-rule="evenodd" clip-rule="evenodd" d="M171.294 14.1929H166.97C167.415 14.6487 167.69 15.0831 167.69 15.8359V18.3001H164.569V15.8359C164.569 15.0831 164.834 14.6487 165.285 14.1929H160.96C161.405 14.6487 161.681 15.0831 161.681 15.8359V23.0486C161.681 23.7957 161.405 24.2252 160.96 24.6859H165.285C164.834 24.2252 164.569 23.7957 164.569 23.0486V20.2664H167.69V23.0486C167.69 23.7957 167.415 24.2252 166.97 24.6859H171.294C170.849 24.2252 170.574 23.7957 170.574 23.0486V15.8359C170.574 15.0831 170.849 14.6487 171.294 14.1929Z" fill="#55607A"/>
<path fill-rule="evenodd" clip-rule="evenodd" d="M153.244 20.5101L154.283 18.1728L155.305 20.5101H153.244ZM159.465 22.8527L155.645 14.1929H151.892C152.385 14.5425 152.926 15.1306 153.154 15.6448L149.968 22.858C149.634 23.6051 149.386 23.9547 148.595 24.6859H152.369C151.892 24.1457 151.839 23.6846 152.035 23.2287C152.035 23.2287 152.242 22.7623 152.38 22.4496H156.169L156.503 23.2287C156.725 23.7219 156.725 24.0236 156.19 24.6859H160.907C160.133 24.0025 159.81 23.6424 159.465 22.8527Z" fill="#55607A"/>
<path fill-rule="evenodd" clip-rule="evenodd" d="M111.774 24.6859H116.099C115.659 24.2252 115.384 23.7957 115.384 23.0486V22.9691L118.786 18.9414V23.0486C118.786 23.7957 118.51 24.2252 118.071 24.6859H122.39C121.95 24.2252 121.674 23.7957 121.674 23.0486V15.8359C121.674 15.0831 121.95 14.6487 122.39 14.1929H118.071C118.51 14.6487 118.786 15.0831 118.786 15.8359V15.8784L115.384 19.9005V15.8359C115.384 15.0831 115.659 14.6487 116.099 14.1929H111.774C112.225 14.6487 112.496 15.0831 112.496 15.8359V23.0486C112.496 23.7957 112.225 24.2252 111.774 24.6859Z" fill="#55607A"/>
<path fill-rule="evenodd" clip-rule="evenodd" d="M178.332 22.7148H175.932C176.281 22.0363 176.351 21.2572 176.351 20.1236V16.3712C176.351 16.2544 176.393 16.1644 176.551 16.1644H178.486V22.5185C178.486 22.6723 178.444 22.7148 178.332 22.7148ZM181.375 22.0947V15.8359C181.375 15.0831 181.65 14.6487 182.09 14.1929H173.499C173.944 14.6487 174.214 15.0831 174.214 15.8359V20.1236C174.214 21.9463 173.886 22.7201 172.18 23.4193V25.9736C173.027 25.216 174.279 24.6859 175.428 24.6859H179.323C180.707 24.6859 181.819 25.3803 182.572 25.9736V23.3398C181.836 23.1176 181.375 22.8633 181.375 22.0947Z" fill="#55607A"/>
<path fill-rule="evenodd" clip-rule="evenodd" d="M198.927 16.1433H199.378C200.136 16.1433 200.649 16.2966 200.968 16.6093C201.233 16.8798 201.365 17.2773 201.365 17.8337C201.365 19.1798 200.798 19.7736 199.542 19.7736H198.927V16.1433ZM204.201 17.0599C204.072 16.4134 203.776 15.8464 203.32 15.3905C202.536 14.6114 201.328 14.1929 199.833 14.1929H195.329C195.769 14.6487 196.045 15.0831 196.045 15.8359V23.0486C196.045 23.7957 195.769 24.2252 195.329 24.6859H199.647C199.203 24.2252 198.927 23.7957 198.927 23.0486V21.7447H199.833C201.233 21.7447 202.447 21.2998 203.257 20.4943C203.925 19.8158 204.285 18.9045 204.285 17.8548C204.285 17.6427 204.269 17.4415 204.238 17.2452C205.048 16.6413 205.806 16.1591 206.675 16.1591L208 16.1644V23.0486C208 23.7957 207.73 24.2252 207.284 24.6859H211.604C211.164 24.2252 210.888 23.7957 210.888 23.0486V16.1644H211.81C212.69 16.1644 212.886 16.3075 213.416 17.1183L214.699 14.1929H205.435L204.201 17.0599Z" fill="#55607A"/>
<path fill-rule="evenodd" clip-rule="evenodd" d="M140.255 22.5239L139.417 20.6798C138.564 21.9622 137.616 22.9161 135.877 22.9161C133.932 22.9161 132.528 21.072 132.528 18.5915C132.528 16.4293 133.635 14.2988 135.877 14.2988C137.653 14.2988 138.262 14.9985 138.941 15.8992L140.642 12.0361C140.017 12.4389 139.423 12.6615 138.691 12.6615C137.892 12.6615 137.022 12.301 135.74 12.301C131.882 12.301 129.295 14.8342 129.295 18.5915C129.295 22.2433 131.632 24.9144 135.554 24.9144C137.775 24.9144 139.29 23.9074 140.255 22.5239Z" fill="#55607A"/>
<path fill-rule="evenodd" clip-rule="evenodd" d="M143.524 23.0486C143.524 23.7957 143.254 24.2252 142.809 24.6859H147.134C146.688 24.2252 146.418 23.7957 146.418 23.0486V16.1644H147.499C148.379 16.1644 148.575 16.3075 149.104 17.1183L150.388 14.1929H140.795L139.433 17.3726C140.302 16.705 141.107 16.1591 142.035 16.1591L143.524 16.1644V23.0486Z" fill="#55607A"/>
<path fill-rule="evenodd" clip-rule="evenodd" d="M51.0038 14.2346H49.9704V19.561H51.1997C52.6148 19.561 53.9767 18.9993 53.9767 16.7682C53.9767 14.733 52.498 14.2346 51.0038 14.2346ZM51.5441 20.7956H49.9704V22.8466C49.9704 23.6472 50.1663 24.0447 50.299 24.2247H47.4741C47.6015 24.0447 47.8343 23.6472 47.8343 22.8466V14.3992C47.8343 13.599 47.6015 13.2117 47.4741 13.0264H51.5441C54.4379 13.0264 56.2135 14.4682 56.2135 16.784C56.2135 19.5294 53.9609 20.7956 51.5441 20.7956Z" fill="#55607A"/>
<path fill-rule="evenodd" clip-rule="evenodd" d="M66.6368 15.8356L63.1923 23.8964C62.1901 26.2439 61.3002 27.5904 59.2813 27.5904C58.0674 27.5904 57.1983 26.9333 56.7529 26.4933L57.2936 25.3431C57.8184 26.2439 58.4965 26.6206 59.3446 26.6206C60.5155 26.6206 61.2524 25.6241 62.0104 23.8112L58.3748 15.8356C58.1363 15.3059 57.9031 14.8606 57.6379 14.6484H60.4838C60.3832 14.908 60.3832 15.125 60.6801 15.8356L63.0596 21.3684L65.3597 15.8356C65.6087 15.2576 65.6724 14.9875 65.5555 14.6484H67.2833C67.0185 14.9875 66.8542 15.3213 66.6368 15.8356Z" fill="#55607A"/>
<path fill-rule="evenodd" clip-rule="evenodd" d="M73.5364 15.3896C71.3694 15.3896 70.4155 17.4248 70.4155 19.4332C70.4155 22.3538 72.1538 23.4983 73.5364 23.4983C74.8987 23.4983 75.7674 22.8462 76.4569 21.9559L76.8065 22.7298C75.9536 23.8638 74.6501 24.4206 73.2561 24.4206C70.0018 24.4206 68.3271 22.1733 68.3271 19.4332C68.3271 16.4709 70.2828 14.4678 73.42 14.4678C74.6022 14.4678 75.312 14.7857 75.9325 14.7857C76.3137 14.7857 76.5413 14.7484 76.8227 14.6211L76.0489 16.3914C75.4929 15.7023 74.6501 15.3896 73.5364 15.3896Z" fill="#55607A"/>
<path fill-rule="evenodd" clip-rule="evenodd" d="M83.3946 15.3896C81.2215 15.3896 80.2721 17.4248 80.2721 19.4332C80.2721 22.3538 82.0108 23.4983 83.3946 23.4983C84.7508 23.4983 85.6257 22.8462 86.3139 21.9559L86.6583 22.7298C85.8049 23.8638 84.5071 24.4206 83.1131 24.4206C79.8596 24.4206 78.1846 22.1733 78.1846 19.4332C78.1846 16.4709 80.1403 14.4678 83.2778 14.4678C84.4596 14.4678 85.1641 14.7857 85.7895 14.7857C86.1663 14.7857 86.3991 14.7484 86.6749 14.6211L85.9011 16.3914C85.3442 15.7023 84.5071 15.3896 83.3946 15.3896Z" fill="#55607A"/>
<path fill-rule="evenodd" clip-rule="evenodd" d="M91.1596 15.8356C91.1596 15.1465 91.3389 14.8127 91.4557 14.6484H88.8965C89.0072 14.8127 89.1877 15.1465 89.1877 15.8356V23.0483C89.1877 23.7317 89.0072 24.0606 88.8965 24.2249H91.4557C91.3389 24.0606 91.1596 23.7317 91.1596 23.0483V15.8356Z" fill="#55607A"/>
<path fill-rule="evenodd" clip-rule="evenodd" d="M97.9945 24.2249C97.7301 24.0286 97.3002 23.5679 96.8601 23.0483L93.3681 18.8247L96.5158 15.8356C97.2049 15.1733 97.4328 14.9449 97.8465 14.6484H95.2175C95.4134 14.9291 95.4775 15.2576 94.8894 15.8356L91.2583 19.2858L94.3962 23.0483C94.9202 23.6843 94.9202 23.9491 94.7244 24.2249H97.9945Z" fill="#55607A"/>
<path fill-rule="evenodd" clip-rule="evenodd" d="M106.682 24.2249C106.798 24.0606 106.957 23.7317 106.957 23.0483V17.6903L102.638 22.7993V23.0483C102.638 23.7317 102.818 24.0606 102.94 24.2249H100.375C100.487 24.0606 100.672 23.7317 100.672 23.0483V15.8356C100.672 15.1465 100.487 14.8127 100.375 14.6484H102.94C102.818 14.8127 102.638 15.1465 102.638 15.8356V21.1559L106.957 16.0477V15.8356C106.957 15.1465 106.798 14.8127 106.682 14.6484H109.21C109.093 14.8127 108.934 15.1465 108.934 15.8356V23.0483C108.934 23.7317 109.093 24.0606 109.21 24.2249H106.682Z" fill="#55607A"/>
<path fill-rule="evenodd" clip-rule="evenodd" d="M118.971 24.2248C119.077 24.0605 119.247 23.7316 119.247 23.0482V17.6901L114.923 22.7992V23.0482C114.923 23.7316 115.108 24.0605 115.219 24.2248H112.654C112.776 24.0605 112.951 23.7316 112.951 23.0482V15.8354C112.951 15.1463 112.776 14.8125 112.654 14.6483H115.219C115.108 14.8125 114.923 15.1463 114.923 15.8354V21.1558L119.247 16.0475V15.8354C119.247 15.1463 119.077 14.8125 118.971 14.6483H121.493C121.377 14.8125 121.213 15.1463 121.213 15.8354V23.0482C121.213 23.7316 121.377 24.0605 121.493 24.2248H118.971ZM117.095 13.1432C115.436 13.1432 114.742 12.5125 114.742 11.924C114.742 11.6113 114.906 11.2512 115.161 11.0391H116.025C115.876 11.267 115.797 11.4528 115.797 11.744C115.797 12.0672 116.188 12.6768 117.095 12.6768C117.996 12.6768 118.378 12.0672 118.378 11.744C118.378 11.4528 118.293 11.267 118.145 11.0391H119.014C119.262 11.2512 119.427 11.6113 119.427 11.924C119.427 12.5125 118.754 13.1432 117.095 13.1432Z" fill="#55607A"/>
<path fill-rule="evenodd" clip-rule="evenodd" d="M135.876 13.8477C133.332 13.8477 132.066 16.2276 132.066 18.5909C132.066 22.0253 134.255 23.3714 135.876 23.3714C137.477 23.3714 138.505 22.6138 139.311 21.5642L139.724 22.4706C138.723 23.8111 137.196 24.458 135.553 24.458C131.743 24.458 129.75 21.8079 129.75 18.5909C129.75 15.1094 132.05 12.7559 135.729 12.7559C137.127 12.7559 137.954 13.1221 138.691 13.1221C139.152 13.1221 139.411 13.0848 139.74 12.9416L138.824 15.0247C138.166 14.2188 137.196 13.8477 135.876 13.8477Z" fill="#55607A"/>
<path fill-rule="evenodd" clip-rule="evenodd" d="M148.999 16.2278C148.601 15.7188 148.024 15.7029 147.499 15.7029H145.957V23.0483C145.957 23.7317 146.137 24.0606 146.254 24.2249H143.689C143.806 24.0606 143.985 23.7317 143.985 23.0483V15.7029H142.687C141.967 15.7029 141.277 15.6129 140.402 16.2278L141.092 14.6484H149.683L148.999 16.2278Z" fill="#55607A"/>
<path fill-rule="evenodd" clip-rule="evenodd" d="M154.283 17.028L152.533 20.9762H156.01L154.283 17.028ZM156.991 24.2249C157.107 24.0606 157.208 23.6843 156.922 23.0483L156.467 21.9934H152.083L151.617 23.0483C151.337 23.6843 151.442 24.0606 151.553 24.2249H149.635C149.847 24.0128 150.075 23.7317 150.388 23.0483L153.658 15.634L153.626 15.5654C153.43 15.1096 153.212 14.8443 152.984 14.6484H155.348L159.042 23.0483C159.36 23.7317 159.588 24.0128 159.799 24.2249H156.991Z" fill="#55607A"/>
<path fill-rule="evenodd" clip-rule="evenodd" d="M167.85 24.2249C167.966 24.0606 168.147 23.7317 168.147 23.0483V19.8102H164.108V23.0483C164.108 23.7317 164.304 24.0606 164.405 24.2249H161.84C161.957 24.0606 162.137 23.7317 162.137 23.0483V15.8356C162.137 15.1465 161.957 14.8127 161.84 14.6484H164.405C164.304 14.8127 164.108 15.1465 164.108 15.8356V18.7557H168.147V15.8356C168.147 15.1465 167.966 14.8127 167.85 14.6484H170.415C170.314 14.8127 170.118 15.1465 170.118 15.8356V23.0483C170.118 23.7317 170.314 24.0606 170.415 24.2249H167.85Z" fill="#55607A"/>
<path fill-rule="evenodd" clip-rule="evenodd" d="M178.942 15.7029H176.446C176.133 15.7029 175.889 15.9471 175.889 16.2436V20.1233C175.889 21.5274 175.688 22.5341 175.084 23.1753H178.385C178.698 23.1753 178.942 22.9267 178.942 22.614V15.7029ZM179.323 24.2249H175.428C174.708 24.2249 173.51 24.4902 172.635 25.0993V23.7163C174.31 22.9477 174.67 21.9245 174.67 20.1233V15.8356C174.67 15.1465 174.49 14.8127 174.374 14.6484H181.21C181.093 14.8127 180.913 15.1465 180.913 15.8356V22.0944C180.913 22.7778 181.2 23.361 182.112 23.6632V25.0993C181.242 24.4902 180.044 24.2249 179.323 24.2249Z" fill="#55607A"/>
<path fill-rule="evenodd" clip-rule="evenodd" d="M188.651 17.028L186.907 20.9762H190.378L188.651 17.028ZM191.359 24.2249C191.475 24.0606 191.57 23.6843 191.296 23.0483L190.839 21.9934H186.446L185.985 23.0483C185.709 23.6843 185.81 24.0606 185.921 24.2249H184.002C184.215 24.0128 184.448 23.7317 184.76 23.0483L188.031 15.634L187.988 15.5654C187.797 15.1096 187.585 14.8443 187.352 14.6484H189.716L193.41 23.0483C193.722 23.7317 193.95 24.0128 194.168 24.2249H191.359Z" fill="#55607A"/>
<path fill-rule="evenodd" clip-rule="evenodd" d="M199.377 15.6818H198.471V20.234H199.542C200.734 20.234 201.826 19.7465 201.826 17.8334C201.826 16.0951 200.66 15.6818 199.377 15.6818ZM199.833 21.2889H198.471V23.0483C198.471 23.7317 198.672 24.0606 198.768 24.2249H196.208C196.319 24.0606 196.5 23.7317 196.5 23.0483V15.8356C196.5 15.1465 196.319 14.8127 196.208 14.6484C198.9 14.6484 199.833 14.6484 199.833 14.6484C202.319 14.6484 203.829 15.8672 203.829 17.8545C203.829 20.1971 201.906 21.2889 199.833 21.2889Z" fill="#55607A"/>
<path fill-rule="evenodd" clip-rule="evenodd" d="M213.305 16.2278C212.907 15.7188 212.335 15.7029 211.81 15.7029H210.432V23.0483C210.432 23.7317 210.607 24.0606 210.723 24.2249H208.164C208.281 24.0606 208.455 23.7317 208.455 23.0483V15.7029H207.326C206.6 15.7029 205.912 15.6129 205.042 16.2278L205.731 14.6484H213.993L213.305 16.2278Z" fill="#55607A"/>
</svg>
