<svg width="41" height="24" viewBox="0 0 41 24" fill="none" xmlns="http://www.w3.org/2000/svg">
<path d="M19.995 23.8993H22.4376C22.4376 23.8993 23.1753 23.8156 23.5525 23.3979C23.8992 23.0139 23.8881 22.2934 23.8881 22.2934C23.8881 22.2934 23.8403 18.9194 25.3613 18.4225C26.8612 17.9328 28.7868 21.6833 30.8277 23.1256C32.3711 24.2166 33.5439 23.9779 33.5439 23.9779L39.0015 23.8993C39.0015 23.8993 41.8563 23.718 40.5026 21.4074C40.3918 21.2187 39.7139 19.6981 36.4446 16.5742C33.0222 13.3046 33.481 13.8335 37.6032 8.17775C40.1136 4.73345 41.117 2.63076 40.8035 1.73027C40.5047 0.872299 38.6582 1.09891 38.6582 1.09891L32.5134 1.13803C32.5134 1.13803 32.0576 1.07413 31.7199 1.28211C31.3896 1.48554 31.1777 1.96079 31.1777 1.96079C31.1777 1.96079 30.2047 4.62594 28.9082 6.89281C26.172 11.6756 25.0777 11.9288 24.6304 11.6313C23.5898 10.9391 23.8498 8.85092 23.8498 7.36704C23.8498 2.7318 24.5328 0.799238 22.5199 0.298889C21.852 0.132981 21.36 0.0232295 19.6517 0.00530047C17.459 -0.0176231 15.6037 0.012216 14.5529 0.542148C13.8538 0.894582 13.3144 1.67975 13.6431 1.72495C14.0493 1.7806 14.9688 1.98044 15.4564 2.66335C16.0863 3.54546 16.0643 5.52579 16.0643 5.52579C16.0643 5.52579 16.4262 10.9822 15.2192 11.6598C14.3911 12.1246 13.2548 11.1756 10.8153 6.8364C9.56556 4.61371 8.6217 2.1566 8.6217 2.1566C8.6217 2.1566 8.43994 1.69748 8.1153 1.45173C7.72156 1.15398 7.17137 1.05959 7.17137 1.05959L1.33202 1.09885C1.33202 1.09885 0.455579 1.12407 0.133554 1.5164C-0.152952 1.8657 0.110664 2.58734 0.110664 2.58734C0.110664 2.58734 4.68195 13.5972 9.85854 19.1456C14.6056 24.2332 19.995 23.8993 19.995 23.8993Z" fill="#55607A"/>
</svg>
