<svg width="32" height="32" viewBox="0 0 32 32" fill="none" xmlns="http://www.w3.org/2000/svg">
<g clip-path="url(#clip0_9604_10474)">
<path d="M6.21737 23.2362C7.26337 23.2362 8.11489 24.0463 8.11489 25.0441C8.11489 26.0419 7.26337 26.852 6.21737 26.852C5.17136 26.852 4.31985 26.0419 4.31985 25.0441C4.31985 24.0487 5.17136 23.2362 6.21737 23.2362ZM6.21737 22.3209C4.6448 22.3209 3.37109 23.5406 3.37109 25.0441C3.37109 26.5476 4.6448 27.7674 6.21737 27.7674C7.78994 27.7674 9.06365 26.5476 9.06365 25.0441C9.06365 23.5406 7.78994 22.3209 6.21737 22.3209Z" fill="#4563FF"/>
<path d="M10.7266 29.6987H20.2141V2.2373H10.7266V29.6987ZM15.4703 27.8678C13.8978 27.8678 12.6241 26.639 12.6241 25.1218C12.6241 23.6045 13.8978 22.3757 15.4703 22.3757C17.0429 22.3757 18.3166 23.6045 18.3166 25.1218C18.3166 26.639 17.0429 27.8678 15.4703 27.8678Z" fill="#4563FF"/>
<path d="M27.3267 2.2373H20.2109V29.6987H27.3267C28.6359 29.6987 29.6985 28.6735 29.6985 27.4102V4.52576C29.6985 3.26253 28.6359 2.2373 27.3267 2.2373ZM24.9547 27.8678C23.3822 27.8678 22.1084 26.639 22.1084 25.1218C22.1084 23.6045 23.3822 22.3757 24.9547 22.3757C26.5273 22.3757 27.801 23.6045 27.801 25.1218C27.801 26.639 26.5273 27.8678 24.9547 27.8678Z" fill="#FF0029"/>
<path d="M11.1992 3.15268V28.7833H3.3719C2.5868 28.7833 1.94876 28.1676 1.94876 27.4102V4.52576C1.94876 3.76827 2.5868 3.15268 3.3719 3.15268H11.1992ZM12.1479 2.2373H3.3719C2.06261 2.2373 1 3.26253 1 4.52576V27.4102C1 28.6735 2.06261 29.6987 3.3719 29.6987H12.1479V2.2373Z" fill="#4563FF"/>
</g>
<defs>
<clipPath id="clip0_9604_10474">
<rect width="29" height="27.5254" fill="white" transform="translate(1 2.2373)"/>
</clipPath>
</defs>
</svg>
