<svg width="60" height="60" viewBox="0 0 60 60" fill="none" xmlns="http://www.w3.org/2000/svg">
<rect width="60" height="60" rx="30" fill="#FBAB00" fill-opacity="0.08"/>
<path d="M23 37.875C24.4497 37.875 25.625 36.6997 25.625 35.25C25.625 33.8003 24.4497 32.625 23 32.625C21.5503 32.625 20.375 33.8003 20.375 35.25C20.375 36.6997 21.5503 37.875 23 37.875Z" stroke="#FBAB00" stroke-width="1.6" stroke-linecap="round" stroke-linejoin="round"/>
<path d="M37 37.875C38.4497 37.875 39.625 36.6997 39.625 35.25C39.625 33.8003 38.4497 32.625 37 32.625C35.5503 32.625 34.375 33.8003 34.375 35.25C34.375 36.6997 35.5503 37.875 37 37.875Z" stroke="#FBAB00" stroke-width="1.6" stroke-linecap="round" stroke-linejoin="round"/>
<path d="M25.625 35.25H34.375" stroke="#FBAB00" stroke-width="1.6" stroke-linecap="round" stroke-linejoin="round"/>
<path d="M39.625 35.25H42.25C42.4821 35.25 42.7046 35.1578 42.8687 34.9937C43.0328 34.8296 43.125 34.6071 43.125 34.375V30C43.125 29.7679 43.0328 29.5454 42.8687 29.3813C42.7046 29.2172 42.4821 29.125 42.25 29.125H38.75L33.7559 24.1309C33.592 23.9672 33.3697 23.8751 33.138 23.875H20.8431C20.6992 23.8751 20.5576 23.9107 20.4307 23.9786C20.3038 24.0465 20.1956 24.1447 20.1158 24.2644L16.875 29.125V34.375C16.875 34.6071 16.9672 34.8296 17.1313 34.9937C17.2954 35.1578 17.5179 35.25 17.75 35.25H20.375" stroke="#FBAB00" stroke-width="1.6" stroke-linecap="round" stroke-linejoin="round"/>
<path d="M38.75 29.125H16.875" stroke="#FBAB00" stroke-width="1.6" stroke-linecap="round" stroke-linejoin="round"/>
</svg>
