<svg width="17" height="17" viewBox="0 0 17 17" fill="none" xmlns="http://www.w3.org/2000/svg">
<path d="M1.68366 4.56479C0.817411 6.06517 0.470437 7.80946 0.696547 9.52714C0.922657 11.2448 1.70922 12.8399 2.93424 14.065C4.15926 15.2901 5.75429 16.0767 7.47195 16.303C9.18962 16.5292 10.9339 16.1823 12.4344 15.3161C13.9348 14.45 15.1075 13.1129 15.7706 11.5124C16.4338 9.91181 16.5502 8.13716 16.102 6.46365C15.6537 4.79015 14.6658 3.31131 13.2914 2.25649C11.9171 1.20167 10.233 0.629812 8.50054 0.629604V5.22065C9.2224 5.22081 9.92404 5.45915 10.4966 5.8987C11.0692 6.33825 11.4808 6.95446 11.6675 7.65175C11.8542 8.34904 11.8057 9.08846 11.5293 9.75533C11.253 10.4222 10.7643 10.9793 10.1391 11.3401C9.51396 11.701 8.78717 11.8455 8.0715 11.7512C7.35582 11.6569 6.69125 11.3291 6.18085 10.8187C5.67044 10.3082 5.34273 9.6436 5.24853 8.92791C5.15433 8.21223 5.2989 7.48546 5.65983 6.86031L1.68366 4.56479Z" stroke="#55607A" stroke-width="1.2" stroke-linecap="round" strokeLinejoin="round"/>
</svg>
