<svg width="99" height="26" viewBox="0 0 99 26" fill="none" xmlns="http://www.w3.org/2000/svg">
<path fill-rule="evenodd" clip-rule="evenodd" d="M37.1404 17.2264C38.9031 17.2264 39.9447 16.5053 40.6858 15.5438L39.6843 14.6224C39.0433 15.4837 38.2221 15.8844 37.2205 15.8844C35.1573 15.8844 33.8753 14.2819 33.8753 12.1386C33.8753 9.9953 35.1573 8.41286 37.2205 8.41286C38.2221 8.41286 39.0433 8.79344 39.6843 9.6748L40.6858 8.75338C39.9447 7.7919 38.9031 7.07079 37.1404 7.07079C34.2559 7.07079 32.3129 9.27419 32.3129 12.1386C32.3129 15.023 34.2559 17.2264 37.1404 17.2264ZM44.5318 5.92904C45.0926 5.92904 45.5533 5.48836 45.5533 4.92749C45.5533 4.36663 45.0926 3.90592 44.5318 3.90592C43.9909 3.90592 43.5302 4.36663 43.5302 4.92749C43.5302 5.48836 43.9909 5.92904 44.5318 5.92904ZM45.293 16.9861V7.31116H43.7906V16.9861H45.293ZM51.7429 17.2264C52.6242 17.2264 53.1651 16.966 53.5457 16.6055L53.105 15.4837C52.9047 15.7041 52.504 15.8844 52.0834 15.8844C51.4224 15.8844 51.1019 15.3636 51.1019 14.6425V8.6332H53.0649V7.31116H51.1019V4.66708H49.5996V7.31116H47.9971V8.6332H49.5996V14.9629C49.5996 16.4052 50.3207 17.2264 51.7429 17.2264ZM55.6489 20.7719C55.9293 20.852 56.4301 20.9121 56.7506 20.9121C58.0326 20.8921 59.0141 20.3512 59.5949 18.9491L64.4424 7.31116H62.7999L59.5949 15.2434L56.37 7.31116H54.7475L58.7937 17.0862L58.1527 18.5485C57.8122 19.3497 57.3715 19.57 56.7105 19.57C56.4701 19.57 56.1096 19.51 55.8892 19.4098L55.6489 20.7719Z" fill="#55607A"/>
<path fill-rule="evenodd" clip-rule="evenodd" d="M74.7987 16.9863H72.6954V15.9447C71.9743 16.7659 70.8526 17.2266 69.5706 17.2266C67.9882 17.2266 66.2055 16.165 66.2055 14.0217C66.2055 11.7983 67.9882 10.8769 69.5706 10.8769C70.8726 10.8769 71.9944 11.2975 72.6954 12.1188V10.6766C72.6954 9.55482 71.774 8.87377 70.4319 8.87377C69.3503 8.87377 68.4088 9.27439 67.5676 10.0957L66.7062 8.63341C67.828 7.57178 69.2301 7.07101 70.7725 7.07101C72.9158 7.07101 74.7987 7.9724 74.7987 10.5764V16.9863ZM70.3919 15.7844C71.3133 15.7844 72.2147 15.4439 72.6954 14.7829V13.3206C72.2147 12.6596 71.3133 12.3191 70.3919 12.3191C69.2101 12.3191 68.3287 13.0001 68.3287 14.0618C68.3287 15.1034 69.2101 15.7844 70.3919 15.7844ZM87.4381 16.9863H85.3349V15.6642C84.5938 16.6257 83.4721 17.2266 82.2301 17.2266C79.7463 17.2266 77.9235 15.3437 77.9235 12.1588C77.9235 9.03402 79.7263 7.07101 82.2301 7.07101C83.432 7.07101 84.5537 7.63186 85.3349 8.65343V3.6257H87.4381V16.9863ZM82.831 15.3638C83.8326 15.3638 84.8542 14.8029 85.3349 14.0818V10.2359C84.8542 9.51476 83.8326 8.93388 82.831 8.93388C81.1685 8.93388 80.1068 10.2759 80.1068 12.1588C80.1068 14.0217 81.1685 15.3638 82.831 15.3638ZM94.469 17.2266C97.073 17.2266 98.4952 15.9246 98.4952 14.222C98.4952 10.3761 92.6462 11.6581 92.6462 9.93542C92.6462 9.25437 93.3472 8.75359 94.4489 8.75359C95.6508 8.75359 96.7325 9.25437 97.3134 9.91539L98.1947 8.43311C97.3133 7.6519 96.0715 7.07101 94.4289 7.07101C91.9852 7.07101 90.623 8.43309 90.623 10.0155C90.623 13.7212 96.472 12.3591 96.472 14.2621C96.472 15.0232 95.831 15.5641 94.5691 15.5641C93.3072 15.5641 91.9651 14.9031 91.2841 14.202L90.3226 15.7243C91.3241 16.7058 92.8264 17.2266 94.469 17.2266Z" fill="#55607A"/>
<path d="M12.0185 23.0355C18.103 23.0355 23.0355 18.103 23.0355 12.0185C23.0355 5.93401 18.103 1.00154 12.0185 1.00154C5.93401 1.00154 1.00154 5.93401 1.00154 12.0185C1.00154 18.103 5.93401 23.0355 12.0185 23.0355Z" stroke="#55607A" stroke-width="2"/>
<path d="M10.3392 21.9938H9.33762V24.9985H10.3392V21.9938Z" stroke="#55607A" stroke-width="2"/>
<path d="M15.3469 21.9938H14.3453V24.9985H15.3469V21.9938Z" stroke="#55607A" stroke-width="2"/>
<path fill-rule="evenodd" clip-rule="evenodd" d="M6.33299 12.9799L8.33608 11.9784V21.9938H6.33299V12.9799Z" fill="#55607A"/>
<path fill-rule="evenodd" clip-rule="evenodd" d="M11.3407 10.9769L13.3438 9.97532V22.9954H11.3407V10.9769Z" fill="#55607A"/>
<path fill-rule="evenodd" clip-rule="evenodd" d="M16.3484 8.97378L18.3515 7.97224V21.9938H16.3484V8.97378Z" fill="#55607A"/>
</svg>
