<svg width="103" height="30" viewBox="0 0 103 30" fill="none" xmlns="http://www.w3.org/2000/svg">
<path fill-rule="evenodd" clip-rule="evenodd" d="M42.215 5.49823V0.486431H43.2269V2.45902H45.2098V0.486431H46.2217V5.49823H45.2098V3.30685H43.2269V5.49823H42.215ZM51.7873 5.49823H50.6865L50.2489 4.35981H48.2456L47.8319 5.49823H46.7584L48.7105 0.486431H49.7806L51.7873 5.49823ZM49.9241 3.51539L49.2336 1.65562L48.5567 3.51539H49.9241ZM52.3412 0.486431H53.3531V4.65724H55.3154V0.486431H56.3273V4.65724H56.7444V6.59222H55.9034V5.49823H52.3412V0.486431ZM57.4521 0.486431H58.3991V3.82307L60.4298 0.486431H61.4383V5.49823H60.4913V2.22655L58.464 5.49823H57.4521V0.486431ZM62.2656 3.0231C62.2656 2.51257 62.342 2.0841 62.4947 1.73767C62.6086 1.48241 62.7642 1.25336 62.9613 1.05052C63.1585 0.847672 63.3744 0.697251 63.6092 0.599248C63.9214 0.467058 64.2815 0.400964 64.6895 0.400964C65.4279 0.400964 66.0188 0.630014 66.4621 1.08812C66.9054 1.54623 67.127 2.18324 67.127 2.99917C67.127 3.80826 66.9071 4.44129 66.4672 4.89825C66.0273 5.35522 65.4393 5.5837 64.7031 5.5837C63.9579 5.5837 63.3653 5.35636 62.9254 4.90167C62.4855 4.44698 62.2656 3.8208 62.2656 3.0231ZM63.3083 2.98891C63.3083 3.55642 63.4394 3.9866 63.7015 4.27947C63.9636 4.57234 64.2963 4.71877 64.6997 4.71877C65.1031 4.71877 65.4342 4.57348 65.6929 4.28289C65.9515 3.9923 66.0809 3.55642 66.0809 2.97524C66.0809 2.4009 65.955 1.97242 65.7031 1.68981C65.4513 1.4072 65.1168 1.26589 64.6997 1.26589C64.2826 1.26589 63.9465 1.40891 63.6912 1.69494C63.4359 1.98097 63.3083 2.41229 63.3083 2.98891ZM67.9201 5.49823V0.486431H68.9321V2.45902H70.9149V0.486431H71.9268V5.49823H70.9149V3.30685H68.9321V5.49823H67.9201ZM77.4925 5.49823H76.3917L75.9541 4.35981H73.9507L73.537 5.49823H72.4636L74.4156 0.486431H75.4857L77.4925 5.49823ZM75.6293 3.51539L74.9387 1.65562L74.2618 3.51539H75.6293ZM78.3882 0.486431H81.8992V5.49823H80.8872V1.33427H79.3796V3.47437C79.3796 4.08746 79.3591 4.51536 79.3181 4.75809C79.277 5.00082 79.1773 5.18998 79.0189 5.32559C78.8605 5.4612 78.6127 5.529 78.2754 5.529C78.1568 5.529 77.9415 5.51761 77.6292 5.49481V4.71193L77.8549 4.71535C78.0668 4.71535 78.2093 4.68686 78.2822 4.62989C78.3551 4.57291 78.3916 4.43274 78.3916 4.20939L78.3882 3.34788V0.486431ZM82.9624 0.486431H83.9743V2.48978H85.3281C85.9663 2.48978 86.4284 2.63907 86.7144 2.93763C87.0004 3.2362 87.1434 3.59402 87.1434 4.0111C87.1434 4.35297 87.0568 4.64356 86.8836 4.88287C86.7104 5.12218 86.5127 5.28456 86.2905 5.37003C86.0683 5.4555 85.7475 5.49823 85.3281 5.49823H82.9624V0.486431ZM83.9743 4.65724H84.9589C85.278 4.65724 85.499 4.64185 85.6221 4.61108C85.7452 4.58031 85.8552 4.51023 85.952 4.40083C86.0489 4.29143 86.0973 4.15697 86.0973 3.99743C86.0973 3.76723 86.0147 3.59858 85.8495 3.49146C85.6842 3.38434 85.4022 3.33078 85.0033 3.33078H83.9743V4.65724ZM87.9776 5.49823V0.486431H88.9895V2.45902H90.9724V0.486431H91.9843V5.49823H90.9724V3.30685H88.9895V5.49823H87.9776ZM92.8253 3.0231C92.8253 2.51257 92.9017 2.0841 93.0544 1.73767C93.1683 1.48241 93.3239 1.25336 93.521 1.05052C93.7182 0.847672 93.9341 0.697251 94.1689 0.599248C94.4811 0.467058 94.8412 0.400964 95.2492 0.400964C95.9876 0.400964 96.5785 0.630014 97.0217 1.08812C97.465 1.54623 97.6867 2.18324 97.6867 2.99917C97.6867 3.80826 97.4668 4.44129 97.0269 4.89825C96.587 5.35522 95.999 5.5837 95.2628 5.5837C94.5176 5.5837 93.925 5.35636 93.4851 4.90167C93.0452 4.44698 92.8253 3.8208 92.8253 3.0231ZM93.868 2.98891C93.868 3.55642 93.9991 3.9866 94.2612 4.27947C94.5233 4.57234 94.856 4.71877 95.2594 4.71877C95.6628 4.71877 95.9939 4.57348 96.2525 4.28289C96.5112 3.9923 96.6406 3.55642 96.6406 2.97524C96.6406 2.4009 96.5146 1.97242 96.2628 1.68981C96.011 1.4072 95.6765 1.26589 95.2594 1.26589C94.8423 1.26589 94.5062 1.40891 94.2509 1.69494C93.9956 1.98097 93.868 2.41229 93.868 2.98891ZM98.4764 5.49823V0.486431H102.193V1.33427H99.4883V2.44534H102.004V3.28976H99.4883V4.65382H102.288V5.49823H98.4764Z" fill="#55607A"/>
<path fill-rule="evenodd" clip-rule="evenodd" d="M41.962 8.89876H52.2402V12.1475H45.4908V16.4044C45.7708 16.3483 46.1069 16.2923 46.499 16.2363C46.891 16.1803 47.2738 16.1523 47.6472 16.1523C48.5434 16.1523 49.3462 16.2597 50.0557 16.4744C50.7652 16.6891 51.372 17.0345 51.8761 17.5106C52.3802 17.9867 52.7676 18.6075 53.0383 19.373C53.3091 20.1385 53.4444 21.072 53.4444 22.1736C53.4444 24.3767 52.8937 26.029 51.7921 27.1306C50.6905 28.2322 49.0568 28.783 46.891 28.783C46.6297 28.783 46.2936 28.7736 45.8828 28.755C45.4721 28.7363 45.0333 28.713 44.5666 28.685C44.0998 28.6569 43.6377 28.6149 43.1803 28.5589C42.7228 28.5029 42.3167 28.4282 41.962 28.3349V8.89876ZM47.1431 25.6463C47.9273 25.6463 48.5574 25.4036 49.0335 24.9182C49.5096 24.4327 49.7477 23.6112 49.7477 22.4536C49.7477 21.7628 49.673 21.212 49.5236 20.8013C49.3742 20.3905 49.1735 20.0731 48.9215 19.8491C48.6694 19.625 48.3707 19.4757 48.0253 19.401C47.6799 19.3263 47.3018 19.289 46.891 19.289C46.6857 19.289 46.429 19.3123 46.1209 19.359C45.8128 19.4057 45.6028 19.4477 45.4908 19.485V25.5063C45.6588 25.5436 45.9015 25.5763 46.2189 25.6043C46.5363 25.6323 46.8444 25.6463 47.1431 25.6463ZM58.8216 16.9645H60.81C60.9594 14.2946 61.5615 12.2175 62.6164 10.7332C63.6713 9.24883 65.2536 8.50668 67.3634 8.50668C68.577 8.50668 69.6085 8.7494 70.458 9.23484C71.3075 9.72028 71.9984 10.4111 72.5305 11.3073C73.0626 12.2035 73.4453 13.277 73.6787 14.528C73.9121 15.7789 74.0288 17.1698 74.0288 18.7008C74.0288 21.9682 73.4873 24.4841 72.4044 26.2484C71.3215 28.0128 69.6319 28.895 67.3354 28.895C66.2711 28.895 65.347 28.6943 64.5628 28.2929C63.7786 27.8915 63.1205 27.3127 62.5884 26.5565C62.0563 25.8003 61.6455 24.8855 61.3561 23.8119C61.0667 22.7384 60.8847 21.5388 60.81 20.2132H58.8216V28.5029H55.2928V8.89876H58.8216V16.9645ZM64.3387 18.7008C64.3387 19.7091 64.3854 20.6379 64.4788 21.4874C64.5721 22.3369 64.7355 23.0698 64.9689 23.6859C65.2023 24.302 65.5103 24.7828 65.8931 25.1282C66.2758 25.4736 66.7566 25.6463 67.3354 25.6463C68.4183 25.6463 69.1884 25.1002 69.6459 24.008C70.1033 22.9157 70.332 21.1467 70.332 18.7008C70.332 17.73 70.29 16.8198 70.206 15.9703C70.122 15.1207 69.9679 14.3833 69.7439 13.7578C69.5198 13.1323 69.2164 12.6422 68.8337 12.2875C68.4509 11.9327 67.9515 11.7554 67.3354 11.7554C66.2711 11.7554 65.5057 12.3202 65.0389 13.4497C64.5721 14.5793 64.3387 16.3297 64.3387 18.7008ZM76.1012 9.09481C76.7734 8.94544 77.5109 8.82875 78.3137 8.74473C79.1165 8.66071 79.9194 8.61871 80.7222 8.61871C81.5811 8.61871 82.4259 8.69806 83.2567 8.85676C84.0876 9.01546 84.8297 9.32819 85.4832 9.79495C86.1367 10.2617 86.6688 10.9199 87.0796 11.7694C87.4903 12.6189 87.6957 13.7251 87.6957 15.0881C87.6957 16.3203 87.523 17.3659 87.1776 18.2247C86.8322 19.0836 86.3701 19.7837 85.7913 20.3252C85.2125 20.8666 84.545 21.2587 83.7889 21.5014C83.0327 21.7442 82.2532 21.8655 81.4504 21.8655H81.0863C80.9182 21.8655 80.7409 21.8608 80.5542 21.8515C80.3675 21.8422 80.1854 21.8282 80.0081 21.8095C79.8307 21.7908 79.7047 21.7722 79.63 21.7535V28.5029H76.1012V9.09481ZM79.63 18.5888C79.742 18.6262 79.952 18.6588 80.2601 18.6868C80.5682 18.7148 80.7782 18.7288 80.8902 18.7288C81.301 18.7288 81.6931 18.6728 82.0665 18.5608C82.4399 18.4488 82.7713 18.2574 83.0607 17.9867C83.3501 17.716 83.5788 17.3426 83.7468 16.8665C83.9149 16.3903 83.9989 15.7882 83.9989 15.0601C83.9989 14.4439 83.9196 13.9212 83.7608 13.4917C83.6021 13.0623 83.3874 12.7216 83.1167 12.4695C82.846 12.2175 82.5333 12.0354 82.1785 11.9234C81.8238 11.8114 81.4504 11.7554 81.0583 11.7554C80.4795 11.7554 80.0034 11.802 79.63 11.8954V18.5888ZM89.012 18.7008C89.012 15.3775 89.5814 12.8476 90.7203 11.1112C91.8592 9.37486 93.5956 8.50668 95.9294 8.50668C97.143 8.50668 98.1886 8.74473 99.0661 9.22083C99.9436 9.69694 100.662 10.3784 101.223 11.2653C101.783 12.1521 102.198 13.2257 102.469 14.4859C102.74 15.7462 102.875 17.1512 102.875 18.7008C102.875 22.0242 102.291 24.5541 101.125 26.2904C99.9576 28.0268 98.2259 28.895 95.9294 28.895C94.6972 28.895 93.6469 28.6569 92.7788 28.1808C91.9106 27.7047 91.1964 27.0233 90.6363 26.1364C90.0762 25.2496 89.6654 24.176 89.404 22.9157C89.1427 21.6555 89.012 20.2505 89.012 18.7008ZM92.7087 18.7008C92.7087 19.6904 92.7648 20.6099 92.8768 21.4594C92.9888 22.3089 93.1755 23.0418 93.4369 23.6579C93.6983 24.274 94.0297 24.7595 94.4311 25.1142C94.8325 25.4689 95.332 25.6463 95.9294 25.6463C97.0123 25.6463 97.8245 25.0955 98.3659 23.994C98.9074 22.8924 99.1781 21.128 99.1781 18.7008C99.1781 17.7486 99.1221 16.8478 99.0101 15.9983C98.8981 15.1487 98.716 14.4113 98.464 13.7858C98.2119 13.1603 97.8805 12.6656 97.4698 12.3015C97.059 11.9374 96.5456 11.7554 95.9294 11.7554C93.7823 11.7554 92.7087 14.0705 92.7087 18.7008Z" fill="#55607A"/>
<path d="M13.3895 1.5268L5.53486 0L0.000230555 28.4732L7.85491 30L13.3895 1.5268Z" fill="#55607A"/>
<path d="M4.92536 26.9227C6.30636 26.9227 7.42589 25.8032 7.42589 24.4222C7.42589 23.0412 6.30636 21.9216 4.92536 21.9216C3.54435 21.9216 2.42483 23.0412 2.42483 24.4222C2.42483 25.8032 3.54435 26.9227 4.92536 26.9227Z" fill="#55607A"/>
<path d="M25.3921 1.5268L17.5374 0L12.0028 28.4732L19.8574 30L25.3921 1.5268Z" fill="#55607A"/>
<path d="M16.9279 26.9227C18.3089 26.9227 19.4284 25.8032 19.4284 24.4222C19.4284 23.0412 18.3089 21.9216 16.9279 21.9216C15.5469 21.9216 14.4274 23.0412 14.4274 24.4222C14.4274 25.8032 15.5469 26.9227 16.9279 26.9227Z" fill="#55607A"/>
<path d="M37.3946 1.5268L29.5399 0L24.0053 28.4732L31.86 30L37.3946 1.5268Z" fill="#55607A"/>
<path d="M28.9304 26.9227C30.3114 26.9227 31.431 25.8032 31.431 24.4222C31.431 23.0412 30.3114 21.9216 28.9304 21.9216C27.5494 21.9216 26.4299 23.0412 26.4299 24.4222C26.4299 25.8032 27.5494 26.9227 28.9304 26.9227Z" fill="#55607A"/>
</svg>
