<svg width="118" height="34" viewBox="0 0 118 34" fill="none" xmlns="http://www.w3.org/2000/svg">
<path d="M79.8448 23.3336C85.378 23.3336 89.8635 18.8481 89.8635 13.3149C89.8635 7.78171 85.378 3.29619 79.8448 3.29619C74.3116 3.29619 69.8261 7.78171 69.8261 13.3149C69.8261 18.8481 74.3116 23.3336 79.8448 23.3336Z" stroke="#55607A" stroke-width="2"/>
<path d="M79.8448 19.3261C83.1647 19.3261 85.856 16.6348 85.856 13.3149C85.856 9.99498 83.1647 7.30367 79.8448 7.30367C76.5249 7.30367 73.8336 9.99498 73.8336 13.3149C73.8336 16.6348 76.5249 19.3261 79.8448 19.3261Z" stroke="#55607A" stroke-width="2"/>
<path fill-rule="evenodd" clip-rule="evenodd" d="M3.18465 31.7648V32.3504H2.19159V31.7648C1.39029 31.7352 0.824702 31.5371 0.49482 31.1707C0.164938 30.8043 0 30.346 0 29.7958C0 29.216 0.172358 28.7508 0.517078 28.4004C0.8618 28.05 1.41996 27.8599 2.19159 27.8303V27.3337H3.18465V27.8303C3.98139 27.8599 4.54584 28.0563 4.878 28.4192C5.21016 28.7822 5.37624 29.2422 5.37624 29.7993C5.37624 30.3517 5.21074 30.81 4.87971 31.1741C4.54869 31.5383 3.98368 31.7352 3.18465 31.7648ZM3.18465 30.919C3.44947 30.919 3.67719 30.8745 3.86781 30.7855C4.05844 30.6964 4.1937 30.5766 4.2736 30.4259C4.3535 30.2752 4.39345 30.055 4.39345 29.765C4.39345 29.0391 3.99052 28.6761 3.18465 28.6761V30.919ZM2.19159 30.919V28.6761C1.76468 28.6761 1.45649 28.7714 1.26701 28.962C1.07753 29.1526 0.982791 29.4408 0.982791 29.8267C0.982791 30.5549 1.38572 30.919 2.19159 30.919ZM6.20494 27.3303H7.15349V30.6725L9.18756 27.3303H10.1977V32.3504H9.24919V29.0733L7.21855 32.3504H6.20494V27.3303ZM11.2353 32.3504V27.3303H12.2489V29.3062H14.2351V27.3303H15.2487V32.3504H14.2351V30.1554H12.2489V32.3504H11.2353ZM20.8235 32.3504H19.7209L19.2826 31.2101H17.2759L16.8615 32.3504H15.7863L17.7416 27.3303H18.8134L20.8235 32.3504ZM18.9573 30.3643L18.2655 28.5014L17.5875 30.3643H18.9573ZM21.3646 32.3504V27.3303H22.3782V29.3062H24.3643V27.3303H25.3779V32.3504H24.3643V30.1554H22.3782V32.3504H21.3646ZM29.6378 30.5047L30.6206 30.8163C30.4699 31.3642 30.2194 31.7711 29.869 32.0371C29.5185 32.303 29.074 32.436 28.5352 32.436C27.8686 32.436 27.3207 32.2083 26.8915 31.7529C26.4623 31.2974 26.2477 30.6748 26.2477 29.8849C26.2477 29.0493 26.4634 28.4004 26.8949 27.9381C27.3264 27.4758 27.8937 27.2447 28.5968 27.2447C29.2109 27.2447 29.7097 27.4262 30.0933 27.7892C30.3216 28.0038 30.4928 28.3119 30.6069 28.7137L29.6036 28.9534C29.5442 28.6932 29.4204 28.4877 29.232 28.3371C29.0437 28.1864 28.8148 28.1111 28.5455 28.1111C28.1733 28.1111 27.8714 28.2446 27.6397 28.5117C27.408 28.7788 27.2921 29.2114 27.2921 29.8095C27.2921 30.4442 27.4063 30.8962 27.6346 31.1656C27.8629 31.435 28.1596 31.5697 28.5249 31.5697C28.7943 31.5697 29.026 31.4841 29.2201 31.3128C29.4141 31.1416 29.5534 30.8722 29.6378 30.5047ZM31.2849 29.8712C31.2849 29.3598 31.3614 28.9306 31.5144 28.5836C31.6285 28.3279 31.7843 28.0985 31.9818 27.8953C32.1793 27.6921 32.3956 27.5415 32.6307 27.4433C32.9435 27.3109 33.3042 27.2447 33.7128 27.2447C34.4525 27.2447 35.0443 27.4741 35.4883 27.933C35.9324 28.3919 36.1544 29.0299 36.1544 29.8472C36.1544 30.6576 35.9341 31.2917 35.4935 31.7494C35.0529 32.2072 34.4639 32.436 33.7265 32.436C32.98 32.436 32.3865 32.2083 31.9458 31.7529C31.5052 31.2974 31.2849 30.6702 31.2849 29.8712ZM32.3294 29.8369C32.3294 30.4054 32.4606 30.8363 32.7232 31.1296C32.9857 31.423 33.319 31.5697 33.7231 31.5697C34.1272 31.5697 34.4588 31.4241 34.7179 31.1331C34.977 30.842 35.1065 30.4054 35.1065 29.8232C35.1065 29.2479 34.9804 28.8188 34.7281 28.5357C34.4759 28.2526 34.1409 28.1111 33.7231 28.1111C33.3053 28.1111 32.9686 28.2543 32.7129 28.5408C32.4572 28.8273 32.3294 29.2594 32.3294 29.8369ZM36.9488 27.3303H38.9555C39.3527 27.3303 39.6489 27.3469 39.8441 27.38C40.0393 27.4131 40.214 27.4821 40.3681 27.5871C40.5222 27.6921 40.6506 27.832 40.7533 28.0066C40.856 28.1813 40.9074 28.377 40.9074 28.5939C40.9074 28.829 40.844 29.0448 40.7173 29.2411C40.5906 29.4374 40.4189 29.5847 40.202 29.6828C40.5079 29.7719 40.743 29.9237 40.9074 30.1383C41.0718 30.3529 41.154 30.6051 41.154 30.8951C41.154 31.1234 41.1009 31.3454 40.9947 31.5611C40.8886 31.7768 40.7436 31.9492 40.5598 32.0782C40.376 32.2072 40.1495 32.2865 39.8801 32.3162C39.7112 32.3344 39.3037 32.3458 38.6576 32.3504H36.9488V27.3303ZM37.9624 28.1658V29.3267H38.6268C39.0217 29.3267 39.2671 29.321 39.363 29.3096C39.5365 29.289 39.6729 29.2291 39.7722 29.1298C39.8715 29.0305 39.9212 28.8998 39.9212 28.7377C39.9212 28.5825 39.8784 28.4563 39.7928 28.3593C39.7072 28.2623 39.5799 28.2035 39.411 28.183C39.3105 28.1716 39.0217 28.1658 38.5446 28.1658H37.9624ZM37.9624 30.1622V31.5046H38.9007C39.266 31.5046 39.4977 31.4943 39.5959 31.4738C39.7465 31.4464 39.8692 31.3796 39.964 31.2735C40.0587 31.1673 40.1061 31.0252 40.1061 30.8471C40.1061 30.6964 40.0696 30.5686 39.9965 30.4636C39.9235 30.3586 39.8179 30.2821 39.6798 30.2342C39.5416 30.1862 39.242 30.1622 38.7809 30.1622H37.9624ZM42.0374 27.3303H43.051V29.337H44.4071C44.7632 29.337 45.0697 29.3855 45.3265 29.4825C45.5834 29.5795 45.7974 29.753 45.9686 30.003C46.1398 30.253 46.2254 30.5401 46.2254 30.8642C46.2254 31.2044 46.1364 31.4972 45.9583 31.7426C45.7803 31.988 45.5822 32.1507 45.3642 32.2306C45.1462 32.3105 44.8271 32.3504 44.4071 32.3504H42.0374V27.3303ZM43.051 31.508H44.0407C44.3557 31.508 44.5755 31.4926 44.6999 31.4618C44.8243 31.431 44.935 31.3608 45.032 31.2512C45.1291 31.1416 45.1776 31.0081 45.1776 30.8505C45.1776 30.6268 45.0982 30.459 44.9396 30.3472C44.7809 30.2353 44.495 30.1794 44.0818 30.1794H43.051V31.508ZM46.811 27.3303H47.8246V32.3504H46.811V27.3303ZM48.8896 27.3303H49.8381V30.6725L51.8722 27.3303H52.8824V32.3504H51.9338V29.0733L49.9032 32.3504H48.8896V27.3303ZM51.4921 26.0804H51.9612C51.9338 26.3909 51.8248 26.6346 51.6342 26.8115C51.4436 26.9884 51.1965 27.0769 50.8928 27.0769C50.5892 27.0769 50.3421 26.9884 50.1515 26.8115C49.9608 26.6346 49.8518 26.3909 49.8244 26.0804H50.2936C50.3095 26.2425 50.3666 26.3652 50.4648 26.4485C50.5629 26.5319 50.7056 26.5735 50.8928 26.5735C51.08 26.5735 51.2227 26.5319 51.3209 26.4485C51.419 26.3652 51.4761 26.2425 51.4921 26.0804ZM56.2246 27.3303H59.7414V32.3504H58.7278V28.1795H57.2176V30.3232C57.2176 30.9373 57.1971 31.3659 57.156 31.609C57.1149 31.8522 57.015 32.0416 56.8564 32.1775C56.6977 32.3133 56.4494 32.3812 56.1116 32.3812C55.9928 32.3812 55.7771 32.3698 55.4643 32.347V31.5628L55.6904 31.5662C55.9027 31.5662 56.0453 31.5377 56.1184 31.4806C56.1915 31.4236 56.228 31.2832 56.228 31.0594L56.2246 30.1965V27.3303ZM60.7995 27.3303H61.748V30.6725L63.7821 27.3303H64.7923V32.3504H63.8438V29.0733L61.8131 32.3504H60.7995V27.3303ZM66.2305 27.3303H69.6994V31.508H70.1412V33.4462H69.2988V32.3504H66.1381V33.4462H65.2957V31.508H65.7203C65.9281 31.0788 66.065 30.5806 66.1312 30.0133C66.1974 29.446 66.2305 28.7286 66.2305 27.8611V27.3303ZM67.1962 28.1727C67.1962 29.6977 67.0581 30.8094 66.7819 31.508H68.6892V28.1727H67.1962ZM70.6171 29.8712C70.6171 29.3598 70.6936 28.9306 70.8466 28.5836C70.9607 28.3279 71.1165 28.0985 71.314 27.8953C71.5115 27.6921 71.7278 27.5415 71.9629 27.4433C72.2757 27.3109 72.6364 27.2447 73.045 27.2447C73.7847 27.2447 74.3765 27.4741 74.8205 27.933C75.2646 28.3919 75.4866 29.0299 75.4866 29.8472C75.4866 30.6576 75.2663 31.2917 74.8257 31.7494C74.3851 32.2072 73.7961 32.436 73.0587 32.436C72.3122 32.436 71.7186 32.2083 71.278 31.7529C70.8374 31.2974 70.6171 30.6702 70.6171 29.8712ZM71.6616 29.8369C71.6616 30.4054 71.7928 30.8363 72.0554 31.1296C72.3179 31.423 72.6512 31.5697 73.0553 31.5697C73.4594 31.5697 73.7909 31.4241 74.0501 31.1331C74.3092 30.842 74.4387 30.4054 74.4387 29.8232C74.4387 29.2479 74.3126 28.8188 74.0603 28.5357C73.8081 28.2526 73.4731 28.1111 73.0553 28.1111C72.6375 28.1111 72.3008 28.2543 72.0451 28.5408C71.7894 28.8273 71.6616 29.2594 71.6616 29.8369ZM76.329 27.3303H79.7294V28.1727H77.3426V32.3504H76.329V27.3303ZM80.2533 32.3504V27.3303H83.9756V28.1795H81.2669V29.2925H83.7872V30.1383H81.2669V31.5046H84.0714V32.3504H80.2533ZM84.9344 32.3504V27.3303H85.948V29.3062H87.9341V27.3303H88.9477V32.3504H87.9341V30.1554H85.948V32.3504H84.9344ZM89.9956 32.3504V27.3303H93.7179V28.1795H91.0092V29.2925H93.5295V30.1383H91.0092V31.5046H93.8137V32.3504H89.9956ZM94.6733 32.3504V27.3303H96.2998C96.9162 27.3303 97.318 27.3554 97.5052 27.4056C97.7929 27.481 98.0337 27.6448 98.2277 27.897C98.4218 28.1493 98.5188 28.4752 98.5188 28.8747C98.5188 29.1829 98.4629 29.442 98.351 29.652C98.2392 29.862 98.097 30.027 97.9247 30.1468C97.7523 30.2667 97.5771 30.346 97.3991 30.3848C97.1571 30.4328 96.8066 30.4567 96.3478 30.4567H95.6869V32.3504H94.6733ZM95.6869 28.1795V29.6041H96.2416C96.6411 29.6041 96.9082 29.5778 97.0429 29.5253C97.1776 29.4728 97.2832 29.3906 97.3597 29.2788C97.4361 29.1669 97.4744 29.0368 97.4744 28.8884C97.4744 28.7058 97.4207 28.5551 97.3134 28.4364C97.2062 28.3177 97.0703 28.2435 96.9059 28.2138C96.785 28.191 96.5418 28.1795 96.1766 28.1795H95.6869ZM103.878 32.3504H102.775L102.337 31.2101H100.33L99.916 32.3504H98.8407L100.796 27.3303H101.868L103.878 32.3504ZM102.012 30.3643L101.32 28.5014L100.642 30.3643H102.012ZM105.546 32.3504V28.1795H104.056V27.3303H108.045V28.1795H106.559V32.3504H105.546ZM108.494 29.8712C108.494 29.3598 108.57 28.9306 108.723 28.5836C108.838 28.3279 108.993 28.0985 109.191 27.8953C109.388 27.6921 109.605 27.5415 109.84 27.4433C110.153 27.3109 110.513 27.2447 110.922 27.2447C111.662 27.2447 112.253 27.4741 112.697 27.933C113.141 28.3919 113.363 29.0299 113.363 29.8472C113.363 30.6576 113.143 31.2917 112.703 31.7494C112.262 32.2072 111.673 32.436 110.936 32.436C110.189 32.436 109.595 32.2083 109.155 31.7529C108.714 31.2974 108.494 30.6702 108.494 29.8712ZM109.538 29.8369C109.538 30.4054 109.67 30.8363 109.932 31.1296C110.195 31.423 110.528 31.5697 110.932 31.5697C111.336 31.5697 111.668 31.4241 111.927 31.1331C112.186 30.842 112.316 30.4054 112.316 29.8232C112.316 29.2479 112.189 28.8188 111.937 28.5357C111.685 28.2526 111.35 28.1111 110.932 28.1111C110.514 28.1111 110.178 28.2543 109.922 28.5408C109.666 28.8273 109.538 29.2594 109.538 29.8369ZM114.154 32.3504V27.3303H115.781C116.397 27.3303 116.799 27.3554 116.986 27.4056C117.274 27.481 117.515 27.6448 117.709 27.897C117.903 28.1493 118 28.4752 118 28.8747C118 29.1829 117.944 29.442 117.832 29.652C117.72 29.862 117.578 30.027 117.406 30.1468C117.234 30.2667 117.058 30.346 116.88 30.3848C116.638 30.4328 116.288 30.4567 115.829 30.4567H115.168V32.3504H114.154ZM115.168 28.1795V29.6041H115.723C116.122 29.6041 116.389 29.5778 116.524 29.5253C116.659 29.4728 116.764 29.3906 116.841 29.2788C116.917 29.1669 116.956 29.0368 116.956 28.8884C116.956 28.7058 116.902 28.5551 116.795 28.4364C116.687 28.3177 116.551 28.2435 116.387 28.2138C116.266 28.191 116.023 28.1795 115.658 28.1795H115.168Z" fill="#55607A"/>
<path fill-rule="evenodd" clip-rule="evenodd" d="M4.38171 20.328V8.41121H0.125723V5.9848H11.5239V8.41121H7.27774V20.328H4.38171ZM13.3927 20.328V5.9848H24.0278V8.41121H16.2887V11.591H23.4896V14.0076H16.2887V17.9114H24.3017V20.328H13.3927ZM27.7848 5.9848H37.8328V20.328H34.9368V8.41121H30.6221V14.5359C30.6221 16.2905 30.5634 17.5151 30.446 18.2098C30.3286 18.9044 30.0432 19.4458 29.5899 19.8339C29.1366 20.222 28.4272 20.416 27.4619 20.416C27.1227 20.416 26.5063 20.3834 25.6127 20.3182V18.0777L26.2585 18.0875C26.8651 18.0875 27.2727 18.0059 27.4815 17.8429C27.6902 17.6798 27.7945 17.2787 27.7945 16.6395L27.7848 14.1739V5.9848ZM40.8169 20.328V5.9848H51.452V8.41121H43.7129V11.591H50.9139V14.0076H43.7129V17.9114H51.7259V20.328H40.8169ZM54.2208 5.9848H65.6288V20.328H62.7328V8.39164H57.1168V20.328H54.2208V5.9848Z" fill="#55607A"/>
<path fill-rule="evenodd" clip-rule="evenodd" d="M80.523 13.4484L94.5373 6.89862L79.8448 0L80.523 13.4484Z" fill="#55607A"/>
<path d="M79.8448 19.3261C83.1647 19.3261 85.856 16.6348 85.856 13.3149C85.856 9.99498 83.1647 7.30367 79.8448 7.30367C76.5249 7.30367 73.8336 9.99498 73.8336 13.3149C73.8336 16.6348 76.5249 19.3261 79.8448 19.3261Z" stroke="#55607A" stroke-width="2"/>
<path fill-rule="evenodd" clip-rule="evenodd" d="M79.7348 21.7343L83.101 11.9529L71.4171 14.3012C72.293 15.9282 72.996 17.4815 73.5261 18.961C74.0561 20.4405 76.1257 21.3649 79.7348 21.7343Z" fill="#55607A"/>
<path d="M79.8448 15.3186C80.9514 15.3186 81.8485 14.4215 81.8485 13.3149C81.8485 12.2083 80.9514 11.3111 79.8448 11.3111C78.7382 11.3111 77.8411 12.2083 77.8411 13.3149C77.8411 14.4215 78.7382 15.3186 79.8448 15.3186Z" stroke="#55607A" stroke-width="2"/>
<path fill-rule="evenodd" clip-rule="evenodd" d="M93.325 20.328V5.9848H97.9724C99.7335 5.9848 100.881 6.05655 101.416 6.20005C102.238 6.41529 102.926 6.88328 103.481 7.60403C104.035 8.32478 104.312 9.25587 104.312 10.3973C104.312 11.2779 104.153 12.0182 103.833 12.6183C103.513 13.2184 103.107 13.6896 102.615 14.032C102.122 14.3745 101.622 14.6011 101.113 14.712C100.422 14.849 99.4204 14.9175 98.1094 14.9175H96.2211V20.328H93.325ZM96.2211 8.41121V12.4813H97.8061C98.9475 12.4813 99.7107 12.4063 100.095 12.2563C100.48 12.1063 100.782 11.8714 101.001 11.5518C101.219 11.2322 101.328 10.8604 101.328 10.4365C101.328 9.91466 101.175 9.48417 100.868 9.145C100.562 8.80582 100.174 8.59384 99.7041 8.50904C99.3584 8.44382 98.6638 8.41121 97.6202 8.41121H96.2211ZM109.919 20.328V8.41121H105.663V5.9848H117.061V8.41121H112.815V20.328H109.919Z" fill="#55607A"/>
</svg>
