<svg width="120" height="16" viewBox="0 0 120 16" fill="none" xmlns="http://www.w3.org/2000/svg">
<path fill-rule="evenodd" clip-rule="evenodd" d="M0 0H3.35023V12.4571H9.22059V15.3765H0V0ZM113.943 15.3765H110.593V2.92036H104.725V0H113.943V15.3765ZM11.5293 15.3765H14.8805V0H11.5293V15.3765ZM17.294 0H21.1928L24.2356 5.63656C25.133 7.25588 25.9871 9.17143 26.6664 10.9038H26.7317C26.5127 8.87519 26.4473 6.79951 26.4473 4.47262V0H29.5141V15.3765H26.0323L22.8569 9.46867C21.9807 7.80232 20.994 5.83973 20.2936 4.04027H20.2061C20.3157 6.06891 20.3589 8.25869 20.3589 10.7677V15.3765H17.294V0ZM32.6665 0H35.9734V6.79951H36.0397C36.3674 6.20603 36.7181 5.65758 37.0476 5.11114L40.3969 0H44.4927L39.609 6.5483L44.7559 15.3765H40.8792L37.2426 8.76109L35.9734 10.3574V15.3765H32.6665V0ZM46.1173 0.319259C47.1463 0.137111 48.6365 0 50.6282 0C52.665 0 54.1543 0.411333 55.14 1.25502C56.0816 2.00662 56.7166 3.28566 56.7166 4.8139C56.7166 6.31812 56.2343 7.59715 55.3591 8.44083C54.2196 9.55774 52.5334 10.0832 50.5859 10.0832C50.1257 10.0832 49.7308 10.0361 49.4234 10.0151V15.4885H46.1173V0.319259ZM50.5408 7.39098C52.2932 7.39098 53.3875 6.45623 53.3875 4.90497C53.3875 3.49083 52.4681 2.64514 50.7829 2.64514C50.1036 2.64514 49.6655 2.66816 49.4234 2.73822V7.32293C49.6886 7.36797 50.0604 7.39098 50.5408 7.39098ZM58.6075 0.319259C59.6797 0.137111 61.2794 0 63.053 0C65.2426 0 66.775 0.343278 67.8271 1.20798C68.7024 1.93957 69.1847 3.01144 69.1847 4.42558C69.1847 6.38817 67.8501 7.73426 66.5781 8.21365V8.28171C67.6301 8.71406 68.1999 9.74189 68.5496 11.156C69.0098 12.8874 69.4691 14.8971 69.7544 15.4885H66.3379C66.0958 15.0562 65.7249 13.8242 65.3079 11.9086C64.913 9.99209 64.2808 9.46667 62.9012 9.44465H61.9135V15.4885H58.6075V0.319259ZM63.2288 6.93562C64.8929 6.93562 65.8777 6.06791 65.8777 4.72282C65.8777 3.3297 64.9361 2.60011 63.4258 2.57709C62.636 2.57709 62.1556 2.64514 61.9135 2.69218V6.93562H63.2288ZM71.0976 8.05252C71.0976 3.28566 74.0097 0 78.3457 0C82.7922 0 85.2892 3.42277 85.2892 7.91541C85.2892 13.0726 82.0255 15.8769 78.0613 15.8769C73.7916 15.8769 71.0976 12.6613 71.0976 8.05252ZM81.7622 7.96145C81.7622 5.36134 80.6679 2.76023 78.216 2.76023C75.8717 2.76023 74.6236 5.11014 74.6236 7.98547C74.6236 10.8358 75.9159 13.1166 78.1929 13.1166C80.5583 13.1166 81.7622 10.7447 81.7622 7.96145ZM87.4308 0H96.4535V2.85331H90.783V6.38717H96.0816V9.19344H90.783V15.3765H87.4308V0ZM98.9601 15.3765H102.312V0H98.9601V15.3765ZM117.215 2.90135H120V0H117.215V2.90135Z" fill="#55607A"/>
</svg>
