<svg width="44" height="44" viewBox="0 0 44 44" fill="none" xmlns="http://www.w3.org/2000/svg">
<rect width="44" height="44" rx="22" fill="#00CB82" fill-opacity="0.08"/>
<path d="M22 23.125C22.6213 23.125 23.125 22.6213 23.125 22C23.125 21.3787 22.6213 20.875 22 20.875C21.3787 20.875 20.875 21.3787 20.875 22C20.875 22.6213 21.3787 23.125 22 23.125Z" fill="#00CB82"/>
<path d="M17.875 23.125C18.4963 23.125 19 22.6213 19 22C19 21.3787 18.4963 20.875 17.875 20.875C17.2537 20.875 16.75 21.3787 16.75 22C16.75 22.6213 17.2537 23.125 17.875 23.125Z" fill="#00CB82"/>
<path d="M26.125 23.125C26.7463 23.125 27.25 22.6213 27.25 22C27.25 21.3787 26.7463 20.875 26.125 20.875C25.5037 20.875 25 21.3787 25 22C25 22.6213 25.5037 23.125 26.125 23.125Z" fill="#00CB82"/>
<path d="M17.4926 29.7916C19.3831 30.8857 21.607 31.255 23.7496 30.8305C25.8923 30.4061 27.8075 29.2169 29.1381 27.4847C30.4687 25.7525 31.124 23.5955 30.9817 21.4158C30.8394 19.2362 29.9093 17.1827 28.3648 15.6381C26.8202 14.0936 24.7667 13.1635 22.5871 13.0212C20.4074 12.8789 18.2504 13.5342 16.5182 14.8648C14.786 16.1954 13.5968 18.1106 13.1724 20.2533C12.7479 22.3959 13.1172 24.6198 14.2113 26.5103L13.0385 30.0119C12.9945 30.144 12.9881 30.2858 13.0201 30.4214C13.052 30.557 13.1212 30.681 13.2197 30.7795C13.3182 30.878 13.4422 30.9471 13.5777 30.9791C13.7133 31.0111 13.8551 31.0047 13.9873 30.9606L17.4926 29.7916Z" stroke="#00CB82" stroke-width="1.6" stroke-linecap="round" stroke-linejoin="round"/>
</svg>
