<svg width="313" height="77" viewBox="0 0 313 77" fill="none" xmlns="http://www.w3.org/2000/svg">
<path d="M1 62.5L8.54673 71.4189C10.3298 73.5261 13.5975 73.4668 15.3029 71.2963V71.2963C16.5819 69.6685 18.8292 69.1646 20.6807 70.0904L24.4633 71.9817C28.5498 74.0249 33.5111 72.8856 36.2967 69.2642L40.6006 63.6692C41.1979 62.8927 41.698 62.0459 42.0894 61.1477L48.7975 45.7588C49.5869 43.9476 50.8114 42.3594 52.3621 41.1352L56.2302 38.0814C58.3481 36.4094 60.9676 35.5 63.6659 35.5H75.7525C80.9652 35.5 85.5817 38.8653 87.1768 43.8279L89 49.5L96.4686 67.9936C98.3006 72.53 102.703 75.5 107.595 75.5H110.954C115.567 75.5 119.771 72.8564 121.769 68.6995L131 49.5L132.667 45.9099C135.302 40.234 142.136 37.8979 147.694 40.7729V40.7729C150.437 42.1918 153.651 42.3918 156.549 41.3242L158.836 40.4815C160.588 39.8361 162.165 38.7908 163.442 37.4287L167.64 32.9502C168.541 31.9899 169.277 30.8881 169.819 29.6889L177.15 13.4833C178.034 11.5301 179.425 9.84933 181.178 8.61563L188.893 3.18632C190.915 1.76357 193.327 1 195.799 1H201.876C206.782 1 211.195 3.98741 213.017 8.54331L217.463 19.658C217.82 20.5494 218.282 21.3949 218.84 22.1762L221.911 26.4749C224.163 29.6284 227.8 31.5 231.675 31.5H236C240.055 31.5 243.836 33.5481 246.051 36.9448L248.837 41.2171C249.606 42.3965 250.151 43.7029 250.52 45.0617C251.763 49.6394 254.095 56.1564 256.5 56.5C257.625 56.6607 259.593 57.3644 261.785 58.2679C267.198 60.5001 273.529 59.0393 276.984 54.3114L279.953 50.2491C280.317 49.7504 280.719 49.2807 281.156 48.844L290.5 39.5L292.913 37.355C296.579 34.0966 302.173 34.3513 305.528 37.9294V37.9294C306.496 38.9621 307.208 40.2074 307.607 41.5654L312 56.5" stroke="url(#paint0_linear_9281_859)" stroke-width="2" stroke-linecap="round"/>
<defs>
<linearGradient id="paint0_linear_9281_859" x1="1" y1="38.25" x2="312" y2="38.25" gradientUnits="userSpaceOnUse">
<stop stop-color="#3573FC" stop-opacity="0"/>
<stop offset="0.144088" stop-color="#3573FC"/>
<stop offset="0.859" stop-color="#3573FC"/>
<stop offset="1" stop-color="#3573FC" stop-opacity="0"/>
</linearGradient>
</defs>
</svg>
