<svg width="329" height="66" viewBox="0 0 329 66" fill="none" xmlns="http://www.w3.org/2000/svg">
<path d="M0.246214 59.3603L24.7228 53.1261C29.1825 51.9902 33.9154 52.8286 37.7136 55.4275L46.9086 61.7193C53.9906 66.5651 63.6339 64.9648 68.7709 58.0911L78.6246 44.9062C82.3245 39.9556 88.5437 37.5771 94.6028 38.7955L123.082 44.5221C128.473 45.6063 133.895 42.7989 136.121 37.7698L140.075 28.8359C142.413 23.5527 149.804 23.2671 152.543 28.3542V28.3542C155.376 33.6158 163.09 33.0815 165.171 27.4795L171.374 10.7804C176.264 -2.38511 194.944 -2.21685 199.596 11.0346L213.17 49.6995C215.05 55.0568 222.63 55.0481 224.498 49.6865V49.6865C226.39 44.2596 234.092 44.3388 235.871 49.8034L237.582 55.0596C239.866 62.0738 249.68 62.3668 252.379 55.5014L262.421 29.9466C265.432 22.2849 275.801 21.1403 280.411 27.9606V27.9606C283.669 32.7809 290.286 33.9153 294.964 30.4555L328.406 5.71847" stroke="url(#paint0_linear_9267_13738)" stroke-width="2"/>
<defs>
<linearGradient id="paint0_linear_9267_13738" x1="0.246214" y1="43.5685" x2="328.406" y2="43.5685" gradientUnits="userSpaceOnUse">
<stop stop-color="white"/>
<stop offset="0.269231" stop-color="#00CB82"/>
<stop offset="0.692308" stop-color="#00CB82"/>
<stop offset="1" stop-color="white"/>
</linearGradient>
</defs>
</svg>
