<svg width="311" height="102" viewBox="0 0 311 102" fill="none" xmlns="http://www.w3.org/2000/svg">
<path opacity="0.24" d="M7.54673 70.4189L0 61.5V101.5H311V55.5L306.607 40.5654C306.208 39.2074 305.496 37.9621 304.528 36.9294C301.173 33.3513 295.579 33.0966 291.913 36.355L289.5 38.5L280.156 47.844C279.719 48.2807 279.317 48.7504 278.953 49.2491L275.984 53.3114C272.529 58.0393 266.198 59.5001 260.785 57.2679C258.593 56.3644 256.625 55.6607 255.5 55.5C253.095 55.1564 250.763 48.6394 249.52 44.0617C249.151 42.7029 248.606 41.3965 247.837 40.2171L245.051 35.9448C242.836 32.5481 239.055 30.5 235 30.5H230.675C226.8 30.5 223.163 28.6284 220.911 25.4749L217.84 21.1762C217.282 20.3949 216.82 19.5494 216.463 18.658L212.017 7.54331C210.195 2.98741 205.782 0 200.876 0H194.799C192.327 0 189.915 0.763574 187.893 2.18632L180.178 7.61563C178.425 8.84933 177.034 10.5301 176.15 12.4833L168.819 28.6889C168.277 29.8881 167.541 30.9899 166.64 31.9502L162.442 36.4287C161.165 37.7908 159.588 38.8361 157.836 39.4815L155.549 40.3242C152.651 41.3918 149.437 41.1918 146.694 39.7729C141.136 36.8979 134.302 39.234 131.667 44.9099L130 48.5L120.769 67.6995C118.771 71.8564 114.567 74.5 109.954 74.5H106.595C101.703 74.5 97.3006 71.53 95.4686 66.9936L88 48.5L86.1768 42.8279C84.5817 37.8653 79.9652 34.5 74.7525 34.5H62.666C59.9676 34.5 57.3481 35.4094 55.2302 37.0814L51.3621 40.1352C49.8114 41.3594 48.5869 42.9476 47.7975 44.7588L41.0894 60.1477C40.698 61.0459 40.1979 61.8927 39.6006 62.6692L35.2967 68.2642C32.5111 71.8856 27.5498 73.0249 23.4633 70.9817L19.6807 69.0904C17.8292 68.1646 15.5819 68.6685 14.3029 70.2963C12.5975 72.4668 9.32977 72.5261 7.54673 70.4189Z" fill="url(#paint0_linear_9281_858)"/>
<defs>
<linearGradient id="paint0_linear_9281_858" x1="142.5" y1="40" x2="142.5" y2="102" gradientUnits="userSpaceOnUse">
<stop stop-color="#3573FC"/>
<stop offset="1" stop-color="#3573FC" stop-opacity="0"/>
</linearGradient>
</defs>
</svg>
