<svg width="133" height="22" viewBox="0 0 133 22" fill="none" xmlns="http://www.w3.org/2000/svg">
<g clip-path="url(#clip0_0_44)">
<path d="M47.6838 13.8095H41.3184L39.9862 18H37L43.2168 0H45.7834L52 18H49.0293L47.6838 13.8095ZM42.1111 11.2991H46.8823L44.4956 3.82143L42.1111 11.2991Z" fill="#55607A"/>
<path d="M55 18V5H60.1422C61.877 5 63.1976 5.31071 64.104 5.93212C64.5382 6.21679 64.8921 6.61327 65.1302 7.08194C65.3685 7.5507 65.4827 8.07522 65.4615 8.60331C65.4664 9.19042 65.2738 9.76129 64.9163 10.2197C64.4943 10.7383 63.935 11.1203 63.3057 11.3194C64.0558 11.4535 64.7453 11.8277 65.2752 12.3884C65.7459 12.8978 66.0057 13.5744 65.9999 14.2762C65.9999 15.4876 65.5651 16.4087 64.6954 17.0395C63.8257 17.6704 62.5741 17.985 60.9406 17.9834L55 18ZM57.846 10.3709H60.1904C61.8056 10.3709 62.6138 9.88239 62.6154 8.90544C62.6154 7.87969 61.8486 7.35119 60.3147 7.31964H57.846V10.3709ZM57.846 12.4617V15.6946H60.9636C62.4253 15.6946 63.1555 15.1573 63.1539 14.0828C63.1523 13.0084 62.4108 12.4679 60.929 12.4617H57.846Z" fill="#55607A"/>
<path d="M79 7.31964H74.525V18H71.4248V7.31964H67V5H79V7.31964Z" fill="#55607A"/>
<path d="M80.0117 11.3941C79.9933 10.2451 80.2505 9.10774 80.7632 8.07238C81.2211 7.12923 81.9535 6.3375 82.8699 5.79568C83.8153 5.25535 84.896 4.9804 85.9924 5.00109C87.734 5.00109 89.1462 5.54595 90.2292 6.63579C91.312 7.72552 91.8982 9.16754 91.9871 10.9615L91.9988 11.624C92.0194 12.769 91.7687 13.9034 91.2662 14.9389C90.8102 15.8792 90.0768 16.6662 89.1595 17.1997C88.2045 17.744 87.1131 18.0206 86.0064 17.9988C84.1884 17.9988 82.7323 17.4099 81.6386 16.2321C80.5445 15.0543 79.9984 13.4833 80 11.5193L80.0117 11.3941ZM82.9072 11.6377C82.9072 12.9278 83.1818 13.938 83.7312 14.668C83.9882 15.0215 84.3323 15.3068 84.7317 15.4981C85.131 15.6894 85.5731 15.7804 86.0182 15.7632C86.4641 15.7809 86.9074 15.6883 87.3065 15.494C87.7055 15.2996 88.0476 15.01 88.3004 14.6522C88.8465 13.91 89.1187 12.824 89.1173 11.3942C89.1173 10.1268 88.8372 9.12202 88.277 8.37984C88.0218 8.02431 87.6794 7.73626 87.281 7.5419C86.8823 7.34753 86.4401 7.25287 85.9947 7.26656C85.5553 7.25355 85.1197 7.34675 84.7267 7.53796C84.3337 7.72907 83.9956 8.01209 83.7428 8.36171C83.1859 9.08558 82.9072 10.1776 82.9072 11.6377Z" fill="#55607A"/>
<path d="M98.7258 12.8581H97.4725V18H95V5H97.4725V10.1916H98.5619L101.606 5H104.658L100.685 11.2251L105 18H101.784L98.7258 12.8581Z" fill="#55607A"/>
<path d="M106.021 11.3941C106.003 10.2451 106.26 9.10776 106.773 8.07241C107.23 7.12926 107.963 6.33752 108.879 5.79571C109.825 5.25508 110.907 4.98013 112.004 5.00112C113.743 5.00112 115.155 5.54598 116.241 6.63581C117.327 7.72565 117.913 9.16756 117.999 10.9615V11.624C118.02 12.769 117.769 13.9034 117.266 14.9389C116.808 15.878 116.075 16.6644 115.159 17.1997C114.204 17.744 113.113 18.0206 112.006 17.9988C110.185 17.9988 108.729 17.4099 107.639 16.2321C106.548 15.0543 106.002 13.4833 106 11.5193L106.021 11.3941ZM108.919 11.6376C108.919 12.9277 109.193 13.9379 109.741 14.6679C109.998 15.0217 110.342 15.3073 110.742 15.4985C111.142 15.6898 111.585 15.7807 112.03 15.763C112.476 15.7801 112.919 15.6871 113.318 15.4929C113.717 15.2986 114.059 15.0093 114.312 14.6519C114.855 13.9097 115.128 12.8237 115.129 11.3939C115.129 10.1266 114.849 9.12175 114.289 8.37956C114.033 8.02443 113.691 7.73678 113.292 7.54242C112.894 7.34805 112.452 7.25319 112.006 7.26619C111.567 7.25299 111.131 7.34618 110.737 7.53729C110.344 7.7284 110.006 8.01153 109.752 8.36124C109.195 9.0855 108.917 10.1776 108.919 11.6376Z" fill="#55607A"/>
<path d="M120.065 15.7531C120.764 15.0043 121.309 14.1207 121.67 13.154C121.977 12.1354 122.143 11.0781 122.163 10.0127L122.328 5H131.223V15.7531H133V22H130.134V18.1002H121.914V22H119V15.7531H120.065ZM123.443 15.7531H128.348V7.53011H125.115L125.031 10.0365C124.927 12.443 124.398 14.3485 123.443 15.7531Z" fill="#55607A"/>
<path d="M30.7246 4.87127C30.58 4.62408 30.3871 4.40789 30.1576 4.2354C29.7096 3.8635 29.1828 3.59638 28.6167 3.45358C28.0506 3.31087 27.4594 3.29624 26.8869 3.41089C26.7378 3.43904 26.5604 3.49779 26.4136 3.52838L24.7191 1.29207C24.5993 1.07771 24.433 0.892718 24.2317 0.750419C24.0308 0.608121 23.8001 0.512375 23.557 0.469889C20.8206 0.174925 18.071 0.0181938 15.3188 0H15.0821C12.5271 0.0104691 9.9747 0.167302 7.4379 0.469787C7.18998 0.497332 6.95333 0.587285 6.75037 0.731209C6.54741 0.875134 6.3849 1.06815 6.2783 1.29197L4.55057 3.52828C4.40147 3.49779 4.19319 3.43904 4.07727 3.41079C3.50463 3.29624 2.91347 3.31077 2.34739 3.45347C1.78131 3.59618 1.25466 3.86339 0.806544 4.2353C0.269343 4.67449 -0.0264971 5.20547 0.0018683 5.67526C0.006374 5.88017 0.0567558 6.08142 0.149225 6.26468C0.241694 6.44783 0.3741 6.60843 0.536714 6.73467C0.932191 6.99751 1.40048 7.13127 1.87624 7.11755C1.75786 7.2632 1.63958 7.43935 1.51885 7.61783C0.924818 8.588 1.01473 9.58632 1.07392 10.2347C1.07392 10.3827 1.10228 10.5001 1.10228 10.6176V15.823C1.10105 16.0659 1.15072 16.3064 1.2481 16.5292C1.34549 16.7519 1.48844 16.9523 1.66795 17.1173L1.63723 17.8831C1.62341 18.1607 1.66949 18.438 1.7724 18.6964C1.87521 18.9548 2.0325 19.1885 2.23362 19.3818C2.4247 19.5813 2.65552 19.7393 2.91132 19.8457C3.16722 19.952 3.44248 20.0045 3.71988 19.9997H8.00346C8.18297 20.0006 8.36085 19.9663 8.52694 19.8987C8.69304 19.8311 8.84398 19.7316 8.97116 19.6057C9.09835 19.48 9.19911 19.3305 9.26782 19.1658C9.33653 19.0013 9.37176 18.8247 9.37145 18.6467V18.2356C10.7702 18.2944 11.3949 18.3225 11.5014 18.3531C11.7973 18.4119 13.1581 18.44 15.7826 18.44C18.4072 18.44 19.2048 18.44 19.5007 18.3531C19.6214 18.3226 20.2461 18.2944 21.6306 18.2356V18.6467C21.6303 18.8248 21.6655 19.0013 21.7341 19.1658C21.8029 19.3305 21.9036 19.48 22.0308 19.6057C22.1579 19.7315 22.3089 19.8311 22.4749 19.8987C22.641 19.9663 22.8189 20.0006 22.9984 19.9997H27.282C27.5594 20.0045 27.8347 19.9521 28.0905 19.8457C28.3463 19.7394 28.5771 19.5814 28.7682 19.3818C29.1526 18.9762 29.3661 18.4399 29.3646 17.8831L29.3339 17.1173C29.5133 16.9523 29.6563 16.7521 29.7538 16.5292C29.8511 16.3064 29.9007 16.0659 29.8996 15.823V10.6176C29.896 10.4893 29.9055 10.361 29.928 10.2347C29.9895 9.58632 30.0771 8.59034 29.483 7.61783C29.3646 7.43935 29.2464 7.2631 29.1256 7.11755C29.6013 7.13127 30.0697 6.99741 30.4652 6.73467C30.6251 6.60609 30.7556 6.44499 30.8478 6.26234C30.9401 6.07959 30.992 5.87946 31 5.67526C30.9629 5.39178 30.8692 5.11846 30.7246 4.87127ZM9.84465 13.0302C9.78649 13.0881 9.71696 13.1335 9.64046 13.1638C9.56397 13.1941 9.48205 13.2086 9.39972 13.2064H9.369C8.74424 13.2064 7.16807 13.1476 6.24502 13.0302C5.86807 12.9592 5.51837 12.7861 5.23451 12.5299C4.31392 11.6161 3.86662 10.8527 3.89735 10.2631C3.92448 10.0245 4.04112 9.80475 4.22391 9.64761C4.60965 9.35163 5.17532 9.58653 6.33492 10.0282C7.21589 10.3916 8.12041 10.6961 9.04233 10.9396L9.12989 10.9701C9.87537 11.3225 9.96293 12.2926 10.0221 12.5604C10.0259 12.7339 9.96231 12.9021 9.84465 13.0302ZM5.61319 5.50613C6.39657 3.8946 7.18701 2.65203 7.97981 2.18224C9.16552 1.46343 20.239 1.28729 22.8162 2.18224C23.6067 2.18224 24.9913 4.6746 25.3864 5.50613C26.3756 8.35087 4.42984 7.93505 5.61319 5.50613ZM25.7982 12.558C25.5229 12.8266 25.1691 13.0017 24.7876 13.0584C23.8646 13.1759 22.2883 13.2064 21.6636 13.2345H21.6352C21.5525 13.2371 21.4702 13.2226 21.3931 13.1924C21.3162 13.1621 21.2464 13.1164 21.1879 13.0583C21.0695 12.9305 21.0058 12.762 21.0105 12.5885C21.0105 12.2925 21.1289 11.3224 21.872 10.97L21.9619 10.9395C22.8828 10.695 23.7864 10.3905 24.6669 10.0281C25.7864 9.58642 26.3803 9.35153 26.7969 9.67566C26.8968 9.74671 26.9792 9.8391 27.0383 9.94603C27.0973 10.053 27.131 10.1717 27.1377 10.2934C27.1662 10.8807 26.7212 11.6466 25.7982 12.558Z" fill="#55607A"/>
</g>
<defs>
<clipPath id="clip0_0_44">
<rect width="133" height="22" fill="white"/>
</clipPath>
</defs>
</svg>
