<svg width="138" height="26" viewBox="0 0 138 26" fill="none" xmlns="http://www.w3.org/2000/svg">
<g clip-path="url(#clip0_0_53)">
<path d="M29.5327 21.7764C29.0216 21.5532 28.666 21.0393 28.666 20.503C28.666 19.7431 29.266 19.1622 30.066 19.1622C30.4215 19.1622 30.7549 19.2292 31.1327 19.2292C31.9772 19.2292 32.5105 18.6707 32.5105 17.7546V8.23565C32.5105 7.36419 33.1327 6.69385 34.0215 6.69385C34.8882 6.69385 35.5104 7.36419 35.5104 8.23565V17.777C35.5104 20.5475 33.9549 21.9776 30.9105 21.9776C30.3326 21.9776 29.8883 21.9106 29.5327 21.7764Z" fill="#55607A"/>
<path d="M38.4438 16.8388V11.9229C38.4438 11.0514 39.0882 10.4033 39.9549 10.4033C40.7993 10.4033 41.4439 11.0514 41.4439 11.9229V17.0843C41.4439 18.3134 42.3106 19.2074 43.5328 19.2074C44.7327 19.2074 45.5771 18.3134 45.5771 17.0843V11.9229C45.5771 11.0514 46.1994 10.4033 47.0883 10.4033C47.9327 10.4033 48.5771 11.0514 48.5771 11.9229V16.8388C48.5771 19.8776 46.4882 21.9778 43.5328 21.9778C40.5328 21.9778 38.4438 19.8776 38.4438 16.8388Z" fill="#55607A"/>
<path d="M54.8215 6.62717C54.8215 7.63278 53.9548 8.43716 52.9548 8.43716C51.9105 8.43716 51.0659 7.63278 51.0659 6.62717C51.0659 5.5993 51.9105 4.79492 52.9548 4.79492C53.9548 4.79492 54.8215 5.5993 54.8215 6.62717ZM51.4438 20.4362V11.923C51.4438 11.0515 52.0882 10.4034 52.9548 10.4034C53.7992 10.4034 54.4438 11.0515 54.4438 11.923V20.4362C54.4438 21.3077 53.7992 21.978 52.9325 21.978C52.0882 21.978 51.4438 21.3077 51.4438 20.4362Z" fill="#55607A"/>
<path d="M56.7988 16.1682C56.7988 12.9283 59.3766 10.4033 62.6877 10.4033C64.5543 10.4033 66.2878 11.2972 67.132 12.5931C67.3322 12.906 67.3989 13.1518 67.3989 13.3976C67.3989 14.1349 66.799 14.7382 66.0656 14.7382C65.6431 14.7382 65.3101 14.6043 65.0432 14.2691C64.4878 13.5987 63.71 13.1518 62.7321 13.1518C61.0432 13.1518 59.8432 14.4032 59.8432 16.1682C59.8432 17.956 61.0432 19.2074 62.7321 19.2074C63.6876 19.2074 64.4432 18.7604 65.0432 18.0898C65.3542 17.7325 65.6652 17.6207 66.0656 17.6207C66.799 17.6207 67.3989 18.224 67.3989 18.9615C67.3989 19.2295 67.3322 19.4529 67.1547 19.721C66.2431 21.129 64.6432 21.9778 62.6877 21.9778C59.3766 21.9778 56.7988 19.4085 56.7988 16.1682Z" fill="#55607A"/>
<path d="M80.1553 11.8558C80.1553 12.0793 80.1106 12.3026 79.9772 12.5484L75.1329 22.5366C73.955 24.9722 72.6217 26 70.6217 26C70.1325 26 69.6887 25.9107 69.355 25.7541C68.8886 25.553 68.5996 25.0839 68.5996 24.5699C68.5996 23.8325 69.1995 23.274 69.955 23.274C70.0664 23.274 70.1552 23.2961 70.2219 23.2961C71.1776 23.2961 71.8216 22.894 72.3107 21.8885L72.7105 20.9948L68.9106 12.5708C68.7771 12.3026 68.7104 12.0793 68.7104 11.8558C68.7104 11.0737 69.3771 10.4033 70.1772 10.4033C70.7551 10.4033 71.2663 10.7162 71.4885 11.2525L74.3995 17.7994L77.3772 11.2525C77.5994 10.7386 78.1106 10.4033 78.7105 10.4033C79.488 10.4033 80.1553 11.0737 80.1553 11.8558Z" fill="#55607A"/>
<path d="M81.9774 19.4303C81.8439 19.274 81.7778 19.0954 81.7778 18.8943C81.7778 18.4472 82.1555 18.0896 82.6 18.0896C82.8663 18.0896 83.0885 18.2014 83.2667 18.4248C84.2443 19.6762 85.4883 20.3464 86.911 20.3464C88.6888 20.3464 89.8667 19.341 89.8667 17.8885C89.8667 16.7937 89.3108 16.1904 87.4222 15.2967L85.7772 14.5144C83.4442 13.3974 82.4665 12.213 82.4665 10.5595C82.4665 8.34748 84.3551 6.71631 86.8884 6.71631C88.5327 6.71631 89.9108 7.34187 90.9331 8.48145C91.1774 8.74964 91.2441 8.9954 91.2441 9.19651C91.2441 9.59867 90.8444 9.97866 90.4219 9.97866C90.1997 9.97866 89.9995 9.86686 89.822 9.68804C89.0219 8.79429 87.9995 8.32506 86.8663 8.32506C85.3108 8.32506 84.2664 9.17409 84.2664 10.4701C84.2664 11.5205 84.7335 12.0342 86.6221 12.9505L88.2444 13.7325C90.7109 14.917 91.6665 16.0786 91.6665 17.844C91.6665 20.2571 89.7332 21.9555 86.9331 21.9555C85.0438 21.9555 83.1332 20.9945 81.9774 19.4303Z" fill="#55607A"/>
<path d="M94.1328 16.2574C94.1328 13.0847 96.644 10.582 99.7992 10.582C101.755 10.582 103.311 11.5206 104.2 12.8611C104.333 13.0622 104.355 13.1964 104.355 13.3304C104.355 13.755 103.999 14.1124 103.577 14.1124C103.378 14.1124 103.177 14.0679 102.955 13.7997C102.222 12.8836 101.221 12.1686 99.8219 12.1686C97.5997 12.1686 95.8886 13.9337 95.8886 16.2574C95.8886 18.6037 97.577 20.369 99.8219 20.369C101.221 20.369 102.222 19.654 102.955 18.7378C103.177 18.4919 103.378 18.4474 103.555 18.4474C103.999 18.4474 104.355 18.7827 104.355 19.2294C104.355 19.3635 104.333 19.4977 104.2 19.6988C103.288 21.0171 101.755 21.9557 99.7992 21.9557C96.644 21.9557 94.1328 19.4305 94.1328 16.2574Z" fill="#55607A"/>
<path d="M117.489 16.2574C117.489 19.4084 114.977 21.9332 111.8 21.9332C108.644 21.9108 106.156 19.4084 106.156 16.2574C106.156 13.0622 108.644 10.582 111.822 10.582C114.977 10.582 117.489 13.0847 117.489 16.2574ZM107.911 16.2799C107.911 18.6037 109.578 20.3466 111.8 20.3466C114.022 20.3466 115.733 18.5816 115.733 16.2799C115.733 13.9337 114.044 12.1686 111.822 12.1686C109.578 12.1686 107.889 13.9337 107.911 16.2799Z" fill="#55607A"/>
<path d="M126.444 11.5429C126.444 12.0344 126.066 12.3472 125.577 12.3472C123.621 12.3472 122.199 13.7104 122.199 15.5649V21.0616C122.199 21.5755 121.822 21.9557 121.355 21.9557C120.844 21.9557 120.488 21.5534 120.488 21.0616V11.4758C120.488 10.9843 120.844 10.582 121.355 10.582C121.822 10.582 122.199 10.9843 122.199 11.4758V12.2803C122.999 11.3193 124.199 10.7385 125.577 10.7385C126.066 10.7385 126.444 11.0736 126.444 11.5429Z" fill="#55607A"/>
<path d="M138 15.6097V15.7215C138 16.4365 137.622 16.7938 136.955 16.7938H129.311C129.533 18.939 131.111 20.369 133.288 20.369C134.355 20.369 135.333 19.9892 136.111 19.3187C136.289 19.1624 136.489 19.0731 136.688 19.0731C137.111 19.0731 137.445 19.386 137.445 19.8326C137.445 20.1234 137.333 20.3245 137.022 20.6149C135.955 21.5087 134.666 21.9557 133.266 21.9557C129.978 21.9557 127.533 19.5198 127.533 16.2799C127.533 13.0847 129.978 10.582 133.067 10.582C135.933 10.582 138 12.6825 138 15.6097ZM129.378 15.2744H136.244C136.2 13.4422 134.911 12.1461 133.022 12.1461C131.178 12.1461 129.755 13.4197 129.378 15.2744Z" fill="#55607A"/>
<path opacity="0.1" d="M7.61139 15.7886C7.27242 15.7886 6.94031 15.8234 6.62207 15.8895V15.886C6.94031 15.8199 7.27242 15.7852 7.61139 15.7852C8.8602 15.7852 10.0226 16.286 10.877 17.1139C10.0226 16.2895 8.8602 15.7886 7.61139 15.7886Z" fill="#55607A"/>
<path d="M20.1947 11.9695L10.9729 21.2421L6.97852 17.2256L16.2002 7.95301C17.3548 6.79211 19.0719 6.79211 20.2241 7.9506C21.3492 9.08199 21.3492 10.8086 20.1947 11.9695Z" fill="#55607A"/>
<path d="M27.0922 5.8831C25.7605 7.22221 23.5784 7.17034 22.2899 5.87467C20.9441 4.52144 20.921 2.35602 22.2527 1.01692C23.614 -0.351816 25.7675 -0.328609 27.1133 1.02462C28.4019 2.32028 28.4535 4.51437 27.0922 5.8831Z" fill="#55607A"/>
<path d="M8.49309 17.1099L4.86068 13.4575C3.70612 12.2965 1.98897 12.2965 0.863763 13.4279C-0.288331 14.5864 -0.288331 16.313 0.866225 17.4739L4.49865 21.1264C6.26228 22.8997 9.20739 23.0178 10.9735 21.242L14.9655 17.228C13.1993 19.0038 10.2568 18.8832 8.49309 17.1099Z" fill="#55607A"/>
</g>
<defs>
<clipPath id="clip0_0_53">
<rect width="138" height="26" fill="white"/>
</clipPath>
</defs>
</svg>
