<svg width="114" height="44" viewBox="0 0 114 44" fill="none" xmlns="http://www.w3.org/2000/svg">
<g clip-path="url(#clip0_0_23)">
<mask id="mask0_0_23" style="mask-type:luminance" maskUnits="userSpaceOnUse" x="53" y="10" width="60" height="26">
<path d="M112.973 10.2324H53.4053V35.8138H112.973V10.2324Z" fill="white"/>
</mask>
<g mask="url(#mask0_0_23)">
<path d="M53.4053 14.1853C53.4053 11.8731 55.0824 10.2324 57.4182 10.2324C58.9696 10.2324 59.91 10.9038 60.4127 11.5903L59.1104 12.8079C58.7507 12.2768 58.2004 11.9962 57.5113 11.9962C56.3045 11.9962 55.4572 12.8705 55.4572 14.1831C55.4572 15.4956 56.3045 16.3851 57.5113 16.3851C58.2004 16.3851 58.7507 16.072 59.1104 15.5733L60.4127 16.7758C59.91 17.4796 58.9696 18.151 57.4182 18.151C55.0824 18.151 53.4053 16.5103 53.4053 14.1831V14.1853Z" fill="#55607A"/>
<path d="M66.6216 17.9694L64.6152 15.0637L63.7052 16.033V17.9694H61.7139V10.4243H63.7052V13.7835L66.574 10.4243H69.0203L66.0258 13.8461L69.1135 17.9694H66.6216Z" fill="#55607A"/>
<path d="M69.5249 14.1853C69.5249 12.0458 71.0308 10.2324 73.5226 10.2324C76.0144 10.2324 77.5355 12.0437 77.5355 14.1853C77.5355 16.3268 76.0296 18.1531 73.5226 18.1531C71.0156 18.1531 69.5249 16.3419 69.5249 14.1853ZM75.4663 14.1853C75.4663 13.013 74.7599 11.9984 73.5226 11.9984C72.2853 11.9984 71.5942 13.013 71.5942 14.1853C71.5942 15.3575 72.2832 16.3872 73.5226 16.3872C74.762 16.3872 75.4663 15.3725 75.4663 14.1853Z" fill="#55607A"/>
<path d="M81.0001 16.996V20.8388H79.0088V10.4202H81.0001V11.3723C81.5808 10.6382 82.4106 10.2324 83.3359 10.2324C85.2794 10.2324 86.69 11.6702 86.69 14.1853C86.69 16.7002 85.2794 18.1531 83.3359 18.1531C82.4432 18.1531 81.6111 17.7775 81.0001 16.9982V16.996ZM84.6208 14.1853C84.6208 12.8878 83.8537 11.9984 82.7074 11.9984C82.0639 11.9984 81.3272 12.374 80.9978 12.8576V15.528C81.3272 15.9965 82.0639 16.3872 82.7074 16.3872C83.8515 16.3872 84.6208 15.4978 84.6208 14.1853Z" fill="#55607A"/>
<path d="M88.1475 17.9616V10.4165H90.1388V14.9781L93.2589 10.4165H95.2654V17.9616H93.2741V13.2294L90.0607 17.9616H88.1475Z" fill="#55607A"/>
<path d="M97.2427 17.9694V10.4243H99.234V13.22H102.369V10.4243H104.36V17.9694H102.369V14.9557H99.234V17.9694H97.2427Z" fill="#55607A"/>
<path d="M112.181 12.15H108.324V17.9616H106.333V10.4165H112.181V12.15Z" fill="#55607A"/>
<path d="M53.4053 28.3191C53.4053 24.6491 54.7378 23.0084 57.3401 22.6651C58.6098 22.4773 59.0497 22.2895 59.0497 22.0239H61.119C61.119 23.492 59.2057 23.8978 57.9686 24.0554C56.1809 24.2886 55.4442 25.0701 55.2406 25.9444C55.8515 25.1478 56.7768 24.7096 57.8277 24.7096C59.9923 24.7096 61.4028 26.5532 61.4028 28.6451C61.4028 30.737 59.9295 32.6281 57.4051 32.6281C54.8808 32.6281 53.4074 30.7694 53.4074 28.317L53.4053 28.3191ZM59.3466 28.6321C59.3466 27.4923 58.6402 26.4755 57.403 26.4755C56.1657 26.4755 55.4745 27.4901 55.4745 28.6321C55.4745 29.8497 56.1636 30.8665 57.403 30.8665C58.6424 30.8665 59.3466 29.8518 59.3466 28.6321Z" fill="#55607A"/>
<path d="M66.1834 29.4292H64.9288V32.4429H62.9375V24.8978H64.9288V27.6935H66.2311C66.6081 26.0075 68.0186 24.71 70.1204 24.71C72.6296 24.71 74.1333 26.5212 74.1333 28.6628C74.1333 30.8044 72.6274 32.6307 70.1204 32.6307C67.9407 32.6307 66.4997 31.2405 66.1856 29.4292H66.1834ZM72.0619 28.6628C72.0619 27.4906 71.3728 26.4759 70.1183 26.4759C68.8637 26.4759 68.1898 27.4906 68.1898 28.6628C68.1898 29.835 68.8789 30.8648 70.1183 30.8648C71.3577 30.8648 72.0619 29.8502 72.0619 28.6628Z" fill="#55607A"/>
<path d="M77.6139 31.4736V35.3163H75.6226V24.8978H77.6139V25.8499C78.1945 25.1159 79.0244 24.71 79.9496 24.71C81.8933 24.71 83.3038 26.1477 83.3038 28.6628C83.3038 31.1779 81.8933 32.6307 79.9496 32.6307C79.0569 32.6307 78.2248 32.255 77.6139 31.4757V31.4736ZM81.2345 28.6628C81.2345 27.3676 80.4653 26.4759 79.3213 26.4759C78.6778 26.4759 77.9411 26.8515 77.6117 27.3351V30.0056C77.9411 30.4741 78.6778 30.8648 79.3213 30.8648C80.4653 30.8648 81.2345 29.9753 81.2345 28.6628Z" fill="#55607A"/>
<path d="M84.2725 28.6628C84.2725 26.5234 85.7784 24.71 88.2702 24.71C90.7619 24.71 92.2831 26.5212 92.2831 28.6628C92.2831 30.8044 90.7771 32.6307 88.2702 32.6307C85.7632 32.6307 84.2725 30.8195 84.2725 28.6628ZM90.2137 28.6628C90.2137 27.4906 89.5074 26.4759 88.2702 26.4759C87.0329 26.4759 86.3417 27.4906 86.3417 28.6628C86.3417 29.835 87.0329 30.8648 88.2702 30.8648C89.5074 30.8648 90.2137 29.8502 90.2137 28.6628Z" fill="#55607A"/>
</g>
<mask id="mask1_0_23" style="mask-type:luminance" maskUnits="userSpaceOnUse" x="0" y="0" width="45" height="44">
<path d="M44.1622 0H0V44H44.1622V0Z" fill="white"/>
</mask>
<g mask="url(#mask1_0_23)">
<path d="M6.43968 6.41603C2.46363 10.3753 0 15.8609 0 21.9056C0 22.6202 0.582864 23.2009 1.30007 23.2009C2.01728 23.2009 2.60013 22.6202 2.60013 21.9056C2.60013 16.569 4.76692 11.7483 8.2771 8.24886C11.7895 4.75157 16.6279 2.59275 21.9841 2.59275C27.3404 2.59275 32.1788 4.75157 35.6912 8.24886C39.2014 11.7483 41.3681 16.569 41.3681 21.9056C41.3681 27.2422 39.2014 32.0629 35.6912 35.5623C32.1788 39.0596 27.3404 41.2184 21.9841 41.2184C20.008 41.2184 18.1057 40.9184 16.3116 40.3722C16.8229 39.038 17.3321 37.7039 17.8435 36.3675C19.1608 36.741 20.5498 36.9439 21.9841 36.9439C26.1487 36.9439 29.9319 35.2579 32.6599 32.5378C35.39 29.8198 37.0823 26.0506 37.0823 21.9013C37.0823 17.7521 35.39 13.9827 32.6599 11.2647C29.9319 8.54463 26.1487 6.85859 21.9841 6.85859C17.8196 6.85859 14.0364 8.54463 11.3084 11.2647C8.57829 13.9827 6.88603 17.7521 6.88603 21.9013C6.88603 22.6158 7.46889 23.1966 8.18609 23.1966C8.9033 23.1966 9.48617 22.6158 9.48617 21.9013C9.48617 18.4579 10.8837 15.3535 13.1458 13.0976C15.4123 10.8416 18.5282 9.45133 21.982 9.45133C25.438 9.45133 28.5538 10.8437 30.8181 13.0976C33.0824 15.3557 34.4778 18.4601 34.4778 21.9013C34.4778 25.3446 33.0802 28.449 30.8181 30.7049C28.5517 32.9609 25.4359 34.3512 21.982 34.3512C20.8704 34.3512 19.7957 34.2022 18.7708 33.9302C19.2844 32.5874 19.7979 31.2469 20.3114 29.904C20.8509 30.0163 21.4099 30.0768 21.982 30.0768C24.2441 30.0768 26.3047 29.1592 27.7868 27.6804C29.271 26.2038 30.1919 24.1529 30.1919 21.897C30.1919 19.6431 29.271 17.5901 27.7868 16.1134C26.3047 14.6347 24.2463 13.7172 21.982 13.7172C19.7198 13.7172 17.6592 14.6347 16.1772 16.1134C14.693 17.5901 13.772 19.641 13.772 21.897C13.772 22.6115 14.355 23.1922 15.0721 23.1922C15.7893 23.1922 16.3721 22.6115 16.3721 21.897C16.3721 20.3491 16.9984 18.9609 18.0146 17.9463C19.033 16.9339 20.4284 16.3099 21.9798 16.3099C23.5334 16.3099 24.9267 16.9339 25.9451 17.9463C26.9612 18.9609 27.5875 20.3491 27.5875 21.897C27.5875 23.4448 26.9612 24.833 25.9451 25.8476C24.9267 26.8601 23.5312 27.484 21.9798 27.484C21.7328 27.484 21.4923 27.4624 21.2539 27.4322C21.527 26.7155 21.8021 26.0008 22.0751 25.2841C22.9744 25.2604 23.7956 24.8869 24.3871 24.2954C25.0003 23.6866 25.3838 22.8296 25.3838 21.897C25.3838 20.9644 25.0003 20.1094 24.3871 19.4984C23.7761 18.8876 22.9158 18.5055 21.9798 18.5055C21.0438 18.5055 20.1857 18.8876 19.5726 19.4984C18.9593 20.1073 18.5758 20.9644 18.5758 21.897C18.5758 22.8296 18.9593 23.6845 19.5726 24.2954C19.5964 24.3191 19.6224 24.3385 19.6462 24.3623C18.3808 27.6697 17.1176 30.9748 15.8522 34.2821L15.3885 35.4933C14.7254 37.2289 14.0602 38.9647 13.3972 40.7003C13.1415 41.3695 13.4774 42.1165 14.149 42.3713C16.5824 43.2952 19.2237 43.8047 21.9798 43.8047C28.0468 43.8047 33.5504 41.3501 37.5264 37.3886C41.5025 33.4294 43.9661 27.9438 43.9661 21.8991C43.9661 15.8544 41.5025 10.371 37.5264 6.40955C33.557 2.45459 28.0533 0 21.9863 0C15.9193 0 10.4135 2.45459 6.43968 6.41603ZM21.4165 22.4712C21.2691 22.3222 21.1824 22.1301 21.1803 21.9056C21.1803 21.6811 21.2691 21.4889 21.4165 21.34C21.5659 21.1932 21.7588 21.1068 21.9841 21.1047C22.2095 21.1047 22.4023 21.1932 22.5519 21.34C22.6991 21.4889 22.7858 21.6811 22.788 21.9056C22.788 22.1301 22.6991 22.3222 22.5519 22.4712C22.4023 22.618 22.2095 22.7043 21.9841 22.7066C21.7588 22.7066 21.5659 22.618 21.4165 22.4712Z" fill="#55607A"/>
</g>
</g>
<defs>
<clipPath id="clip0_0_23">
<rect width="114" height="44" fill="white"/>
</clipPath>
</defs>
</svg>
