<svg width="145" height="31" viewBox="0 0 145 31" fill="none" xmlns="http://www.w3.org/2000/svg">
<path d="M8.89475 4.64552C10.7045 4.64552 12.1767 6.11763 12.1767 7.92743C12.1767 9.7357 10.7042 11.2078 8.89475 11.2078C7.0861 11.2078 5.6136 9.7357 5.6136 7.92743C5.61322 6.11725 7.08648 4.64552 8.89475 4.64552ZM8.89475 15.8511C13.2663 15.8511 16.8214 12.2971 16.8214 7.92743C16.8214 3.55547 13.2667 0 8.89475 0C4.52355 0 0.968087 3.55585 0.968087 7.92743C0.968087 12.2971 4.52355 15.8511 8.89475 15.8511ZM12.1015 22.3166C13.7322 21.9452 15.2883 21.3009 16.7042 20.4108C17.7896 19.7279 18.1159 18.2944 17.433 17.209C17.1055 16.6872 16.5839 16.3171 15.9832 16.1801C15.3826 16.0432 14.7521 16.1507 14.2308 16.479C10.9834 18.5206 6.80382 18.5191 3.55909 16.479C3.03784 16.1506 2.40741 16.0431 1.80679 16.18C1.20616 16.317 0.684652 16.6871 0.357234 17.209C-0.32586 18.2941 -7.33533e-05 19.7275 1.08495 20.4108C2.5007 21.3006 4.05653 21.9449 5.68683 22.3166L1.25568 26.7485C0.669085 27.3353 0.440102 28.1905 0.654987 28.9919C0.869872 29.7933 1.49598 30.4192 2.29746 30.6338C3.09894 30.8484 3.95403 30.6191 4.54063 30.0323L8.89399 25.6782L13.25 30.0327C13.685 30.4683 14.2754 30.7131 14.891 30.7131C15.5066 30.7131 16.0969 30.4683 16.5319 30.0327C16.9682 29.5978 17.2134 29.007 17.2134 28.391C17.2134 27.7749 16.9682 27.1842 16.5319 26.7493L12.1015 22.3166ZM69.5266 15.1355C69.9292 14.9215 70.6736 14.2499 70.9259 13.3754L71.5254 11.0496C71.5368 11.0137 71.5304 10.9746 71.5083 10.9441C71.487 10.9138 71.4524 10.8956 71.4153 10.8952H69.8632C69.8117 10.8955 69.7666 10.9298 69.7527 10.9794C69.7527 10.9794 69.365 12.7987 69.1723 13.2878C68.9799 13.7768 68.4912 14.2196 68.2047 14.3956C68.0655 14.4828 67.9097 14.5401 67.7472 14.5641C67.5821 14.5891 67.4095 14.6013 67.2346 14.6013H65.7219V11.0136C65.7225 10.949 65.6711 10.896 65.6065 10.8948H64.0544C63.9897 10.8958 63.938 10.9489 63.9386 11.0136V20.659C63.9386 20.7246 63.9899 20.7773 64.0544 20.7773H65.6065C65.6375 20.7769 65.6671 20.7642 65.6887 20.742C65.7104 20.7198 65.7223 20.69 65.7219 20.659V16.1413H67.4414C67.7301 16.1413 69.3999 16.353 69.5483 17.5535L69.8859 20.6916C69.8993 20.742 69.9445 20.7775 69.9967 20.7785H71.5864C71.6235 20.7777 71.6581 20.7595 71.6798 20.7293C71.7014 20.6992 71.7076 20.6606 71.6965 20.6252C71.6965 20.6252 71.4066 18.5009 71.1695 17.0193C70.9323 15.5365 69.4985 15.1233 69.5266 15.1355ZM98.0956 18.1879C98.0738 18.1632 98.0427 18.1489 98.0098 18.1484C97.9666 18.1404 97.9461 18.1632 97.9241 18.1879C97.7059 18.4367 97.4255 18.6614 97.0913 18.8533C96.7667 19.043 96.3973 19.1424 96.0213 19.1413C95.1764 19.1413 94.5158 18.8697 94.056 18.3339C93.5919 17.7967 93.3567 16.9635 93.3567 15.8556C93.3567 14.7356 93.5912 13.8982 94.056 13.3674C94.515 12.8385 95.1756 12.5707 96.0213 12.5707C96.3704 12.5707 96.7164 12.656 97.0507 12.8226C97.3855 12.9864 97.6828 13.2179 97.9237 13.5025C97.9461 13.527 97.9774 13.5416 98.0106 13.5431C98.044 13.5432 98.0757 13.5286 98.0975 13.5033L99.1006 12.3362C99.1416 12.2883 99.1388 12.2168 99.0942 12.1723C98.6875 11.767 98.2171 11.4312 97.7017 11.1782C97.1816 10.9255 96.5916 10.7965 95.9492 10.7965C95.396 10.7965 94.8516 10.891 94.3307 11.0754C93.8017 11.2647 93.3217 11.5697 92.9257 11.9682C92.5186 12.3738 92.1881 12.9008 91.943 13.5355C91.6979 14.1691 91.5742 14.95 91.5742 15.8549C91.5742 16.748 91.6979 17.522 91.943 18.1541C92.1881 18.7907 92.5186 19.3181 92.9257 19.7237C93.321 20.1229 93.8012 20.4278 94.3307 20.6157C94.8516 20.8005 95.3964 20.8946 95.9492 20.8946C96.6064 20.8946 97.2024 20.7663 97.7207 20.5136C98.2403 20.2579 98.7119 19.9144 99.1147 19.4983C99.1586 19.4529 99.1604 19.3813 99.1188 19.3337L98.0978 18.1875L98.0956 18.1879ZM106.251 18.1879C106.229 18.1632 106.198 18.1489 106.166 18.1484C106.145 18.1423 106.101 18.1632 106.08 18.1882C105.867 18.4326 105.587 18.6553 105.249 18.853C104.924 19.0426 104.555 19.1419 104.179 19.1406C103.335 19.1406 102.674 18.8693 102.212 18.3335C101.747 17.7933 101.512 16.9601 101.512 15.8549C101.512 14.7379 101.747 13.9005 102.211 13.3667C102.673 12.8385 103.334 12.5699 104.179 12.5699C104.527 12.5699 104.873 12.6553 105.208 12.8218C105.542 12.9855 105.839 13.217 106.079 13.5017C106.101 13.5275 106.132 13.5424 106.166 13.5423C106.199 13.5423 106.231 13.5283 106.253 13.5025L107.257 12.3354C107.298 12.2875 107.295 12.2163 107.251 12.1715C106.844 11.7663 106.373 11.4305 105.858 11.1775C105.336 10.9248 104.746 10.7958 104.105 10.7958C103.552 10.7958 103.007 10.8903 102.485 11.0746C101.957 11.2644 101.477 11.5693 101.082 11.9674C100.674 12.373 100.343 12.9 100.099 13.5348C99.8541 14.171 99.7297 14.9519 99.7297 15.8541C99.7297 16.7442 99.8541 17.5178 100.099 18.1529C100.343 18.7896 100.673 19.3174 101.082 19.7226C101.477 20.1213 101.957 20.4263 102.485 20.6149C103.007 20.7993 103.552 20.8934 104.105 20.8934C104.761 20.8934 105.358 20.7652 105.876 20.5125C106.396 20.257 106.868 19.9135 107.27 19.4972C107.314 19.4517 107.316 19.3803 107.274 19.3329L106.252 18.1863V18.1879H106.251ZM88.5276 17.5265C88.5276 17.8665 88.4627 18.1438 88.3371 18.3491C88.2109 18.5571 88.0355 18.7309 87.8264 18.8552C87.5996 18.9885 87.3502 19.0789 87.0907 19.122C86.7997 19.1739 86.5155 19.1975 86.2215 19.1975C85.5575 19.1975 85.062 19.0688 84.7505 18.8154C84.4424 18.5646 84.2941 18.0012 84.2941 17.5808C84.2941 17.1631 84.4386 16.6148 84.7372 16.3906C85.0442 16.1603 85.4923 16.0434 86.0705 16.0434H88.5287V17.5262L88.5276 17.5265ZM90.3108 14.0265C90.3108 13.4031 90.2053 12.8742 89.9947 12.4565C89.7861 12.0387 89.4973 11.7026 89.1358 11.4597C88.7821 11.2188 88.3621 11.0466 87.8879 10.9449C87.4059 10.845 86.9148 10.7952 86.4226 10.7965C85.7715 10.7965 85.1546 10.9066 84.5878 11.1243C84.0167 11.3467 83.5436 11.6756 83.182 12.1017C83.1428 12.1482 83.1446 12.2167 83.1862 12.2611L84.1704 13.3299C84.1926 13.354 84.2241 13.3676 84.2569 13.3671C84.2901 13.3659 84.3212 13.3507 84.3426 13.3253C84.5456 13.081 84.8108 12.8863 85.1333 12.7463C85.4574 12.6037 85.9142 12.5316 86.4871 12.5316C87.2144 12.5316 87.7448 12.6549 88.0639 12.8973C88.3758 13.1345 88.5287 13.4911 88.5287 13.9885V14.4852H85.6926C85.1739 14.4852 84.716 14.5667 84.3343 14.7269C83.9481 14.887 83.6229 15.1059 83.3668 15.376C83.1101 15.6481 82.9115 15.9697 82.7833 16.3211C82.6528 16.674 82.586 17.2883 82.586 17.6787C82.586 18.5411 82.8884 19.4972 83.4848 20.0561C84.0774 20.6131 84.9341 20.8942 86.0325 20.8942C86.6866 20.8942 87.2546 20.7993 87.719 20.6149C88.0605 20.4795 88.3314 20.3095 88.5276 20.113L88.7252 20.659C88.7252 20.725 88.7768 20.7777 88.8406 20.7777H90.3946C90.4593 20.7767 90.511 20.7236 90.5104 20.659C90.5104 20.659 90.3127 20.0087 90.3127 19.1163L90.3108 14.0265ZM144.884 10.8948H143.574C143.536 10.8948 143.502 10.9134 143.48 10.9449L139.986 16.0024L138.792 17.7921V11.0136C138.793 10.949 138.742 10.896 138.677 10.8948H137.124C137.06 10.8963 137.009 10.9491 137.009 11.0136V20.659C137.008 20.7235 137.06 20.7763 137.124 20.7773H138.619C138.657 20.7775 138.693 20.7584 138.714 20.7265L143.18 14.0978V20.659C143.18 20.7246 143.232 20.7773 143.295 20.7773H144.884C144.948 20.7773 145 20.7242 145 20.659V11.0139C145 10.9492 144.949 10.8963 144.884 10.8948ZM133.552 15.1355C133.955 14.9215 134.699 14.2499 134.952 13.3754L135.551 11.0496C135.562 11.0137 135.556 10.9746 135.534 10.9441C135.513 10.9139 135.478 10.8957 135.441 10.8952H133.888C133.837 10.8956 133.792 10.93 133.778 10.9794C133.778 10.9794 133.39 12.7987 133.198 13.2878C133.005 13.7768 132.517 14.2196 132.23 14.3956C132.091 14.4829 131.935 14.5403 131.772 14.5641C131.607 14.5891 131.434 14.6013 131.259 14.6013H129.747V11.0136C129.747 10.9489 129.696 10.8958 129.631 10.8948H128.079C128.014 10.896 127.963 10.949 127.963 11.0136V20.659C127.963 20.7246 128.014 20.7773 128.079 20.7773H129.631C129.662 20.777 129.692 20.7644 129.714 20.7422C129.735 20.72 129.747 20.69 129.747 20.659V16.1413H131.466C131.755 16.1413 133.424 16.353 133.573 17.5535L133.911 20.6916C133.924 20.7422 133.969 20.7778 134.022 20.7785H135.611C135.648 20.7782 135.683 20.7601 135.704 20.7299C135.726 20.6995 135.732 20.6609 135.721 20.6252C135.721 20.6252 135.43 18.5009 135.193 17.0193C134.957 15.5365 133.524 15.1233 133.552 15.1355ZM125.998 10.8948H124.687C124.65 10.8947 124.614 10.9135 124.593 10.9449L121.1 16.0024L119.907 17.7944V11.0136C119.907 10.9491 119.856 10.8963 119.791 10.8948H118.239C118.175 10.8958 118.123 10.9489 118.124 11.0136V20.659C118.124 20.7246 118.176 20.7773 118.239 20.7773H119.734C119.772 20.7775 119.808 20.7584 119.829 20.7265L124.293 14.0989V20.659C124.293 20.7246 124.345 20.7773 124.409 20.7773H125.998C126.062 20.7773 126.114 20.7242 126.114 20.659V11.0139C126.114 10.9494 126.062 10.8965 125.998 10.8948ZM116.026 10.8948H114.474C114.41 10.8958 114.358 10.9489 114.359 11.0136V14.5622H110.237V11.0136C110.237 10.9489 110.186 10.8958 110.121 10.8948H108.568C108.504 10.8958 108.452 10.9489 108.453 11.0136V20.659C108.453 20.7246 108.504 20.7773 108.568 20.7773H110.121C110.152 20.777 110.182 20.7644 110.203 20.7422C110.225 20.72 110.237 20.69 110.237 20.659V16.0833H114.359V20.6597C114.359 20.7254 114.41 20.7781 114.474 20.7781H116.026C116.057 20.7777 116.087 20.765 116.108 20.7428C116.13 20.7206 116.142 20.6907 116.142 20.6597V11.0136C116.142 10.949 116.091 10.896 116.026 10.8948ZM60.769 17.0583C60.769 18.2467 59.7845 19.21 58.5704 19.21C57.3559 19.21 56.3709 18.2467 56.3709 17.0583V14.6665C56.3709 13.4782 57.3559 12.5149 58.5704 12.5149C59.7845 12.5149 60.769 13.4782 60.769 14.6665V17.0583ZM58.5776 10.8159C56.3842 10.8159 54.6055 12.5593 54.6055 14.709V16.9999C54.6055 19.1504 56.3842 20.8942 58.5776 20.8942C60.7713 20.8942 62.5496 19.1504 62.5496 16.9999V14.709C62.5496 12.5589 60.7717 10.8159 58.5776 10.8159ZM41.0985 19.1201H36.9135C37.1397 18.7001 37.2907 18.1856 37.3643 17.5907C37.4462 16.9259 37.5711 16.0768 37.6219 15.0645L37.8442 12.532H41.0992L41.0985 19.1201ZM43.787 19.1201H42.9181V11.0132C42.9187 10.9487 42.8673 10.8957 42.8028 10.8944H36.3725C36.3102 10.8956 36.2596 10.9452 36.2572 11.0075L35.9521 15.1082C35.9134 15.7296 35.8178 16.2604 35.7802 16.7006C35.7423 17.135 35.6831 17.5106 35.6042 17.8175C35.5241 18.1241 35.416 18.3722 35.273 18.5764C35.1337 18.7718 34.9679 18.9884 34.716 19.1072C34.4641 19.2255 33.7921 19.2775 33.7921 19.2775C33.7364 19.2881 33.6963 19.3373 33.6973 19.394V23.2837C33.6973 23.3494 33.7489 23.4021 33.813 23.4021H35.3659C35.4297 23.4021 35.4813 23.349 35.4813 23.2837V20.7777H42.1198V23.2837C42.1198 23.3494 42.1711 23.4021 42.2352 23.4021H43.7862C43.8509 23.4013 43.9027 23.3484 43.9023 23.2837V19.2384C43.9027 19.1738 43.8516 19.1209 43.787 19.1201ZM52.8872 10.8944H51.3342C51.2697 10.8957 51.2182 10.9487 51.2189 11.0132V14.5618H47.0973V11.0132C47.098 10.9487 47.0465 10.8957 46.982 10.8944H45.4294C45.3649 10.8957 45.3135 10.9487 45.3141 11.0132V20.6582C45.3141 20.7242 45.3653 20.7773 45.4294 20.7773H46.982C47.0467 20.7761 47.0982 20.7229 47.0973 20.6582V16.0833H51.2189V20.659C51.2189 20.725 51.2705 20.7777 51.3342 20.7777H52.8872C52.9509 20.7777 53.0025 20.7246 53.0025 20.659V11.0132C53.0031 10.9487 52.9517 10.8957 52.8872 10.8944ZM31.3646 17.058C31.3646 18.2463 30.3797 19.2096 29.1656 19.2096C27.9511 19.2096 26.9661 18.2463 26.9661 17.058V14.6662C26.9661 13.4778 27.9511 12.5145 29.1656 12.5145C30.3797 12.5145 31.3646 13.4778 31.3646 14.6662V17.058ZM29.1732 10.8155C26.9794 10.8155 25.2011 12.5589 25.2011 14.7086V16.9992C25.2011 19.1504 26.9794 20.8934 29.1732 20.8934C31.3669 20.8934 33.1452 19.1504 33.1452 16.9992V14.7086C33.1452 12.5585 31.3669 10.8155 29.1732 10.8155ZM81.2155 10.894H74.9234C74.8587 10.8951 74.807 10.9481 74.8077 11.0128C74.8077 11.0128 74.838 15.4796 74.4836 17.3767C74.3425 18.1363 74.2704 18.2429 74.1148 18.5066C73.9638 18.7649 73.7665 18.9558 73.5287 19.0734C73.2653 19.2058 72.9671 19.3348 72.642 19.4585C72.5838 19.4818 72.5531 19.5458 72.5714 19.6057L72.9865 20.9481C73.002 20.9982 73.0472 21.0304 73.0965 21.0304L73.1178 21.0285C73.6201 20.9367 74.0735 20.7838 74.465 20.5797C74.8653 20.371 75.2083 20.0546 75.4838 19.6361C75.7547 19.2267 75.9664 18.6796 76.1151 18.0118C76.2631 17.3478 76.3651 16.4547 76.4243 15.5062L76.5545 12.532H79.5124V20.6586C79.5124 20.7242 79.5636 20.777 79.6281 20.777H81.2171C81.2481 20.7766 81.2776 20.7639 81.2992 20.7417C81.3209 20.7195 81.3328 20.6896 81.3324 20.6586V11.0128C81.333 10.9483 81.2816 10.8953 81.2171 10.894H81.2155Z" fill="#55607A"/>
</svg>
