<svg width="174" height="20" viewBox="0 0 174 20" fill="none" xmlns="http://www.w3.org/2000/svg">
<mask id="mask0_9434_9797" style="mask-type:luminance" maskUnits="userSpaceOnUse" x="0" y="0" width="174" height="20">
<path d="M173.103 0H0V20H173.103V0Z" fill="white"/>
</mask>
<g mask="url(#mask0_9434_9797)">
<path d="M39.0174 13.0931H40.4834L39.6495 16.5731H37.4439L37.8204 14.8669H28.9844V4.86688H31.2035V13.08H36.8118V4.87997H39.0309V13.0931H39.0174ZM46.1457 4.62688C47.8402 4.62688 49.1043 5.10688 49.8981 6.05308C50.5705 6.86688 50.9202 8.05308 50.9202 9.58687V10.48H43.2135C43.1867 11.3331 43.4018 12.04 43.8591 12.5731C44.3567 13.1731 45.1099 13.4669 46.1188 13.4669C46.9526 13.4669 47.6112 13.2931 48.0415 12.96C48.4319 12.6669 48.674 12.2131 48.7816 11.6131V11.5731H50.8395L50.8257 11.6269C50.6643 12.68 50.2478 13.4931 49.5884 14.08C48.8084 14.7731 47.6519 15.1331 46.1857 15.1331C44.3971 15.1331 43.0522 14.6669 42.2049 13.7469C41.4383 12.92 41.0482 11.7069 41.0482 10.1469V9.62688C41.0482 8.05309 41.4383 6.83997 42.2183 6.01307C43.0522 5.09307 44.3702 4.62688 46.1457 4.62688ZM46.1319 6.19997C45.1502 6.19997 44.3836 6.50687 43.8726 7.10687C43.4422 7.59997 43.227 8.23997 43.227 9.01308V9.03998H48.8753V9.01308C48.8753 8.11998 48.674 7.42688 48.2567 6.95998C47.8264 6.45309 47.1002 6.19997 46.1319 6.19997ZM60.334 9.07996H54.6319V4.87997H52.4126V14.88H54.6319V10.88H60.334V14.88H62.5533V4.87997H60.334V9.07996ZM63.8443 6.58687H67.3278V14.8669H69.5333V6.58687H73.0036V4.87997H63.8443V6.58687ZM82.5657 5.41308C83.1843 5.85308 83.6553 6.49309 83.9643 7.31998C84.2202 8.01309 84.3409 8.81308 84.3409 9.66687V10.3069C84.3409 11.68 83.9912 12.8131 83.3057 13.6669C82.5119 14.64 81.3416 15.1331 79.8222 15.1331C78.9885 15.1331 78.2622 14.9469 77.6705 14.5869C77.1995 14.2931 76.796 13.8931 76.4864 13.36V17.68H74.2678V4.87997H76.4864V6.47997C76.796 5.94687 77.1995 5.50688 77.6836 5.19998C78.2891 4.81308 79.0154 4.62688 79.8491 4.62688C80.925 4.62688 81.8395 4.89308 82.5657 5.41308ZM82.1084 9.49309C82.1084 8.59999 81.9064 7.86687 81.5298 7.33308C81.0595 6.67997 80.3195 6.34687 79.3381 6.34687C78.2891 6.34687 77.5222 6.67997 77.0512 7.35997C76.6747 7.90687 76.4733 8.70687 76.4733 9.74687V10.2C76.4733 12.3731 77.4009 13.4269 79.3112 13.4269C80.2657 13.4269 80.9919 13.1331 81.4629 12.5469C81.8795 12.0269 82.0947 11.3069 82.0947 10.3869V9.49309H82.1084ZM90.5409 4.62688C92.316 4.62688 93.6609 5.09307 94.5085 6.01307C95.2754 6.83997 95.6519 8.03998 95.6519 9.57309V10.16C95.6519 11.7069 95.2616 12.8931 94.5085 13.72C93.6478 14.64 92.316 15.1069 90.5278 15.1069C88.7519 15.1069 87.4071 14.64 86.5602 13.72C85.7933 12.8931 85.4167 11.6931 85.4167 10.16V9.57309C85.4167 8.03998 85.8071 6.83997 86.5602 6.01307C87.4209 5.09307 88.7526 4.62688 90.5409 4.62688ZM87.6491 10.32C87.6491 11.2131 87.8643 11.9331 88.2816 12.4669C88.7657 13.0931 89.5326 13.4131 90.5409 13.4131C91.5498 13.4131 92.316 13.1069 92.8002 12.4931C93.2174 11.9731 93.4326 11.24 93.4326 10.32V9.43997C93.4326 8.57307 93.2305 7.86687 92.8409 7.33308C92.3567 6.67997 91.5767 6.35996 90.5409 6.35996C89.4919 6.35996 88.7257 6.67997 88.2547 7.33308C87.8512 7.86687 87.6629 8.58687 87.6629 9.45308V10.32H87.6491ZM113.108 5.39997C113.714 5.79997 114.171 6.37307 114.453 7.10687C114.682 7.69307 114.803 8.39997 114.803 9.17307V10.7869C114.803 12.0531 114.48 13.08 113.835 13.8269C113.068 14.7331 111.871 15.1869 110.284 15.1869C109.451 15.1869 108.724 15.04 108.146 14.76C107.662 14.5331 107.258 14.2 106.962 13.7731V17.6131H104.743V13.7869C104.42 14.2131 104.031 14.5469 103.546 14.76C102.968 15.04 102.255 15.1731 101.422 15.1731C100.332 15.1731 99.4305 14.96 98.7181 14.5331C98.0726 14.1469 97.6016 13.6 97.3057 12.9069C97.0367 12.28 96.9022 11.56 96.9022 10.7731V9.18688C96.9022 8.43998 97.0236 7.74687 97.2657 7.11998C97.5478 6.39998 98.005 5.82687 98.6236 5.41308C99.3367 4.94687 100.265 4.70688 101.395 4.70688C102.202 4.70688 102.901 4.86688 103.493 5.17308C104.004 5.43998 104.434 5.82686 104.784 6.30686L105.429 3.65308H107.648L107.057 6.13308C107.366 5.73308 107.756 5.39998 108.226 5.14688C108.818 4.83998 109.531 4.67998 110.351 4.67998C111.482 4.69309 112.409 4.93307 113.108 5.39997ZM99.1347 10.7069C99.1347 11.5869 99.3498 12.2669 99.7533 12.72C100.197 13.2269 100.937 13.48 101.946 13.48C102.833 13.48 103.519 13.24 103.99 12.7731C104.474 12.3069 104.73 11.6 104.757 10.6669V9.67998C104.757 8.78688 104.542 8.02687 104.124 7.43997C103.64 6.75997 102.901 6.42687 101.933 6.42687C100.897 6.42687 100.144 6.71998 99.6995 7.30687C99.3367 7.78687 99.1485 8.47998 99.1485 9.37308V10.7069H99.1347ZM112.584 9.34688C112.584 8.45308 112.396 7.75997 112.033 7.27997C111.589 6.69308 110.835 6.39997 109.786 6.39997C108.818 6.39997 108.092 6.74687 107.595 7.41307C107.164 7.99997 106.949 8.75998 106.949 9.65308V10.6669C106.976 11.6 107.231 12.3069 107.715 12.7731C108.199 13.24 108.886 13.48 109.773 13.48C110.768 13.48 111.508 13.2269 111.966 12.72C112.369 12.28 112.584 11.6 112.584 10.7069V9.34688ZM118.435 12.24V4.93309H116.242V14.9331H118.65L124.244 7.69308V14.9331H126.437V4.93309H124.029L118.435 12.24ZM136.348 9.14687H130.646V4.94687H128.427V14.9469H130.646V10.9331H136.348V14.9331H138.568V4.93309H136.348V9.14687ZM148.144 5.38687C148.789 5.78687 149.259 6.33308 149.528 7.02687C149.744 7.58687 149.865 8.22687 149.865 8.95998V14.9331H147.646V13.32C147.538 13.52 147.404 13.72 147.242 13.9069C147.014 14.16 146.745 14.3731 146.449 14.56C145.763 14.9731 145.01 15.1869 144.203 15.1869C143.113 15.1869 142.226 15 141.567 14.64C141.015 14.3331 140.612 13.9069 140.357 13.36C140.155 12.9331 140.061 12.4669 140.061 11.9469C140.061 11.0269 140.33 10.3069 140.881 9.78688C141.567 9.13308 142.71 8.79998 144.297 8.79998C144.943 8.79998 145.628 8.87997 146.342 9.02686C146.812 9.13307 147.256 9.26686 147.646 9.41307V8.90688C147.646 8.10688 147.484 7.49308 147.162 7.09308C146.745 6.59998 146.046 6.34687 145.064 6.34687C144.108 6.34687 143.409 6.54688 142.966 6.93308C142.629 7.22688 142.414 7.66687 142.347 8.21308V8.25309H140.289V8.19999C140.343 7.63998 140.491 7.13308 140.706 6.70688C141.029 6.09308 141.499 5.62686 142.118 5.29307C142.898 4.87997 143.907 4.67998 145.131 4.67998C146.382 4.69309 147.391 4.93308 148.144 5.38687ZM147.646 10.9069C147.35 10.7731 146.933 10.64 146.382 10.5069C145.709 10.36 145.091 10.28 144.526 10.28C143.638 10.28 143.019 10.4669 142.656 10.84C142.401 11.0931 142.266 11.4269 142.266 11.8131C142.266 12.2269 142.414 12.5869 142.697 12.8669C143.1 13.28 143.786 13.48 144.728 13.48C145.386 13.48 145.965 13.3331 146.435 13.0269C146.799 12.8 147.095 12.4931 147.337 12.0931C147.498 11.8131 147.606 11.5469 147.633 11.2931V10.9069H147.646ZM159.642 9.14687H153.94V4.94687H151.708V14.9469H153.926V10.9331H159.629V14.9331H161.848V4.93309H159.642V9.14687ZM171.128 11.4531C170.98 12.1331 170.724 12.64 170.362 12.9331C169.931 13.2931 169.259 13.48 168.371 13.48C167.389 13.48 166.636 13.16 166.138 12.52C165.722 11.9731 165.506 11.2531 165.506 10.3731V9.49309C165.506 8.62688 165.708 7.91997 166.111 7.38687C166.582 6.73308 167.349 6.41309 168.371 6.41309C169.272 6.41309 169.944 6.61307 170.402 6.99997C170.738 7.29307 170.98 7.77307 171.128 8.42687L171.142 8.46688H173.105L173.092 8.41308C172.984 7.67998 172.782 7.05308 172.486 6.57308C172.137 5.97308 171.639 5.51997 171.02 5.21307C170.308 4.86686 169.42 4.69307 168.384 4.69307C166.622 4.69307 165.304 5.15997 164.444 6.06687C163.664 6.89308 163.274 8.09309 163.274 9.62688V10.2669C163.274 11.8 163.664 12.9869 164.444 13.8269C165.291 14.7469 166.609 15.2131 168.384 15.2131C169.917 15.2131 171.101 14.84 171.881 14.0931C172.527 13.4931 172.931 12.6131 173.092 11.48L173.105 11.4269L171.142 11.4131L171.128 11.4531Z" fill="#9FA7BC"/>
<path d="M20.1737 10C20.1737 15.52 15.6548 20 10.0868 20C4.5189 20 0 15.52 0 10C0 4.48 4.5189 0 10.0868 0C15.6548 0 20.1737 4.48 20.1737 10Z" fill="#9FA7BC"/>
</g>
</svg>
