<svg width="139" height="32" viewBox="0 0 139 32" fill="none" xmlns="http://www.w3.org/2000/svg">
<g clip-path="url(#clip0_9434_9845)">
<mask id="mask0_9434_9845" style="mask-type:luminance" maskUnits="userSpaceOnUse" x="0" y="0" width="139" height="32">
<path d="M138.811 0H0V32H138.811V0Z" fill="white"/>
</mask>
<g mask="url(#mask0_9434_9845)">
<path d="M18.3092 1.75957C20.7514 1.84133 32.2873 3.5489 35.7662 2.40429C34.6437 3.65986 29.212 3.8444 26.6481 4.0558C29.3326 4.10719 35.0751 3.33633 37.4326 3.40524C36.658 4.22282 31.4257 4.82435 29.6318 4.86054C32.0253 5.04039 38.9181 4.71338 39.993 4.41669C39.6556 5.4819 32.1076 5.97946 29.8115 5.86967C32.2004 6.15114 37.9359 5.73068 38.5029 5.72484C37.7967 6.95356 31.4176 6.79818 28.3249 6.50854C30.3994 6.78301 35.5146 6.8963 36.1141 6.92199C35.9738 7.55386 32.0786 7.80147 28.333 7.21168C26.8255 6.97808 25.115 6.56809 23.6064 6.16748C23.5786 6.21539 23.5507 6.2621 23.5217 6.30647C24.7718 7.25838 26.212 9.38525 26.6318 10.5637C25.616 9.44363 24.3578 8.4976 23.5751 7.91827C24.9921 9.19369 26.8046 11.1489 27.3125 13.3307C26.0172 11.9384 23.698 9.89098 22.3331 9.01851C23.9566 10.2939 27.1038 12.7385 28.4896 17.978C27.0203 15.9282 24.4309 11.7562 22.3609 10.6023C24.8159 12.4045 27.9654 18.0049 28.9708 24.9461C26.502 19.0444 22.129 12.2503 19.121 10.0954C23.1425 13.4965 29.1354 25.2358 26.8788 32.01C26.1367 24.3014 19.5338 16.052 15.3417 12.9254C14.8176 12.1452 14.53 9.19485 14.2412 9.33505C13.1802 9.85246 11.5741 12.9756 11.5544 13.0632C11.9394 14.1961 12.2931 16.3335 11.4663 17.2515C11.3503 16.0415 10.9491 14.9273 10.6951 14.2417C11.0244 15.6806 11.5973 18.7162 10.6429 19.7872C10.4702 18.2782 9.6468 16.0018 9.12382 14.9273C9.61087 16.4129 11.116 20.6445 9.51578 22.8928C9.49952 20.9505 8.61705 16.6839 7.72183 15.2017C8.53355 17.3368 10.0283 23.4418 7.73921 26.899C8.05813 22.7749 7.09562 17.7094 6.07517 15.1398C7.13969 19.0327 8.28888 26.8371 5.73541 31.4915C6.67119 27.2435 5.39911 17.7888 3.78374 13.3692C3.08796 11.4748 3.51123 11.6546 4.21164 10.4715C4.97813 9.17617 5.06743 8.36329 5.48723 7.03062C4.50968 7.10422 4.00407 6.84727 2.95229 6.8426C2.47336 7.37518 0.929899 7.24203 0.623758 8.17055C0.056702 8.04441 -0.24596 7.64848 0.236444 6.46184C0.642314 6.4525 0.830171 6.84493 1.26967 7.10305C1.61756 6.94534 2.25767 6.68022 2.63339 6.73397C2.22172 6.63118 1.65003 6.75265 1.28823 6.86595C0.940338 6.65336 0.737402 6.1021 0.28167 6.19667C0.322135 6.0154 0.415885 5.85055 0.550703 5.72368C0.858003 1.70818 10.2742 -0.252844 13.4423 0.043821C11.9092 0.454945 11.5393 0.956009 12.3313 0.874249C15.1933 0.575248 19.7332 0.502833 21.5817 1.64511C20.6911 1.51897 19.1754 1.61124 18.3092 1.75957Z" fill="#9FA7BC"/>
<path d="M18.3413 6.35018C18.3588 6.2883 21.0665 8.0601 22.0174 8.85547C21.4874 7.96899 18.4573 5.69379 18.4747 5.62023C19.6773 6.31282 20.1655 6.62002 21.6788 7.75295C20.819 6.6563 19.7924 5.70352 18.6371 4.92994C19.1496 4.9977 20.0379 5.52795 21.2636 6.60363C19.8419 5.37963 18.7438 1.67949 6.65234 2.11748C14.1215 3.87644 16.8234 4.83182 22.3305 10.2991C21.4016 8.70131 19.5914 7.47844 18.3413 6.35018Z" fill="white"/>
<path d="M22.1183 16.8468C21.3495 15.8061 17.7465 11.4087 16.8292 10.1169C17.7569 11.0408 19.6251 12.996 20.5261 13.9082C19.6947 12.5066 17.6398 10.4918 17.3348 9.18838L15.1211 7.28577C15.2835 8.85666 15.6197 10.7394 15.8633 11.5874C16.791 13.0006 21.186 17.1072 24.5837 22.5418C21.5466 16.8292 17.9611 13.2214 16.7144 11.1412C17.8439 12.2239 20.4624 15.2794 22.1183 16.8468Z" fill="white"/>
<path d="M26.3282 5.99276C25.2289 5.25577 23.6796 5.021 22.52 4.67877C22.5119 4.63441 24.8114 4.94861 25.6741 5.16816C25.0537 4.76405 22.3901 4.22445 22.3785 4.17306C23.2971 4.23732 24.2099 4.36928 25.1094 4.56785C24.2121 4.12844 23.2531 3.83064 22.266 3.68485C22.6139 3.5739 23.6575 3.75843 24.4832 3.96166C24.1168 3.63579 22.5942 2.31132 17.1602 2.80187C18.9379 3.32045 20.0418 4.01071 20.8095 4.67644C22.4017 4.79908 24.0669 5.2079 26.3282 5.99276Z" fill="white"/>
<path d="M4.21875 11.988C4.84719 13.9414 5.32939 15.9396 5.66133 17.9657C5.42941 15.9392 5.20559 14.4302 4.79045 12.1036C5.60217 10.8586 5.9431 10.2874 6.67832 8.98866C6.37389 10.086 5.98141 11.1567 5.50479 12.19C6.57047 10.9053 7.11551 10.0422 7.79504 8.56116C7.5482 9.86602 7.09026 11.1212 6.43945 12.2765C7.71504 10.8668 8.48502 9.55277 9.2666 7.56492C8.41891 7.43528 7.27901 7.17828 6.31884 7.16077C5.76105 8.70952 5.04208 10.4907 4.21875 11.988Z" fill="white"/>
<path d="M5.25196 3.56808C5.95038 3.38857 6.66722 3.29175 7.38796 3.27959C6.47652 2.9292 5.3192 2.56713 4.99449 2.52158C5.1499 2.29382 5.79349 1.86284 6.33386 1.78809C5.97788 1.70549 5.61179 1.67597 5.24729 1.7005L4.7672 1.96329C4.917 1.94648 5.06792 1.94297 5.21832 1.95278C4.96785 2.03103 4.37875 2.67926 4.32422 2.85328C4.7394 2.87781 5.79233 3.03665 6.0034 3.14761C5.70766 3.2247 5.32846 3.3777 5.25196 3.56808Z" fill="white"/>
<path d="M44.457 9.07275C44.457 5.84218 46.8038 3.44666 50.0116 3.44666C53.219 3.44666 55.5671 5.83751 55.5671 9.07275C55.5671 12.308 53.2203 14.714 50.0116 14.714C46.803 14.714 44.457 12.3045 44.457 9.07275ZM46.0804 9.07275C46.0804 12.0523 47.7548 14.1488 50.0082 14.1488C52.2611 14.1488 53.9507 12.0464 53.9507 9.07275C53.9507 6.09913 52.2763 4.01429 50.0082 4.01429C47.7396 4.01429 46.0804 6.09446 46.0804 9.07275Z" fill="#9FA7BC"/>
<path d="M57.3672 9.07275C57.3672 5.84218 59.7144 3.44666 62.9218 3.44666C66.1296 3.44666 68.4777 5.83751 68.4777 9.07275C68.4777 12.308 66.1304 14.714 62.9218 14.714C59.7131 14.714 57.3672 12.3045 57.3672 9.07275ZM58.991 9.07275C58.991 12.0523 60.6654 14.1488 62.9183 14.1488C65.1717 14.1488 66.8612 12.0464 66.8612 9.07275C66.8612 6.09913 65.1869 4.01429 62.9183 4.01429C60.6502 4.01429 58.9944 6.09446 58.9944 9.07275H58.991Z" fill="#9FA7BC"/>
<path d="M70.2773 9.07275C70.2773 5.84218 72.6246 3.44666 75.8319 3.44666C79.0393 3.44666 81.3878 5.83751 81.3878 9.07275C81.3878 12.308 79.0406 14.714 75.8319 14.714C72.6233 14.714 70.2773 12.3045 70.2773 9.07275ZM71.9007 9.07275C71.9007 12.0523 73.5755 14.1488 75.8285 14.1488C78.0814 14.1488 79.7714 12.0464 79.7714 9.07275C79.7714 6.09913 78.0966 4.01429 75.8285 4.01429C73.5604 4.01429 71.9042 6.09446 71.9042 9.07275H71.9007Z" fill="#9FA7BC"/>
<path d="M87.9922 14.5902V3.55762H89.5576V13.9747H95.5982V3.55762H97.1636V13.9747H98.9029V17.3011H97.7608L97.3063 14.5902H87.9922Z" fill="#9FA7BC"/>
<path d="M100.824 14.5902V3.55762H104.829C107.177 3.55762 108.569 4.56555 108.569 6.3C108.569 7.59176 107.788 8.47478 106.41 8.83682C108.15 9.13701 109.193 10.1613 109.193 11.6738C109.193 13.4865 107.723 14.5937 105.312 14.5937L100.824 14.5902ZM104.798 9.18371H102.388V13.9724H104.798C106.504 13.9724 107.581 13.1221 107.581 11.5932C107.581 10.0644 106.489 9.18371 104.798 9.18371ZM104.329 4.17197H102.388V8.56936H104.345C105.988 8.56936 107.036 7.82769 107.036 6.37827C107.036 4.9288 105.988 4.17197 104.329 4.17197Z" fill="#9FA7BC"/>
<path d="M115.268 3.44666C117.49 3.44666 119.195 4.4558 119.195 6.31517C119.195 7.57658 118.398 8.48996 117.02 8.83681C118.773 9.12066 119.822 10.1765 119.822 11.64C119.822 13.5788 117.975 14.714 115.362 14.714C112.873 14.714 111.293 13.6734 110.887 11.4507H112.451C112.702 13.1537 113.766 14.1464 115.425 14.1464C117.036 14.1464 118.208 13.212 118.208 11.6084C118.208 10.048 117.128 9.18138 115.425 9.18138H113.938V8.56702H114.97C116.676 8.56702 117.663 7.81018 117.663 6.32918C117.663 4.78397 116.619 4.01195 115.283 4.01195C113.734 4.01195 112.848 5.06311 112.686 6.75435H111.121C111.434 4.39271 113.109 3.44666 115.268 3.44666Z" fill="#9FA7BC"/>
<path d="M44.457 24.6534V20.6438H45.0252V24.4292H47.2203V20.6438H47.7885V24.4292H48.4194V25.638H48.0043L47.8395 24.6534H44.457Z" fill="#9FA7BC"/>
<path d="M50.2483 21.8643C50.9648 21.8643 51.5897 22.3046 51.6014 23.107V23.3406H49.4072C49.4236 24.0413 49.7994 24.5085 50.2933 24.5085C50.4827 24.501 50.6643 24.4291 50.8079 24.3043C50.9514 24.1796 51.0492 24.0095 51.0842 23.8218H51.6074C51.5166 24.3602 50.9194 24.6977 50.2712 24.6977C49.412 24.6977 48.8438 24.1079 48.8438 23.2892C48.8438 22.4704 49.4236 21.8643 50.2483 21.8643ZM50.2539 22.0593C49.8332 22.0593 49.4699 22.4716 49.412 23.1105H51.0842C51.0703 22.4996 50.6518 22.0593 50.2587 22.0593H50.2539Z" fill="#9FA7BC"/>
<path d="M54.9619 21.9039V24.6533H54.3937V23.3475H52.9719V24.6533H52.4023V21.9039H52.9719V23.1233H54.3937V21.9039H54.9619Z" fill="#9FA7BC"/>
<path d="M55.6133 22.127V21.9039H58.3964V22.127H57.2877V24.6533H56.7194V22.127H55.6133Z" fill="#9FA7BC"/>
<path d="M59.0469 26.0842V21.904H59.395L59.5109 22.3455C59.6134 22.1913 59.7535 22.0662 59.9178 21.9819C60.0821 21.8977 60.265 21.8572 60.4488 21.8643C61.2224 21.8643 61.7734 22.4939 61.7734 23.2904C61.7734 24.087 61.2168 24.692 60.4488 24.692C60.2867 24.6987 60.1254 24.6682 59.9766 24.6026C59.8278 24.537 59.696 24.4382 59.5909 24.3135V26.083L59.0469 26.0842ZM59.5814 23.2811C59.5814 24.0134 59.8832 24.4888 60.3714 24.4888C60.8596 24.4888 61.219 24.0134 61.219 23.2869C61.219 22.5604 60.8605 22.0722 60.3714 22.0722C59.8819 22.0722 59.5814 22.5453 59.5814 23.2787V23.2811Z" fill="#9FA7BC"/>
<path d="M64.0547 24.6533V21.9039H65.1972C65.9924 21.9039 66.2778 22.2309 66.2778 22.614C66.2778 22.9119 66.1178 23.1349 65.6979 23.2331C66.1874 23.3242 66.4261 23.5706 66.4261 23.9023C66.4261 24.3204 66.0171 24.6533 65.2214 24.6533H64.0547ZM65.2261 23.3475H64.6056V24.4081H65.2261C65.6123 24.4081 65.8964 24.2072 65.8964 23.8813C65.8964 23.5554 65.6132 23.3475 65.227 23.3475H65.2261ZM65.1972 22.1504H64.6056V23.1233H65.1972C65.5833 23.1233 65.7944 22.9236 65.7944 22.6315C65.7944 22.3396 65.5842 22.1504 65.198 22.1504H65.1972Z" fill="#9FA7BC"/>
<path d="M68.1713 24.5039C68.5588 24.5039 68.8312 24.2575 68.8312 23.9082C68.8312 23.559 68.5471 23.3476 68.1657 23.3476H67.7796V23.1234H68.1657C68.5527 23.1234 68.7629 22.9353 68.7629 22.6083C68.7629 22.2813 68.5307 22.0594 68.1597 22.0594C67.7886 22.0594 67.5521 22.293 67.4721 22.6434H66.9783C67.0686 22.1855 67.4777 21.8596 68.1657 21.8596C68.8533 21.8596 69.2403 22.203 69.2403 22.6211C69.2403 22.9248 69.0526 23.1479 68.6725 23.2285C69.1361 23.3196 69.3679 23.5789 69.3679 23.8977C69.3679 24.3567 68.8727 24.6885 68.1679 24.6885C67.4803 24.6885 67.0479 24.3673 66.9688 23.9036H67.4686C67.4881 24.0748 67.5716 24.2322 67.7022 24.3437C67.8327 24.4552 68.0005 24.5125 68.1713 24.5039Z" fill="#9FA7BC"/>
<path d="M70.1367 24.6533V21.9039H70.6876V22.9808H71.1828C71.9724 22.9808 72.3875 23.3312 72.3875 23.8171C72.3875 24.3029 71.9785 24.6533 71.1828 24.6533H70.1367ZM73.335 21.9039V24.6533H72.7668V21.9039H73.335ZM71.8461 23.8171C71.8461 23.4503 71.5668 23.2039 71.1806 23.2039H70.6855V24.4081H71.1806C71.5689 24.4081 71.8483 24.1826 71.8483 23.8171H71.8461Z" fill="#9FA7BC"/>
<path d="M74.6562 23.2787C74.6562 24.011 75.0367 24.5039 75.5319 24.5039C75.896 24.5039 76.2078 24.2703 76.2994 23.7646H76.7993C76.6973 24.3661 76.1455 24.699 75.5029 24.699C74.6726 24.699 74.0871 24.1092 74.0871 23.2845C74.0793 23.0973 74.1105 22.9105 74.1779 22.7359C74.2458 22.5613 74.3483 22.4026 74.4798 22.2698C74.6108 22.137 74.7682 22.033 74.9412 21.9642C75.1141 21.8954 75.2996 21.8634 75.4856 21.8701C76.1338 21.8701 76.6916 22.2205 76.7937 22.7975H76.2994C76.2078 22.3514 75.9007 22.0652 75.5262 22.0652C75.0367 22.0593 74.6562 22.5511 74.6562 23.2787Z" fill="#9FA7BC"/>
<path d="M79.3641 24.6533L78.3981 23.3475H78.136V24.6533H77.5898V21.9039H78.1408V23.1233H78.4188L79.3641 21.9039H79.7849L78.8469 23.0952L79.995 24.6533H79.3641Z" fill="#9FA7BC"/>
<path d="M81.6819 21.8701C82.4205 21.8701 82.8417 22.2205 82.8417 22.8664V24.6534H82.5005L82.3639 24.2808C82.1762 24.5436 81.8687 24.6931 81.4363 24.6931C80.8841 24.6931 80.4062 24.4525 80.4062 23.9141C80.4062 23.3301 80.9861 23.0965 81.7321 23.0965C81.9202 23.097 82.1083 23.1122 82.2942 23.142V22.8734C82.2942 22.3513 82.1074 22.071 81.675 22.071C81.3053 22.071 80.9978 22.2882 80.9978 22.7356H80.504C80.5048 22.1679 81.0104 21.8701 81.6819 21.8701ZM80.9364 23.9082C80.9364 24.2866 81.2378 24.4584 81.579 24.4584C82.0054 24.4584 82.2328 24.2002 82.2955 23.6735V23.3359C82.1563 23.3146 82.0153 23.3029 81.8744 23.3009C81.3343 23.3009 80.9364 23.4737 80.9364 23.9082Z" fill="#9FA7BC"/>
<path d="M86.3716 21.9039V24.6533H85.8026V23.3475H84.382V24.6533H83.8125V21.9039H84.382V23.1233H85.8026V21.9039H86.3716Z" fill="#9FA7BC"/>
<path d="M89.87 21.9039V24.6533H89.3022V22.5113L87.7943 24.6533H87.3398V21.9039H87.9094V24.0577L89.4168 21.9039H89.87Z" fill="#9FA7BC"/>
<path d="M91.7702 21.9039H92.9023V24.6533H92.3501V23.5075H91.8156L91.093 24.6533H90.5469L91.3413 23.4737C90.8578 23.3697 90.613 23.0777 90.613 22.7121C90.6109 22.2356 91.0053 21.9039 91.7702 21.9039ZM91.1454 22.7063C91.1454 23.0567 91.413 23.2903 91.7702 23.2903H92.3501V22.1562H91.7702C91.4156 22.1504 91.1475 22.3559 91.1475 22.7063H91.1454Z" fill="#9FA7BC"/>
<path d="M96.3745 24.5039C96.7606 24.5039 97.0344 24.2575 97.0344 23.9082C97.0344 23.559 96.7503 23.3476 96.3684 23.3476H95.9823V23.1234H96.3684C96.7546 23.1234 96.966 22.9353 96.966 22.6083C96.966 22.2813 96.7338 22.0594 96.3628 22.0594C95.9918 22.0594 95.7552 22.293 95.6752 22.6434H95.1801C95.2718 22.1855 95.6808 21.8596 96.3684 21.8596C97.0737 21.8596 97.4434 22.203 97.4434 22.6211C97.4434 22.9248 97.2558 23.1479 96.8744 23.2285C97.3379 23.3196 97.5701 23.5789 97.5701 23.8977C97.5701 24.3567 97.0759 24.6885 96.371 24.6885C95.6657 24.6885 95.2506 24.3673 95.1719 23.9036H95.6718C95.6912 24.0748 95.7747 24.2322 95.9053 24.3437C96.0359 24.4552 96.2037 24.5125 96.3745 24.5039Z" fill="#9FA7BC"/>
<path d="M99.4458 21.8701C100.184 21.8701 100.611 22.2205 100.611 22.8664V24.6534H100.27L100.133 24.2808C99.9457 24.5436 99.6383 24.6931 99.2058 24.6931C98.6536 24.6931 98.1758 24.4525 98.1758 23.9141C98.1758 23.3301 98.7557 23.0965 99.5016 23.0965C99.6897 23.0971 99.8778 23.1123 100.064 23.142V22.8734C100.064 22.3513 99.8761 22.071 99.4445 22.071C99.0748 22.071 98.7674 22.2882 98.7674 22.7356H98.2666C98.2666 22.1679 98.7743 21.8701 99.4458 21.8701ZM98.7003 23.9082C98.7003 24.2866 99.0017 24.4584 99.3425 24.4584C99.7693 24.4584 99.9968 24.2002 100.059 23.6735V23.3359C99.9198 23.3146 99.7792 23.3029 99.6383 23.3009C99.0934 23.3009 98.7003 23.4737 98.7003 23.9082Z" fill="#9FA7BC"/>
<path d="M101.262 25.5118V24.4291H101.678C101.825 24.2632 101.95 23.8451 102.007 23.2845L102.143 21.9039H104.082V24.4291H104.583V25.5118H104.185L104.031 24.6533H101.814L101.66 25.5118H101.262ZM102.399 23.2272C102.336 23.8801 102.246 24.2398 102.109 24.4291H103.513V22.127H102.501L102.399 23.2272Z" fill="#9FA7BC"/>
<path d="M105.052 23.2787C105.044 23.0914 105.075 22.9046 105.143 22.73C105.211 22.5554 105.313 22.3967 105.444 22.2639C105.576 22.1311 105.733 22.0271 105.906 21.9583C106.079 21.8895 106.264 21.8575 106.45 21.8643C106.637 21.8579 106.824 21.8903 106.997 21.9595C107.171 22.0286 107.329 22.133 107.461 22.2661C107.594 22.3993 107.697 22.5584 107.766 22.7336C107.835 22.9088 107.867 23.0963 107.86 23.2845C107.86 23.6597 107.713 24.0194 107.449 24.2847C107.186 24.5499 106.829 24.6989 106.456 24.6989C106.084 24.6989 105.726 24.5499 105.463 24.2847C105.2 24.0194 105.052 23.6597 105.052 23.2845V23.2787ZM105.614 23.2787C105.614 24.011 105.962 24.5039 106.456 24.5039C106.95 24.5039 107.292 24.011 107.292 23.2787C107.292 22.5464 106.944 22.0593 106.456 22.0593C105.968 22.0593 105.614 22.5452 105.614 23.2787Z" fill="#9FA7BC"/>
<path d="M110.365 24.6533V22.127H109.347L109.285 22.8278C109.143 24.31 108.944 24.6966 108.603 24.6966C108.46 24.6868 108.323 24.6325 108.211 24.5412L108.296 24.2154C108.366 24.2707 108.451 24.3044 108.54 24.3123C108.772 24.3123 108.91 24.0028 109.024 22.8406L109.114 21.9062H110.923V24.6533H110.365Z" fill="#9FA7BC"/>
<path d="M114.926 24.6533L114.056 23.3475H113.804V24.6533H113.253V23.3475H112.993L112.123 24.6533H111.492L112.664 23.0952L111.686 21.9039H112.106L112.977 23.1233H113.249V21.9039H113.804V23.1233H114.077L114.947 21.9039H115.368L114.39 23.0952L115.56 24.6533H114.926Z" fill="#9FA7BC"/>
<path d="M117.326 21.8643C118.043 21.8643 118.669 22.3046 118.68 23.107V23.3406H116.486C116.502 24.0413 116.878 24.5085 117.373 24.5085C117.562 24.501 117.743 24.4289 117.887 24.3042C118.03 24.1795 118.128 24.0094 118.163 23.8218H118.686C118.595 24.3602 117.998 24.6977 117.35 24.6977C116.491 24.6977 115.922 24.1079 115.922 23.2892C115.922 22.4704 116.502 21.8643 117.326 21.8643ZM117.332 22.0593C116.911 22.0593 116.548 22.4716 116.491 23.1105H118.163C118.151 22.4996 117.73 22.0593 117.332 22.0593Z" fill="#9FA7BC"/>
<path d="M122.036 21.9039V24.6533H121.468V23.3475H120.046V24.6533H119.484V21.9039H120.053V23.1233H121.474V21.9039H122.036Z" fill="#9FA7BC"/>
<path d="M125.562 21.9039V24.6533H124.993V23.3475H123.572V24.6533H123.004V21.9039H123.572V23.1233H124.993V21.9039H125.562Z" fill="#9FA7BC"/>
<path d="M126.314 23.2787C126.306 23.0914 126.337 22.9046 126.405 22.73C126.472 22.5554 126.575 22.3967 126.706 22.2639C126.838 22.1311 126.995 22.0271 127.168 21.9583C127.341 21.8895 127.526 21.8575 127.712 21.8643C127.899 21.8579 128.085 21.8903 128.259 21.9595C128.433 22.0286 128.591 22.133 128.723 22.2661C128.855 22.3993 128.959 22.5584 129.028 22.7336C129.096 22.9088 129.129 23.0963 129.122 23.2845C129.122 23.6597 128.974 24.0194 128.711 24.2847C128.448 24.5499 128.09 24.6989 127.718 24.6989C127.345 24.6989 126.988 24.5499 126.725 24.2847C126.461 24.0194 126.314 23.6597 126.314 23.2845V23.2787ZM126.876 23.2787C126.876 24.011 127.224 24.5039 127.718 24.5039C128.212 24.5039 128.554 24.011 128.554 23.2787C128.554 22.5464 128.206 22.0593 127.718 22.0593C127.229 22.0593 126.876 22.5452 126.876 23.2787Z" fill="#9FA7BC"/>
<path d="M130.226 23.2787C130.226 24.011 130.607 24.5039 131.101 24.5039C131.465 24.5039 131.778 24.2703 131.869 23.7646H132.37C132.267 24.3661 131.716 24.699 131.073 24.699C130.243 24.699 129.657 24.1092 129.657 23.2845C129.65 23.0973 129.681 22.9105 129.749 22.7359C129.816 22.5613 129.919 22.4026 130.05 22.2698C130.181 22.137 130.338 22.033 130.511 21.9642C130.685 21.8954 130.87 21.8634 131.056 21.8701C131.704 21.8701 132.262 22.2205 132.364 22.7975H131.869C131.778 22.3514 131.471 22.0652 131.095 22.0652C130.607 22.0593 130.226 22.5511 130.226 23.2787Z" fill="#9FA7BC"/>
<path d="M132.848 22.127V21.9039H135.631V22.127H134.522V24.6533H133.954V22.127H132.848Z" fill="#9FA7BC"/>
<path d="M138.813 21.9039V24.6533H138.243V22.5113L136.736 24.6533H136.281V21.9039H136.849V24.0577L138.357 21.9039H138.813Z" fill="#9FA7BC"/>
</g>
</g>
<defs>
<clipPath id="clip0_9434_9845">
<rect width="138.811" height="32" fill="white"/>
</clipPath>
</defs>
</svg>
