<svg width="125" height="25" viewBox="0 0 125 25" fill="none" xmlns="http://www.w3.org/2000/svg">
<path d="M38.1434 4.3269C40.2973 4.3269 42.0921 5.08225 43.528 6.59293C44.9789 8.10359 45.7043 9.96577 45.7043 12.1795C45.7043 14.3932 44.9789 16.2554 43.528 17.766C42.0921 19.2767 40.2973 20.032 38.1434 20.032H31.9062V4.3269H38.1434ZM38.1434 17.0705C39.5046 17.0705 40.6114 16.6218 41.4639 15.7243C42.3165 14.8119 42.7428 13.6304 42.7428 12.1795C42.7428 10.7286 42.3165 9.55447 41.4639 8.65703C40.6114 7.74464 39.5046 7.28844 38.1434 7.28844H35.0024V17.0705H38.1434ZM56.2916 8.81408H59.1858V20.032H56.2916V18.7083C55.4241 19.8002 54.2051 20.3461 52.6345 20.3461C51.1389 20.3461 49.8525 19.7778 48.7756 18.641C47.7136 17.4893 47.1826 16.0833 47.1826 14.4231C47.1826 12.7628 47.7136 11.3643 48.7756 10.2275C49.8525 9.07586 51.1389 8.49998 52.6345 8.49998C54.2051 8.49998 55.4241 9.0459 56.2916 10.1378V8.81408ZM50.9518 16.7115C51.5352 17.2949 52.2756 17.5865 53.173 17.5865C54.0704 17.5865 54.8108 17.2949 55.3941 16.7115C55.9925 16.1132 56.2916 15.3504 56.2916 14.4231C56.2916 13.4957 55.9925 12.7404 55.3941 12.157C54.8108 11.5587 54.0704 11.2596 53.173 11.2596C52.2756 11.2596 51.5352 11.5587 50.9518 12.157C50.3685 12.7404 50.0768 13.4957 50.0768 14.4231C50.0768 15.3504 50.3685 16.1132 50.9518 16.7115ZM68.227 11.5961H65.6917V16.2628C65.6917 16.6517 65.7889 16.9359 65.9834 17.1154C66.1778 17.2949 66.462 17.3996 66.836 17.4295C67.2099 17.4445 67.6736 17.4369 68.227 17.407V20.032C66.2377 20.2564 64.8316 20.0695 64.0091 19.4711C63.2014 18.8728 62.7975 17.8034 62.7975 16.2628V11.5961H60.8456V8.81408H62.7975V6.54806L65.6917 5.67306V8.81408H68.227V11.5961ZM78.4427 8.81408H81.3365V20.032H78.4427V18.7083C77.5752 19.8002 76.3562 20.3461 74.7857 20.3461C73.2899 20.3461 72.0036 19.7778 70.9267 18.641C69.8647 17.4893 69.3337 16.0833 69.3337 14.4231C69.3337 12.7628 69.8647 11.3643 70.9267 10.2275C72.0036 9.07586 73.2899 8.49998 74.7857 8.49998C76.3562 8.49998 77.5752 9.0459 78.4427 10.1378V8.81408ZM73.103 16.7115C73.6863 17.2949 74.4267 17.5865 75.3241 17.5865C76.2216 17.5865 76.9619 17.2949 77.5453 16.7115C78.1435 16.1132 78.4427 15.3504 78.4427 14.4231C78.4427 13.4957 78.1435 12.7404 77.5453 12.157C76.9619 11.5587 76.2216 11.2596 75.3241 11.2596C74.4267 11.2596 73.6863 11.5587 73.103 12.157C72.5196 12.7404 72.228 13.4957 72.228 14.4231C72.228 15.3504 72.5196 16.1132 73.103 16.7115ZM92.4647 4.3269H95.359V20.032H92.4647V18.7083C91.6122 19.8002 90.4006 20.3461 88.8301 20.3461C87.3189 20.3461 86.0256 19.7778 84.9487 18.641C83.8862 17.4893 83.3558 16.0833 83.3558 14.4231C83.3558 12.7628 83.8862 11.3643 84.9487 10.2275C86.0256 9.07586 87.3189 8.49998 88.8301 8.49998C90.4006 8.49998 91.6122 9.0459 92.4647 10.1378V4.3269ZM87.125 16.7115C87.7228 17.2949 88.4712 17.5865 89.3686 17.5865C90.266 17.5865 91.0064 17.2949 91.5897 16.7115C92.1731 16.1132 92.4647 15.3504 92.4647 14.4231C92.4647 13.4957 92.1731 12.7404 91.5897 12.157C91.0064 11.5587 90.266 11.2596 89.3686 11.2596C88.4712 11.2596 87.7228 11.5587 87.125 12.157C86.5417 12.7404 86.25 13.4957 86.25 14.4231C86.25 15.3504 86.5417 16.1132 87.125 16.7115ZM100.451 15.6122C100.84 17.0182 101.894 17.7211 103.615 17.7211C104.721 17.7211 105.559 17.3472 106.127 16.5993L108.461 17.9455C107.354 19.5459 105.724 20.3461 103.57 20.3461C101.715 20.3461 100.227 19.7852 99.105 18.6634C97.9832 17.5416 97.4223 16.1282 97.4223 14.4231C97.4223 12.7329 97.976 11.3269 99.0825 10.2051C100.189 9.06833 101.611 8.49998 103.345 8.49998C104.99 8.49998 106.345 9.06833 107.406 10.2051C108.483 11.3419 109.022 12.7478 109.022 14.4231C109.022 14.797 108.984 15.1933 108.909 15.6122H100.451ZM100.406 13.3686H106.127C105.963 12.6058 105.619 12.0374 105.095 11.6634C104.587 11.2895 104.003 11.1025 103.345 11.1025C102.567 11.1025 101.925 11.3045 101.416 11.7083C100.907 12.0972 100.571 12.6506 100.406 13.3686ZM117.986 8.81408H121.171L116.909 20.032H113.611L109.348 8.81408H112.534L115.248 16.6666L117.986 8.81408Z" fill="#9FA7BC"/>
<path opacity="0.6" d="M8.01232 23.2372C11.9951 23.2372 15.2239 20.0084 15.2239 16.0256C15.2239 12.0428 11.9951 8.81409 8.01232 8.81409C4.0295 8.81409 0.800781 12.0428 0.800781 16.0256C0.800781 20.0084 4.0295 23.2372 8.01232 23.2372Z" fill="#9FA7BC"/>
<path opacity="0.6" d="M7.21154 16.8269C11.1944 16.8269 14.4231 13.5982 14.4231 9.61535C14.4231 5.63252 11.1944 2.40381 7.21154 2.40381C3.22872 2.40381 0 5.63252 0 9.61535C0 13.5982 3.22872 16.8269 7.21154 16.8269Z" fill="#9FA7BC"/>
<path opacity="0.6" d="M13.6217 20.0321C17.6045 20.0321 20.8332 16.8034 20.8332 12.8205C20.8332 8.83772 17.6045 5.60901 13.6217 5.60901C9.63887 5.60901 6.41016 8.83772 6.41016 12.8205C6.41016 16.8034 9.63887 20.0321 13.6217 20.0321Z" fill="#9FA7BC"/>
</svg>
