<svg width="111" height="32" viewBox="0 0 111 32" fill="none" xmlns="http://www.w3.org/2000/svg">
<g clip-path="url(#clip0_9434_9934)">
<path d="M7.82607 6.78271H0V32H25.1594V24.1739H7.82607V6.78271Z" fill="#9FA7BC"/>
<path d="M15.7952 16.2025V6.78271H7.82422V24.1739H25.1576V16.2025H15.7952Z" fill="white"/>
<path d="M25.1593 6.78271H15.7969V16.203H25.1593V6.78271Z" fill="#9FA7BC"/>
<path fill-rule="evenodd" clip-rule="evenodd" d="M15.7969 2.24634V4.40571H27.5506V16.2029H29.7243V2.24634H15.7969Z" fill="#9FA7BC"/>
<path d="M40.4755 2.23218C42.3184 2.23218 43.287 3.18849 43.287 4.46425C43.287 5.74001 42.3144 6.69632 40.4755 6.69632H38.4328V9.02975H37.5625V2.23218H40.4755ZM40.4755 3.00009H38.4328V5.91305H40.4765C41.7809 5.91305 42.4183 5.27517 42.4183 4.44941C42.4178 3.63798 41.7799 3.00009 40.4755 3.00009Z" fill="#9FA7BC"/>
<path d="M44.6496 5.62324C44.6693 4.97403 44.8799 4.345 45.2549 3.81472C45.63 3.28444 46.153 2.87642 46.7586 2.64159C47.3642 2.40675 48.0255 2.35553 48.66 2.49431C49.2945 2.63308 49.8741 2.95572 50.3263 3.42191C50.7786 3.88811 51.0835 4.47721 51.2029 5.11564C51.3224 5.75408 51.2511 6.41357 50.998 7.01174C50.7449 7.60991 50.3212 8.12026 49.7797 8.47906C49.2383 8.83786 48.6032 9.0292 47.9537 9.0292C47.5116 9.02758 47.0743 8.93762 46.6675 8.7646C46.2607 8.59159 45.8926 8.33901 45.5847 8.0217C45.2769 7.70439 45.0356 7.32876 44.875 6.91687C44.7144 6.50499 44.6378 6.06517 44.6496 5.62324ZM50.4468 5.62324C50.4115 5.1408 50.236 4.67917 49.9421 4.29499C49.6481 3.9108 49.2485 3.62076 48.7921 3.46045C48.3357 3.30013 47.8424 3.27651 47.3728 3.39248C46.9032 3.50845 46.4776 3.75898 46.1483 4.11332C45.819 4.46766 45.6002 4.91041 45.5189 5.38726C45.4376 5.86412 45.4972 6.35434 45.6905 6.79779C45.8838 7.24125 46.2023 7.61864 46.6069 7.8837C47.0116 8.14876 47.4848 8.28995 47.9685 8.28995C48.3088 8.28544 48.6447 8.21195 48.9557 8.07392C49.2668 7.93588 49.5466 7.73619 49.7783 7.4869C50.01 7.23762 50.1887 6.94392 50.3036 6.62359C50.4185 6.30326 50.4672 5.96295 50.4468 5.62324Z" fill="#9FA7BC"/>
<path d="M57.8809 2.55046C58.0811 2.63307 58.2702 2.7402 58.444 2.8694L58.0816 3.46376C57.9367 3.37673 57.7626 3.2897 57.5891 3.20267C57.2051 3.03589 56.7903 2.95198 56.3717 2.95643C55.6735 2.97011 55.0085 3.25707 54.5195 3.75569C54.0306 4.2543 53.7567 4.92479 53.7567 5.62314C53.7567 6.32148 54.0306 6.99197 54.5195 7.49058C55.0085 7.9892 55.6735 8.27617 56.3717 8.28985C56.8193 8.28879 57.2608 8.18473 57.6618 7.98575C57.8345 7.90428 57.9996 7.80731 58.1548 7.696L58.5172 8.29035C58.3431 8.43917 58.1478 8.56132 57.9377 8.65281C57.4451 8.89116 56.9051 9.01507 56.3579 9.01527C55.9071 9.0208 55.4597 8.93678 55.0417 8.76811C54.6237 8.59944 54.2432 8.34946 53.9225 8.03266C53.6018 7.71587 53.3472 7.33855 53.1734 6.92261C52.9996 6.50666 52.9102 6.06036 52.9102 5.60957C52.9102 5.15878 52.9996 4.71247 53.1734 4.29653C53.3472 3.88058 53.6018 3.50327 53.9225 3.18648C54.2432 2.86968 54.6237 2.61969 55.0417 2.45102C55.4597 2.28235 55.9071 2.19834 56.3579 2.20387C56.8827 2.2234 57.3993 2.34095 57.8809 2.55046Z" fill="#9FA7BC"/>
<path d="M64.7368 2.55046C64.937 2.63307 65.1262 2.7402 65.3 2.8694L64.9375 3.46376C64.7927 3.37673 64.6186 3.2897 64.4445 3.20267C64.0606 3.03589 63.6457 2.95198 63.2271 2.95643C62.5289 2.97011 61.8639 3.25707 61.375 3.75569C60.8861 4.2543 60.6122 4.92479 60.6122 5.62314C60.6122 6.32148 60.8861 6.99197 61.375 7.49058C61.8639 7.9892 62.5289 8.27617 63.2271 8.28985C63.6748 8.28879 64.1162 8.18473 64.5172 7.98575C64.69 7.90427 64.855 7.80729 65.0102 7.696L65.3727 8.29035C65.1985 8.43917 65.0032 8.56132 64.7932 8.65281C64.3006 8.89114 63.7605 9.01505 63.2133 9.01527C62.7626 9.0208 62.3152 8.93678 61.8972 8.76811C61.4791 8.59944 61.0987 8.34946 60.778 8.03266C60.4573 7.71587 60.2027 7.33855 60.0289 6.92261C59.8551 6.50666 59.7656 6.06036 59.7656 5.60957C59.7656 5.15878 59.8551 4.71247 60.0289 4.29653C60.2027 3.88058 60.4573 3.50327 60.778 3.18648C61.0987 2.86968 61.4791 2.61969 61.8972 2.45102C62.3152 2.28235 62.7626 2.19834 63.2133 2.20387C63.7384 2.22333 64.2551 2.34088 64.7368 2.55046Z" fill="#9FA7BC"/>
<path d="M67.9987 7.60856L72.1291 2.21729H72.9994V9.01435H72.1291V3.62307H72.0856L67.9562 9.01435H67.0859V2.21729H67.9562V7.60856H67.9987Z" fill="#9FA7BC"/>
<path d="M76.0292 7.60849L80.1596 2.21722H81.0299V9.01429H80.1596V3.62302H80.1017L75.9719 9.01429H75.1016V2.21722H75.9719V7.60849H76.0292ZM76.4203 0H77.1447C77.1447 0.246025 77.2425 0.481976 77.4164 0.655942C77.5904 0.829908 77.8263 0.927638 78.0724 0.927638C78.3184 0.927638 78.5543 0.829908 78.7283 0.655942C78.9023 0.481976 79 0.246025 79 0H79.7244C79.7168 0.433179 79.5394 0.84604 79.2303 1.14968C78.9213 1.45333 78.5054 1.62347 78.0721 1.62347C77.6389 1.62347 77.223 1.45333 76.9139 1.14968C76.6049 0.84604 76.4279 0.433179 76.4203 0Z" fill="#9FA7BC"/>
<path d="M87.8384 2.55046C88.0386 2.63307 88.2278 2.7402 88.4016 2.8694L88.0391 3.46376C87.8943 3.37673 87.7202 3.2897 87.5461 3.20267C87.1622 3.03589 86.7473 2.95198 86.3287 2.95643C85.6305 2.97011 84.9655 3.25707 84.4766 3.75569C83.9877 4.2543 83.7137 4.92479 83.7137 5.62314C83.7137 6.32148 83.9877 6.99197 84.4766 7.49058C84.9655 7.9892 85.6305 8.27617 86.3287 8.28985C86.7764 8.28879 87.2178 8.18473 87.6188 7.98575C87.7916 7.90427 87.9566 7.80729 88.1118 7.696L88.4743 8.29035C88.3001 8.43917 88.1048 8.56132 87.8947 8.65281C87.4022 8.89114 86.8621 9.01505 86.3149 9.01527C85.8641 9.0208 85.4168 8.93678 84.9987 8.76811C84.5807 8.59944 84.2003 8.34946 83.8796 8.03266C83.5589 7.71587 83.3043 7.33855 83.1305 6.92261C82.9567 6.50666 82.8672 6.06036 82.8672 5.60957C82.8672 5.15878 82.9567 4.71247 83.1305 4.29653C83.3043 3.88058 83.5589 3.50327 83.8796 3.18648C84.2003 2.86968 84.5807 2.61969 84.9987 2.45102C85.4168 2.28235 85.8641 2.19834 86.3149 2.20387C86.8399 2.22333 87.3567 2.34088 87.8384 2.55046Z" fill="#9FA7BC"/>
<path d="M103.781 9.02924H102.853L102.172 7.47857H98.3322L97.6508 9.02924H96.7227L99.6791 2.23218H100.795L103.781 9.02924ZM98.6936 6.69581H101.838L100.288 3.14497H100.244L98.6936 6.69581Z" fill="#9FA7BC"/>
<path d="M110.577 2.23218V9.02924H109.707V6.50741H107.272L105.429 9.02924H104.418L106.36 6.36254V6.31902C106.094 6.23879 105.848 6.10575 105.635 5.9279C105.397 5.74873 105.206 5.51356 105.079 5.24313C104.953 4.9727 104.895 4.67533 104.91 4.37722C104.91 3.17415 105.838 2.24703 107.635 2.24703H110.577V2.23218ZM107.621 5.72516H109.708V3.00009H107.621C106.374 3.00009 105.778 3.57961 105.778 4.36237C105.778 5.14513 106.36 5.72516 107.621 5.72516Z" fill="#9FA7BC"/>
<path d="M37.5625 13.7104H40.5768C42.3737 13.7104 43.1565 14.4932 43.1565 15.5534C43.1615 15.764 43.1137 15.9724 43.0175 16.1598C42.9212 16.3471 42.7797 16.5074 42.6057 16.626C42.4341 16.7443 42.2437 16.8326 42.0425 16.8871V16.9306C42.3269 16.99 42.6005 17.0926 42.8539 17.2347C43.0976 17.3602 43.3013 17.5514 43.4422 17.7866C43.583 18.0218 43.6554 18.2916 43.651 18.5657C43.651 19.5804 42.7234 20.5075 40.97 20.5075H37.5789V13.7104H37.5625ZM40.5625 16.4785C41.3452 16.4785 41.722 16.0874 41.722 15.6522C41.722 15.2171 41.3309 14.826 40.5625 14.826H38.9104V16.478L40.5625 16.4785ZM38.9104 17.5946V19.3915H40.9541C41.8382 19.3915 42.215 19.0147 42.215 18.5212C42.215 17.9703 41.8382 17.5935 40.9541 17.5935L38.9104 17.5946Z" fill="#9FA7BC"/>
<path d="M46.1133 13.7104H51.5481V14.8265H47.4756V16.5799H50.2872V17.6959H47.4756V19.393H51.6494V20.509H46.1133V13.7104Z" fill="#9FA7BC"/>
<path d="M60.116 13.7104V20.5075H58.7537V17.6959H55.2607V20.5075H53.8984V13.7104H55.2607V16.5799H58.7537V13.7104H60.116Z" fill="#9FA7BC"/>
<path d="M62.6055 13.7104H63.9678V15.6522C63.9658 15.8564 64.0045 16.059 64.0817 16.248C64.159 16.437 64.2731 16.6088 64.4175 16.7532C64.5619 16.8976 64.7336 17.0117 64.9227 17.0889C65.1117 17.1662 65.3142 17.2049 65.5184 17.2029C65.8901 17.2012 66.2601 17.1525 66.6196 17.058C66.7788 17.0145 66.9237 16.9557 67.0691 16.9132V13.7104H68.4314V20.5075H67.0691V18.0727C66.9385 18.1162 66.7793 18.1751 66.6196 18.2176C66.2306 18.3123 65.8318 18.361 65.4314 18.3625C65.0625 18.3903 64.6919 18.3395 64.3441 18.2136C63.9962 18.0877 63.679 17.8895 63.4133 17.6321C63.1476 17.3746 62.9396 17.0638 62.8028 16.72C62.666 16.3763 62.6036 16.0075 62.6198 15.6379V13.7104H62.6055Z" fill="#9FA7BC"/>
<path d="M73.433 18.6522H72.8535L70.4766 13.6956H71.9837L73.8267 17.6232H73.9291L75.7721 13.6956H77.2793L74.0766 20.4926H72.5694L73.433 18.6522Z" fill="#9FA7BC"/>
<path d="M82.3462 13.7104C84.2449 13.7104 85.2591 14.7251 85.2591 16.0439C85.2591 17.3483 84.2444 18.3773 82.3462 18.3773H80.5928V20.5075H79.2305V13.7104H82.3462ZM80.5928 14.8265V17.2613H82.3462C83.2738 17.2613 83.8533 16.6818 83.8533 16.0439C83.8533 15.406 83.2738 14.8265 82.3462 14.8265H80.5928Z" fill="#9FA7BC"/>
<path d="M93.6199 13.7104V20.5075H92.2576V17.6959H88.7646V20.5075H87.4023V13.7104H88.7646V16.5799H92.2576V13.7104H93.6199Z" fill="#9FA7BC"/>
<path d="M102.872 20.5075H101.422L100.886 19.1452H97.5387L97.0026 20.5075H95.5508L98.3624 13.7104H100.056L102.872 20.5075ZM98.0163 17.9713H100.393L99.2337 15.1598H99.1902L98.0163 17.9713Z" fill="#9FA7BC"/>
<path d="M110.577 13.7104V20.5075H109.215V18.1741H107.316L105.664 20.5075H104.113L105.956 17.9278V17.8843C105.707 17.7972 105.476 17.6645 105.275 17.4932C105.05 17.3041 104.872 17.066 104.754 16.7971C104.636 16.5283 104.581 16.2359 104.594 15.9425C104.594 14.6381 105.522 13.7104 107.406 13.7104H110.577ZM107.432 17.058H109.229V14.826H107.432C106.505 14.826 106.026 15.319 106.026 15.942C106.012 16.4785 106.505 17.058 107.432 17.058Z" fill="#9FA7BC"/>
<path d="M46.0402 28.5947C46.06 27.9455 46.2705 27.3165 46.6455 26.7862C47.0206 26.256 47.5435 25.8479 48.1491 25.6131C48.7546 25.3782 49.4159 25.327 50.0505 25.4657C50.685 25.6044 51.2645 25.927 51.7168 26.3932C52.1691 26.8593 52.474 27.4484 52.5935 28.0868C52.713 28.7252 52.6418 29.3846 52.3888 29.9828C52.1358 30.581 51.7121 31.0914 51.1708 31.4502C50.6294 31.8091 49.9943 32.0005 49.3448 32.0006C48.9027 31.9991 48.4654 31.9092 48.0585 31.7362C47.6516 31.5632 47.2834 31.3106 46.9755 30.9933C46.6677 30.676 46.4263 30.3004 46.2657 29.8884C46.1051 29.4765 46.0284 29.0366 46.0402 28.5947ZM51.8252 28.5947C51.7898 28.1122 51.6144 27.6506 51.3205 27.2664C51.0265 26.8822 50.6268 26.5922 50.1704 26.4319C49.714 26.2716 49.2208 26.248 48.7511 26.3639C48.2815 26.4799 47.8559 26.7304 47.5266 27.0848C47.1973 27.4391 46.9786 27.8818 46.8973 28.3587C46.816 28.8356 46.8756 29.3258 47.0688 29.7692C47.2621 30.2127 47.5806 30.5901 47.9853 30.8551C48.3899 31.1202 48.8631 31.2614 49.3469 31.2614C49.6872 31.2569 50.023 31.1834 50.3341 31.0454C50.6451 30.9073 50.925 30.7076 51.1566 30.4583C51.3883 30.2091 51.567 29.9154 51.6819 29.595C51.7968 29.2747 51.8456 28.9344 51.8252 28.5947Z" fill="#9FA7BC"/>
<path d="M59.2746 30.9737L57.1444 26.5971H57.1009L56.464 31.9858H55.5938L56.42 25.1887H57.3927L59.6683 29.8986H59.7118L61.9874 25.1887H62.9601L63.7864 31.9858H62.9161L62.2782 26.5945H62.2347L60.0988 30.9737H59.2746Z" fill="#9FA7BC"/>
<path d="M73.1434 25.1887V31.9858H72.2731V25.9715H68.1008V31.9858H67.2305V25.1887H73.1434Z" fill="#9FA7BC"/>
<path d="M83.3316 31.9858H82.404L81.7226 30.4351H77.883L77.2016 31.9858H76.2734L79.2299 25.1887H80.3459L83.3316 31.9858ZM78.2301 29.6523H81.3893L79.8243 26.1164H79.7808L78.2301 29.6523Z" fill="#9FA7BC"/>
<path d="M92.1004 25.1887V31.9858H91.2301V29.0283H87.0578V31.9848H86.1875V25.1887H87.0578V28.2465H91.2317V25.1887H92.1004Z" fill="#9FA7BC"/>
<path d="M96.5925 30.58L100.723 25.1887H101.593V31.9858H100.723V26.5945H100.679L96.55 31.9858H95.6797V25.1887H96.55V30.58H96.5925Z" fill="#9FA7BC"/>
<path d="M110.577 25.1887V31.9858H109.707V29.4639H107.272L105.429 31.9858H104.418L106.36 29.3191V29.2756C106.094 29.1953 105.848 29.0623 105.635 28.8844C105.397 28.7053 105.206 28.4701 105.079 28.1997C104.953 27.9292 104.895 27.6319 104.91 27.3338C104.91 26.1307 105.838 25.2036 107.635 25.2036H110.577V25.1887ZM107.621 28.6817H109.708V25.9715H107.621C106.374 25.9715 105.778 26.551 105.778 27.3338C105.78 28.1017 106.36 28.6817 107.621 28.6817Z" fill="#9FA7BC"/>
<path d="M92.9413 5.00025L95.9556 9.02924H94.8831L92.3034 5.57977L90.8977 6.98557V9.02924H90.0273V2.23218H90.8977V5.87004H90.9412L94.6359 2.23218H95.7519L92.9413 5.00025Z" fill="#9FA7BC"/>
<path d="M40.4765 27.9568L43.4908 31.9858H42.4183L39.8386 28.5363L38.4328 29.9421V31.9858H37.5625V25.1887H38.4328V28.8266H38.4763L42.171 25.1887H43.287L40.4765 27.9568Z" fill="#9FA7BC"/>
</g>
<defs>
<clipPath id="clip0_9434_9934">
<rect width="110.58" height="32" fill="white"/>
</clipPath>
</defs>
</svg>
