<svg width="120" height="32" viewBox="0 0 120 32" fill="none" xmlns="http://www.w3.org/2000/svg">
<g clip-path="url(#clip0_9434_9816)">
<mask id="mask0_9434_9816" style="mask-type:luminance" maskUnits="userSpaceOnUse" x="0" y="0" width="120" height="32">
<path d="M120 0H0V32H120V0Z" fill="white"/>
</mask>
<g mask="url(#mask0_9434_9816)">
<path d="M50.51 11.9648C48.9337 11.9648 47.7547 12.5481 47.1715 13.5129H47.0454V12.2612H44.1641V25.519H47.0454V21.3162H47.1715C47.7516 22.281 48.9337 22.8643 50.51 22.8643C53.4669 22.8643 55.8123 20.4492 55.8123 17.413C55.8123 14.3799 53.4669 11.9648 50.51 11.9648ZM49.9268 20.2411C48.319 20.2411 47.0454 18.9894 47.0454 17.413C47.0454 15.8208 48.319 14.5849 49.9268 14.5849C51.5818 14.5849 52.8396 15.8208 52.8396 17.413C52.8396 19.0052 51.566 20.2411 49.9268 20.2411Z" fill="#9FA7BC"/>
<path d="M114.954 12.7432C113.306 12.7432 112.016 13.3675 111.231 14.4521H111.102C111.316 12.491 112.426 11.5388 114.816 11.1983L118.999 10.593V7.94141L114.538 8.57513C110.418 9.14895 108.441 11.3307 108.441 15.2624C108.441 18.1062 108.624 19.0048 109.132 20.0799C109.929 21.8045 111.906 22.8639 114.295 22.8639C117.514 22.8639 119.998 20.5812 119.998 17.5923C119.995 14.7169 117.943 12.7432 114.954 12.7432ZM114.264 20.2281C112.625 20.2281 111.414 19.1088 111.414 17.5923C111.414 16.06 112.609 14.9408 114.264 14.9408C115.887 14.9408 117.085 16.06 117.085 17.5923C117.085 19.1088 115.872 20.2281 114.264 20.2281Z" fill="#9FA7BC"/>
<path d="M41.1443 9.14768L37.9004 15.6867L33.4807 9.14768H30.0352L36.4503 18.6126L36.2738 18.972C35.9964 19.5458 35.6307 19.8548 34.7859 19.8548H32.5161V22.5789H35.1074C37.084 22.5789 37.8815 22.0776 38.7075 20.4286L44.3787 9.14453H41.1443V9.14768Z" fill="#9FA7BC"/>
<path d="M72.4593 12.2734L71.9675 18.6801C71.8918 19.6827 71.5545 20.0484 70.757 20.0484H70.0508V22.6558H71.7689C73.7013 22.6558 74.5588 21.773 74.6975 19.9317L75.0758 14.9534H78.6191V22.5675H81.5319V12.2734H72.4593Z" fill="#9FA7BC"/>
<path d="M89.041 14.6152C90.22 14.6152 91.1563 15.2773 91.6008 16.1633L94.1763 15.1922C93.4576 13.2342 91.4179 11.9668 88.9811 11.9668C85.7152 11.9668 83.25 14.322 83.25 17.4181C83.25 20.5111 85.7184 22.8694 88.9811 22.8694C91.4179 22.8694 93.4576 21.6019 94.1763 19.644L91.6008 18.6729C91.1563 19.5557 90.22 20.221 89.041 20.221C87.4018 20.221 86.2196 19.0576 86.2196 17.4212C86.2196 15.7786 87.4018 14.6152 89.041 14.6152Z" fill="#9FA7BC"/>
<path d="M103.273 12.2578L98.7993 18.8032V12.2578H95.918V22.5677H99.1051L103.55 16.0696V22.5677H106.432V12.2578H103.273Z" fill="#9FA7BC"/>
<path d="M65.7082 13.509H65.5822C65.0021 12.5442 63.82 11.9609 62.2437 11.9609C59.2868 11.9609 56.9414 14.376 56.9414 17.4122C56.9414 20.4453 59.2868 22.8635 62.2437 22.8635C63.82 22.8635 64.999 22.2803 65.5822 21.3155H65.7082V22.5672H68.5896V12.2573H65.7082V13.509ZM62.8301 20.2403C61.1908 20.2403 59.9173 19.0044 59.9173 17.4122C59.9173 15.82 61.1751 14.5841 62.8301 14.5841C64.4378 14.5841 65.7114 15.82 65.7114 17.4122C65.7083 18.9887 64.4378 20.2403 62.8301 20.2403Z" fill="#9FA7BC"/>
<path d="M21.9141 16.1633C21.9141 12.4303 19.8807 9.14814 16.826 7.2785L16.8671 9.8134C18.6828 11.3741 19.8335 13.6441 19.8335 16.1633C19.8335 17.3141 19.5875 18.4113 19.1556 19.4139C17.8411 18.1653 16.9048 16.6961 16.3216 14.962C15.6186 12.8622 15.4548 10.5638 15.4296 7.75458L15.4327 6.54703C14.8022 6.27589 14.1434 6.06149 13.4688 5.91016L13.4719 7.75143C13.5381 17.4496 15.2183 21.4475 17.7181 24.4521C20.2747 22.5226 21.9141 19.5274 21.9141 16.1633C21.9141 16.1664 21.9141 16.1664 21.9141 16.1633Z" fill="#9FA7BC"/>
<path d="M8.44533 7.75338L8.44848 5.91211C7.77387 6.06345 7.11501 6.27784 6.48453 6.54899L6.48768 7.75653C6.45931 10.5626 6.29853 12.8642 5.59554 14.964C5.0155 16.698 4.07608 18.1641 2.76152 19.4158C2.32964 18.4132 2.08375 17.316 2.08375 16.1652C2.08375 13.6429 3.23123 11.376 5.05018 9.81535L5.09116 7.28045C2.03331 9.14694 0 12.4291 0 16.1621V16.1652C0 19.5293 1.64241 22.5245 4.19587 24.4541C6.70204 21.4526 8.37913 17.4516 8.44533 7.75338Z" fill="#9FA7BC"/>
<path d="M11.9405 4.04099C11.5843 4.01261 11.2628 4 10.9601 4C10.6575 4 10.3359 4.01261 9.97657 4.04099V6.21961C9.97657 15.7665 9.60773 19.9156 8.17969 26.3601C9.98918 26.8173 11.9122 26.8173 13.7248 26.3632C12.3062 19.9661 11.9405 15.8169 11.9405 6.21961V4.04099Z" fill="#9FA7BC"/>
</g>
</g>
<defs>
<clipPath id="clip0_9434_9816">
<rect width="120" height="32" fill="white"/>
</clipPath>
</defs>
</svg>
