<svg width="329" height="62" viewBox="0 0 329 62" fill="none" xmlns="http://www.w3.org/2000/svg">
<path d="M0.247285 55.6177L24.7332 49.381C29.1947 48.2447 33.9294 49.0835 37.729 51.6833L46.9276 57.9775C54.0122 62.8252 63.6592 61.2242 68.7982 54.348L76.6352 43.8616C81.3036 37.615 89.793 35.6394 96.7397 39.1832L117.269 49.6559C125.75 53.9822 136.11 49.9982 139.506 41.1042L152.056 8.24266C156.121 -2.39923 171.61 -0.959623 173.644 10.249L175.739 21.7982C177.224 29.9871 188.598 30.9119 191.387 23.0705V23.0705C193.933 15.9143 204.031 15.853 206.663 22.9778L209.006 29.3212C211.913 37.1908 222.387 38.7048 227.404 31.9804L233.005 24.4727C238.302 17.3721 248.429 16.075 255.345 21.6113L261.435 26.4868C266.413 30.4717 273.281 31.1237 278.92 28.1469L328.533 1.95524" stroke="url(#paint0_linear_9163_3017)" stroke-width="2"/>
<defs>
<linearGradient id="paint0_linear_9163_3017" x1="0.247285" y1="39.8199" x2="328.533" y2="39.8199" gradientUnits="userSpaceOnUse">
<stop stop-color="white"/>
<stop offset="0.269231" stop-color="#00CB82"/>
<stop offset="0.692308" stop-color="#00CB82"/>
<stop offset="1" stop-color="white"/>
</linearGradient>
</defs>
</svg>
