<svg width="170" height="28" viewBox="0 0 170 28" fill="none" xmlns="http://www.w3.org/2000/svg">
<path d="M38.2261 18.2448H36.587V16.9612C34.6913 16.8295 33.1971 16.2898 32.1044 15.3419C31.0117 14.394 30.4653 13.1697 30.4653 11.6689C30.4653 10.1812 31.0117 8.96348 32.1044 8.01561C33.1971 7.06773 34.6913 6.52797 36.587 6.39632V5.07324H38.2261V6.39632C40.1087 6.52797 41.6029 7.07431 42.7087 8.03535C43.8146 8.98323 44.3675 10.1944 44.3675 11.6689C44.3675 13.1697 43.8146 14.394 42.7087 15.3419C41.616 16.2898 40.1218 16.8295 38.2261 16.9612V18.2448ZM41.4844 14.2755C42.2743 13.591 42.6692 12.7221 42.6692 11.6689C42.6692 10.6157 42.2743 9.7468 41.4844 9.06222C40.6945 8.37764 39.6084 7.97611 38.2261 7.85763V15.4801C39.6084 15.3616 40.6945 14.9601 41.4844 14.2755ZM33.3287 9.06222C32.552 9.7468 32.1636 10.6157 32.1636 11.6689C32.1636 12.7221 32.552 13.591 33.3287 14.2755C34.1186 14.9601 35.2047 15.3616 36.587 15.4801V7.85763C35.2047 7.97611 34.1186 8.37764 33.3287 9.06222Z" fill="#55607A"/>
<path d="M53.5792 18.2448H51.9994V5.07324H53.6385V15.3616L61.2215 5.07324H62.9V18.2448H61.261V7.73914L53.5792 18.2448Z" fill="#55607A"/>
<path d="M82.0514 18.2448H80.4124V12.2021H72.7109V18.2448H71.0719V5.07324H72.7109V10.7407H80.4124V5.07324H82.0514V18.2448Z" fill="#55607A"/>
<path d="M100.214 18.2448H98.1797L93.1836 12.3205L91.8605 13.8213V18.2448H90.2215V5.07324H91.8605V11.8861L97.686 5.07324H99.7397L94.2499 11.3332L100.214 18.2448Z" fill="#55607A"/>
<path d="M118.448 18.2448H116.572L115.407 15.3221H108.851L107.686 18.2448H105.81L111.102 5.07324H113.136L118.448 18.2448ZM114.914 13.8608L112.129 6.77152L109.325 13.8608H114.914Z" fill="#55607A"/>
<path d="M126.901 18.2448H125.262V5.07324H130.554C131.831 5.07324 132.838 5.45503 133.575 6.21859C134.312 6.98216 134.681 7.92345 134.681 9.04247C134.681 10.1615 134.306 11.1028 133.555 11.8664C132.818 12.6299 131.818 13.0117 130.554 13.0117H126.901V18.2448ZM130.356 11.5504C131.133 11.5504 131.765 11.32 132.252 10.8592C132.739 10.3853 132.983 9.77971 132.983 9.04247C132.983 8.30524 132.739 7.70623 132.252 7.24546C131.765 6.77152 131.133 6.53455 130.356 6.53455H126.901V11.5504H130.356Z" fill="#55607A"/>
<path d="M146.84 18.2448H145.201V6.53455H141.034V5.07324H151.026V6.53455H146.84V18.2448Z" fill="#55607A"/>
<path d="M169.572 18.2448H167.696L166.531 15.3221H159.975L158.809 18.2448H156.933L162.226 5.07324H164.26L169.572 18.2448ZM166.037 13.8608L163.253 6.77152L160.448 13.8608H166.037Z" fill="#55607A"/>
<path fill-rule="evenodd" clip-rule="evenodd" d="M14.1151 0L0 13.9211L14.1151 28L19.0637 23.1789L14.1151 18.5451L19.0637 13.9211L14.1151 9.42142L19.0637 4.49331L14.1151 0Z" fill="#55607A"/>
</svg>
