<svg width="112" height="32" viewBox="0 0 112 32" fill="none" xmlns="http://www.w3.org/2000/svg">
<path d="M17.7379 8.15216L29.1152 20.5149H21.4109L17.7379 8.15216Z" fill="#55607A"/>
<path d="M29.1154 20.515L7.25657 31.0861L21.4111 20.515H29.1154Z" fill="#9FA7BC"/>
<path d="M17.7378 8.15216L21.4108 20.5149H12.1835L17.7378 8.15216Z" fill="#55607A"/>
<path d="M21.4111 20.515L7.25657 31.0861L12.1838 20.515H21.4111Z" fill="#9FA7BC"/>
<path d="M17.7381 8.15216L12.1838 20.5149L7.25657 12.2104L17.7381 8.15216Z" fill="#55607A"/>
<path d="M17.7379 8.15227L7.25642 12.2105L0 0L17.7379 8.15227Z" fill="#55607A"/>
<path d="M7.25657 12.2104L12.1838 20.515L7.25657 31.0861V12.2104Z" fill="#9FA7BC"/>
<path d="M7.25642 12.2105V31.0861L0 0L7.25642 12.2105Z" fill="#9FA7BC"/>
<path d="M34.1502 12.9451V28.3628H44.3987V25.7558H37.1692V12.9451H34.1502ZM84.9361 14.1187C83.879 13.0437 81.5408 12.981 81.5408 12.981H73.1646V28.3269H81.3169C81.3169 28.3269 83.7626 28.3896 84.9899 27.1354C86.2351 25.8723 86.5487 24.5106 86.5487 21.8589V18.1411C86.5487 18.1411 86.6293 15.6327 84.9361 14.1187ZM83.6282 22.7726C83.6282 24.215 82.9204 25.8454 80.7704 25.8454L76.1568 25.8633V15.5073H80.7435C82.7682 15.5073 83.6282 16.6092 83.6282 18.7503V22.7726ZM69.1153 28.3359H72.1075L66.9026 12.972H62.5398L57.4692 28.3359H60.5241L64.7973 15.1848L69.1153 28.3359ZM97.2272 17.3348H100.112V16.2598C100.112 13.9574 98.4725 12.7032 96.4478 12.7032L91.7088 12.6674C89.711 12.6674 88.0895 14.1814 88.0895 16.1792L88.1074 18.2217C88.1164 19.888 89.4154 21.2676 91.0817 21.3841L96.2597 21.7424C96.9316 21.7872 97.4602 22.3516 97.4602 23.0324V24.4658C97.4602 25.1914 97.0033 25.8723 96.0447 25.8723L92.2732 25.8633C91.6192 25.8633 90.9383 25.1646 90.9383 24.5106L90.9294 23.2474H88.0447V24.5106C88.0447 26.9742 89.6752 28.2821 91.7446 28.2821H96.1791C99.3325 28.2821 100.408 26.6606 100.408 24.6898V22.5308C100.408 20.7122 99.0458 19.4311 97.2183 19.3774L92.3359 19.0011C91.9417 19.0011 91.0817 18.6428 91.0817 17.5588L91.0638 16.645C91.0638 15.5968 91.7446 15.0773 92.7928 15.0773H95.767C96.5733 15.0773 97.2183 15.6685 97.2183 16.4658V17.3348H97.2272ZM106.589 14.1187H107.494V13.7783C107.494 13.0616 106.983 12.6674 106.347 12.6674L104.869 12.6584C104.242 12.6584 103.74 13.1333 103.74 13.7603L103.749 14.3964C103.749 14.916 104.161 15.355 104.681 15.3908L106.302 15.5073C106.517 15.5252 106.678 15.6954 106.678 15.9104V16.3583C106.678 16.5823 106.535 16.7973 106.24 16.7973H105.057C104.851 16.7973 104.636 16.5733 104.636 16.3762V15.9821H103.713V16.3762C103.713 17.1467 104.224 17.5588 104.869 17.5588H106.257C107.243 17.5588 107.583 17.0481 107.583 16.43V15.7402C107.583 15.1668 107.153 14.7727 106.589 14.7547L105.057 14.6383C104.932 14.6383 104.663 14.5308 104.663 14.1814L104.654 13.8947C104.654 13.5633 104.869 13.402 105.191 13.402H106.123C106.374 13.402 106.58 13.5901 106.58 13.841V14.1187H106.589ZM111.077 12.6584V16.3494C111.077 16.5733 110.934 16.7883 110.638 16.7883H109.456C109.25 16.7883 109.035 16.5644 109.035 16.3673V12.6584H108.13V16.3673C108.13 17.1377 108.64 17.5498 109.285 17.5498H110.674C111.659 17.5498 112 17.0392 112 16.421V12.6584H111.077ZM48.8511 25.9081V21.5812H54.3696V19.4221H48.8511V15.4177H56.4121V12.972H45.8858V28.3359H56.4659V25.9081H48.8511Z" fill="#55607A"/>
<path d="M62.4856 25.6214H67.0813L66.3915 23.4534H63.1754L62.4856 25.6214Z" fill="#55607A"/>
<path d="M103.4 17.2723C103.4 17.4246 103.274 17.541 103.131 17.541H102.799C102.647 17.541 102.531 17.4156 102.531 17.2723V16.9498C102.531 16.7975 102.656 16.681 102.799 16.681H103.131C103.283 16.681 103.4 16.8064 103.4 16.9498V17.2723Z" fill="#55607A"/>
</svg>
