<svg width="80" height="39" viewBox="0 0 80 39" fill="none" xmlns="http://www.w3.org/2000/svg">
<path d="M7.71625 1.72882C8.29636 1.15225 8.86231 0.560651 9.45657 0C10.0782 0.573031 10.6884 1.15933 11.3118 1.7297C10.6858 2.29655 10.0791 2.88461 9.45834 3.45764C8.86143 2.89876 8.29813 2.3045 7.71625 1.72882Z" fill="#55607A"/>
<path d="M5.9222 4.46597C6.92678 4.20156 7.96407 4.09456 8.99871 4.03177C9.00225 7.33466 8.99959 10.6375 8.99959 13.9404C7.8836 13.9466 6.7676 13.9484 5.65161 13.9413C5.27489 13.951 4.95919 13.6583 4.8239 13.3258C4.01387 11.4228 3.2348 9.50652 2.41062 7.60968C2.19573 7.76178 1.9782 7.91211 1.75535 8.0536C2.51055 10.0336 3.37009 11.9746 4.15271 13.944C3.56995 13.9387 2.98631 13.9608 2.40443 13.9289C1.8031 11.7474 0.859547 9.68427 0 7.5973C1.68991 6.10459 3.72382 4.99036 5.9222 4.46597ZM3.92544 6.92346C4.67091 8.71595 5.37217 10.5288 6.1256 12.3177C6.35109 12.8103 6.95242 12.66 7.38396 12.6591C7.3707 10.3988 7.38308 8.1385 7.37777 5.87821C6.19369 6.10194 5.02817 6.43797 3.92544 6.92346Z" fill="#55607A"/>
<path d="M9.91034 4.02982C11.3544 4.10941 12.7994 4.32695 14.1665 4.81243C15.9165 5.39342 17.5074 6.38385 18.9002 7.58297C18.1406 9.7504 17.182 11.8409 16.2597 13.9429C15.7583 13.9456 15.2577 13.9456 14.7563 13.9429C15.4275 12.3069 16.104 10.6736 16.7761 9.03765C16.9114 8.71311 17.0547 8.39034 17.1572 8.0543C16.9362 7.9022 16.7115 7.75541 16.479 7.62188C15.7034 9.51164 14.8978 11.389 14.1126 13.2744C13.9781 13.6272 13.6607 13.9517 13.2601 13.9411C12.1432 13.9509 11.0263 13.942 9.90945 13.9438C9.91564 10.6391 9.91034 7.33448 9.91034 4.02982ZM11.5286 5.88068C11.5348 8.14273 11.5383 10.4057 11.5295 12.6686C11.8293 12.666 12.1326 12.6969 12.4297 12.6483C12.7746 12.5139 12.8763 12.131 13.0001 11.8206C13.5873 10.3668 14.1718 8.91208 14.7634 7.46093C14.8138 7.27876 14.9668 7.08952 14.9244 6.90293C13.8437 6.41745 12.6924 6.09733 11.5286 5.88068Z" fill="#55607A"/>
<path d="M19.4796 8.0738C20.7238 6.99936 22.457 6.71816 24.0505 6.82339C25.1816 6.941 26.4037 7.16738 27.2447 7.99952C27.9565 8.66805 28.1237 9.73806 27.9388 10.6613C27.7814 11.466 27.2438 12.1761 26.5178 12.5546C27.1898 12.9366 27.854 13.4407 28.1113 14.2029C28.3872 15.0987 28.1865 16.0909 27.7461 16.901C27.1704 17.9436 26.0765 18.5997 24.9419 18.8694C23.7623 19.1418 22.5216 19.0065 21.3782 18.6404C20.5611 18.3698 19.7793 17.9683 19.1311 17.397C19.3849 17.0336 19.6078 16.6507 19.8501 16.2802C19.9765 16.0803 20.164 15.8928 20.4143 15.8769C20.8352 15.8115 21.1916 16.0812 21.5453 16.2616C22.4278 16.7427 23.4811 16.9602 24.4715 16.7356C24.9428 16.6348 25.3629 16.2881 25.4884 15.8141C25.6202 15.3278 25.66 14.7485 25.3478 14.3205C25.0047 13.8457 24.3963 13.6741 23.8419 13.6184C23.1556 13.5777 22.4685 13.6175 21.7832 13.5954C21.7973 12.9039 21.7779 12.2115 21.792 11.5208C22.5455 11.5067 23.3042 11.5677 24.0532 11.4598C24.4865 11.4041 24.9331 11.1795 25.1312 10.7718C25.3354 10.2536 25.2806 9.53733 24.7721 9.21367C24.1805 8.83165 23.4324 8.83696 22.7612 8.94661C22.1519 9.05184 21.6249 9.38788 21.0625 9.62133C20.7618 9.7531 20.3833 9.6514 20.2082 9.36842C19.9429 8.95015 19.7342 8.49915 19.4796 8.0738Z" fill="#55607A"/>
<path d="M32.5869 10.2049C33.8259 10.0298 35.1806 10.2146 36.2011 10.9822C37.0598 11.6154 37.5965 12.6173 37.7478 13.6643C37.9175 14.8546 37.7557 16.1368 37.0907 17.1591C36.5274 18.0434 35.5989 18.6642 34.5793 18.8888C33.3359 19.1576 31.9732 19.0082 30.8749 18.3432C29.8933 17.7392 29.2328 16.6869 29.0311 15.5603C28.8499 14.523 28.9171 13.4105 29.3902 12.4564C29.9685 11.2157 31.2437 10.3765 32.5869 10.2049ZM32.7505 12.2247C32.4154 12.3467 32.1404 12.6111 31.9945 12.9348C31.6973 13.5467 31.7106 14.2444 31.6867 14.9085C31.6655 15.5231 31.7822 16.1828 32.1934 16.663C32.8673 17.3917 34.2768 17.3422 34.7871 16.4446C35.1797 15.7389 35.1788 14.897 35.1417 14.1127C35.0957 13.476 34.9454 12.7438 34.3794 12.3626C33.901 12.0593 33.2767 12.0531 32.7505 12.2247Z" fill="#55607A"/>
<path d="M50.8089 10.2038C52.1044 10.0198 53.5326 10.2392 54.5602 11.0996C55.3622 11.7522 55.8424 12.7364 55.9715 13.7534C56.1254 14.9755 55.9317 16.2922 55.1986 17.3092C54.6335 18.1157 53.7537 18.6737 52.796 18.8877C51.5411 19.1636 50.1466 19.0079 49.0695 18.2749C48.1984 17.6859 47.6068 16.737 47.392 15.7148C47.139 14.5024 47.2469 13.1759 47.8748 12.0891C48.4903 11.0465 49.616 10.3576 50.8089 10.2038ZM50.9699 12.2209C50.6312 12.3412 50.3553 12.6073 50.2058 12.9328C49.9052 13.5456 49.9246 14.2468 49.9016 14.9127C49.8769 15.5291 49.998 16.1888 50.4119 16.6681C50.9354 17.2331 51.8657 17.3057 52.5209 16.9378C53.1691 16.5266 53.3221 15.6989 53.3619 14.9879C53.3752 14.1991 53.3867 13.3272 52.9083 12.656C52.4643 12.0776 51.6198 12.0104 50.9699 12.2209Z" fill="#55607A"/>
<path d="M64.8939 10.4836C66.0461 10.3395 67.1966 10.121 68.363 10.1511C69.2279 10.1759 70.0741 10.5429 70.694 11.1451C71.3608 11.8083 71.7649 12.7289 71.8136 13.6671C71.8145 15.4499 71.8136 17.2335 71.8136 19.0172C71.3122 19.0066 70.809 19.0411 70.3094 19.0021C69.8504 18.9579 69.8354 18.3982 69.6214 18.0895C69.0466 18.4079 68.5602 18.9049 67.9023 19.0543C66.9985 19.2816 65.9736 19.2029 65.183 18.6803C64.5331 18.2399 64.2457 17.4334 64.2085 16.6773C64.1555 15.7833 64.5799 14.8671 65.3201 14.3578C65.8613 14.012 66.4732 13.8015 67.0816 13.6052C67.7564 13.4133 68.4629 13.3815 69.1607 13.3691C69.1819 12.8739 68.9077 12.3575 68.4108 12.2169C67.5689 11.9914 66.7138 12.2867 65.8728 12.3628C65.5403 12.4105 65.2175 12.2142 65.0716 11.9197C64.8532 11.4749 64.878 10.9647 64.8939 10.4836ZM66.8004 15.4729C66.215 15.7691 66.1637 16.8108 66.8252 17.0478C67.6273 17.3432 68.5673 17.0116 69.1235 16.3908C69.1766 15.9619 69.0581 15.5233 69.0439 15.0909C68.2896 15.1245 67.4814 15.0962 66.8004 15.4729Z" fill="#55607A"/>
<path d="M39.5141 15.0631C39.7971 13.5155 39.6742 11.9353 39.7679 10.3727C41.9584 10.3718 44.1488 10.3718 46.3392 10.3727C46.3357 13.2546 46.3436 16.1357 46.3348 19.0177C45.4912 19.0177 44.6475 19.0168 43.8048 19.0186C43.7995 16.7892 43.8039 14.5599 43.8021 12.3314C43.1876 12.3297 42.5721 12.3305 41.9575 12.3314C41.8841 13.6216 41.8514 14.9224 41.579 16.1905C41.4004 17.0059 41.1041 17.8389 40.5001 18.4385C39.8652 19.0902 38.9004 19.2821 38.0232 19.2432C37.8207 19.2476 37.5864 19.1194 37.5908 18.893C37.5634 18.3624 37.5881 17.8292 37.5802 17.2977C37.9737 17.265 38.376 17.1412 38.6873 16.8927C39.1595 16.3992 39.4018 15.7272 39.5141 15.0631Z" fill="#55607A"/>
<path d="M55.9061 10.374C58.5961 10.3713 61.2871 10.3731 63.9771 10.3731C63.978 10.985 63.978 11.597 63.9771 12.208C63.0928 12.2089 62.2094 12.208 61.3251 12.2089C61.3233 14.4383 61.326 16.6667 61.3242 18.896C60.4399 18.8969 59.5556 18.8969 58.6713 18.896C58.6695 16.6667 58.6722 14.4383 58.6704 12.2089C57.749 12.2071 56.8275 12.2107 55.9061 12.2071C55.907 11.5961 55.9061 10.985 55.9061 10.374Z" fill="#55607A"/>
<path d="M73.7096 11.1518C74.4904 10.5991 75.4605 10.3807 76.4058 10.3754C77.5651 10.3674 78.7245 10.3745 79.8838 10.3728C79.8838 13.214 79.8847 16.0544 79.8838 18.8957C79.0764 18.8966 78.2691 18.8957 77.4626 18.8957C77.4581 17.7779 77.4714 16.6593 77.4546 15.5415C77.1416 15.5654 76.7799 15.599 76.5845 15.8802C76.0052 16.6115 75.839 17.571 75.3411 18.3501C75.0953 18.7383 74.6195 18.8745 74.1853 18.8877C73.5106 18.9063 72.8359 18.8922 72.1611 18.8939C72.7819 17.8628 73.3939 16.8255 74.0253 15.8015C74.2437 15.4336 74.6124 15.186 75.0272 15.0923C74.2278 14.9278 73.3886 14.5219 73.0304 13.7446C72.6121 12.8577 72.9774 11.7567 73.7096 11.1518ZM76.0548 12.0857C75.3606 12.3386 75.2315 13.3874 75.7718 13.8578C76.2086 14.3221 76.8975 14.139 77.4617 14.1753C77.4634 13.4457 77.4617 12.7171 77.4626 11.9875C76.9948 12.0078 76.504 11.9238 76.0548 12.0857Z" fill="#55607A"/>
<path d="M2.73881 14.728C7.24878 14.728 11.7587 14.7272 16.2687 14.728C16.2687 15.2586 16.2687 15.7901 16.2687 16.3207C11.7587 16.3207 7.24878 16.3207 2.73881 16.3207C2.73881 15.7901 2.73881 15.2586 2.73881 14.728Z" fill="#55607A"/>
<path d="M2.77134 17.4022C4.11637 17.4014 5.4614 17.4031 6.80643 17.4022C6.80732 19.6678 6.80555 21.9343 6.80732 24.2008C7.27423 24.2132 7.74911 24.1973 8.20099 24.0646C8.39288 23.9859 8.53614 23.8232 8.66171 23.664C9.65656 22.3269 10.2004 20.7175 11.1979 19.3813C11.5879 18.8366 12.0672 18.3343 12.6765 18.0381C13.7995 17.5411 15.0491 17.4809 16.2588 17.5137C16.257 18.3263 16.2641 19.139 16.257 19.9517C16.2685 20.2453 16.1394 20.5513 15.8812 20.7042C15.4921 20.928 15.0287 20.958 14.6246 21.1455C14.2718 21.2923 13.987 21.5647 13.7721 21.8751C13.1142 22.7771 12.8666 23.9081 12.1954 24.8021C11.9699 25.1019 11.6542 25.315 11.3191 25.4751C11.8417 25.6033 12.3378 25.8518 12.7322 26.2206C13.1673 26.6547 13.5006 27.1774 13.8128 27.7035C15.0438 29.8798 16.2906 32.0481 17.518 34.2271C16.3057 34.2288 15.0933 34.2271 13.8809 34.2288C13.4723 34.2395 13.0355 34.1201 12.7649 33.7964C12.4978 33.5302 12.3953 33.1588 12.2051 32.8431C11.2518 31.1753 10.3056 29.5022 9.35147 27.8353C9.16311 27.5028 8.85537 27.2357 8.47689 27.1535C7.92774 27.0403 7.36266 27.1031 6.80643 27.0881C6.80643 29.4306 6.80643 31.774 6.80643 34.1174C5.56929 34.1192 4.33303 34.1139 3.09588 34.1201C2.99772 34.0882 2.73774 34.189 2.77223 34.0051C2.76869 28.4711 2.77134 22.9371 2.77134 17.4022Z" fill="#55607A"/>
<path d="M21.7991 21.6079C23.3343 21.4452 24.9588 21.6733 26.287 22.4993C27.4047 23.1864 28.244 24.2909 28.6578 25.5324C29.0584 26.6891 29.1168 27.9395 28.9912 29.1484C28.9311 29.8063 28.7188 30.4403 28.4084 31.0213C27.9168 32.0834 27.1041 32.9995 26.0951 33.5964C24.7147 34.395 23.0469 34.5975 21.4861 34.3525C20.1013 34.1474 18.7766 33.485 17.8321 32.4424C17.0318 31.5236 16.4782 30.3767 16.3306 29.1616C16.136 27.5831 16.3191 25.9118 17.1141 24.5111C18.0346 22.8061 19.9023 21.775 21.7991 21.6079ZM21.8867 24.4271C21.387 24.5606 20.9555 24.9002 20.7035 25.3512C20.2454 26.1497 20.1879 27.0985 20.1755 27.9979C20.141 28.8627 20.172 29.7824 20.6044 30.5571C20.8697 31.0594 21.334 31.4485 21.8884 31.5882C22.6772 31.7863 23.5996 31.7305 24.2522 31.1991C24.9075 30.6163 25.1285 29.7152 25.2055 28.8742C25.2771 27.9563 25.2603 27.0181 25.0277 26.1223C24.8588 25.5484 24.5476 24.9736 24.0258 24.6508C23.3865 24.2776 22.5915 24.2467 21.8867 24.4271Z" fill="#55607A"/>
<path d="M35.804 21.7629C36.7785 21.5064 37.8512 21.4463 38.8027 21.8221C40.0115 22.3111 40.8454 23.4121 41.3486 24.5776C41.7642 25.4487 41.8845 26.4232 41.9358 27.3765C42.0154 29.1318 41.5785 30.9367 40.558 32.3816C39.8576 33.3774 38.7921 34.1237 37.5912 34.3581C36.5831 34.5535 35.4962 34.4677 34.5739 33.9955C34.2494 33.8399 33.9593 33.6241 33.6595 33.4278C33.6622 35.0009 33.6657 36.5741 33.6613 38.1482C32.433 38.1942 31.2047 38.2322 29.9755 38.2649C29.9755 32.7698 29.9755 27.2756 29.9755 21.7806C30.7396 21.7841 31.5045 21.7717 32.2694 21.785C32.6355 21.7806 33.0335 21.9556 33.1741 22.3147C33.2837 22.6304 33.3438 22.9602 33.4314 23.2821C34.0725 22.5809 34.8781 22.0122 35.804 21.7629ZM33.6551 25.5902C33.6772 27.3446 33.6454 29.1 33.6693 30.8544C34.0902 31.3824 34.7861 31.6653 35.4565 31.6857C36.148 31.7396 36.8917 31.4849 37.2993 30.9013C37.9865 29.9401 38.0466 28.6976 38.0316 27.5577C38.0015 26.6336 37.921 25.5937 37.2481 24.8889C36.7997 24.3972 36.064 24.3857 35.4538 24.4874C34.7322 24.5962 34.122 25.0507 33.6551 25.5902Z" fill="#55607A"/>
<path d="M48.2458 21.6117C49.911 21.426 51.692 21.6912 53.09 22.6631C54.3369 23.5182 55.1354 24.9225 55.406 26.394C55.6704 27.8602 55.6059 29.4148 55.0594 30.8111C54.5553 32.1517 53.5021 33.2783 52.1916 33.8593C50.8625 34.4562 49.353 34.5738 47.923 34.351C46.4896 34.122 45.1039 33.4207 44.186 32.2791C43.1389 31.0225 42.7118 29.3423 42.7719 27.7284C42.8153 26.1482 43.3299 24.5184 44.4663 23.3812C45.4461 22.3394 46.8433 21.7735 48.2458 21.6117ZM48.405 24.4255C47.9929 24.5361 47.6144 24.7792 47.3642 25.1268C46.8645 25.79 46.7443 26.6469 46.6974 27.4534C46.67 28.412 46.6726 29.4077 47.0378 30.3106C47.2616 30.8827 47.7152 31.385 48.3174 31.561C49.0717 31.7821 49.9481 31.7502 50.6184 31.3054C51.2454 30.8589 51.5319 30.0895 51.6539 29.3573C51.7883 28.4863 51.7866 27.5922 51.6645 26.7203C51.5505 25.9801 51.2737 25.2037 50.6591 24.7341C50.0109 24.2823 49.1522 24.2363 48.405 24.4255Z" fill="#55607A"/>
<path d="M70.2042 22.0087C71.9012 21.7283 73.6194 21.5117 75.3438 21.5656C76.8391 21.6275 78.3265 22.3783 79.1596 23.642C79.8051 24.5705 80.0368 25.7263 79.9952 26.8432C79.9935 29.3449 79.9952 31.8466 79.9952 34.3492C79.355 34.3456 78.7147 34.3616 78.0754 34.3412C77.7455 34.3306 77.3662 34.2413 77.1831 33.9389C76.9877 33.6028 76.8993 33.219 76.7675 32.8565C75.3827 34.4394 72.9659 34.9938 71.031 34.1697C70.3554 33.8911 69.8018 33.3446 69.5135 32.6734C69.0466 31.6034 68.9493 30.3512 69.3216 29.2379C69.7735 28.0794 70.8135 27.219 71.9834 26.8423C72.7368 26.615 73.4894 26.3656 74.2746 26.2719C74.9502 26.1852 75.6329 26.1702 76.3138 26.164C76.3828 25.4265 75.8991 24.666 75.1554 24.5174C74.3321 24.36 73.4885 24.5236 72.674 24.6625C72.147 24.7465 71.5943 24.9401 71.0708 24.7447C70.6693 24.6006 70.4173 24.2132 70.3103 23.8171C70.1591 23.2272 70.1626 22.6118 70.2042 22.0087ZM73.2037 29.1141C72.4565 29.3714 72.1222 30.3503 72.468 31.0366C72.7138 31.4858 73.2762 31.6034 73.7476 31.6096C74.31 31.591 74.8919 31.5061 75.3889 31.2258C75.7329 31.0383 75.9575 30.6988 76.297 30.5042C76.3156 29.8657 76.3006 29.2264 76.3032 28.5879C75.2642 28.7206 74.2021 28.7771 73.2037 29.1141Z" fill="#55607A"/>
<path d="M56.5968 21.7796C57.8268 21.7814 59.0569 21.7787 60.287 21.7805C60.2843 23.2776 60.2914 24.7747 60.2825 26.271C61.5869 26.2904 62.8913 26.271 64.1956 26.2816C64.2106 24.7809 64.1974 23.2803 64.2018 21.7796C65.4336 21.7814 66.6655 21.7778 67.8973 21.7814C67.8973 25.9296 67.8973 30.077 67.8973 34.2253C66.6655 34.2315 65.4336 34.2244 64.2018 34.2289C64.2009 32.5009 64.2027 30.773 64.2009 29.0442C62.8966 29.0442 61.5913 29.0442 60.287 29.0451C60.2887 30.7703 60.2817 32.4965 60.2905 34.2227C59.0596 34.2351 57.8286 34.2227 56.5968 34.2289C56.5968 30.0788 56.5968 25.9296 56.5968 21.7796Z" fill="#55607A"/>
</svg>
