<svg width="167" height="48" viewBox="0 0 167 48" fill="none" xmlns="http://www.w3.org/2000/svg">
<g clip-path="url(#clip0_0_96)">
<mask id="mask0_0_96" style="mask-type:luminance" maskUnits="userSpaceOnUse" x="0" y="0" width="167" height="48">
<path d="M166.637 0.533203H0V47.4665H166.637V0.533203Z" fill="white"/>
</mask>
<g mask="url(#mask0_0_96)">
<path opacity="0.6" d="M147.731 0.584502L162.459 4.70598L149.101 18.1008L145.905 2.24454C145.852 1.99956 145.863 1.74478 145.94 1.50597C146.015 1.26714 146.154 1.05271 146.339 0.884319C146.524 0.715929 146.75 0.599539 146.995 0.546898C147.24 0.494256 147.494 0.507227 147.731 0.584502Z" fill="#9FA7BC"/>
<path d="M7.31952e-05 25.8857C-0.0013359 25.5608 0.104177 25.2445 0.300261 24.9857C0.496345 24.727 0.772052 24.5404 1.08466 24.4547C2.84559 23.9327 4.6713 23.6628 6.50756 23.6533C9.64714 23.7106 12.7867 25.4278 12.7867 29.0914V35.6171C12.7867 39.1661 9.59005 41.1123 6.3934 41.1123C4.81633 41.0907 3.26106 40.7398 1.82674 40.082V46.0925C1.82827 46.2132 1.8057 46.333 1.76034 46.4448C1.71498 46.5566 1.64776 46.6581 1.56264 46.7436C1.47752 46.8289 1.37623 46.8963 1.26473 46.9417C1.15323 46.9873 1.03377 47.0099 0.913405 47.0083C0.793039 47.0099 0.673585 46.9873 0.562082 46.9417C0.450579 46.8963 0.349283 46.8289 0.264165 46.7436C0.179046 46.6581 0.111828 46.5566 0.0664726 46.4448C0.0211164 46.333 -0.0014603 46.2132 7.31952e-05 46.0925V25.8857ZM1.82674 38.4792C3.29677 39.0736 4.86549 39.3843 6.45048 39.3951C8.73381 39.3378 10.9601 38.1929 10.9601 35.7888V28.9197C10.9601 26.5154 8.7338 25.3705 6.50756 25.3705C4.92654 25.3028 3.34518 25.4962 1.82674 25.943V38.4792Z" fill="#55607A"/>
<path d="M25.916 28.9771C25.916 26.5729 23.6327 25.3708 21.2924 25.3708C19.9366 25.329 18.6073 25.7531 17.5249 26.5729C17.4576 26.6408 17.3775 26.6946 17.2893 26.7314C17.2011 26.7681 17.1065 26.7869 17.0111 26.7869C16.9156 26.7869 16.8211 26.7681 16.733 26.7314C16.6448 26.6946 16.5647 26.6408 16.4974 26.5729L16.3832 26.4584C16.2998 26.3862 16.234 26.2958 16.1906 26.1942C16.1473 26.0925 16.1276 25.9823 16.1331 25.872C16.1386 25.7616 16.1691 25.654 16.2224 25.5572C16.2756 25.4604 16.3501 25.3771 16.4402 25.3135C17.889 24.2249 19.6533 23.6419 21.4636 23.6535C24.6603 23.6535 27.7427 25.4853 27.7427 29.0343V38.8229C27.7438 39.1993 27.6215 39.5657 27.3946 39.8657C27.1677 40.1656 26.8488 40.3825 26.4869 40.4829C24.6572 40.9401 22.7785 41.1707 20.8928 41.1698C17.639 41.1126 15.0132 39.4525 15.0132 35.9607C15.0703 32.1827 18.2669 30.6943 21.4636 30.6943C22.9873 30.7084 24.4959 30.9994 25.916 31.553V28.9771ZM25.916 33.0413C24.5044 32.5354 23.0196 32.2647 21.5207 32.2399C19.0661 32.2399 16.8399 33.0986 16.8399 35.9607C16.8399 38.5367 18.6094 39.5098 21.0069 39.5098C22.6782 39.5683 24.3493 39.3949 25.9732 38.9946V33.0413H25.916Z" fill="#55607A"/>
<path d="M110.799 29.0341C110.799 26.6299 108.458 25.4278 106.118 25.4278C104.762 25.386 103.432 25.8101 102.35 26.6299C102.283 26.6977 102.203 26.7516 102.114 26.7884C102.026 26.8251 101.932 26.8439 101.836 26.8439C101.741 26.8439 101.646 26.8251 101.558 26.7884C101.47 26.7516 101.39 26.6977 101.323 26.6299L101.208 26.5154C101.125 26.4432 101.059 26.3528 101.016 26.2512C100.972 26.1495 100.953 26.0394 100.958 25.9291C100.964 25.8187 100.994 25.7109 101.048 25.6142C101.101 25.5174 101.175 25.4341 101.266 25.3706C102.731 24.2731 104.517 23.6897 106.346 23.7105C109.542 23.7105 112.625 25.5423 112.625 29.0913V38.8799C112.626 39.2563 112.504 39.6227 112.277 39.9227C112.049 40.2226 111.731 40.4395 111.369 40.5399C109.539 40.9971 107.661 41.2277 105.775 41.2268C102.521 41.1696 99.8955 39.5095 99.8955 36.0177C99.9526 32.2397 103.149 30.7514 106.346 30.7514C107.869 30.7654 109.379 31.0564 110.799 31.61V29.0341ZM110.741 33.0411C109.33 32.5351 107.845 32.2645 106.346 32.2397C103.891 32.2397 101.665 33.0983 101.665 35.9604C101.665 38.5364 103.435 39.5095 105.832 39.5095C107.503 39.5681 109.174 39.3947 110.799 38.9943V33.0411H110.741Z" fill="#55607A"/>
<path d="M32.7088 44.6041C32.8665 44.4703 33.0637 44.3923 33.27 44.3819C33.4762 44.3716 33.6803 44.4296 33.8504 44.5468C34.9758 45.3678 36.3412 45.7907 37.7322 45.7489C40.2438 45.7489 42.4701 44.3751 42.4701 41.6275V40.0247C41.0429 40.9405 39.4446 41.1123 37.7892 41.1123C34.4783 41.1695 31.2246 39.1087 31.2246 35.5024V24.7981C31.2305 24.5722 31.3225 24.3572 31.4818 24.1974C31.6412 24.0376 31.8556 23.9452 32.0809 23.9395H32.2521C32.4774 23.9452 32.6919 24.0376 32.8512 24.1974C33.0106 24.3572 33.1027 24.5722 33.1084 24.7981V35.5597C33.1084 38.0212 35.4489 39.395 37.7322 39.4522C39.3484 39.4525 40.9454 39.1011 42.413 38.4219V24.7981C42.4187 24.5722 42.5108 24.3572 42.6702 24.1974C42.8295 24.0376 43.044 23.9452 43.2692 23.9395H43.3834C43.6087 23.9452 43.8231 24.0376 43.9824 24.1974C44.1418 24.3572 44.2338 24.5722 44.2397 24.7981V41.6275C44.2397 45.5772 41.1572 47.4663 37.7322 47.4663C35.9292 47.4886 34.1673 46.9264 32.7088 45.8634C32.6148 45.7878 32.5389 45.692 32.4867 45.583C32.4346 45.474 32.4074 45.3546 32.4074 45.2337C32.4074 45.1129 32.4346 44.9935 32.4867 44.8845C32.5389 44.7756 32.6148 44.6797 32.7088 44.6041Z" fill="#55607A"/>
<path d="M131.121 44.6041C131.278 44.4703 131.475 44.3923 131.681 44.3819C131.888 44.3716 132.092 44.4296 132.262 44.5468C133.387 45.3678 134.752 45.7907 136.143 45.7489C138.655 45.7489 140.881 44.3751 140.881 41.6275V40.0247C139.455 40.9405 137.856 41.1123 136.201 41.1123C132.89 41.1695 129.636 39.1087 129.636 35.5024V24.7981C129.642 24.5722 129.734 24.3572 129.893 24.1974C130.053 24.0376 130.267 23.9452 130.492 23.9395H130.663C130.889 23.9452 131.104 24.0376 131.262 24.1974C131.422 24.3572 131.514 24.5722 131.52 24.7981V35.5597C131.52 38.0212 133.861 39.395 136.143 39.4522C137.76 39.4525 139.357 39.1011 140.825 38.4219V24.7981C140.83 24.5722 140.923 24.3572 141.081 24.1974C141.241 24.0376 141.456 23.9452 141.681 23.9395H141.795C142.02 23.9452 142.234 24.0376 142.394 24.1974C142.553 24.3572 142.645 24.5722 142.651 24.7981V41.6275C142.651 45.5772 139.569 47.4663 136.143 47.4663C134.34 47.4886 132.579 46.9264 131.121 45.8634C130.956 45.6954 130.863 45.4693 130.863 45.2337C130.863 44.9982 130.956 44.7721 131.121 44.6041Z" fill="#55607A"/>
<path d="M59.138 40.4253C58.9867 40.4253 58.8415 40.365 58.7344 40.2576C58.6274 40.1503 58.5673 40.0047 58.5673 39.8528V28.9767C58.5673 26.2291 56.1127 25.027 53.7722 25.027C52.1209 25.0417 50.4897 25.3922 48.9772 26.0574L48.7489 26.1718V39.9674C48.7489 40.1191 48.6887 40.2647 48.5817 40.3721C48.4746 40.4795 48.3294 40.5397 48.1781 40.5397C48.0267 40.5397 47.8815 40.4795 47.7745 40.3721C47.6674 40.2647 47.6073 40.1191 47.6073 39.9674V25.9428C47.6016 25.7283 47.6653 25.5176 47.7887 25.3423C47.9121 25.1669 48.0887 25.0363 48.2922 24.9697C50.0181 24.3624 51.8294 24.0339 53.6581 23.9966C56.5693 24.0539 59.5377 25.6566 59.5377 29.0912V39.9101C59.5604 39.9714 59.5671 40.0374 59.5572 40.1021C59.5474 40.1668 59.5212 40.2278 59.4811 40.2795C59.4411 40.3311 59.3885 40.3715 59.3286 40.3971C59.2685 40.4226 59.2029 40.4323 59.138 40.4253Z" fill="#55607A"/>
<path d="M82.3141 40.826C81.7025 40.8662 81.0902 40.763 80.5253 40.5246C79.9605 40.2861 79.459 39.9189 79.0603 39.4523C78.2978 38.3667 77.9162 37.0579 77.9758 35.7314V20.9056C77.9838 20.7868 78.0344 20.6749 78.1184 20.5907C78.2023 20.5065 78.3139 20.4557 78.4324 20.4477C78.5453 20.4428 78.6557 20.4817 78.7408 20.5563C78.8258 20.6309 78.8789 20.7355 78.8891 20.8483L79.1174 24.2829H82.2569C82.3781 24.2829 82.4942 24.3312 82.5799 24.4171C82.6655 24.5029 82.7136 24.6194 82.7136 24.7408C82.7136 24.8623 82.6655 24.9788 82.5799 25.0646C82.4942 25.1505 82.3781 25.1988 82.2569 25.1988H79.0603V35.6742C79.0603 38.3646 80.3161 39.8529 82.5994 39.8529H82.7136C82.7778 39.8466 82.8427 39.8537 82.9041 39.8737C82.9656 39.8937 83.0222 39.9262 83.0703 39.9693C83.1186 40.0123 83.1575 40.0649 83.1845 40.1236C83.2115 40.1824 83.2261 40.2462 83.2273 40.3108C83.2322 40.4241 83.1934 40.5348 83.1191 40.6201C83.0446 40.7054 82.9404 40.7586 82.8278 40.7689C82.6599 40.8106 82.487 40.8298 82.3141 40.826Z" fill="#55607A"/>
<path d="M115.821 37.1624C115.988 37.0532 116.187 37.0049 116.384 37.0258C116.582 37.0467 116.767 37.1353 116.906 37.2769C117.497 37.9327 118.22 38.4553 119.026 38.8105C119.834 39.1658 120.706 39.3455 121.588 39.3377C123.414 39.3377 125.355 38.5935 125.298 36.3038C125.24 34.0141 123.185 33.4989 121.416 33.1554C118.676 32.6402 115.594 31.8388 115.594 28.4042C115.594 24.9697 118.847 23.5959 121.588 23.5959C123.004 23.5604 124.399 23.9599 125.583 24.7408C125.771 24.8858 125.894 25.0994 125.926 25.3351C125.958 25.5709 125.897 25.8098 125.754 26.0001L125.698 26.0574C125.56 26.2232 125.364 26.3282 125.15 26.3496C124.936 26.3711 124.722 26.3072 124.555 26.1718C123.685 25.6225 122.673 25.3437 121.644 25.3704C119.931 25.3704 117.477 26.0574 117.477 28.4042C117.477 30.7512 120.16 31.0947 121.873 31.4382C124.499 31.9534 127.182 33.0409 127.238 36.3038C127.238 39.6812 124.499 41.0549 121.701 41.1122C120.571 41.1612 119.444 40.9431 118.414 40.4758C117.383 40.0085 116.475 39.3049 115.765 38.4217C115.657 38.3531 115.569 38.2572 115.511 38.1438C115.452 38.0303 115.425 37.9032 115.43 37.7756C115.435 37.6478 115.475 37.5238 115.544 37.4162C115.613 37.3086 115.709 37.221 115.821 37.1624Z" fill="#55607A"/>
<path d="M69.0707 40.5971C65.2462 40.5971 62.9058 38.3646 62.9058 34.1287V30.2934C63.0199 26.2864 65.1891 23.9395 68.8995 23.9395C72.7241 23.9395 74.9504 26.3436 74.9504 30.5797C74.9642 30.848 74.8933 31.9534 74.8933 31.9534C74.8933 31.9534 74.8766 32.1646 74.8372 32.2629C74.7979 32.3612 74.739 32.4505 74.6644 32.5254C74.5897 32.6003 74.5007 32.6591 74.4027 32.6986C74.3046 32.7381 74.1996 32.7572 74.0941 32.7548H63.9904V33.7279V34.1287C64.0474 38.6508 66.7874 39.5095 68.3858 39.6239H68.8995C70.3266 39.6239 72.3816 39.166 73.4091 37.8494C73.514 37.7317 73.6542 37.6512 73.8086 37.6205C73.8397 37.6168 73.8711 37.6199 73.9007 37.6298C73.9674 37.6521 74.0304 37.7031 74.0941 37.735C74.2155 37.7997 74.3149 37.8993 74.3795 38.0212C74.4004 38.088 74.4061 38.1587 74.3962 38.228C74.3864 38.2973 74.3611 38.3636 74.3224 38.4219C73.1807 39.9102 71.0687 40.5399 69.4132 40.5971H69.0707ZM68.9566 25.027C65.8741 25.027 64.0474 27.0878 64.0474 30.6368V32.0107H73.8657V30.6368C73.8657 27.0878 72.0391 25.027 68.9566 25.027Z" fill="#55607A"/>
<path d="M97.8404 30.637C97.8404 26.2866 95.5571 23.5962 91.447 23.5962C87.5083 23.5962 85.168 26.1149 85.0537 30.2936V34.0716C85.0537 38.4221 87.337 41.1125 91.447 41.1125H91.9037C93.8446 40.998 95.9567 40.2538 97.0983 38.7656C97.1748 38.6683 97.2287 38.5551 97.2559 38.4344C97.283 38.3136 97.283 38.1882 97.2556 38.0674C97.2282 37.9467 97.1743 37.8336 97.0977 37.7366C97.021 37.6394 96.9238 37.5607 96.8129 37.5062L96.6987 37.449C96.5215 37.3663 96.3207 37.3498 96.1324 37.4023C95.9441 37.4548 95.7806 37.5727 95.6712 37.7352C94.815 38.8227 92.9883 39.3952 91.447 39.3952H90.9904C88.65 39.2235 86.9375 37.7352 86.8804 34.2433V33.2702H96.6416C96.9444 33.2702 97.2348 33.1496 97.4489 32.9349C97.6631 32.7202 97.7834 32.429 97.7834 32.1254V31.553C97.8325 31.2503 97.8517 30.9435 97.8404 30.637ZM86.9375 31.6674V30.637C86.9375 26.859 88.8783 25.3707 91.5042 25.3707C94.13 25.3707 96.0137 26.859 96.0708 30.637V31.6674H86.9375Z" fill="#55607A"/>
<path opacity="0.9" d="M142.195 16.4407L149.044 18.158L162.402 4.76318L141.908 13.6931C141.639 13.8256 141.416 14.0379 141.27 14.3015C141.125 14.5651 141.064 14.8672 141.095 15.1668C141.126 15.4665 141.248 15.7494 141.445 15.9772C141.641 16.2051 141.903 16.3669 142.195 16.4407Z" fill="#E3E5E8"/>
<path d="M150.814 25.0272L149.101 18.1579L162.459 4.76318L153.554 25.2561C153.437 25.5391 153.232 25.7773 152.971 25.9367C152.71 26.096 152.405 26.1681 152.101 26.1427C151.795 26.1172 151.507 25.9955 151.276 25.7951C151.044 25.5945 150.883 25.3257 150.814 25.0272Z" fill="#9FA7BC"/>
<path opacity="0.6" d="M166.569 19.5318L162.459 4.76318L149.101 18.1579L164.913 21.3636C165.156 21.4117 165.409 21.3958 165.644 21.3176C165.88 21.2393 166.09 21.1013 166.257 20.917C166.424 20.7327 166.54 20.5082 166.595 20.2655C166.649 20.0228 166.64 19.77 166.569 19.5318Z" fill="#C0C2C8"/>
</g>
</g>
<defs>
<clipPath id="clip0_0_96">
<rect width="167" height="48" fill="white"/>
</clipPath>
</defs>
</svg>
