<svg width="144" height="30" viewBox="0 0 144 30" fill="none" xmlns="http://www.w3.org/2000/svg">
<g clip-path="url(#clip0_0_69)">
<mask id="mask0_0_69" style="mask-type:luminance" maskUnits="userSpaceOnUse" x="0" y="0" width="144" height="30">
<path d="M144 0H0V30H144V0Z" fill="white"/>
</mask>
<g mask="url(#mask0_0_69)">
<path d="M25.915 21.45C25.8784 24.075 23.676 26.4376 20.9597 26.4376H0.000200778C0.000200778 19.275 -0.0365059 12.15 0.000200778 4.9875C0.000200778 4.6125 0.0369074 4.5375 0.0369074 4.35C0.403974 1.9875 2.53296 0 4.95559 0H12.9576V2.4375C10.278 2.4375 7.59847 2.4 4.91888 2.4375C3.59744 2.475 2.38613 3.6375 2.38613 5.0625V24C8.58955 24 14.793 24.0376 20.9597 24C22.2811 23.9626 23.4558 22.8376 23.4924 21.4126V13.3876H25.8784C25.915 16.0876 25.915 18.75 25.915 21.45Z" fill="#55607A"/>
<path fill-rule="evenodd" clip-rule="evenodd" d="M21.95 2.4375H15.7466V0H24.7764C24.9966 0.0375 25.0701 0.0375 25.1801 0.075C25.6207 0.2625 25.9143 0.6375 25.9143 1.2V10.875H23.5283V4.275L16.5908 11.2875L14.9023 9.5625L21.95 2.4375Z" fill="#55607A"/>
<path d="M34.3936 22.4248C35.6783 23.3622 37.6972 23.9998 39.8262 23.9998C44.3044 23.9998 47.2042 21.1498 47.2042 16.6872C47.2042 12.6748 44.855 9.7873 40.8907 9.7873C39.3123 9.7873 37.6972 10.4998 36.7428 11.3998V2.5498H34.3936V22.4248ZM40.3768 12.0748C42.9462 12.0748 44.7081 13.8372 44.7081 16.8748C44.7081 19.9122 42.6526 21.7498 39.9364 21.7498C38.7984 21.7498 37.8073 21.5248 36.7428 20.8122V13.8372C37.4035 12.9748 38.8352 12.0748 40.3768 12.0748Z" fill="#55607A"/>
<path d="M59.9415 20.3247C59.0972 21.1497 57.5923 21.7497 55.8671 21.7497C53.2609 21.7497 51.4256 20.2497 51.242 17.6622H61.4832C61.5566 17.2497 61.6299 16.6872 61.6299 16.0497C61.6299 12.2997 58.8769 9.82471 55.4633 9.82471C51.0952 9.82471 48.5991 12.9747 48.5991 16.9122C48.5991 21.1872 51.3888 23.9997 55.7202 23.9997C57.4821 23.9997 59.4275 23.4372 60.7123 22.1997L59.9415 20.3247ZM55.2798 12.0747C57.5923 12.0747 58.9872 13.4622 59.1339 15.7122H51.0585C51.3155 13.6122 52.8571 12.0747 55.2798 12.0747Z" fill="#55607A"/>
<path d="M70.3662 20.025C70.3662 21.2624 69.2282 21.9 68.0169 21.9C66.6955 21.9 64.9336 21.075 64.1627 20.175L62.8413 21.9C63.4654 22.875 65.5943 24 67.76 24C70.4395 24 72.8989 22.7624 72.8989 19.875C72.8989 15.1124 65.7044 16.4624 65.7044 13.575C65.7044 12.675 66.512 11.8875 67.8334 11.8875C69.2282 11.8875 70.3662 12.4875 71.1737 13.2L72.3117 11.3625C71.5041 10.575 69.9257 9.75 67.7233 9.75C65.0804 9.75 63.2084 11.2125 63.2084 13.575C63.1717 18.6374 70.3662 17.25 70.3662 20.025Z" fill="#55607A"/>
<path d="M74.8442 18.5249C74.8442 22.0125 76.0188 23.9249 79.0287 23.9249C80.497 23.9249 81.7083 23.3625 82.4425 22.7625L81.7083 20.8875C81.2312 21.2625 80.5337 21.6375 79.616 21.6375C77.9275 21.6375 77.2668 20.3999 77.2668 18.2625V12.3749H82.1488V10.1249H77.2668V6.3374H74.9175V18.5249H74.8442Z" fill="#55607A"/>
<path d="M101.787 29.7371H104.136V23.0621C105.091 23.6996 106.486 23.9996 107.88 23.9996C112.065 23.9996 114.781 20.8121 114.781 16.6871C114.781 12.6746 112.432 9.78711 108.615 9.78711C106.779 9.78711 105.017 10.6121 104.1 11.6996V10.1246H101.75V29.7371H101.787ZM107.991 12.0746C110.744 12.0746 112.322 14.0246 112.322 16.7996C112.322 19.6496 110.56 21.7496 107.697 21.7496C106.412 21.7496 105.348 21.5246 104.136 20.6996V13.9496C104.944 12.8996 106.412 12.0746 107.991 12.0746Z" fill="#55607A"/>
<path d="M126.858 23.6997H129.207V11.3622C127.849 10.4997 125.757 9.82471 123.628 9.82471C119.296 9.82471 116.14 12.9747 116.14 16.9122C116.14 21.1872 118.709 23.9997 122.747 23.9997C124.362 23.9997 125.904 23.2497 126.858 22.2747V23.6997ZM123.114 21.7497C120.471 21.7497 118.636 19.9872 118.636 17.0247C118.636 14.2872 120.581 12.0747 123.591 12.0747C124.692 12.0747 125.793 12.3372 126.858 12.9372V19.9497C126.087 20.8497 124.656 21.7497 123.114 21.7497Z" fill="#55607A"/>
<path d="M144 23.5501V10.125H141.65V19.7251C140.806 20.8125 139.375 21.7501 137.833 21.7501C135.41 21.7501 134.419 20.2501 134.419 17.6625V10.125H132.07V18.2251C131.997 22.2001 133.979 24.0001 136.915 24.0001C139.007 24.0001 140.696 22.9125 141.614 21.7501V23.8125C141.614 26.5125 140.071 27.7125 137.723 27.7125C135.998 27.7125 134.64 27.0375 133.869 26.4751L132.768 28.4251C133.538 28.9501 135.043 30.0001 137.87 30.0001C141.174 30.0001 144 28.1625 144 23.5501Z" fill="#55607A"/>
<path fill-rule="evenodd" clip-rule="evenodd" d="M97.8224 23.8875V21.8999H89.0495C89.0863 20.7749 90.004 19.6125 91.2887 18.8625C91.9126 18.4875 92.6101 18.0375 93.3443 17.5499C94.8125 16.5375 96.0973 15.7499 96.9415 14.3249C97.382 13.6125 97.5656 12.8249 97.5656 11.9999C97.5656 10.5749 97.0516 9.4499 96.0238 8.5874C94.9961 7.7249 93.6745 7.2749 92.0595 7.2749C89.6001 7.2749 87.5446 8.54992 86.4802 10.3874L88.2787 11.5124C89.0495 10.2749 90.4077 9.4124 91.8393 9.4124C93.7113 9.4124 95.0327 10.5374 95.0327 12.1124C95.0327 15.9375 86.4067 16.8375 86.4067 22.6499C86.4067 22.9875 86.4434 23.3999 86.5168 23.8875H97.8224Z" fill="#55607A"/>
</g>
</g>
<defs>
<clipPath id="clip0_0_69">
<rect width="144" height="30" fill="white"/>
</clipPath>
</defs>
</svg>
