<svg width="164" height="18" viewBox="0 0 164 18" fill="none" xmlns="http://www.w3.org/2000/svg">
<g clip-path="url(#clip0_0_84)">
<mask id="mask0_0_84" style="mask-type:luminance" maskUnits="userSpaceOnUse" x="0" y="0" width="164" height="18">
<path d="M163.49 0H0V17.54H163.49V0Z" fill="white"/>
</mask>
<g mask="url(#mask0_0_84)">
<path d="M35.7491 3.24219L28.2891 17.3122H32.3791L33.6691 14.7622H44.2691L45.5591 17.3122H49.6191L42.2691 3.24219H35.7491ZM34.7891 12.4722L38.2091 5.74219H39.7491L43.1691 12.4722H34.7891Z" fill="#55607A"/>
<path d="M68.2884 12.5034C68.2484 13.0234 68.1784 13.4234 68.0484 13.7134C67.8084 14.2634 67.2884 14.5834 66.4884 14.6734C65.8184 14.7534 64.6284 14.7834 62.8284 14.7834C61.1584 14.7834 60.0184 14.7434 59.3484 14.6634C58.0784 14.5034 57.6184 13.7634 57.4584 13.1734C57.3084 12.6334 57.2384 11.7134 57.2384 10.3534C57.2384 9.04344 57.3084 8.10344 57.4584 7.49344C57.6884 6.58344 58.3084 6.04344 59.2484 5.91344C59.8784 5.81344 60.9784 5.77344 62.6084 5.77344C65.8184 5.77344 66.6884 5.93344 67.0584 6.06344C67.4384 6.19344 67.9084 6.51344 68.0084 7.33344C68.0184 7.40344 68.0284 7.50344 68.0284 7.64344H71.6384C71.6484 7.47344 71.6484 7.35344 71.6484 7.28344C71.6484 6.55344 71.5884 5.90344 71.4584 5.34344C71.3084 4.65344 70.9484 4.13344 70.3684 3.77344C69.8784 3.46344 69.0584 3.25344 67.9184 3.14344C67.1284 3.06344 65.7784 3.02344 63.8884 3.02344C60.7184 3.02344 58.4984 3.10344 57.2884 3.26344C56.1784 3.41344 55.3884 3.65344 54.9084 3.99344C54.3084 4.41344 53.9484 5.11344 53.8084 6.10344C53.6984 6.82344 53.6484 8.27344 53.6484 10.3934C53.6484 12.6034 53.7184 14.0934 53.8584 14.8534C53.9684 15.5034 54.2284 16.0034 54.6384 16.3834C54.9484 16.6734 55.3484 16.8934 55.8384 17.0434C56.3584 17.2034 57.0984 17.3334 58.0284 17.4134C59.0584 17.5034 61.0884 17.5534 64.0784 17.5534C66.7484 17.5534 68.6484 17.4134 69.7084 17.1234C70.5884 16.8834 71.1684 16.4934 71.4584 15.9334C71.7684 15.3434 71.9184 14.5334 71.9184 13.5334C71.9184 13.3334 71.9084 12.9934 71.8884 12.5234H68.2884V12.5034Z" fill="#55607A"/>
<path d="M95.2378 3.14844H90.3878L83.8178 8.70844H80.5878V3.23844H77.0078V17.3084H80.5878V11.5384H83.7978L91.1578 17.3084H95.9178L87.0978 10.1484L95.2378 3.14844Z" fill="#55607A"/>
<path d="M115.852 3.26344C114.652 3.10344 112.462 3.02344 109.332 3.02344C106.032 3.02344 103.752 3.10344 102.552 3.26344C101.002 3.47344 100.072 4.17344 99.7416 5.40344C99.4816 6.33344 99.3516 7.97344 99.3516 10.2834C99.3516 12.5734 99.4816 14.2134 99.7416 15.1534C100.082 16.3834 101.002 17.0834 102.552 17.2934C103.752 17.4534 105.982 17.5334 109.202 17.5334C112.422 17.5334 114.662 17.4534 115.852 17.2934C117.402 17.0834 118.322 16.3834 118.662 15.1534C118.922 14.2134 119.052 12.5734 119.052 10.2834C119.052 7.98344 118.922 6.34344 118.662 5.40344C118.322 4.17344 117.412 3.47344 115.852 3.26344ZM115.312 12.7934C115.162 13.4634 114.662 14.3134 113.222 14.4934C112.512 14.5834 111.192 14.6334 109.212 14.6334C107.222 14.6334 105.902 14.5834 105.192 14.4934C103.752 14.3234 103.262 13.4734 103.092 12.7934C102.992 12.3334 102.932 11.6334 102.932 10.6534C102.932 9.14344 103.022 8.12344 103.192 7.53344C103.412 6.82344 103.942 6.33344 104.702 6.13344C105.052 6.04344 105.872 5.93344 109.022 5.93344C110.682 5.93344 111.712 5.94344 112.102 5.96344C113.292 6.02344 114.042 6.18344 114.462 6.48344C114.952 6.81344 115.252 7.42344 115.382 8.34344C115.442 8.82344 115.472 9.60344 115.472 10.7234C115.482 11.6534 115.432 12.3234 115.312 12.7934Z" fill="#55607A"/>
<path d="M138.921 3.36219C138.351 3.28219 137.051 3.24219 135.031 3.24219H125.211V17.3122H128.791V13.6222H135.081C136.031 13.6222 136.771 13.6122 137.291 13.6122C138.421 13.5822 139.321 13.4722 139.981 13.2922C140.811 13.0522 141.381 12.6522 141.721 12.0522C142.111 11.3822 142.301 10.1522 142.301 8.38219C142.301 6.24219 142.011 5.27219 141.771 4.84219C141.321 4.05219 140.361 3.55219 138.921 3.36219ZM138.481 9.90219C138.221 10.4722 137.631 10.7822 136.761 10.8422C136.631 10.8522 136.311 10.8622 135.041 10.8722H128.781V5.99219H135.031C136.001 6.01219 136.571 6.02219 136.781 6.04219C137.581 6.09219 138.141 6.37219 138.441 6.89219C138.621 7.21219 138.701 7.68219 138.701 8.38219C138.711 9.09219 138.631 9.57219 138.481 9.90219Z" fill="#55607A"/>
<path d="M146.258 3.24219V6.07219H152.968V17.3122H156.778V6.07219H163.488V3.24219H146.258Z" fill="#55607A"/>
<path d="M15.61 4.06L15.04 3.5L11.54 0L0 11.54L4.97 16.51L5.78 17.32H17.31L18.12 16.51L23.09 11.54L15.61 4.06ZM6.11 15.36L2.28 11.53L11.54 2.27L15.37 6.1L6.11 15.36ZM8.05 15.7L11.54 12.21L15.03 15.7H8.05ZM16.98 15.36L12.69 11.07L16.52 7.24L20.81 11.53L16.98 15.36Z" fill="#55607A"/>
</g>
</g>
<defs>
<clipPath id="clip0_0_84">
<rect width="164" height="18" fill="white"/>
</clipPath>
</defs>
</svg>
