<svg width="156" height="48" viewBox="0 0 156 48" fill="none" xmlns="http://www.w3.org/2000/svg">
<path fill-rule="evenodd" clip-rule="evenodd" d="M24.8475 30.8396C23.5357 33.3361 21.1313 35.3702 21.1032 35.3395C21.0746 35.3702 18.6703 33.3361 17.3585 30.8396C16.0467 28.3452 15.2053 24.4266 15.1588 22.5549C15.1119 20.6826 15.4861 19.8811 15.4861 19.8811C15.4861 19.8811 17.1263 19.7928 18.4381 19.3447C19.5511 18.9675 20.7625 18.0115 21.1032 17.7332C21.4413 18.0115 22.6554 18.9675 23.7706 19.3447C25.0802 19.7928 26.7198 19.8811 26.7198 19.8811C26.7198 19.8811 27.0946 20.6826 27.0449 22.5549C26.9985 24.4266 26.1571 28.3452 24.8475 30.8396ZM24.9711 39.3295C25.1418 39.6506 25.2401 40.2781 24.7184 40.3262C24.4267 39.5771 24.0757 39.1396 23.6415 38.5349C23.2386 38.0693 22.7947 37.589 22.4771 37.0626C23.1895 37.8821 24.6206 38.6994 24.9711 39.3295ZM22.4771 43.1364C22.5749 42.4027 22.381 40.7637 22.077 39.6506C21.8674 38.9015 21.1729 36.9362 21.4824 36.2331C21.6039 37.1589 21.9814 38.6058 22.5263 39.7924C22.913 40.6447 23.4816 42.6254 22.4771 43.1364ZM20.1268 39.6506C19.8379 40.7637 19.631 42.4027 19.7288 43.1364C18.7221 42.6254 19.293 40.6447 19.6802 39.7924C20.2224 38.6058 20.5994 37.1589 20.7209 36.2331C21.0336 36.9362 20.3385 38.9015 20.1268 39.6506ZM18.5774 38.5349C18.1281 39.1396 17.777 39.5771 17.4876 40.3262C16.9659 40.2781 17.0642 39.6506 17.2348 39.3295C17.5859 38.6994 19.0138 37.8821 19.7288 37.0626C19.4118 37.589 18.9673 38.0619 18.5774 38.5349ZM13.2114 30.4073C13.2373 30.5713 13.2605 30.6676 13.3324 30.7761C12.4002 30.9179 12.0028 31.2744 11.6647 31.8537C11.1894 32.6356 11.6852 33.645 11.5507 34.0624C11.4557 34.3227 11.143 34.5735 10.6467 34.3455C10.887 35.3908 12.2199 35.2718 12.5704 34.6899C12.6897 35.1755 12.5704 35.7347 12.3279 35.9469C12.7415 35.9696 13.0926 35.8051 13.3091 35.484C13.3583 35.5802 13.3583 35.712 13.3815 35.8278C13.6116 35.712 13.759 35.5802 13.8541 35.4612C13.8902 35.5781 13.9367 35.8506 13.88 36.0738C13.7023 36.1923 13.5003 36.3013 13.1882 36.4579C12.6897 36.696 11.7856 37.0398 11.264 37.1107C10.8379 37.1816 10.0996 36.9436 9.90571 36.3616C9.73506 35.8051 9.26521 35.6284 8.88825 35.9696C8.79266 35.8987 8.52695 35.8506 8.4157 36.0204C8.4157 36.0204 8.29689 35.7575 8.14945 35.6284C8.24774 35.3422 8.17267 34.9983 7.90696 34.8819C7.88374 34.3227 7.53271 34.3227 7.41119 34.1328C7.33937 34.0143 7.33937 33.8699 7.50948 33.8476C7.43712 33.7413 7.28968 33.7186 7.26646 33.7186C7.31344 33.4805 7.24054 33.1848 6.91542 33.0885L4.04394 27.2881C4.22702 27.0982 4.13197 26.8252 3.92243 26.7284C3.92243 26.7284 3.92243 26.7057 3.92243 26.6835C3.94025 26.6374 3.94295 26.602 3.94835 26.5671C4.02558 26.5544 4.11901 26.5364 4.20164 26.5163C4.76978 26.3851 5.65493 25.5677 6.41965 25.0567C6.1507 25.3297 5.03765 26.1243 4.54187 26.5872C4.07959 27.0374 4.27347 27.4876 4.34853 27.8928L4.45708 28.1177C4.87779 28.1431 5.50803 28.3912 5.98058 28.0113C6.12748 27.8696 8.1986 25.3524 8.4751 25.1048C8.36925 25.3297 7.06016 26.9437 6.46879 27.8696C6.02973 28.5679 6.67294 29.0308 6.74746 29.4329C7.21731 29.2916 7.86052 29.5646 8.1986 29.008C8.52695 28.4742 9.53145 26.5644 9.90571 26.028C9.76098 26.4454 8.69437 28.616 8.62254 28.8054C8.36925 29.5418 9.00976 29.6836 9.26521 30.1719C9.65243 29.8984 10.3529 30.1111 10.6213 29.4101C10.7887 28.9371 11.2148 27.2881 11.4346 26.848C11.4087 27.3358 11.264 27.9886 11.1662 28.7097C11.0679 29.4329 11.7597 29.4101 12.1216 29.8275C12.4726 29.5418 13.1158 29.6127 13.2114 28.9599C13.3091 28.3785 13.3324 26.9665 13.3324 26.9665C13.4307 27.0501 13.4798 27.0728 13.5884 27.1691C13.8281 26.8956 14.3272 26.8956 14.4951 26.5644C14.5696 26.5872 14.5929 26.6353 14.6652 26.6835C15.2101 27.5712 15.2566 29.2916 14.4951 29.8984C14.7144 29.8984 14.993 29.873 15.161 29.8026C14.8229 30.4777 14.0712 30.7158 13.2114 30.4073ZM4.49543 24.1917C4.36906 24.242 4.22216 24.3054 4.10551 24.3536C4.10551 24.3435 4.10551 24.3308 4.10551 24.3208C4.22432 24.2774 4.37176 24.2346 4.49543 24.1917ZM16.9173 9.59775C18.2755 9.31207 19.6543 8.5656 20.2743 7.93817C20.7878 7.96885 21.4516 7.97361 21.9555 7.9461C22.5673 8.5783 23.9283 9.31207 25.2865 9.59775C24.4986 9.59775 23.1198 9.52686 22.9497 9.33694C22.9988 9.82259 24.0519 10.3717 24.7416 10.5236C24.1708 10.5945 23.6415 10.5236 23.1895 10.3236C23.4352 10.668 23.7112 10.9283 24.1708 11.0828C23.688 11.6647 22.6964 12.0414 21.7124 11.9477C21.9555 12.2334 22.4048 12.4106 22.7947 12.3625C21.9112 13.7438 21.2555 15.1606 21.1005 16.8021L21.0951 16.8L21.093 16.8048C20.9455 15.1606 20.2948 13.7438 19.4139 12.3625C19.812 12.4106 20.251 12.2334 20.4784 11.9477C19.4863 12.0414 18.5283 11.6647 18.0325 11.0828C18.4948 10.9283 18.7707 10.668 19.0138 10.3236C18.5774 10.5236 18.0325 10.5945 17.4643 10.5236C18.154 10.3717 19.2206 9.82259 19.2665 9.33694C19.0861 9.52686 17.7074 9.59775 16.9173 9.59775ZM25.9762 41.0013C26.2808 41.5123 25.8574 41.8789 25.2633 41.8789C25.2633 41.6795 25.2633 41.6081 25.2142 41.3684C25.4907 41.343 25.8136 41.242 25.9762 41.0013ZM16.9426 41.8789C16.3491 41.8789 15.9252 41.5123 16.2276 41.0013C16.3848 41.2319 16.6975 41.3404 16.9659 41.3684C16.9426 41.6081 16.9426 41.6795 16.9426 41.8789ZM3.20739 24.5456C3.17607 24.5456 3.14475 24.5456 3.11126 24.5456C3.1064 24.5382 3.101 24.5303 3.09344 24.5229C3.13719 24.5128 3.18417 24.5128 3.22522 24.5001C3.22252 24.5155 3.21496 24.5303 3.20739 24.5456ZM2.49398 26.028L2.2542 25.8894C2.34979 25.7799 2.44538 25.7799 2.54097 25.8407C2.54097 25.9121 2.54097 25.9825 2.49398 26.028ZM2.02143 25.0339C1.99821 25.0339 1.99821 25.0567 1.97499 25.0794C1.82809 25.0567 1.82809 24.8895 1.85401 24.7477C1.92368 24.7477 1.97499 24.725 2.02143 24.6774L2.04465 24.7022L1.97499 24.7477C1.99821 24.844 1.99821 24.9382 2.02143 25.0339ZM42.1082 18.8157C41.5892 18.5099 40.7294 18.4009 39.8567 18.4845C41.2252 18.0216 42.1573 17.0249 42.2065 16.1345C41.4936 15.9345 40.7527 16.0409 40.1121 16.1826C40.7759 15.6965 41.8657 14.8066 41.7339 13.501C41.0934 13.3465 39.9161 13.7866 39.4198 14.002C40.9951 13.1343 41.5633 11.0828 40.7294 9.9194C40.2337 10.2046 37.9789 12.4561 37.6149 12.7196C38.7798 11.4139 39.3247 10.4754 39.6396 9.59775C40.0139 8.63914 40.0371 6.96686 38.8284 6.40767C38.2581 7.69005 36.2594 10.9738 35.1463 12.3397C35.0248 12.2334 34.9271 12.0895 34.7694 12.0668C34.5031 12.8989 33.7152 14.002 33.0001 14.5331C32.964 14.4622 32.8921 14.2723 32.7701 14.0702C32.0086 15.1859 30.0331 16.7164 29.3926 17.655C28.8941 18.3527 28.8941 18.9828 29.5859 19.6357C29.8651 19.9086 30.3971 20.3943 29.9375 21.0699C29.3121 21.9655 28.0548 22.0692 27.3706 21.5428C27.3706 21.3836 27.3652 21.2318 27.3576 21.09C28.1634 20.7842 28.3519 19.7087 27.7578 19.041C27.6266 19.2865 27.4116 19.4658 27.154 19.5542C27.0844 19.2759 27.0217 19.14 27.0169 19.1267L26.9855 19.0611L26.9159 19.0585C26.9083 19.0564 26.6453 19.0437 26.25 18.9982C26.6966 18.8537 26.9828 18.449 26.9213 17.9025C26.2316 18.4845 25.5398 17.9279 25.3821 17.774C24.9484 17.2756 24.8269 16.7164 24.997 15.861C25.1418 15.1151 25.9292 13.9284 26.4487 13.5491C26.5238 13.62 26.6426 13.7618 26.8953 13.739C27.0422 13.6935 27.2853 13.5719 27.4662 13.501C27.9879 13.3465 28.4966 13.4655 28.8244 13.6681C29.4158 14.0221 29.3666 14.4141 29.3461 14.7003C30.2496 14.2019 29.9375 13.3719 28.7521 13.0635C29.5627 13.0635 30.2291 13.7866 30.3971 13.8803C30.8464 14.2019 31.4869 14.1305 31.8612 13.9538C32.5794 13.62 32.7236 12.7899 32.5303 12.6233C32.4579 12.9217 32.2279 13.1825 31.812 13.2306C31.1974 13.301 30.6012 13.0375 30.1314 12.8354C29.7333 12.6714 29.088 12.5524 28.6538 12.5773C29.4649 12.1376 30.7249 12.1858 31.1715 12.8608C31.4405 12.6487 31.6084 12.4561 31.6829 12.0186C31.913 10.8346 30.9679 10.2273 29.9607 10.2273C29.9866 9.94215 29.7798 9.79984 29.5141 9.89613C29.5141 9.77498 29.4806 9.68134 29.4131 9.63319C29.4363 9.63055 29.4676 9.6205 29.4882 9.6205C30.5056 9.55225 31.4637 9.2433 31.9827 8.7095C32.8921 7.7583 31.4405 6.54945 31.9595 5.61359C32.4579 5.82573 32.8219 6.09924 33.5089 6.19288C33.5812 6.33731 33.6433 6.62034 33.6666 6.77429C33.8858 7.83183 32.8219 8.00906 33.0984 9.13484C33.2194 9.64589 33.6099 9.82259 33.7411 10.4299C33.7411 10.4299 33.7908 10.8547 33.4133 11.2245C34.2866 11.2473 34.7461 10.5236 34.4777 9.84798C34.3584 9.575 34.0538 9.31207 34.0538 8.99359C34.5031 9.575 34.9038 9.55225 35.593 9.33694C35.9078 9.2433 35.9337 9.67128 35.7377 10.0152C36.2102 9.739 36.3345 9.28879 36.3345 9.08935C36.3345 8.61374 35.9569 8.38838 35.593 8.48466C35.3893 8.50741 34.9757 8.78039 34.9524 8.38838C34.8671 7.7128 35.9569 7.73608 35.7377 6.64574C35.6189 6.09924 34.9989 5.80034 34.0306 5.68395C33.935 5.58819 33.692 5.36283 33.5607 5.1729C33.0288 4.30846 32.4811 4.08309 32.1528 4.25979C31.7656 4.44971 31.562 4.61689 31.2471 4.78142C30.9911 4.91262 30.7249 4.98351 30.5548 5.1729C30.1314 5.68395 30.5315 6.47856 30.7481 6.96686C30.8955 7.24989 31.2471 7.90325 31.0894 8.38838C30.9188 8.97031 29.9375 9.33694 29.3461 9.4565C29.3072 9.4565 29.284 9.46866 29.2457 9.46866V9.2433C29.4158 8.94492 29.5627 8.591 29.6842 8.26934C30.0844 7.2245 29.4882 6.80021 28.6073 6.59759C28.4966 6.5267 28.3751 6.50131 28.2309 6.54945H28.205L28.1812 6.72615L28.0602 6.69123L28.0862 6.47856H28.0338C28.1348 6.40767 28.1812 6.28864 28.1812 6.17013C28.1812 6.04105 28.1348 5.94476 28.0862 5.87387H28.205L28.1553 5.82573C28.1348 5.77759 28.0862 5.73209 28.0111 5.65909C27.9879 5.63634 27.9647 5.58819 27.9647 5.56545C27.9879 5.58819 28.0111 5.61359 28.0602 5.63634C28.1089 5.68395 28.1812 5.73209 28.205 5.77759L28.2768 5.82573V4.85442L28.205 4.91262C28.1812 4.93589 28.1089 4.98351 28.0602 5.03165C28.0111 5.07979 27.9879 5.07979 27.9647 5.10254C27.9647 5.07979 27.9879 5.0544 28.0111 5.00626C28.0862 4.96076 28.1348 4.88722 28.1553 4.85442L28.205 4.78142H27.2129L27.262 4.85442C27.3085 4.88722 27.3706 4.96076 27.4197 5.00626C27.443 5.0544 27.4662 5.07979 27.4916 5.10254C27.4662 5.07979 27.4197 5.07979 27.3938 5.03165C27.3085 4.98351 27.262 4.93589 27.2129 4.91262L27.1643 4.85442V5.82573L27.2129 5.77759C27.262 5.73209 27.3085 5.68395 27.3938 5.63634C27.4197 5.61359 27.4662 5.58819 27.4916 5.56545C27.4662 5.58819 27.443 5.63634 27.4197 5.65909C27.3706 5.73209 27.3085 5.77759 27.262 5.82573L27.2129 5.87387H27.3706C27.2853 5.94476 27.262 6.04105 27.262 6.17013C27.262 6.28864 27.3085 6.40767 27.3938 6.47856H27.3706L27.3938 6.69123L27.262 6.72615L27.2361 6.54945H27.2129C27.0682 6.50131 26.9472 6.5267 26.8489 6.59759C25.9524 6.80021 25.3589 7.2245 25.7591 8.26934C25.8806 8.591 26.028 8.94492 26.2084 9.2433V9.39777C25.3097 9.1121 23.6982 8.15084 23.2645 7.5689C23.2154 7.51071 23.1792 7.46256 23.156 7.42765L23.1511 7.42976L23.169 6.80021C23.4816 6.28864 23.7603 5.65909 23.9801 5.07979C24.5483 3.57204 23.7112 2.94461 22.381 2.68115C22.2471 2.58804 22.077 2.5399 21.8599 2.61079L21.8129 2.84832L21.5347 2.82557L21.5574 2.51715C21.5088 2.5399 21.4618 2.5399 21.4132 2.5399C21.6039 2.44626 21.7383 2.21824 21.7383 1.98335C21.7383 1.81671 21.653 1.61409 21.5088 1.52045H21.7383C21.6039 1.40141 21.3873 1.15065 21.3403 0.98665C21.5088 1.03215 21.7643 1.25699 21.8831 1.37866V0.143897C21.7643 0.238066 21.5088 0.475602 21.3403 0.498351C21.3873 0.359215 21.6039 0.119033 21.7383 0H20.4784C20.5761 0.119033 20.8186 0.359215 20.8419 0.498351C20.695 0.475602 20.4552 0.238066 20.3207 0.143897V1.37866C20.4552 1.25699 20.695 1.03215 20.8419 0.98665C20.8186 1.15065 20.5761 1.40141 20.4784 1.52045H20.695C20.5508 1.61409 20.4784 1.81671 20.4784 1.98335C20.4784 2.21824 20.5994 2.44626 20.7932 2.5399C20.7441 2.5399 20.695 2.5399 20.6226 2.51715L20.6485 2.82557L20.3693 2.84832L20.3439 2.61079C20.1268 2.5399 19.9594 2.58804 19.812 2.68115C18.4948 2.94461 17.6555 3.57204 18.2264 5.07979C18.4202 5.65909 18.6989 6.28864 19.037 6.80021V7.45251C19.0138 7.47526 18.9884 7.5234 18.9414 7.5689C18.518 8.15084 16.894 9.1121 15.9975 9.39777V9.2433C16.1785 8.94492 16.3259 8.591 16.4469 8.26934C16.8476 7.2245 16.2535 6.80021 15.357 6.59759C15.2566 6.5267 15.1405 6.50131 14.993 6.54945H14.9698L14.9439 6.72615L14.8229 6.69123L14.8461 6.47856H14.8229C14.8948 6.40767 14.9439 6.28864 14.9439 6.17013C14.9439 6.04105 14.9207 5.94476 14.8461 5.87387H14.993L14.9439 5.82573C14.8948 5.77759 14.8461 5.73209 14.7992 5.65909C14.7759 5.63634 14.7403 5.58819 14.7144 5.56545C14.7403 5.58819 14.7992 5.61359 14.8229 5.63634C14.8948 5.68395 14.9439 5.73209 14.993 5.77759L15.0422 5.82573V4.85442L14.993 4.91262C14.9439 4.93589 14.8948 4.98351 14.8229 5.03165C14.7992 5.07979 14.7403 5.07979 14.7144 5.10254C14.7403 5.07979 14.7759 5.0544 14.7992 5.00626C14.8461 4.96076 14.8948 4.88722 14.9439 4.85442L14.993 4.78142H14.001L14.0479 4.85442C14.0712 4.88722 14.1333 4.96076 14.1824 5.00626C14.2289 5.0544 14.2521 5.07979 14.2521 5.10254C14.2289 5.07979 14.2056 5.07979 14.1587 5.03165C14.0971 4.98351 14.0226 4.93589 14.001 4.91262L13.9264 4.85442V5.82573L14.001 5.77759C14.0226 5.73209 14.0971 5.68395 14.1587 5.63634C14.2056 5.61359 14.2289 5.58819 14.2521 5.56545C14.2521 5.58819 14.2289 5.63634 14.1824 5.65909C14.1333 5.73209 14.0712 5.77759 14.0479 5.82573L14.001 5.87387H14.1333C14.0712 5.94476 14.0226 6.04105 14.0226 6.17013C14.0226 6.28864 14.0712 6.40767 14.1824 6.47856H14.1333L14.1587 6.69123L14.0226 6.72615L14.001 6.54945H13.9756C13.8281 6.50131 13.7099 6.5267 13.6116 6.59759C12.7156 6.80021 12.1216 7.2245 12.5217 8.26934C12.6433 8.591 12.7902 8.94492 12.9711 9.2433V9.46866C12.9322 9.46866 12.8987 9.4565 12.8728 9.4565C12.2793 9.33694 11.2872 8.97031 11.1171 8.38838C10.9594 7.90325 11.3131 7.24989 11.4557 6.96686C11.6852 6.47856 12.0751 5.68395 11.6647 5.1729C11.4811 4.98351 11.2148 4.91262 10.9594 4.78142C10.6467 4.61689 10.4506 4.44971 10.0531 4.25979C9.73506 4.08309 9.19284 4.30846 8.64576 5.1729C8.52695 5.36283 8.2715 5.58819 8.17267 5.68395C7.21731 5.80034 6.60003 6.09924 6.46879 6.64574C6.24683 7.73608 7.33937 7.7128 7.26646 8.38838C7.24054 8.78039 6.81983 8.50741 6.62325 8.48466C6.24683 8.38838 5.87203 8.61374 5.87203 9.08935C5.87203 9.28879 6.00651 9.739 6.46879 10.0152C6.27491 9.67128 6.29814 9.2433 6.62325 9.33694C7.31344 9.55225 7.70012 9.575 8.14945 8.99359C8.14945 9.31207 7.86052 9.575 7.72875 9.84798C7.46034 10.5236 7.90696 11.2473 8.79266 11.2245C8.39248 10.8547 8.4751 10.4299 8.4751 10.4299C8.59932 9.82259 8.98654 9.64589 9.11831 9.13484C9.38726 8.00906 8.32011 7.83183 8.55017 6.77429C8.57339 6.62034 8.62254 6.33731 8.69437 6.19288C9.38726 6.09924 9.76098 5.82573 10.2438 5.61359C10.7423 6.54945 9.31165 7.7583 10.2206 8.7095C10.7423 9.2433 11.7111 9.55225 12.7156 9.6205C12.7361 9.6205 12.7696 9.63319 12.7956 9.63584C12.7259 9.68134 12.6897 9.77498 12.6897 9.89613C12.4262 9.79984 12.2199 9.94215 12.256 10.2273C11.2148 10.2273 10.2956 10.8346 10.523 12.0186C10.5954 12.4561 10.7655 12.6487 11.0447 12.8608C11.4811 12.1858 12.7415 12.1376 13.5624 12.5773C13.1158 12.5524 12.4726 12.6714 12.0751 12.8354C11.6128 13.0375 11.0215 13.301 10.4042 13.2306C9.97808 13.1825 9.76098 12.9217 9.67565 12.6233C9.48231 12.7899 9.62704 13.62 10.3529 13.9538C10.7169 14.1305 11.3595 14.2019 11.8067 13.8803C11.9768 13.7866 12.6433 13.0635 13.4566 13.0635C12.2793 13.3719 11.9514 14.2019 12.8728 14.7003C12.8366 14.4141 12.7902 14.0221 13.3815 13.6681C13.7099 13.4655 14.2289 13.3465 14.7403 13.501C14.9207 13.5719 15.161 13.6935 15.3084 13.739C15.5612 13.7618 15.6827 13.62 15.7545 13.5491C16.2768 13.9284 17.0382 15.1151 17.2089 15.861C17.3898 16.7164 17.258 17.2756 16.8217 17.774C16.6769 17.9279 15.9743 18.4845 15.2852 17.9025C15.2204 18.4464 15.5072 18.8516 15.9538 18.9982C15.5536 19.041 15.2852 19.0564 15.2771 19.0585L15.2074 19.0611L15.1794 19.1267C15.1713 19.14 15.1119 19.2759 15.0395 19.5521C14.7889 19.4584 14.5772 19.2838 14.4481 19.041C13.8541 19.7065 14.0377 20.7741 14.8359 21.0847C14.8278 21.2318 14.8229 21.3889 14.8229 21.5502C14.1381 22.0666 12.8938 21.9602 12.2793 21.0699C11.8067 20.3943 12.3511 19.9086 12.62 19.6357C13.3091 18.9828 13.3091 18.3527 12.8107 17.655C12.1707 16.7164 10.1952 15.1859 9.43586 14.0702C9.31165 14.2723 9.23982 14.4622 9.21336 14.5331C8.50103 14.002 7.70012 12.8989 7.43712 12.0668C7.28968 12.0895 7.18167 12.2334 7.06016 12.3397C5.95736 10.9738 3.94835 7.69005 3.38021 6.40767C2.17913 6.96686 2.20235 8.63914 2.56905 9.59775C2.892 10.4754 3.43962 11.4139 4.58832 12.7196C4.22702 12.4561 1.97499 10.2046 1.47705 9.9194C0.642667 11.0828 1.21081 13.1343 2.78345 14.002C2.30064 13.7866 1.11306 13.3465 0.472549 13.501C0.351037 14.8066 1.42791 15.6965 2.09434 16.1826C1.45383 16.0409 0.715035 15.9345 0 16.1345C0.0486051 17.0249 0.991543 18.0216 2.32386 18.4845C1.47705 18.4009 0.617284 18.5099 0.0950499 18.8157C0.19334 19.7415 1.25995 20.5387 2.54097 20.7286C1.68066 20.8218 0.918636 21.1915 0.521154 21.7C0.991543 22.3046 1.68066 22.7675 2.73701 22.7448C2.49398 22.8279 2.21531 22.9924 1.97499 23.2178C1.9496 23.1945 1.90046 23.1717 1.85401 23.1717C1.80217 23.1945 1.78165 23.2659 1.80217 23.3135C1.80217 23.3135 1.80217 23.3135 1.80217 23.349C1.70172 23.4198 1.64501 23.5008 1.63421 23.587C1.53592 23.7235 1.43547 23.8854 1.38092 24.0245C1.40685 24.0372 1.42791 24.06 1.45383 24.0727C1.44357 24.1536 1.46139 24.2446 1.5235 24.3335C1.47705 24.3811 1.45383 24.452 1.42791 24.5229L0.810625 24.2848C0.777141 24.834 0.900814 25.2868 1.18488 25.5677C1.40685 25.8153 1.65797 25.7799 1.58561 25.864L2.2542 26.2655C2.37301 26.5163 2.61549 26.5163 2.78345 26.4454C2.78345 26.4454 2.78345 26.4681 2.78345 26.4935C2.78345 26.7538 2.96653 26.9665 3.20739 27.0501C3.16095 27.2654 3.256 27.4066 3.56059 27.5029L6.07887 33.4805C5.98058 33.7641 6.07887 34.0143 6.29814 34.1079C6.24683 34.1788 6.20039 34.2518 6.20039 34.3936C6.29814 34.3227 6.44287 34.2979 6.51524 34.4999C6.56168 34.6417 6.29814 35.1046 6.69832 35.4136C6.64647 35.6866 6.79391 35.9696 7.08338 36.0913C7.08338 36.2331 7.21731 36.696 7.24054 36.86C7.06016 37.1107 6.64647 37.4901 6.69832 37.9048C6.74746 38.2037 6.86628 38.2974 7.10876 38.3677C7.01101 38.9015 7.31344 39.1396 7.77519 39.165C7.77519 39.5543 8.14945 39.6961 8.39248 39.7189C8.62254 39.8855 8.72029 39.9564 8.98654 40.0881C8.74351 40.3712 8.91417 40.741 9.3608 40.86C9.41048 41.024 9.53145 41.1684 9.7842 41.2266C9.93164 41.4642 10.1952 41.4642 10.3529 41.3933C10.4506 41.3457 10.6213 41.0721 10.4739 40.8346C10.5721 40.7156 10.523 40.4902 10.4506 40.3484C10.5954 40.0881 10.4739 39.767 10.2697 39.6734C10.2956 39.529 10.2206 39.3041 10.172 39.165C10.523 38.9497 10.9594 38.6767 11.1171 38.583C11.9768 37.9784 12.9452 37.4419 14.0479 37.371C14.3272 37.3462 14.8461 37.3234 15.1405 37.3462C15.5871 37.3938 16.2044 37.5255 16.5662 37.252C16.6769 37.1816 16.7493 37.0626 16.7261 36.9436C16.6769 36.6706 16.3745 36.4325 16.2768 36.1849C16.2508 36.1087 16.2044 35.9998 16.1579 35.9014C16.4728 35.9569 16.7623 35.9114 16.9426 35.8278C17.1365 35.7575 17.6091 35.4136 17.5859 34.9047C17.2089 35.0819 16.3 35.3194 16.2044 34.4164C16.1061 33.6223 16.8217 32.9467 17.9369 33.243C18.6989 33.4324 19.812 35.0211 18.7945 35.712C18.2982 36.0431 17.5367 36.3616 17.6345 37.2298C17.9601 36.8372 18.3943 36.6478 18.9625 36.696C18.1281 37.3007 17.4876 37.371 16.6148 37.8339C15.8534 38.272 15.2852 38.9978 14.6885 39.0206C14.2289 39.0433 13.9756 38.5095 14.4222 38.0947C13.9756 38.0011 13.3815 38.345 13.2114 38.8058C12.9943 39.4353 13.1623 39.8855 13.5624 40.1363C13.0202 40.4193 12.62 40.9785 12.8107 41.7726C12.9943 42.4254 13.6607 42.4254 13.4074 43.2555C13.7822 43.1592 14.0226 42.9111 14.1333 42.5545C14.1824 42.3069 14.2289 42.0461 14.3525 41.9271C14.3012 42.4254 14.5929 43.1592 15.2852 43.493C15.7545 43.7184 16.496 43.812 17.0642 43.2327C17.2942 43.885 18.0789 44.4416 18.8928 44.4188C19.2665 44.4188 19.631 44.2617 19.9097 44.0998C20.1036 44.5834 20.5994 45.0717 21.0951 45.3071C21.6039 45.0717 22.1023 44.5834 22.3065 44.0998C22.5749 44.2617 22.9497 44.4188 23.3137 44.4188C24.0989 44.4416 24.9225 43.885 25.1418 43.2327C25.7099 43.812 26.4487 43.7184 26.9213 43.493C27.6136 43.1592 27.9025 42.4254 27.8561 41.9271C27.9879 42.0461 28.0338 42.3069 28.0862 42.5545C28.1812 42.9111 28.4215 43.1592 28.7985 43.2555C28.5458 42.4254 29.2246 42.4254 29.3926 41.7726C29.5859 40.9785 29.1863 40.4193 28.6538 40.1363C29.0415 39.8855 29.2246 39.4353 28.9924 38.8058C28.8244 38.345 28.2309 38.0011 27.781 38.0947C28.2309 38.5095 27.9879 39.0433 27.5148 39.0206C26.9213 38.9978 26.3531 38.272 25.5889 37.8339C24.7184 37.371 24.0757 37.3007 23.2413 36.696C23.8095 36.6478 24.2588 36.8372 24.5715 37.2298C24.6692 36.3616 23.9078 36.0431 23.4087 35.712C22.4048 35.0211 23.5076 33.4324 24.282 33.243C25.3821 32.9467 26.1101 33.6223 26.0021 34.4164C25.8806 35.3194 24.997 35.0819 24.5974 34.9047C24.5974 35.4136 25.0673 35.7575 25.2633 35.8278C25.4907 35.9342 25.9087 35.9897 26.2856 35.8331C26.2732 35.9215 26.2575 36.0183 26.2575 36.0431C26.183 36.8145 25.7591 36.8854 25.9038 37.2044C26.1101 37.4419 27.4662 37.3938 27.8302 37.4673C28.4734 37.5509 29.0183 37.7863 29.6356 37.9048C30.3247 38.0471 31.0635 38.0471 31.6829 38.2974C32.081 38.464 32.5303 38.783 32.9175 38.9724C33.5089 39.0687 33.4133 39.3041 33.7908 39.3041C34.1289 39.3041 34.2601 39.0206 34.697 38.9015C34.9989 38.8312 35.337 38.9497 35.6394 38.8539C35.8592 38.8058 35.9569 38.583 36.1638 38.464C36.4063 38.3201 36.7449 38.3201 36.975 38.1175C37.0959 38.0138 37.1192 37.8112 37.1008 37.6699L37.1062 37.7027C37.5685 37.3837 37.9195 36.9208 38.1134 36.3844C38.2344 36.3616 38.3305 36.2558 38.3305 36.1368C38.3305 36.114 38.3305 36.0913 38.3305 36.0913C38.4515 35.995 38.5238 35.8506 38.5238 35.712C38.5238 35.5321 38.4515 35.3908 38.3305 35.2718C38.3305 35.2718 38.3305 35.2464 38.3305 35.2237C38.3305 35.13 38.2814 35.0591 38.2344 34.9983C38.041 33.9662 37.2407 33.1366 36.2102 32.8758C36.2102 32.8504 36.2102 32.8504 36.2102 32.8277H36.187C36.187 32.7795 36.1638 32.7547 36.1276 32.7547C35.9802 32.6129 35.8095 32.3902 35.789 32.2457C35.957 32.2944 36.2362 32.5547 36.3804 32.661V31.2972C36.2362 31.4035 35.957 31.6643 35.789 31.7125C35.8095 31.5453 36.0758 31.249 36.2102 31.1305H34.7947C34.9271 31.249 35.1928 31.5453 35.216 31.7125C35.048 31.6643 34.7694 31.4035 34.6246 31.2972V32.661C34.7694 32.5547 35.048 32.2944 35.216 32.2457C35.1928 32.4129 34.9271 32.7092 34.7947 32.8277L34.8439 32.8504C33.7908 33.0885 32.9407 33.9434 32.7469 34.9983C32.675 35.0591 32.6259 35.13 32.6259 35.2237C32.6259 35.2464 32.6259 35.2718 32.6259 35.2718C32.5044 35.3908 32.432 35.5321 32.432 35.712C32.432 35.8506 32.5044 35.995 32.6259 36.0913C32.6259 36.0913 32.6259 36.114 32.6259 36.1368C32.6259 36.2913 32.7236 36.3616 32.843 36.3844C32.8921 36.5161 32.951 36.6478 33.0131 36.7669C33.0131 36.7542 33.0131 36.7542 33.0288 36.7415C32.9407 37.1335 32.4579 37.371 32.3494 37.371C31.4869 37.4901 30.5315 37.1335 29.6588 36.8145C29.2738 36.6706 28.7521 36.506 28.4966 36.1368C28.3389 35.8686 28.272 35.6993 28.3519 35.4612C28.4475 35.5802 28.6073 35.712 28.8244 35.8278C28.8477 35.712 28.8477 35.5802 28.8941 35.484C29.1161 35.8051 29.4649 35.9696 29.8883 35.9469C29.6356 35.7347 29.5141 35.1755 29.6356 34.6899C29.9866 35.2718 31.3189 35.3908 31.562 34.3455C31.0635 34.5735 30.7481 34.3227 30.6525 34.0624C30.5056 33.645 30.9911 32.6356 30.5548 31.8537C30.2032 31.2744 29.8062 30.9179 28.8736 30.7761C28.9459 30.6676 28.9692 30.5713 28.9924 30.4073C28.1348 30.7158 27.3938 30.4777 27.0422 29.8026C27.2129 29.873 27.4662 29.8984 27.7087 29.8984C26.9472 29.2916 26.9936 27.5712 27.5407 26.6835C27.6136 26.6353 27.6368 26.5872 27.7087 26.5644C27.8766 26.8956 28.3751 26.8956 28.6278 27.1691C28.7267 27.0728 28.7753 27.0501 28.8736 26.9665C28.8736 26.9665 28.8941 28.3785 28.9924 28.9599C29.088 29.6127 29.7333 29.5418 30.059 29.8275C30.4462 29.4101 31.1483 29.4329 31.0403 28.7097C30.942 27.9886 30.7973 27.3358 30.7746 26.848C30.9911 27.2881 31.4145 28.9371 31.5852 29.4101C31.8612 30.1111 32.5535 29.8984 32.9407 30.1719C33.1962 29.6836 33.8372 29.5418 33.5812 28.8054C33.5089 28.616 32.4579 26.4454 32.3002 26.028C32.675 26.5644 33.692 28.4742 34.0073 29.008C34.3584 29.5646 34.9989 29.2916 35.4585 29.4329C35.5465 29.0308 36.1638 28.5679 35.7145 27.8696C35.1463 26.9437 33.814 25.3297 33.7411 25.1048C34.0073 25.3524 36.0758 27.8696 36.2362 28.0113C36.719 28.4261 37.421 28.105 37.8342 28.105C37.8342 27.6447 38.209 27.121 37.6668 26.5872C37.1683 26.1243 36.0299 25.3297 35.789 25.0567C36.5483 25.5677 37.447 26.3851 37.9789 26.5163C38.924 26.7538 39.2626 26.3851 39.6164 26.2428C39.3247 25.4011 39.712 25.0112 37.7132 24.1917C39.443 24.7964 40.2077 24.4975 40.825 24.0245C40.582 23.4198 39.9647 22.9114 39.4662 22.7448C40.5226 22.7675 41.2252 22.3046 41.6848 21.7C41.2976 21.1915 40.5226 20.8218 39.6396 20.7286C40.946 20.5387 41.9872 19.7415 42.1082 18.8157Z" fill="#55607A"/>
<path d="M52.7581 15.2582V33.962" stroke="#55607A" stroke-linecap="square"/>
<path d="M70.5612 15.0325H69.3935V14.1181C68.0429 14.0243 66.9783 13.6397 66.1999 12.9644C65.4214 12.2891 65.0322 11.4168 65.0322 10.3476C65.0322 9.28776 65.4214 8.42018 66.1999 7.74487C66.9783 7.06957 68.0429 6.68502 69.3935 6.59123V5.64862H70.5612V6.59123C71.9024 6.68502 72.967 7.07426 73.7548 7.75894C74.5427 8.43425 74.9366 9.29713 74.9366 10.3476C74.9366 11.4168 74.5427 12.2891 73.7548 12.9644C72.9763 13.6397 71.9118 14.0243 70.5612 14.1181V15.0325ZM72.8826 12.2047C73.4453 11.717 73.7267 11.0979 73.7267 10.3476C73.7267 9.59727 73.4453 8.97824 72.8826 8.49052C72.3198 8.0028 71.546 7.71674 70.5612 7.63232V13.0629C71.546 12.9785 72.3198 12.6924 72.8826 12.2047ZM67.0721 8.49052C66.5188 8.97824 66.2421 9.59727 66.2421 10.3476C66.2421 11.0979 66.5188 11.717 67.0721 12.2047C67.6349 12.6924 68.4087 12.9785 69.3935 13.0629V7.63232C68.4087 7.71674 67.6349 8.0028 67.0721 8.49052ZM79.7716 15.2014C78.7586 15.2014 77.9285 14.8731 77.2814 14.2165C76.6342 13.5506 76.3106 12.6877 76.3106 11.6279C76.3106 10.6337 76.6295 9.79423 77.2673 9.10955C77.9051 8.41549 78.7023 8.06846 79.659 8.06846C80.6626 8.06846 81.4551 8.41549 82.0366 9.10955C82.6275 9.79423 82.923 10.6618 82.923 11.7123V11.9796H77.4221C77.469 12.6455 77.7128 13.2036 78.1536 13.6538C78.5945 14.104 79.1666 14.3291 79.87 14.3291C80.7142 14.3291 81.4129 14.043 81.9663 13.4709L82.4728 14.1603C81.7787 14.8543 80.8783 15.2014 79.7716 15.2014ZM81.8819 11.2058C81.8725 10.6243 81.6755 10.1037 81.291 9.64417C80.9064 9.1752 80.3578 8.94072 79.6449 8.94072C78.9696 8.94072 78.435 9.17051 78.0411 9.6301C77.6565 10.0897 77.4502 10.6149 77.4221 11.2058H81.8819ZM83.8301 16.763V14.1603C84.1771 14.0946 84.4491 13.8883 84.6461 13.5412C84.843 13.1848 85.0025 12.533 85.1244 11.5857L85.5605 8.23728H90.2877V14.104H91.0755V16.763H90.0204V15.0325H84.8852V16.763H83.8301ZM86.4891 9.16583L86.1796 11.7123C86.0201 12.9034 85.6919 13.7007 85.1948 14.104H89.2325V9.16583H86.4891ZM95.5852 15.2014C94.5723 15.2014 93.7422 14.8731 93.0951 14.2165C92.4479 13.5506 92.1243 12.6877 92.1243 11.6279C92.1243 10.6337 92.4432 9.79423 93.081 9.10955C93.7188 8.41549 94.516 8.06846 95.4727 8.06846C96.4763 8.06846 97.2688 8.41549 97.8503 9.10955C98.4412 9.79423 98.7367 10.6618 98.7367 11.7123V11.9796H93.2358C93.2826 12.6455 93.5265 13.2036 93.9673 13.6538C94.4082 14.104 94.9803 14.3291 95.6837 14.3291C96.5279 14.3291 97.2266 14.043 97.78 13.4709L98.2865 14.1603C97.5924 14.8543 96.692 15.2014 95.5852 15.2014ZM97.6956 11.2058C97.6862 10.6243 97.4892 10.1037 97.1047 9.64417C96.7201 9.1752 96.1714 8.94072 95.4586 8.94072C94.7833 8.94072 94.2487 9.17051 93.8548 9.6301C93.4702 10.0897 93.2639 10.6149 93.2358 11.2058H97.6956ZM103.794 15.2014C102.837 15.2014 102.073 14.8027 101.501 14.0055V17.6212H100.446V8.23728H101.501V9.25024C101.754 8.89383 102.082 8.60776 102.486 8.39204C102.889 8.17632 103.325 8.06846 103.794 8.06846C104.694 8.06846 105.421 8.39204 105.975 9.03921C106.537 9.67699 106.819 10.5399 106.819 11.6279C106.819 12.7159 106.537 13.5834 105.975 14.2306C105.421 14.8778 104.694 15.2014 103.794 15.2014ZM103.527 14.2587C104.193 14.2587 104.723 14.0149 105.117 13.5272C105.51 13.0301 105.707 12.397 105.707 11.6279C105.707 10.8588 105.51 10.2304 105.117 9.74265C104.723 9.25493 104.193 9.01107 103.527 9.01107C103.123 9.01107 102.73 9.11893 102.345 9.33465C101.97 9.54099 101.688 9.79423 101.501 10.0944V13.1614C101.688 13.4709 101.97 13.7335 102.345 13.9492C102.73 14.1556 103.123 14.2587 103.527 14.2587ZM113.801 15.0325H112.746V14.2587C112.173 14.8871 111.423 15.2014 110.495 15.2014C109.866 15.2014 109.313 14.9997 108.834 14.5964C108.356 14.1931 108.117 13.6444 108.117 12.9503C108.117 12.2375 108.351 11.6888 108.82 11.3043C109.299 10.9104 109.857 10.7134 110.495 10.7134C111.461 10.7134 112.211 11.0229 112.746 11.6419V10.418C112.746 9.96775 112.586 9.61603 112.267 9.36279C111.948 9.10955 111.536 8.98293 111.029 8.98293C110.232 8.98293 109.538 9.29713 108.947 9.92554L108.455 9.19396C109.177 8.44363 110.082 8.06846 111.17 8.06846C111.948 8.06846 112.581 8.25604 113.069 8.63121C113.557 9.00638 113.801 9.5832 113.801 10.3617V15.0325ZM110.874 14.4416C111.719 14.4416 112.342 14.1603 112.746 13.5975V12.3172C112.342 11.7545 111.719 11.4731 110.874 11.4731C110.387 11.4731 109.983 11.6138 109.665 11.8952C109.355 12.1672 109.2 12.5236 109.2 12.9644C109.2 13.3959 109.355 13.7523 109.665 14.0336C109.983 14.3056 110.387 14.4416 110.874 14.4416ZM115.114 15.2014V14.3291C115.433 14.3291 115.696 14.1181 115.902 13.696C116.108 13.2739 116.277 12.5705 116.408 11.5857L116.844 8.23728H121.572V15.0325H120.516V9.16583H117.773L117.463 11.7123C117.313 12.9597 117.051 13.8554 116.676 14.3994C116.3 14.934 115.78 15.2014 115.114 15.2014ZM123.678 8.23728H124.734V10.8682H127.28C127.955 10.8682 128.481 11.0698 128.856 11.4731C129.231 11.867 129.419 12.3594 129.419 12.9503C129.419 13.5412 129.226 14.0383 128.842 14.4416C128.467 14.8356 127.946 15.0325 127.28 15.0325H123.678V8.23728ZM127.168 11.7967H124.734V14.104H127.168C127.543 14.104 127.829 14.0008 128.026 13.7945C128.232 13.5787 128.335 13.2974 128.335 12.9503C128.335 12.6033 128.232 12.3266 128.026 12.1203C127.829 11.9046 127.543 11.7967 127.168 11.7967ZM132.084 15.0325H131.029V8.23728H132.084V11.0651H135.629V8.23728H136.685V15.0325H135.629V11.9937H132.084V15.0325ZM144.095 15.0325H143.04V14.2587C142.468 14.8871 141.718 15.2014 140.789 15.2014C140.161 15.2014 139.607 14.9997 139.129 14.5964C138.651 14.1931 138.412 13.6444 138.412 12.9503C138.412 12.2375 138.646 11.6888 139.115 11.3043C139.593 10.9104 140.151 10.7134 140.789 10.7134C141.755 10.7134 142.506 11.0229 143.04 11.6419V10.418C143.04 9.96775 142.881 9.61603 142.562 9.36279C142.243 9.10955 141.83 8.98293 141.324 8.98293C140.527 8.98293 139.833 9.29713 139.242 9.92554L138.749 9.19396C139.471 8.44363 140.377 8.06846 141.465 8.06846C142.243 8.06846 142.876 8.25604 143.364 8.63121C143.852 9.00638 144.095 9.5832 144.095 10.3617V15.0325ZM141.169 14.4416C142.013 14.4416 142.637 14.1603 143.04 13.5975V12.3172C142.637 11.7545 142.013 11.4731 141.169 11.4731C140.681 11.4731 140.278 11.6138 139.959 11.8952C139.65 12.1672 139.495 12.5236 139.495 12.9644C139.495 13.3959 139.65 13.7523 139.959 14.0336C140.278 14.3056 140.681 14.4416 141.169 14.4416ZM147.224 15.0325H145.986L147.8 12.3594C147.285 12.2938 146.862 12.0781 146.534 11.7123C146.215 11.3465 146.056 10.8822 146.056 10.3195C146.056 9.7192 146.248 9.2221 146.633 8.82817C147.017 8.43425 147.542 8.23728 148.208 8.23728H151.796V15.0325H150.741V12.4017H148.884L147.224 15.0325ZM148.321 11.4731H150.741V9.16583H148.321C147.955 9.16583 147.664 9.27369 147.449 9.48941C147.242 9.69575 147.139 9.97244 147.139 10.3195C147.139 10.6665 147.242 10.9479 147.449 11.1636C147.655 11.3699 147.946 11.4731 148.321 11.4731Z" fill="#55607A"/>
<path d="M72.3057 29.7986H71.2506V24.4665L69.0418 29.7986H68.6478L66.425 24.4665V29.7986H65.3698V23.0034H66.7626L68.8448 28.04L70.8989 23.0034H72.3057V29.7986ZM75.4231 29.7986H74.4101V23.0034H75.4653V28.1948L79.0247 23.0034H80.0658V29.7986H79.0106V24.5087L75.4231 29.7986ZM86.928 23.0034V23.9319H83.2279V29.7986H82.1727V23.0034H86.928ZM91.6487 29.9674C90.692 29.9674 89.9276 29.5688 89.3555 28.7716V32.3873H88.3003V23.0034H89.3555V24.0163C89.6087 23.6599 89.937 23.3738 90.3403 23.1581C90.7436 22.9424 91.1798 22.8345 91.6487 22.8345C92.5491 22.8345 93.276 23.1581 93.8294 23.8053C94.3921 24.4431 94.6735 25.306 94.6735 26.394C94.6735 27.4819 94.3921 28.3495 93.8294 28.9967C93.276 29.6439 92.5491 29.9674 91.6487 29.9674ZM91.3814 29.0248C92.0473 29.0248 92.5773 28.781 92.9712 28.2932C93.3651 27.7961 93.5621 27.1631 93.5621 26.394C93.5621 25.6249 93.3651 24.9965 92.9712 24.5087C92.5773 24.021 92.0473 23.7772 91.3814 23.7772C90.9781 23.7772 90.5842 23.885 90.1996 24.1007C89.8245 24.3071 89.5431 24.5603 89.3555 24.8605V27.9275C89.5431 28.237 89.8245 28.4996 90.1996 28.7153C90.5842 28.9217 90.9781 29.0248 91.3814 29.0248ZM101.655 29.7986H100.6V29.0248C100.028 29.6532 99.2778 29.9674 98.3492 29.9674C97.7208 29.9674 97.1674 29.7658 96.6891 29.3625C96.2108 28.9592 95.9716 28.4105 95.9716 27.7164C95.9716 27.0036 96.2061 26.4549 96.675 26.0704C97.1534 25.6764 97.7114 25.4795 98.3492 25.4795C99.3153 25.4795 100.066 25.789 100.6 26.408V25.184C100.6 24.7338 100.441 24.3821 100.122 24.1289C99.803 23.8756 99.3903 23.749 98.8838 23.749C98.0866 23.749 97.3925 24.0632 96.8017 24.6916L96.3092 23.96C97.0314 23.2097 97.9365 22.8345 99.0245 22.8345C99.803 22.8345 100.436 23.0221 100.924 23.3973C101.412 23.7725 101.655 24.3493 101.655 25.1278V29.7986ZM98.7291 29.2077C99.5732 29.2077 100.197 28.9263 100.6 28.3636V27.0833C100.197 26.5206 99.5732 26.2392 98.7291 26.2392C98.2414 26.2392 97.8381 26.3799 97.5192 26.6613C97.2096 26.9333 97.0549 27.2897 97.0549 27.7305C97.0549 28.1619 97.2096 28.5183 97.5192 28.7997C97.8381 29.0717 98.2414 29.2077 98.7291 29.2077ZM109.159 31.5291V29.7986H103.771V23.0034H104.826V28.8701H108.371V23.0034H109.426V28.8701H110.214V31.5291H109.159ZM112.67 29.7986H111.657V23.0034H112.712V28.1948L116.271 23.0034H117.312V29.7986H116.257V24.5087L112.67 29.7986ZM124.822 28.9404C124.212 29.6251 123.401 29.9674 122.388 29.9674C121.375 29.9674 120.559 29.6251 119.94 28.9404C119.33 28.2557 119.025 27.4069 119.025 26.394C119.025 25.381 119.33 24.5369 119.94 23.8616C120.559 23.1769 121.375 22.8345 122.388 22.8345C123.401 22.8345 124.212 23.1769 124.822 23.8616C125.441 24.5369 125.75 25.381 125.75 26.394C125.75 27.4069 125.441 28.2557 124.822 28.9404ZM120.728 28.2651C121.14 28.7716 121.694 29.0248 122.388 29.0248C123.082 29.0248 123.631 28.7716 124.034 28.2651C124.437 27.7493 124.639 27.1255 124.639 26.394C124.639 25.6624 124.437 25.0433 124.034 24.5369C123.631 24.0304 123.082 23.7772 122.388 23.7772C121.694 23.7772 121.14 24.0351 120.728 24.5509C120.324 25.0574 120.123 25.6718 120.123 26.394C120.123 27.1255 120.324 27.7493 120.728 28.2651ZM128.526 29.7986H127.47V23.0034H128.526V25.8312H132.071V23.0034H133.126V29.7986H132.071V26.7597H128.526V29.7986ZM136.288 29.7986H135.233V23.0034H136.288V25.8312H139.834V23.0034H140.889V29.7986H139.834V26.7597H136.288V29.7986ZM148.3 29.7986H147.244V29.0248C146.672 29.6532 145.922 29.9674 144.993 29.9674C144.365 29.9674 143.812 29.7658 143.333 29.3625C142.855 28.9592 142.616 28.4105 142.616 27.7164C142.616 27.0036 142.85 26.4549 143.319 26.0704C143.798 25.6764 144.356 25.4795 144.993 25.4795C145.959 25.4795 146.71 25.789 147.244 26.408V25.184C147.244 24.7338 147.085 24.3821 146.766 24.1289C146.447 23.8756 146.035 23.749 145.528 23.749C144.731 23.749 144.037 24.0632 143.446 24.6916L142.953 23.96C143.676 23.2097 144.581 22.8345 145.669 22.8345C146.447 22.8345 147.08 23.0221 147.568 23.3973C148.056 23.7725 148.3 24.3493 148.3 25.1278V29.7986ZM145.373 29.2077C146.217 29.2077 146.841 28.9263 147.244 28.3636V27.0833C146.841 26.5206 146.217 26.2392 145.373 26.2392C144.886 26.2392 144.482 26.3799 144.163 26.6613C143.854 26.9333 143.699 27.2897 143.699 27.7305C143.699 28.1619 143.854 28.5183 144.163 28.7997C144.482 29.0717 144.886 29.2077 145.373 29.2077ZM151.428 29.7986H150.19L152.005 27.1255C151.489 27.0599 151.067 26.8442 150.738 26.4784C150.419 26.1126 150.26 25.6483 150.26 25.0856C150.26 24.4853 150.452 23.9882 150.837 23.5943C151.221 23.2003 151.747 23.0034 152.413 23.0034H156V29.7986H154.945V27.1677H153.088L151.428 29.7986ZM152.525 26.2392H154.945V23.9319H152.525C152.159 23.9319 151.869 24.0398 151.653 24.2555C151.446 24.4618 151.343 24.7385 151.343 25.0856C151.343 25.4326 151.446 25.714 151.653 25.9297C151.859 26.136 152.15 26.2392 152.525 26.2392Z" fill="#55607A"/>
<path d="M68.3665 44.734C67.3629 44.734 66.5469 44.3964 65.9185 43.7211C65.2901 43.0364 64.9759 42.1829 64.9759 41.1605C64.9759 40.1382 65.2901 39.2894 65.9185 38.6141C66.5469 37.9388 67.3629 37.6011 68.3665 37.6011C69.4169 37.6011 70.247 37.995 70.8566 38.7829L70.1532 39.4301C69.7218 38.8392 69.1449 38.5437 68.4227 38.5437C67.7099 38.5437 67.1378 38.7876 66.7063 39.2753C66.2843 39.763 66.0732 40.3914 66.0732 41.1605C66.0732 41.9296 66.2843 42.5627 66.7063 43.0598C67.1378 43.5475 67.7099 43.7914 68.4227 43.7914C69.1356 43.7914 69.7124 43.496 70.1532 42.9051L70.8566 43.5522C70.247 44.3401 69.4169 44.734 68.3665 44.734ZM71.5336 44.734V43.8617C71.8525 43.8617 72.1151 43.6507 72.3215 43.2287C72.5278 42.8066 72.6966 42.1031 72.8279 41.1183L73.2641 37.7699H77.9912V44.5652H76.936V38.6985H74.1926L73.8831 41.2449C73.733 42.4924 73.4704 43.3881 73.0952 43.9321C72.7201 44.4667 72.1995 44.734 71.5336 44.734ZM79.7182 47.2242L79.8871 46.2675C80.0559 46.3426 80.2482 46.3801 80.4639 46.3801C80.7078 46.3801 80.9094 46.3285 81.0689 46.2253C81.2283 46.1221 81.3643 45.9346 81.4769 45.6626L81.9271 44.6355L79.0852 37.7699H80.2247L82.4898 43.3412L84.7408 37.7699H85.8945L82.4898 45.9439C82.1146 46.8443 81.4487 47.3039 80.492 47.3227C80.2107 47.3227 79.9527 47.2899 79.7182 47.2242ZM87.4875 44.5652H86.1369L89.1617 40.851L86.151 37.7699H87.4875L90.4139 40.7666V37.7699H91.469V40.7525L94.3953 37.7699H95.7319L92.7071 40.851L95.7459 44.5652H94.3953L91.9474 41.5123L91.469 41.9906V44.5652H90.4139V41.9906L89.9355 41.5123L87.4875 44.5652ZM98.2644 43.0317C98.6771 43.5382 99.2304 43.7914 99.9245 43.7914C100.619 43.7914 101.167 43.5382 101.571 43.0317C101.974 42.5158 102.176 41.8874 102.176 41.1465C102.176 40.4243 101.974 39.8099 101.571 39.3034C101.167 38.797 100.619 38.5437 99.9245 38.5437C99.2304 38.5437 98.6771 38.797 98.2644 39.3034C97.8611 39.8099 97.6594 40.4243 97.6594 41.1465C97.6594 41.8874 97.8611 42.5158 98.2644 43.0317ZM99.9245 44.734C98.9022 44.734 98.0862 44.3729 97.4765 43.6507C96.8669 42.9285 96.562 41.9953 96.562 40.851C96.562 39.2378 96.8528 38.0466 97.4343 37.2775C98.0158 36.4991 98.9115 36.0301 100.121 35.8707C100.844 35.7581 101.341 35.6502 101.613 35.5471C101.894 35.4439 102.035 35.322 102.035 35.1813H103.062C103.062 35.4439 102.982 35.6737 102.823 35.8707C102.663 36.0582 102.433 36.2083 102.133 36.3209C101.843 36.4334 101.566 36.5225 101.303 36.5882C101.05 36.6444 100.745 36.696 100.389 36.7429C99.4508 36.8742 98.7708 37.1322 98.3488 37.5167C97.9361 37.9013 97.6641 38.4124 97.5328 39.0502C98.1518 38.0841 99.0053 37.6011 100.093 37.6011C101.031 37.6011 101.796 37.9435 102.387 38.6281C102.977 39.3128 103.273 40.1523 103.273 41.1465C103.273 42.1594 102.968 43.0129 102.358 43.707C101.749 44.3917 100.937 44.734 99.9245 44.734ZM110.38 44.5652H109.325V43.7914C108.752 44.4198 108.002 44.734 107.074 44.734C106.445 44.734 105.892 44.5324 105.413 44.1291C104.935 43.7257 104.696 43.1771 104.696 42.483C104.696 41.7702 104.93 41.2215 105.399 40.837C105.878 40.443 106.436 40.2461 107.074 40.2461C108.04 40.2461 108.79 40.5556 109.325 41.1746V39.9506C109.325 39.5004 109.165 39.1487 108.846 38.8955C108.527 38.6422 108.115 38.5156 107.608 38.5156C106.811 38.5156 106.117 38.8298 105.526 39.4582L105.034 38.7266C105.756 37.9763 106.661 37.6011 107.749 37.6011C108.527 37.6011 109.16 37.7887 109.648 38.1639C110.136 38.539 110.38 39.1159 110.38 39.8943V44.5652ZM107.453 43.9743C108.298 43.9743 108.921 43.6929 109.325 43.1302V41.8499C108.921 41.2872 108.298 41.0058 107.453 41.0058C106.966 41.0058 106.562 41.1465 106.243 41.4278C105.934 41.6998 105.779 42.0562 105.779 42.4971C105.779 42.9285 105.934 43.2849 106.243 43.5663C106.562 43.8383 106.966 43.9743 107.453 43.9743Z" fill="#55607A"/>
<path fill-rule="evenodd" clip-rule="evenodd" d="M21.2547 20.6813L19.9439 24.1968L16.2543 25.6699L19.9439 26.8446L21.2547 30.5253L22.4717 26.8446L26.3035 25.6699L22.4717 24.1968L21.2547 20.6813Z" fill="#55607A"/>
<path fill-rule="evenodd" clip-rule="evenodd" d="M18.424 22.8324L19.7126 25.5474L18.4761 28.4253L21.2417 27.0453L24.1086 28.401L22.6716 25.6445L24.1608 22.8566L21.1425 24.1466L18.424 22.8324Z" fill="#55607A"/>
</svg>
