<svg width="154" height="48" viewBox="0 0 154 48" fill="none" xmlns="http://www.w3.org/2000/svg">
<path fill-rule="evenodd" clip-rule="evenodd" d="M25.463 29.1445C24.65 30.7578 23.1597 32.0723 23.1423 32.0524C23.1245 32.0723 21.6343 30.7578 20.8212 29.1445C20.0081 27.5326 19.4865 25.0004 19.4578 23.7909C19.4286 22.5811 19.6606 22.0631 19.6606 22.0631C19.6606 22.0631 20.6772 22.006 21.4903 21.7165C22.1802 21.4727 22.9311 20.855 23.1423 20.6752C23.3518 20.855 24.1043 21.4727 24.7956 21.7165C25.6073 22.006 26.6236 22.0631 26.6236 22.0631C26.6236 22.0631 26.8559 22.5811 26.8251 23.7909C26.7963 25.0004 26.2748 27.5326 25.463 29.1445ZM25.5397 34.6308C25.6455 34.8383 25.7064 35.2437 25.383 35.2749C25.2023 34.7908 24.9847 34.508 24.7156 34.1173C24.4659 33.8165 24.1907 33.506 23.9939 33.1659C24.4354 33.6954 25.3225 34.2236 25.5397 34.6308ZM23.9939 37.0908C24.0545 36.6167 23.9343 35.5576 23.7458 34.8383C23.6159 34.3542 23.1855 33.0842 23.3773 32.6298C23.4526 33.2281 23.6866 34.1631 24.0243 34.9299C24.264 35.4807 24.6165 36.7606 23.9939 37.0908ZM22.5371 34.8383C22.358 35.5576 22.2298 36.6167 22.2904 37.0908C21.6664 36.7606 22.0202 35.4807 22.2602 34.9299C22.5963 34.1631 22.83 33.2281 22.9053 32.6298C23.0991 33.0842 22.6683 34.3542 22.5371 34.8383ZM21.5767 34.1173C21.2982 34.508 21.0806 34.7908 20.9012 35.2749C20.5778 35.2437 20.6387 34.8383 20.7445 34.6308C20.9621 34.2236 21.8472 33.6954 22.2904 33.1659C22.0939 33.506 21.8184 33.8117 21.5767 34.1173ZM18.2507 28.8652C18.2667 28.9712 18.2811 29.0334 18.3257 29.1035C17.7479 29.1951 17.5015 29.4255 17.292 29.7999C16.9974 30.3052 17.3047 30.9574 17.2213 31.2272C17.1624 31.3954 16.9686 31.5574 16.661 31.4101C16.8099 32.0856 17.6361 32.0087 17.8533 31.6326C17.9273 31.9465 17.8533 32.3078 17.703 32.4449C17.9595 32.4596 18.177 32.3533 18.3113 32.1458C18.3417 32.208 18.3417 32.2931 18.3561 32.368C18.4987 32.2931 18.5901 32.208 18.649 32.1311C18.6714 32.2066 18.7002 32.3827 18.6651 32.5269C18.555 32.6035 18.4298 32.6739 18.2363 32.7751C17.9273 32.929 17.367 33.1512 17.0436 33.197C16.7795 33.2428 16.3219 33.089 16.2017 32.7129C16.0959 32.3533 15.8047 32.2391 15.5711 32.4596C15.5118 32.4138 15.3471 32.3827 15.2782 32.4924C15.2782 32.4924 15.2045 32.3225 15.1131 32.2391C15.1741 32.0541 15.1275 31.8319 14.9628 31.7567C14.9484 31.3954 14.7309 31.3954 14.6555 31.2726C14.611 31.1961 14.611 31.1027 14.7165 31.0884C14.6716 31.0197 14.5802 31.005 14.5658 31.005C14.5949 30.8511 14.5498 30.66 14.3482 30.5978L12.5684 26.8496C12.6819 26.7269 12.623 26.5505 12.4931 26.4879C12.4931 26.4879 12.4931 26.4732 12.4931 26.4588C12.5041 26.4291 12.5058 26.4062 12.5092 26.3836C12.557 26.3754 12.6149 26.3638 12.6662 26.3508C13.0183 26.266 13.567 25.7378 14.0409 25.4076C13.8742 25.584 13.1843 26.0975 12.877 26.3966C12.5905 26.6875 12.7107 26.9785 12.7572 27.2403L12.8245 27.3856C13.0853 27.402 13.4759 27.5624 13.7688 27.3169C13.8599 27.2253 15.1436 25.5987 15.315 25.4387C15.2494 25.584 14.438 26.627 14.0714 27.2253C13.7993 27.6766 14.1979 27.9757 14.2441 28.2355C14.5354 28.1442 14.934 28.3206 15.1436 27.961C15.3471 27.616 15.9697 26.3819 16.2017 26.0353C16.112 26.305 15.4509 27.7077 15.4064 27.8301C15.2494 28.3059 15.6464 28.3976 15.8047 28.7131C16.0447 28.5363 16.4789 28.6738 16.6453 28.2208C16.749 27.9152 17.0131 26.8496 17.1494 26.5652C17.1333 26.8804 17.0436 27.3022 16.983 27.7682C16.9221 28.2355 17.3509 28.2208 17.5752 28.4905C17.7927 28.3059 18.1914 28.3517 18.2507 27.9299C18.3113 27.5542 18.3257 26.6417 18.3257 26.6417C18.3866 26.6957 18.417 26.7104 18.4843 26.7727C18.633 26.5959 18.9423 26.5959 19.0464 26.3819C19.0926 26.3966 19.1069 26.4277 19.1518 26.4588C19.4896 27.0325 19.5183 28.1442 19.0464 28.5363C19.1823 28.5363 19.355 28.5199 19.4591 28.4745C19.2495 28.9107 18.7836 29.0645 18.2507 28.8652ZM12.8483 24.8486C12.7699 24.8811 12.6789 24.9222 12.6066 24.9533C12.6066 24.9468 12.6066 24.9386 12.6066 24.9321C12.6802 24.904 12.7716 24.8763 12.8483 24.8486ZM20.5477 15.418C21.3896 15.2333 22.2442 14.751 22.6284 14.3455C22.9468 14.3654 23.3582 14.3684 23.6705 14.3507C24.0498 14.7592 24.8933 15.2333 25.7352 15.418C25.2468 15.418 24.3922 15.3721 24.2868 15.2494C24.3172 15.5632 24.97 15.9181 25.3974 16.0162C25.0436 16.062 24.7156 16.0162 24.4354 15.887C24.5877 16.1095 24.7587 16.2777 25.0436 16.3776C24.7444 16.7536 24.1298 16.997 23.5199 16.9365C23.6705 17.1211 23.949 17.2357 24.1907 17.2045C23.6431 18.0972 23.2367 19.0127 23.1406 20.0735L23.1373 20.0721L23.1359 20.0752C23.0445 19.0127 22.6412 18.0972 22.0952 17.2045C22.3419 17.2357 22.6141 17.1211 22.755 16.9365C22.1401 16.997 21.5462 16.7536 21.2389 16.3776C21.5255 16.2777 21.6965 16.1095 21.8472 15.887C21.5767 16.0162 21.2389 16.062 20.8868 16.0162C21.3142 15.9181 21.9754 15.5632 22.0038 15.2494C21.892 15.3721 21.0374 15.418 20.5477 15.418ZM26.1627 35.7111C26.3515 36.0413 26.089 36.2782 25.7208 36.2782C25.7208 36.1493 25.7208 36.1032 25.6903 35.9483C25.8617 35.9319 26.0619 35.8666 26.1627 35.7111ZM20.5634 36.2782C20.1955 36.2782 19.9328 36.0413 20.1202 35.7111C20.2176 35.8601 20.4114 35.9302 20.5778 35.9483C20.5634 36.1032 20.5634 36.1493 20.5634 36.2782ZM12.0499 25.0774C12.0305 25.0774 12.0111 25.0774 11.9903 25.0774C11.9873 25.0726 11.984 25.0674 11.9793 25.0627C12.0064 25.0562 12.0355 25.0562 12.0609 25.048C12.0593 25.0579 12.0546 25.0674 12.0499 25.0774ZM11.6077 26.0353L11.4591 25.9457C11.5183 25.8749 11.5776 25.8749 11.6368 25.9142C11.6368 25.9604 11.6368 26.0059 11.6077 26.0353ZM11.3148 25.3929C11.3004 25.3929 11.3004 25.4076 11.286 25.4223C11.195 25.4076 11.195 25.2996 11.211 25.2079C11.2542 25.2079 11.286 25.1932 11.3148 25.1625L11.3292 25.1785L11.286 25.2079C11.3004 25.2702 11.3004 25.331 11.3148 25.3929ZM36.1618 21.3746C35.8401 21.177 35.3072 21.1066 34.7662 21.1606C35.6145 20.8615 36.1922 20.2174 36.2227 19.642C35.7808 19.5128 35.3216 19.5815 34.9246 19.6732C35.336 19.359 36.0115 18.784 35.9298 17.9402C35.5328 17.8404 34.803 18.1248 34.4954 18.264C35.4719 17.7033 35.824 16.3776 35.3072 15.6258C34.9999 15.8101 33.6023 17.2651 33.3767 17.4353C34.0988 16.5916 34.4365 15.9851 34.6317 15.418C34.8636 14.7985 34.878 13.7179 34.1289 13.3565C33.7754 14.1852 32.5365 16.3071 31.8466 17.1898C31.7713 17.1211 31.7107 17.0281 31.6129 17.0134C31.4479 17.5512 30.9595 18.264 30.5163 18.6072C30.4939 18.5614 30.4494 18.4387 30.3737 18.3081C29.9017 19.0291 28.6773 20.0181 28.2802 20.6246C27.9713 21.0755 27.9713 21.4826 28.4001 21.9045C28.5731 22.0809 28.9029 22.3947 28.618 22.8313C28.2304 23.4101 27.4511 23.4771 27.027 23.1369C27.027 23.034 27.0236 22.9359 27.0189 22.8443C27.5184 22.6467 27.6352 21.9517 27.267 21.5202C27.1856 21.6789 27.0524 21.7948 26.8927 21.8519C26.8496 21.672 26.8107 21.5842 26.8077 21.5756L26.7883 21.5332L26.7451 21.5315C26.7404 21.5302 26.5774 21.522 26.3324 21.4926C26.6092 21.3992 26.7866 21.1377 26.7485 20.7846C26.321 21.1606 25.8922 20.801 25.7944 20.7015C25.5256 20.3794 25.4503 20.0181 25.5558 19.4653C25.6455 18.9833 26.1335 18.2165 26.4556 17.9713C26.5021 18.0172 26.5757 18.1088 26.7324 18.0941C26.8234 18.0647 26.9741 17.986 27.0862 17.9402C27.4096 17.8404 27.7249 17.9173 27.9281 18.0483C28.2946 18.277 28.2642 18.5303 28.2515 18.7152C28.8115 18.3932 28.618 17.8568 27.8832 17.6575C28.3857 17.6575 28.7988 18.1248 28.9029 18.1854C29.1814 18.3932 29.5784 18.3471 29.8104 18.2329C30.2556 18.0172 30.3449 17.4808 30.2251 17.3731C30.1802 17.5659 30.0376 17.7344 29.7799 17.7655C29.399 17.811 29.0294 17.6408 28.7382 17.5102C28.4915 17.4042 28.0915 17.3273 27.8223 17.3433C28.3251 17.0593 29.1061 17.0904 29.3829 17.5266C29.5496 17.3895 29.6537 17.2651 29.6999 16.9823C29.8425 16.2172 29.2567 15.8248 28.6324 15.8248C28.6485 15.6405 28.5203 15.5485 28.3556 15.6108C28.3556 15.5325 28.3348 15.472 28.293 15.4409C28.3074 15.4392 28.3268 15.4327 28.3395 15.4327C28.9702 15.3886 29.564 15.1889 29.8857 14.844C30.4494 14.2293 29.5496 13.4481 29.8713 12.8434C30.1802 12.9805 30.4059 13.1572 30.8317 13.2177C30.8765 13.311 30.915 13.4939 30.9294 13.5934C31.0653 14.2768 30.4059 14.3913 30.5773 15.1188C30.6522 15.4491 30.8943 15.5632 30.9756 15.9557C30.9756 15.9557 31.0064 16.2302 30.7724 16.4692C31.3137 16.4839 31.5986 16.0162 31.4322 15.5797C31.3582 15.4033 31.1694 15.2333 31.1694 15.0275C31.4479 15.4033 31.6963 15.3886 32.1234 15.2494C32.3186 15.1889 32.3347 15.4655 32.2131 15.6877C32.506 15.5092 32.583 15.2183 32.583 15.0894C32.583 14.7821 32.349 14.6365 32.1234 14.6987C31.9972 14.7134 31.7408 14.8898 31.7264 14.6365C31.6735 14.1999 32.349 14.2149 32.2131 13.5103C32.1395 13.1572 31.7552 12.964 31.155 12.8888C31.0958 12.827 30.9451 12.6813 30.8638 12.5586C30.5341 12 30.1946 11.8544 29.9911 11.9685C29.7511 12.0913 29.6249 12.1993 29.4298 12.3056C29.2711 12.3904 29.1061 12.4362 29.0006 12.5586C28.7382 12.8888 28.9862 13.4023 29.1205 13.7179C29.2118 13.9008 29.4298 14.323 29.332 14.6365C29.2262 15.0125 28.618 15.2494 28.2515 15.3267C28.2274 15.3267 28.213 15.3345 28.1892 15.3345V15.1889C28.2946 14.9961 28.3857 14.7674 28.461 14.5595C28.7091 13.8843 28.3395 13.6102 27.7935 13.4792C27.7249 13.4334 27.6496 13.417 27.5602 13.4481H27.5441L27.5294 13.5623L27.4544 13.5397L27.4705 13.4023H27.438C27.5006 13.3565 27.5294 13.2796 27.5294 13.203C27.5294 13.1196 27.5006 13.0574 27.4705 13.0116H27.5441L27.5133 12.9805C27.5006 12.9493 27.4705 12.9199 27.424 12.8728C27.4096 12.8581 27.3952 12.827 27.3952 12.8123C27.4096 12.827 27.424 12.8434 27.4544 12.8581C27.4846 12.8888 27.5294 12.9199 27.5441 12.9493L27.5887 12.9805V12.3528L27.5441 12.3904C27.5294 12.4054 27.4846 12.4362 27.4544 12.4673C27.424 12.4984 27.4096 12.4984 27.3952 12.5131C27.3952 12.4984 27.4096 12.482 27.424 12.4509C27.4705 12.4215 27.5006 12.374 27.5133 12.3528L27.5441 12.3056H26.9292L26.9597 12.3528C26.9885 12.374 27.027 12.4215 27.0574 12.4509C27.0718 12.482 27.0862 12.4984 27.102 12.5131C27.0862 12.4984 27.0574 12.4984 27.0414 12.4673C26.9885 12.4362 26.9597 12.4054 26.9292 12.3904L26.8991 12.3528V12.9805L26.9292 12.9493C26.9597 12.9199 26.9885 12.8888 27.0414 12.8581C27.0574 12.8434 27.0862 12.827 27.102 12.8123C27.0862 12.827 27.0718 12.8581 27.0574 12.8728C27.027 12.9199 26.9885 12.9493 26.9597 12.9805L26.9292 13.0116H27.027C26.9741 13.0574 26.9597 13.1196 26.9597 13.203C26.9597 13.2796 26.9885 13.3565 27.0414 13.4023H27.027L27.0414 13.5397L26.9597 13.5623L26.9436 13.4481H26.9292C26.8395 13.417 26.7645 13.4334 26.7036 13.4792C26.1479 13.6102 25.7801 13.8843 26.0281 14.5595C26.1034 14.7674 26.1948 14.9961 26.3066 15.1889V15.2887C25.7496 15.1041 24.7507 14.483 24.4819 14.1069C24.4515 14.0693 24.429 14.0382 24.4146 14.0156L24.4116 14.017L24.4227 13.6102C24.6165 13.2796 24.7892 12.8728 24.9255 12.4984C25.2776 11.5241 24.7587 11.1187 23.9343 10.9484C23.8513 10.8882 23.7458 10.8571 23.6113 10.9029L23.5821 11.0564L23.4097 11.0417L23.4238 10.8424C23.3937 10.8571 23.3645 10.8571 23.3344 10.8571C23.4526 10.7966 23.5359 10.6493 23.5359 10.4975C23.5359 10.3898 23.483 10.2589 23.3937 10.1984H23.5359C23.4526 10.1214 23.3184 9.95939 23.2892 9.85342C23.3937 9.88282 23.552 10.0281 23.6256 10.1067V9.30883C23.552 9.36968 23.3937 9.52317 23.2892 9.53787C23.3184 9.44796 23.4526 9.29276 23.5359 9.21584H22.755C22.8156 9.29276 22.9659 9.44796 22.9803 9.53787C22.8892 9.52317 22.7406 9.36968 22.6572 9.30883V10.1067C22.7406 10.0281 22.8892 9.88282 22.9803 9.85342C22.9659 9.95939 22.8156 10.1214 22.755 10.1984H22.8892C22.7998 10.2589 22.755 10.3898 22.755 10.4975C22.755 10.6493 22.83 10.7966 22.9501 10.8571C22.9197 10.8571 22.8892 10.8571 22.8444 10.8424L22.8604 11.0417L22.6874 11.0564L22.6716 10.9029C22.5371 10.8571 22.4333 10.8882 22.3419 10.9484C21.5255 11.1187 21.0053 11.5241 21.3591 12.4984C21.4793 12.8728 21.652 13.2796 21.8615 13.6102V14.0317C21.8472 14.0464 21.8314 14.0775 21.8023 14.1069C21.5399 14.483 20.5333 15.1041 19.9776 15.2887V15.1889C20.0898 14.9961 20.1811 14.7674 20.2561 14.5595C20.5045 13.8843 20.1363 13.6102 19.5806 13.4792C19.5183 13.4334 19.4464 13.417 19.355 13.4481H19.3406L19.3245 13.5623L19.2496 13.5397L19.2639 13.4023H19.2496C19.2941 13.3565 19.3245 13.2796 19.3245 13.203C19.3245 13.1196 19.3101 13.0574 19.2639 13.0116H19.355L19.3245 12.9805C19.2941 12.9493 19.2639 12.9199 19.2348 12.8728C19.2204 12.8581 19.1983 12.827 19.1823 12.8123C19.1983 12.827 19.2348 12.8434 19.2496 12.8581C19.2941 12.8888 19.3245 12.9199 19.355 12.9493L19.3855 12.9805V12.3528L19.355 12.3904C19.3245 12.4054 19.2941 12.4362 19.2496 12.4673C19.2348 12.4984 19.1983 12.4984 19.1823 12.5131C19.1983 12.4984 19.2204 12.482 19.2348 12.4509C19.2639 12.4215 19.2941 12.374 19.3245 12.3528L19.355 12.3056H18.7401L18.7692 12.3528C18.7836 12.374 18.8221 12.4215 18.8525 12.4509C18.8813 12.482 18.8957 12.4984 18.8957 12.5131C18.8813 12.4984 18.8669 12.4984 18.8378 12.4673C18.7997 12.4362 18.7535 12.4054 18.7401 12.3904L18.6939 12.3528V12.9805L18.7401 12.9493C18.7535 12.9199 18.7997 12.8888 18.8378 12.8581C18.8669 12.8434 18.8813 12.827 18.8957 12.8123C18.8957 12.827 18.8813 12.8581 18.8525 12.8728C18.8221 12.9199 18.7836 12.9493 18.7692 12.9805L18.7401 13.0116H18.8221C18.7836 13.0574 18.7535 13.1196 18.7535 13.203C18.7535 13.2796 18.7836 13.3565 18.8525 13.4023H18.8221L18.8378 13.5397L18.7535 13.5623L18.7401 13.4481H18.7243C18.633 13.417 18.5596 13.4334 18.4987 13.4792C17.9434 13.6102 17.5752 13.8843 17.8232 14.5595C17.8985 14.7674 17.9896 14.9961 18.1017 15.1889V15.3345C18.0776 15.3345 18.0569 15.3267 18.0408 15.3267C17.6729 15.2494 17.058 15.0125 16.9525 14.6365C16.8548 14.323 17.0741 13.9008 17.1624 13.7179C17.3047 13.4023 17.5464 12.8888 17.292 12.5586C17.1782 12.4362 17.0131 12.3904 16.8548 12.3056C16.661 12.1993 16.5395 12.0913 16.2931 11.9685C16.0959 11.8544 15.7599 12 15.4208 12.5586C15.3471 12.6813 15.1888 12.827 15.1275 12.8888C14.5354 12.964 14.1528 13.1572 14.0714 13.5103C13.9338 14.2149 14.611 14.1999 14.5658 14.6365C14.5498 14.8898 14.289 14.7134 14.1671 14.6987C13.9338 14.6365 13.7015 14.7821 13.7015 15.0894C13.7015 15.2183 13.7849 15.5092 14.0714 15.6877C13.9512 15.4655 13.9656 15.1889 14.1671 15.2494C14.5949 15.3886 14.8346 15.4033 15.1131 15.0275C15.1131 15.2333 14.934 15.4033 14.8524 15.5797C14.686 16.0162 14.9628 16.4839 15.5118 16.4692C15.2638 16.2302 15.315 15.9557 15.315 15.9557C15.392 15.5632 15.632 15.4491 15.7137 15.1188C15.8804 14.3913 15.2189 14.2768 15.3615 13.5934C15.3759 13.4939 15.4064 13.311 15.4509 13.2177C15.8804 13.1572 16.112 12.9805 16.4113 12.8434C16.7202 13.4481 15.8335 14.2293 16.3969 14.844C16.7202 15.1889 17.3208 15.3886 17.9434 15.4327C17.9561 15.4327 17.9769 15.4409 17.9929 15.4426C17.9497 15.472 17.9273 15.5325 17.9273 15.6108C17.764 15.5485 17.6361 15.6405 17.6585 15.8248C17.0131 15.8248 16.4434 16.2172 16.5843 16.9823C16.6292 17.2651 16.7346 17.3895 16.9077 17.5266C17.1782 17.0904 17.9595 17.0593 18.4683 17.3433C18.1914 17.3273 17.7927 17.4042 17.5464 17.5102C17.2598 17.6408 16.8933 17.811 16.5107 17.7655C16.2466 17.7344 16.112 17.5659 16.0591 17.3731C15.9393 17.4808 16.029 18.0172 16.4789 18.2329C16.7045 18.3471 17.1028 18.3932 17.38 18.1854C17.4855 18.1248 17.8985 17.6575 18.4027 17.6575C17.6729 17.8568 17.4697 18.3932 18.0408 18.7152C18.0184 18.5303 17.9896 18.277 18.3561 18.0483C18.5596 17.9173 18.8813 17.8404 19.1983 17.9402C19.3101 17.986 19.4591 18.0647 19.5505 18.0941C19.7071 18.1088 19.7825 18.0172 19.827 17.9713C20.1507 18.2165 20.6227 18.9833 20.7284 19.4653C20.8406 20.0181 20.7589 20.3794 20.4884 20.7015C20.3987 20.801 19.9632 21.1606 19.5361 20.7846C19.4959 21.136 19.6737 21.3979 19.9505 21.4926C19.7025 21.5202 19.5361 21.5302 19.5311 21.5315L19.4879 21.5332L19.4705 21.5756C19.4655 21.5842 19.4286 21.672 19.3838 21.8505C19.2285 21.79 19.0972 21.6772 19.0172 21.5202C18.649 21.9503 18.7628 22.6402 19.2576 22.8409C19.2526 22.9359 19.2496 23.0374 19.2496 23.1417C18.8251 23.4754 18.0538 23.4067 17.6729 22.8313C17.38 22.3947 17.7174 22.0809 17.8841 21.9045C18.3113 21.4826 18.3113 21.0755 18.0023 20.6246C17.6056 20.0181 16.3811 19.0291 15.9105 18.3081C15.8335 18.4387 15.789 18.5614 15.7726 18.6072C15.331 18.264 14.8346 17.5512 14.6716 17.0134C14.5802 17.0281 14.5133 17.1211 14.438 17.1898C13.7544 16.3071 12.5092 14.1852 12.157 13.3565C11.4125 13.7179 11.4269 14.7985 11.6542 15.418C11.8544 15.9851 12.1938 16.5916 12.9058 17.4353C12.6819 17.2651 11.286 15.8101 10.9774 15.6258C10.4602 16.3776 10.8124 17.7033 11.7871 18.264C11.4879 18.1248 10.7518 17.8404 10.3548 17.9402C10.2794 18.784 10.9469 19.359 11.36 19.6732C10.963 19.5815 10.5051 19.5128 10.0619 19.642C10.092 20.2174 10.6764 20.8615 11.5023 21.1606C10.9774 21.1066 10.4445 21.177 10.1208 21.3746C10.1817 21.9729 10.8428 22.4881 11.6368 22.6108C11.1036 22.671 10.6313 22.9099 10.3849 23.2385C10.6764 23.6292 11.1036 23.9283 11.7583 23.9136C11.6077 23.9673 11.435 24.0736 11.286 24.2193C11.2703 24.2042 11.2398 24.1895 11.211 24.1895C11.1789 24.2042 11.1662 24.2504 11.1789 24.2812C11.1789 24.2812 11.1789 24.2812 11.1789 24.3041C11.1166 24.3499 11.0815 24.4022 11.0748 24.4579C11.0139 24.5461 10.9516 24.6507 10.9178 24.7406C10.9339 24.7488 10.9469 24.7635 10.963 24.7717C10.9566 24.824 10.9677 24.8828 11.0062 24.9403C10.9774 24.971 10.963 25.0168 10.9469 25.0627L10.5643 24.9088C10.5436 25.2637 10.6202 25.5563 10.7963 25.7378C10.9339 25.8978 11.0895 25.8749 11.0447 25.9293L11.4591 26.1888C11.5327 26.3508 11.683 26.3508 11.7871 26.305C11.7871 26.305 11.7871 26.3197 11.7871 26.3361C11.7871 26.5043 11.9006 26.6417 12.0499 26.6957C12.0211 26.8349 12.08 26.9262 12.2688 26.9884L13.8297 30.8511C13.7688 31.0344 13.8297 31.1961 13.9656 31.2566C13.9338 31.3024 13.905 31.3496 13.905 31.4412C13.9656 31.3954 14.0553 31.3793 14.1002 31.5099C14.129 31.6015 13.9656 31.9006 14.2137 32.1003C14.1815 32.2767 14.2729 32.4596 14.4523 32.5382C14.4523 32.6298 14.5354 32.929 14.5498 33.035C14.438 33.197 14.1815 33.4421 14.2137 33.7101C14.2441 33.9033 14.3178 33.9638 14.4681 34.0093C14.4075 34.3542 14.5949 34.5081 14.8812 34.5245C14.8812 34.7761 15.1131 34.8677 15.2638 34.8824C15.4064 34.9901 15.467 35.0359 15.632 35.121C15.4813 35.3039 15.5871 35.5429 15.864 35.6198C15.8948 35.7258 15.9697 35.8191 16.1264 35.8567C16.2178 36.0102 16.3811 36.0102 16.4789 35.9644C16.5395 35.9336 16.6452 35.7569 16.5539 35.6034C16.6148 35.5265 16.5843 35.3808 16.5395 35.2892C16.6292 35.121 16.5539 34.9135 16.4273 34.853C16.4434 34.7597 16.3969 34.6144 16.3667 34.5245C16.5843 34.3853 16.8548 34.2089 16.9525 34.1484C17.4855 33.7577 18.0856 33.411 18.7692 33.3652C18.9423 33.3491 19.2639 33.3344 19.4464 33.3491C19.7232 33.3799 20.1058 33.465 20.3301 33.2883C20.3987 33.2428 20.4436 33.1659 20.4292 33.089C20.3987 32.9126 20.2113 32.7587 20.1507 32.5987C20.1346 32.5495 20.1058 32.4791 20.077 32.4155C20.2722 32.4514 20.4516 32.422 20.5634 32.368C20.6836 32.3225 20.9765 32.1003 20.9621 31.7714C20.7284 31.8859 20.1651 32.0394 20.1058 31.4559C20.0449 30.9427 20.4884 30.5062 21.1797 30.6976C21.652 30.82 22.3419 31.8466 21.7113 32.2931C21.4036 32.5071 20.9316 32.7129 20.9922 33.2739C21.1941 33.0203 21.4632 32.8979 21.8154 32.929C21.2982 33.3197 20.9012 33.3652 20.3602 33.6643C19.8882 33.9474 19.5361 34.4164 19.1662 34.4311C18.8813 34.4458 18.7243 34.1009 19.0012 33.8329C18.7243 33.7724 18.3561 33.9946 18.2507 34.2923C18.1161 34.6992 18.2202 34.9901 18.4683 35.1521C18.1322 35.335 17.8841 35.6964 18.0023 36.2095C18.1161 36.6314 18.5292 36.6314 18.3722 37.1678C18.6045 37.1055 18.7535 36.9452 18.8221 36.7148C18.8525 36.5548 18.8813 36.3863 18.958 36.3093C18.9262 36.6314 19.107 37.1055 19.5361 37.3213C19.827 37.4669 20.2866 37.5274 20.6387 37.1531C20.7813 37.5746 21.2677 37.9342 21.7722 37.9195C22.0038 37.9195 22.2298 37.818 22.4025 37.7134C22.5227 38.0258 22.83 38.3414 23.1373 38.4935C23.4526 38.3414 23.7616 38.0258 23.8881 37.7134C24.0545 37.818 24.2868 37.9195 24.5124 37.9195C24.9991 37.9342 25.5096 37.5746 25.6455 37.1531C25.9976 37.5274 26.4556 37.4669 26.7485 37.3213C27.1776 37.1055 27.3567 36.6314 27.3279 36.3093C27.4096 36.3863 27.438 36.5548 27.4705 36.7148C27.5294 36.9452 27.6784 37.1055 27.912 37.1678C27.7554 36.6314 28.1761 36.6314 28.2802 36.2095C28.4001 35.6964 28.1524 35.335 27.8223 35.1521C28.0627 34.9901 28.1761 34.6992 28.0322 34.2923C27.9281 33.9946 27.5602 33.7724 27.2814 33.8329C27.5602 34.1009 27.4096 34.4458 27.1163 34.4311C26.7485 34.4164 26.3963 33.9474 25.9227 33.6643C25.383 33.3652 24.9847 33.3197 24.4675 32.929C24.8197 32.8979 25.0982 33.0203 25.292 33.2739C25.3526 32.7129 24.8806 32.5071 24.5713 32.2931C23.949 31.8466 24.6326 30.82 25.1126 30.6976C25.7944 30.5062 26.2457 30.9427 26.1787 31.4559C26.1034 32.0394 25.5558 31.8859 25.3081 31.7714C25.3081 32.1003 25.5993 32.3225 25.7208 32.368C25.8617 32.4367 26.1208 32.4726 26.3545 32.3714C26.3468 32.4285 26.3371 32.491 26.3371 32.5071C26.2909 33.0056 26.0281 33.0514 26.1178 33.2575C26.2457 33.411 27.0862 33.3799 27.3118 33.4274C27.7105 33.4814 28.0483 33.6336 28.4309 33.7101C28.858 33.8021 29.3159 33.8021 29.6999 33.9638C29.9466 34.0715 30.2251 34.2776 30.4651 34.4C30.8317 34.4622 30.7724 34.6144 31.0064 34.6144C31.2159 34.6144 31.2973 34.4311 31.5681 34.3542C31.7552 34.3087 31.9648 34.3853 32.1522 34.3234C32.2885 34.2923 32.349 34.1484 32.4773 34.0715C32.6276 33.9785 32.8374 33.9785 32.98 33.8476C33.055 33.7806 33.0694 33.6496 33.058 33.5583L33.0614 33.5795C33.3479 33.3734 33.5655 33.0743 33.6857 32.7276C33.7607 32.7129 33.8202 32.6445 33.8202 32.5676C33.8202 32.5529 33.8202 32.5382 33.8202 32.5382C33.8952 32.476 33.9401 32.3827 33.9401 32.2931C33.9401 32.1769 33.8952 32.0856 33.8202 32.0087C33.8202 32.0087 33.8202 31.9923 33.8202 31.9776C33.8202 31.9171 33.7898 31.8712 33.7607 31.8319C33.6408 31.1649 33.1447 30.6289 32.506 30.4604C32.506 30.444 32.506 30.444 32.506 30.4293H32.4916C32.4916 30.3981 32.4773 30.3821 32.4548 30.3821C32.3634 30.2905 32.2577 30.1465 32.2449 30.0532C32.349 30.0847 32.5221 30.2529 32.6115 30.3216V29.4402C32.5221 29.509 32.349 29.6775 32.2449 29.7086C32.2577 29.6006 32.4227 29.4091 32.506 29.3326H31.6287C31.7107 29.4091 31.8754 29.6006 31.8898 29.7086C31.7857 29.6775 31.6129 29.509 31.5232 29.4402V30.3216C31.6129 30.2529 31.7857 30.0847 31.8898 30.0532C31.8754 30.1612 31.7107 30.3527 31.6287 30.4293L31.6591 30.444C31.0064 30.5978 30.4795 31.1502 30.3593 31.8319C30.3148 31.8712 30.2844 31.9171 30.2844 31.9776C30.2844 31.9923 30.2844 32.0087 30.2844 32.0087C30.209 32.0856 30.1642 32.1769 30.1642 32.2931C30.1642 32.3827 30.209 32.476 30.2844 32.5382C30.2844 32.5382 30.2844 32.5529 30.2844 32.5676C30.2844 32.6674 30.3449 32.7129 30.4189 32.7276C30.4494 32.8127 30.4859 32.8979 30.5244 32.9748C30.5244 32.9666 30.5244 32.9666 30.5341 32.9584C30.4795 33.2117 30.1802 33.3652 30.113 33.3652C29.5784 33.4421 28.9862 33.2117 28.4453 33.0056C28.2066 32.9126 27.8832 32.8062 27.7249 32.5676C27.6272 32.3943 27.5857 32.2849 27.6352 32.1311C27.6944 32.208 27.7935 32.2931 27.9281 32.368C27.9425 32.2931 27.9425 32.208 27.9713 32.1458C28.1089 32.3533 28.3251 32.4596 28.5875 32.4449C28.4309 32.3078 28.3556 31.9465 28.4309 31.6326C28.6485 32.0087 29.4743 32.0856 29.6249 31.4101C29.3159 31.5574 29.1205 31.3954 29.0612 31.2272C28.9702 30.9574 29.2711 30.3052 29.0006 29.7999C28.7827 29.4255 28.5367 29.1951 27.9586 29.1035C28.0034 29.0334 28.0178 28.9712 28.0322 28.8652C27.5006 29.0645 27.0414 28.9107 26.8234 28.4745C26.9292 28.5199 27.0862 28.5363 27.2365 28.5363C26.7645 28.1442 26.7933 27.0325 27.1324 26.4588C27.1776 26.4277 27.192 26.3966 27.2365 26.3819C27.3406 26.5959 27.6496 26.5959 27.8062 26.7727C27.8675 26.7104 27.8976 26.6957 27.9586 26.6417C27.9586 26.6417 27.9713 27.5542 28.0322 27.9299C28.0915 28.3517 28.4915 28.3059 28.6933 28.4905C28.9333 28.2208 29.3685 28.2355 29.3015 27.7682C29.2406 27.3022 29.1509 26.8804 29.1369 26.5652C29.2711 26.8496 29.5335 27.9152 29.6393 28.2208C29.8104 28.6738 30.2395 28.5363 30.4795 28.7131C30.6378 28.3976 31.0352 28.3059 30.8765 27.8301C30.8317 27.7077 30.1802 26.305 30.0825 26.0353C30.3148 26.3819 30.9451 27.616 31.1406 27.961C31.3582 28.3206 31.7552 28.1442 32.0401 28.2355C32.0946 27.9757 32.4773 27.6766 32.1987 27.2253C31.8466 26.627 31.0208 25.584 30.9756 25.4387C31.1406 25.5987 32.4227 27.2253 32.5221 27.3169C32.8214 27.5849 33.2565 27.3774 33.5126 27.3774C33.5126 27.08 33.7449 26.7416 33.4088 26.3966C33.0999 26.0975 32.3942 25.584 32.2449 25.4076C32.7156 25.7378 33.2726 26.266 33.6023 26.3508C34.1881 26.5043 34.398 26.266 34.6173 26.1741C34.4365 25.6302 34.6765 25.3782 33.4376 24.8486C34.5098 25.2394 34.9838 25.0462 35.3664 24.7406C35.2158 24.3499 34.8332 24.0213 34.5242 23.9136C35.179 23.9283 35.6145 23.6292 35.8993 23.2385C35.6593 22.9099 35.179 22.671 34.6317 22.6108C35.4414 22.4881 36.0868 21.9729 36.1618 21.3746Z" fill="#55607A"/>
<path d="M23.1423 45.6958C35.0899 45.6958 44.7753 35.8043 44.7753 23.6026C44.7753 11.4008 35.0899 1.50928 23.1423 1.50928C11.1947 1.50928 1.50928 11.4008 1.50928 23.6026C1.50928 35.8043 11.1947 45.6958 23.1423 45.6958Z" stroke="#55607A" stroke-width="3"/>
<path d="M54.8371 16.9234V36.4477" stroke="#55607A" stroke-linecap="square"/>
<path d="M72.6627 14.0758H71.4935V13.1602C70.1412 13.0663 69.0753 12.6812 68.2959 12.0051C67.5164 11.3289 67.1267 10.4555 67.1267 9.38496C67.1267 8.32376 67.5164 7.45509 68.2959 6.77893C69.0753 6.10278 70.1412 5.71774 71.4935 5.62383V4.68003H72.6627V5.62383C74.0056 5.71774 75.0715 6.10747 75.8604 6.79302C76.6492 7.46918 77.0437 8.33316 77.0437 9.38496C77.0437 10.4555 76.6492 11.3289 75.8604 12.0051C75.0809 12.6812 74.015 13.0663 72.6627 13.1602V14.0758ZM74.987 11.2444C75.5505 10.7561 75.8322 10.1362 75.8322 9.38496C75.8322 8.63367 75.5505 8.01386 74.987 7.52552C74.4235 7.03719 73.6488 6.75076 72.6627 6.66624V12.1037C73.6488 12.0192 74.4235 11.7327 74.987 11.2444ZM69.1692 7.52552C68.6152 8.01386 68.3381 8.63367 68.3381 9.38496C68.3381 10.1362 68.6152 10.7561 69.1692 11.2444C69.7327 11.7327 70.5075 12.0192 71.4935 12.1037V6.66624C70.5075 6.75076 69.7327 7.03719 69.1692 7.52552ZM81.8847 14.2448C80.8705 14.2448 80.0394 13.9161 79.3914 13.2588C78.7434 12.592 78.4194 11.728 78.4194 10.6668C78.4194 9.67138 78.7387 8.83088 79.3773 8.14533C80.0159 7.45039 80.8141 7.10293 81.772 7.10293C82.7769 7.10293 83.5704 7.45039 84.1527 8.14533C84.7443 8.83088 85.0401 9.69956 85.0401 10.7514V11.019H79.5323C79.5792 11.6858 79.8234 12.2445 80.2648 12.6953C80.7061 13.1461 81.279 13.3715 81.9833 13.3715C82.8285 13.3715 83.5282 13.085 84.0822 12.5122L84.5893 13.2024C83.8944 13.8974 82.9929 14.2448 81.8847 14.2448ZM83.9977 10.2442C83.9883 9.66199 83.7911 9.14079 83.4061 8.68063C83.021 8.21107 82.4717 7.97629 81.7579 7.97629C81.0818 7.97629 80.5465 8.20638 80.1521 8.66654C79.767 9.1267 79.5604 9.6526 79.5323 10.2442H83.9977ZM85.9484 15.8084V13.2024C86.2958 13.1367 86.5682 12.9301 86.7654 12.5826C86.9626 12.2258 87.1223 11.5731 87.2443 10.6246L87.681 7.27197H92.4141V13.1461H93.203V15.8084H92.1465V14.0758H87.0049V15.8084H85.9484ZM88.6107 8.20168L88.3008 10.7514C88.1412 11.944 87.8125 12.7423 87.3148 13.1461H91.3576V8.20168H88.6107ZM97.7184 14.2448C96.7042 14.2448 95.873 13.9161 95.2251 13.2588C94.5771 12.592 94.2531 11.728 94.2531 10.6668C94.2531 9.67138 94.5724 8.83088 95.211 8.14533C95.8496 7.45039 96.6478 7.10293 97.6057 7.10293C98.6105 7.10293 99.4041 7.45039 99.9863 8.14533C100.578 8.83088 100.874 9.69956 100.874 10.7514V11.019H95.3659C95.4129 11.6858 95.657 12.2445 96.0984 12.6953C96.5398 13.1461 97.1127 13.3715 97.817 13.3715C98.6622 13.3715 99.3618 13.085 99.9159 12.5122L100.423 13.2024C99.7281 13.8974 98.8265 14.2448 97.7184 14.2448ZM99.8314 10.2442C99.822 9.66199 99.6248 9.14079 99.2397 8.68063C98.8547 8.21107 98.3053 7.97629 97.5916 7.97629C96.9155 7.97629 96.3802 8.20638 95.9857 8.66654C95.6007 9.1267 95.3941 9.6526 95.3659 10.2442H99.8314ZM105.938 14.2448C104.98 14.2448 104.214 13.8457 103.641 13.0475V16.6677H102.585V7.27197H103.641V8.2862C103.895 7.92934 104.224 7.64291 104.628 7.42692C105.031 7.21092 105.468 7.10293 105.938 7.10293C106.839 7.10293 107.567 7.42692 108.121 8.0749C108.684 8.71349 108.966 9.57747 108.966 10.6668C108.966 11.7562 108.684 12.6249 108.121 13.2729C107.567 13.9208 106.839 14.2448 105.938 14.2448ZM105.67 13.301C106.337 13.301 106.867 13.0569 107.262 12.5685C107.656 12.0708 107.853 11.4369 107.853 10.6668C107.853 9.89677 107.656 9.26757 107.262 8.77923C106.867 8.2909 106.337 8.04673 105.67 8.04673C105.266 8.04673 104.872 8.15473 104.487 8.37072C104.111 8.57732 103.829 8.83088 103.641 9.1314V12.2023C103.829 12.5122 104.111 12.7751 104.487 12.9911C104.872 13.1977 105.266 13.301 105.67 13.301ZM115.957 14.0758H114.9V13.301C114.328 13.9302 113.576 14.2448 112.647 14.2448C112.017 14.2448 111.463 14.0429 110.984 13.6391C110.505 13.2353 110.266 12.6859 110.266 11.991C110.266 11.2773 110.501 10.7279 110.97 10.3428C111.449 9.94842 112.008 9.75121 112.647 9.75121C113.614 9.75121 114.365 10.0611 114.9 10.6809V9.45539C114.9 9.00462 114.741 8.65245 114.421 8.39889C114.102 8.14533 113.689 8.01856 113.182 8.01856C112.384 8.01856 111.689 8.33316 111.097 8.96236L110.604 8.22985C111.327 7.47857 112.233 7.10293 113.323 7.10293C114.102 7.10293 114.736 7.29075 115.224 7.66639C115.713 8.04203 115.957 8.61958 115.957 9.39904V14.0758ZM113.027 13.4842C113.872 13.4842 114.497 13.2024 114.9 12.639V11.3571C114.497 10.7936 113.872 10.5119 113.027 10.5119C112.539 10.5119 112.135 10.6527 111.815 10.9345C111.506 11.2068 111.351 11.5637 111.351 12.0051C111.351 12.4371 111.506 12.7939 111.815 13.0756C112.135 13.348 112.539 13.4842 113.027 13.4842ZM117.272 14.2448V13.3715C117.591 13.3715 117.854 13.1602 118.061 12.7376C118.267 12.315 118.436 11.6106 118.568 10.6246L119.004 7.27197H123.738V14.0758H122.681V8.20168H119.934L119.624 10.7514C119.474 12.0004 119.211 12.8972 118.835 13.4419C118.46 13.9772 117.939 14.2448 117.272 14.2448ZM125.847 7.27197H126.904V9.90616H129.453C130.129 9.90616 130.655 10.1081 131.031 10.5119C131.407 10.9063 131.594 11.3993 131.594 11.991C131.594 12.5826 131.402 13.0803 131.017 13.4842C130.641 13.8786 130.12 14.0758 129.453 14.0758H125.847V7.27197ZM129.341 10.8359H126.904V13.1461H129.341C129.716 13.1461 130.003 13.0428 130.2 12.8362C130.406 12.6202 130.51 12.3384 130.51 11.991C130.51 11.6435 130.406 11.3665 130.2 11.1599C130.003 10.9439 129.716 10.8359 129.341 10.8359ZM134.263 14.0758H133.207V7.27197H134.263V10.1034H137.813V7.27197H138.87V14.0758H137.813V11.0331H134.263V14.0758ZM146.29 14.0758H145.233V13.301C144.661 13.9302 143.909 14.2448 142.98 14.2448C142.35 14.2448 141.796 14.0429 141.317 13.6391C140.838 13.2353 140.599 12.6859 140.599 11.991C140.599 11.2773 140.834 10.7279 141.303 10.3428C141.782 9.94842 142.341 9.75121 142.98 9.75121C143.947 9.75121 144.698 10.0611 145.233 10.6809V9.45539C145.233 9.00462 145.074 8.65245 144.754 8.39889C144.435 8.14533 144.022 8.01856 143.515 8.01856C142.717 8.01856 142.022 8.33316 141.43 8.96236L140.937 8.22985C141.66 7.47857 142.566 7.10293 143.656 7.10293C144.435 7.10293 145.069 7.29075 145.557 7.66639C146.046 8.04203 146.29 8.61958 146.29 9.39904V14.0758ZM143.36 13.4842C144.205 13.4842 144.83 13.2024 145.233 12.639V11.3571C144.83 10.7936 144.205 10.5119 143.36 10.5119C142.872 10.5119 142.468 10.6527 142.148 10.9345C141.839 11.2068 141.684 11.5637 141.684 12.0051C141.684 12.4371 141.839 12.7939 142.148 13.0756C142.468 13.348 142.872 13.4842 143.36 13.4842ZM149.422 14.0758H148.182L149.999 11.3993C149.483 11.3336 149.06 11.1176 148.732 10.7514C148.412 10.3851 148.253 9.92025 148.253 9.35678C148.253 8.75575 148.445 8.25803 148.83 7.8636C149.215 7.46918 149.741 7.27197 150.408 7.27197H154V14.0758H152.944V11.4416H151.084L149.422 14.0758ZM150.521 10.5119H152.944V8.20168H150.521C150.154 8.20168 149.863 8.30968 149.647 8.52567C149.441 8.73228 149.337 9.00931 149.337 9.35678C149.337 9.70425 149.441 9.98598 149.647 10.202C149.854 10.4086 150.145 10.5119 150.521 10.5119Z" fill="#55607A"/>
<path d="M68.5213 29.4894H67.4648V22.6856H68.5213V25.517H72.0711V22.6856H73.1276V29.4894H72.0711V26.4467H68.5213V29.4894ZM80.5478 29.4894H79.4913V28.7146C78.9185 29.3438 78.1672 29.6584 77.2375 29.6584C76.6083 29.6584 76.0542 29.4565 75.5752 29.0527C75.0963 28.6489 74.8568 28.0995 74.8568 27.4046C74.8568 26.6909 75.0916 26.1415 75.5612 25.7565C76.0401 25.362 76.5989 25.1648 77.2375 25.1648C78.2047 25.1648 78.956 25.4747 79.4913 26.0945V24.869C79.4913 24.4182 79.3317 24.0661 79.0124 23.8125C78.6931 23.5589 78.2799 23.4322 77.7727 23.4322C76.9745 23.4322 76.2796 23.7468 75.6879 24.376L75.1949 23.6435C75.918 22.8922 76.8243 22.5165 77.9136 22.5165C78.6931 22.5165 79.327 22.7044 79.8153 23.08C80.3036 23.4556 80.5478 24.0332 80.5478 24.8127V29.4894ZM77.6178 28.8978C78.463 28.8978 79.0875 28.616 79.4913 28.0526V26.7707C79.0875 26.2072 78.463 25.9255 77.6178 25.9255C77.1295 25.9255 76.7256 26.0664 76.4063 26.3481C76.0964 26.6204 75.9415 26.9773 75.9415 27.4187C75.9415 27.8507 76.0964 28.2075 76.4063 28.4893C76.7256 28.7616 77.1295 28.8978 77.6178 28.8978ZM81.8627 29.6584V28.7851C82.182 28.7851 82.445 28.5738 82.6516 28.1512C82.8582 27.7286 83.0272 27.0242 83.1587 26.0382L83.5954 22.6856H88.3285V29.4894H87.272V23.6153H84.5251L84.2152 26.165C84.0649 27.414 83.802 28.3108 83.4263 28.8555C83.0507 29.3908 82.5295 29.6584 81.8627 29.6584ZM95.8473 28.6301C95.2369 29.3157 94.4245 29.6584 93.4103 29.6584C92.3961 29.6584 91.5791 29.3157 90.9592 28.6301C90.3488 27.9446 90.0436 27.0947 90.0436 26.0804C90.0436 25.0662 90.3488 24.221 90.9592 23.5449C91.5791 22.8593 92.3961 22.5165 93.4103 22.5165C94.4245 22.5165 95.2369 22.8593 95.8473 23.5449C96.4671 24.221 96.777 25.0662 96.777 26.0804C96.777 27.0947 96.4671 27.9446 95.8473 28.6301ZM91.7481 27.954C92.1613 28.4611 92.7154 28.7146 93.4103 28.7146C94.1052 28.7146 94.6546 28.4611 95.0584 27.954C95.4623 27.4375 95.6642 26.8129 95.6642 26.0804C95.6642 25.3479 95.4623 24.7281 95.0584 24.221C94.6546 23.7139 94.1052 23.4603 93.4103 23.4603C92.7154 23.4603 92.1613 23.7186 91.7481 24.2351C91.3443 24.7422 91.1424 25.3573 91.1424 26.0804C91.1424 26.8129 91.3443 27.4375 91.7481 27.954ZM103.261 22.6856V23.6153H99.5558V29.4894H98.4993V22.6856H103.261ZM110.044 28.6301C109.434 29.3157 108.621 29.6584 107.607 29.6584C106.593 29.6584 105.776 29.3157 105.156 28.6301C104.545 27.9446 104.24 27.0947 104.24 26.0804C104.24 25.0662 104.545 24.221 105.156 23.5449C105.776 22.8593 106.593 22.5165 107.607 22.5165C108.621 22.5165 109.434 22.8593 110.044 23.5449C110.664 24.221 110.974 25.0662 110.974 26.0804C110.974 27.0947 110.664 27.9446 110.044 28.6301ZM105.945 27.954C106.358 28.4611 106.912 28.7146 107.607 28.7146C108.302 28.7146 108.851 28.4611 109.255 27.954C109.659 27.4375 109.861 26.8129 109.861 26.0804C109.861 25.3479 109.659 24.7281 109.255 24.221C108.851 23.7139 108.302 23.4603 107.607 23.4603C106.912 23.4603 106.358 23.7186 105.945 24.2351C105.541 24.7422 105.339 25.3573 105.339 26.0804C105.339 26.8129 105.541 27.4375 105.945 27.954ZM116.513 29.4894H112.696V22.6856H116.443C117.035 22.6856 117.5 22.8452 117.838 23.1645C118.185 23.4838 118.359 23.9064 118.359 24.4323C118.359 24.8173 118.251 25.1507 118.035 25.4325C117.828 25.7048 117.57 25.8879 117.26 25.9818C117.607 26.0664 117.899 26.2683 118.133 26.5876C118.378 26.9069 118.5 27.259 118.5 27.6441C118.5 28.1981 118.321 28.6442 117.964 28.9823C117.617 29.3204 117.133 29.4894 116.513 29.4894ZM116.302 28.5597C116.64 28.5597 116.908 28.4658 117.105 28.278C117.302 28.0901 117.401 27.8366 117.401 27.5173C117.401 27.2262 117.302 26.9773 117.105 26.7707C116.908 26.5641 116.64 26.4608 116.302 26.4608H113.752V28.5597H116.302ZM116.26 25.5311C116.579 25.5311 116.828 25.4465 117.006 25.2775C117.185 25.0991 117.274 24.869 117.274 24.5873C117.274 24.2868 117.185 24.052 117.006 23.8829C116.828 23.7045 116.579 23.6153 116.26 23.6153H113.752V25.5311H116.26ZM125.807 29.4894H124.75V28.7146C124.177 29.3438 123.426 29.6584 122.496 29.6584C121.867 29.6584 121.313 29.4565 120.834 29.0527C120.355 28.6489 120.116 28.0995 120.116 27.4046C120.116 26.6909 120.35 26.1415 120.82 25.7565C121.299 25.362 121.858 25.1648 122.496 25.1648C123.463 25.1648 124.215 25.4747 124.75 26.0945V24.869C124.75 24.4182 124.59 24.0661 124.271 23.8125C123.952 23.5589 123.539 23.4322 123.031 23.4322C122.233 23.4322 121.538 23.7468 120.947 24.376L120.454 23.6435C121.177 22.8922 122.083 22.5165 123.172 22.5165C123.952 22.5165 124.586 22.7044 125.074 23.08C125.562 23.4556 125.807 24.0332 125.807 24.8127V29.4894ZM122.877 28.8978C123.722 28.8978 124.346 28.616 124.75 28.0526V26.7707C124.346 26.2072 123.722 25.9255 122.877 25.9255C122.388 25.9255 121.984 26.0664 121.665 26.3481C121.355 26.6204 121.2 26.9773 121.2 27.4187C121.2 27.8507 121.355 28.2075 121.665 28.4893C121.984 28.7616 122.388 28.8978 122.877 28.8978ZM128.939 29.4894H127.699L129.516 26.8129C129 26.7472 128.577 26.5312 128.248 26.165C127.929 25.7987 127.769 25.3339 127.769 24.7704C127.769 24.1694 127.962 23.6716 128.347 23.2772C128.732 22.8828 129.258 22.6856 129.925 22.6856H133.517V29.4894H132.46V26.8552H130.601L128.939 29.4894ZM130.037 25.9255H132.46V23.6153H130.037C129.671 23.6153 129.38 23.7233 129.164 23.9393C128.957 24.1459 128.854 24.4229 128.854 24.7704C128.854 25.1179 128.957 25.3996 129.164 25.6156C129.371 25.8222 129.662 25.9255 130.037 25.9255Z" fill="#55607A"/>
<path d="M70.4652 45.0725C69.4604 45.0725 68.6433 44.7345 68.0141 44.0583C67.3849 43.3728 67.0703 42.5182 67.0703 41.4945C67.0703 40.4709 67.3849 39.621 68.0141 38.9449C68.6433 38.2687 69.4604 37.9306 70.4652 37.9306C71.517 37.9306 72.3481 38.3251 72.9585 39.1139L72.2542 39.7619C71.8222 39.1703 71.2447 38.8744 70.5216 38.8744C69.8078 38.8744 69.235 39.1186 68.803 39.6069C68.3804 40.0953 68.1691 40.7245 68.1691 41.4945C68.1691 42.2646 68.3804 42.8985 68.803 43.3962C69.235 43.8846 69.8078 44.1287 70.5216 44.1287C71.2353 44.1287 71.8128 43.8329 72.2542 43.2413L72.9585 43.8893C72.3481 44.6781 71.517 45.0725 70.4652 45.0725ZM73.6363 45.0725V44.1992C73.9556 44.1992 74.2186 43.9879 74.4252 43.5653C74.6318 43.1427 74.8008 42.4383 74.9323 41.4523L75.369 38.0997H80.1021V44.9035H79.0456V39.0294H76.2987L75.9888 41.5791C75.8386 42.8281 75.5756 43.7249 75.2 44.2696C74.8243 44.8049 74.3031 45.0725 73.6363 45.0725ZM81.8313 47.5659L82.0004 46.608C82.1694 46.6831 82.3619 46.7207 82.5779 46.7207C82.8221 46.7207 83.024 46.669 83.1837 46.5657C83.3433 46.4624 83.4795 46.2746 83.5922 46.0023L84.0429 44.9739L81.1974 38.0997H82.3385L84.6064 43.678L86.8603 38.0997H88.0154L84.6064 46.284C84.2308 47.1855 83.564 47.6457 82.6061 47.6645C82.3244 47.6645 82.0661 47.6316 81.8313 47.5659ZM89.6104 44.9035H88.2581L91.2868 41.1846L88.2722 38.0997H89.6104L92.5405 41.1001V38.0997H93.597V41.086L96.527 38.0997H97.8652L94.8366 41.1846L97.8793 44.9035H96.527L94.0759 41.8467L93.597 42.3257V44.9035H92.5405V42.3257L92.0615 41.8467L89.6104 44.9035ZM100.401 43.3681C100.814 43.8752 101.368 44.1287 102.063 44.1287C102.758 44.1287 103.307 43.8752 103.711 43.3681C104.115 42.8516 104.317 42.2224 104.317 41.4805C104.317 40.7573 104.115 40.1422 103.711 39.6351C103.307 39.128 102.758 38.8744 102.063 38.8744C101.368 38.8744 100.814 39.128 100.401 39.6351C99.9971 40.1422 99.7952 40.7573 99.7952 41.4805C99.7952 42.2224 99.9971 42.8516 100.401 43.3681ZM102.063 45.0725C101.039 45.0725 100.222 44.711 99.612 43.9879C99.0016 43.2648 98.6964 42.3304 98.6964 41.1846C98.6964 39.5694 98.9875 38.3767 99.5698 37.6066C100.152 36.8272 101.049 36.3576 102.26 36.198C102.983 36.0853 103.481 35.9773 103.754 35.874C104.035 35.7707 104.176 35.6486 104.176 35.5077H105.204C105.204 35.7707 105.125 36.0008 104.965 36.198C104.805 36.3858 104.575 36.5361 104.275 36.6488C103.984 36.7614 103.707 36.8507 103.444 36.9164C103.19 36.9727 102.885 37.0244 102.528 37.0714C101.589 37.2028 100.908 37.4611 100.485 37.8461C100.072 38.2311 99.7999 38.743 99.6684 39.3816C100.288 38.4143 101.143 37.9306 102.232 37.9306C103.171 37.9306 103.937 38.2734 104.528 38.959C105.12 39.6445 105.416 40.485 105.416 41.4805C105.416 42.4947 105.111 43.3493 104.5 44.0442C103.89 44.7298 103.077 45.0725 102.063 45.0725ZM112.532 44.9035H111.475V44.1287C110.902 44.7579 110.151 45.0725 109.221 45.0725C108.592 45.0725 108.038 44.8706 107.559 44.4668C107.08 44.063 106.841 43.5136 106.841 42.8187C106.841 42.105 107.075 41.5556 107.545 41.1706C108.024 40.7761 108.583 40.5789 109.221 40.5789C110.188 40.5789 110.94 40.8888 111.475 41.5086V40.2831C111.475 39.8323 111.315 39.4802 110.996 39.2266C110.677 38.973 110.264 38.8463 109.756 38.8463C108.958 38.8463 108.263 39.1609 107.672 39.7901L107.179 39.0576C107.902 38.3063 108.808 37.9306 109.897 37.9306C110.677 37.9306 111.311 38.1185 111.799 38.4941C112.287 38.8697 112.532 39.4473 112.532 40.2268V44.9035ZM109.602 44.3119C110.447 44.3119 111.071 44.0301 111.475 43.4667V42.1848C111.071 41.6213 110.447 41.3396 109.602 41.3396C109.113 41.3396 108.709 41.4805 108.39 41.7622C108.08 42.0345 107.925 42.3914 107.925 42.8328C107.925 43.2648 108.08 43.6216 108.39 43.9034C108.709 44.1757 109.113 44.3119 109.602 44.3119Z" fill="#55607A"/>
</svg>
