<svg width="177" height="47" viewBox="0 0 177 47" fill="none" xmlns="http://www.w3.org/2000/svg">
<path fill-rule="evenodd" clip-rule="evenodd" d="M24.7663 30.7388C23.4588 33.2272 21.0623 35.2547 21.0343 35.2241C21.0058 35.2547 18.6093 33.2272 17.3018 30.7388C15.9943 28.2526 15.1556 24.3468 15.1093 22.4812C15.0625 20.6151 15.4355 19.8162 15.4355 19.8162C15.4355 19.8162 17.0703 19.7281 18.3778 19.2815C19.4873 18.9055 20.6946 17.9527 21.0343 17.6753C21.3713 17.9527 22.5814 18.9055 23.6929 19.2815C24.9983 19.7281 26.6325 19.8162 26.6325 19.8162C26.6325 19.8162 27.0061 20.6151 26.9566 22.4812C26.9103 24.3468 26.0716 28.2526 24.7663 30.7388ZM24.8896 39.201C25.0597 39.5211 25.1576 40.1465 24.6376 40.1945C24.347 39.4478 23.9971 39.0117 23.5643 38.409C23.1627 37.945 22.7202 37.4662 22.4037 36.9415C23.1137 37.7583 24.5402 38.573 24.8896 39.201ZM22.4037 42.9955C22.5012 42.2642 22.3079 40.6306 22.0048 39.5211C21.796 38.7744 21.1037 36.8155 21.4122 36.1147C21.5333 37.0375 21.9096 38.4797 22.4527 39.6624C22.8381 40.5119 23.4049 42.4862 22.4037 42.9955ZM20.0611 39.5211C19.7731 40.6306 19.5669 42.2642 19.6644 42.9955C18.661 42.4862 19.23 40.5119 19.6159 39.6624C20.1564 38.4797 20.5321 37.0375 20.6532 36.1147C20.9649 36.8155 20.2721 38.7744 20.0611 39.5211ZM18.5167 38.409C18.0689 39.0117 17.719 39.4478 17.4304 40.1945C16.9105 40.1465 17.0084 39.5211 17.1785 39.201C17.5284 38.573 18.9517 37.7583 19.6644 36.9415C19.3484 37.4662 18.9054 37.9376 18.5167 38.409ZM13.1682 30.308C13.1941 30.4715 13.2172 30.5674 13.2888 30.6755C12.3597 30.8169 11.9635 31.1723 11.6266 31.7497C11.1529 32.529 11.647 33.5351 11.513 33.9512C11.4183 34.2106 11.1066 34.4606 10.6119 34.2333C10.8514 35.2752 12.1799 35.1566 12.5293 34.5766C12.6483 35.0606 12.5293 35.618 12.2876 35.8294C12.6999 35.8521 13.0498 35.6881 13.2657 35.368C13.3147 35.464 13.3147 35.5953 13.3378 35.7108C13.5671 35.5953 13.7141 35.464 13.8088 35.3454C13.8449 35.4619 13.8912 35.7335 13.8346 35.956C13.6576 36.0741 13.4562 36.1827 13.1451 36.3388C12.6483 36.5761 11.7472 36.9189 11.2272 36.9895C10.8024 37.0602 10.0666 36.8229 9.87336 36.2428C9.70326 35.6881 9.23494 35.512 8.85921 35.8521C8.76394 35.7815 8.4991 35.7335 8.38821 35.9027C8.38821 35.9027 8.26978 35.6407 8.12283 35.512C8.2208 35.2267 8.14598 34.884 7.88114 34.768C7.85799 34.2106 7.5081 34.2106 7.38698 34.0213C7.31539 33.9032 7.31539 33.7592 7.48495 33.7371C7.41282 33.6311 7.26587 33.6084 7.24272 33.6084C7.28955 33.3711 7.21688 33.0764 6.89283 32.9804L4.03073 27.199C4.21321 27.0097 4.11847 26.7376 3.90962 26.6411C3.90962 26.6411 3.90962 26.6184 3.90962 26.5963C3.92738 26.5504 3.93007 26.5151 3.93545 26.4803C4.01243 26.4676 4.10556 26.4497 4.18791 26.4297C4.7542 26.2989 5.63646 25.4842 6.39868 24.9748C6.13061 25.2469 5.02119 26.0389 4.52704 26.5003C4.06626 26.9491 4.25951 27.3978 4.33433 27.8017L4.44253 28.0258C4.86186 28.0511 5.49004 28.2984 5.96105 27.9198C6.10746 27.7785 8.17182 25.2696 8.44742 25.0228C8.34192 25.2469 7.03709 26.8557 6.44766 27.7785C6.01003 28.4746 6.65114 28.936 6.72542 29.3367C7.19374 29.1959 7.83484 29.468 8.17182 28.9133C8.4991 28.3812 9.50032 26.4777 9.87336 25.943C9.72909 26.359 8.66597 28.5225 8.59437 28.7113C8.34192 29.4453 8.98033 29.5867 9.23494 30.0734C9.6209 29.8007 10.3191 30.0127 10.5866 29.314C10.7535 28.8426 11.1782 27.199 11.3973 26.7603C11.3714 27.2465 11.2272 27.8972 11.1297 28.6159C11.0318 29.3367 11.7213 29.314 12.082 29.7301C12.4319 29.4453 13.073 29.516 13.1682 28.8653C13.2657 28.2858 13.2888 26.8784 13.2888 26.8784C13.3868 26.9617 13.4358 26.9844 13.544 27.0804C13.783 26.8077 14.2804 26.8077 14.4478 26.4777C14.522 26.5003 14.5452 26.5483 14.6173 26.5963C15.1605 27.4811 15.2068 29.1959 14.4478 29.8007C14.6663 29.8007 14.9441 29.7754 15.1115 29.7053C14.7745 30.3781 14.0252 30.6154 13.1682 30.308ZM4.48074 24.1127C4.35478 24.1628 4.20837 24.2261 4.0921 24.274C4.0921 24.264 4.0921 24.2514 4.0921 24.2413C4.21052 24.1981 4.35748 24.1554 4.48074 24.1127ZM16.862 9.5664C18.2158 9.28165 19.5901 8.53762 20.208 7.91224C20.7199 7.94282 21.3815 7.94757 21.8837 7.92015C22.4936 8.55028 23.8501 9.28165 25.2039 9.5664C24.4186 9.5664 23.0443 9.49574 22.8747 9.30644C22.9237 9.7905 23.9734 10.3378 24.6608 10.4892C24.0918 10.5598 23.5643 10.4892 23.1137 10.2899C23.3587 10.6331 23.6337 10.8926 24.0918 11.0465C23.6106 11.6266 22.6223 12.002 21.6415 11.9087C21.8837 12.1934 22.3316 12.3701 22.7202 12.3221C21.8396 13.6989 21.1861 15.111 21.0316 16.7473L21.0262 16.7452L21.0241 16.7499C20.8771 15.111 20.2285 13.6989 19.3505 12.3221C19.7473 12.3701 20.1849 12.1934 20.4115 11.9087C19.4227 12.002 18.4677 11.6266 17.9736 11.0465C18.4344 10.8926 18.7094 10.6331 18.9517 10.2899C18.5167 10.4892 17.9736 10.5598 17.4073 10.4892C18.0947 10.3378 19.1578 9.7905 19.2036 9.30644C19.0238 9.49574 17.6495 9.5664 16.862 9.5664ZM25.8913 40.8673C26.1949 41.3767 25.7729 41.7421 25.1808 41.7421C25.1808 41.5433 25.1808 41.4722 25.1318 41.2333C25.4074 41.208 25.7293 41.1073 25.8913 40.8673ZM16.8873 41.7421C16.2957 41.7421 15.8732 41.3767 16.1746 40.8673C16.3312 41.0972 16.6429 41.2053 16.9105 41.2333C16.8873 41.4722 16.8873 41.5433 16.8873 41.7421ZM3.19692 24.4655C3.1657 24.4655 3.13448 24.4655 3.1011 24.4655C3.09626 24.4581 3.09087 24.4502 3.08334 24.4428C3.12694 24.4328 3.17377 24.4328 3.21468 24.4201C3.21199 24.4354 3.20445 24.4502 3.19692 24.4655ZM2.48583 25.943L2.24683 25.8048C2.34211 25.6957 2.43739 25.6957 2.53267 25.7563C2.53267 25.8275 2.53267 25.8976 2.48583 25.943ZM2.01483 24.9522C1.99168 24.9522 1.99168 24.9748 1.96853 24.9975C1.82212 24.9748 1.82212 24.8082 1.84796 24.6669C1.9174 24.6669 1.96853 24.6442 2.01483 24.5968L2.03797 24.6215L1.96853 24.6669C1.99168 24.7629 1.99168 24.8567 2.01483 24.9522ZM41.9706 18.7542C41.4533 18.4494 40.5964 18.3408 39.7265 18.4241C41.0905 17.9627 42.0196 16.9693 42.0686 16.0818C41.3581 15.8825 40.6195 15.9885 39.9811 16.1298C40.6427 15.6452 41.729 14.7583 41.5976 13.4569C40.9592 13.3029 39.7857 13.7416 39.291 13.9562C40.8612 13.0914 41.4275 11.0465 40.5964 9.887C40.1022 10.1712 37.8549 12.4154 37.4921 12.678C38.6532 11.3766 39.1963 10.4412 39.5101 9.5664C39.8832 8.61092 39.9063 6.9441 38.7016 6.38674C38.1332 7.66493 36.1409 10.9379 35.0315 12.2994C34.9104 12.1934 34.813 12.05 34.6558 12.0273C34.3904 12.8568 33.605 13.9562 32.8923 14.4856C32.8563 14.415 32.7847 14.2257 32.663 14.0242C31.904 15.1363 29.935 16.6618 29.2966 17.5973C28.7997 18.2928 28.7997 18.9208 29.4893 19.5715C29.7676 19.8436 30.2978 20.3277 29.8397 21.001C29.2164 21.8938 27.9632 21.9971 27.2812 21.4725C27.2812 21.3137 27.2758 21.1624 27.2683 21.0211C28.0714 20.7163 28.2593 19.6443 27.6671 18.9788C27.5363 19.2235 27.3221 19.4023 27.0653 19.4903C26.9959 19.2129 26.9335 19.0774 26.9286 19.0642L26.8974 18.9989L26.8279 18.9962C26.8204 18.9941 26.5583 18.9815 26.1642 18.9361C26.6094 18.7922 26.8947 18.3888 26.8333 17.8441C26.1459 18.4241 25.4564 17.8694 25.2992 17.7159C24.8669 17.2192 24.7458 16.6618 24.9154 15.8092C25.0597 15.0657 25.8445 13.8829 26.3623 13.5049C26.4371 13.5755 26.5556 13.7168 26.8075 13.6942C26.9539 13.6488 27.1961 13.5275 27.3765 13.4569C27.8965 13.3029 28.4035 13.4215 28.7303 13.6235C29.3197 13.9763 29.2707 14.367 29.2503 14.6523C30.1508 14.1555 29.8397 13.3282 28.6581 13.0208C29.4661 13.0208 30.1304 13.7416 30.2978 13.8349C30.7456 14.1556 31.3841 14.0844 31.7571 13.9082C32.473 13.5755 32.6167 12.7482 32.424 12.5821C32.3519 12.8795 32.1226 13.1394 31.7081 13.1874C31.0955 13.2575 30.5013 12.9949 30.0329 12.7935C29.6362 12.6301 28.993 12.5114 28.5602 12.5362C29.3687 12.098 30.6245 12.146 31.0697 12.8188C31.3378 12.6074 31.5052 12.4154 31.5795 11.9794C31.8088 10.7992 30.8668 10.1939 29.8628 10.1939C29.8887 9.90968 29.6825 9.76783 29.4177 9.8638C29.4177 9.74305 29.3843 9.64971 29.317 9.60173C29.3402 9.59909 29.3714 9.58907 29.3918 9.58907C30.406 9.52105 31.3609 9.2131 31.8782 8.68105C32.7847 7.73295 31.3378 6.52806 31.8551 5.59525C32.3519 5.8067 32.7147 6.07932 33.3994 6.17265C33.4716 6.31661 33.5335 6.59872 33.5566 6.75216C33.7751 7.80625 32.7147 7.9829 32.9903 9.10501C33.1109 9.61438 33.5001 9.7905 33.6309 10.3959C33.6309 10.3959 33.6804 10.8193 33.3041 11.1879C34.1746 11.2105 34.6326 10.4892 34.3651 9.81581C34.2462 9.54372 33.9426 9.28165 33.9426 8.96421C34.3904 9.54372 34.7898 9.52105 35.4767 9.30644C35.7905 9.2131 35.8163 9.63969 35.621 9.98244C36.092 9.70719 36.2158 9.25845 36.2158 9.05966C36.2158 8.58561 35.8395 8.36098 35.4767 8.45695C35.2738 8.47962 34.8614 8.75171 34.8383 8.36098C34.7532 7.6876 35.8395 7.71081 35.621 6.62403C35.5025 6.07932 34.8846 5.78139 33.9194 5.66538C33.8241 5.56994 33.5819 5.34531 33.4511 5.15601C32.9209 4.29439 32.375 4.06975 32.0478 4.24587C31.6618 4.43518 31.4589 4.60181 31.1451 4.7658C30.8899 4.89657 30.6245 4.96723 30.455 5.15601C30.0329 5.66538 30.4318 6.4574 30.6477 6.9441C30.7946 7.22621 31.1451 7.87743 30.9879 8.36098C30.8178 8.94101 29.8397 9.30644 29.2503 9.42561C29.2115 9.42561 29.1884 9.43774 29.1501 9.43774V9.2131C29.3197 8.9157 29.4661 8.56294 29.5872 8.24233C29.9861 7.2009 29.3918 6.778 28.5139 6.57604C28.4035 6.50538 28.2824 6.48007 28.1387 6.52806H28.1129L28.0892 6.70418L27.9686 6.66938L27.9944 6.4574H27.9422C28.0429 6.38674 28.0892 6.2681 28.0892 6.14998C28.0892 6.02132 28.0429 5.92535 27.9944 5.85469H28.1129L28.0633 5.8067C28.0429 5.75872 27.9944 5.71337 27.9196 5.6406C27.8965 5.61793 27.8733 5.56994 27.8733 5.54727C27.8965 5.56994 27.9196 5.59525 27.9686 5.61793C28.017 5.66538 28.0892 5.71337 28.1129 5.75872L28.1844 5.8067V4.83857L28.1129 4.89657C28.0892 4.91977 28.017 4.96723 27.9686 5.01521C27.9196 5.0632 27.8965 5.0632 27.8733 5.08587C27.8733 5.0632 27.8965 5.03789 27.9196 4.9899C27.9944 4.94456 28.0429 4.87126 28.0633 4.83857L28.1129 4.7658H27.124L27.173 4.83857C27.2193 4.87126 27.2812 4.94456 27.3302 4.9899C27.3533 5.03789 27.3765 5.0632 27.4018 5.08587C27.3765 5.0632 27.3302 5.0632 27.3043 5.01521C27.2193 4.96723 27.173 4.91977 27.124 4.89657L27.0756 4.83857V5.8067L27.124 5.75872C27.173 5.71337 27.2193 5.66538 27.3043 5.61793C27.3302 5.59525 27.3765 5.56994 27.4018 5.54727C27.3765 5.56994 27.3533 5.61793 27.3302 5.6406C27.2812 5.71337 27.2193 5.75872 27.173 5.8067L27.124 5.85469H27.2812C27.1961 5.92535 27.173 6.02132 27.173 6.14998C27.173 6.2681 27.2193 6.38674 27.3043 6.4574H27.2812L27.3043 6.66938L27.173 6.70418L27.1472 6.52806H27.124C26.9797 6.48007 26.8592 6.50538 26.7612 6.57604C25.8676 6.778 25.2761 7.2009 25.6749 8.24233C25.796 8.56294 25.943 8.9157 26.1228 9.2131V9.36708C25.2271 9.08233 23.6208 8.12421 23.1886 7.54418C23.1396 7.48617 23.1035 7.43819 23.0804 7.40339L23.0755 7.4055L23.0933 6.778C23.4049 6.2681 23.6827 5.6406 23.9018 5.0632C24.4681 3.56038 23.6337 2.93499 22.3079 2.67239C22.1744 2.57958 22.0048 2.5316 21.7885 2.60226L21.7416 2.83902L21.4644 2.81635L21.487 2.50893C21.4386 2.5316 21.3917 2.5316 21.3433 2.5316C21.5333 2.43827 21.6673 2.211 21.6673 1.97687C21.6673 1.81077 21.5823 1.60881 21.4386 1.51548H21.6673C21.5333 1.39684 21.3175 1.14689 21.2706 0.983427C21.4386 1.02878 21.6932 1.25288 21.8116 1.37416V0.143427C21.6932 0.237288 21.4386 0.474049 21.2706 0.496723C21.3175 0.358041 21.5333 0.118644 21.6673 0H20.4115C20.5089 0.118644 20.7506 0.358041 20.7738 0.496723C20.6274 0.474049 20.3884 0.237288 20.2543 0.143427V1.37416C20.3884 1.25288 20.6274 1.02878 20.7738 0.983427C20.7506 1.14689 20.5089 1.39684 20.4115 1.51548H20.6274C20.4836 1.60881 20.4115 1.81077 20.4115 1.97687C20.4115 2.211 20.5321 2.43827 20.7253 2.5316C20.6763 2.5316 20.6274 2.5316 20.5552 2.50893L20.5811 2.81635L20.3028 2.83902L20.2775 2.60226C20.0611 2.5316 19.8942 2.57958 19.7473 2.67239C18.4344 2.93499 17.5979 3.56038 18.1668 5.0632C18.3601 5.6406 18.6378 6.2681 18.9748 6.778V7.42817C18.9517 7.45084 18.9264 7.49883 18.8795 7.54418C18.4575 8.12421 16.8389 9.08233 15.9453 9.36708V9.2131C16.1256 8.9157 16.2726 8.56294 16.3932 8.24233C16.7926 7.2009 16.2004 6.778 15.3069 6.57604C15.2068 6.50538 15.091 6.48007 14.9441 6.52806H14.9209L14.8951 6.70418L14.7745 6.66938L14.7977 6.4574H14.7745C14.8461 6.38674 14.8951 6.2681 14.8951 6.14998C14.8951 6.02132 14.8719 5.92535 14.7977 5.85469H14.9441L14.8951 5.8067C14.8461 5.75872 14.7977 5.71337 14.7508 5.6406C14.7277 5.61793 14.6921 5.56994 14.6663 5.54727C14.6921 5.56994 14.7508 5.59525 14.7745 5.61793C14.8461 5.66538 14.8951 5.71337 14.9441 5.75872L14.9931 5.8067V4.83857L14.9441 4.89657C14.8951 4.91977 14.8461 4.96723 14.7745 5.01521C14.7508 5.0632 14.6921 5.0632 14.6663 5.08587C14.6921 5.0632 14.7277 5.03789 14.7508 4.9899C14.7977 4.94456 14.8461 4.87126 14.8951 4.83857L14.9441 4.7658H13.9552L14.0021 4.83857C14.0252 4.87126 14.0871 4.94456 14.1361 4.9899C14.1824 5.03789 14.2055 5.0632 14.2055 5.08587C14.1824 5.0632 14.1592 5.0632 14.1124 5.01521C14.051 4.96723 13.9768 4.91977 13.9552 4.89657L13.8809 4.83857V5.8067L13.9552 5.75872C13.9768 5.71337 14.051 5.66538 14.1124 5.61793C14.1592 5.59525 14.1824 5.56994 14.2055 5.54727C14.2055 5.56994 14.1824 5.61793 14.1361 5.6406C14.0871 5.71337 14.0252 5.75872 14.0021 5.8067L13.9552 5.85469H14.0871C14.0252 5.92535 13.9768 6.02132 13.9768 6.14998C13.9768 6.2681 14.0252 6.38674 14.1361 6.4574H14.0871L14.1124 6.66938L13.9768 6.70418L13.9552 6.52806H13.9299C13.783 6.48007 13.6651 6.50538 13.5671 6.57604C12.6741 6.778 12.082 7.2009 12.4808 8.24233C12.602 8.56294 12.7484 8.9157 12.9287 9.2131V9.43774C12.8899 9.43774 12.8566 9.42561 12.8307 9.42561C12.2392 9.30644 11.2503 8.94101 11.0807 8.36098C10.9236 7.87743 11.2761 7.22621 11.4183 6.9441C11.647 6.4574 12.0357 5.66538 11.6266 5.15601C11.4436 4.96723 11.1782 4.89657 10.9236 4.7658C10.6119 4.60181 10.4165 4.43518 10.0203 4.24587C9.70326 4.06975 9.16281 4.29439 8.61752 5.15601C8.4991 5.34531 8.24448 5.56994 8.14598 5.66538C7.19374 5.78139 6.57847 6.07932 6.44766 6.62403C6.22643 7.71081 7.31539 7.6876 7.24272 8.36098C7.21688 8.75171 6.79755 8.47962 6.60162 8.45695C6.22643 8.36098 5.85285 8.58561 5.85285 9.05966C5.85285 9.25845 5.98689 9.70719 6.44766 9.98244C6.25442 9.63969 6.27756 9.2131 6.60162 9.30644C7.28955 9.52105 7.67497 9.54372 8.12283 8.96421C8.12283 9.28165 7.83484 9.54372 7.7035 9.81581C7.43597 10.4892 7.88114 11.2105 8.76394 11.1879C8.36506 10.8193 8.44742 10.3959 8.44742 10.3959C8.57123 9.7905 8.95718 9.61438 9.08853 9.10501C9.3566 7.9829 8.29293 7.80625 8.52224 6.75216C8.54539 6.59872 8.59437 6.31661 8.66597 6.17265C9.3566 6.07932 9.72909 5.8067 10.2103 5.59525C10.7072 6.52806 9.28123 7.73295 10.1872 8.68105C10.7072 9.2131 11.6729 9.52105 12.6741 9.58907C12.6945 9.58907 12.7279 9.60173 12.7538 9.60436C12.6843 9.64971 12.6483 9.74305 12.6483 9.8638C12.3856 9.76783 12.1799 9.90968 12.216 10.1939C11.1782 10.1939 10.262 10.7992 10.4886 11.9794C10.5608 12.4154 10.7303 12.6074 11.0086 12.8188C11.4436 12.146 12.6999 12.098 13.5181 12.5362C13.073 12.5114 12.4319 12.6301 12.0357 12.7935C11.5749 12.9949 10.9855 13.2575 10.3702 13.1874C9.94549 13.1394 9.72909 12.8795 9.64404 12.5821C9.45134 12.7482 9.5956 13.5755 10.3191 13.9082C10.6819 14.0844 11.3224 14.1556 11.7681 13.8349C11.9377 13.7416 12.602 13.0208 13.4126 13.0208C12.2392 13.3282 11.9124 14.1555 12.8307 14.6523C12.7947 14.367 12.7484 13.9763 13.3378 13.6235C13.6651 13.4215 14.1824 13.3029 14.6921 13.4569C14.8719 13.5275 15.1115 13.6488 15.2584 13.6942C15.5104 13.7168 15.6315 13.5755 15.7031 13.5049C16.2236 13.8829 16.9826 15.0657 17.1527 15.8092C17.333 16.6618 17.2017 17.2192 16.7667 17.7159C16.6225 17.8694 15.9221 18.4241 15.2353 17.8441C15.1707 18.3861 15.4565 18.79 15.9017 18.9361C15.5028 18.9788 15.2353 18.9941 15.2272 18.9962L15.1578 18.9989L15.1298 19.0642C15.1217 19.0774 15.0625 19.2129 14.9904 19.4882C14.7406 19.3949 14.5296 19.2209 14.4009 18.9788C13.8088 19.6422 13.9918 20.7063 14.7874 21.0158C14.7794 21.1624 14.7745 21.319 14.7745 21.4798C14.092 21.9945 12.8517 21.8885 12.2392 21.001C11.7681 20.3277 12.3107 19.8436 12.5788 19.5715C13.2657 18.9208 13.2657 18.2928 12.7688 17.5973C12.131 16.6618 10.1619 15.1363 9.40504 14.0242C9.28123 14.2257 9.20964 14.415 9.18327 14.4856C8.47326 13.9562 7.67497 12.8568 7.41282 12.0273C7.26587 12.05 7.15821 12.1934 7.03709 12.2994C5.9379 10.9379 3.93545 7.66493 3.36917 6.38674C2.17201 6.9441 2.19516 8.61092 2.56066 9.5664C2.88256 10.4412 3.42838 11.3766 4.57333 12.678C4.21321 12.4154 1.96853 10.1712 1.47223 9.887C0.640568 11.0465 1.20685 13.0914 2.77436 13.9562C2.29313 13.7416 1.10942 13.3029 0.471006 13.4569C0.34989 14.7583 1.42324 15.6452 2.0875 16.1298C1.44908 15.9885 0.712699 15.8825 0 16.0818C0.0484463 16.9693 0.988305 17.9627 2.31627 18.4241C1.47223 18.3408 0.615268 18.4494 0.0947394 18.7542C0.192709 19.677 1.25584 20.4716 2.53267 20.6609C1.67517 20.7537 0.915635 21.1223 0.519452 21.6291C0.988305 22.2318 1.67517 22.6932 2.72807 22.6705C2.48583 22.7533 2.20807 22.9173 1.96853 23.1419C1.94324 23.1187 1.89425 23.096 1.84796 23.096C1.79628 23.1187 1.77583 23.1899 1.79628 23.2374C1.79628 23.2374 1.79628 23.2374 1.79628 23.2727C1.69616 23.3433 1.63964 23.424 1.62887 23.51C1.5309 23.646 1.43078 23.8074 1.37641 23.9461C1.40225 23.9587 1.42324 23.9814 1.44908 23.994C1.43886 24.0747 1.45662 24.1654 1.51852 24.254C1.47223 24.3015 1.44908 24.3721 1.42324 24.4428L0.807977 24.2055C0.774603 24.7528 0.897871 25.2042 1.18101 25.4842C1.40225 25.731 1.65256 25.6957 1.58043 25.7795L2.24683 26.1797C2.36526 26.4297 2.60695 26.4297 2.77436 26.359C2.77436 26.359 2.77436 26.3817 2.77436 26.407C2.77436 26.6664 2.95684 26.8784 3.19692 26.9617C3.15062 27.1763 3.24536 27.3171 3.54896 27.4131L6.05902 33.3711C5.96105 33.6538 6.05902 33.9032 6.27756 33.9965C6.22643 34.0672 6.18013 34.1399 6.18013 34.2813C6.27756 34.2106 6.42183 34.1858 6.49396 34.3873C6.54025 34.5286 6.27756 34.99 6.67644 35.2979C6.62476 35.57 6.77172 35.8521 7.06024 35.9734C7.06024 36.1147 7.19374 36.5761 7.21688 36.7396C7.03709 36.9895 6.62476 37.3676 6.67644 37.781C6.72542 38.0789 6.84385 38.1723 7.08554 38.2424C6.98811 38.7744 7.28955 39.0117 7.74979 39.037C7.74979 39.4251 8.12283 39.5665 8.36506 39.5891C8.59437 39.7552 8.69181 39.8259 8.95718 39.9572C8.71495 40.2393 8.88505 40.6079 9.33022 40.7265C9.37974 40.89 9.50032 41.034 9.75224 41.092C9.89919 41.3287 10.1619 41.3287 10.3191 41.2581C10.4165 41.2106 10.5866 40.938 10.4396 40.7012C10.5376 40.5826 10.4886 40.3579 10.4165 40.2166C10.5608 39.9572 10.4396 39.6371 10.2362 39.5438C10.262 39.3998 10.1872 39.1757 10.1387 39.037C10.4886 38.8224 10.9236 38.5503 11.0807 38.457C11.9377 37.8543 12.9029 37.3196 14.0021 37.2489C14.2804 37.2242 14.7977 37.2015 15.091 37.2242C15.5362 37.2716 16.1515 37.4029 16.5121 37.1303C16.6225 37.0602 16.6946 36.9415 16.6714 36.8229C16.6225 36.5508 16.321 36.3135 16.2236 36.0667C16.1978 35.9908 16.1515 35.8822 16.1052 35.7841C16.419 35.8395 16.7075 35.7941 16.8873 35.7108C17.0806 35.6407 17.5516 35.2979 17.5284 34.7906C17.1527 34.9673 16.2467 35.2041 16.1515 34.3039C16.0535 33.5125 16.7667 32.8391 17.8783 33.1344C18.6378 33.3232 19.7473 34.9067 18.7331 35.5953C18.2384 35.9254 17.4794 36.2428 17.5769 37.1082C17.9014 36.7169 18.3342 36.5281 18.9005 36.5761C18.0689 37.1788 17.4304 37.2489 16.5606 37.7103C15.8016 38.147 15.2353 38.8704 14.6405 38.8931C14.1824 38.9158 13.9299 38.3837 14.3751 37.9703C13.9299 37.877 13.3378 38.2197 13.1682 38.679C12.9519 39.3065 13.1193 39.7552 13.5181 40.0052C12.9777 40.2873 12.5788 40.8447 12.7688 41.6361C12.9519 42.2868 13.6161 42.2868 13.3636 43.1142C13.7372 43.0182 13.9768 42.7709 14.0871 42.4155C14.1361 42.1687 14.1824 41.9088 14.3057 41.7901C14.2545 42.2868 14.5452 43.0182 15.2353 43.3509C15.7031 43.5756 16.4421 43.6689 17.0084 43.0915C17.2377 43.7417 18.0199 44.2964 18.8311 44.2737C19.2036 44.2737 19.5669 44.1171 19.8447 43.9558C20.0379 44.4377 20.5321 44.9244 21.0262 45.1591C21.5333 44.9244 22.0301 44.4377 22.2336 43.9558C22.5012 44.1171 22.8747 44.2737 23.2375 44.2737C24.0202 44.2964 24.8411 43.7417 25.0597 43.0915C25.6259 43.6689 26.3623 43.5756 26.8333 43.3509C27.5234 43.0182 27.8114 42.2868 27.7651 41.7901C27.8965 41.9088 27.9422 42.1687 27.9944 42.4155C28.0892 42.7709 28.3287 43.0182 28.7044 43.1142C28.4525 42.2868 29.1291 42.2868 29.2966 41.6361C29.4893 40.8447 29.0909 40.2873 28.5602 40.0052C28.9467 39.7552 29.1291 39.3065 28.8977 38.679C28.7303 38.2197 28.1387 37.877 27.6903 37.9703C28.1387 38.3837 27.8965 38.9158 27.4249 38.8931C26.8333 38.8704 26.267 38.147 25.5054 37.7103C24.6376 37.2489 23.9971 37.1788 23.1654 36.5761C23.7317 36.5281 24.1796 36.7169 24.4912 37.1082C24.5887 36.2428 23.8297 35.9254 23.3323 35.5953C22.3316 34.9067 23.4308 33.3232 24.2027 33.1344C25.2992 32.8391 26.0248 33.5125 25.9172 34.3039C25.796 35.2041 24.9154 34.9673 24.5171 34.7906C24.5171 35.2979 24.9854 35.6407 25.1808 35.7108C25.4074 35.8168 25.824 35.8722 26.1998 35.7161C26.1874 35.8041 26.1718 35.9006 26.1718 35.9254C26.0975 36.6942 25.6749 36.7649 25.8192 37.0828C26.0248 37.3196 27.3765 37.2716 27.7393 37.3449C28.3804 37.4282 28.9235 37.6629 29.5388 37.781C30.2256 37.9228 30.962 37.9228 31.5795 38.1723C31.9762 38.3384 32.424 38.6563 32.81 38.8451C33.3994 38.9411 33.3041 39.1757 33.6804 39.1757C34.0174 39.1757 34.1482 38.8931 34.5837 38.7744C34.8846 38.7043 35.2215 38.8224 35.523 38.727C35.7421 38.679 35.8395 38.457 36.0457 38.3384C36.2874 38.1949 36.6249 38.1949 36.8542 37.993C36.9748 37.8896 36.9979 37.6877 36.9796 37.5469L36.985 37.5796C37.4458 37.2616 37.7957 36.8002 37.9889 36.2655C38.1095 36.2428 38.2053 36.1374 38.2053 36.0187C38.2053 35.9961 38.2053 35.9734 38.2053 35.9734C38.3259 35.8774 38.398 35.7335 38.398 35.5953C38.398 35.416 38.3259 35.2752 38.2053 35.1566C38.2053 35.1566 38.2053 35.1313 38.2053 35.1086C38.2053 35.0153 38.1563 34.9446 38.1095 34.884C37.9168 33.8552 37.119 33.0284 36.092 32.7684C36.092 32.7431 36.092 32.7431 36.092 32.7204H36.0688C36.0688 32.6725 36.0457 32.6477 36.0096 32.6477C35.8626 32.5064 35.6925 32.2844 35.6721 32.1404C35.8395 32.1889 36.1178 32.4483 36.2615 32.5543V31.1949C36.1178 31.3009 35.8395 31.5609 35.6721 31.6089C35.6925 31.4422 35.9579 31.147 36.092 31.0288H34.6811C34.813 31.147 35.0778 31.4422 35.101 31.6089C34.9336 31.5609 34.6558 31.3009 34.5115 31.1949V32.5543C34.6558 32.4483 34.9336 32.1889 35.101 32.1404C35.0778 32.307 34.813 32.6023 34.6811 32.7204L34.7301 32.7431C33.6804 32.9804 32.8331 33.8325 32.6399 34.884C32.5683 34.9446 32.5193 35.0153 32.5193 35.1086C32.5193 35.1313 32.5193 35.1566 32.5193 35.1566C32.3982 35.2752 32.3261 35.416 32.3261 35.5953C32.3261 35.7335 32.3982 35.8774 32.5193 35.9734C32.5193 35.9734 32.5193 35.9961 32.5193 36.0187C32.5193 36.1727 32.6167 36.2428 32.7357 36.2655C32.7847 36.3968 32.8434 36.5281 32.9053 36.6468C32.9053 36.6341 32.9053 36.6341 32.9209 36.6215C32.8331 37.0122 32.3519 37.2489 32.2437 37.2489C31.3841 37.3676 30.4318 37.0122 29.5619 36.6942C29.1781 36.5508 28.6581 36.3868 28.4035 36.0187C28.2463 35.7514 28.1796 35.5827 28.2593 35.3454C28.3545 35.464 28.5139 35.5953 28.7303 35.7108C28.7534 35.5953 28.7534 35.464 28.7997 35.368C29.021 35.6881 29.3687 35.8521 29.7907 35.8294C29.5388 35.618 29.4177 35.0606 29.5388 34.5766C29.8887 35.1566 31.2166 35.2752 31.4589 34.2333C30.962 34.4606 30.6477 34.2106 30.5524 33.9512C30.406 33.5351 30.8899 32.529 30.455 31.7497C30.1045 31.1723 29.7089 30.8169 28.7793 30.6755C28.8514 30.5674 28.8745 30.4715 28.8977 30.308C28.0429 30.6154 27.3043 30.3781 26.9539 29.7053C27.124 29.7754 27.3765 29.8007 27.6182 29.8007C26.8592 29.1959 26.9055 27.4811 27.4508 26.5963C27.5234 26.5483 27.5466 26.5003 27.6182 26.4777C27.7856 26.8077 28.2824 26.8077 28.5343 27.0804C28.6328 26.9844 28.6813 26.9617 28.7793 26.8784C28.7793 26.8784 28.7997 28.2858 28.8977 28.8653C28.993 29.516 29.6362 29.4453 29.9608 29.7301C30.3468 29.314 31.0465 29.3367 30.9389 28.6159C30.8409 27.8972 30.6967 27.2465 30.674 26.7603C30.8899 27.199 31.3119 28.8426 31.482 29.314C31.7571 30.0127 32.4472 29.8007 32.8331 30.0734C33.0877 29.5867 33.7267 29.4453 33.4716 28.7113C33.3994 28.5225 32.3519 26.359 32.1947 25.943C32.5683 26.4777 33.5819 28.3812 33.8963 28.9133C34.2462 29.468 34.8846 29.1959 35.3427 29.3367C35.4304 28.936 36.0457 28.4746 35.5978 27.7785C35.0315 26.8557 33.7036 25.2469 33.6309 25.0228C33.8963 25.2696 35.9579 27.7785 36.1178 27.9198C36.599 28.3332 37.2988 28.0132 37.7106 28.0132C37.7106 27.5544 38.0842 27.0324 37.5437 26.5003C37.0469 26.0389 35.9122 25.2469 35.6721 24.9748C36.4289 25.4842 37.3246 26.2989 37.8549 26.4297C38.7969 26.6664 39.1344 26.2989 39.487 26.157C39.1963 25.3181 39.5822 24.9295 37.59 24.1127C39.3142 24.7154 40.0764 24.4175 40.6917 23.9461C40.4494 23.3433 39.8342 22.8366 39.3373 22.6705C40.3902 22.6932 41.0905 22.2318 41.5486 21.6291C41.1627 21.1223 40.3902 20.7537 39.5101 20.6609C40.8122 20.4716 41.8501 19.677 41.9706 18.7542Z" fill="#55607A"/>
<path d="M70.3307 14.9834H69.1668V14.0719C67.8206 13.9785 66.7596 13.5952 65.9836 12.9221C65.2077 12.249 64.8197 11.3795 64.8197 10.3138C64.8197 9.25742 65.2077 8.39267 65.9836 7.71958C66.7596 7.04648 67.8206 6.66319 69.1668 6.5697V5.63017H70.3307V6.5697C71.6676 6.66319 72.7286 7.05115 73.5139 7.7336C74.2992 8.4067 74.6918 9.26677 74.6918 10.3138C74.6918 11.3795 74.2992 12.249 73.5139 12.9221C72.738 13.5952 71.6769 13.9785 70.3307 14.0719V14.9834ZM72.6445 12.1648C73.2054 11.6787 73.4859 11.0617 73.4859 10.3138C73.4859 9.56592 73.2054 8.94891 72.6445 8.46279C72.0836 7.97666 71.3123 7.69153 70.3307 7.60739V13.0202C71.3123 12.9361 72.0836 12.651 72.6445 12.1648ZM66.853 8.46279C66.3015 8.94891 66.0257 9.56592 66.0257 10.3138C66.0257 11.0617 66.3015 11.6787 66.853 12.1648C67.414 12.651 68.1852 12.9361 69.1668 13.0202V7.60739C68.1852 7.69153 67.414 7.97666 66.853 8.46279ZM79.511 15.1517C78.5013 15.1517 77.674 14.8245 77.0289 14.1701C76.3839 13.5063 76.0614 12.6463 76.0614 11.5899C76.0614 10.5989 76.3792 9.76224 77.0149 9.07979C77.6506 8.388 78.4452 8.0421 79.3988 8.0421C80.3991 8.0421 81.1891 8.388 81.7687 9.07979C82.3576 9.76224 82.6521 10.627 82.6521 11.674V11.9405H77.1692C77.2159 12.6042 77.459 13.1604 77.8984 13.6092C78.3377 14.0579 78.908 14.2823 79.6091 14.2823C80.4505 14.2823 81.147 13.9971 81.6986 13.4269L82.2034 14.114C81.5116 14.8058 80.6141 15.1517 79.511 15.1517ZM81.6144 11.1692C81.6051 10.5896 81.4087 10.0707 81.0255 9.61266C80.6422 9.14523 80.0953 8.91152 79.3848 8.91152C78.7117 8.91152 78.1788 9.14056 77.7862 9.59864C77.4029 10.0567 77.1972 10.5802 77.1692 11.1692H81.6144ZM83.5563 16.7082V14.114C83.9022 14.0486 84.1733 13.8429 84.3696 13.497C84.5659 13.1418 84.7248 12.492 84.8464 11.5478L85.2811 8.21038H89.9928V14.0579H90.778V16.7082H89.7263V14.9834H84.608V16.7082H83.5563ZM86.2066 9.13589L85.8981 11.674C85.7391 12.8613 85.4119 13.6559 84.9165 14.0579H88.941V9.13589H86.2066ZM95.273 15.1517C94.2634 15.1517 93.436 14.8245 92.791 14.1701C92.1459 13.5063 91.8234 12.6463 91.8234 11.5899C91.8234 10.5989 92.1412 9.76224 92.777 9.07979C93.4127 8.388 94.2073 8.0421 95.1608 8.0421C96.1611 8.0421 96.9511 8.388 97.5307 9.07979C98.1197 9.76224 98.4141 10.627 98.4141 11.674V11.9405H92.9312C92.9779 12.6042 93.221 13.1604 93.6604 13.6092C94.0998 14.0579 94.67 14.2823 95.3712 14.2823C96.2126 14.2823 96.909 13.9971 97.4606 13.4269L97.9654 14.114C97.2736 14.8058 96.3762 15.1517 95.273 15.1517ZM97.3765 11.1692C97.3671 10.5896 97.1708 10.0707 96.7875 9.61266C96.4042 9.14523 95.8573 8.91152 95.1468 8.91152C94.4737 8.91152 93.9408 9.14056 93.5482 9.59864C93.1649 10.0567 92.9592 10.5802 92.9312 11.1692H97.3765ZM103.455 15.1517C102.501 15.1517 101.74 14.7544 101.169 13.9598V17.5636H100.118V8.21038H101.169V9.22002C101.422 8.86478 101.749 8.57964 102.151 8.36463C102.553 8.14961 102.988 8.0421 103.455 8.0421C104.353 8.0421 105.077 8.36463 105.629 9.00968C106.189 9.64538 106.47 10.5055 106.47 11.5899C106.47 12.6743 106.189 13.5391 105.629 14.1841C105.077 14.8292 104.353 15.1517 103.455 15.1517ZM103.189 14.2122C103.852 14.2122 104.381 13.9691 104.773 13.483C105.166 12.9875 105.362 12.3565 105.362 11.5899C105.362 10.8233 105.166 10.1969 104.773 9.71082C104.381 9.2247 103.852 8.98163 103.189 8.98163C102.787 8.98163 102.394 9.08914 102.011 9.30416C101.637 9.50983 101.356 9.76224 101.169 10.0614V13.1184C101.356 13.4269 101.637 13.6886 102.011 13.9037C102.394 14.1093 102.787 14.2122 103.189 14.2122ZM113.429 14.9834H112.377V14.2122C111.807 14.8385 111.059 15.1517 110.134 15.1517C109.507 15.1517 108.956 14.9507 108.479 14.5487C108.002 14.1467 107.764 13.5998 107.764 12.908C107.764 12.1975 107.998 11.6507 108.465 11.2674C108.942 10.8747 109.498 10.6784 110.134 10.6784C111.097 10.6784 111.844 10.9869 112.377 11.6039V10.3839C112.377 9.93519 112.218 9.58462 111.901 9.33221C111.583 9.07979 111.171 8.95359 110.667 8.95359C109.872 8.95359 109.18 9.26677 108.591 9.89312L108.1 9.16393C108.82 8.41604 109.722 8.0421 110.807 8.0421C111.583 8.0421 112.214 8.22907 112.7 8.60302C113.186 8.97696 113.429 9.5519 113.429 10.3278V14.9834ZM110.512 14.3945C111.354 14.3945 111.975 14.114 112.377 13.5531V12.277C111.975 11.7161 111.354 11.4356 110.512 11.4356C110.026 11.4356 109.624 11.5759 109.306 11.8563C108.998 12.1274 108.844 12.4827 108.844 12.9221C108.844 13.3521 108.998 13.7073 109.306 13.9878C109.624 14.2589 110.026 14.3945 110.512 14.3945ZM114.738 15.1517V14.2823C115.056 14.2823 115.318 14.0719 115.523 13.6513C115.729 13.2306 115.897 12.5294 116.028 11.5478L116.463 8.21038H121.174V14.9834H120.123V9.13589H117.388L117.08 11.674C116.93 12.9174 116.668 13.8102 116.295 14.3524C115.921 14.8853 115.402 15.1517 114.738 15.1517ZM123.275 8.21038H124.326V10.8327H126.864C127.537 10.8327 128.061 11.0336 128.435 11.4356C128.809 11.8283 128.996 12.3191 128.996 12.908C128.996 13.497 128.804 13.9925 128.421 14.3945C128.047 14.7871 127.528 14.9834 126.864 14.9834H123.275V8.21038ZM126.752 11.7582H124.326V14.0579H126.752C127.126 14.0579 127.411 13.9551 127.608 13.7494C127.813 13.5344 127.916 13.2539 127.916 12.908C127.916 12.5621 127.813 12.2864 127.608 12.0807C127.411 11.8657 127.126 11.7582 126.752 11.7582ZM131.653 14.9834H130.601V8.21038H131.653V11.029H135.186V8.21038H136.238V14.9834H135.186V11.9545H131.653V14.9834ZM143.625 14.9834H142.573V14.2122C142.003 14.8385 141.255 15.1517 140.329 15.1517C139.703 15.1517 139.151 14.9507 138.675 14.5487C138.198 14.1467 137.96 13.5998 137.96 12.908C137.96 12.1975 138.193 11.6507 138.661 11.2674C139.137 10.8747 139.694 10.6784 140.329 10.6784C141.292 10.6784 142.04 10.9869 142.573 11.6039V10.3839C142.573 9.93519 142.414 9.58462 142.096 9.33221C141.778 9.07979 141.367 8.95359 140.862 8.95359C140.068 8.95359 139.376 9.26677 138.787 9.89312L138.296 9.16393C139.016 8.41604 139.918 8.0421 141.002 8.0421C141.778 8.0421 142.409 8.22907 142.896 8.60302C143.382 8.97696 143.625 9.5519 143.625 10.3278V14.9834ZM140.708 14.3945C141.549 14.3945 142.171 14.114 142.573 13.5531V12.277C142.171 11.7161 141.549 11.4356 140.708 11.4356C140.222 11.4356 139.82 11.5759 139.502 11.8563C139.194 12.1274 139.039 12.4827 139.039 12.9221C139.039 13.3521 139.194 13.7073 139.502 13.9878C139.82 14.2589 140.222 14.3945 140.708 14.3945ZM146.743 14.9834H145.509L147.318 12.3191C146.803 12.2536 146.383 12.0386 146.056 11.674C145.738 11.3094 145.579 10.8467 145.579 10.2858C145.579 9.68745 145.77 9.19198 146.154 8.79934C146.537 8.4067 147.061 8.21038 147.724 8.21038H151.3V14.9834H150.248V12.3611H148.397L146.743 14.9834ZM147.836 11.4356H150.248V9.13589H147.836C147.472 9.13589 147.182 9.24339 146.967 9.45841C146.761 9.66408 146.659 9.93986 146.659 10.2858C146.659 10.6317 146.761 10.9121 146.967 11.1271C147.173 11.3328 147.463 11.4356 147.836 11.4356Z" fill="#55607A"/>
<path d="M68.1431 29.8696C67.1428 29.8696 66.3295 29.533 65.7032 28.8599C65.0768 28.1775 64.7636 27.3267 64.7636 26.3077C64.7636 25.2887 65.0768 24.4427 65.7032 23.7696C66.3295 23.0965 67.1428 22.76 68.1431 22.76C69.1902 22.76 70.0175 23.1526 70.6252 23.9379L69.9241 24.5829C69.494 23.994 68.9191 23.6995 68.1992 23.6995C67.4887 23.6995 66.9185 23.9426 66.4884 24.4287C66.0678 24.9148 65.8574 25.5412 65.8574 26.3077C65.8574 27.0743 66.0678 27.7054 66.4884 28.2008C66.9185 28.687 67.4887 28.93 68.1992 28.93C68.9097 28.93 69.4847 28.6355 69.9241 28.0466L70.6252 28.6916C70.0175 29.4769 69.1902 29.8696 68.1431 29.8696ZM71.2999 29.8696V29.0001C71.6178 29.0001 71.8795 28.7898 72.0852 28.3691C72.2909 27.9484 72.4592 27.2473 72.59 26.2657L73.0247 22.9282H77.7364V29.7013H76.6847V23.8537H73.9503L73.6418 26.3919C73.4922 27.6352 73.2304 28.528 72.8565 29.0702C72.4825 29.6031 71.9637 29.8696 71.2999 29.8696ZM79.4579 32.3516L79.6261 31.398C79.7944 31.4728 79.986 31.5102 80.2011 31.5102C80.4441 31.5102 80.6451 31.4588 80.804 31.356C80.963 31.2531 81.0985 31.0662 81.2107 30.7951L81.6594 29.7714L78.8268 22.9282H79.9627L82.2204 28.4813L84.464 22.9282H85.6139L82.2204 31.0755C81.8464 31.973 81.1827 32.4311 80.2291 32.4498C79.9487 32.4498 79.6916 32.417 79.4579 32.3516ZM87.2018 29.7013H85.8556L88.8705 25.9992L85.8696 22.9282H87.2018L90.1185 25.9151V22.9282H91.1702V25.9011L94.087 22.9282H95.4192L92.4042 25.9992L95.4332 29.7013H94.087L91.647 26.6583L91.1702 27.1351V29.7013H90.1185V27.1351L89.6417 26.6583L87.2018 29.7013ZM97.9434 28.1728C98.3547 28.6776 98.9063 28.93 99.5981 28.93C100.29 28.93 100.837 28.6776 101.239 28.1728C101.641 27.6586 101.842 27.0323 101.842 26.2937C101.842 25.5739 101.641 24.9615 101.239 24.4567C100.837 23.9519 100.29 23.6995 99.5981 23.6995C98.9063 23.6995 98.3547 23.9519 97.9434 24.4567C97.5414 24.9615 97.3404 25.5739 97.3404 26.2937C97.3404 27.0323 97.5414 27.6586 97.9434 28.1728ZM99.5981 29.8696C98.5791 29.8696 97.7658 29.5096 97.1581 28.7898C96.5505 28.0699 96.2466 27.1398 96.2466 25.9992C96.2466 24.3913 96.5364 23.204 97.116 22.4374C97.6957 21.6615 98.5884 21.1941 99.7944 21.0351C100.514 20.923 101.01 20.8154 101.281 20.7126C101.561 20.6098 101.702 20.4882 101.702 20.348H102.725C102.725 20.6098 102.646 20.8388 102.487 21.0351C102.328 21.2221 102.099 21.3717 101.8 21.4839C101.51 21.5961 101.234 21.6849 100.972 21.7503C100.72 21.8064 100.416 21.8578 100.061 21.9046C99.126 22.0354 98.4482 22.2925 98.0275 22.6758C97.6162 23.0591 97.3451 23.5686 97.2142 24.2043C97.8312 23.2414 98.6819 22.76 99.7664 22.76C100.701 22.76 101.463 23.1012 102.052 23.7836C102.641 24.4661 102.936 25.3028 102.936 26.2937C102.936 27.3034 102.632 28.1541 102.024 28.8459C101.416 29.5283 100.608 29.8696 99.5981 29.8696ZM110.019 29.7013H108.967V28.93C108.397 29.5564 107.649 29.8696 106.724 29.8696C106.097 29.8696 105.546 29.6686 105.069 29.2666C104.592 28.8646 104.354 28.3177 104.354 27.6259C104.354 26.9154 104.588 26.3685 105.055 25.9852C105.532 25.5926 106.088 25.3963 106.724 25.3963C107.687 25.3963 108.435 25.7048 108.967 26.3218V25.1018C108.967 24.653 108.809 24.3025 108.491 24.0501C108.173 23.7976 107.761 23.6714 107.257 23.6714C106.462 23.6714 105.77 23.9846 105.181 24.611L104.69 23.8818C105.41 23.1339 106.312 22.76 107.397 22.76C108.173 22.76 108.804 22.9469 109.29 23.3209C109.776 23.6948 110.019 24.2698 110.019 25.0457V29.7013ZM107.102 29.1123C107.944 29.1123 108.565 28.8319 108.967 28.2709V26.9949C108.565 26.4339 107.944 26.1535 107.102 26.1535C106.616 26.1535 106.214 26.2937 105.896 26.5742C105.588 26.8453 105.434 27.2005 105.434 27.6399C105.434 28.0699 105.588 28.4252 105.896 28.7057C106.214 28.9768 106.616 29.1123 107.102 29.1123ZM118.73 29.8696C117.729 29.8696 116.916 29.533 116.29 28.8599C115.663 28.1775 115.35 27.3267 115.35 26.3077C115.35 25.2887 115.663 24.4427 116.29 23.7696C116.916 23.0965 117.729 22.76 118.73 22.76C119.777 22.76 120.604 23.1526 121.212 23.9379L120.51 24.5829C120.08 23.994 119.505 23.6995 118.786 23.6995C118.075 23.6995 117.505 23.9426 117.075 24.4287C116.654 24.9148 116.444 25.5412 116.444 26.3077C116.444 27.0743 116.654 27.7054 117.075 28.2008C117.505 28.687 118.075 28.93 118.786 28.93C119.496 28.93 120.071 28.6355 120.51 28.0466L121.212 28.6916C120.604 29.4769 119.777 29.8696 118.73 29.8696ZM122.307 32.3516L122.475 31.398C122.644 31.4728 122.835 31.5102 123.05 31.5102C123.293 31.5102 123.494 31.4588 123.653 31.356C123.812 31.2531 123.948 31.0662 124.06 30.7951L124.509 29.7714L121.676 22.9282H122.812L125.07 28.4813L127.313 22.9282H128.463L125.07 31.0755C124.696 31.973 124.032 32.4311 123.078 32.4498C122.798 32.4498 122.541 32.417 122.307 32.3516ZM128.761 31.4261V28.8319C129.107 28.7664 129.378 28.5607 129.574 28.2149C129.77 27.8596 129.929 27.2099 130.051 26.2657L130.486 22.9282H135.197V28.7758H135.983V31.4261H134.931V29.7013H129.813V31.4261H128.761ZM131.411 23.8537L131.103 26.3919C130.944 27.5791 130.617 28.3738 130.121 28.7758H134.146V23.8537H131.411ZM140.478 29.8696C139.468 29.8696 138.641 29.5424 137.996 28.888C137.351 28.2242 137.028 27.3641 137.028 26.3077C137.028 25.3168 137.346 24.4801 137.982 23.7976C138.617 23.1059 139.412 22.76 140.365 22.76C141.366 22.76 142.156 23.1059 142.735 23.7976C143.324 24.4801 143.619 25.3448 143.619 26.3919V26.6583H138.136C138.183 27.3221 138.426 27.8783 138.865 28.327C139.304 28.7758 139.875 29.0001 140.576 29.0001C141.417 29.0001 142.114 28.715 142.665 28.1447L143.17 28.8319C142.478 29.5237 141.581 29.8696 140.478 29.8696ZM142.581 25.8871C142.572 25.3074 142.375 24.7886 141.992 24.3305C141.609 23.8631 141.062 23.6294 140.351 23.6294C139.678 23.6294 139.145 23.8584 138.753 24.3165C138.37 24.7746 138.164 25.2981 138.136 25.8871H142.581ZM146.626 28.1728C147.038 28.6776 147.589 28.93 148.281 28.93C148.973 28.93 149.52 28.6776 149.922 28.1728C150.324 27.6586 150.525 27.0323 150.525 26.2937C150.525 25.5739 150.324 24.9615 149.922 24.4567C149.52 23.9519 148.973 23.6995 148.281 23.6995C147.589 23.6995 147.038 23.9519 146.626 24.4567C146.224 24.9615 146.023 25.5739 146.023 26.2937C146.023 27.0323 146.224 27.6586 146.626 28.1728ZM148.281 29.8696C147.262 29.8696 146.449 29.5096 145.841 28.7898C145.233 28.0699 144.93 27.1398 144.93 25.9992C144.93 24.3913 145.219 23.204 145.799 22.4374C146.379 21.6615 147.271 21.1941 148.477 21.0351C149.197 20.923 149.693 20.8154 149.964 20.7126C150.244 20.6098 150.384 20.4882 150.384 20.348H151.408C151.408 20.6098 151.329 20.8388 151.17 21.0351C151.011 21.2221 150.782 21.3717 150.483 21.4839C150.193 21.5961 149.917 21.6849 149.655 21.7503C149.403 21.8064 149.099 21.8578 148.744 21.9046C147.809 22.0354 147.131 22.2925 146.71 22.6758C146.299 23.0591 146.028 23.5686 145.897 24.2043C146.514 23.2414 147.365 22.76 148.449 22.76C149.384 22.76 150.146 23.1012 150.735 23.7836C151.324 24.4661 151.618 25.3028 151.618 26.2937C151.618 27.3034 151.315 28.1541 150.707 28.8459C150.099 29.5283 149.291 29.8696 148.281 29.8696ZM154.467 29.7013H153.415V22.9282H154.467V25.7468H158.001V22.9282H159.053V29.7013H158.001V26.6723H154.467V29.7013ZM161.153 22.9282H162.204V25.5505H164.743C165.416 25.5505 165.939 25.7515 166.313 26.1535C166.687 26.5461 166.874 27.0369 166.874 27.6259C166.874 28.2149 166.682 28.7103 166.299 29.1123C165.925 29.505 165.406 29.7013 164.743 29.7013H161.153V22.9282ZM164.63 26.476H162.204V28.7758H164.63C165.004 28.7758 165.289 28.6729 165.486 28.4673C165.691 28.2522 165.794 27.9718 165.794 27.6259C165.794 27.28 165.691 27.0042 165.486 26.7985C165.289 26.5835 165.004 26.476 164.63 26.476ZM169.034 29.7013H167.982V22.9282H169.034V29.7013ZM176.745 29.7013H175.525L173.492 26.9247L171.458 29.7013H170.252L172.847 26.2236L170.393 22.9282H171.613L173.492 25.5084L175.371 22.9282H176.591L174.137 26.2236L176.745 29.7013Z" fill="#55607A"/>
<path d="M70.7935 44.4196H69.7418V38.5721H66.208V44.4196H65.1563V37.6466H70.7935V44.4196ZM76.2309 44.5879C75.2774 44.5879 74.5155 44.1906 73.9452 43.3959V46.9998H72.8935V37.6466H73.9452V38.6562C74.1976 38.301 74.5248 38.0158 74.9268 37.8008C75.3288 37.5858 75.7635 37.4783 76.2309 37.4783C77.1284 37.4783 77.8529 37.8008 78.4045 38.4459C78.9654 39.0816 79.2459 39.9416 79.2459 41.0261C79.2459 42.1105 78.9654 42.9753 78.4045 43.6203C77.8529 44.2654 77.1284 44.5879 76.2309 44.5879ZM75.9645 43.6484C76.6283 43.6484 77.1565 43.4053 77.5491 42.9192C77.9417 42.4237 78.1381 41.7927 78.1381 41.0261C78.1381 40.2595 77.9417 39.6331 77.5491 39.147C77.1565 38.6609 76.6283 38.4178 75.9645 38.4178C75.5625 38.4178 75.1699 38.5253 74.7866 38.7404C74.4126 38.946 74.1322 39.1984 73.9452 39.4976V42.5546C74.1322 42.8631 74.4126 43.1248 74.7866 43.3399C75.1699 43.5455 75.5625 43.6484 75.9645 43.6484ZM81.928 44.4196H80.9183V37.6466H81.97V42.821L85.5178 37.6466H86.5555V44.4196H85.5038V39.147L81.928 44.4196ZM91.6424 44.5879C90.6421 44.5879 89.8288 44.2513 89.2024 43.5782C88.5761 42.8958 88.2629 42.0451 88.2629 41.0261C88.2629 40.0071 88.5761 39.161 89.2024 38.4879C89.8288 37.8148 90.6421 37.4783 91.6424 37.4783C92.6895 37.4783 93.5168 37.8709 94.1245 38.6562L93.4233 39.3013C92.9933 38.7123 92.4183 38.4178 91.6985 38.4178C90.988 38.4178 90.4177 38.6609 89.9877 39.147C89.567 39.6331 89.3567 40.2595 89.3567 41.0261C89.3567 41.7927 89.567 42.4237 89.9877 42.9192C90.4177 43.4053 90.988 43.6484 91.6985 43.6484C92.409 43.6484 92.9839 43.3539 93.4233 42.7649L94.1245 43.41C93.5168 44.1953 92.6895 44.5879 91.6424 44.5879ZM97.8842 44.4196H96.8325V38.5721H94.8693V37.6466H99.8615V38.5721H97.8842V44.4196ZM106.527 44.4196H105.475V43.6484C104.905 44.2747 104.157 44.5879 103.232 44.5879C102.605 44.5879 102.054 44.3869 101.577 43.9849C101.1 43.5829 100.862 43.036 100.862 42.3442C100.862 41.6337 101.096 41.0868 101.563 40.7036C102.04 40.3109 102.596 40.1146 103.232 40.1146C104.195 40.1146 104.943 40.4231 105.475 41.0401V39.8201C105.475 39.3714 105.317 39.0208 104.999 38.7684C104.681 38.516 104.269 38.3898 103.765 38.3898C102.97 38.3898 102.278 38.703 101.689 39.3293L101.198 38.6001C101.918 37.8522 102.82 37.4783 103.905 37.4783C104.681 37.4783 105.312 37.6653 105.798 38.0392C106.284 38.4132 106.527 38.9881 106.527 39.764V44.4196ZM103.61 43.8307C104.452 43.8307 105.073 43.5502 105.475 42.9893V41.7132C105.073 41.1523 104.452 40.8718 103.61 40.8718C103.124 40.8718 102.722 41.0121 102.404 41.2925C102.096 41.5636 101.942 41.9189 101.942 42.3583C101.942 42.7883 102.096 43.1435 102.404 43.424C102.722 43.6951 103.124 43.8307 103.61 43.8307ZM112.436 44.4196H108.635V37.6466H112.365C112.954 37.6466 113.417 37.8055 113.754 38.1233C114.1 38.4412 114.273 38.8619 114.273 39.3854C114.273 39.7687 114.165 40.1006 113.95 40.381C113.744 40.6521 113.487 40.8344 113.179 40.9279C113.525 41.0121 113.815 41.2131 114.048 41.5309C114.291 41.8488 114.413 42.1993 114.413 42.5826C114.413 43.1342 114.235 43.5782 113.88 43.9148C113.534 44.2513 113.053 44.4196 112.436 44.4196ZM112.225 43.4941C112.562 43.4941 112.828 43.4006 113.025 43.2137C113.221 43.0267 113.319 42.7743 113.319 42.4564C113.319 42.1666 113.221 41.9189 113.025 41.7132C112.828 41.5075 112.562 41.4047 112.225 41.4047H109.687V43.4941H112.225ZM112.183 40.4792C112.501 40.4792 112.749 40.3951 112.926 40.2268C113.104 40.0492 113.193 39.8201 113.193 39.5397C113.193 39.2405 113.104 39.0068 112.926 38.8385C112.749 38.6609 112.501 38.5721 112.183 38.5721H109.687V40.4792H112.183ZM121.785 43.5642C121.177 44.2467 120.368 44.5879 119.359 44.5879C118.349 44.5879 117.536 44.2467 116.919 43.5642C116.311 42.8818 116.007 42.0357 116.007 41.0261C116.007 40.0164 116.311 39.1751 116.919 38.502C117.536 37.8195 118.349 37.4783 119.359 37.4783C120.368 37.4783 121.177 37.8195 121.785 38.502C122.402 39.1751 122.71 40.0164 122.71 41.0261C122.71 42.0357 122.402 42.8818 121.785 43.5642ZM117.704 42.8911C118.115 43.3959 118.667 43.6484 119.359 43.6484C120.051 43.6484 120.598 43.3959 121 42.8911C121.402 42.377 121.602 41.7553 121.602 41.0261C121.602 40.2969 121.402 39.6799 121 39.1751C120.598 38.6702 120.051 38.4178 119.359 38.4178C118.667 38.4178 118.115 38.6749 117.704 39.1891C117.302 39.6939 117.101 40.3062 117.101 41.0261C117.101 41.7553 117.302 42.377 117.704 42.8911ZM128.225 44.4196H124.425V37.6466H128.155C128.744 37.6466 129.207 37.8055 129.543 38.1233C129.889 38.4412 130.062 38.8619 130.062 39.3854C130.062 39.7687 129.955 40.1006 129.739 40.381C129.534 40.6521 129.277 40.8344 128.968 40.9279C129.314 41.0121 129.604 41.2131 129.838 41.5309C130.081 41.8488 130.202 42.1993 130.202 42.5826C130.202 43.1342 130.025 43.5782 129.669 43.9148C129.323 44.2513 128.842 44.4196 128.225 44.4196ZM128.015 43.4941C128.351 43.4941 128.618 43.4006 128.814 43.2137C129.01 43.0267 129.108 42.7743 129.108 42.4564C129.108 42.1666 129.01 41.9189 128.814 41.7132C128.618 41.5075 128.351 41.4047 128.015 41.4047H125.477V43.4941H128.015ZM127.973 40.4792C128.29 40.4792 128.538 40.3951 128.716 40.2268C128.893 40.0492 128.982 39.8201 128.982 39.5397C128.982 39.2405 128.893 39.0068 128.716 38.8385C128.538 38.6609 128.29 38.5721 127.973 38.5721H125.477V40.4792H127.973Z" fill="#55607A"/>
<path d="M22.0359 24.5298H20.0327V29.4357H22.0359V24.5298Z" fill="#55607A"/>
<path d="M23.0376 28.4546H19.031V30.417H23.0376V28.4546Z" fill="#55607A"/>
<path d="M22.5368 28.9452H19.5319V29.9264H22.5368V28.9452Z" stroke="#55607A"/>
<path d="M52.5858 15.2084V33.8511" stroke="#55607A" stroke-linecap="square"/>
<path d="M21.0343 23.5484C21.5875 23.5484 22.0359 23.1091 22.0359 22.5672C22.0359 22.0253 21.5875 21.586 21.0343 21.586C20.4811 21.586 20.0327 22.0253 20.0327 22.5672C20.0327 23.1091 20.4811 23.5484 21.0343 23.5484Z" fill="#55607A"/>
</svg>
