<svg width="58" height="11" viewBox="0 0 58 11" fill="none" xmlns="http://www.w3.org/2000/svg">
<path fill-rule="evenodd" clip-rule="evenodd" d="M3.53173 8.29297C3.41996 8.29297 3.33243 8.26131 3.2691 8.19797C3.20576 8.13464 3.15547 8.07317 3.11822 8.01356L2.06763 6.16944V9.86886C2.06763 9.95082 2.03781 10.0216 1.9782 10.0812C1.91859 10.1408 1.84783 10.1706 1.76587 10.1706H0.301763C0.219801 10.1706 0.148971 10.1408 0.089363 10.0812C0.0297546 10.0216 0 9.95082 0 9.86886V2.64883C0 2.56687 0.0297546 2.49609 0.089363 2.43648C0.148971 2.37687 0.219801 2.34707 0.301763 2.34707H1.59824C1.74726 2.34707 1.85898 2.38805 1.93349 2.47001C2.008 2.55197 2.05644 2.61158 2.07879 2.64883L3.88943 5.74473L5.70001 2.64883C5.72236 2.61158 5.7708 2.55197 5.84531 2.47001C5.91982 2.38805 6.0316 2.34707 6.18062 2.34707H7.4771C7.55906 2.34707 7.62983 2.37687 7.68944 2.43648C7.74904 2.49609 7.77886 2.56687 7.77886 2.64883V9.86886C7.77886 9.95082 7.74904 10.0216 7.68944 10.0812C7.62983 10.1408 7.55906 10.1706 7.4771 10.1706H6.01293C5.93097 10.1706 5.8602 10.1408 5.8006 10.0812C5.74099 10.0216 5.71117 9.95082 5.71117 9.86886V6.16944L4.66058 8.01356C4.62333 8.07317 4.57303 8.13464 4.5097 8.19797C4.44637 8.26131 4.35883 8.29297 4.24707 8.29297H3.53173ZM10.1025 5.26414C10.1249 4.84688 10.2161 4.45385 10.3763 4.08502C10.5365 3.71619 10.7638 3.3958 11.0581 3.12384C11.3524 2.85187 11.7101 2.6358 12.131 2.4756C12.552 2.3154 13.0382 2.2353 13.5896 2.2353C14.1336 2.2353 14.6179 2.3154 15.0426 2.4756C15.4673 2.6358 15.8267 2.85187 16.1211 3.12384C16.4154 3.3958 16.6427 3.71619 16.8028 4.08502C16.963 4.45385 17.0544 4.84688 17.0767 5.26414C17.0916 5.58454 17.099 5.91983 17.099 6.27002C17.099 6.62022 17.0916 6.94807 17.0767 7.25356C17.0544 7.67082 16.963 8.06386 16.8028 8.43268C16.6427 8.80151 16.4154 9.12376 16.1211 9.39945C15.8267 9.67514 15.4673 9.89122 15.0426 10.0477C14.6179 10.2042 14.1336 10.2824 13.5896 10.2824C13.0382 10.2824 12.552 10.2042 12.131 10.0477C11.7101 9.89122 11.3524 9.67514 11.0581 9.39945C10.7638 9.12376 10.5365 8.80151 10.3763 8.43268C10.2161 8.06386 10.1249 7.67082 10.1025 7.25356C10.0876 6.94807 10.0802 6.62022 10.0802 6.27002C10.0802 5.91983 10.0876 5.58454 10.1025 5.26414ZM15.009 7.19768C15.0165 7.06356 15.024 6.91454 15.0314 6.75061C15.0389 6.58669 15.0426 6.41905 15.0426 6.24767C15.0426 6.0763 15.0389 5.91052 15.0314 5.75032C15.024 5.59012 15.0165 5.44669 15.009 5.32002C14.9941 5.13375 14.955 4.96237 14.8917 4.8059C14.8283 4.64943 14.7389 4.51345 14.6234 4.39796C14.5079 4.28247 14.3645 4.19119 14.1932 4.12413C14.0218 4.05707 13.8206 4.02355 13.5896 4.02355C13.3586 4.02355 13.1575 4.05707 12.9861 4.12413C12.8147 4.19119 12.6713 4.28247 12.5558 4.39796C12.4403 4.51345 12.3509 4.64943 12.2876 4.8059C12.2242 4.96237 12.1851 5.13375 12.1702 5.32002C12.1553 5.44669 12.146 5.59012 12.1423 5.75032C12.1385 5.91052 12.1367 6.0763 12.1367 6.24767C12.1367 6.41905 12.1385 6.58669 12.1423 6.75061C12.146 6.91454 12.1553 7.06356 12.1702 7.19768C12.2 7.57023 12.3285 7.87944 12.5558 8.12533C12.783 8.37121 13.1277 8.49415 13.5896 8.49415C14.0516 8.49415 14.3943 8.37121 14.6178 8.12533C14.8414 7.87944 14.9718 7.57023 15.009 7.19768ZM22.6751 1.84413C22.3323 1.84413 22.0418 1.79383 21.8033 1.69324C21.5649 1.59265 21.3693 1.46226 21.2166 1.30206C21.0638 1.14187 20.9539 0.964908 20.8869 0.77118C20.8198 0.577453 20.7863 0.391179 20.7863 0.212353C20.7863 0.152745 20.8049 0.102453 20.8422 0.0614719C20.8794 0.0204912 20.9316 0 20.9986 0H21.9375C22.0045 0 22.0567 0.0204912 22.0939 0.0614719C22.1312 0.102453 22.1498 0.152745 22.1498 0.212353C22.1498 0.353923 22.1945 0.482453 22.2839 0.597945C22.3734 0.713436 22.5037 0.77118 22.6751 0.77118C22.8464 0.77118 22.9768 0.713436 23.0663 0.597945C23.1557 0.482453 23.2004 0.353923 23.2004 0.212353C23.2004 0.152745 23.219 0.102453 23.2563 0.0614719C23.2935 0.0204912 23.3457 0 23.4127 0H24.3516C24.4186 0 24.4708 0.0204912 24.508 0.0614719C24.5453 0.102453 24.5639 0.152745 24.5639 0.212353C24.5639 0.391179 24.5304 0.577453 24.4633 0.77118C24.3963 0.964908 24.2864 1.14187 24.1337 1.30206C23.9809 1.46226 23.7853 1.59265 23.5469 1.69324C23.3084 1.79383 23.0178 1.84413 22.6751 1.84413ZM19.7026 10.1706C19.6206 10.1706 19.5499 10.1408 19.4903 10.0812C19.4306 10.0216 19.4008 9.95082 19.4008 9.86886V2.64883C19.4008 2.56687 19.4306 2.49609 19.4903 2.43648C19.5499 2.37687 19.6206 2.34707 19.7026 2.34707H21.1666C21.2486 2.34707 21.3194 2.37687 21.379 2.43648C21.4386 2.49609 21.4683 2.56687 21.4683 2.64883V6.42649L24.0276 2.60413C24.05 2.56687 24.1003 2.51472 24.1785 2.44766C24.2567 2.3806 24.3592 2.34707 24.4858 2.34707H25.6481C25.7301 2.34707 25.8008 2.37687 25.8605 2.43648C25.9201 2.49609 25.9499 2.56687 25.9499 2.64883V9.86886C25.9499 9.95082 25.9201 10.0216 25.8605 10.0812C25.8008 10.1408 25.7301 10.1706 25.6481 10.1706H24.1841C24.1021 10.1706 24.0313 10.1408 23.9717 10.0812C23.9121 10.0216 23.8823 9.95082 23.8823 9.86886V6.0912L21.3231 9.91357C21.3007 9.95083 21.2504 10.003 21.1722 10.07C21.094 10.1371 20.9915 10.1706 20.8649 10.1706H19.7026ZM35.4478 8.29297C35.3361 8.29297 35.2485 8.26131 35.1851 8.19797C35.1218 8.13464 35.0715 8.07317 35.0343 8.01356L33.9837 6.16944V9.86886C33.9837 9.95082 33.9539 10.0216 33.8943 10.0812C33.8347 10.1408 33.7639 10.1706 33.6819 10.1706H32.2178C32.1359 10.1706 32.0651 10.1408 32.0055 10.0812C31.9459 10.0216 31.916 9.95082 31.916 9.86886V2.64883C31.916 2.56687 31.9459 2.49609 32.0055 2.43648C32.0651 2.37687 32.1359 2.34707 32.2178 2.34707H33.5143C33.6633 2.34707 33.7751 2.38805 33.8496 2.47001C33.9241 2.55197 33.9725 2.61158 33.9949 2.64883L35.8055 5.74473L37.6161 2.64883C37.6384 2.61158 37.6868 2.55197 37.7614 2.47001C37.8359 2.38805 37.9476 2.34707 38.0967 2.34707H39.3931C39.4751 2.34707 39.5459 2.37687 39.6055 2.43648C39.6651 2.49609 39.6949 2.56687 39.6949 2.64883V9.86886C39.6949 9.95082 39.6651 10.0216 39.6055 10.0812C39.5459 10.1408 39.4751 10.1706 39.3931 10.1706H37.929C37.847 10.1706 37.7763 10.1408 37.7166 10.0812C37.657 10.0216 37.6272 9.95082 37.6272 9.86886V6.16944L36.5766 8.01356C36.5394 8.07317 36.4891 8.13464 36.4257 8.19797C36.3624 8.26131 36.2749 8.29297 36.1631 8.29297H35.4478ZM43.7401 10.1706C43.8668 10.1706 43.9692 10.1371 44.0475 10.07C44.1257 10.003 44.176 9.95083 44.1983 9.91357L46.7576 6.0912V9.86886C46.7576 9.95082 46.7874 10.0216 46.847 10.0812C46.9066 10.1408 46.9774 10.1706 47.0594 10.1706H48.5234C48.6053 10.1706 48.6761 10.1408 48.7357 10.0812C48.7953 10.0216 48.8251 9.95082 48.8251 9.86886V2.64883C48.8251 2.56687 48.7953 2.49609 48.7357 2.43648C48.6761 2.37687 48.6053 2.34707 48.5234 2.34707H47.3611C47.2344 2.34707 47.132 2.3806 47.0537 2.44766C46.9755 2.51472 46.9253 2.56687 46.9029 2.60413L44.3436 6.42649V2.64883C44.3436 2.56687 44.3138 2.49609 44.2542 2.43648C44.1946 2.37687 44.1238 2.34707 44.0419 2.34707H42.5778C42.4959 2.34707 42.4251 2.37687 42.3655 2.43648C42.3059 2.49609 42.2761 2.56687 42.2761 2.64883V9.86886C42.2761 9.95082 42.3059 10.0216 42.3655 10.0812C42.4251 10.1408 42.4959 10.1706 42.5778 10.1706H43.7401ZM54.9041 2.34707C55.381 2.34707 55.8094 2.40109 56.1894 2.50913C56.5694 2.61717 56.8935 2.78109 57.1617 3.0009C57.43 3.2207 57.6368 3.49452 57.7821 3.82237C57.9274 4.15021 58 4.53021 58 4.96237C58 5.40199 57.9274 5.78571 57.7821 6.11355C57.6368 6.4414 57.43 6.71336 57.1617 6.92944C56.8935 7.14552 56.5694 7.30944 56.1894 7.4212C55.8094 7.53297 55.381 7.58885 54.9041 7.58885H53.4735V9.86886C53.4735 9.95082 53.4437 10.0216 53.3841 10.0812C53.3245 10.1408 53.2537 10.1706 53.1717 10.1706H51.7076C51.6257 10.1706 51.5549 10.1408 51.4953 10.0812C51.4357 10.0216 51.4059 9.95082 51.4059 9.86886V2.64883C51.4059 2.56687 51.4357 2.49609 51.4953 2.43648C51.5549 2.37687 51.6257 2.34707 51.7076 2.34707H54.9041ZM53.4735 5.84532H54.8482C55.1612 5.84532 55.4201 5.7764 55.625 5.63855C55.8299 5.50071 55.9323 5.27532 55.9323 4.96237C55.9323 4.64943 55.8299 4.42404 55.625 4.28619C55.4201 4.14835 55.1612 4.07943 54.8482 4.07943H53.4735V5.84532Z" fill="white"/>
</svg>
