<svg width="146" height="29" viewBox="0 0 146 29" fill="none" xmlns="http://www.w3.org/2000/svg">
<g clip-path="url(#clip0_48_709)">
<path d="M18.9166 0C14.9166 0 11.3166 1.6 8.71662 4.3V4.4H30.6166C31.1166 4.4 31.5166 4.8 31.5166 5.3C31.5166 5.8 31.1166 6.2 30.6166 6.2H8.61662C4.21662 6.2 0.316616 9.5 0.0166164 14C-0.283364 18.8 3.51662 22.8 8.31662 22.8H30.6166C31.1166 22.8 31.5166 23.2 31.5166 23.7C31.5166 24.2 31.1166 24.6 30.6166 24.6H8.71662C8.71662 24.6 8.61662 24.6 8.71662 24.7C11.3166 27.3 14.9166 29 18.9166 29H30.4166C33.1166 29 35.5166 27.1 35.8166 24.4C36.2166 21.2 33.7166 18.5 30.6166 18.5H8.51662C6.41662 18.5 4.51662 17 4.31662 14.9C4.11662 12.5 5.91662 10.5 8.31662 10.5H30.4166C33.1166 10.5 35.5166 8.6 35.8166 5.9C36.2166 2.7 33.7166 0 30.6166 0H18.9166Z" fill="#9FA7BC"/>
<path d="M98.6583 17.45H97.2583V11.7499H94.3583V17.45H92.9583V8.44995H89.6587V17.45C89.6587 19.25 91.1583 20.7499 92.9583 20.7499H101.958V8.44995H98.6583V17.45Z" fill="#9FA7BC"/>
<path d="M75.0591 17.45V8.44995H87.3591V11.7499H78.3591V13.1499H84.0591V16.0499H78.3591V17.45H87.3591V20.7499H78.3591C76.5591 20.7499 75.0591 19.25 75.0591 17.45Z" fill="#9FA7BC"/>
<path d="M60.459 11.6501V20.6501H63.759V11.6501H69.459V20.6501H72.759V8.3501H63.759C61.959 8.4501 60.459 9.8501 60.459 11.6501Z" fill="#9FA7BC"/>
<path d="M127.859 8.44995H118.859V11.7499H127.859V13.1499H122.159V16.0499H127.859V17.45H118.859V20.7499H131.159V11.7499C131.059 9.84985 129.659 8.44995 127.859 8.44995Z" fill="#9FA7BC"/>
<path d="M112.758 8.44995L110.859 13.0499H107.459V8.44995H104.258V20.7499H107.459V16.1499H110.859L112.758 20.7499H116.558L113.959 14.5499L116.558 8.44995H112.758Z" fill="#9FA7BC"/>
<path d="M45.8589 14.55C45.8589 17.95 48.6589 20.65 51.9589 20.65H58.0588V17.35H51.9589C50.3589 17.35 49.0588 16.05 49.0588 14.45C49.0588 12.85 50.3589 11.55 51.9589 11.55H54.8589C56.6589 11.55 58.1589 10.05 58.1589 8.25H52.0588C48.6588 8.45 45.8589 11.15 45.8589 14.55Z" fill="#9FA7BC"/>
<path d="M142.359 8.44995V17.45H140.959V11.7499H138.059V17.45H136.659V8.44995H133.359V17.45C133.359 19.25 134.859 20.7499 136.659 20.7499H145.659V8.44995H142.359Z" fill="#9FA7BC"/>
</g>
<defs>
<clipPath id="clip0_48_709">
<rect width="145.659" height="29" fill="white"/>
</clipPath>
</defs>
</svg>
