<svg width="28" height="28" viewBox="0 0 28 28" fill="none" xmlns="http://www.w3.org/2000/svg">
<path d="M7 21.875C8.44975 21.875 9.625 20.6997 9.625 19.25C9.625 17.8003 8.44975 16.625 7 16.625C5.55025 16.625 4.375 17.8003 4.375 19.25C4.375 20.6997 5.55025 21.875 7 21.875Z" stroke="#00CB82" stroke-width="1.6" stroke-linecap="round" strokeLinejoin="round"/>
<path d="M21 21.875C22.4497 21.875 23.625 20.6997 23.625 19.25C23.625 17.8003 22.4497 16.625 21 16.625C19.5503 16.625 18.375 17.8003 18.375 19.25C18.375 20.6997 19.5503 21.875 21 21.875Z" stroke="#00CB82" stroke-width="1.6" stroke-linecap="round" strokeLinejoin="round"/>
<path d="M9.625 19.25H18.375" stroke="#00CB82" stroke-width="1.6" stroke-linecap="round" strokeLinejoin="round"/>
<path d="M23.625 19.25H26.25C26.4821 19.25 26.7046 19.1578 26.8687 18.9937C27.0328 18.8296 27.125 18.6071 27.125 18.375V14C27.125 13.7679 27.0328 13.5454 26.8687 13.3813C26.7046 13.2172 26.4821 13.125 26.25 13.125H22.75L17.7559 8.13094C17.592 7.96715 17.3697 7.87511 17.138 7.875H4.84312C4.69922 7.87509 4.55755 7.91066 4.43068 7.97858C4.30381 8.0465 4.19565 8.14467 4.11578 8.26437L0.875 13.125V18.375C0.875 18.6071 0.967187 18.8296 1.13128 18.9937C1.29538 19.1578 1.51794 19.25 1.75 19.25H4.375" stroke="#00CB82" stroke-width="1.6" stroke-linecap="round" strokeLinejoin="round"/>
<path d="M22.75 13.125H0.875" stroke="#00CB82" stroke-width="1.6" stroke-linecap="round" strokeLinejoin="round"/>
</svg>
