<svg width="28" height="28" viewBox="0 0 28 28" fill="none" xmlns="http://www.w3.org/2000/svg">
<path d="M24.5 22.75H3.5V5.25" stroke="white" stroke-width="1.6" stroke-linecap="round" stroke-linejoin="round"/>
<path d="M14.4375 17.5C15.1624 17.5 15.75 16.9124 15.75 16.1875C15.75 15.4626 15.1624 14.875 14.4375 14.875C13.7126 14.875 13.125 15.4626 13.125 16.1875C13.125 16.9124 13.7126 17.5 14.4375 17.5Z" fill="white"/>
<path d="M11.8125 11.375C12.5374 11.375 13.125 10.7874 13.125 10.0625C13.125 9.33763 12.5374 8.75 11.8125 8.75C11.0876 8.75 10.5 9.33763 10.5 10.0625C10.5 10.7874 11.0876 11.375 11.8125 11.375Z" fill="white"/>
<path d="M8.3125 19.25C9.03737 19.25 9.625 18.6624 9.625 17.9375C9.625 17.2126 9.03737 16.625 8.3125 16.625C7.58763 16.625 7 17.2126 7 17.9375C7 18.6624 7.58763 19.25 8.3125 19.25Z" fill="white"/>
<path d="M18.8125 14C19.5374 14 20.125 13.4124 20.125 12.6875C20.125 11.9626 19.5374 11.375 18.8125 11.375C18.0876 11.375 17.5 11.9626 17.5 12.6875C17.5 13.4124 18.0876 14 18.8125 14Z" fill="white"/>
<path d="M21.4375 9.625C22.1624 9.625 22.75 9.03737 22.75 8.3125C22.75 7.58763 22.1624 7 21.4375 7C20.7126 7 20.125 7.58763 20.125 8.3125C20.125 9.03737 20.7126 9.625 21.4375 9.625Z" fill="white"/>
<path d="M20.5625 19.25C21.2874 19.25 21.875 18.6624 21.875 17.9375C21.875 17.2126 21.2874 16.625 20.5625 16.625C19.8376 16.625 19.25 17.2126 19.25 17.9375C19.25 18.6624 19.8376 19.25 20.5625 19.25Z" fill="white"/>
</svg>
