<svg width="28" height="28" viewBox="0 0 28 28" fill="none" xmlns="http://www.w3.org/2000/svg">
<path d="M8.75 12.25C10.683 12.25 12.25 10.683 12.25 8.75C12.25 6.817 10.683 5.25 8.75 5.25C6.817 5.25 5.25 6.817 5.25 8.75C5.25 10.683 6.817 12.25 8.75 12.25Z" stroke="#3573FC" stroke-width="1.6" stroke-linecap="round" strokeLinejoin="round"/>
<path d="M19.25 12.25C21.183 12.25 22.75 10.683 22.75 8.75C22.75 6.817 21.183 5.25 19.25 5.25C17.317 5.25 15.75 6.817 15.75 8.75C15.75 10.683 17.317 12.25 19.25 12.25Z" stroke="#3573FC" stroke-width="1.6" stroke-linecap="round" strokeLinejoin="round"/>
<path d="M8.75 22.75C10.683 22.75 12.25 21.183 12.25 19.25C12.25 17.317 10.683 15.75 8.75 15.75C6.817 15.75 5.25 17.317 5.25 19.25C5.25 21.183 6.817 22.75 8.75 22.75Z" stroke="#3573FC" stroke-width="1.6" stroke-linecap="round" strokeLinejoin="round"/>
<path d="M19.25 22.75C21.183 22.75 22.75 21.183 22.75 19.25C22.75 17.317 21.183 15.75 19.25 15.75C17.317 15.75 15.75 17.317 15.75 19.25C15.75 21.183 17.317 22.75 19.25 22.75Z" stroke="#3573FC" stroke-width="1.6" stroke-linecap="round" strokeLinejoin="round"/>
</svg>
