<svg width="56" height="56" viewBox="0 0 56 56" fill="none" xmlns="http://www.w3.org/2000/svg">
<mask id="mask0_9569_17288" style="mask-type:luminance" maskUnits="userSpaceOnUse" x="0" y="0" width="56" height="56">
<path d="M56 0H0V56H56V0Z" fill="white"/>
</mask>
<g mask="url(#mask0_9569_17288)">
<path d="M8.16586 8.16586C3.12402 13.2049 0 20.1866 0 27.8798C0 28.7893 0.739102 29.5284 1.64856 29.5284C2.55802 29.5284 3.29711 28.7893 3.29711 27.8798C3.29711 21.0878 6.04471 14.9524 10.4958 10.4986C14.9497 6.04745 21.085 3.29986 27.8771 3.29986C34.6691 3.29986 40.8045 6.04745 45.2584 10.4986C49.7095 14.9524 52.457 21.0878 52.457 27.8798C52.457 34.6719 49.7095 40.8073 45.2584 45.2612C40.8045 49.7122 34.6691 52.4598 27.8771 52.4598C25.3713 52.4598 22.959 52.0779 20.6839 51.3827C21.3324 49.6848 21.978 47.9868 22.6265 46.286C24.297 46.7613 26.0582 47.0196 27.8771 47.0196C33.158 47.0196 37.9552 44.8737 41.4145 41.4117C44.8764 37.9525 47.0223 33.1553 47.0223 27.8743C47.0223 22.5935 44.8764 17.7962 41.4145 14.3369C37.9552 10.875 33.158 8.72911 27.8771 8.72911C22.5963 8.72911 17.7989 10.875 14.3396 14.3369C10.8777 17.7962 8.73186 22.5935 8.73186 27.8743C8.73186 28.7837 9.47096 29.5229 10.3804 29.5229C11.2899 29.5229 12.029 28.7837 12.029 27.8743C12.029 23.4919 13.8011 19.5409 16.6696 16.6696C19.5436 13.7984 23.4947 12.029 27.8743 12.029C32.2568 12.029 36.2078 13.8011 39.079 16.6696C41.9503 19.5436 43.7197 23.4947 43.7197 27.8743C43.7197 32.2568 41.9475 36.2078 39.079 39.079C36.205 41.9503 32.2541 43.7197 27.8743 43.7197C26.4648 43.7197 25.1021 43.5301 23.8023 43.1839C24.4536 41.4749 25.1048 39.7687 25.756 38.0597C26.4401 38.2026 27.1489 38.2795 27.8743 38.2795C30.7428 38.2795 33.3558 37.1117 35.2352 35.2296C37.1172 33.3503 38.285 30.7401 38.285 27.8689C38.285 25.0004 37.1172 22.3874 35.2352 20.508C33.3558 18.626 30.7456 17.4582 27.8743 17.4582C25.0058 17.4582 22.3928 18.626 20.5136 20.508C18.6315 22.3874 17.4637 24.9976 17.4637 27.8689C17.4637 28.7783 18.2029 29.5173 19.1123 29.5173C20.0217 29.5173 20.7608 28.7783 20.7608 27.8689C20.7608 25.8988 21.5549 24.1321 22.8434 22.8407C24.1348 21.5522 25.9043 20.758 27.8716 20.758C29.8416 20.758 31.6084 21.5522 32.8997 22.8407C34.1883 24.1321 34.9824 25.8988 34.9824 27.8689C34.9824 29.8389 34.1883 31.6056 32.8997 32.897C31.6084 34.1855 29.8389 34.9797 27.8716 34.9797C27.5584 34.9797 27.2534 34.9522 26.9511 34.9137C27.2974 34.0015 27.6463 33.092 27.9924 32.1798C29.1328 32.1496 30.1741 31.6743 30.9241 30.9214C31.7017 30.1466 32.188 29.0558 32.188 27.8689C32.188 26.6819 31.7017 25.5938 30.9241 24.8162C30.1494 24.0387 29.0585 23.5524 27.8716 23.5524C26.6847 23.5524 25.5966 24.0387 24.8191 24.8162C24.0415 25.5911 23.5552 26.6819 23.5552 27.8689C23.5552 29.0558 24.0415 30.1439 24.8191 30.9214C24.8493 30.9516 24.8822 30.9763 24.9124 31.0066C23.3079 35.2159 21.706 39.4224 20.1014 43.6318L19.5134 45.1733C18.6726 47.3823 17.8291 49.5914 16.9883 51.8004C16.6642 52.6521 17.09 53.6028 17.9418 53.9271C21.0274 55.103 24.3767 55.7514 27.8716 55.7514C35.5648 55.7514 42.5437 52.6274 47.5855 47.5855C52.6274 42.5465 55.7514 35.5648 55.7514 27.8716C55.7514 20.1784 52.6274 13.1995 47.5855 8.15761C42.5521 3.12402 35.5732 0 27.8798 0C20.1866 0 13.2049 3.12402 8.16586 8.16586ZM27.1573 28.5997C26.9704 28.4101 26.8605 28.1655 26.8577 27.8798C26.8577 27.5941 26.9704 27.3495 27.1573 27.16C27.3468 26.9731 27.5913 26.8632 27.8771 26.8605C28.1628 26.8605 28.4074 26.9731 28.597 27.16C28.7837 27.3495 28.8937 27.5941 28.8964 27.8798C28.8964 28.1655 28.7837 28.4101 28.597 28.5997C28.4074 28.7866 28.1628 28.8964 27.8771 28.8993C27.5913 28.8993 27.3468 28.7866 27.1573 28.5997Z" fill="#FF6A28"/>
</g>
</svg>
