<svg width="5" height="7" viewBox="0 0 5 7" fill="none" xmlns="http://www.w3.org/2000/svg">
<path fill-rule="evenodd" clip-rule="evenodd" d="M2.19069 6.99035C1.46994 6.92433 0.730167 6.63187 0 6.09415L0.616446 5.26397C1.19495 5.67911 1.74493 5.90545 2.27608 5.95265C2.69332 5.99039 3.07271 5.89599 3.37613 5.69793C3.78396 5.43375 3.99258 4.99989 3.90729 4.62259C3.80298 4.17917 3.30035 3.87725 2.54156 3.78295C1.99158 3.71684 1.5268 3.54706 1.16642 3.28288C0.825064 3.0188 0.578503 2.67914 0.474194 2.29238C0.379297 1.95281 0.398318 1.59434 0.521549 1.25468C0.635368 0.915116 0.853492 0.622657 1.13799 0.405677C1.48895 0.141595 1.9157 0 2.3899 0C2.89253 0 3.41407 0.160417 3.94513 0.471698L3.42358 1.35844C3.0537 1.15092 2.70283 1.0377 2.3899 1.0377C2.15275 1.0377 1.93462 1.10372 1.77345 1.2264C1.65013 1.32079 1.55533 1.45283 1.49837 1.59433C1.45102 1.73583 1.44151 1.88679 1.47945 2.01884C1.59327 2.4056 2.02002 2.67914 2.66489 2.75471C3.28133 2.8301 3.79347 3.00933 4.18228 3.30179C4.56158 3.58479 4.81764 3.95274 4.92195 4.37724C5.01685 4.78291 4.9694 5.20741 4.78921 5.60363C4.60903 5.99039 4.32452 6.32059 3.95464 6.56585C3.51838 6.84885 3.00634 6.99981 2.45627 6.99981C2.37088 6.99981 2.27608 6.99035 2.19069 6.99035Z" fill="#9FA7BC"/>
</svg>
