<svg width="9" height="11" viewBox="0 0 9 11" fill="none" xmlns="http://www.w3.org/2000/svg">
<path fill-rule="evenodd" clip-rule="evenodd" d="M5.40186 8.70661C4.95417 8.91342 4.36594 9.01651 3.63747 9.01651C3.38758 9.01651 3.15859 9.0114 2.95051 9.00119C2.74242 8.99097 2.54977 8.97534 2.37288 8.95459V1.99856C2.56038 1.97813 2.7733 1.96537 3.0129 1.95994C3.25251 1.95484 3.47635 1.95197 3.68444 1.95197C4.3296 1.95197 4.81845 2.04005 5.15197 2.21559C5.48452 2.39144 5.65176 2.6956 5.65176 3.12934C5.65176 3.55318 5.49256 3.86467 5.1674 4.05138C4.96704 4.16628 4.63224 4.23553 4.31255 4.27671C3.82948 4.33926 3.47217 4.7548 3.47217 5.23801C3.47217 5.75568 3.88287 6.1808 4.40356 6.20792C4.48236 6.21207 4.54701 6.21654 4.58625 6.22165C4.96125 6.27048 5.26936 6.36272 5.51089 6.499C5.88557 6.71092 6.07275 7.06454 6.07275 7.56019C6.07275 8.11776 5.84923 8.50043 5.40186 8.70661ZM6.75973 5.05034C7.59239 4.55469 8.00856 3.87872 8.00856 3.02114C8.00856 2.45336 7.89149 1.97526 7.65768 1.58813C7.42322 1.20067 7.09807 0.888534 6.6819 0.650762C6.2654 0.413309 5.76819 0.245431 5.19089 0.14745C4.61326 0.0494683 3.98096 0 3.29431 0C2.78391 0 2.23266 0.023298 1.63928 0.069895C1.47558 0.0826612 1.31541 0.0973419 1.15878 0.113619C0.497217 0.182876 0 0.744912 0 1.40493V9.59067C0 10.2475 0.495606 10.8031 1.15267 10.8826C1.38327 10.9107 1.61033 10.9315 1.83417 10.9455C2.42241 10.9812 3.0129 10.9997 3.60628 10.9997C5.24009 10.9997 6.47124 10.7154 7.29843 10.1476C8.12563 9.57982 8.53955 8.73246 8.53955 7.60679C8.53955 7.04922 8.41476 6.54815 8.16486 6.10388C7.91529 5.65993 7.4467 5.30886 6.75973 5.05034Z" fill="#9FA7BC"/>
</svg>
