<svg width="9" height="11" viewBox="0 0 9 11" fill="none" xmlns="http://www.w3.org/2000/svg">
<path fill-rule="evenodd" clip-rule="evenodd" d="M7.81934 0H4.50075C2.64684 0 1.14408 1.49127 1.14408 3.331V7.77951C1.14408 8.23258 0.872227 8.57886 0.526429 8.78212C0.168989 8.99258 -0.0364782 9.38475 0.00537005 9.79473C0.0796269 10.5244 0.866561 10.9622 1.52889 10.6368C2.63142 10.0957 3.38941 8.96916 3.38941 7.66555V3.06216C3.38941 2.47577 3.8683 2.00054 4.4589 2.00054H6.61738V9.25423C6.61738 9.83938 7.01415 10.3849 7.59531 10.4851C8.34732 10.6144 8.9999 10.0436 8.9999 9.32137V1.17153C8.9999 0.524567 8.47129 0 7.81934 0Z" fill="#9FA7BC"/>
</svg>
