<svg width="10" height="11" viewBox="0 0 10 11" fill="none" xmlns="http://www.w3.org/2000/svg">
<path fill-rule="evenodd" clip-rule="evenodd" d="M3.42241 6.3335L4.70556 2.37463C4.79639 2.09409 5.19638 2.0944 5.28722 2.37494L6.56591 6.3335H3.42241ZM7.41082 1.71803C7.05927 0.69107 6.08751 0 4.99431 0C3.90112 0 2.92903 0.69107 2.57749 1.71803L0.0704643 9.0399C-0.168573 9.73793 0.219307 10.4869 0.950123 10.6197C1.54803 10.7282 2.1128 10.3781 2.29064 9.82554L2.78402 8.30265H7.20174L7.69544 9.8306C7.85288 10.3126 8.30546 10.6393 8.81636 10.6393H8.8205C9.62781 10.6393 10.1961 9.8521 9.93633 9.09367L7.41082 1.71803Z" fill="#9FA7BC"/>
</svg>
