<svg width="6" height="3" viewBox="0 0 6 3" fill="none" xmlns="http://www.w3.org/2000/svg">
<path fill-rule="evenodd" clip-rule="evenodd" d="M0.85065 2.32533C1.13959 2.54699 1.466 2.71645 1.82123 2.82943C2.1743 2.94241 2.54827 2.99997 2.93233 2.99997C3.3153 2.99997 3.69215 2.94277 4.05062 2.82979C4.41054 2.71681 4.73695 2.55021 5.02157 2.33426C5.30691 2.11725 5.54614 1.84625 5.73888 1.51947C5.88696 1.26527 5.90425 0.959591 5.78788 0.680366C5.66359 0.38398 5.40382 0.158384 5.09254 0.0765112L5.01148 0.055058C4.92537 0.0328917 4.83711 0.0214509 4.7492 0.0214509C4.3756 0.0214509 4.03261 0.222021 3.85427 0.545221C3.79159 0.658198 3.71917 0.747222 3.63955 0.809074C3.44572 0.959948 3.20758 1.03681 2.93233 1.03681C2.66644 1.03681 2.44199 0.954942 2.24636 0.786549C2.16746 0.718977 2.09649 0.629954 2.03524 0.521982C1.85186 0.199855 1.50851 0 1.13886 0C1.05204 0 0.965574 0.011084 0.880909 0.0328929L0.772105 0.0614933C0.460827 0.142293 0.200347 0.367534 0.0760516 0.66392C-0.0410389 0.942787 -0.0230282 1.24847 0.130811 1.51196C0.317794 1.82944 0.560267 2.1033 0.85065 2.32533Z" fill="#9FA7BC"/>
</svg>
