<svg width="26" height="29" viewBox="0 0 26 29" fill="none" xmlns="http://www.w3.org/2000/svg">
<path fill-rule="evenodd" clip-rule="evenodd" d="M15.3065 19.3935C14.4984 20.9635 13.0173 22.2427 13 22.2234C12.9824 22.2427 11.5013 20.9635 10.6932 19.3935C9.88507 17.8249 9.36675 15.3607 9.33814 14.1837C9.30919 13.0063 9.53974 12.5023 9.53974 12.5023C9.53974 12.5023 10.5501 12.4467 11.3582 12.165C12.0439 11.9278 12.7901 11.3266 13 11.1516C13.2083 11.3266 13.9561 11.9278 14.6431 12.165C15.4499 12.4467 16.4599 12.5023 16.4599 12.5023C16.4599 12.5023 16.6908 13.0063 16.6602 14.1837C16.6316 15.3607 16.1133 17.8249 15.3065 19.3935ZM15.3827 24.7325C15.4878 24.9344 15.5484 25.329 15.227 25.3592C15.0473 24.8882 14.8311 24.613 14.5636 24.2328C14.3154 23.94 14.042 23.6379 13.8464 23.3069C14.2852 23.8222 15.1668 24.3362 15.3827 24.7325ZM13.8464 27.1265C13.9066 26.665 13.7871 25.6344 13.5998 24.9344C13.4707 24.4633 13.0429 23.2274 13.2335 22.7853C13.3084 23.3675 13.5409 24.2774 13.8766 25.0236C14.1148 25.5595 14.4651 26.8051 13.8464 27.1265ZM12.3985 24.9344C12.2205 25.6344 12.0931 26.665 12.1533 27.1265C11.5332 26.8051 11.8848 25.5595 12.1234 25.0236C12.4574 24.2774 12.6896 23.3675 12.7645 22.7853C12.9571 23.2274 12.5289 24.4633 12.3985 24.9344ZM11.444 24.2328C11.1672 24.613 10.951 24.8882 10.7727 25.3592C10.4513 25.329 10.5118 24.9344 10.617 24.7325C10.8332 24.3362 11.7128 23.8222 12.1533 23.3069C11.958 23.6379 11.6842 23.9354 11.444 24.2328ZM8.13847 19.1217C8.15444 19.2249 8.16875 19.2854 8.213 19.3536C7.63878 19.4428 7.39392 19.667 7.18566 20.0313C6.8929 20.523 7.19831 21.1578 7.11547 21.4203C7.05691 21.5839 6.86429 21.7416 6.55855 21.5982C6.7066 22.2556 7.52766 22.1808 7.74358 21.8148C7.8171 22.1202 7.74358 22.4719 7.5942 22.6053C7.84904 22.6196 8.06528 22.5161 8.19869 22.3142C8.22896 22.3747 8.22896 22.4576 8.24327 22.5304C8.38499 22.4576 8.47582 22.3747 8.53437 22.2999C8.55666 22.3734 8.58527 22.5447 8.55034 22.6851C8.44089 22.7596 8.31646 22.8282 8.12417 22.9267C7.8171 23.0764 7.26019 23.2926 6.93881 23.3372C6.67632 23.3818 6.22154 23.2321 6.10211 22.8661C5.99698 22.5161 5.70754 22.405 5.47533 22.6196C5.41645 22.575 5.25276 22.5447 5.18423 22.6515C5.18423 22.6515 5.11104 22.4862 5.02022 22.405C5.08077 22.225 5.03452 22.0088 4.87084 21.9356C4.85654 21.5839 4.64029 21.5839 4.56544 21.4645C4.52119 21.39 4.52119 21.2992 4.62599 21.2852C4.58141 21.2183 4.49058 21.204 4.47628 21.204C4.50522 21.0543 4.46031 20.8683 4.26003 20.8078L2.49115 17.1602C2.60393 17.0408 2.54537 16.8691 2.41629 16.8082C2.41629 16.8082 2.41629 16.7939 2.41629 16.78C2.42727 16.751 2.42893 16.7287 2.43226 16.7068C2.47983 16.6988 2.53739 16.6875 2.58829 16.6748C2.93827 16.5923 3.48355 16.0783 3.95463 15.757C3.78895 15.9286 3.10329 16.4283 2.79788 16.7194C2.5131 17.0025 2.63254 17.2856 2.67878 17.5405L2.74565 17.6819C3.00481 17.6978 3.39305 17.8539 3.68415 17.615C3.77464 17.5258 5.05049 15.9429 5.22083 15.7872C5.15562 15.9286 4.34919 16.9436 3.9849 17.5258C3.71443 17.965 4.11066 18.2561 4.15657 18.5089C4.446 18.4201 4.84223 18.5918 5.05049 18.2418C5.25276 17.9061 5.87156 16.7051 6.10211 16.3678C6.01295 16.6303 5.3559 17.9953 5.31165 18.1144C5.15562 18.5775 5.55018 18.6666 5.70754 18.9737C5.94608 18.8017 6.37757 18.9354 6.54292 18.4946C6.64605 18.1972 6.90854 17.1602 7.04394 16.8834C7.02797 17.1902 6.93881 17.6007 6.8786 18.0542C6.81805 18.5089 7.24422 18.4946 7.46712 18.7571C7.68336 18.5775 8.07959 18.622 8.13847 18.2115C8.19869 17.8459 8.213 16.958 8.213 16.958C8.27354 17.0105 8.30382 17.0248 8.37069 17.0854C8.5184 16.9134 8.8258 16.9134 8.92927 16.7051C8.97518 16.7194 8.98948 16.7497 9.03406 16.78C9.36974 17.3382 9.39835 18.4201 8.92927 18.8017C9.06434 18.8017 9.236 18.7857 9.33947 18.7415C9.13121 19.166 8.66811 19.3157 8.13847 19.1217ZM2.76927 15.213C2.69142 15.2446 2.60093 15.2845 2.52907 15.3148C2.52907 15.3085 2.52907 15.3005 2.52907 15.2942C2.60226 15.2669 2.69309 15.24 2.76927 15.213ZM10.4214 6.03557C11.2581 5.85592 12.1074 5.3865 12.4893 4.99194C12.8057 5.01123 13.2146 5.01423 13.525 4.99693C13.9019 5.39449 14.7403 5.85592 15.577 6.03557C15.0916 6.03557 14.2422 5.99099 14.1374 5.87156C14.1677 6.17696 14.8165 6.52229 15.2413 6.61777C14.8897 6.66235 14.5636 6.61777 14.2852 6.49202C14.4365 6.70859 14.6065 6.87227 14.8897 6.96942C14.5922 7.33537 13.9814 7.57224 13.3753 7.51336C13.525 7.69301 13.8018 7.80446 14.042 7.77418C13.4977 8.64282 13.0938 9.53375 12.9983 10.5661L12.995 10.5647L12.9937 10.5677C12.9029 9.53375 12.502 8.64282 11.9594 7.77418C12.2046 7.80446 12.475 7.69301 12.6151 7.51336C12.0039 7.57224 11.4138 7.33537 11.1084 6.96942C11.3931 6.87227 11.5631 6.70859 11.7128 6.49202C11.444 6.61777 11.1084 6.66235 10.7584 6.61777C11.1832 6.52229 11.8403 6.17696 11.8685 5.87156C11.7574 5.99099 10.9081 6.03557 10.4214 6.03557ZM16.0018 25.7838C16.1895 26.1051 15.9286 26.3357 15.5627 26.3357C15.5627 26.2103 15.5627 26.1653 15.5324 26.0146C15.7027 25.9987 15.9017 25.9351 16.0018 25.7838ZM10.437 26.3357C10.0714 26.3357 9.81022 26.1051 9.99652 25.7838C10.0933 25.9288 10.286 25.997 10.4513 26.0146C10.437 26.1653 10.437 26.2103 10.437 26.3357ZM1.97582 15.4356C1.95652 15.4356 1.93722 15.4356 1.9166 15.4356C1.9136 15.4309 1.91028 15.4259 1.90562 15.4213C1.93257 15.415 1.96151 15.415 1.9868 15.407C1.98513 15.4166 1.98047 15.4259 1.97582 15.4356ZM1.53634 16.3678L1.38863 16.2806C1.44751 16.2117 1.5064 16.2117 1.56528 16.25C1.56528 16.2949 1.56528 16.3392 1.53634 16.3678ZM1.24524 15.7427C1.23093 15.7427 1.23093 15.757 1.21663 15.7713C1.12614 15.757 1.12614 15.6518 1.14211 15.5627C1.18502 15.5627 1.21663 15.5484 1.24524 15.5184L1.25955 15.5341L1.21663 15.5627C1.23093 15.6232 1.23093 15.6824 1.24524 15.7427ZM25.9395 11.8323C25.6197 11.64 25.0901 11.5714 24.5525 11.624C25.3955 11.3329 25.9697 10.7061 26 10.1462C25.5609 10.0205 25.1044 10.0873 24.7098 10.1765C25.1187 9.87076 25.7901 9.31119 25.7089 8.49012C25.3143 8.39298 24.5891 8.66977 24.2833 8.80517C25.2538 8.25957 25.6038 6.96942 25.0901 6.23784C24.7847 6.41716 23.3957 7.83307 23.1715 7.99875C23.8891 7.17768 24.2248 6.5875 24.4187 6.03557C24.6493 5.43275 24.6636 4.38113 23.9191 4.02948C23.5677 4.83591 22.3365 6.90089 21.6508 7.75988C21.576 7.69301 21.5157 7.60252 21.4186 7.58821C21.2546 8.11153 20.7692 8.80517 20.3287 9.13919C20.3064 9.09461 20.2622 8.97518 20.187 8.84809C19.7179 9.54972 18.5009 10.5122 18.1064 11.1024C17.7993 11.5412 17.7993 11.9374 18.2255 12.3479C18.3975 12.5196 18.7252 12.825 18.4421 13.2498C18.0568 13.8131 17.2823 13.8783 16.8608 13.5473C16.8608 13.4471 16.8575 13.3516 16.8528 13.2625C17.3492 13.0702 17.4653 12.3938 17.0993 11.974C17.0185 12.1284 16.8861 12.2411 16.7274 12.2967C16.6845 12.1217 16.6459 12.0362 16.6429 12.0279L16.6236 11.9866L16.5807 11.985C16.576 11.9836 16.414 11.9757 16.1705 11.9471C16.4456 11.8562 16.6219 11.6017 16.584 11.2581C16.1592 11.624 15.733 11.274 15.6359 11.1772C15.3687 10.8638 15.2939 10.5122 15.3987 9.97423C15.4878 9.50514 15.9729 8.75893 16.2929 8.5204C16.3392 8.56497 16.4123 8.65413 16.568 8.63983C16.6585 8.61122 16.8082 8.5347 16.9197 8.49012C17.2411 8.39298 17.5545 8.46783 17.7564 8.59525C18.1207 8.81782 18.0904 9.06434 18.0778 9.24432C18.6344 8.93093 18.4421 8.40895 17.7118 8.21499C18.2112 8.21499 18.6217 8.66977 18.7252 8.72866C19.002 8.93093 19.3965 8.88602 19.6271 8.7749C20.0696 8.56498 20.1584 8.04299 20.0393 7.9382C19.9947 8.12583 19.853 8.28985 19.5968 8.32012C19.2182 8.36437 18.8509 8.19869 18.5615 8.0716C18.3163 7.96847 17.9187 7.89362 17.6513 7.90925C18.151 7.63279 18.9271 7.66307 19.2022 8.08757C19.3679 7.95417 19.4714 7.83307 19.5173 7.55794C19.659 6.81339 19.0768 6.43147 18.4564 6.43147C18.4723 6.25215 18.3449 6.16266 18.1812 6.22321C18.1812 6.14702 18.1606 6.08814 18.119 6.05786C18.1333 6.0562 18.1526 6.04988 18.1653 6.04988C18.792 6.00696 19.3822 5.81267 19.7019 5.47699C20.2622 4.87883 19.3679 4.11864 19.6876 3.53012C19.9947 3.66353 20.2189 3.83553 20.6421 3.89441C20.6867 3.98523 20.7249 4.16322 20.7393 4.26003C20.8743 4.92507 20.2189 5.03652 20.3893 5.74447C20.4638 6.06585 20.7043 6.17696 20.7852 6.55889C20.7852 6.55889 20.8158 6.82603 20.5832 7.05858C21.1212 7.07288 21.4043 6.61777 21.2389 6.19293C21.1654 6.02127 20.9778 5.85592 20.9778 5.65565C21.2546 6.02127 21.5014 6.00696 21.9259 5.87156C22.1199 5.81267 22.1359 6.08182 22.0151 6.29806C22.3062 6.1244 22.3827 5.84128 22.3827 5.71586C22.3827 5.41678 22.1502 5.27505 21.9259 5.3356C21.8005 5.34991 21.5457 5.52157 21.5314 5.27505C21.4788 4.85022 22.1502 4.86485 22.0151 4.17919C21.9419 3.83553 21.56 3.64756 20.9635 3.57437C20.9046 3.51415 20.7549 3.37243 20.674 3.25299C20.3464 2.70939 20.009 2.56766 19.8067 2.67878C19.5682 2.79821 19.4428 2.90334 19.2488 3.00681C19.0911 3.08931 18.9271 3.13389 18.8223 3.25299C18.5615 3.57437 18.808 4.07406 18.9414 4.38113C19.0322 4.55912 19.2488 4.96998 19.1517 5.27505C19.0465 5.64101 18.4421 5.87156 18.0778 5.94674C18.0538 5.94674 18.0395 5.9544 18.0159 5.9544V5.81267C18.1207 5.62504 18.2112 5.40247 18.286 5.2002C18.5326 4.54315 18.1653 4.27633 17.6227 4.14892C17.5545 4.10434 17.4796 4.08837 17.3908 4.11864H17.3748L17.3602 4.22976L17.2856 4.2078L17.3016 4.07406H17.2693C17.3316 4.02948 17.3602 3.95463 17.3602 3.88011C17.3602 3.79893 17.3316 3.73838 17.3016 3.6938H17.3748L17.3442 3.66353C17.3316 3.63325 17.3016 3.60464 17.2554 3.55873C17.2411 3.54443 17.2268 3.51415 17.2268 3.49985C17.2411 3.51415 17.2554 3.53012 17.2856 3.54443C17.3156 3.57437 17.3602 3.60464 17.3748 3.63325L17.4191 3.66353V3.05272L17.3748 3.08931C17.3602 3.10395 17.3156 3.13389 17.2856 3.16417C17.2554 3.19444 17.2411 3.19444 17.2268 3.20875C17.2268 3.19444 17.2411 3.17847 17.2554 3.1482C17.3016 3.11959 17.3316 3.07334 17.3442 3.05272L17.3748 3.00681H16.7637L16.7939 3.05272C16.8225 3.07334 16.8608 3.11959 16.8911 3.1482C16.9054 3.17847 16.9197 3.19444 16.9353 3.20875C16.9197 3.19444 16.8911 3.19444 16.8751 3.16417C16.8225 3.13389 16.7939 3.10395 16.7637 3.08931L16.7337 3.05272V3.66353L16.7637 3.63325C16.7939 3.60464 16.8225 3.57437 16.8751 3.54443C16.8911 3.53012 16.9197 3.51415 16.9353 3.49985C16.9197 3.51415 16.9054 3.54443 16.8911 3.55873C16.8608 3.60464 16.8225 3.63325 16.7939 3.66353L16.7637 3.6938H16.8608C16.8082 3.73838 16.7939 3.79893 16.7939 3.88011C16.7939 3.95463 16.8225 4.02948 16.8751 4.07406H16.8608L16.8751 4.2078L16.7939 4.22976L16.778 4.11864H16.7637C16.6745 4.08837 16.6 4.10434 16.5394 4.14892C15.9872 4.27633 15.6216 4.54315 15.8681 5.2002C15.9429 5.40247 16.0338 5.62504 16.1449 5.81267V5.90982C15.5913 5.73017 14.5986 5.12568 14.3314 4.75972C14.3011 4.72313 14.2788 4.69285 14.2645 4.6709L14.2615 4.67223L14.2725 4.27633C14.4651 3.95463 14.6368 3.55873 14.7722 3.19444C15.1222 2.24629 14.6065 1.85172 13.7871 1.68605C13.7046 1.62749 13.5998 1.59722 13.4661 1.6418L13.4371 1.79118L13.2658 1.77687L13.2798 1.58292C13.2498 1.59722 13.2209 1.59722 13.191 1.59722C13.3084 1.53834 13.3912 1.39495 13.3912 1.24724C13.3912 1.14244 13.3387 1.01502 13.2498 0.956137H13.3912C13.3084 0.881283 13.175 0.72359 13.146 0.620458C13.2498 0.649069 13.4072 0.790459 13.4804 0.866977V0.0904903C13.4072 0.149708 13.2498 0.299083 13.146 0.313389C13.175 0.225893 13.3084 0.0748541 13.3912 0H12.6151C12.6753 0.0748541 12.8247 0.225893 12.839 0.313389C12.7485 0.299083 12.6008 0.149708 12.5179 0.0904903V0.866977C12.6008 0.790459 12.7485 0.649069 12.839 0.620458C12.8247 0.72359 12.6753 0.881283 12.6151 0.956137H12.7485C12.6597 1.01502 12.6151 1.14244 12.6151 1.24724C12.6151 1.39495 12.6896 1.53834 12.809 1.59722C12.7788 1.59722 12.7485 1.59722 12.7039 1.58292L12.7199 1.77687L12.5479 1.79118L12.5322 1.6418C12.3985 1.59722 12.2954 1.62749 12.2045 1.68605C11.3931 1.85172 10.8761 2.24629 11.2278 3.19444C11.3472 3.55873 11.5189 3.95463 11.7271 4.27633V4.68653C11.7128 4.70084 11.6972 4.73111 11.6683 4.75972C11.4074 5.12568 10.4071 5.73017 9.8548 5.90982V5.81267C9.96624 5.62504 10.0571 5.40247 10.1316 5.2002C10.3784 4.54315 10.0125 4.27633 9.46023 4.14892C9.39835 4.10434 9.32683 4.08837 9.236 4.11864H9.2217L9.20573 4.22976L9.13121 4.2078L9.14551 4.07406H9.13121C9.17545 4.02948 9.20573 3.95463 9.20573 3.88011C9.20573 3.79893 9.19142 3.73838 9.14551 3.6938H9.236L9.20573 3.66353C9.17545 3.63325 9.14551 3.60464 9.11657 3.55873C9.10226 3.54443 9.08031 3.51415 9.06434 3.49985C9.08031 3.51415 9.11657 3.53012 9.13121 3.54443C9.17545 3.57437 9.20573 3.60464 9.236 3.63325L9.26628 3.66353V3.05272L9.236 3.08931C9.20573 3.10395 9.17545 3.13389 9.13121 3.16417C9.11657 3.19444 9.08031 3.19444 9.06434 3.20875C9.08031 3.19444 9.10226 3.17847 9.11657 3.1482C9.14551 3.11959 9.17545 3.07334 9.20573 3.05272L9.236 3.00681H8.62486L8.6538 3.05272C8.66811 3.07334 8.70637 3.11959 8.73664 3.1482C8.76525 3.17847 8.77956 3.19444 8.77956 3.20875C8.76525 3.19444 8.75095 3.19444 8.722 3.16417C8.68408 3.13389 8.63817 3.10395 8.62486 3.08931L8.57895 3.05272V3.66353L8.62486 3.63325C8.63817 3.60464 8.68408 3.57437 8.722 3.54443C8.75095 3.53012 8.76525 3.51415 8.77956 3.49985C8.77956 3.51415 8.76525 3.54443 8.73664 3.55873C8.70637 3.60464 8.66811 3.63325 8.6538 3.66353L8.62486 3.6938H8.70637C8.66811 3.73838 8.63817 3.79893 8.63817 3.88011C8.63817 3.95463 8.66811 4.02948 8.73664 4.07406H8.70637L8.722 4.2078L8.63817 4.22976L8.62486 4.11864H8.60922C8.5184 4.08837 8.44554 4.10434 8.38499 4.14892C7.83307 4.27633 7.46711 4.54315 7.71363 5.2002C7.78849 5.40247 7.87898 5.62504 7.99043 5.81267V5.9544C7.96648 5.9544 7.94585 5.94674 7.92988 5.94674C7.56426 5.87156 6.95312 5.64101 6.84832 5.27505C6.75118 4.96998 6.96909 4.55912 7.05692 4.38113C7.19831 4.07406 7.4385 3.57437 7.18566 3.25299C7.07255 3.13389 6.90854 3.08931 6.75118 3.00681C6.55855 2.90334 6.43779 2.79821 6.19293 2.67878C5.99698 2.56766 5.66296 2.70939 5.32595 3.25299C5.25276 3.37243 5.0954 3.51415 5.03452 3.57437C4.446 3.64756 4.06574 3.83553 3.9849 4.17919C3.84817 4.86485 4.52119 4.85022 4.47628 5.27505C4.46031 5.52157 4.20115 5.34991 4.08005 5.3356C3.84817 5.27505 3.61728 5.41678 3.61728 5.71586C3.61728 5.84128 3.70012 6.1244 3.9849 6.29806C3.86547 6.08182 3.87977 5.81267 4.08005 5.87156C4.50522 6.00696 4.74342 6.02127 5.02022 5.65565C5.02022 5.85592 4.84223 6.02127 4.76105 6.19293C4.59571 6.61777 4.87084 7.07288 5.41644 7.05858C5.16993 6.82603 5.22083 6.55889 5.22083 6.55889C5.29734 6.17696 5.53588 6.06585 5.61705 5.74447C5.78273 5.03652 5.12535 4.92507 5.26707 4.26003C5.28137 4.16322 5.31165 3.98523 5.3559 3.89441C5.78273 3.83553 6.01295 3.66353 6.31037 3.53012C6.61744 4.11864 5.73616 4.87883 6.29606 5.47699C6.61744 5.81267 7.21427 6.00696 7.83307 6.04988C7.84571 6.04988 7.86634 6.05786 7.88231 6.05952C7.83939 6.08814 7.8171 6.14702 7.8171 6.22321C7.65475 6.16266 7.52766 6.25215 7.54995 6.43147C6.90854 6.43147 6.34231 6.81339 6.48237 7.55794C6.52695 7.83307 6.63174 7.95417 6.80374 8.08757C7.07255 7.66307 7.84904 7.63279 8.35472 7.90925C8.07959 7.89362 7.68336 7.96847 7.43851 8.0716C7.15373 8.19869 6.78944 8.36437 6.40918 8.32012C6.14669 8.28985 6.01295 8.12583 5.96039 7.9382C5.84128 8.04299 5.93044 8.56498 6.37757 8.7749C6.6018 8.88602 6.9977 8.93093 7.27316 8.72866C7.37796 8.66977 7.78849 8.21499 8.28951 8.21499C7.56426 8.40895 7.36232 8.93093 7.92988 9.24432C7.90759 9.06434 7.87898 8.81782 8.24327 8.59525C8.44554 8.46783 8.76525 8.39298 9.08031 8.49012C9.19142 8.5347 9.33947 8.61122 9.43029 8.63983C9.58599 8.65413 9.66084 8.56497 9.70509 8.5204C10.0268 8.75893 10.4959 9.50514 10.601 9.97423C10.7125 10.5122 10.6313 10.8638 10.3625 11.1772C10.2733 11.274 9.84049 11.624 9.41599 11.2581C9.37606 11.6001 9.55272 11.8549 9.82785 11.9471C9.58133 11.974 9.41598 11.9836 9.41099 11.985L9.36808 11.9866L9.35078 12.0279C9.34579 12.0362 9.30919 12.1217 9.26461 12.2954C9.11025 12.2365 8.97983 12.1267 8.90032 11.974C8.53437 12.3925 8.64748 13.0639 9.13919 13.2592C9.1342 13.3516 9.13121 13.4505 9.13121 13.5519C8.70936 13.8766 7.94285 13.8098 7.56426 13.2498C7.27316 12.825 7.60851 12.5196 7.77418 12.3479C8.19869 11.9374 8.19869 11.5412 7.89162 11.1024C7.49739 10.5122 6.28043 9.54972 5.81267 8.84809C5.73616 8.97518 5.69191 9.09461 5.67561 9.13919C5.2368 8.80517 4.74342 8.11153 4.58141 7.58821C4.49058 7.60252 4.42405 7.69301 4.34919 7.75988C3.66985 6.90089 2.43226 4.83591 2.08228 4.02948C1.34238 4.38113 1.35669 5.43275 1.58258 6.03557C1.78153 6.5875 2.11887 7.17768 2.82649 7.99875C2.60393 7.83307 1.21663 6.41716 0.909893 6.23784C0.395895 6.96942 0.74588 8.25957 1.71466 8.80517C1.41724 8.66977 0.685664 8.39298 0.2911 8.49012C0.216245 9.31119 0.879619 9.87076 1.29015 10.1765C0.895588 10.0873 0.440475 10.0205 0 10.1462C0.0299417 10.7061 0.610809 11.3329 1.43154 11.624C0.909893 11.5714 0.380259 11.64 0.0585527 11.8323C0.119101 12.4145 0.776154 12.9158 1.56528 13.0353C1.03532 13.0938 0.565897 13.3264 0.321041 13.6461C0.61081 14.0263 1.03532 14.3174 1.68605 14.3031C1.53634 14.3554 1.36467 14.4588 1.21663 14.6005C1.20099 14.5859 1.17072 14.5716 1.14211 14.5716C1.11017 14.5859 1.09753 14.6308 1.11017 14.6608C1.11017 14.6608 1.11017 14.6608 1.11017 14.6831C1.04829 14.7276 1.01336 14.7785 1.00671 14.8328C0.946157 14.9186 0.884277 15.0204 0.850676 15.1079C0.866645 15.1159 0.879619 15.1302 0.895588 15.1382C0.889267 15.1891 0.900245 15.2463 0.938504 15.3022C0.909893 15.3321 0.895589 15.3767 0.87962 15.4213L0.49936 15.2716C0.478734 15.6169 0.554919 15.9017 0.729911 16.0783C0.866644 16.234 1.02134 16.2117 0.976763 16.2646L1.38863 16.5171C1.46182 16.6748 1.61119 16.6748 1.71466 16.6303C1.71466 16.6303 1.71466 16.6446 1.71466 16.6605C1.71466 16.8242 1.82744 16.958 1.97582 17.0105C1.94721 17.1459 2.00576 17.2347 2.19339 17.2953L3.7447 21.0543C3.68415 21.2326 3.7447 21.39 3.87977 21.4489C3.84817 21.4935 3.81956 21.5394 3.81956 21.6285C3.87977 21.5839 3.96893 21.5683 4.01351 21.6954C4.04212 21.7845 3.87977 22.0756 4.12629 22.2699C4.09435 22.4416 4.18518 22.6196 4.3635 22.6961C4.3635 22.7853 4.446 23.0764 4.46031 23.1795C4.34919 23.3372 4.09435 23.5757 4.12629 23.8365C4.15657 24.0245 4.22976 24.0834 4.37913 24.1276C4.31892 24.4633 4.50522 24.613 4.78967 24.629C4.78967 24.8739 5.02022 24.963 5.16993 24.9773C5.31165 25.0821 5.37187 25.1267 5.53588 25.2095C5.38617 25.3875 5.4913 25.6201 5.76643 25.6949C5.79704 25.7981 5.87156 25.8889 6.02725 25.9255C6.11808 26.0749 6.28043 26.0749 6.37757 26.0303C6.43779 26.0003 6.54292 25.8283 6.45209 25.679C6.51264 25.6041 6.48237 25.4624 6.43779 25.3732C6.52695 25.2095 6.45209 25.0076 6.32634 24.9487C6.34231 24.8579 6.29606 24.7165 6.26612 24.629C6.48237 24.4936 6.75118 24.3219 6.84832 24.2631C7.37796 23.8828 7.97446 23.5455 8.6538 23.5009C8.8258 23.4852 9.14551 23.4709 9.32682 23.4852C9.60195 23.5152 9.98221 23.598 10.2051 23.426C10.2733 23.3818 10.3179 23.3069 10.3036 23.2321C10.2733 23.0604 10.087 22.9107 10.0268 22.755C10.0108 22.7071 9.98221 22.6386 9.9536 22.5767C10.1476 22.6116 10.3259 22.583 10.437 22.5304C10.5564 22.4862 10.8475 22.2699 10.8332 21.9499C10.601 22.0613 10.0411 22.2107 9.98221 21.6428C9.92167 21.1435 10.3625 20.7186 11.0495 20.9049C11.5189 21.024 12.2046 22.0231 11.5778 22.4576C11.272 22.6658 10.8029 22.8661 10.8632 23.412C11.0638 23.1652 11.3313 23.0461 11.6812 23.0764C11.1672 23.4566 10.7727 23.5009 10.2351 23.792C9.76597 24.0674 9.41598 24.5239 9.04837 24.5382C8.76525 24.5525 8.60922 24.2168 8.88435 23.956C8.60922 23.8971 8.24327 24.1133 8.13847 24.4031C8.00473 24.799 8.1082 25.0821 8.35472 25.2398C8.0207 25.4178 7.77418 25.7694 7.89162 26.2688C8.00473 26.6793 8.41527 26.6793 8.25924 27.2013C8.49012 27.1408 8.63817 26.9847 8.70637 26.7605C8.73664 26.6048 8.76525 26.4408 8.84144 26.366C8.80983 26.6793 8.98948 27.1408 9.41599 27.3507C9.70509 27.4924 10.1619 27.5513 10.5118 27.187C10.6536 27.5972 11.137 27.9472 11.6383 27.9329C11.8685 27.9329 12.0931 27.8341 12.2648 27.7323C12.3842 28.0364 12.6896 28.3434 12.995 28.4915C13.3084 28.3434 13.6155 28.0364 13.7412 27.7323C13.9066 27.8341 14.1374 27.9329 14.3617 27.9329C14.8454 27.9472 15.3527 27.5972 15.4878 27.187C15.8378 27.5513 16.2929 27.4924 16.584 27.3507C17.0105 27.1408 17.1885 26.6793 17.1599 26.366C17.2411 26.4408 17.2693 26.6048 17.3016 26.7605C17.3602 26.9847 17.5082 27.1408 17.7404 27.2013C17.5847 26.6793 18.0029 26.6793 18.1064 26.2688C18.2255 25.7694 17.9793 25.4178 17.6513 25.2398C17.8901 25.0821 18.0029 24.799 17.8599 24.4031C17.7564 24.1133 17.3908 23.8971 17.1136 23.956C17.3908 24.2168 17.2411 24.5525 16.9496 24.5382C16.584 24.5239 16.234 24.0674 15.7633 23.792C15.227 23.5009 14.8311 23.4566 14.3171 23.0764C14.6671 23.0461 14.9439 23.1652 15.1365 23.412C15.1967 22.8661 14.7276 22.6658 14.4202 22.4576C13.8018 22.0231 14.4811 21.024 14.9582 20.9049C15.6359 20.7186 16.0843 21.1435 16.0178 21.6428C15.9429 22.2107 15.3987 22.0613 15.1525 21.9499C15.1525 22.2699 15.4419 22.4862 15.5627 22.5304C15.7027 22.5973 15.9602 22.6322 16.1924 22.5338C16.1848 22.5893 16.1751 22.6502 16.1751 22.6658C16.1292 23.1509 15.8681 23.1955 15.9572 23.3961C16.0843 23.5455 16.9197 23.5152 17.1439 23.5614C17.5402 23.614 17.8758 23.762 18.2561 23.8365C18.6806 23.926 19.1357 23.926 19.5173 24.0834C19.7625 24.1882 20.0393 24.3888 20.2778 24.5079C20.6421 24.5685 20.5832 24.7165 20.8158 24.7165C21.024 24.7165 21.1049 24.5382 21.374 24.4633C21.56 24.4191 21.7682 24.4936 21.9545 24.4334C22.09 24.4031 22.1502 24.2631 22.2776 24.1882C22.427 24.0977 22.6356 24.0977 22.7773 23.9703C22.8518 23.9051 22.8661 23.7777 22.8548 23.6888L22.8581 23.7095C23.1429 23.5089 23.3591 23.2178 23.4786 22.8804C23.5531 22.8661 23.6123 22.7996 23.6123 22.7247C23.6123 22.7104 23.6123 22.6961 23.6123 22.6961C23.6868 22.6356 23.7314 22.5447 23.7314 22.4576C23.7314 22.3445 23.6868 22.2556 23.6123 22.1808C23.6123 22.1808 23.6123 22.1648 23.6123 22.1505C23.6123 22.0916 23.582 22.047 23.5531 22.0088C23.434 21.3597 22.941 20.8381 22.3062 20.674C22.3062 20.6581 22.3062 20.6581 22.3062 20.6438H22.2919C22.2919 20.6135 22.2776 20.5979 22.2553 20.5979C22.1645 20.5087 22.0593 20.3686 22.0467 20.2778C22.1502 20.3084 22.3222 20.4721 22.411 20.539V19.6813C22.3222 19.7482 22.1502 19.9122 22.0467 19.9425C22.0593 19.8373 22.2234 19.651 22.3062 19.5765H21.4342C21.5157 19.651 21.6794 19.8373 21.6937 19.9425C21.5903 19.9122 21.4186 19.7482 21.3294 19.6813V20.539C21.4186 20.4721 21.5903 20.3084 21.6937 20.2778C21.6794 20.3829 21.5157 20.5692 21.4342 20.6438L21.4645 20.6581C20.8158 20.8078 20.2921 21.3454 20.1727 22.0088C20.1284 22.047 20.0982 22.0916 20.0982 22.1505C20.0982 22.1648 20.0982 22.1808 20.0982 22.1808C20.0233 22.2556 19.9787 22.3445 19.9787 22.4576C19.9787 22.5447 20.0233 22.6356 20.0982 22.6961C20.0982 22.6961 20.0982 22.7104 20.0982 22.7247C20.0982 22.8219 20.1584 22.8661 20.2319 22.8804C20.2622 22.9633 20.2984 23.0461 20.3367 23.1209C20.3367 23.113 20.3367 23.113 20.3464 23.105C20.2921 23.3515 19.9947 23.5009 19.9278 23.5009C19.3965 23.5757 18.808 23.3515 18.2704 23.1509C18.0332 23.0604 17.7118 22.9569 17.5545 22.7247C17.4573 22.556 17.4161 22.4496 17.4653 22.2999C17.5242 22.3747 17.6227 22.4576 17.7564 22.5304C17.7707 22.4576 17.7707 22.3747 17.7993 22.3142C17.936 22.5161 18.151 22.6196 18.4118 22.6053C18.2561 22.4719 18.1812 22.1202 18.2561 21.8148C18.4723 22.1808 19.2931 22.2556 19.4428 21.5982C19.1357 21.7416 18.9414 21.5839 18.8825 21.4203C18.792 21.1578 19.0911 20.523 18.8223 20.0313C18.6057 19.667 18.3612 19.4428 17.7867 19.3536C17.8313 19.2854 17.8456 19.2249 17.8599 19.1217C17.3316 19.3157 16.8751 19.166 16.6585 18.7415C16.7637 18.7857 16.9197 18.8017 17.0691 18.8017C16.6 18.4201 16.6286 17.3382 16.9656 16.78C17.0105 16.7497 17.0248 16.7194 17.0691 16.7051C17.1725 16.9134 17.4796 16.9134 17.6353 17.0854C17.6962 17.0248 17.7261 17.0105 17.7867 16.958C17.7867 16.958 17.7993 17.8459 17.8599 18.2115C17.9187 18.622 18.3163 18.5775 18.5169 18.7571C18.7555 18.4946 19.1879 18.5089 19.1214 18.0542C19.0609 17.6007 18.9717 17.1902 18.9577 16.8834C19.0911 17.1602 19.352 18.1972 19.4571 18.4946C19.6271 18.9354 20.0536 18.8017 20.2921 18.9737C20.4495 18.6666 20.8444 18.5775 20.6867 18.1144C20.6421 17.9953 19.9947 16.6303 19.8976 16.3678C20.1284 16.7051 20.7549 17.9061 20.9492 18.2418C21.1654 18.5918 21.56 18.4201 21.8431 18.5089C21.8973 18.2561 22.2776 17.965 22.0008 17.5258C21.6508 16.9436 20.8301 15.9286 20.7852 15.7872C20.9492 15.9429 22.2234 17.5258 22.3222 17.615C22.6196 17.8758 23.0521 17.6739 23.3066 17.6739C23.3066 17.3845 23.5375 17.0551 23.2034 16.7194C22.8964 16.4283 22.1951 15.9286 22.0467 15.757C22.5145 16.0783 23.068 16.5923 23.3957 16.6748C23.9779 16.8242 24.1865 16.5923 24.4044 16.5028C24.2248 15.9735 24.4633 15.7283 23.2321 15.213C24.2976 15.5933 24.7687 15.4053 25.149 15.1079C24.9993 14.7276 24.619 14.4079 24.312 14.3031C24.9627 14.3174 25.3955 14.0263 25.6786 13.6461C25.4401 13.3264 24.9627 13.0938 24.4187 13.0353C25.2235 12.9158 25.8649 12.4145 25.9395 11.8323Z" fill="white"/>
</svg>
