<svg width="9" height="11" viewBox="0 0 9 11" fill="none" xmlns="http://www.w3.org/2000/svg">
<path fill-rule="evenodd" clip-rule="evenodd" d="M7.69617 0H7.67127C7.25472 0 6.86336 0.19727 6.61791 0.531301L2.34067 6.34781V1.15367C2.34067 0.516481 1.82021 0 1.17811 0H1.16256C0.520463 0 0 0.516481 0 1.15367V9.09106C0 9.80543 0.583613 10.3849 1.3038 10.3849C1.72688 10.3849 2.12353 10.1811 2.36805 9.83846L6.67453 3.80029V9.23122C6.67453 9.86841 7.1953 10.3849 7.8374 10.3849C8.4795 10.3849 8.99996 9.86841 8.99996 9.23122V1.29383C8.99996 0.57915 8.41635 0 7.69617 0Z" fill="#9FA7BC"/>
</svg>
