<svg width="8" height="11" viewBox="0 0 8 11" fill="none" xmlns="http://www.w3.org/2000/svg">
<path fill-rule="evenodd" clip-rule="evenodd" d="M7.48608 6.13157C7.32719 5.91842 7.14335 5.73097 6.93424 5.5686C6.7245 5.40654 6.50181 5.26454 6.26712 5.14261C6.69639 4.87899 7.01606 4.55707 7.22548 4.17653C7.43459 3.7963 7.53977 3.41325 7.53977 3.0277C7.53977 2.52052 7.43996 2.07667 7.24064 1.69644C7.04164 1.3159 6.76304 1.00182 6.40484 0.753243C6.04695 0.504356 5.62337 0.316907 5.13282 0.189956C4.64195 0.0633187 4.11001 0 3.53796 0C2.80229 0 2.14496 0.0783651 1.56755 0.235721C1.37297 0.288696 1.18819 0.347313 1.01288 0.410945C0.487577 0.602468 0.22382 1.18362 0.434508 1.69801L0.467355 1.77825C0.670462 2.27383 1.23336 2.50078 1.74002 2.31709C1.84204 2.27979 1.94565 2.24562 2.05052 2.21365C2.47 2.08701 2.96055 2.02338 3.52249 2.02338C4.02315 2.02338 4.41199 2.10958 4.68775 2.2823C4.96382 2.45501 5.10186 2.7133 5.10186 3.05811C5.10186 3.30135 5.05037 3.50479 4.94866 3.66684C4.846 3.82922 4.70575 3.96118 4.52697 4.06211C4.34787 4.16399 4.13813 4.23483 3.89807 4.27527C3.658 4.31602 3.39993 4.33608 3.12386 4.33608H2.71923C2.1775 4.33608 1.73812 4.7721 1.73812 5.30999C1.73812 5.84758 2.1775 6.2836 2.71923 6.2836H2.95518C3.32318 6.2836 3.66305 6.30178 3.97514 6.3372C4.28659 6.37262 4.55761 6.43876 4.78757 6.53499C5.01784 6.63154 5.19883 6.77071 5.33182 6.95315C5.46449 7.13589 5.53113 7.37444 5.53113 7.66846C5.53113 8.14554 5.32423 8.48032 4.91012 8.67278C4.49601 8.86525 3.95177 8.96179 3.27706 8.96179C3.0013 8.96179 2.72523 8.93671 2.44947 8.88562C2.17308 8.83484 1.90743 8.77403 1.6522 8.70319C1.5786 8.68281 1.45762 8.64394 1.31927 8.59755C0.817662 8.42891 0.270569 8.68438 0.0835716 9.1762L0.0633515 9.2298C-0.131543 9.74293 0.13885 10.3131 0.660358 10.4949C0.952541 10.5965 1.23145 10.6868 1.36823 10.719C1.68347 10.7936 2.01356 10.8557 2.35818 10.9062C2.68068 10.9535 3.00604 10.9817 3.33202 10.9849C4.81789 10.9986 5.97241 10.7429 6.79621 10.2172C7.59821 9.705 7.99968 8.88562 7.99968 7.75968C7.99968 7.4249 7.95389 7.12335 7.86165 6.85441C7.77005 6.58577 7.64433 6.34472 7.48608 6.13157Z" fill="#9FA7BC"/>
</svg>
