<svg width="11" height="17" viewBox="0 0 11 17" fill="none" xmlns="http://www.w3.org/2000/svg">
<path fill-rule="evenodd" clip-rule="evenodd" d="M1.59807 12.506C2.55753 13.3858 4.10883 14.2437 5.61599 14.2437C7.07813 14.2437 7.99037 13.4789 7.99037 12.3672C7.99081 9.24072 0.433831 9.88904 0.433831 4.77147C0.434272 1.87599 2.80821 0 5.95846 0C7.64789 0 9.42824 0.579364 10.7077 1.76003L9.40573 4.19211C8.51467 3.38127 7.1227 2.75578 5.8446 2.75578C4.36083 2.75578 3.3793 3.49723 3.3793 4.63178C3.3793 7.68933 10.9354 6.90222 10.9354 12.1362C10.9354 14.7998 9.01824 16.9999 5.54802 16.9999C3.53818 16.9999 1.46126 16.2352 0 14.7532L1.59807 12.506Z" fill="#9FA7BC"/>
</svg>
