<svg width="18" height="12" viewBox="0 0 18 12" fill="none" xmlns="http://www.w3.org/2000/svg">
<path fill-rule="evenodd" clip-rule="evenodd" d="M0 0.275099H2.76601V1.65415C2.76601 2.11457 2.71957 2.48211 2.71957 2.48211H2.76601C3.30878 1.33238 4.73691 1.78916e-07 6.55011 1.78916e-07C8.29321 -0.000444245 9.42738 0.827074 9.9027 2.41278H9.94913C10.5817 1.19461 12.0799 1.78916e-07 13.8901 1.78916e-07C16.3157 -0.000444245 17.6768 1.37816 17.6768 4.45891V11.9999H14.8201V5.01044C14.8201 3.67717 14.5489 2.66566 13.2343 2.66566C11.2612 2.66566 10.2873 4.68868 10.2873 6.73481V11.9999H7.41005V5.01044C7.41005 3.7465 7.2059 2.66566 5.84743 2.66566C3.8301 2.66566 2.87728 4.78023 2.87728 6.73481V11.9999H0V0.275099Z" fill="#9FA7BC"/>
</svg>
