<svg width="12" height="11" viewBox="0 0 12 11" fill="none" xmlns="http://www.w3.org/2000/svg">
<path fill-rule="evenodd" clip-rule="evenodd" d="M11.4113 1.39665C11.3537 0.609389 10.6937 0 9.89842 0C9.30446 0 8.76514 0.34401 8.51849 0.880157L5.99985 6.35641L3.48153 0.880157C3.23487 0.34401 2.69555 0 2.1016 0C1.30636 0 0.645946 0.609389 0.588755 1.39665L0.0031104 9.42776C-0.0457738 10.0964 0.487796 10.6656 1.16354 10.6656C1.78338 10.6656 2.29458 10.183 2.32557 9.56885L2.62686 3.58594L4.74644 8.49117C4.96115 8.98863 5.45446 9.31109 5.99985 9.31109C6.54556 9.31109 7.03855 8.98863 7.25357 8.49117L9.37283 3.58594L9.67444 9.56885C9.70544 10.183 10.2166 10.6656 10.8365 10.6656C11.5119 10.6656 12.0455 10.0964 11.9969 9.42776L11.4113 1.39665Z" fill="#9FA7BC"/>
</svg>
