<svg width="28" height="28" viewBox="0 0 28 28" fill="none" xmlns="http://www.w3.org/2000/svg">
<path fill-rule="evenodd" clip-rule="evenodd" d="M15.9757 9.71489C17.5763 7.98222 20.05 7.47543 22.1178 8.40861L20.8376 10.8146L20.7085 10.7787C19.6638 10.4864 18.5443 10.8204 17.7817 11.6479L11.6334 18.3129C10.0328 20.0452 7.56001 20.5528 5.49134 19.6197L6.77194 17.2132L6.9011 17.2487C7.94572 17.541 9.06566 17.207 9.82789 16.38L15.9757 9.71489ZM11.6342 9.71489L12.8443 11.0269L11.0493 12.9728L9.82824 11.6479C9.06513 10.8204 7.94564 10.4864 6.90101 10.7787L6.77186 10.8146L5.49125 8.40861C7.55948 7.47543 10.0327 7.98222 11.6342 9.71489ZM20.7084 17.2485L20.8367 17.213L22.1177 19.6195C20.0499 20.5527 17.5767 20.045 15.9756 18.3128L14.7555 16.99L16.5496 15.0442L17.7816 16.3798C18.5443 17.2068 19.6638 17.5413 20.7084 17.2485ZM13.8004 27.9998C6.19114 27.9998 0 21.7199 0 13.9999C0 6.27998 6.19026 0 13.8004 0C21.4096 0 27.6003 6.27998 27.6003 13.9999C27.6003 21.7199 21.4096 27.9998 13.8004 27.9998Z" fill="#9FA7BC"/>
</svg>
