<svg width="11" height="11" viewBox="0 0 11 11" fill="none" xmlns="http://www.w3.org/2000/svg">
<path fill-rule="evenodd" clip-rule="evenodd" d="M7.91855 6.90707C7.79064 7.3233 7.60682 7.68061 7.36677 7.97994C7.1261 8.27926 6.82984 8.50995 6.47704 8.67199C6.12455 8.83435 5.72849 8.91521 5.28914 8.91521C4.83906 8.91521 4.44079 8.83435 4.09304 8.67199C3.74561 8.50995 3.45187 8.27926 3.21183 7.97994C2.97116 7.68061 2.78734 7.3233 2.65973 6.90707C2.53182 6.49146 2.46833 6.02476 2.46833 5.50729C2.46833 5.00047 2.53182 4.53659 2.65973 4.11534C2.78734 3.69472 2.97116 3.33459 3.21183 3.03526C3.45187 2.73593 3.74561 2.50274 4.09304 2.33537C4.44079 2.168 4.83906 2.08431 5.28914 2.08431C5.72849 2.08431 6.12455 2.1658 6.47704 2.32785C6.82984 2.49021 7.1261 2.72089 7.36677 3.0199C7.60682 3.31923 7.79064 3.67936 7.91855 4.09998C8.04584 4.52123 8.11027 4.99013 8.11027 5.50729C8.11027 6.02476 8.04584 6.49146 7.91855 6.90707ZM9.03002 1.39947C8.5493 0.933396 7.98741 0.583294 7.3434 0.349789C6.69971 0.116597 6.01464 0 5.28914 0C4.58355 0 3.91143 0.116597 3.2731 0.349789C2.63415 0.583294 2.07163 0.933396 1.58649 1.39947C1.10104 1.86648 0.715073 2.44194 0.429234 3.12647C0.142762 3.81131 0 4.60492 0 5.50729C0 6.41028 0.138026 7.20388 0.413759 7.88873C0.689807 8.57295 1.06788 9.14621 1.54828 9.60758C2.02868 10.0693 2.59088 10.4165 3.23457 10.6497C3.8789 10.8829 4.56333 10.9998 5.28914 10.9998C6.03517 10.9998 6.73256 10.8829 7.38194 10.6497C8.03068 10.4165 8.59036 10.0693 9.06034 9.60758C9.53063 9.14621 9.90143 8.57295 10.1718 7.88873C10.4428 7.20388 10.5783 6.41028 10.5783 5.50729C10.5783 4.60492 10.4406 3.81131 10.1642 3.12647C9.88848 2.44194 9.5101 1.86648 9.03002 1.39947Z" fill="#9FA7BC"/>
</svg>
