<svg xmlns="http://www.w3.org/2000/svg" width="42" height="47" fill="none" viewBox="0 0 42 47"><path fill="#fff" fill-rule="evenodd" d="M24.7259 31.328C23.4205 33.8641 21.0279 35.9304 21 35.8993C20.9715 35.9304 18.5789 33.8641 17.2736 31.328C15.9682 28.7941 15.1309 24.8135 15.0847 22.9121C15.0379 21.0102 15.4104 20.196 15.4104 20.196C15.4104 20.196 17.0425 20.1063 18.3479 19.6511C19.4555 19.2679 20.6609 18.2968 21 18.0141C21.3364 18.2968 22.5445 19.2679 23.6543 19.6511C24.9575 20.1063 26.5891 20.196 26.5891 20.196C26.5891 20.196 26.9621 21.0102 26.9126 22.9121C26.8664 24.8135 26.0291 28.7941 24.7259 31.328ZM24.849 39.9524C25.0188 40.2787 25.1166 40.916 24.5975 40.9649C24.3072 40.204 23.9579 39.7595 23.5258 39.1453C23.1249 38.6723 22.6832 38.1844 22.3672 37.6496C23.076 38.4821 24.5002 39.3124 24.849 39.9524ZM22.3672 43.8197C22.4645 43.0743 22.2715 41.4094 21.969 40.2787C21.7604 39.5177 21.0693 37.5212 21.3773 36.807C21.4982 37.7474 21.8738 39.2173 22.4161 40.4227C22.8009 41.2885 23.3668 43.3005 22.3672 43.8197ZM20.0284 40.2787C19.7408 41.4094 19.535 43.0743 19.6323 43.8197C18.6305 43.3005 19.1986 41.2885 19.5839 40.4227C20.1235 39.2173 20.4986 37.7474 20.6195 36.807C20.9307 37.5212 20.239 39.5177 20.0284 40.2787ZM18.4865 39.1453C18.0394 39.7595 17.6901 40.204 17.402 40.9649C16.8829 40.916 16.9807 40.2787 17.1505 39.9524C17.4998 39.3124 18.9207 38.4821 19.6323 37.6496C19.3168 38.1844 18.8745 38.6648 18.4865 39.1453ZM13.1468 30.889C13.1726 31.0556 13.1957 31.1534 13.2671 31.2635C12.3396 31.4076 11.944 31.7698 11.6076 32.3582C11.1347 33.1525 11.628 34.1779 11.4942 34.602C11.3996 34.8664 11.0885 35.1211 10.5946 34.8895C10.8337 35.9514 12.1601 35.8305 12.5089 35.2393C12.6276 35.7327 12.5089 36.3007 12.2676 36.5162C12.6792 36.5393 13.0285 36.3722 13.244 36.046C13.2929 36.1438 13.2929 36.2776 13.3161 36.3953C13.545 36.2776 13.6917 36.1438 13.7863 36.0229C13.8223 36.1416 13.8685 36.4184 13.8121 36.6452C13.6353 36.7656 13.4343 36.8763 13.1237 37.0354C12.6276 37.2772 11.728 37.6265 11.2088 37.6985C10.7848 37.7705 10.0502 37.5287 9.85725 36.9376C9.68743 36.3722 9.21988 36.1927 8.84476 36.5393C8.74964 36.4673 8.48523 36.4184 8.37453 36.5909C8.37453 36.5909 8.2563 36.3238 8.10958 36.1927C8.20739 35.902 8.13269 35.5526 7.86828 35.4344C7.84517 34.8664 7.49585 34.8664 7.37494 34.6734C7.30346 34.5531 7.30346 34.4063 7.47275 34.3838C7.40073 34.2757 7.25402 34.2526 7.23091 34.2526C7.27766 34.0108 7.20511 33.7104 6.88159 33.6126L4.02416 27.7204C4.20634 27.5274 4.11176 27.2501 3.90324 27.1518C3.90324 27.1518 3.90324 27.1287 3.90324 27.1061C3.92097 27.0593 3.92366 27.0233 3.92904 26.9879C4.00589 26.975 4.09886 26.9567 4.18108 26.9363C4.74644 26.803 5.62726 25.9727 6.38824 25.4536C6.12061 25.7309 5.013 26.5381 4.51965 27.0083C4.05963 27.4656 4.25256 27.923 4.32726 28.3346L4.43528 28.563C4.85393 28.5888 5.48109 28.8409 5.95133 28.455C6.0975 28.311 8.15849 25.754 8.43364 25.5025C8.32831 25.7309 7.02562 27.3705 6.43715 28.311C6.00023 29.0204 6.64029 29.4906 6.71445 29.899C7.182 29.7556 7.82206 30.0329 8.15849 29.4675C8.48523 28.9252 9.48482 26.9852 9.85725 26.4402C9.71323 26.8643 8.65183 29.0693 8.58036 29.2617C8.32831 30.0098 8.96568 30.1538 9.21988 30.6498C9.60521 30.372 10.3022 30.588 10.5693 29.8759C10.7359 29.3955 11.1599 27.7204 11.3787 27.2732C11.3529 27.7687 11.2088 28.4319 11.1116 29.1644C11.0138 29.899 11.7022 29.8759 12.0623 30.3C12.4116 30.0098 13.0516 30.0818 13.1468 29.4186C13.244 28.828 13.2671 27.3936 13.2671 27.3936C13.365 27.4785 13.4139 27.5016 13.5219 27.5994C13.7605 27.3216 14.2571 27.3216 14.4242 26.9852C14.4984 27.0083 14.5215 27.0572 14.5935 27.1061C15.1357 28.0079 15.182 29.7556 14.4242 30.372C14.6424 30.372 14.9197 30.3462 15.0868 30.2747C14.7504 30.9604 14.0023 31.2023 13.1468 30.889ZM4.47344 24.5749C4.34768 24.6259 4.20151 24.6904 4.08542 24.7393C4.08542 24.7291 4.08542 24.7162 4.08542 24.706C4.20365 24.6619 4.35037 24.6184 4.47344 24.5749ZM16.8345 9.74977C18.1861 9.45957 19.5581 8.70127 20.1751 8.0639C20.6862 8.09507 21.3466 8.09991 21.848 8.07196C22.4569 8.71417 23.8112 9.45957 25.1628 9.74977C24.3787 9.74977 23.0067 9.67776 22.8374 9.48482C22.8863 9.97817 23.9343 10.536 24.6206 10.6902C24.0525 10.7623 23.5258 10.6902 23.076 10.4871C23.3206 10.837 23.5952 11.1014 24.0525 11.2583C23.5721 11.8494 22.5854 12.2321 21.6062 12.137C21.848 12.4272 22.2952 12.6072 22.6832 12.5583C21.804 13.9615 21.1516 15.4007 20.9973 17.0683L20.9919 17.0661L20.9898 17.071C20.8431 15.4007 20.1955 13.9615 19.319 12.5583C19.715 12.6072 20.152 12.4272 20.3782 12.137C19.391 12.2321 18.4376 11.8494 17.9443 11.2583C18.4043 11.1014 18.6789 10.837 18.9207 10.4871C18.4865 10.6902 17.9443 10.7623 17.3789 10.6902C18.0652 10.536 19.1266 9.97817 19.1723 9.48482C18.9928 9.67776 17.6207 9.74977 16.8345 9.74977ZM25.8491 41.6507C26.1522 42.1698 25.7309 42.5423 25.1397 42.5423C25.1397 42.3396 25.1397 42.2671 25.0908 42.0236C25.366 41.9979 25.6873 41.8952 25.8491 41.6507ZM16.8598 42.5423C16.2691 42.5423 15.8473 42.1698 16.1482 41.6507C16.3046 41.885 16.6158 41.9952 16.8829 42.0236C16.8598 42.2671 16.8598 42.3396 16.8598 42.5423ZM3.1917 24.9344C3.16053 24.9344 3.12936 24.9344 3.09604 24.9344C3.09121 24.9269 3.08583 24.9188 3.07831 24.9113C3.12184 24.9011 3.16859 24.9011 3.20944 24.8882C3.20675 24.9038 3.19923 24.9188 3.1917 24.9344ZM2.48178 26.4402L2.24317 26.2994C2.33829 26.1882 2.43341 26.1882 2.52853 26.25C2.52853 26.3226 2.52853 26.394 2.48178 26.4402ZM2.01154 25.4304C1.98843 25.4304 1.98843 25.4536 1.96532 25.4767C1.81915 25.4536 1.81915 25.2837 1.84494 25.1397C1.91427 25.1397 1.96532 25.1166 2.01154 25.0682L2.03465 25.0935L1.96532 25.1397C1.98843 25.2375 1.98843 25.3332 2.01154 25.4304ZM41.9022 19.1137C41.3857 18.8031 40.5302 18.6923 39.6617 18.7773C41.0235 18.307 41.9511 17.2945 42 16.3901C41.2906 16.1869 40.5533 16.2949 39.9159 16.439C40.5764 15.9451 41.6609 15.0412 41.5298 13.7148C40.8924 13.5579 39.7208 14.005 39.2269 14.2237C40.7946 13.3424 41.3599 11.2583 40.5302 10.0765C40.0368 10.3662 37.7931 12.6534 37.4309 12.9211C38.5901 11.5947 39.1324 10.6413 39.4457 9.74977C39.8181 8.77597 39.8412 7.07721 38.6385 6.50916C38.071 7.81185 36.082 11.1476 34.9744 12.5352C34.8535 12.4272 34.7562 12.281 34.5993 12.2579C34.3343 13.1032 33.5502 14.2237 32.8387 14.7633C32.8027 14.6913 32.7312 14.4984 32.6098 14.2931C31.852 15.4265 29.8861 16.9812 29.2488 17.9346C28.7527 18.6434 28.7527 19.2835 29.4412 19.9467C29.719 20.224 30.2484 20.7173 29.791 21.4036C29.1687 22.3134 27.9176 22.4188 27.2367 21.884C27.2367 21.7223 27.2313 21.568 27.2238 21.424C28.0256 21.1134 28.2132 20.0208 27.622 19.3426C27.4914 19.592 27.2775 19.7742 27.0212 19.8639C26.9519 19.5812 26.8895 19.4431 26.8847 19.4297L26.8535 19.363L26.7842 19.3603C26.7767 19.3582 26.5149 19.3453 26.1216 19.2991C26.566 19.1524 26.8508 18.7412 26.7896 18.1861C26.1033 18.7773 25.4149 18.2119 25.2579 18.0555C24.8264 17.5493 24.7055 16.9812 24.8748 16.1122C25.0188 15.3545 25.8023 14.149 26.3193 13.7637C26.394 13.8357 26.5123 13.9798 26.7638 13.9566C26.9099 13.9104 27.1518 13.7868 27.3318 13.7148C27.851 13.5579 28.3572 13.6788 28.6834 13.8846C29.2719 14.2442 29.223 14.6424 29.2026 14.9331C30.1016 14.4269 29.791 13.5837 28.6114 13.2704C29.4181 13.2704 30.0812 14.005 30.2484 14.1001C30.6955 14.4269 31.3329 14.3543 31.7053 14.1748C32.4201 13.8357 32.5635 12.9925 32.3711 12.8232C32.2991 13.1263 32.0702 13.3913 31.6564 13.4402C31.0448 13.5117 30.4515 13.244 29.984 13.0387C29.5879 12.8721 28.9457 12.7512 28.5136 12.7765C29.3208 12.3299 30.5746 12.3788 31.019 13.0645C31.2866 12.849 31.4538 12.6534 31.5279 12.209C31.7569 11.0062 30.8164 10.3893 29.8141 10.3893C29.8399 10.0996 29.6341 9.95506 29.3697 10.0529C29.3697 9.9298 29.3364 9.83468 29.2692 9.78578C29.2923 9.78309 29.3235 9.77288 29.3439 9.77288C30.3564 9.70355 31.3098 9.3897 31.8262 8.84745C32.7312 7.88118 31.2866 6.65319 31.8031 5.7025C32.2991 5.91801 32.6614 6.19585 33.3449 6.29097C33.417 6.43769 33.4788 6.7252 33.5019 6.88159C33.7201 7.95588 32.6614 8.13591 32.9365 9.27953C33.0569 9.79867 33.4454 9.97817 33.576 10.5951C33.576 10.5951 33.6255 11.0267 33.2498 11.4023C34.1188 11.4254 34.5762 10.6902 34.3091 10.004C34.1903 9.72666 33.8872 9.45957 33.8872 9.13604C34.3343 9.72666 34.7331 9.70355 35.4188 9.48482C35.7321 9.3897 35.7579 9.82447 35.5629 10.1738C36.0331 9.89326 36.1567 9.43592 36.1567 9.23331C36.1567 8.75018 35.781 8.52124 35.4188 8.61905C35.2162 8.64216 34.8046 8.91946 34.7815 8.52124C34.6965 7.83496 35.781 7.85861 35.5629 6.751C35.4446 6.19585 34.8277 5.89221 33.8641 5.77398C33.769 5.67671 33.5271 5.44777 33.3965 5.25484C32.8672 4.3767 32.3222 4.14776 31.9955 4.32726C31.6102 4.52019 31.4076 4.69001 31.0943 4.85715C30.8395 4.99043 30.5746 5.06244 30.4053 5.25484C29.984 5.77398 30.3822 6.58118 30.5977 7.07721C30.7444 7.36473 31.0943 8.02843 30.9373 8.52124C30.7675 9.1124 29.791 9.48483 29.2026 9.60628C29.1639 9.60628 29.1408 9.61864 29.1026 9.61864V9.3897C29.2719 9.0866 29.4181 8.72707 29.539 8.40032C29.9372 7.33893 29.3439 6.90792 28.4674 6.70209C28.3572 6.63008 28.2363 6.60428 28.0928 6.65319H28.067L28.0434 6.83268L27.923 6.79722L27.9488 6.58118H27.8966C27.9971 6.50916 28.0434 6.38824 28.0434 6.26786C28.0434 6.13673 27.9971 6.03892 27.9488 5.96691H28.067L28.0176 5.91801C27.9971 5.8691 27.9488 5.82288 27.8741 5.74872C27.851 5.72561 27.8278 5.67671 27.8278 5.6536C27.851 5.67671 27.8741 5.7025 27.923 5.72561C27.9713 5.77398 28.0434 5.82288 28.067 5.8691L28.1385 5.91801V4.93131L28.067 4.99043C28.0434 5.01408 27.9713 5.06244 27.923 5.11135C27.8741 5.16025 27.851 5.16025 27.8278 5.18336C27.8278 5.16025 27.851 5.13446 27.8741 5.08555C27.9488 5.03933 27.9971 4.96463 28.0176 4.93131L28.067 4.85715H27.0798L27.1287 4.93131C27.1749 4.96463 27.2367 5.03933 27.2856 5.08555C27.3087 5.13446 27.3318 5.16025 27.3571 5.18336C27.3318 5.16025 27.2856 5.16025 27.2598 5.11135C27.1749 5.06244 27.1287 5.01408 27.0798 4.99043L27.0314 4.93131V5.91801L27.0798 5.8691C27.1287 5.82288 27.1749 5.77398 27.2598 5.72561C27.2856 5.7025 27.3318 5.67671 27.3571 5.6536C27.3318 5.67671 27.3087 5.72561 27.2856 5.74872C27.2367 5.82288 27.1749 5.8691 27.1287 5.91801L27.0798 5.96691H27.2367C27.1518 6.03892 27.1287 6.13673 27.1287 6.26786C27.1287 6.38824 27.1749 6.50916 27.2598 6.58118H27.2367L27.2598 6.79722L27.1287 6.83268L27.1029 6.65319H27.0798C26.9357 6.60428 26.8154 6.63008 26.7176 6.70209C25.8254 6.90792 25.2348 7.33893 25.633 8.40032C25.754 8.72707 25.9007 9.0866 26.0802 9.3897V9.54663C25.1859 9.25642 23.5823 8.27994 23.1507 7.68879C23.1018 7.62967 23.0658 7.58077 23.0427 7.5453L23.0379 7.54745L23.0556 6.90792C23.3668 6.38824 23.6441 5.74872 23.8628 5.16025C24.4282 3.62862 23.5952 2.99125 22.2715 2.72362C22.1382 2.62903 21.969 2.58013 21.7529 2.65214L21.7062 2.89344L21.4294 2.87033L21.452 2.55702C21.4036 2.58013 21.3568 2.58013 21.3085 2.58013C21.4982 2.485 21.632 2.25338 21.632 2.01477C21.632 1.84548 21.5471 1.63965 21.4036 1.54453H21.632C21.4982 1.42361 21.2827 1.16888 21.2359 1.00228C21.4036 1.0485 21.6578 1.2769 21.776 1.4005V0.146177C21.6578 0.241836 21.4036 0.483135 21.2359 0.506244C21.2827 0.364904 21.4982 0.120918 21.632 0H20.3782C20.4755 0.120918 20.7168 0.364904 20.7399 0.506244C20.5937 0.483135 20.3551 0.241836 20.2213 0.146177V1.4005C20.3551 1.2769 20.5937 1.0485 20.7399 1.00228C20.7168 1.16888 20.4755 1.42361 20.3782 1.54453H20.5937C20.4502 1.63965 20.3782 1.84548 20.3782 2.01477C20.3782 2.25338 20.4986 2.485 20.6915 2.58013C20.6426 2.58013 20.5937 2.58013 20.5217 2.55702L20.5475 2.87033L20.2697 2.89344L20.2444 2.65214C20.0284 2.58013 19.8618 2.62903 19.715 2.72362C18.4043 2.99125 17.5691 3.62862 18.1372 5.16025C18.3301 5.74872 18.6074 6.38824 18.9439 6.90792V7.57055C18.9207 7.59366 18.8955 7.64257 18.8487 7.68879C18.4274 8.27994 16.8114 9.25642 15.9193 9.54663V9.3897C16.0993 9.0866 16.246 8.72707 16.3664 8.40032C16.7652 7.33893 16.174 6.90792 15.2819 6.70209C15.182 6.63008 15.0664 6.60428 14.9197 6.65319H14.8966L14.8708 6.83268L14.7504 6.79722L14.7735 6.58118H14.7504C14.8219 6.50916 14.8708 6.38824 14.8708 6.26786C14.8708 6.13673 14.8477 6.03892 14.7735 5.96691H14.9197L14.8708 5.91801C14.8219 5.8691 14.7735 5.82288 14.7268 5.74872C14.7037 5.72561 14.6682 5.67671 14.6424 5.6536C14.6682 5.67671 14.7268 5.7025 14.7504 5.72561C14.8219 5.77398 14.8708 5.82288 14.9197 5.8691L14.9686 5.91801V4.93131L14.9197 4.99043C14.8708 5.01408 14.8219 5.06244 14.7504 5.11135C14.7268 5.16025 14.6682 5.16025 14.6424 5.18336C14.6682 5.16025 14.7037 5.13446 14.7268 5.08555C14.7735 5.03933 14.8219 4.96463 14.8708 4.93131L14.9197 4.85715H13.9325L13.9792 4.93131C14.0023 4.96463 14.0641 5.03933 14.113 5.08555C14.1593 5.13446 14.1824 5.16025 14.1824 5.18336C14.1593 5.16025 14.1361 5.16025 14.0894 5.11135C14.0281 5.06244 13.954 5.01408 13.9325 4.99043L13.8583 4.93131V5.91801L13.9325 5.8691C13.954 5.82288 14.0281 5.77398 14.0894 5.72561C14.1361 5.7025 14.1593 5.67671 14.1824 5.6536C14.1824 5.67671 14.1593 5.72561 14.113 5.74872C14.0641 5.82288 14.0023 5.8691 13.9792 5.91801L13.9325 5.96691H14.0641C14.0023 6.03892 13.954 6.13673 13.954 6.26786C13.954 6.38824 14.0023 6.50916 14.113 6.58118H14.0641L14.0894 6.79722L13.954 6.83268L13.9325 6.65319H13.9072C13.7605 6.60428 13.6428 6.63008 13.545 6.70209C12.6534 6.90792 12.0623 7.33893 12.4605 8.40032C12.5814 8.72707 12.7276 9.0866 12.9076 9.3897V9.61864C12.8689 9.61864 12.8356 9.60628 12.8098 9.60628C12.2192 9.48483 11.232 9.1124 11.0627 8.52124C10.9057 8.02843 11.2578 7.36473 11.3996 7.07721C11.628 6.58118 12.016 5.77398 11.6076 5.25484C11.4249 5.06244 11.1599 4.99043 10.9057 4.85715C10.5946 4.69001 10.3995 4.52019 10.004 4.32726C9.68743 4.14776 9.14787 4.3767 8.60347 5.25484C8.48523 5.44777 8.23104 5.67671 8.13269 5.77398C7.182 5.89221 6.56774 6.19585 6.43715 6.751C6.21627 7.85861 7.30346 7.83496 7.23091 8.52124C7.20511 8.91946 6.78647 8.64216 6.59085 8.61905C6.21627 8.52124 5.84331 8.75018 5.84331 9.23331C5.84331 9.43592 5.97712 9.89326 6.43715 10.1738C6.24422 9.82447 6.26732 9.3897 6.59085 9.48482C7.27766 9.70355 7.66245 9.72666 8.10958 9.13604C8.10958 9.45957 7.82206 9.72666 7.69094 10.004C7.42384 10.6902 7.86828 11.4254 8.74964 11.4023C8.35142 11.0267 8.43364 10.5951 8.43364 10.5951C8.55725 9.97817 8.94257 9.79867 9.0737 9.27953C9.34134 8.13591 8.2794 7.95588 8.50834 6.88159C8.53145 6.7252 8.58036 6.43769 8.65183 6.29097C9.34134 6.19585 9.71323 5.91801 10.1937 5.7025C10.6897 6.65319 9.2661 7.88118 10.1706 8.84745C10.6897 9.3897 11.6538 9.70355 12.6534 9.77288C12.6738 9.77288 12.7072 9.78578 12.733 9.78846C12.6636 9.83468 12.6276 9.9298 12.6276 10.0529C12.3654 9.95506 12.1601 10.0996 12.1961 10.3893C11.1599 10.3893 10.2453 11.0062 10.4715 12.209C10.5435 12.6534 10.7128 12.849 10.9907 13.0645C11.4249 12.3788 12.6792 12.3299 13.4961 12.7765C13.0516 12.7512 12.4116 12.8721 12.016 13.0387C11.556 13.244 10.9676 13.5117 10.3533 13.4402C9.92927 13.3913 9.71323 13.1263 9.62831 12.8232C9.43592 12.9925 9.57995 13.8357 10.3022 14.1748C10.6644 14.3543 11.304 14.4269 11.749 14.1001C11.9182 14.005 12.5814 13.2704 13.3908 13.2704C12.2192 13.5837 11.893 14.4269 12.8098 14.9331C12.7738 14.6424 12.7276 14.2442 13.3161 13.8846C13.6428 13.6788 14.1593 13.5579 14.6682 13.7148C14.8477 13.7868 15.0868 13.9104 15.2335 13.9566C15.4851 13.9798 15.606 13.8357 15.6774 13.7637C16.1971 14.149 16.9549 15.3545 17.1247 16.1122C17.3047 16.9812 17.1736 17.5493 16.7394 18.0555C16.5954 18.2119 15.8962 18.7773 15.2104 18.1861C15.1459 18.7386 15.4313 19.1502 15.8758 19.2991C15.4775 19.3426 15.2104 19.3582 15.2024 19.3603L15.133 19.363L15.1051 19.4297C15.097 19.4431 15.0379 19.5812 14.9659 19.8618C14.7166 19.7666 14.5059 19.5893 14.3774 19.3426C13.7863 20.0187 13.969 21.1032 14.7633 21.4186C14.7552 21.568 14.7504 21.7277 14.7504 21.8916C14.069 22.4161 12.8308 22.3081 12.2192 21.4036C11.749 20.7173 12.2907 20.224 12.5583 19.9467C13.244 19.2835 13.244 18.6434 12.748 17.9346C12.1112 16.9812 10.1453 15.4265 9.3897 14.2931C9.2661 14.4984 9.19462 14.6913 9.16829 14.7633C8.45944 14.2237 7.66245 13.1032 7.40073 12.2579C7.25402 12.281 7.14653 12.4272 7.02562 12.5352C5.92822 11.1476 3.92904 7.81185 3.36368 6.50916C2.16847 7.07721 2.19158 8.77597 2.55648 9.74977C2.87785 10.6413 3.42279 11.5947 4.56587 12.9211C4.20634 12.6534 1.96532 10.3662 1.46983 10.0765C0.639523 11.2583 1.20488 13.3424 2.76983 14.2237C2.28938 14.005 1.10761 13.5579 0.470237 13.7148C0.349319 15.0412 1.42092 15.9451 2.08409 16.439C1.44672 16.2949 0.711536 16.1869 0 16.3901C0.0483673 17.2945 0.986693 18.307 2.31249 18.7773C1.46983 18.6923 0.614264 18.8031 0.0945849 19.1137C0.192394 20.0542 1.25379 20.864 2.52853 21.057C1.67243 21.1516 0.914142 21.5272 0.518605 22.0437C0.986693 22.6579 1.67243 23.1282 2.72362 23.1051C2.48178 23.1894 2.20447 23.3566 1.96532 23.5855C1.94007 23.5619 1.89116 23.5387 1.84494 23.5387C1.79335 23.5619 1.77293 23.6344 1.79335 23.6828C1.79335 23.6828 1.79335 23.6828 1.79335 23.7188C1.69339 23.7908 1.63696 23.873 1.62622 23.9606C1.52841 24.0993 1.42845 24.2637 1.37417 24.4051C1.39996 24.418 1.42092 24.4411 1.44672 24.454C1.43651 24.5362 1.45424 24.6286 1.51605 24.7189C1.46983 24.7673 1.44672 24.8393 1.42092 24.9113L0.806659 24.6695C0.773339 25.2273 0.896407 25.6873 1.17909 25.9727C1.39996 26.2242 1.64986 26.1882 1.57785 26.2736L2.24317 26.6815C2.3614 26.9363 2.6027 26.9363 2.76983 26.8643C2.76983 26.8643 2.76983 26.8874 2.76983 26.9132C2.76983 27.1776 2.95202 27.3936 3.1917 27.4785C3.14549 27.6973 3.24007 27.8407 3.54317 27.9386L6.04914 34.0108C5.95133 34.2989 6.04914 34.5531 6.26733 34.6482C6.21627 34.7202 6.17005 34.7943 6.17005 34.9384C6.26732 34.8664 6.41135 34.8411 6.48337 35.0464C6.52958 35.1904 6.26733 35.6607 6.66555 35.9745C6.61396 36.2518 6.76067 36.5393 7.04873 36.6629C7.04873 36.807 7.182 37.2772 7.20511 37.4438C7.02562 37.6985 6.61396 38.0839 6.66555 38.5052C6.71445 38.8088 6.83268 38.904 7.07398 38.9754C6.97671 39.5177 7.27766 39.7595 7.73715 39.7853C7.73715 40.1809 8.10958 40.3249 8.35142 40.348C8.58036 40.5173 8.67763 40.5893 8.94257 40.7231C8.70074 41.0106 8.87056 41.3863 9.315 41.5072C9.36444 41.6738 9.48482 41.8205 9.73633 41.8796C9.88305 42.1209 10.1453 42.1209 10.3022 42.0489C10.3995 42.0005 10.5693 41.7227 10.4226 41.4814C10.5204 41.3605 10.4715 41.1315 10.3995 40.9875C10.5435 40.7231 10.4226 40.3969 10.2195 40.3018C10.2453 40.1551 10.1706 39.9267 10.1222 39.7853C10.4715 39.5666 10.9057 39.2893 11.0627 39.1942C11.9182 38.5799 12.8818 38.035 13.9792 37.9629C14.2571 37.9377 14.7735 37.9146 15.0664 37.9377C15.5109 37.9861 16.1251 38.1199 16.4852 37.842C16.5954 37.7705 16.6674 37.6496 16.6443 37.5287C16.5954 37.2514 16.2944 37.0096 16.1971 36.7581C16.1713 36.6807 16.1251 36.57 16.0789 36.47C16.3922 36.5264 16.6803 36.4802 16.8598 36.3953C17.0527 36.3238 17.5229 35.9745 17.4998 35.4575C17.1247 35.6376 16.2202 35.8789 16.1251 34.9615C16.0273 34.1548 16.7394 33.4685 17.8491 33.7695C18.6074 33.9619 19.715 35.5758 18.7026 36.2776C18.2087 36.614 17.4509 36.9376 17.5482 37.8195C17.8722 37.4207 18.3043 37.2283 18.8697 37.2772C18.0394 37.8915 17.402 37.9629 16.5336 38.4332C15.7758 38.8782 15.2104 39.6155 14.6166 39.6386C14.1593 39.6617 13.9072 39.1195 14.3516 38.6981C13.9072 38.603 13.3161 38.9523 13.1468 39.4204C12.9307 40.0599 13.0979 40.5173 13.4961 40.772C12.9565 41.0595 12.5583 41.6276 12.748 42.4342C12.9307 43.0974 13.5939 43.0974 13.3418 43.9406C13.7148 43.8428 13.954 43.5907 14.0641 43.2285C14.113 42.977 14.1593 42.7121 14.2823 42.5912C14.2313 43.0974 14.5215 43.8428 15.2104 44.1819C15.6774 44.4108 16.4153 44.506 16.9807 43.9175C17.2096 44.5801 17.9905 45.1455 18.8004 45.1224C19.1723 45.1224 19.535 44.9628 19.8123 44.7983C20.0052 45.2895 20.4986 45.7855 20.9919 46.0247C21.4982 45.7855 21.9942 45.2895 22.1974 44.7983C22.4645 44.9628 22.8374 45.1224 23.1996 45.1224C23.981 45.1455 24.8006 44.5801 25.0188 43.9175C25.5841 44.506 26.3193 44.4108 26.7896 44.1819C27.4785 43.8428 27.766 43.0974 27.7198 42.5912C27.851 42.7121 27.8966 42.977 27.9488 43.2285C28.0434 43.5907 28.2825 43.8428 28.6576 43.9406C28.4061 43.0974 29.0816 43.0974 29.2488 42.4342C29.4412 41.6276 29.0435 41.0595 28.5136 40.772C28.8995 40.5173 29.0816 40.0599 28.8505 39.4204C28.6834 38.9523 28.0928 38.603 27.6451 38.6981C28.0928 39.1195 27.851 39.6617 27.3802 39.6386C26.7896 39.6155 26.2242 38.8782 25.4638 38.4332C24.5975 37.9629 23.9579 37.8915 23.1276 37.2772C23.693 37.2283 24.1401 37.4207 24.4513 37.8195C24.5485 36.9376 23.7908 36.614 23.2942 36.2776C22.2952 35.5758 23.3926 33.9619 24.1632 33.7695C25.2579 33.4685 25.9824 34.1548 25.8749 34.9615C25.754 35.8789 24.8748 35.6376 24.4771 35.4575C24.4771 35.9745 24.9446 36.3238 25.1397 36.3953C25.366 36.5033 25.7819 36.5598 26.157 36.4007C26.1447 36.4904 26.1291 36.5888 26.1291 36.614C26.0549 37.3976 25.633 37.4696 25.7771 37.7937C25.9824 38.035 27.3318 37.9861 27.694 38.0608C28.3341 38.1457 28.8763 38.3848 29.4906 38.5052C30.1763 38.6498 30.9115 38.6498 31.5279 38.904C31.924 39.0732 32.3711 39.3973 32.7565 39.5897C33.3449 39.6875 33.2498 39.9267 33.6255 39.9267C33.9619 39.9267 34.0925 39.6386 34.5273 39.5177C34.8277 39.4462 35.1641 39.5666 35.465 39.4693C35.6838 39.4204 35.781 39.1942 35.9869 39.0732C36.2282 38.9271 36.5651 38.9271 36.7941 38.7212C36.9144 38.6159 36.9376 38.4101 36.9193 38.2666L36.9247 38.2999C37.3847 37.9758 37.734 37.5056 37.9269 36.9607C38.0473 36.9376 38.143 36.8301 38.143 36.7092C38.143 36.686 38.143 36.6629 38.143 36.6629C38.2634 36.5651 38.3354 36.4184 38.3354 36.2776C38.3354 36.0949 38.2634 35.9514 38.143 35.8305C38.143 35.8305 38.143 35.8047 38.143 35.7816C38.143 35.6865 38.0941 35.6144 38.0473 35.5526C37.8549 34.5041 37.0585 33.6615 36.0331 33.3965C36.0331 33.3707 36.0331 33.3707 36.0331 33.3476H36.01C36.01 33.2987 35.9869 33.2735 35.9509 33.2735C35.8042 33.1294 35.6343 32.9032 35.6139 32.7565C35.781 32.8059 36.0589 33.0703 36.2024 33.1783V31.7929C36.0589 31.9009 35.781 32.1659 35.6139 32.2148C35.6343 32.0449 35.8993 31.744 36.0331 31.6236H34.6245C34.7562 31.744 35.0206 32.0449 35.0437 32.2148C34.8766 32.1659 34.5993 31.9009 34.4552 31.7929V33.1783C34.5993 33.0703 34.8766 32.8059 35.0437 32.7565C35.0206 32.9263 34.7562 33.2272 34.6245 33.3476L34.6734 33.3707C33.6255 33.6126 32.7796 34.481 32.5867 35.5526C32.5152 35.6144 32.4663 35.6865 32.4663 35.7816C32.4663 35.8047 32.4663 35.8305 32.4663 35.8305C32.3454 35.9514 32.2733 36.0949 32.2733 36.2776C32.2733 36.4184 32.3454 36.5651 32.4663 36.6629C32.4663 36.6629 32.4663 36.686 32.4663 36.7092C32.4663 36.8661 32.5635 36.9376 32.6823 36.9607C32.7312 37.0945 32.7898 37.2283 32.8516 37.3492C32.8516 37.3363 32.8516 37.3363 32.8672 37.3234C32.7796 37.7216 32.2991 37.9629 32.1911 37.9629C31.3329 38.0839 30.3822 37.7216 29.5137 37.3976C29.1305 37.2514 28.6114 37.0843 28.3572 36.7092C28.2003 36.4367 28.1336 36.2647 28.2132 36.0229C28.3083 36.1438 28.4674 36.2776 28.6834 36.3953C28.7065 36.2776 28.7065 36.1438 28.7527 36.046C28.9736 36.3722 29.3208 36.5393 29.7421 36.5162C29.4906 36.3007 29.3697 35.7327 29.4906 35.2393C29.8399 35.8305 31.1657 35.9514 31.4076 34.8895C30.9115 35.1211 30.5977 34.8664 30.5026 34.602C30.3564 34.1779 30.8395 33.1525 30.4053 32.3582C30.0554 31.7698 29.6604 31.4076 28.7323 31.2635C28.8043 31.1534 28.8274 31.0556 28.8505 30.889C27.9971 31.2023 27.2598 30.9604 26.9099 30.2747C27.0798 30.3462 27.3318 30.372 27.5731 30.372C26.8154 29.7556 26.8616 28.0079 27.406 27.1061C27.4785 27.0572 27.5016 27.0083 27.5731 26.9852C27.7402 27.3216 28.2363 27.3216 28.4878 27.5994C28.5861 27.5016 28.6345 27.4785 28.7323 27.3936C28.7323 27.3936 28.7527 28.828 28.8505 29.4186C28.9457 30.0818 29.5879 30.0098 29.9119 30.3C30.2973 29.8759 30.9959 29.899 30.8884 29.1644C30.7906 28.4319 30.6466 27.7687 30.624 27.2732C30.8395 27.7204 31.2609 29.3955 31.4307 29.8759C31.7053 30.588 32.3943 30.372 32.7796 30.6498C33.0338 30.1538 33.6717 30.0098 33.417 29.2617C33.3449 29.0693 32.2991 26.8643 32.1422 26.4402C32.5152 26.9852 33.5271 28.9252 33.841 29.4675C34.1903 30.0329 34.8277 29.7556 35.285 29.899C35.3726 29.4906 35.9869 29.0204 35.5397 28.311C34.9744 27.3705 33.6486 25.7309 33.576 25.5025C33.841 25.754 35.8993 28.311 36.0589 28.455C36.5393 28.8763 37.238 28.5501 37.6491 28.5501C37.6491 28.0826 38.0221 27.5505 37.4825 27.0083C36.9865 26.5381 35.8536 25.7309 35.6139 25.4536C36.3695 25.9727 37.2638 26.803 37.7931 26.9363C38.7336 27.1776 39.0706 26.803 39.4226 26.6584C39.1324 25.8034 39.5177 25.4073 37.5287 24.5749C39.25 25.1891 40.011 24.8855 40.6253 24.4051C40.3835 23.7908 39.7692 23.2743 39.2732 23.1051C40.3243 23.1282 41.0235 22.6579 41.4809 22.0437C41.0955 21.5272 40.3243 21.1516 39.4457 21.057C40.7457 20.864 41.7818 20.0542 41.9022 19.1137Z" clip-rule="evenodd"/></svg>