<svg width="12" height="17" viewBox="0 0 12 17" fill="none" xmlns="http://www.w3.org/2000/svg">
<path fill-rule="evenodd" clip-rule="evenodd" d="M0 0.28313H2.69035V1.17713C2.69035 1.62549 2.64547 2.02515 2.64547 2.02515H2.69035C3.45761 0.730584 4.89656 0 6.49703 0C9.70068 0 11.7427 2.56683 11.7427 6.28712C11.7431 10.1016 9.44672 12.5733 6.3355 12.5733C4.98943 12.5733 3.75912 11.9611 2.92321 10.8791H2.8779C2.8779 10.8791 2.94699 11.3029 2.94699 11.9151V17.0001H0V0.28313ZM5.80156 10.0538C7.42537 10.0538 8.77189 8.71239 8.77189 6.33401C8.77234 4.0503 7.56581 2.56683 5.84912 2.56683C4.29351 2.56683 2.85457 3.69707 2.85457 6.35859C2.85457 8.21759 3.87578 10.0538 5.80156 10.0538Z" fill="#9FA7BC"/>
</svg>
