<svg width="232" height="80" viewBox="0 0 232 80" fill="none" xmlns="http://www.w3.org/2000/svg">
<path d="M2 73H36.0133C37.8084 73 39.3837 71.8041 39.8661 70.075L48.0648 40.6914C48.991 37.3719 53.4013 36.6993 55.2749 39.5918L59.6417 46.3336C61.5513 49.2817 66.0613 48.5132 66.8869 45.0992L73.1669 19.1295C74.0814 15.3474 79.3103 14.9654 80.7648 18.5744L85.8654 31.2298C86.7344 33.3861 89.2935 34.2968 91.3294 33.1743V33.1743C92.4938 32.5322 93.9062 32.5322 95.0706 33.1743L97.3017 34.4044C98.3169 34.9642 99.525 35.056 100.613 34.656L104.354 33.2811C106.152 32.6201 108.166 33.3267 109.157 34.966L113.15 41.5714L118.057 52.3938C119.477 55.5248 123.923 55.5248 125.343 52.3938L125.575 51.8832C127.132 48.4477 132.144 48.8801 133.09 52.5317L135.174 60.5747C135.631 62.3392 137.223 63.5714 139.046 63.5714H145.578C146.706 63.5714 147.782 64.0483 148.541 64.8844L152.004 68.7034C152.677 69.4454 153.603 69.908 154.601 69.9997L187.25 73H230" stroke="url(#paint0_linear_19_968)" stroke-width="4" stroke-linecap="round" stroke-linejoin="round"/>
<defs>
<linearGradient id="paint0_linear_19_968" x1="2" y1="40" x2="230" y2="40" gradientUnits="userSpaceOnUse">
<stop stop-color="white" stop-opacity="0"/>
<stop offset="0.21" stop-color="#00CB82"/>
<stop offset="0.785" stop-color="#00CB82"/>
<stop offset="1" stop-color="white" stop-opacity="0"/>
</linearGradient>
</defs>
</svg>
