<svg width="58" height="59" viewBox="0 0 58 59" fill="none" xmlns="http://www.w3.org/2000/svg">
<path fill-rule="evenodd" clip-rule="evenodd" d="M29.0001 3.61905C14.4324 3.61905 2.62109 15.4303 2.62109 29.994C2.62109 44.5674 14.4324 56.3855 29.0001 56.3855C43.5737 56.3855 55.3849 44.5674 55.3849 29.994C55.3849 19.7828 49.5653 10.9425 41.0708 6.55863C40.9902 6.48515 40.9234 6.42048 40.8388 6.34405C40.8388 6.34405 40.8329 6.38324 40.8329 6.44301C39.7916 5.91856 38.716 5.46451 37.6135 5.08395C37.698 4.72532 37.8111 4.19423 37.8573 3.80131C37.9074 3.32118 37.523 2.81851 36.7317 3.00762C36.1841 3.12912 34.7774 3.62003 33.5466 4.03549C32.0662 3.77975 30.5533 3.61905 29.0001 3.61905Z" fill="#1C222F" stroke="white" stroke-width="4.57833" stroke-miterlimit="2.613" strokeLinejoin="round"/>
<path fill-rule="evenodd" clip-rule="evenodd" d="M2.62109 29.994C2.62109 15.4304 14.4324 3.61914 29.0001 3.61914C43.5737 3.61914 55.3849 15.4304 55.3849 29.994C55.3849 44.5675 43.5727 56.3856 29.0001 56.3856C14.4314 56.3856 2.62109 44.5675 2.62109 29.994Z" fill="white" stroke="#1C222F" stroke-width="1.23213" stroke-miterlimit="2.613" strokeLinejoin="round"/>
<path fill-rule="evenodd" clip-rule="evenodd" d="M38.6928 4.30757C49.0708 8.21918 56.4524 18.2461 56.4524 29.9936C56.4524 45.155 44.1605 57.4474 29 57.4474C13.8395 57.4474 1.55345 45.155 1.55345 29.9936C1.55345 14.8372 13.8395 2.54774 29 2.54774C30.6318 2.54774 32.2372 2.68884 33.7943 2.9632L34.7429 2.58498C32.8536 2.19582 30.9293 1.99981 29 2C13.5387 2 1 14.5314 1 29.9936C1 45.4597 13.5397 58 29 58C44.4662 58 57 45.4597 57 29.9936C57 17.8982 49.3293 7.59011 38.5798 3.67556L38.6928 4.30757Z" fill="#1C222F"/>
<path fill-rule="evenodd" clip-rule="evenodd" d="M15.6464 35.2195C15.9167 34.8864 16.4829 34.418 17.2281 34.0506C18.2898 33.5136 21.3175 33.1638 22.9946 33.1863C23.9885 33.1971 24.655 33.6498 25.119 34.1123C25.582 34.5758 24.7857 34.6434 24.3895 34.3102C23.9885 33.983 23.5481 33.8703 23.085 33.8703C22.622 33.8703 22.1305 34.0506 21.871 34.2426C21.6046 34.4454 21.5377 34.7169 20.8761 34.9089C20.075 35.1353 19.148 34.4121 19.148 34.4121C19.7978 35.6379 20.9155 35.5978 21.5377 35.4459C21.9899 35.3273 22.1315 35.1186 22.797 35.1068C23.8587 35.0902 24.3227 35.7055 24.3227 35.7055C22.9946 35.6379 20.7474 36.4679 19.6788 36.7001C18.3517 36.9941 17.0924 37.0333 17.0924 37.0333C17.9506 38.0954 19.2158 38.0954 20.1477 38.0954C21.0737 38.0954 24.0563 37.875 25.8474 38.0278C28.0956 38.214 29.8916 39.6887 29.8916 41.8747C29.8916 44.0598 28.3728 45.2523 28.3728 45.2523C30.2927 44.6595 31.09 43.1339 31.09 43.1339C32.1133 47.0768 29.988 50.229 28.0445 51.5166C26.4294 52.5895 21.582 53.6977 17.8602 51.9173C13.7422 49.9459 12.1831 48.0253 12.1831 48.0253C21.1357 48.7543 25.5141 46.2733 25.5141 46.2733C17.4247 46.7427 11.782 44.6977 8.13297 43.0996C6.65992 40.7637 5.59804 38.1941 4.99313 35.5017V35.5076C11.6867 40.5461 17.6233 41.4103 17.6233 41.4103C10.393 37.4958 6.79505 33.1128 4.40527 28.7417C4.52491 26.2713 5.02046 23.8333 5.87492 21.5113L5.89163 21.4721C8.57436 28.6094 11.5235 30.7347 11.5235 30.7347C8.60286 24.0962 8.62548 19.3438 8.89188 15.7615C9.99952 14.1909 11.2886 12.7557 12.7326 11.4854L12.7543 11.4599C11.6257 17.8319 12.9804 21.9728 12.9804 21.9728C12.9804 16.9344 15.8105 10.9376 18.0637 7.88242C19.4624 7.18064 20.9269 6.61778 22.4362 6.20195H22.4412C20.3856 8.78683 19.4812 11.2943 19.4812 11.2943C23.7014 7.27882 30.6879 4.86641 31.7496 4.59498C32.8113 4.33532 35.8676 3.20554 36.7316 3.01055C37.523 2.82144 37.9064 3.3241 37.8572 3.80423C37.7904 4.42841 37.523 5.4651 37.523 5.4651C39.8676 6.03636 40.883 7.18769 40.883 7.18769C40.7946 6.87708 40.8388 6.34697 40.8388 6.34697C44.0701 9.22188 44.9518 10.5917 45.0413 13.1982C45.1317 15.8075 46.278 16.2063 46.9386 16.5591C47.6051 16.9118 49.2448 17.8466 49.7707 18.2875C50.1639 18.6207 49.9958 18.993 49.7707 19.2586C49.5495 19.5212 49.5495 19.6113 49.5092 19.919C49.3116 21.2751 48.7071 21.8229 47.8695 22.1276C47.029 22.4353 46.0971 21.9522 46.0971 21.9522C45.1701 22.9693 44.9951 22.305 44.9509 21.9101C44.9106 21.5113 44.419 21.8219 44.0701 21.9522C43.7152 22.0845 43.5844 21.5995 43.5844 21.5995C41.9005 21.379 41.1671 22.3736 41.1671 22.3736C42.6279 22.5715 43.3633 23.5651 43.4252 23.9639C43.494 24.3705 44.1546 24.0962 44.1546 24.0962C44.1546 24.0962 44.2155 23.9639 44.4888 23.8336C44.7543 23.7003 44.8211 23.7659 44.7543 24.0962C44.6874 24.4264 44.6176 24.6949 44.6176 24.6949L45.3529 25.1613C45.0806 26.9554 44.2912 26.878 43.8902 26.684C41.3421 25.4102 36.7955 25.1613 36.7955 25.1613C37.061 24.7625 37.698 24.252 37.698 24.252C26.0283 24.252 24.0573 25.6688 23.4586 26.4174C23.0457 26.9368 23.4016 27.7422 23.4016 27.7422C22.0116 28.0078 18.4874 28.8975 17.1367 30.136C15.8381 31.3226 15.4036 34.1074 15.3573 35.1353C15.3465 35.3489 15.5559 35.343 15.6464 35.2195ZM35.9757 5.14958C36.1064 5.00358 35.9757 4.88404 35.6267 5.10745C35.2699 5.32498 33.7108 6.2627 32.6599 8.02253C32.5311 8.24594 32.6078 8.57518 33.1691 8.3841C33.7219 8.19685 34.2909 8.06072 34.8688 7.97746C35.1794 7.93141 35.1794 7.71388 34.9612 7.62961C34.74 7.53653 34.6889 7.45127 34.7842 7.09657C34.8678 6.74284 35.4901 5.72378 35.9757 5.14958ZM33.0551 9.91954C30.7557 11.7813 26.971 16.2328 25.1868 20.4031C25.0511 20.7147 25.1868 20.7617 25.6272 20.4942C26.0735 20.2257 27.3554 19.6104 27.9718 19.432C27.9718 19.432 27.3043 21.7425 27.085 23.0154C26.9101 24.0638 27.7801 23.9815 28.3227 23.8571C28.8653 23.7356 31.1126 23.6366 31.5078 23.5896C31.5078 23.5896 29.4296 23.1006 29.2094 22.2599C28.9892 21.4231 29.582 19.5535 30.0057 18.2856C30.0961 18.0142 29.9605 17.6212 29.52 17.7937C29.0737 17.9691 28.4584 18.1014 28.1477 18.2856C28.1477 18.2856 30.0961 13.5068 33.1003 10.0557L33.0551 9.91954L43.3632 12.0488C43.1371 13.792 42.4992 13.6362 42.2111 13.5519C41.9005 13.4617 41.8159 13.3314 40.8821 13.2442C40.5881 13.2168 39.2286 13.0639 39.957 13.6371C41.1258 14.5719 42.1207 16.4699 42.1207 16.4699C42.2554 15.8516 41.9398 14.9678 41.7697 14.6591C41.5948 14.3456 41.8159 14.2613 42.0312 14.3034C42.2563 14.3456 42.3802 14.4308 42.7882 14.6591C43.1833 14.8767 43.4488 14.8375 43.5412 14.3034C43.6139 13.8429 43.5913 12.9022 43.4989 12.0527C43.4891 11.991 43.3878 11.9596 43.3642 12.0498L33.0551 9.91954Z" fill="#1C222F"/>
<path fill-rule="evenodd" clip-rule="evenodd" d="M46.3133 47.6914C45.2723 44.2119 42.4038 41.9925 40.8102 40.0661C40.1614 39.2813 39.201 38.1789 39.201 38.1789C40.132 38.71 41.9004 38.9755 41.9004 38.9755C41.4148 38.5738 40.3069 37.252 39.8675 36.716C38.6348 35.2423 36.4996 33.5922 34.914 32.8749C31.7958 31.463 28.5478 31.2827 28.1074 31.1974C27.6611 31.1073 26.735 31.2817 27.3052 30.3949C27.8823 29.5101 31.2423 26.9027 31.2423 26.9027C30.5365 26.9027 27.4409 27.1741 26.5089 27.3005C25.5829 27.4357 25.3676 27.1251 25.3175 26.5098C25.3175 26.5098 23.4537 28.2637 24.3463 29.1583C24.4819 29.2916 24.8771 29.3367 25.3686 29.1162C25.8493 28.8928 26.8216 28.5831 27.1764 28.543C27.1764 28.543 26.3792 29.7786 26.2052 30.3097C26.0292 30.8407 25.984 31.1063 26.8206 31.3718C27.6611 31.6315 31.9098 32.9641 34.5139 34.7328C37.1229 36.5014 39.8223 38.76 41.8179 42.9126C43.8066 47.0761 42.7105 50.2283 42.3998 50.8034C43.8175 49.899 45.1372 48.8505 46.3379 47.6747L46.3133 47.6914ZM52.13 38.8795C49.5721 36.8003 45.0796 33.0895 39.6021 31.8137C39.6021 31.8137 47.4183 34.9375 50.2101 42.7999C50.9655 41.5525 51.608 40.2405 52.13 38.8795Z" fill="#1C222F"/>
<path fill-rule="evenodd" clip-rule="evenodd" d="M36.784 53.475C37.6196 51.527 38.5407 46.8942 37.5695 43.3079C37.5695 43.3079 37.7484 51.7465 31.9592 54.5322C33.5941 54.3391 35.2061 53.987 36.7722 53.4808L36.784 53.475ZM53.7739 29.6663C53.0229 29.3626 48.3957 28.0525 48.3957 28.0525C49.945 27.9682 50.5653 26.8218 50.5653 26.8218C49.1084 27.2137 46.8946 27.3921 45.0416 27.1265C45.0416 27.1265 49.3286 28.9824 53.5989 33.0341V32.9939C53.712 32.017 53.7798 31.0166 53.7798 29.9946C53.7798 29.8691 53.7798 29.8015 53.7739 29.6663Z" fill="#1C222F"/>
</svg>
