<svg width="135" height="26" viewBox="0 0 135 26" fill="none" xmlns="http://www.w3.org/2000/svg">
<path d="M41.1961 4.67285C43.5223 4.67285 45.4607 5.48862 47.0115 7.12016C48.5785 8.75167 49.3619 10.7628 49.3619 13.1536C49.3619 15.5444 48.5785 17.5556 47.0115 19.1871C45.4607 20.8186 43.5223 21.6344 41.1961 21.6344H34.46V4.67285H41.1961ZM41.1961 18.4359C42.6661 18.4359 43.8615 17.9513 44.7823 16.9821C45.703 15.9967 46.1634 14.7206 46.1634 13.1536C46.1634 11.5867 45.703 10.3186 44.7823 9.34939C43.8615 8.364 42.6661 7.87131 41.1961 7.87131H37.8038V18.4359H41.1961ZM60.7961 9.51901H63.9219V21.6344H60.7961V20.2048C59.8593 21.384 58.5427 21.9736 56.8465 21.9736C55.2312 21.9736 53.8419 21.3598 52.6788 20.1321C51.5319 18.8883 50.9584 17.3698 50.9584 15.5767C50.9584 13.7836 51.5319 12.2733 52.6788 11.0455C53.8419 9.80173 55.2312 9.17977 56.8465 9.17977C58.5427 9.17977 59.8593 9.76936 60.7961 10.9486V9.51901ZM55.0292 18.0482C55.6592 18.6782 56.4588 18.9932 57.428 18.9932C58.3973 18.9932 59.1969 18.6782 59.8269 18.0482C60.4731 17.4021 60.7961 16.5782 60.7961 15.5767C60.7961 14.5752 60.4731 13.7594 59.8269 13.1294C59.1969 12.4832 58.3973 12.1602 57.428 12.1602C56.4588 12.1602 55.6592 12.4832 55.0292 13.1294C54.3992 13.7594 54.0842 14.5752 54.0842 15.5767C54.0842 16.5782 54.3992 17.4021 55.0292 18.0482ZM73.6864 12.5236H70.9483V17.5636C70.9483 17.9836 71.0533 18.2905 71.2633 18.4844C71.4732 18.6782 71.7802 18.7913 72.1841 18.8236C72.5879 18.8398 73.0887 18.8317 73.6864 18.7994V21.6344C71.5379 21.8767 70.0194 21.6748 69.131 21.0286C68.2587 20.3824 67.8225 19.2275 67.8225 17.5636V12.5236H65.7145V9.51901H67.8225V7.0717L70.9483 6.1267V9.51901H73.6864V12.5236ZM84.7193 9.51901H87.8447V21.6344H84.7193V20.2048C83.7824 21.384 82.4659 21.9736 80.7697 21.9736C79.1543 21.9736 77.7651 21.3598 76.602 20.1321C75.4551 18.8883 74.8816 17.3698 74.8816 15.5767C74.8816 13.7836 75.4551 12.2733 76.602 11.0455C77.7651 9.80173 79.1543 9.17977 80.7697 9.17977C82.4659 9.17977 83.7824 9.76936 84.7193 10.9486V9.51901ZM78.9524 18.0482C79.5824 18.6782 80.382 18.9932 81.3513 18.9932C82.3205 18.9932 83.1201 18.6782 83.7501 18.0482C84.3962 17.4021 84.7193 16.5782 84.7193 15.5767C84.7193 14.5752 84.3962 13.7594 83.7501 13.1294C83.1201 12.4832 82.3205 12.1602 81.3513 12.1602C80.382 12.1602 79.5824 12.4832 78.9524 13.1294C78.3224 13.7594 78.0074 14.5752 78.0074 15.5767C78.0074 16.5782 78.3224 17.4021 78.9524 18.0482ZM99.8631 4.67285H102.989V21.6344H99.8631V20.2048C98.9424 21.384 97.6339 21.9736 95.9378 21.9736C94.3056 21.9736 92.9089 21.3598 91.7458 20.1321C90.5983 18.8883 90.0254 17.3698 90.0254 15.5767C90.0254 13.7836 90.5983 12.2733 91.7458 11.0455C92.9089 9.80173 94.3056 9.17977 95.9378 9.17977C97.6339 9.17977 98.9424 9.76936 99.8631 10.9486V4.67285ZM94.0962 18.0482C94.7418 18.6782 95.5501 18.9932 96.5193 18.9932C97.4885 18.9932 98.2881 18.6782 98.9181 18.0482C99.5481 17.4021 99.8631 16.5782 99.8631 15.5767C99.8631 14.5752 99.5481 13.7594 98.9181 13.1294C98.2881 12.4832 97.4885 12.1602 96.5193 12.1602C95.5501 12.1602 94.7418 12.4832 94.0962 13.1294C93.4662 13.7594 93.1512 14.5752 93.1512 15.5767C93.1512 16.5782 93.4662 17.4021 94.0962 18.0482ZM108.488 16.8609C108.908 18.3794 110.047 19.1386 111.905 19.1386C113.1 19.1386 114.005 18.7347 114.619 17.9271L117.139 19.3809C115.944 21.1094 114.183 21.9736 111.856 21.9736C109.853 21.9736 108.246 21.3679 107.035 20.1563C105.823 18.9448 105.217 17.4182 105.217 15.5767C105.217 13.7513 105.815 12.2329 107.01 11.0213C108.205 9.79359 109.741 9.17977 111.614 9.17977C113.391 9.17977 114.853 9.79359 116 11.0213C117.163 12.249 117.745 13.7674 117.745 15.5767C117.745 15.9806 117.704 16.4086 117.623 16.8609H108.488ZM108.44 14.4379H114.619C114.441 13.614 114.069 13.0002 113.504 12.5963C112.955 12.1924 112.325 11.9905 111.614 11.9905C110.774 11.9905 110.08 12.2086 109.53 12.6448C108.981 13.0647 108.617 13.6625 108.44 14.4379ZM127.426 9.51901H130.866L126.263 21.6344H122.701L118.097 9.51901H121.538L124.469 17.9998L127.426 9.51901Z" fill="#9FA7BC"/>
<path opacity="0.6" d="M8.6537 25.096C12.9551 25.096 16.4422 21.609 16.4422 17.3075C16.4422 13.0061 12.9551 9.51904 8.6537 9.51904C4.35225 9.51904 0.865234 13.0061 0.865234 17.3075C0.865234 21.609 4.35225 25.096 8.6537 25.096Z" fill="#9FA7BC"/>
<path opacity="0.6" d="M7.78846 18.1731C12.0899 18.1731 15.5769 14.6861 15.5769 10.3847C15.5769 6.0832 12.0899 2.59619 7.78846 2.59619C3.48701 2.59619 0 6.0832 0 10.3847C0 14.6861 3.48701 18.1731 7.78846 18.1731Z" fill="#9FA7BC"/>
<path opacity="0.6" d="M14.7113 21.6345C19.0128 21.6345 22.4998 18.1475 22.4998 13.8461C22.4998 9.54463 19.0128 6.05762 14.7113 6.05762C10.4099 6.05762 6.92285 9.54463 6.92285 13.8461C6.92285 18.1475 10.4099 21.6345 14.7113 21.6345Z" fill="#9FA7BC"/>
</svg>
