<svg width="172" height="30" viewBox="0 0 172 30" fill="none" xmlns="http://www.w3.org/2000/svg">
<g clip-path="url(#clip0_48_1179)">
<path d="M98.9027 22.7491H100.848V14.1503H107.619V12.4098H100.848V7.92879H108.667V6.20478H98.9027V22.7491ZM35.6568 13.4192L33.9021 12.7117C32.4116 12.1103 31.6168 11.2966 31.6168 10.1386C31.6168 8.83914 32.7229 8.09388 33.855 8.09388C35.1521 8.09388 36.2134 9.108 36.428 10.7188H39.3619C38.8312 7.13636 36.4988 5.76611 33.9752 5.76611C31.0154 5.76611 28.8032 7.59389 28.8032 10.2471C28.8032 12.6268 30.3904 14.2871 32.6993 15.1762L34.454 15.8507C36.0672 16.4757 36.9327 17.3884 36.9327 18.5912C36.9327 19.8436 35.9705 20.7327 34.3384 20.7327C32.5366 20.7327 31.5083 19.4568 31.381 17.5818H28.4424C28.5391 20.4426 30.5838 23.0887 34.263 23.0887C37.4374 23.0887 39.7699 21.1643 39.7699 18.4474C39.7793 15.872 38.0388 14.3579 35.6568 13.4192ZM42.1095 8.92169H44.8264V6.20478H42.1095V8.92169ZM42.1095 22.7491H44.8264V12.4098H42.1095V22.7491ZM61.0193 12.0725C59.2882 12.0725 58.109 13.2258 57.4817 14.813H57.4322C57.0241 12.8414 55.6539 12.0725 54.187 12.0725C52.5762 12.0725 51.3969 13.0584 50.7955 14.7423H50.7484V12.4098H48.0338V22.7491H50.7531V18.445C50.7531 15.6786 51.5691 14.2847 53.1115 14.2847C54.194 14.2847 54.8662 15.03 54.8662 16.6432V22.7515H57.5855V18.445C57.5855 15.6786 58.3779 14.2847 59.9439 14.2847C61.0005 14.2847 61.675 15.03 61.675 16.6432V22.7515H64.3919V16.0889C64.3848 13.1551 62.7504 12.0725 61.0193 12.0725ZM73.4742 12.0725C71.6723 12.0725 70.5403 13.3225 70.0592 14.405H70.012V12.4098H67.2951V28.282H70.012V20.7539H70.0592C70.5309 21.8364 71.6723 23.0864 73.4742 23.0864C75.8562 23.0864 78.1651 21.0912 78.1651 17.5795C78.1651 14.0678 75.8633 12.0725 73.4742 12.0725ZM72.6346 20.9473C71.1676 20.9473 69.8681 19.7209 69.8681 17.5795C69.8681 15.438 71.1676 14.2116 72.6346 14.2116C74.1015 14.2116 75.4222 15.438 75.4222 17.5795C75.4222 19.7209 74.1015 20.9473 72.6346 20.9473ZM80.3608 22.7491H83.08V6.20478H80.3608V22.7491ZM90.7591 12.049C87.5139 12.049 85.2757 14.4286 85.2757 17.5559C85.2757 20.6832 87.5139 23.0864 90.7355 23.0864C93.2849 23.0864 95.2566 21.643 95.924 19.6242H93.2378C92.8534 20.4662 91.9855 20.9473 90.7591 20.9473C89.1247 20.9473 88.0658 19.695 87.9455 18.1573H96.0985C96.1457 14.1173 93.6222 12.049 90.7591 12.049ZM87.995 16.5087C88.2591 15.0654 89.2214 14.1031 90.7119 14.1031C92.1057 14.1031 93.1882 14.9946 93.3321 16.5087H87.995ZM110.501 22.7609H112.353V12.4098H110.501V22.7609ZM120.534 12.148C118.923 12.148 117.744 12.8956 116.997 14.6267H116.973V12.4098H115.122V22.7491H116.973V17.8436C116.973 15.0795 118.199 13.7329 119.93 13.7329C121.327 13.7329 122.143 14.622 122.143 16.3271V22.7491H123.994V16.0889C123.996 13.1551 122.242 12.1433 120.534 12.1433V12.148ZM134.043 14.313H134.02C133.609 13.5206 132.527 12.1244 130.605 12.1244C128.39 12.1244 125.888 14.0112 125.888 17.5842C125.888 21.1572 128.388 23.0439 130.605 23.0439C132.527 23.0439 133.609 21.6477 134.02 20.8553H134.043V22.7421H135.895V12.4098H134.043V14.313ZM131.013 21.4614C129.546 21.4614 127.765 20.4025 127.765 17.5889C127.765 14.7753 129.546 13.7164 131.013 13.7164C132.48 13.7164 134.234 14.7753 134.234 17.5889C134.234 20.4025 132.48 21.4614 131.013 21.4614ZM144.076 12.1527C142.465 12.1527 141.286 12.9004 140.538 14.6314H140.515V12.4098H138.663V22.7491H140.515V17.8436C140.515 15.0795 141.741 13.7329 143.472 13.7329C144.866 13.7329 145.684 14.622 145.684 16.3271V22.7491H147.536V16.0889C147.538 13.1551 145.784 12.1433 144.076 12.1433V12.1527ZM154.651 13.6692C155.369 13.6434 156.074 13.8593 156.654 14.2823C157.234 14.7052 157.655 15.3108 157.849 16.0017H159.677C159.123 13.7164 157.271 12.082 154.651 12.082C151.571 12.082 149.432 14.5347 149.432 17.5653C149.432 20.5959 151.569 23.0392 154.651 23.0392C157.271 23.0392 159.132 21.4025 159.677 19.1195H157.849C157.656 19.8122 157.236 20.4198 156.656 20.8447C156.076 21.2695 155.37 21.4867 154.651 21.4614C152.559 21.4614 151.307 19.6337 151.307 17.5653C151.307 15.497 152.559 13.6598 154.651 13.6598V13.6692ZM166.207 21.452C164.283 21.452 163.009 19.8648 162.906 17.9639H171.38C171.309 13.8767 168.856 12.0678 166.33 12.0678C163.156 12.0678 161.04 14.5206 161.04 17.5512C161.04 20.5817 163.163 23.0345 166.283 23.0345C168.663 23.0345 170.467 21.7114 171.139 19.8105H169.191C168.703 20.8506 167.691 21.4614 166.191 21.4614L166.207 21.452ZM166.231 13.6102C167.915 13.6102 169.189 14.7894 169.382 16.5205H162.979C163.267 14.7894 164.469 13.6102 166.224 13.6102H166.231ZM110.572 8.05614H112.419V6.20478H110.567L110.572 8.05614Z" fill="#9FA7BC"/>
<path d="M20.1694 17.5797V12.41C16.688 12.4095 13.3234 11.1548 10.6917 8.87568C8.05998 6.59656 6.33747 3.44562 5.83965 0L0.629883 0C1.14075 4.82603 3.4196 9.29225 7.02734 12.5381C10.6351 15.784 15.3164 17.5799 20.1694 17.5797Z" fill="#9FA7BC"/>
<path d="M0.629883 29.9897H5.83965C6.33747 26.544 8.05998 23.3931 10.6917 21.114C13.3234 18.8349 16.688 17.5801 20.1694 17.5796C16.7495 17.5812 13.3888 16.6867 10.4221 14.9854C7.71739 16.5311 5.41896 18.6977 3.71639 21.3065C2.01382 23.9153 0.955898 26.8915 0.629883 29.9897Z" fill="#9FA7BC"/>
</g>
<defs>
<clipPath id="clip0_48_1179">
<rect width="172" height="29.9897" fill="white"/>
</clipPath>
</defs>
</svg>
