<svg width="96" height="13" viewBox="0 0 96 13" fill="none" xmlns="http://www.w3.org/2000/svg">
<path d="M5.13868 12.3553L2.21652 2.81218H2.14181C2.24696 4.75352 2.29954 6.04868 2.29954 6.69764V12.3553H0V0.191361H3.50327L6.37562 9.49318H6.42543L9.47211 0.191361H12.9754V12.3553H10.5762V6.5978C10.5762 6.32601 10.579 6.01263 10.5845 5.65764C10.5956 5.30265 10.6343 4.35971 10.7007 2.82882H10.626L7.49633 12.3553H5.13868Z" fill="#9FA7BC"/>
<path d="M16.0387 12.3553V0.191361H18.6122V12.3553H16.0387Z" fill="#9FA7BC"/>
<path d="M26.2745 5.52452H31.0894V11.8311C30.3091 12.0863 29.573 12.2638 28.8812 12.3636C28.195 12.469 27.4921 12.5217 26.7726 12.5217C24.9407 12.5217 23.5405 11.9837 22.572 10.9076C21.609 9.82598 21.1275 8.27568 21.1275 6.25668C21.1275 4.29315 21.6865 2.76226 22.8045 1.66401C23.9279 0.565764 25.4831 0.0166401 27.47 0.0166401C28.7152 0.0166401 29.9162 0.266242 31.0728 0.765445L30.2178 2.82882C29.3323 2.38508 28.4108 2.16321 27.4534 2.16321C26.3409 2.16321 25.4499 2.53762 24.7802 3.28642C24.1106 4.03523 23.7757 5.04195 23.7757 6.3066C23.7757 7.62672 24.0442 8.63622 24.581 9.3351C25.1234 10.0284 25.9093 10.3751 26.9387 10.3751C27.4755 10.3751 28.0206 10.3196 28.5741 10.2087V7.67109H26.2745V5.52452Z" fill="#9FA7BC"/>
<path d="M39.1254 12.3553L36.2032 2.81218H36.1285C36.2337 4.75352 36.2862 6.04868 36.2862 6.69764V12.3553H33.9867V0.191361H37.49L40.3623 9.49318H40.4121L43.4588 0.191361H46.9621V12.3553H44.5629V6.5978C44.5629 6.32601 44.5657 6.01263 44.5712 5.65764C44.5823 5.30265 44.621 4.35971 44.6874 2.82882H44.6127L41.483 12.3553H39.1254Z" fill="#9FA7BC"/>
<path d="M61.0416 6.25668C61.0416 8.27013 60.5435 9.81766 59.5473 10.8993C58.5511 11.9809 57.1232 12.5217 55.2637 12.5217C53.4041 12.5217 51.9762 11.9809 50.9801 10.8993C49.9839 9.81766 49.4858 8.26459 49.4858 6.24004C49.4858 4.21549 49.9839 2.67074 50.9801 1.60577C51.9818 0.535257 53.4152 0 55.2803 0C57.1454 0 58.5705 0.53803 59.5556 1.61409C60.5462 2.69015 61.0416 4.23768 61.0416 6.25668ZM52.1838 6.25668C52.1838 7.61562 52.4411 8.63899 52.9558 9.32678C53.4705 10.0146 54.2398 10.3585 55.2637 10.3585C57.3169 10.3585 58.3436 8.99121 58.3436 6.25668C58.3436 3.51661 57.3225 2.14657 55.2803 2.14657C54.2564 2.14657 53.4844 2.49324 52.9641 3.18658C52.4439 3.87437 52.1838 4.89774 52.1838 6.25668Z" fill="#9FA7BC"/>
<path d="M74.3241 12.3553H71.0533L65.7735 3.1533H65.6988C65.8039 4.77848 65.8565 5.93775 65.8565 6.63108V12.3553H63.557V0.191361H66.8029L72.0744 9.30182H72.1325C72.0495 7.72101 72.008 6.60335 72.008 5.94884V0.191361H74.3241V12.3553Z" fill="#9FA7BC"/>
<path d="M84.3773 12.3553H77.3874V0.191361H84.3773V2.30466H79.9609V4.97539H84.0702V7.08869H79.9609V10.2253H84.3773V12.3553Z" fill="#9FA7BC"/>
<path d="M90.6949 5.20003L93.2268 0.191361H95.9996L91.9733 7.62117V12.3553H89.4164V7.70437L85.3901 0.191361H88.1795L90.6949 5.20003Z" fill="#9FA7BC"/>
</svg>
