<svg width="57" height="53" viewBox="0 0 57 53" fill="none" xmlns="http://www.w3.org/2000/svg">
<g clip-path="url(#clip0_9569_17295)">
<path d="M10.5758 40.4334C12.5957 40.4334 14.24 41.9933 14.24 43.9145C14.24 45.8358 12.5957 47.3957 10.5758 47.3957C8.55597 47.3957 6.91167 45.8358 6.91167 43.9145C6.91167 41.9979 8.55597 40.4334 10.5758 40.4334ZM10.5758 38.6709C7.53916 38.6709 5.07959 41.0195 5.07959 43.9145C5.07959 46.8095 7.53916 49.1582 10.5758 49.1582C13.6125 49.1582 16.0721 46.8095 16.0721 43.9145C16.0721 41.0195 13.6125 38.6709 10.5758 38.6709Z" fill="#4563FF"/>
<path d="M19.2793 52.8767H37.6001V0H19.2793V52.8767ZM28.4397 49.3514C25.403 49.3514 22.9435 46.9852 22.9435 44.064C22.9435 41.1425 25.403 38.7762 28.4397 38.7762C31.4764 38.7762 33.936 41.1425 33.936 44.064C33.936 46.9852 31.4764 49.3514 28.4397 49.3514Z" fill="#4563FF"/>
<path d="M51.3403 0H37.5996V52.8767H51.3403C53.8686 52.8767 55.9204 50.9026 55.9204 48.4702V4.4064C55.9204 1.97406 53.8686 0 51.3403 0ZM46.76 49.3514C43.7233 49.3514 41.2637 46.9852 41.2637 44.064C41.2637 41.1425 43.7233 38.7762 46.76 38.7762C49.7967 38.7762 52.2563 41.1425 52.2563 44.064C52.2563 46.9852 49.7967 49.3514 46.76 49.3514Z" fill="#FF0029"/>
<path d="M20.1949 1.76255V51.1142H5.08022C3.56417 51.1142 2.33209 49.9286 2.33209 48.4702V4.4064C2.33209 2.94786 3.56417 1.76255 5.08022 1.76255H20.1949ZM22.027 0H5.08022C2.55194 0 0.5 1.97406 0.5 4.4064V48.4702C0.5 50.9026 2.55194 52.8767 5.08022 52.8767H22.027V0Z" fill="#4563FF"/>
</g>
<defs>
<clipPath id="clip0_9569_17295">
<rect width="56" height="53" fill="white" transform="translate(0.5)"/>
</clipPath>
</defs>
</svg>
