<svg width="28" height="28" viewBox="0 0 28 28" fill="none" xmlns="http://www.w3.org/2000/svg">
<path d="M14 18.375C16.4162 18.375 18.375 16.4162 18.375 14C18.375 11.5838 16.4162 9.625 14 9.625C11.5838 9.625 9.625 11.5838 9.625 14C9.625 16.4162 11.5838 18.375 14 18.375Z" stroke="#E74951" stroke-width="1.6" stroke-linecap="round" stroke-linejoin="round"/>
<path d="M24.045 19.9981L14.42 25.2678C14.2912 25.3382 14.1468 25.3752 14 25.3752C13.8532 25.3752 13.7088 25.3382 13.58 25.2678L3.955 19.9981C3.81756 19.9229 3.70284 19.8122 3.6228 19.6775C3.54277 19.5428 3.50036 19.3891 3.5 19.2325V8.76966C3.50036 8.61299 3.54277 8.4593 3.6228 8.32462C3.70284 8.18995 3.81756 8.07923 3.955 8.00403L13.58 2.73434C13.7088 2.66388 13.8532 2.62695 14 2.62695C14.1468 2.62695 14.2912 2.66388 14.42 2.73434L24.045 8.00403C24.1824 8.07923 24.2972 8.18995 24.3772 8.32462C24.4572 8.4593 24.4996 8.61299 24.5 8.76966V19.2303C24.5 19.3873 24.4578 19.5415 24.3778 19.6766C24.2977 19.8117 24.1828 19.9227 24.045 19.9981Z" stroke="#E74951" stroke-width="1.6" stroke-linecap="round" stroke-linejoin="round"/>
</svg>
