<svg width="100" height="33" viewBox="0 0 100 33" fill="none" xmlns="http://www.w3.org/2000/svg">
<g clip-path="url(#clip0_48_739)">
<path fill-rule="evenodd" clip-rule="evenodd" d="M0.278699 9.27911C-0.293904 8.29541 0.0437853 7.01806 1.04217 6.44546C2.04056 5.87285 3.30322 6.22522 3.87582 7.22361L5.50554 10.0426V2.08486C5.50554 0.939656 6.44519 0 7.5904 0C8.75029 0 9.67526 0.939656 9.67526 2.08486V6.56291C9.01457 6.9887 8.39792 7.48789 7.82531 8.06049C5.75513 10.1307 4.60993 12.9056 4.60993 15.8273C4.60993 16.1797 4.62461 16.5321 4.65397 16.8698L0.278699 9.27911Z" fill="#9FA7BC"/>
<path fill-rule="evenodd" clip-rule="evenodd" d="M21.1128 12.5092C22.9481 12.5092 24.431 13.992 24.431 15.8273C24.431 17.6626 22.9481 19.1308 21.1128 19.1308C19.2922 19.1308 17.8093 17.6626 17.8093 15.8273C17.8093 13.992 19.2922 12.5092 21.1128 12.5092Z" fill="#9FA7BC"/>
<path fill-rule="evenodd" clip-rule="evenodd" d="M21.2892 7.50258C22.2288 8.14859 22.4784 9.44062 21.8324 10.395C21.1864 11.3346 19.8797 11.5842 18.94 10.9382C18.4555 10.6005 17.9123 10.3362 17.3543 10.1747C16.8111 9.99854 16.2238 9.91045 15.5925 9.91045C13.9628 9.91045 12.4799 10.5711 11.4081 11.6429C10.3363 12.7147 9.67559 14.1976 9.67559 15.8273C9.67559 17.4571 10.3363 18.94 11.4081 20.0118C12.4799 21.0836 13.9628 21.7442 15.5925 21.7442C16.2238 21.7442 16.8111 21.6562 17.3543 21.48C17.9123 21.3185 18.4555 21.0542 18.94 20.7165C19.8797 20.0705 21.1864 20.3201 21.8324 21.2597C22.4784 22.2141 22.2288 23.5061 21.2892 24.1521C20.467 24.71 19.5567 25.1652 18.573 25.4588C17.6186 25.7525 16.6202 25.914 15.5925 25.914C15.431 25.914 15.2695 25.914 15.108 25.8993V27.9401C15.108 29.0706 14.139 29.6873 13.0378 30.0103L7.57604 31.6106C6.48956 31.9336 5.50586 31.3904 5.50586 30.2599V15.8273V15.3575C5.50586 15.2841 5.52054 15.196 5.53522 15.1079C5.71141 12.612 6.79789 10.3656 8.45697 8.69183C10.2922 6.87125 12.8176 5.74072 15.5925 5.74072C16.6202 5.74072 17.6186 5.90223 18.573 6.19587C19.5567 6.48951 20.467 6.94466 21.2892 7.50258Z" fill="#9FA7BC"/>
<path fill-rule="evenodd" clip-rule="evenodd" d="M40.1703 20.3788C40.1703 20.6725 40.0528 20.9221 39.8179 21.1423C39.583 21.3479 39.304 21.4506 38.9957 21.4506C38.658 21.4506 38.379 21.3479 38.1441 21.1423C37.8945 20.9221 37.7771 20.6725 37.7771 20.3788V14.5207L35.839 18.338C35.7216 18.5583 35.5748 18.7198 35.3692 18.8225C35.1637 18.9253 34.9581 18.984 34.7085 18.984C34.4883 18.984 34.268 18.9253 34.0772 18.8225C33.8716 18.7198 33.7101 18.5583 33.6073 18.338L31.6546 14.5207V20.3788C31.6546 20.6725 31.5372 20.9221 31.2876 21.1423C31.0527 21.3479 30.759 21.4506 30.436 21.4506C30.0983 21.4506 29.8194 21.3479 29.5991 21.1423C29.3789 20.9221 29.2761 20.6725 29.2761 20.3788V10.2482C29.2761 9.92516 29.3936 9.6462 29.6285 9.44065C29.8487 9.2351 30.1424 9.13232 30.4947 9.13232C31.0673 9.13232 31.4638 9.35256 31.6987 9.79302L34.7232 15.8127L37.7624 9.77834C37.8945 9.52874 38.056 9.35256 38.2616 9.26446C38.4818 9.17637 38.7021 9.13232 38.937 9.13232C39.2893 9.13232 39.583 9.2351 39.8179 9.45533C40.0528 9.67556 40.1703 9.93984 40.1703 10.2482V20.3788ZM45.1916 21.4213C44.5896 21.4213 44.061 21.3332 43.5912 21.1717C43.1361 21.0102 42.7543 20.7899 42.4313 20.4963C42.123 20.2173 41.8881 19.8796 41.7266 19.4979C41.5651 19.1015 41.4917 18.6904 41.4917 18.2499V15.7099C41.4917 15.2695 41.5651 14.8437 41.7266 14.4619C41.8881 14.0802 42.123 13.7425 42.4313 13.4636C42.7543 13.1699 43.1361 12.9497 43.5912 12.7882C44.061 12.612 44.5896 12.5386 45.1916 12.5386C45.7935 12.5386 46.3221 12.612 46.7919 12.7882C47.2471 12.9497 47.6288 13.1699 47.9518 13.4636C48.2601 13.7425 48.495 14.0802 48.6565 14.4619C48.818 14.8437 48.8914 15.2695 48.8914 15.7099V18.2499C48.8914 18.6904 48.818 19.1015 48.6565 19.4979C48.495 19.8796 48.2601 20.2173 47.9518 20.4963C47.6288 20.7899 47.2471 21.0102 46.7919 21.1717C46.3221 21.3332 45.7935 21.4213 45.1916 21.4213ZM45.1916 19.4098C45.632 19.4098 45.9697 19.307 46.2046 19.1015C46.4249 18.8959 46.5423 18.617 46.5423 18.2499V15.6952C46.5423 15.3429 46.4249 15.0639 46.2046 14.8584C45.9697 14.6528 45.632 14.55 45.1916 14.55C44.7511 14.55 44.4134 14.6528 44.1932 14.8584C43.9583 15.0639 43.8408 15.3429 43.8408 15.6952V18.2499C43.8408 18.617 43.9583 18.8959 44.1932 19.1015C44.4134 19.307 44.7511 19.4098 45.1916 19.4098ZM52.6794 20.3642C52.6794 20.6578 52.5767 20.9074 52.3858 21.0983C52.1949 21.3038 51.8866 21.4066 51.4902 21.4066C51.0938 21.4066 50.8001 21.3038 50.6093 21.0983C50.4184 20.9074 50.3156 20.6578 50.3156 20.3642V15.196C50.3156 14.9171 50.3009 14.7409 50.2716 14.6675C50.2422 14.5941 50.2128 14.5353 50.1835 14.4766C50.0513 14.3151 49.9779 14.1977 49.9486 14.1096C49.9045 14.0215 49.8898 13.9334 49.8898 13.8159C49.8898 13.537 50.0073 13.2874 50.2128 13.1112C50.4331 12.9203 50.712 12.8322 51.035 12.8322C51.3727 12.8322 51.6811 12.9937 51.9453 13.3167C52.3271 13.0525 52.7088 12.8763 53.1052 12.7588C53.487 12.6414 53.854 12.5826 54.1917 12.5826C55.2635 12.5826 56.071 12.8909 56.6143 13.4929C57.1428 14.1096 57.4071 14.9171 57.4071 15.9155V20.3642C57.4071 20.6578 57.3043 20.9074 57.0988 21.0983C56.9079 21.3038 56.6142 21.4066 56.2325 21.4066C55.8655 21.4066 55.5718 21.3038 55.3663 21.0983C55.1607 20.9074 55.0579 20.6578 55.0579 20.3642V15.9155C55.0579 15.475 54.9552 15.1373 54.7643 14.9024C54.5588 14.6528 54.2945 14.5353 53.9568 14.5353C53.6044 14.5353 53.1639 14.6528 52.6354 14.8877C52.6501 14.9464 52.6648 15.0052 52.6648 15.0492C52.6648 15.108 52.6794 15.152 52.6794 15.2107V20.3642ZM62.3109 18.0444C62.0907 18.0444 61.8704 18.0297 61.6796 18.015C61.474 18.0003 61.2538 17.971 61.0042 17.9416V18.4995C61.0042 18.7932 61.1217 19.0281 61.3419 19.2043C61.5621 19.3805 61.8998 19.4539 62.3696 19.4539C62.6339 19.4539 62.8982 19.4245 63.1331 19.3658C63.368 19.307 63.6323 19.2043 63.8966 19.0868C63.9406 19.0574 63.9994 19.0428 64.0728 19.0134C64.1462 18.9987 64.2636 18.984 64.4105 18.984C64.616 18.984 64.7922 19.0134 64.9243 19.0721C65.0565 19.1309 65.1739 19.2189 65.2473 19.307C65.3354 19.3951 65.3795 19.4979 65.4235 19.6007C65.4529 19.7181 65.4676 19.8209 65.4676 19.9237C65.4676 20.2173 65.3501 20.4522 65.1152 20.6578C64.8803 20.8487 64.5866 20.9955 64.249 21.1129C63.8966 21.2304 63.5442 21.3038 63.1772 21.3479C62.7954 21.3919 62.4724 21.4213 62.1935 21.4213C61.6355 21.4213 61.1217 21.3479 60.6959 21.1864C60.2554 21.0395 59.8884 20.8193 59.58 20.555C59.2864 20.2907 59.0515 19.9824 58.89 19.6154C58.7285 19.2483 58.6551 18.8519 58.6551 18.4408V15.5925C58.6551 15.152 58.7285 14.7556 58.8753 14.3885C59.0368 14.0215 59.2717 13.6985 59.5654 13.4195C59.8737 13.1552 60.2554 12.935 60.7106 12.7882C61.1657 12.6267 61.6943 12.5533 62.2816 12.5533C63.4121 12.5533 64.249 12.8175 64.7922 13.3608C65.3501 13.8893 65.6291 14.5941 65.6291 15.4456C65.6291 16.2678 65.3648 16.8992 64.8362 17.3543C64.3224 17.8095 63.4708 18.0444 62.3109 18.0444ZM63.2946 15.3282C63.2946 14.9905 63.2065 14.7409 63.0303 14.5941C62.8542 14.4473 62.5899 14.3738 62.2669 14.3738C61.8558 14.3738 61.5474 14.4766 61.3272 14.6822C61.107 14.873 61.0042 15.1373 61.0042 15.4897V16.2238C61.2832 16.2385 61.5328 16.2532 61.753 16.2678C61.9879 16.2825 62.1347 16.2825 62.2375 16.2825C62.5605 16.2825 62.8248 16.2238 63.001 16.077C63.1918 15.9448 63.2946 15.6952 63.2946 15.3282ZM71.6341 13.3167C71.7222 13.0671 71.869 12.8909 72.0745 12.7735C72.2948 12.656 72.515 12.5973 72.7499 12.5973C73.0436 12.5973 73.3078 12.7001 73.5574 12.8909C73.807 13.0818 73.9245 13.3314 73.9245 13.6397C73.9245 13.7719 73.9098 13.8747 73.8658 13.9481L71.7956 20.0265C71.546 20.7165 71.3257 21.3479 71.1055 21.9351C70.8853 22.5077 70.621 23.0069 70.3127 23.4327C70.019 23.8585 69.652 24.1815 69.2262 24.4164C68.8004 24.6513 68.2572 24.7688 67.6112 24.7688C67.2735 24.7688 66.9945 24.666 66.7596 24.4752C66.5394 24.2843 66.4219 24.0347 66.4219 23.741C66.4219 23.4768 66.5247 23.2419 66.7156 23.051C66.9211 22.8454 67.2001 22.7427 67.5524 22.7133C67.9195 22.6986 68.2131 22.5371 68.448 22.2435C68.6683 21.9498 68.8738 21.48 69.0794 20.8046L66.4513 14.0362C66.4219 13.9481 66.3926 13.86 66.3926 13.8012C66.3779 13.7278 66.3632 13.6691 66.3632 13.6104C66.3632 13.3167 66.4806 13.0671 66.7156 12.8909C66.9358 12.7001 67.2147 12.5973 67.5524 12.5973C67.7727 12.5973 67.9929 12.6707 68.1838 12.7882C68.3893 12.9056 68.5361 13.0818 68.6242 13.3167L69.696 16.1797C69.8135 16.4881 69.9163 16.8111 69.9897 17.1635C70.0631 17.5011 70.1512 17.8241 70.2393 18.1472C70.3127 17.8241 70.4008 17.5011 70.4595 17.1635C70.5329 16.8111 70.621 16.4881 70.7238 16.1797L71.6341 13.3167ZM83.3798 16.6789C83.3798 17.2809 83.2917 17.8682 83.1155 18.4114C82.9393 18.9694 82.6457 19.4685 82.2346 19.8943C81.8235 20.3201 81.2949 20.6578 80.6342 20.9221C79.9735 21.1717 79.166 21.3038 78.197 21.3038H76.2736C76.0828 21.3038 75.9212 21.2598 75.7597 21.201C75.5982 21.1276 75.4661 21.0395 75.334 20.9368C75.2165 20.8193 75.1284 20.7018 75.055 20.555C74.9816 20.4082 74.9375 20.2467 74.9375 20.0705V10.4831C74.9375 10.3216 74.9816 10.1601 75.055 10.0133C75.1284 9.86643 75.2165 9.73429 75.334 9.63152C75.4661 9.51406 75.5982 9.42597 75.7597 9.36724C75.9212 9.29383 76.0828 9.26446 76.2736 9.26446H78.197C79.166 9.26446 79.9735 9.38192 80.6342 9.63152C81.2949 9.86643 81.8235 10.2041 82.2346 10.6152C82.6457 11.0263 82.9393 11.5108 83.1155 12.0541C83.2917 12.5826 83.3798 13.1552 83.3798 13.7425V16.6789ZM80.9866 13.7425C80.9866 13.4342 80.9425 13.1259 80.8544 12.8469C80.7664 12.5533 80.6195 12.3037 80.4287 12.0981C80.2378 11.8926 79.9735 11.7311 79.6505 11.5989C79.3275 11.4815 78.9458 11.4227 78.4906 11.4227H77.3307V19.1309H78.4906C78.9458 19.1309 79.3422 19.0721 79.6652 18.94C79.9882 18.8078 80.2378 18.6317 80.4433 18.4114C80.6342 18.1912 80.781 17.9269 80.8691 17.6333C80.9572 17.3396 80.9866 17.0166 80.9866 16.6789V13.7425ZM91.4256 19.2483C91.4256 19.3805 91.4403 19.4685 91.4696 19.542C91.499 19.6154 91.5284 19.6594 91.5871 19.7035C91.6311 19.7328 91.6899 19.7475 91.7633 19.7622C91.8367 19.7769 91.8954 19.8062 91.9688 19.8356C92.2331 19.9384 92.3652 20.1586 92.3652 20.4816C92.3652 20.7606 92.2771 20.9661 92.0863 21.1276C91.9101 21.2891 91.5871 21.3625 91.1319 21.3625C90.8089 21.3625 90.5447 21.3185 90.3097 21.2157C90.0895 21.1129 89.884 20.9221 89.6784 20.6578C89.3701 20.9074 89.0177 21.1129 88.6507 21.2304C88.2836 21.3625 87.8578 21.4213 87.388 21.4213C86.3749 21.4213 85.6261 21.1717 85.1123 20.6872C84.5984 20.2027 84.3488 19.542 84.3488 18.7198V18.6757C84.3488 16.9285 85.4646 16.0623 87.7257 16.0623C87.9459 16.0623 88.1808 16.077 88.4011 16.1063C88.6213 16.121 88.8415 16.1651 89.0764 16.2385V15.6952C89.0764 14.9024 88.636 14.5207 87.7697 14.5207C87.5348 14.5207 87.3293 14.5353 87.1678 14.5941C87.0063 14.6381 86.8301 14.7115 86.6686 14.7849C86.5952 14.8143 86.5071 14.8437 86.4043 14.8877C86.3015 14.9318 86.1694 14.9611 86.0226 14.9611C85.8317 14.9611 85.6849 14.9318 85.5527 14.8584C85.4353 14.7996 85.3325 14.7262 85.2444 14.6234C85.171 14.5207 85.1123 14.4179 85.0829 14.3004C85.0389 14.183 85.0242 14.0655 85.0242 13.9627C85.0242 13.7131 85.1123 13.5076 85.2885 13.3167C85.45 13.1405 85.6849 12.9937 85.9638 12.8763C86.2428 12.7588 86.5511 12.6854 86.8888 12.6267C87.2412 12.5826 87.5935 12.5533 87.9459 12.5533C89.1792 12.5533 90.0748 12.8469 90.6181 13.4489C91.1466 14.0508 91.4256 14.9171 91.4256 16.077V19.2483ZM87.8578 17.7214C87.6082 17.7214 87.4027 17.7507 87.2559 17.7948C87.0944 17.8535 86.9769 17.9122 86.8888 18.015C86.8154 18.1031 86.7567 18.2059 86.7273 18.3233C86.6979 18.4408 86.6833 18.5729 86.6833 18.6904V18.7491C86.6833 19.0281 86.7713 19.2336 86.9328 19.3511C87.109 19.4685 87.3733 19.5273 87.7404 19.5273C87.9606 19.5273 88.1955 19.4979 88.4011 19.4392C88.6213 19.3658 88.8415 19.2483 89.0764 19.0868V17.8535C88.6213 17.7654 88.2102 17.7214 87.8578 17.7214ZM97.7095 13.3167C97.7829 13.0671 97.9298 12.8909 98.15 12.7735C98.3702 12.656 98.5905 12.5973 98.8107 12.5973C99.119 12.5973 99.3833 12.7001 99.6329 12.8909C99.8678 13.0818 99.9999 13.3314 99.9999 13.6397C99.9999 13.7719 99.9706 13.8747 99.9412 13.9481L97.8564 20.0265C97.6214 20.7165 97.3865 21.3479 97.1663 21.9351C96.9461 22.5077 96.6818 23.0069 96.3881 23.4327C96.0798 23.8585 95.7274 24.1815 95.3017 24.4164C94.8759 24.6513 94.3326 24.7688 93.6866 24.7688C93.3489 24.7688 93.0553 24.666 92.8351 24.4752C92.6002 24.2843 92.4974 24.0347 92.4974 23.741C92.4974 23.4768 92.5855 23.2419 92.791 23.051C92.9819 22.8454 93.2608 22.7427 93.6132 22.7133C93.995 22.6986 94.2886 22.5371 94.5088 22.2435C94.7291 21.9498 94.9493 21.48 95.1548 20.8046L92.5267 14.0362C92.4974 13.9481 92.468 13.86 92.4533 13.8012C92.4386 13.7278 92.4386 13.6691 92.4386 13.6104C92.4386 13.3167 92.5561 13.0671 92.7763 12.8909C93.0113 12.7001 93.2902 12.5973 93.6132 12.5973C93.8481 12.5973 94.0537 12.6707 94.2592 12.7882C94.4501 12.9056 94.5969 13.0818 94.685 13.3167L95.7715 16.1797C95.889 16.4881 95.9917 16.8111 96.0651 17.1635C96.1385 17.5011 96.2266 17.8241 96.3147 18.1472C96.3881 17.8241 96.4615 17.5011 96.535 17.1635C96.5937 16.8111 96.6818 16.4881 96.7846 16.1797L97.7095 13.3167Z" fill="#9FA7BC"/>
</g>
<defs>
<clipPath id="clip0_48_739">
<rect width="100" height="32.1098" fill="white"/>
</clipPath>
</defs>
</svg>
