<svg width="28" height="28" viewBox="0 0 28 28" fill="none" xmlns="http://www.w3.org/2000/svg">
<path d="M16.6249 22.575C15.0438 21.769 13.7163 20.5415 12.7892 19.0282C11.8621 17.5149 11.3714 15.7747 11.3714 14C11.3714 12.2253 11.8621 10.4851 12.7892 8.97183C13.7163 7.45854 15.0438 6.23104 16.6249 5.425C15.1576 4.67696 13.5228 4.31796 11.8771 4.38236C10.2313 4.44676 8.62965 4.93239 7.22525 5.7928C5.82085 6.65321 4.66074 7.85961 3.8559 9.29657C3.05106 10.7335 2.62842 12.353 2.62842 14C2.62842 15.647 3.05106 17.2665 3.8559 18.7034C4.66074 20.1404 5.82085 21.3468 7.22525 22.2072C8.62965 23.0676 10.2313 23.5532 11.8771 23.6176C13.5228 23.682 15.1576 23.323 16.6249 22.575Z" stroke="white" stroke-width="1.6" stroke-linecap="round" stroke-linejoin="round"/>
<path d="M19.4097 14L17.5 10.7548L21.0645 11.6375L23.4489 8.75L23.7409 12.5398L27.125 14L23.7409 15.4602L23.4489 19.25L21.0645 16.3625L17.5 17.2452L19.4097 14Z" stroke="white" stroke-width="1.6" stroke-linecap="round" stroke-linejoin="round"/>
</svg>
