<svg width="28" height="28" viewBox="0 0 28 28" fill="none" xmlns="http://www.w3.org/2000/svg">
<path d="M16.6254 22.575C15.0443 21.769 13.7168 20.5415 12.7897 19.0282C11.8626 17.5149 11.3719 15.7747 11.3719 14C11.3719 12.2253 11.8626 10.4851 12.7897 8.97183C13.7168 7.45854 15.0443 6.23104 16.6254 5.425C15.1581 4.67696 13.5233 4.31796 11.8776 4.38236C10.2318 4.44676 8.63014 4.93239 7.22574 5.7928C5.82134 6.65321 4.66122 7.85961 3.85638 9.29657C3.05154 10.7335 2.62891 12.353 2.62891 14C2.62891 15.647 3.05154 17.2665 3.85638 18.7034C4.66122 20.1404 5.82134 21.3468 7.22574 22.2072C8.63014 23.0676 10.2318 23.5532 11.8776 23.6176C13.5233 23.682 15.1581 23.323 16.6254 22.575Z" stroke="#00CB82" stroke-width="1.6" stroke-linecap="round" stroke-linejoin="round"/>
<path d="M19.4097 14L17.5 10.7548L21.0645 11.6375L23.4489 8.75L23.7409 12.5398L27.125 14L23.7409 15.4602L23.4489 19.25L21.0645 16.3625L17.5 17.2452L19.4097 14Z" stroke="#00CB82" stroke-width="1.6" stroke-linecap="round" stroke-linejoin="round"/>
</svg>
