<svg width="329" height="66" viewBox="0 0 329 66" fill="none" xmlns="http://www.w3.org/2000/svg">
<path d="M0.246945 59.3598L24.7234 53.1256C29.1831 51.9896 33.916 52.8281 37.7141 55.427L46.9091 61.7187C53.991 66.5645 63.6343 64.9642 68.7713 58.0906L78.6249 44.9058C82.3248 39.9552 88.544 37.5767 94.6031 38.795L123.082 44.5216C128.474 45.6058 133.895 42.7984 136.121 37.7694L140.075 28.8355C142.413 23.5523 149.804 23.2668 152.543 28.3538V28.3538C155.376 33.6154 163.09 33.0811 165.171 27.4791L171.373 10.7801C176.263 -2.38534 194.943 -2.21709 199.596 11.0343L213.169 49.699C215.05 55.0563 222.63 55.0476 224.498 49.686V49.686C226.389 44.2592 234.091 44.3384 235.871 49.8029L237.582 55.0591C239.866 62.0732 249.68 62.3662 252.378 55.5009L262.421 29.9462C265.432 22.2846 275.8 21.1399 280.41 27.9602V27.9602C283.668 32.7804 290.285 33.9149 294.963 30.4551L328.405 5.71819" stroke="url(#paint0_linear_9018_4609)" stroke-width="2"/>
<defs>
<linearGradient id="paint0_linear_9018_4609" x1="0.246945" y1="43.5681" x2="328.405" y2="43.5681" gradientUnits="userSpaceOnUse">
<stop stop-color="white"/>
<stop offset="0.269231" stop-color="#00CB82"/>
<stop offset="0.692308" stop-color="#00CB82"/>
<stop offset="1" stop-color="white"/>
</linearGradient>
</defs>
</svg>
