<svg width="28" height="17" viewBox="0 0 28 17" fill="none" xmlns="http://www.w3.org/2000/svg">
<path d="M13.33 16.4329H14.9584C14.9584 16.4329 15.4502 16.3771 15.7017 16.0986C15.9328 15.8426 15.9254 15.3622 15.9254 15.3622C15.9254 15.3622 15.8935 13.1129 16.9075 12.7817C17.9075 12.4552 19.1912 14.9556 20.5518 15.9171C21.5807 16.6444 22.3626 16.4852 22.3626 16.4852L26.001 16.4329C26.001 16.4329 27.9042 16.312 27.0017 14.7716C26.9278 14.6458 26.476 13.6321 24.2964 11.5495C22.0148 9.36971 22.3207 9.72236 25.0688 5.95184C26.7424 3.65563 27.4114 2.25384 27.2023 1.65351C27.0031 1.08153 25.7721 1.23261 25.7721 1.23261L21.6756 1.25869C21.6756 1.25869 21.3717 1.21609 21.1466 1.35474C20.9264 1.49036 20.7851 1.80719 20.7851 1.80719C20.7851 1.80719 20.1365 3.58396 19.2721 5.09521C17.448 8.28372 16.7185 8.45251 16.4203 8.25423C15.7266 7.79272 15.8999 6.40062 15.8999 5.41136C15.8999 2.3212 16.3552 1.03283 15.0132 0.699259C14.568 0.588654 14.24 0.515486 13.1011 0.503534C11.6394 0.488251 10.4024 0.508144 9.70191 0.861432C9.23585 1.09639 8.87627 1.61983 9.09539 1.64997C9.36618 1.68707 9.97921 1.8203 10.3043 2.27557C10.7242 2.86364 10.7095 4.18386 10.7095 4.18386C10.7095 4.18386 10.9508 7.82145 10.1462 8.27318C9.59405 8.5831 8.8365 7.95041 7.21019 5.0576C6.37704 3.57581 5.7478 1.93773 5.7478 1.93773C5.7478 1.93773 5.62663 1.63166 5.4102 1.46782C5.14771 1.26932 4.78092 1.2064 4.78092 1.2064L0.888011 1.23256C0.888011 1.23256 0.303719 1.24938 0.0890362 1.51093C-0.101968 1.7438 0.0737758 2.22489 0.0737758 2.22489C0.0737758 2.22489 3.1213 9.5648 6.57236 13.2637C9.73703 16.6555 13.33 16.4329 13.33 16.4329Z" fill="#3573FC"/>
</svg>
