<svg width="64" height="64" viewBox="0 0 64 64" fill="none" xmlns="http://www.w3.org/2000/svg">
<rect width="64" height="64" rx="32" fill="#725DD6" fill-opacity="0.08"/>
<path d="M32 37V44" stroke="#725DD6" stroke-width="1.6" stroke-linecap="round" stroke-linejoin="round"/>
<path d="M21.6077 26C20.2869 28.2876 19.7579 30.9472 20.1027 33.5661C20.4474 36.1851 21.6467 38.6171 23.5145 40.485C25.3823 42.3529 27.8142 43.5524 30.4332 43.8973C33.0521 44.2422 35.7117 43.7133 37.9994 42.3927C40.2871 41.072 42.0752 39.0334 43.0862 36.593C44.0973 34.1526 44.2749 31.4468 43.5914 28.8952C42.908 26.3436 41.4017 24.0888 39.3062 22.4805C37.2106 20.8722 34.643 20.0003 32.0015 20V27C33.1021 27.0002 34.1719 27.3636 35.0449 28.0338C35.918 28.704 36.5455 29.6436 36.8302 30.7067C37.1149 31.7699 37.0408 32.8973 36.6195 33.9141C36.1981 34.9309 35.4531 35.7802 34.4999 36.3304C33.5466 36.8806 32.4385 37.1009 31.3473 36.9572C30.2561 36.8134 29.2428 36.3136 28.4646 35.5353C27.6864 34.757 27.1867 33.7437 27.0431 32.6525C26.8995 31.5613 27.1199 30.4532 27.6702 29.5L21.6077 26Z" stroke="#725DD6" stroke-width="1.6" stroke-linecap="round" stroke-linejoin="round"/>
<path d="M27.1687 33.295L20.4062 35.1063" stroke="#725DD6" stroke-width="1.6" stroke-linecap="round" stroke-linejoin="round"/>
</svg>
