<svg width="44" height="44" viewBox="0 0 44 44" fill="none" xmlns="http://www.w3.org/2000/svg">
<rect width="44" height="44" rx="22" fill="#3573FC" fill-opacity="0.08"/>
<path d="M28.75 24.25L25 28L19 26.5L13.75 22.75" stroke="#3573FC" stroke-width="1.6" stroke-linecap="round" strokeLinejoin="round"/>
<path d="M16.8125 16.6216L21.9987 15.25L27.185 16.6216" stroke="#3573FC" stroke-width="1.6" stroke-linecap="round" strokeLinejoin="round"/>
<path d="M13.2217 15.6643L10.8292 20.4511C10.7403 20.6289 10.7256 20.8348 10.7884 21.0234C10.8511 21.212 10.9862 21.368 11.1639 21.4571L13.7495 22.7499L16.8133 16.6215L14.2286 15.3296C14.1405 15.2854 14.0446 15.259 13.9463 15.2519C13.848 15.2449 13.7493 15.2572 13.6558 15.2883C13.5623 15.3194 13.4758 15.3686 13.4013 15.4331C13.3269 15.4976 13.2658 15.5762 13.2217 15.6643Z" stroke="#3573FC" stroke-width="1.6" stroke-linecap="round" strokeLinejoin="round"/>
<path d="M30.2512 22.7499L32.8369 21.4571C33.0146 21.368 33.1497 21.212 33.2124 21.0234C33.2752 20.8348 33.2605 20.6289 33.1716 20.4511L30.7791 15.6643C30.735 15.5762 30.6739 15.4976 30.5994 15.4331C30.5249 15.3686 30.4385 15.3194 30.345 15.2883C30.2515 15.2572 30.1528 15.2449 30.0545 15.2519C29.9562 15.259 29.8603 15.2854 29.7722 15.3296L27.1875 16.6215L30.2512 22.7499Z" stroke="#3573FC" stroke-width="1.6" stroke-linecap="round" strokeLinejoin="round"/>
<path d="M27.2504 16.75H23.5004L19.2198 20.9022C19.1402 20.9817 19.0796 21.0781 19.0423 21.1843C19.0051 21.2905 18.9922 21.4037 19.0046 21.5155C19.017 21.6273 19.0544 21.7349 19.1141 21.8303C19.1737 21.9257 19.2541 22.0064 19.3492 22.0666C20.9907 23.1156 23.2192 23.0434 25.0004 21.25L28.7504 24.25L30.2504 22.75" stroke="#3573FC" stroke-width="1.6" stroke-linecap="round" strokeLinejoin="round"/>
<path d="M21.6306 30.25L17.7194 29.2722L15.25 27.5078" stroke="#3573FC" stroke-width="1.6" stroke-linecap="round" strokeLinejoin="round"/>
</svg>
