<svg width="346" height="152" viewBox="0 0 346 152" fill="none" xmlns="http://www.w3.org/2000/svg">
<rect x="49" y="59" width="8" height="77" rx="4" fill="url(#paint0_linear_9535_12509)"/>
<path d="M89 53C89 50.7909 90.7909 49 93 49C95.2091 49 97 50.7909 97 53V132C97 134.209 95.2091 136 93 136C90.7909 136 89 134.209 89 132V53Z" fill="url(#paint1_linear_9535_12509)"/>
<path d="M129 67C129 64.7909 130.791 63 133 63C135.209 63 137 64.7909 137 67V132C137 134.209 135.209 136 133 136C130.791 136 129 134.209 129 132V67Z" fill="url(#paint2_linear_9535_12509)"/>
<rect x="169" y="15" width="8" height="121" rx="4" fill="url(#paint3_linear_9535_12509)"/>
<path d="M209 49C209 46.7909 210.791 45 213 45C215.209 45 217 46.7909 217 49V132C217 134.209 215.209 136 213 136C210.791 136 209 134.209 209 132V49Z" fill="url(#paint4_linear_9535_12509)"/>
<path d="M249 93C249 90.7909 250.791 89 253 89C255.209 89 257 90.7909 257 93V132C257 134.209 255.209 136 253 136C250.791 136 249 134.209 249 132V93Z" fill="url(#paint5_linear_9535_12509)"/>
<path d="M289 58C289 55.7909 290.791 54 293 54C295.209 54 297 55.7909 297 58V132C297 134.209 295.209 136 293 136C290.791 136 289 134.209 289 132V58Z" fill="url(#paint6_linear_9535_12509)"/>
<path d="M9 112.976L33.4646 106.745C37.9222 105.61 42.6528 106.448 46.4491 109.045L55.6397 115.334C62.7182 120.177 72.3568 118.578 77.4913 111.708L85.3215 101.23C89.9859 94.9892 98.4678 93.0154 105.408 96.556L125.92 107.02C134.393 111.342 144.744 107.362 148.138 98.4754L160.677 65.6424C164.738 55.0098 180.214 56.4481 182.245 67.647L184.339 79.1862C185.823 87.3679 197.187 88.2919 199.974 80.4574V80.4574C202.517 73.3074 212.607 73.2461 215.236 80.3648L217.577 86.7026C220.482 94.5654 230.947 96.078 235.959 89.3595L241.555 81.8584C246.848 74.7639 256.966 73.4679 263.876 78.9995L269.961 83.8707C274.934 87.8521 281.796 88.5036 287.43 85.5294L337 59.3605" stroke="url(#paint7_linear_9535_12509)" stroke-width="2"/>
<circle cx="171" cy="58" r="5" fill="white" stroke="#3573FC" stroke-width="2"/>
<defs>
<linearGradient id="paint0_linear_9535_12509" x1="53" y1="136" x2="53" y2="59" gradientUnits="userSpaceOnUse">
<stop stop-color="#3573FC" stop-opacity="0"/>
<stop offset="1" stop-color="#3573FC"/>
</linearGradient>
<linearGradient id="paint1_linear_9535_12509" x1="93" y1="136" x2="93" y2="49" gradientUnits="userSpaceOnUse">
<stop stop-color="#3573FC" stop-opacity="0"/>
<stop offset="1" stop-color="#3573FC"/>
</linearGradient>
<linearGradient id="paint2_linear_9535_12509" x1="133" y1="136" x2="133" y2="63" gradientUnits="userSpaceOnUse">
<stop stop-color="#3573FC" stop-opacity="0"/>
<stop offset="1" stop-color="#3573FC"/>
</linearGradient>
<linearGradient id="paint3_linear_9535_12509" x1="177" y1="136" x2="177" y2="75.5" gradientUnits="userSpaceOnUse">
<stop stop-color="white" stop-opacity="0"/>
<stop offset="1" stop-color="white"/>
</linearGradient>
<linearGradient id="paint4_linear_9535_12509" x1="217" y1="136" x2="217" y2="90.5" gradientUnits="userSpaceOnUse">
<stop stop-color="white" stop-opacity="0"/>
<stop offset="1" stop-color="white"/>
</linearGradient>
<linearGradient id="paint5_linear_9535_12509" x1="257" y1="136" x2="257" y2="112.5" gradientUnits="userSpaceOnUse">
<stop stop-color="white" stop-opacity="0"/>
<stop offset="1" stop-color="white"/>
</linearGradient>
<linearGradient id="paint6_linear_9535_12509" x1="297" y1="136" x2="297" y2="95" gradientUnits="userSpaceOnUse">
<stop stop-color="white" stop-opacity="0"/>
<stop offset="1" stop-color="white"/>
</linearGradient>
<linearGradient id="paint7_linear_9535_12509" x1="9" y1="97.1921" x2="337" y2="97.1921" gradientUnits="userSpaceOnUse">
<stop stop-color="#3573FC" stop-opacity="0"/>
<stop offset="0.269231" stop-color="#3573FC"/>
<stop offset="0.692308" stop-color="#3573FC"/>
<stop offset="1" stop-color="#3573FC" stop-opacity="0"/>
</linearGradient>
</defs>
</svg>
