<svg width="44" height="44" viewBox="0 0 44 44" fill="none" xmlns="http://www.w3.org/2000/svg">
<rect width="44" height="44" rx="22" fill="#E74951" fill-opacity="0.08"/>
<path d="M17.5 20.5C19.1569 20.5 20.5 19.1569 20.5 17.5C20.5 15.8431 19.1569 14.5 17.5 14.5C15.8431 14.5 14.5 15.8431 14.5 17.5C14.5 19.1569 15.8431 20.5 17.5 20.5Z" stroke="#E74951" stroke-width="1.6" stroke-linecap="round" stroke-linejoin="round"/>
<path d="M26.5 20.5C28.1569 20.5 29.5 19.1569 29.5 17.5C29.5 15.8431 28.1569 14.5 26.5 14.5C24.8431 14.5 23.5 15.8431 23.5 17.5C23.5 19.1569 24.8431 20.5 26.5 20.5Z" stroke="#E74951" stroke-width="1.6" stroke-linecap="round" stroke-linejoin="round"/>
<path d="M17.5 29.5C19.1569 29.5 20.5 28.1569 20.5 26.5C20.5 24.8431 19.1569 23.5 17.5 23.5C15.8431 23.5 14.5 24.8431 14.5 26.5C14.5 28.1569 15.8431 29.5 17.5 29.5Z" stroke="#E74951" stroke-width="1.6" stroke-linecap="round" stroke-linejoin="round"/>
<path d="M26.5 23.5V29.5" stroke="#E74951" stroke-width="1.6" stroke-linecap="round" stroke-linejoin="round"/>
<path d="M29.5 26.5H23.5" stroke="#E74951" stroke-width="1.6" stroke-linecap="round" stroke-linejoin="round"/>
</svg>
