<svg width="64" height="64" viewBox="0 0 64 64" fill="none" xmlns="http://www.w3.org/2000/svg">
<rect width="64" height="64" rx="32" fill="#3573FC" fill-opacity="0.08"/>
<path d="M41 35L36 40L28 38L21 33" stroke="#3573FC" stroke-width="1.6" stroke-linecap="round" strokeLinejoin="round"/>
<path d="M25.0859 24.8287L32.0009 23L38.9159 24.8287" stroke="#3573FC" stroke-width="1.6" stroke-linecap="round" strokeLinejoin="round"/>
<path d="M20.2956 23.5524L17.1056 29.9349C16.9871 30.1719 16.9675 30.4463 17.0511 30.6978C17.1348 30.9493 17.3149 31.1573 17.5519 31.2761L20.9994 32.9999L25.0844 24.8286L21.6381 23.1061C21.5207 23.0472 21.3928 23.012 21.2617 23.0026C21.1307 22.9931 20.9991 23.0096 20.8744 23.0511C20.7497 23.0925 20.6344 23.1581 20.5351 23.2441C20.4358 23.3301 20.3544 23.4349 20.2956 23.5524Z" stroke="#3573FC" stroke-width="1.6" stroke-linecap="round" strokeLinejoin="round"/>
<path d="M42.9991 32.9999L46.4466 31.2761C46.6835 31.1573 46.8636 30.9493 46.9473 30.6978C47.031 30.4463 47.0114 30.1719 46.8928 29.9349L43.7028 23.5524C43.644 23.4349 43.5626 23.3301 43.4633 23.2441C43.364 23.1581 43.2487 23.0925 43.124 23.0511C42.9994 23.0096 42.8677 22.9931 42.7367 23.0026C42.6056 23.012 42.4778 23.0472 42.3603 23.1061L38.9141 24.8286L42.9991 32.9999Z" stroke="#3573FC" stroke-width="1.6" stroke-linecap="round" strokeLinejoin="round"/>
<path d="M39.0006 25H34.0006L28.2931 30.5363C28.187 30.6423 28.1061 30.7709 28.0564 30.9124C28.0067 31.054 27.9896 31.2049 28.0061 31.354C28.0227 31.5031 28.0726 31.6465 28.1521 31.7737C28.2316 31.9009 28.3388 32.0086 28.4656 32.0888C30.6543 33.4875 33.6256 33.3912 36.0006 31L41.0006 35L43.0006 33" stroke="#3573FC" stroke-width="1.6" stroke-linecap="round" strokeLinejoin="round"/>
<path d="M31.5075 43L26.2925 41.6963L23 39.3438" stroke="#3573FC" stroke-width="1.6" stroke-linecap="round" strokeLinejoin="round"/>
</svg>
