<svg width="346" height="124" viewBox="0 0 346 124" fill="none" xmlns="http://www.w3.org/2000/svg">
<rect x="7" width="92" height="92" rx="24" fill="white"/>
<rect x="27" y="20" width="52" height="52" rx="26" fill="#3573FC" fill-opacity="0.08"/>
<path d="M41.0874 39.615L52.9999 46.135L64.9124 39.615" stroke="#3573FC" stroke-width="1.6" stroke-linecap="round" strokeLinejoin="round"/>
<path d="M53.48 33.1249L64.48 39.1474C64.6371 39.2334 64.7682 39.3599 64.8597 39.5138C64.9511 39.6677 64.9996 39.8434 65 40.0224V51.9774C64.9996 52.1565 64.9511 52.3321 64.8597 52.486C64.7682 52.64 64.6371 52.7665 64.48 52.8524L53.48 58.8749C53.3328 58.9555 53.1678 58.9977 53 58.9977C52.8322 58.9977 52.6672 58.9555 52.52 58.8749L41.52 52.8524C41.3629 52.7665 41.2318 52.64 41.1403 52.486C41.0489 52.3321 41.0004 52.1565 41 51.9774V40.0224C41.0004 39.8434 41.0489 39.6677 41.1403 39.5138C41.2318 39.3599 41.3629 39.2334 41.52 39.1474L52.52 33.1249C52.6672 33.0444 52.8322 33.0022 53 33.0022C53.1678 33.0022 53.3328 33.0444 53.48 33.1249Z" stroke="#3573FC" stroke-width="1.6" stroke-linecap="round" strokeLinejoin="round"/>
<path d="M53 46.1362V59" stroke="#3573FC" stroke-width="1.6" stroke-linecap="round" strokeLinejoin="round"/>
<rect x="127" y="16" width="92" height="92" rx="24" fill="white"/>
<rect x="147" y="36" width="52" height="52" rx="26" fill="#E74951" fill-opacity="0.08"/>
<path d="M161.087 55.615L173 62.135L184.912 55.615" stroke="#E74951" stroke-width="1.6" stroke-linecap="round" strokeLinejoin="round"/>
<path d="M173.48 49.1249L184.48 55.1474C184.637 55.2334 184.768 55.3599 184.86 55.5138C184.951 55.6677 185 55.8434 185 56.0224V67.9774C185 68.1565 184.951 68.3321 184.86 68.486C184.768 68.64 184.637 68.7665 184.48 68.8524L173.48 74.8749C173.333 74.9555 173.168 74.9977 173 74.9977C172.832 74.9977 172.667 74.9555 172.52 74.8749L161.52 68.8524C161.363 68.7665 161.232 68.64 161.14 68.486C161.049 68.3321 161 68.1565 161 67.9774V56.0224C161 55.8434 161.049 55.6677 161.14 55.5138C161.232 55.3599 161.363 55.2334 161.52 55.1474L172.52 49.1249C172.667 49.0444 172.832 49.0022 173 49.0022C173.168 49.0022 173.333 49.0444 173.48 49.1249Z" stroke="#E74951" stroke-width="1.6" stroke-linecap="round" strokeLinejoin="round"/>
<path d="M173 62.1362V75" stroke="#E74951" stroke-width="1.6" stroke-linecap="round" strokeLinejoin="round"/>
<rect x="247" y="32" width="92" height="92" rx="24" fill="white"/>
<rect x="267" y="52" width="52" height="52" rx="26" fill="#725DD6" fill-opacity="0.08"/>
<path d="M281.087 71.615L293 78.135L304.912 71.615" stroke="#725DD6" stroke-width="1.6" stroke-linecap="round" strokeLinejoin="round"/>
<path d="M293.48 65.1249L304.48 71.1474C304.637 71.2334 304.768 71.3599 304.86 71.5138C304.951 71.6677 305 71.8434 305 72.0224V83.9774C305 84.1565 304.951 84.3321 304.86 84.486C304.768 84.64 304.637 84.7665 304.48 84.8524L293.48 90.8749C293.333 90.9555 293.168 90.9977 293 90.9977C292.832 90.9977 292.667 90.9555 292.52 90.8749L281.52 84.8524C281.363 84.7665 281.232 84.64 281.14 84.486C281.049 84.3321 281 84.1565 281 83.9774V72.0224C281 71.8434 281.049 71.6677 281.14 71.5138C281.232 71.3599 281.363 71.2334 281.52 71.1474L292.52 65.1249C292.667 65.0444 292.832 65.0022 293 65.0022C293.168 65.0022 293.333 65.0444 293.48 65.1249Z" stroke="#725DD6" stroke-width="1.6" stroke-linecap="round" strokeLinejoin="round"/>
<path d="M293 78.1362V91" stroke="#725DD6" stroke-width="1.6" stroke-linecap="round" strokeLinejoin="round"/>
<path d="M99 62L127 62" stroke="white" stroke-width="2"/>
<path d="M219 62L247 62" stroke="white" stroke-width="2"/>
</svg>
