<svg width="15" height="14" viewBox="0 0 15 14" fill="none" xmlns="http://www.w3.org/2000/svg">
<path d="M1.85285 6.24857C1.85285 4.75107 2.44772 3.31491 3.50662 2.25602C4.56551 1.19713 6.00167 0.60225 7.49917 0.60225C8.99666 0.60225 10.4328 1.19713 11.4917 2.25602C12.5506 3.31491 13.1455 4.75107 13.1455 6.24857C13.1455 9.05761 13.7964 11.3146 14.314 12.2086C14.3689 12.3038 14.3979 12.4118 14.398 12.5217C14.3981 12.6316 14.3693 12.7397 14.3145 12.835C14.2597 12.9303 14.1808 13.0095 14.0858 13.0648C13.9907 13.12 13.8828 13.1492 13.7729 13.1496H1.22548C1.11567 13.149 1.00796 13.1195 0.913116 13.0642C0.818269 13.0088 0.739606 12.9296 0.684989 12.8343C0.630373 12.7391 0.601716 12.6311 0.601883 12.5213C0.60205 12.4115 0.631034 12.3037 0.68594 12.2086C1.20274 11.3146 1.85285 9.05683 1.85285 6.24857Z" stroke="#55607A" stroke-width="1.2" stroke-linecap="round" stroke-linejoin="round"/>
</svg>
