<svg width="17" height="18" viewBox="0 0 17 18" fill="none" xmlns="http://www.w3.org/2000/svg">
<path d="M15.7572 13.4189L8.66498 17.3019C8.57009 17.3538 8.46367 17.381 8.35551 17.381C8.24734 17.381 8.14092 17.3538 8.04603 17.3019L0.953821 13.4189C0.852551 13.3635 0.768015 13.2819 0.70904 13.1827C0.650065 13.0834 0.618815 12.9702 0.618553 12.8547V5.1452C0.618815 5.02976 0.650065 4.91651 0.70904 4.81727C0.768015 4.71804 0.852551 4.63645 0.953821 4.58104L8.04603 0.698062C8.14092 0.646143 8.24734 0.618931 8.35551 0.618931C8.46367 0.618931 8.57009 0.646143 8.66498 0.698062L15.7572 4.58104C15.8585 4.63645 15.943 4.71804 16.002 4.81727C16.0609 4.91651 16.0922 5.02976 16.0925 5.1452V12.8531C16.0925 12.9688 16.0614 13.0824 16.0024 13.182C15.9434 13.2815 15.8587 13.3634 15.7572 13.4189Z" stroke="#55607A" stroke-width="1.2" stroke-linecap="round" strokeLinejoin="round"/>
</svg>
