<svg width="15" height="16" viewBox="0 0 15 16" fill="none" xmlns="http://www.w3.org/2000/svg">
<path d="M5.61863 15.0263V10.0094H9.38137V15.0263H14.3984V7.50086C14.3984 7.41848 14.3823 7.3369 14.3508 7.26077C14.3193 7.18464 14.2731 7.11545 14.2149 7.05717L7.94369 0.78594C7.88545 0.727633 7.81628 0.681377 7.74015 0.649817C7.66402 0.618258 7.58241 0.602014 7.5 0.602014C7.41759 0.602014 7.33598 0.618258 7.25985 0.649817C7.18372 0.681377 7.11455 0.727633 7.05631 0.78594L0.78508 7.05717C0.726861 7.11545 0.680696 7.18464 0.649222 7.26077C0.617748 7.3369 0.601582 7.41848 0.601646 7.50086V15.0263H5.61863Z" stroke="#55607A" stroke-width="1.2" stroke-linecap="round" stroke-linejoin="round"/>
</svg>
