<svg width="704" height="39" viewBox="0 0 704 39" fill="none" xmlns="http://www.w3.org/2000/svg">
<path d="M7.71387 1.72818C8.29376 1.15182 8.8595 0.560442 9.45354 0C10.075 0.572818 10.6849 1.1589 11.3081 1.72906C10.6823 2.29569 10.0759 2.88354 9.4553 3.45635C8.85862 2.89768 8.29552 2.30365 7.71387 1.72818Z" fill="#55607A"/>
<path d="M5.92 4.46431C6.9242 4.2 7.9611 4.09304 8.99536 4.03027C8.99889 7.33193 8.99624 10.6336 8.99624 13.9352C7.88066 13.9414 6.76508 13.9432 5.6495 13.9361C5.27293 13.9459 4.95735 13.6533 4.8221 13.3209C4.01238 11.4186 3.23359 9.50298 2.40972 7.60685C2.19492 7.75889 1.97746 7.90917 1.7547 8.05061C2.50961 10.0298 3.36884 11.9702 4.15116 13.9388C3.56862 13.9335 2.98519 13.9556 2.40354 13.9238C1.80243 11.743 0.859227 9.68066 0 7.59447C1.68928 6.10232 3.72243 4.98851 5.92 4.46431ZM3.92398 6.92088C4.66917 8.7127 5.37017 10.5249 6.12331 12.3131C6.34873 12.8055 6.94983 12.6552 7.38122 12.6544C7.36796 10.3949 7.38033 8.13547 7.37503 5.87602C6.19138 6.09967 5.0263 6.43558 3.92398 6.92088Z" fill="#55607A"/>
<path d="M9.90713 4.02832C11.3507 4.10788 12.7951 4.32534 14.1617 4.81064C15.9111 5.39141 17.5014 6.38147 18.8937 7.58014C18.1343 9.74677 17.1761 11.8365 16.2541 13.9377C15.7529 13.9404 15.2525 13.9404 14.7513 13.9377C15.4223 12.3024 16.0985 10.6696 16.7703 9.03429C16.9056 8.70987 17.0488 8.38722 17.1513 8.0513C16.9303 7.89926 16.7058 7.75252 16.4733 7.61904C15.6981 9.5081 14.8928 11.3848 14.1078 13.2694C13.9734 13.6221 13.6561 13.9466 13.2556 13.9359C12.1392 13.9457 11.0227 13.9368 9.90625 13.9386C9.91244 10.6352 9.90713 7.33175 9.90713 4.02832ZM11.5248 5.87849C11.531 8.1397 11.5345 10.4018 11.5257 12.6639C11.8254 12.6612 12.1286 12.6922 12.4256 12.6436C12.7703 12.5092 12.872 12.1264 12.9958 11.8162C13.5827 10.3629 14.167 8.90876 14.7584 7.45815C14.8088 7.27605 14.9617 7.08688 14.9193 6.90036C13.8391 6.41506 12.6881 6.09506 11.5248 5.87849Z" fill="#55607A"/>
<path d="M19.4723 8.07079C20.7161 6.99676 22.4487 6.71565 24.0416 6.82085C25.1722 6.93842 26.3939 7.16471 27.2345 7.99654C27.9461 8.66483 28.1132 9.73444 27.9284 10.6573C27.7711 11.4617 27.2336 12.1716 26.5079 12.5499C27.1797 12.9318 27.8436 13.4357 28.1008 14.1976C28.3766 15.0931 28.176 16.0849 27.7357 16.8947C27.1603 17.9369 26.0668 18.5928 24.9326 18.8624C23.7534 19.1347 22.5132 18.9994 21.3702 18.6334C20.5534 18.3629 19.772 17.9616 19.124 17.3906C19.3777 17.0273 19.6005 16.6445 19.8427 16.2741C19.9691 16.0743 20.1565 15.8869 20.4067 15.871C20.8275 15.8056 21.1837 16.0752 21.5373 16.2555C22.4195 16.7364 23.4723 16.9539 24.4624 16.7294C24.9335 16.6286 25.3534 16.2821 25.4789 15.8083C25.6107 15.3221 25.6504 14.7431 25.3384 14.3152C24.9954 13.8405 24.3872 13.669 23.833 13.6133C23.147 13.5727 22.4602 13.6124 21.7751 13.5904C21.7892 12.8991 21.7698 12.2069 21.7839 11.5165C22.5371 11.5024 23.2955 11.5634 24.0442 11.4555C24.4774 11.3999 24.9238 11.1753 25.1218 10.7678C25.326 10.2498 25.2712 9.53378 24.7629 9.21024C24.1715 8.82836 23.4237 8.83366 22.7528 8.94328C22.1437 9.04847 21.6168 9.38438 21.0546 9.61775C20.7541 9.74947 20.3757 9.64781 20.2007 9.36494C19.9355 8.94681 19.7269 8.49599 19.4723 8.07079Z" fill="#55607A"/>
<path d="M32.5748 10.2011C33.8133 10.0261 35.1675 10.2108 36.1876 10.9781C37.046 11.6111 37.5825 12.6126 37.7337 13.6592C37.9034 14.8491 37.7417 16.1308 37.0769 17.1527C36.5138 18.0367 35.5856 18.6572 34.5664 18.8818C33.3235 19.1505 31.9613 19.0011 30.8634 18.3364C29.8822 17.7326 29.2219 16.6807 29.0203 15.5545C28.8391 14.5176 28.9063 13.4055 29.3792 12.4517C29.9573 11.2115 31.232 10.3726 32.5748 10.2011ZM32.7383 12.2201C32.4033 12.3421 32.1284 12.6064 31.9825 12.9299C31.6855 13.5417 31.6988 14.2391 31.6749 14.903C31.6537 15.5174 31.7704 16.1768 32.1814 16.6568C32.855 17.3852 34.2641 17.3357 34.7741 16.4385C35.1666 15.733 35.1657 14.8915 35.1286 14.1074C35.0827 13.4709 34.9324 12.739 34.3666 12.358C33.8884 12.0548 33.2643 12.0486 32.7383 12.2201Z" fill="#55607A"/>
<path d="M50.7895 10.2C52.0845 10.0161 53.5122 10.2353 54.5393 11.0955C55.3411 11.7478 55.8211 12.7317 55.9502 13.7483C56.104 14.9699 55.9104 16.2862 55.1776 17.3027C54.6127 18.1089 53.7332 18.6667 52.7758 18.8806C51.5214 19.1564 50.1274 19.0009 49.0507 18.268C48.18 17.6793 47.5886 16.7308 47.3738 15.7089C47.121 14.497 47.2289 13.171 47.8565 12.0846C48.4717 11.0424 49.597 10.3538 50.7895 10.2ZM50.9504 12.2163C50.6118 12.3366 50.336 12.6026 50.1866 12.9279C49.8861 13.5405 49.9055 14.2415 49.8826 14.9072C49.8578 15.5233 49.9789 16.1827 50.3926 16.6619C50.9159 17.2267 51.8459 17.2992 52.5009 16.9315C53.1489 16.5204 53.3018 15.693 53.3416 14.9823C53.3548 14.1938 53.3663 13.3222 52.8881 12.6513C52.4443 12.0731 51.6001 12.0059 50.9504 12.2163Z" fill="#55607A"/>
<path d="M64.8702 10.4797C66.022 10.3356 67.1721 10.1173 68.338 10.1473C69.2026 10.1721 70.0485 10.5389 70.6682 11.1409C71.3347 11.8039 71.7387 12.7241 71.7873 13.662C71.7882 15.4441 71.7873 17.2271 71.7873 19.0101C71.2861 18.9995 70.7831 19.034 70.2837 18.9951C69.8249 18.9509 69.8099 18.3913 69.5959 18.0828C69.0214 18.401 68.5352 18.8978 67.8775 19.0472C66.9741 19.2744 65.9495 19.1957 65.1593 18.6733C64.5095 18.2331 64.2222 17.4269 64.1851 16.6711C64.1321 15.7774 64.5564 14.8616 65.2963 14.3524C65.8373 14.0068 66.449 13.7964 67.0572 13.6002C67.7316 13.4083 68.4379 13.3765 69.1354 13.3641C69.1566 12.8691 68.8826 12.3529 68.3858 12.2123C67.5442 11.9869 66.6894 12.2821 65.8488 12.3582C65.5164 12.4059 65.1937 12.2097 65.0479 11.9153C64.8295 11.4706 64.8543 10.9606 64.8702 10.4797ZM66.7761 15.4671C66.1909 15.7632 66.1396 16.8046 66.8008 17.0415C67.6026 17.3367 68.5422 17.0052 69.0983 16.3847C69.1513 15.956 69.0329 15.5175 69.0187 15.0852C68.2647 15.1188 67.4567 15.0905 66.7761 15.4671Z" fill="#55607A"/>
<path d="M39.4994 15.0574C39.7823 13.5105 39.6594 11.9308 39.7531 10.3688C41.9427 10.3679 44.1324 10.3679 46.322 10.3688C46.3184 13.2497 46.3264 16.1297 46.3176 19.0106C45.4742 19.0106 44.6309 19.0097 43.7885 19.0115C43.7832 16.783 43.7876 14.5545 43.7858 12.3268C43.1715 12.3251 42.5562 12.326 41.9419 12.3268C41.8685 13.6166 41.8358 14.9169 41.5635 16.1845C41.385 16.9995 41.0888 17.8323 40.4851 18.4316C39.8504 19.0831 38.8859 19.2749 38.009 19.236C37.8066 19.2404 37.5724 19.1123 37.5768 18.886C37.5494 18.3556 37.5741 17.8225 37.5662 17.2913C37.9595 17.2586 38.3617 17.1348 38.6729 16.8864C39.145 16.3931 39.3872 15.7213 39.4994 15.0574Z" fill="#55607A"/>
<path d="M55.8848 10.3701C58.5738 10.3675 61.2638 10.3692 63.9528 10.3692C63.9537 10.9809 63.9537 11.5927 63.9528 12.2035C63.0689 12.2044 62.1858 12.2035 61.3018 12.2044C61.3 14.4329 61.3027 16.6605 61.3009 18.889C60.4169 18.8899 59.5329 18.8899 58.649 18.889C58.6472 16.6605 58.6499 14.4329 58.6481 12.2044C57.727 12.2026 56.8059 12.2061 55.8848 12.2026C55.8856 11.5918 55.8848 10.9809 55.8848 10.3701Z" fill="#55607A"/>
<path d="M73.6826 11.1477C74.4632 10.5952 75.4329 10.3768 76.3779 10.3715C77.5368 10.3636 78.6957 10.3707 79.8545 10.3689C79.8545 13.2091 79.8554 16.0485 79.8545 18.8887C79.0475 18.8896 78.2404 18.8887 77.4342 18.8887C77.4298 17.7713 77.443 16.6531 77.4263 15.5357C77.1133 15.5596 76.7518 15.5932 76.5564 15.8743C75.9774 16.6054 75.8112 17.5645 75.3136 18.3433C75.0678 18.7313 74.5922 18.8675 74.1582 18.8807C73.4837 18.8993 72.8092 18.8851 72.1348 18.8869C72.7553 17.8562 73.367 16.8193 73.9982 15.7956C74.2165 15.4279 74.5852 15.1804 74.9997 15.0867C74.2006 14.9223 73.3617 14.5165 73.0037 13.7395C72.5856 12.8529 72.9507 11.7523 73.6826 11.1477ZM76.0269 12.0812C75.333 12.334 75.2039 13.3824 75.744 13.8527C76.1807 14.3167 76.8693 14.1338 77.4333 14.17C77.4351 13.4407 77.4333 12.7123 77.4342 11.983C76.9666 12.0034 76.476 11.9194 76.0269 12.0812Z" fill="#55607A"/>
<path d="M2.7373 14.7226C7.24559 14.7226 11.7539 14.7217 16.2622 14.7226C16.2622 15.2529 16.2622 15.7842 16.2622 16.3146C11.7539 16.3146 7.24559 16.3146 2.7373 16.3146C2.7373 15.7842 2.7373 15.2529 2.7373 14.7226Z" fill="#55607A"/>
<path d="M2.7708 17.3958C4.11533 17.3949 5.45986 17.3966 6.80439 17.3958C6.80527 19.6605 6.8035 21.9262 6.80527 24.1918C7.27201 24.2042 7.74671 24.1882 8.19842 24.0557C8.39024 23.977 8.53345 23.8143 8.65897 23.6552C9.65345 22.3186 10.1971 20.7098 11.1942 19.3741C11.5841 18.8296 12.0632 18.3275 12.6722 18.0313C13.7949 17.5345 15.0439 17.4744 16.2532 17.5071C16.2515 18.3195 16.2585 19.1319 16.2515 19.9443C16.263 20.2378 16.1339 20.5436 15.8758 20.6965C15.4868 20.9202 15.0236 20.9502 14.6196 21.1376C14.2669 21.2844 13.9823 21.5566 13.7675 21.8669C13.1098 22.7686 12.8623 23.8992 12.1913 24.7929C11.9659 25.0926 11.6504 25.3056 11.3153 25.4656C11.8378 25.5938 12.3337 25.8422 12.7279 26.2108C13.1628 26.6448 13.4961 27.1673 13.8081 27.6932C15.0386 29.8687 16.2851 32.0362 17.512 34.2143C16.3001 34.2161 15.0881 34.2143 13.8762 34.2161C13.4678 34.2267 13.0311 34.1074 12.7606 33.7838C12.4937 33.5178 12.3911 33.1465 12.2011 32.8309C11.2481 31.1637 10.3023 29.4912 9.34848 27.8249C9.16019 27.4926 8.85257 27.2256 8.47422 27.1434C7.92527 27.0302 7.36041 27.093 6.80439 27.078C6.80439 29.4196 6.80439 31.7622 6.80439 34.1047C5.5677 34.1065 4.3319 34.1012 3.09522 34.1074C2.9971 34.0755 2.73721 34.1763 2.77168 33.9924C2.76815 28.4605 2.7708 22.9286 2.7708 17.3958Z" fill="#55607A"/>
<path d="M21.791 21.5998C23.3256 21.4372 24.9495 21.6653 26.2772 22.4909C27.3945 23.1777 28.2334 24.2818 28.6471 25.5229C29.0476 26.6792 29.1059 27.9291 28.9804 29.1375C28.9203 29.7952 28.7081 30.429 28.3979 31.0098C27.9064 32.0714 27.094 32.9872 26.0854 33.5839C24.7055 34.3822 23.0383 34.5846 21.4781 34.3397C20.0938 34.1346 18.7696 33.4725 17.8255 32.4303C17.0255 31.5119 16.4721 30.3654 16.3245 29.1508C16.13 27.5729 16.313 25.9022 17.1077 24.5019C18.0279 22.7976 19.8949 21.7669 21.791 21.5998ZM21.8785 24.418C21.3791 24.5514 20.9477 24.8909 20.6958 25.3417C20.2379 26.1399 20.1804 27.0885 20.168 27.9875C20.1336 28.852 20.1645 29.7713 20.5968 30.5457C20.8619 31.0478 21.326 31.4367 21.8803 31.5764C22.6688 31.7744 23.5908 31.7187 24.2432 31.1875C24.8982 30.6049 25.1192 29.7041 25.1961 28.8635C25.2677 27.9459 25.2509 27.008 25.0184 26.1125C24.8496 25.5388 24.5384 24.9643 24.0169 24.6416C23.3777 24.2686 22.5831 24.2376 21.8785 24.418Z" fill="#55607A"/>
<path d="M35.7902 21.7548C36.7643 21.4984 37.8366 21.4383 38.7877 21.814C39.9961 22.3028 40.8297 23.4034 41.3327 24.5685C41.7482 25.4392 41.8684 26.4133 41.9197 27.3663C41.9992 29.121 41.5625 30.9252 40.5424 32.3696C39.8423 33.3649 38.7771 34.111 37.5767 34.3453C36.569 34.5406 35.4825 34.4549 34.5606 33.9828C34.2361 33.8273 33.9462 33.6116 33.6465 33.4153C33.6492 34.9879 33.6527 36.5605 33.6483 38.134C32.4204 38.18 31.1926 38.218 29.9639 38.2507C29.9639 32.7576 29.9639 27.2655 29.9639 21.7724C30.7276 21.776 31.4923 21.7636 32.2569 21.7769C32.6229 21.7724 33.0207 21.9475 33.1612 22.3064C33.2708 22.6219 33.3309 22.9517 33.4185 23.2734C34.0593 22.5724 34.8646 22.004 35.7902 21.7548ZM33.6421 25.5806C33.6642 27.3344 33.6324 29.0891 33.6562 30.8429C34.077 31.3707 34.7727 31.6536 35.4428 31.6739C36.134 31.7278 36.8775 31.4732 37.285 30.8898C37.9718 29.9289 38.0319 28.6869 38.0169 27.5475C37.9869 26.6237 37.9064 25.5842 37.2337 24.8796C36.7855 24.3881 36.0501 24.3766 35.4401 24.4783C34.7188 24.587 34.1088 25.0414 33.6421 25.5806Z" fill="#55607A"/>
<path d="M48.2283 21.6036C49.8929 21.418 51.6732 21.6832 53.0708 22.6547C54.3172 23.5095 55.1154 24.9132 55.3859 26.3842C55.6502 27.8498 55.5857 29.4038 55.0394 30.7996C54.5355 32.1397 53.4827 33.2659 52.1726 33.8467C50.844 34.4434 49.3351 34.561 47.9057 34.3382C46.4728 34.1093 45.0876 33.4083 44.17 32.267C43.1234 31.0109 42.6964 29.3313 42.7565 27.7181C42.7998 26.1384 43.3143 24.5092 44.4502 23.3725C45.4297 22.3311 46.8263 21.7654 48.2283 21.6036ZM48.3874 24.4164C47.9755 24.5269 47.5972 24.77 47.347 25.1174C46.8476 25.7804 46.7273 26.637 46.6805 27.4432C46.6531 28.4014 46.6557 29.3968 47.0208 30.2993C47.2445 30.8712 47.6979 31.3733 48.2999 31.5492C49.054 31.7702 49.93 31.7384 50.6 31.2938C51.2268 30.8474 51.5132 30.0783 51.6352 29.3464C51.7695 28.4757 51.7678 27.582 51.6458 26.7104C51.5318 25.9705 51.2551 25.1943 50.6407 24.7249C49.9928 24.2732 49.1344 24.2273 48.3874 24.4164Z" fill="#55607A"/>
<path d="M70.1785 22.0005C71.8749 21.7202 73.5924 21.5037 75.3162 21.5576C76.811 21.6195 78.2979 22.37 79.1306 23.6332C79.7759 24.5614 80.0075 25.7167 79.9659 26.8332C79.9642 29.3339 79.9659 31.8347 79.9659 34.3364C79.3259 34.3328 78.6859 34.3488 78.0468 34.3284C77.7171 34.3178 77.3379 34.2285 77.1549 33.9262C76.9595 33.5903 76.8711 33.2067 76.7394 32.8442C75.3551 34.4265 72.9392 34.9808 71.005 34.1569C70.3297 33.8785 69.7763 33.3322 69.4881 32.6612C69.0214 31.5916 68.9242 30.3399 69.2963 29.227C69.748 28.069 70.7876 27.2089 71.9571 26.8323C72.7102 26.6051 73.4625 26.3558 74.2475 26.2621C74.9228 26.1755 75.6053 26.1605 76.2859 26.1543C76.3549 25.417 75.8713 24.6568 75.1279 24.5083C74.3049 24.351 73.4616 24.5145 72.6475 24.6533C72.1206 24.7373 71.5681 24.9309 71.0448 24.7355C70.6435 24.5914 70.3916 24.2042 70.2846 23.8082C70.1334 23.2186 70.137 22.6033 70.1785 22.0005ZM73.177 29.1032C72.43 29.3605 72.0959 30.339 72.4415 31.025C72.6872 31.4741 73.2495 31.5916 73.7206 31.5978C74.2828 31.5793 74.8645 31.4944 75.3613 31.2142C75.7051 31.0268 75.9297 30.6873 76.2691 30.4928C76.2877 29.8546 76.2727 29.2155 76.2753 28.5773C75.2366 28.7099 74.175 28.7664 73.177 29.1032Z" fill="#55607A"/>
<path d="M56.5752 21.7715C57.8048 21.7733 59.0344 21.7706 60.264 21.7724C60.2614 23.2689 60.2685 24.7655 60.2596 26.2612C61.5635 26.2807 62.8673 26.2612 64.1712 26.2718C64.1862 24.7717 64.173 23.2716 64.1774 21.7715C65.4088 21.7733 66.6402 21.7697 67.8715 21.7733C67.8715 25.92 67.8715 30.0658 67.8715 34.2126C66.6402 34.2188 65.4088 34.2117 64.1774 34.2161C64.1765 32.4888 64.1783 30.7615 64.1765 29.0334C62.8727 29.0334 61.5679 29.0334 60.264 29.0342C60.2658 30.7589 60.2587 32.4844 60.2676 34.2099C59.0371 34.2223 57.8066 34.2099 56.5752 34.2161C56.5752 30.0676 56.5752 25.92 56.5752 21.7715Z" fill="#55607A"/>
<path d="M208.716 22.5646H207.388V21.5246C205.852 21.4179 204.641 20.9806 203.756 20.2126C202.87 19.4446 202.428 18.4526 202.428 17.2366C202.428 16.0312 202.87 15.0446 203.756 14.2766C204.641 13.5086 205.852 13.0712 207.388 12.9646V11.8926H208.716V12.9646C210.241 13.0712 211.452 13.5139 212.348 14.2926C213.244 15.0606 213.692 16.0419 213.692 17.2366C213.692 18.4526 213.244 19.4446 212.348 20.2126C211.462 20.9806 210.252 21.4179 208.716 21.5246V22.5646ZM211.356 19.3486C211.996 18.7939 212.316 18.0899 212.316 17.2366C212.316 16.3832 211.996 15.6792 211.356 15.1246C210.716 14.5699 209.836 14.2446 208.716 14.1486V20.3246C209.836 20.2286 210.716 19.9032 211.356 19.3486ZM204.748 15.1246C204.118 15.6792 203.804 16.3832 203.804 17.2366C203.804 18.0899 204.118 18.7939 204.748 19.3486C205.388 19.9032 206.268 20.2286 207.388 20.3246V14.1486C206.268 14.2446 205.388 14.5699 204.748 15.1246Z" fill="#55607A"/>
<path d="M221.155 22.5646H219.875V11.8926H221.203V20.2286L227.347 11.8926H228.707V22.5646H227.379V14.0526L221.155 22.5646Z" fill="#55607A"/>
<path d="M244.224 22.5646H242.896V17.6686H236.656V22.5646H235.328V11.8926H236.656V16.4846H242.896V11.8926H244.224V22.5646Z" fill="#55607A"/>
<path d="M258.94 22.5646H257.292L253.244 17.7646L252.172 18.9806V22.5646H250.844V11.8926H252.172V17.4126L256.892 11.8926H258.556L254.108 16.9646L258.94 22.5646Z" fill="#55607A"/>
<path d="M273.714 22.5646H272.194L271.25 20.1966H265.938L264.994 22.5646H263.474L267.762 11.8926H269.41L273.714 22.5646ZM270.85 19.0126L268.594 13.2686L266.322 19.0126H270.85Z" fill="#55607A"/>
<path d="M280.563 22.5646H279.235V11.8926H283.523C284.557 11.8926 285.373 12.2019 285.971 12.8206C286.568 13.4392 286.867 14.2019 286.867 15.1086C286.867 16.0152 286.563 16.7779 285.955 17.3966C285.357 18.0152 284.547 18.3246 283.523 18.3246H280.563V22.5646ZM283.363 17.1406C283.992 17.1406 284.504 16.9539 284.899 16.5806C285.293 16.1966 285.491 15.7059 285.491 15.1086C285.491 14.5112 285.293 14.0259 284.899 13.6526C284.504 13.2686 283.992 13.0766 283.363 13.0766H280.563V17.1406H283.363Z" fill="#55607A"/>
<path d="M296.718 22.5646H295.39V13.0766H292.014V11.8926H300.11V13.0766H296.718V22.5646Z" fill="#55607A"/>
<path d="M315.136 22.5646H313.616L312.672 20.1966H307.36L306.416 22.5646H304.896L309.184 11.8926H310.832L315.136 22.5646ZM312.272 19.0126L310.016 13.2686L307.744 19.0126H312.272Z" fill="#55607A"/>
<path fill-rule="evenodd" clip-rule="evenodd" d="M189.18 7.78223L177.743 19.0615L189.18 30.4688L193.189 26.5625L189.18 22.8081L193.189 19.0615L189.18 15.4158L193.189 11.4229L189.18 7.78223Z" fill="#55607A"/>
<path d="M421.542 19.526C419.481 19.526 417.484 19.526 415.537 19.526C415.454 21.2325 415.414 22.9109 415.278 24.5859C415.157 26.0718 414.829 27.5296 414.172 28.9326C413.955 29.3953 413.695 29.7005 413.031 29.5894C412.996 29.5827 412.953 29.6093 412.91 29.6258C412.91 30.8597 412.91 32.087 412.91 33.3142C413.515 33.3142 414.086 33.3142 414.703 33.3142C414.703 32.48 414.703 31.679 414.703 30.8796C416.88 30.8796 419.015 30.8796 421.196 30.8796C421.196 31.7055 421.196 32.5049 421.196 33.3208C421.803 33.3208 422.36 33.3208 422.937 33.3208C422.937 32.0737 422.937 30.8431 422.937 29.5777C422.458 29.5777 422.015 29.5777 421.542 29.5777C421.542 26.2111 421.542 22.8827 421.542 19.526ZM419.597 29.5645C418.25 29.5645 416.919 29.5645 415.666 29.5645C416.001 28.7253 416.411 27.8994 416.66 27.042C417.159 25.3189 417.156 23.551 417.169 21.7881C417.172 21.5161 417.169 21.2408 417.169 20.9423C417.983 20.9423 418.773 20.9423 419.599 20.9423C419.597 23.7948 419.597 26.6556 419.597 29.5645ZM432.534 8.41622C431.395 8.41622 430.302 8.41622 429.146 8.41622C429.146 8.83746 429.161 9.21558 429.144 9.59536C429.088 10.9155 429.04 12.2372 428.489 13.501C428.353 13.8127 428.252 14.1461 427.727 14.0764C427.727 14.7796 427.727 15.4496 427.727 16.1163C428.058 16.1163 428.355 16.1163 428.703 16.1163C428.703 15.6602 428.703 15.2257 428.703 14.7912C429.944 14.7912 431.131 14.7912 432.373 14.7912C432.373 15.2506 432.373 15.6851 432.373 16.1097C432.722 16.1097 433.015 16.1097 433.297 16.1097C433.297 15.4065 433.297 14.7365 433.297 14.0665C433.032 14.0565 432.806 14.0466 432.534 14.0366C432.534 12.1527 432.534 10.2919 432.534 8.41622ZM431.465 14.0366C430.692 14.0366 429.965 14.0366 429.183 14.0366C430.173 12.5042 430.038 10.8574 430.11 9.21393C430.562 9.21393 431 9.21393 431.465 9.21393C431.465 10.8193 431.465 12.4097 431.465 14.0366ZM430.052 29.8166C428.295 30.1764 427.148 29.6905 426.647 28.4169C426.26 27.4384 426.275 26.4284 426.259 25.362C428.183 25.362 430.048 25.362 431.99 25.362C431.911 24.4748 431.902 23.6091 431.742 22.7716C431.538 21.7218 431.133 20.7151 430.295 19.8693C429.554 19.1214 428.662 18.9041 427.549 19.2059C426.393 19.5194 425.688 20.2458 425.214 21.1065C423.824 23.6323 423.705 26.2344 424.77 28.858C425.09 29.6507 425.632 30.3406 426.534 30.7818C428.047 31.5264 430.493 31.2677 432.027 30.1947C431.906 29.8962 431.783 29.5943 431.674 29.329C431.105 29.5048 430.592 29.7054 430.052 29.8166ZM427.125 21.2126C427.395 20.8329 427.755 20.5227 428.358 20.5509C428.949 20.5824 429.299 20.8909 429.536 21.2922C430.06 22.1928 430.148 23.158 430.143 24.1597C428.823 24.1597 427.547 24.1597 426.204 24.1597C426.304 23.0983 426.489 22.1065 427.125 21.2126ZM436.85 15.0947C437.326 15.045 437.801 14.9106 438.249 14.7547C438.748 14.5823 438.762 14.423 438.417 14.0549C438.113 14.1428 437.821 14.2489 437.516 14.3103C436.665 14.4827 436.058 14.2937 435.735 13.758C435.355 13.1311 435.374 12.4578 435.397 11.753C436.488 11.753 437.536 11.753 438.606 11.753C438.675 10.6982 438.546 9.70979 437.878 8.81093C437.291 8.02152 436.274 7.89548 435.466 8.54392C435.163 8.78605 434.908 9.09618 434.728 9.41128C434.228 10.2886 434.037 11.2339 434.155 12.1925C434.229 12.7878 434.393 13.3932 434.647 13.9537C435.015 14.7779 435.866 15.1992 436.85 15.0947ZM435.929 9.30182C436.291 8.85239 436.888 8.86566 437.208 9.33665C437.566 9.85905 437.609 10.4362 437.594 11.0415C436.816 11.0415 436.105 11.0415 435.359 11.0415C435.393 10.408 435.515 9.82091 435.929 9.30182ZM444.508 14.7614C444.135 14.7614 443.825 14.7862 443.523 14.7481C443.41 14.7332 443.291 14.5922 443.221 14.4877C442.687 13.6983 442.165 12.9039 441.636 12.1095C441.561 11.9968 441.477 11.889 441.279 11.7679C441.213 12.02 441.097 12.2721 441.087 12.5241C441.06 13.2572 441.077 13.9935 441.077 14.7448C440.71 14.7448 440.397 14.7448 440.049 14.7448C440.049 12.6485 440.049 10.5506 440.049 8.41788C440.39 8.41788 440.704 8.41788 441.062 8.41788C441.062 9.32172 441.062 10.2073 441.062 11.204C441.221 11.0498 441.304 10.9818 441.37 10.9039C441.954 10.209 442.56 9.52571 443.105 8.80927C443.352 8.48422 443.629 8.33662 444.084 8.39798C444.195 8.41291 444.312 8.39964 444.513 8.39964C444.407 8.53895 444.341 8.63513 444.264 8.72635C443.642 9.47098 443.031 10.2222 442.39 10.9586C442.218 11.1559 442.228 11.3002 442.362 11.4992C443.07 12.5623 443.764 13.6303 444.508 14.7614ZM425.539 11.9951C424.881 11.9951 424.267 11.9951 423.604 11.9951C423.604 12.9603 423.604 13.9156 423.604 14.8974C423.229 14.8974 422.905 14.8974 422.547 14.8974C422.547 12.7464 422.547 10.6004 422.547 8.41622C422.894 8.41622 423.209 8.41622 423.572 8.41622C423.572 9.28855 423.572 10.1526 423.572 11.0432C424.242 11.0432 424.864 11.0432 425.532 11.0432C425.532 10.1708 425.532 9.3068 425.532 8.42451C425.904 8.42451 426.227 8.42451 426.582 8.42451C426.582 10.5821 426.582 12.7314 426.582 14.9007C426.236 14.9007 425.912 14.9007 425.539 14.9007C425.539 13.9305 425.539 12.9736 425.539 11.9951ZM441.367 19.7366C441.395 19.7682 441.372 19.8279 441.372 19.876C441.372 23.4582 441.372 27.0437 441.372 30.6292C441.372 30.732 441.359 30.8398 441.351 30.9659C440.732 30.9659 440.135 30.9659 439.49 30.9659C439.49 29.2461 439.49 27.5395 439.49 25.78C438.611 25.78 437.778 25.78 436.946 25.78C436.067 25.78 436.067 25.78 436.067 26.5146C436.065 27.8497 436.067 29.1781 436.067 30.5148C436.067 30.6541 436.067 30.7967 436.067 30.9625C435.43 30.9625 434.835 30.9625 434.213 30.9625C434.213 27.1432 434.213 23.3404 434.213 19.5177C434.816 19.5177 435.402 19.5177 436.044 19.5177C436.044 21.08 436.044 22.6223 436.044 24.1962C437.231 24.1962 438.326 24.1962 439.476 24.1962C439.476 22.6356 439.476 21.0833 439.476 19.5094C440.062 19.5094 440.593 19.5011 441.122 19.5227C441.21 19.526 441.297 19.6537 441.367 19.7366ZM466.748 19.4862C467.321 19.5111 467.895 19.4945 468.497 19.4945C468.497 23.3371 468.497 27.1399 468.497 30.9692C467.804 30.9692 467.131 30.9692 466.404 30.9692C466.404 28.4649 466.404 25.9591 466.404 23.4416C465.239 25.9707 464.083 28.4782 462.927 30.9758C462.296 30.9758 461.719 30.9758 461.107 30.9758C461.107 27.1598 461.107 23.3437 461.107 19.5144C461.719 19.5144 462.316 19.5144 462.96 19.5144C462.96 21.881 462.96 24.2293 462.96 26.5777C462.991 26.581 463.016 26.5876 463.048 26.5909C463.371 25.901 463.703 25.2111 464.023 24.5212C464.754 22.944 465.491 21.3702 466.209 19.7881C466.315 19.5609 466.449 19.4763 466.748 19.4862ZM415.827 14.9123C416.179 14.9438 416.36 14.8294 416.522 14.569C417.142 13.5623 417.801 12.5706 418.444 11.5722C418.741 11.1145 418.778 11.1012 419.478 11.2355C419.478 12.4429 419.478 13.6602 419.478 14.8758C419.9 14.8758 420.267 14.8758 420.665 14.8758C420.665 14.6668 420.665 14.491 420.665 14.3119C420.665 11.35 420.665 8.38637 420.665 5.42276C420.665 4.93021 420.663 4.93187 420.05 4.93021C419.484 4.93021 418.922 4.93187 418.358 4.93021C417.562 4.92689 416.902 5.17566 416.36 5.65494C414.497 7.30342 414.987 10.4345 417.464 11.1029C416.632 12.3533 415.804 13.6005 414.937 14.9073C415.29 14.9073 415.562 14.8891 415.827 14.9123ZM417.179 9.77779C416.474 9.08623 416.273 8.28686 416.534 7.40956C416.555 7.3399 416.59 7.27357 416.618 7.20723C417.142 6.00155 417.834 5.66655 419.444 5.86722C419.444 7.30839 419.444 8.72966 419.444 10.1907C418.637 10.1824 417.794 10.3831 417.179 9.77779ZM445.654 13.9504C445.024 13.1129 444.906 12.1875 444.994 11.2339C445.072 10.403 445.313 9.61195 445.928 8.92868C446.724 8.04308 448.188 7.87557 449.256 8.57709C449.112 8.75786 448.979 8.92702 448.85 9.08788C448.805 9.09452 448.775 9.10613 448.75 9.09949C447.457 8.74957 446.679 9.06467 446.288 10.1227C445.997 10.8972 445.938 11.6966 446.105 12.491C446.424 14.0234 447.638 14.5541 449.397 13.967C449.56 14.6801 449.467 14.7663 448.636 14.962C447.459 15.2373 446.314 14.826 445.654 13.9504ZM494.268 20.3768C494.16 19.7549 493.636 19.3817 492.878 19.3734C492.644 19.3701 492.412 19.3934 492.185 19.3685C491.737 19.322 491.619 19.4713 491.622 19.8262C491.644 21.5675 491.637 23.3072 491.631 25.0436C491.626 25.9541 490.737 26.8894 489.669 27.1266C486.352 27.8546 483.038 28.5943 479.72 29.3157C479.347 29.397 478.954 29.4384 478.574 29.4351C478.408 29.4351 478.179 29.3091 478.108 29.1864C478.061 29.1051 478.207 28.9077 478.322 28.8066C478.473 28.6839 478.665 28.586 478.862 28.518C479.471 28.3008 480.09 28.1034 480.705 27.8994C483.168 27.0802 485.635 26.2708 488.095 25.4466C489.204 25.0718 489.803 24.3321 489.821 23.3985C489.878 20.3735 489.85 17.3485 489.836 14.3202C489.836 13.8409 489.588 13.4413 489.017 13.234C488.36 12.9985 487.783 13.1859 487.213 13.4578C483.727 15.1212 480.242 16.7813 476.755 18.4414C475.728 18.9306 475.156 19.6388 475.161 20.6471C475.172 23.5079 475.164 26.3637 475.168 29.2212C475.168 29.3638 475.182 29.5098 475.227 29.6457C475.571 30.6176 476.461 31.1748 477.692 31.1748C480.144 31.1814 482.606 31.1781 485.06 31.1781C487.506 31.1781 489.944 31.1814 492.39 31.1748C492.921 31.1748 493.41 31.0654 493.808 30.737C494.324 30.3224 494.297 29.795 494.297 29.2693C494.299 26.4815 494.299 23.6986 494.296 20.9092C494.301 20.735 494.297 20.5526 494.268 20.3768ZM484.068 19.4829C484.315 18.8411 484.854 18.4398 485.677 18.3369C486.221 18.2673 486.695 18.6039 486.773 19.0948C486.891 19.8511 485.946 20.73 485.012 20.7267C484.234 20.7267 483.8 20.1811 484.068 19.4829ZM448.255 23.6323C447.518 23.5759 446.769 23.6223 445.974 23.6223C445.974 22.2641 445.974 20.8909 445.974 19.521C445.41 19.521 444.9 19.521 444.375 19.521C444.375 23.2956 444.375 27.0437 444.375 30.9227C445.558 30.9227 446.701 30.9907 447.828 30.9045C449.518 30.7785 450.807 30.1068 451.411 28.7286C451.762 27.9293 451.769 27.0967 451.603 26.2609C451.294 24.7219 450.124 23.7865 448.255 23.6323ZM449.13 27.9906C448.833 29.251 447.543 29.8448 445.987 29.4766C445.987 28.0769 445.981 26.7004 446.001 25.3206C446.001 25.2294 446.16 25.0801 446.274 25.0585C447.83 24.7285 448.87 25.2459 449.14 26.5445C449.236 27.0105 449.24 27.523 449.13 27.9906ZM453.318 19.5094C455.625 19.5094 457.887 19.5094 460.179 19.5094C460.179 19.8892 460.179 20.2524 460.179 20.662C458.472 20.662 456.761 20.662 455.016 20.662C455.016 24.1199 455.016 27.5313 455.016 30.9675C454.436 30.9675 453.893 30.9675 453.323 30.9675C453.318 27.1564 453.318 23.347 453.318 19.5094Z" fill="#55607A"/>
<path d="M609.799 11.7393L621.169 24.0942H613.469L609.799 11.7393Z" fill="#55607A"/>
<path d="M621.169 24.0942L599.324 34.6586L613.47 24.0942H621.169Z" fill="#9FA7BC"/>
<path d="M609.799 11.7393L613.469 24.0942H604.248L609.799 11.7393Z" fill="#55607A"/>
<path d="M613.47 24.0942L599.324 34.6586L604.248 24.0942H613.47Z" fill="#9FA7BC"/>
<path d="M609.799 11.7393L604.248 24.0942L599.324 15.7949L609.799 11.7393Z" fill="#55607A"/>
<path d="M609.799 11.7394L599.324 15.795L592.072 3.59229L609.799 11.7394Z" fill="#55607A"/>
<path d="M599.324 15.7949L604.248 24.0942L599.324 34.6586V15.7949Z" fill="#9FA7BC"/>
<path d="M599.324 15.795V34.6586L592.072 3.59229L599.324 15.795Z" fill="#9FA7BC"/>
<path d="M626.2 16.5292V31.937H636.442V29.3317H629.217V16.5292H626.2ZM676.954 17.702C675.897 16.6276 673.561 16.565 673.561 16.565H665.19V31.9012H673.337C673.337 31.9012 675.781 31.9639 677.008 30.7105C678.252 29.4481 678.565 28.0873 678.565 25.4372V21.7218C678.565 21.7218 678.646 19.215 676.954 17.702ZM675.647 26.3504C675.647 27.7918 674.939 29.4213 672.791 29.4213L668.18 29.4392V19.0897H672.764C674.787 19.0897 675.647 20.1909 675.647 22.3306V26.3504ZM661.143 31.9101H664.133L658.932 16.556H654.572L649.504 31.9101H652.557L656.828 18.7674L661.143 31.9101ZM689.237 20.9161H692.12V19.8417C692.12 17.5408 690.482 16.2874 688.458 16.2874L683.722 16.2516C681.726 16.2516 680.105 17.7647 680.105 19.7611L680.123 21.8024C680.132 23.4676 681.43 24.8464 683.095 24.9627L688.27 25.3209C688.942 25.3656 689.47 25.9296 689.47 26.6101V28.0425C689.47 28.7677 689.013 29.4481 688.055 29.4481L684.286 29.4392C683.633 29.4392 682.952 28.7408 682.952 28.0873L682.943 26.8249H680.06V28.0873C680.06 30.5493 681.69 31.8564 683.758 31.8564H688.19C691.341 31.8564 692.415 30.236 692.415 28.2663V26.1087C692.415 24.2913 691.055 23.011 689.228 22.9573L684.349 22.5813C683.955 22.5813 683.095 22.2232 683.095 21.1399L683.078 20.2267C683.078 19.1792 683.758 18.6599 684.805 18.6599H687.778C688.584 18.6599 689.228 19.2508 689.228 20.0476V20.9161H689.237ZM698.593 17.702H699.497V17.3618C699.497 16.6456 698.987 16.2516 698.351 16.2516L696.874 16.2427C696.247 16.2427 695.746 16.7172 695.746 17.3439L695.755 17.9795C695.755 18.4988 696.167 18.9375 696.686 18.9733L698.306 19.0897C698.521 19.1076 698.682 19.2777 698.682 19.4926V19.9402C698.682 20.164 698.539 20.3789 698.244 20.3789H697.062C696.856 20.3789 696.641 20.1551 696.641 19.9581V19.5642H695.719V19.9581C695.719 20.728 696.229 21.1399 696.874 21.1399H698.262C699.246 21.1399 699.587 20.6296 699.587 20.0118V19.3225C699.587 18.7495 699.157 18.3555 698.593 18.3376L697.062 18.2213C696.937 18.2213 696.668 18.1138 696.668 17.7647L696.659 17.4782C696.659 17.1469 696.874 16.9858 697.196 16.9858H698.127C698.378 16.9858 698.584 17.1738 698.584 17.4244V17.702H698.593ZM703.078 16.2427V19.9312C703.078 20.1551 702.935 20.3699 702.64 20.3699H701.458C701.252 20.3699 701.037 20.1461 701.037 19.9492V16.2427H700.133V19.9492C700.133 20.7191 700.643 21.1309 701.288 21.1309H702.675C703.66 21.1309 704 20.6206 704 20.0029V16.2427H703.078ZM640.892 29.4839V25.1597H646.407V23.0021H640.892V19.0001H648.448V16.556H637.928V31.9101H648.502V29.4839H640.892Z" fill="#55607A"/>
<path d="M654.519 29.1973H659.111L658.422 27.0308H655.208L654.519 29.1973Z" fill="#55607A"/>
<path d="M695.406 20.8536C695.406 21.0058 695.28 21.1222 695.137 21.1222H694.806C694.653 21.1222 694.537 20.9968 694.537 20.8536V20.5313C694.537 20.3791 694.662 20.2627 694.806 20.2627H695.137C695.289 20.2627 695.406 20.388 695.406 20.5313V20.8536Z" fill="#55607A"/>
</svg>
