<svg width="704" height="43" viewBox="0 0 704 43" fill="none" xmlns="http://www.w3.org/2000/svg">
<path fill-rule="evenodd" clip-rule="evenodd" d="M22.4984 8.05337C23.9937 8.05337 25.2063 6.84069 25.2063 5.34553C25.2063 3.84979 23.9937 2.63721 22.4984 2.63721C21.0026 2.63721 19.79 3.84979 19.79 5.34553C19.79 6.84069 21.0026 8.05337 22.4984 8.05337Z" fill="#55607A"/>
<path fill-rule="evenodd" clip-rule="evenodd" d="M33.9739 8.05337C35.4698 8.05337 36.6825 6.84069 36.6825 5.34553C36.6825 3.84979 35.4698 2.63721 33.9739 2.63721C32.4782 2.63721 31.2656 3.84979 31.2656 5.34553C31.2656 6.84069 32.4782 8.05337 33.9739 8.05337Z" fill="#55607A"/>
<path fill-rule="evenodd" clip-rule="evenodd" d="M42.9571 19.3563L39.5899 13.5865C39.1384 12.8124 38.1441 12.5501 37.3688 13.0024C36.5941 13.4543 36.3325 14.449 36.785 15.2238L37.1851 15.9099C34.8404 18.3366 31.6335 19.7126 28.2243 19.7126C24.8188 19.7126 21.6147 18.3389 19.2703 15.9172L19.675 15.2238C20.1271 14.449 19.8657 13.4543 19.091 13.0024C18.3154 12.5491 17.3211 12.8121 16.8697 13.5865L13.5027 19.3563C13.0509 20.1313 13.3123 21.1259 14.0869 21.5779C14.3443 21.7279 14.6261 21.8001 14.904 21.8001C15.4629 21.8001 16.0065 21.5108 16.3082 20.9935L17.5841 18.8075C20.4681 21.4663 24.2361 22.9603 28.2243 22.9603C32.2161 22.9603 35.9871 21.4639 38.8719 18.8L40.1516 20.9935C40.4535 21.5108 40.9969 21.8001 41.5558 21.8001C41.8333 21.8001 42.1151 21.7279 42.3726 21.5779C43.1472 21.1259 43.4091 20.1313 42.9571 19.3563Z" fill="#55607A"/>
<path fill-rule="evenodd" clip-rule="evenodd" d="M3.47595 37.6923C3.36595 37.6923 3.2798 37.6611 3.21747 37.5988C3.15513 37.5364 3.10564 37.4759 3.06897 37.4173L2.03497 35.6023V39.2433C2.03497 39.3239 2.00563 39.3936 1.94696 39.4523C1.88829 39.5109 1.81864 39.5403 1.73798 39.5403H0.296997C0.21633 39.5403 0.146619 39.5109 0.0879517 39.4523C0.0292847 39.3936 0 39.3239 0 39.2433V32.1373C0 32.0566 0.0292847 31.9869 0.0879517 31.9283C0.146619 31.8696 0.21633 31.8403 0.296997 31.8403H1.573C1.71967 31.8403 1.82962 31.8806 1.90295 31.9613C1.97629 32.0419 2.02396 32.1006 2.04596 32.1373L3.828 35.1843L5.60999 32.1373C5.63199 32.1006 5.67966 32.0419 5.75299 31.9613C5.82632 31.8806 5.93634 31.8403 6.08301 31.8403H7.35901C7.43968 31.8403 7.50933 31.8696 7.56799 31.9283C7.62666 31.9869 7.65601 32.0566 7.65601 32.1373V39.2433C7.65601 39.3239 7.62666 39.3936 7.56799 39.4523C7.50933 39.5109 7.43968 39.5403 7.35901 39.5403H5.91797C5.8373 39.5403 5.76765 39.5109 5.70898 39.4523C5.65032 39.3936 5.62097 39.3239 5.62097 39.2433V35.6023L4.58698 37.4173C4.55031 37.4759 4.50081 37.5364 4.43848 37.5988C4.37614 37.6611 4.28999 37.6923 4.17999 37.6923H3.47595ZM9.94299 34.7113C9.96499 34.3006 10.0548 33.9138 10.2125 33.5508C10.3701 33.1878 10.5938 32.8724 10.8835 32.6048C11.1732 32.3371 11.5251 32.1244 11.9395 31.9668C12.3538 31.8091 12.8323 31.7303 13.375 31.7303C13.9103 31.7303 14.387 31.8091 14.805 31.9668C15.223 32.1244 15.5768 32.3371 15.8665 32.6048C16.1561 32.8724 16.3798 33.1878 16.5375 33.5508C16.6951 33.9138 16.785 34.3006 16.807 34.7113C16.8217 35.0266 16.829 35.3566 16.829 35.7013C16.829 36.0459 16.8217 36.3686 16.807 36.6693C16.785 37.0799 16.6951 37.4668 16.5375 37.8298C16.3798 38.1928 16.1561 38.5099 15.8665 38.7813C15.5768 39.0526 15.223 39.2653 14.805 39.4193C14.387 39.5733 13.9103 39.6503 13.375 39.6503C12.8323 39.6503 12.3538 39.5733 11.9395 39.4193C11.5251 39.2653 11.1732 39.0526 10.8835 38.7813C10.5938 38.5099 10.3701 38.1928 10.2125 37.8298C10.0548 37.4668 9.96499 37.0799 9.94299 36.6693C9.92833 36.3686 9.92096 36.0459 9.92096 35.7013C9.92096 35.3566 9.92833 35.0266 9.94299 34.7113ZM14.772 36.6143C14.7793 36.4823 14.7867 36.3356 14.794 36.1743C14.8013 36.0129 14.805 35.8479 14.805 35.6793C14.805 35.5106 14.8013 35.3474 14.794 35.1898C14.7867 35.0321 14.7793 34.8909 14.772 34.7663C14.7573 34.5829 14.7188 34.4143 14.6565 34.2603C14.5942 34.1063 14.5061 33.9724 14.3925 33.8588C14.2788 33.7451 14.1377 33.6553 13.969 33.5893C13.8003 33.5233 13.6023 33.4903 13.375 33.4903C13.1477 33.4903 12.9497 33.5233 12.781 33.5893C12.6123 33.6553 12.4711 33.7451 12.3575 33.8588C12.2438 33.9724 12.1558 34.1063 12.0935 34.2603C12.0312 34.4143 11.9926 34.5829 11.978 34.7663C11.9633 34.8909 11.9542 35.0321 11.9505 35.1898C11.9468 35.3474 11.945 35.5106 11.945 35.6793C11.945 35.8479 11.9468 36.0129 11.9505 36.1743C11.9542 36.3356 11.9633 36.4823 11.978 36.6143C12.0073 36.9809 12.1338 37.2853 12.3575 37.5273C12.5812 37.7693 12.9203 37.8903 13.375 37.8903C13.8297 37.8903 14.167 37.7693 14.387 37.5273C14.607 37.2853 14.7353 36.9809 14.772 36.6143ZM22.317 31.3453C21.9796 31.3453 21.6937 31.2958 21.459 31.1968C21.2243 31.0978 21.0318 30.9694 20.8815 30.8118C20.7311 30.6541 20.623 30.4799 20.557 30.2893C20.491 30.0986 20.458 29.9153 20.458 29.7393C20.458 29.6806 20.4763 29.6311 20.513 29.5908C20.5497 29.5504 20.601 29.5303 20.667 29.5303H21.591C21.657 29.5303 21.7083 29.5504 21.745 29.5908C21.7817 29.6311 21.8 29.6806 21.8 29.7393C21.8 29.8786 21.844 30.0051 21.932 30.1188C22.02 30.2324 22.1483 30.2893 22.317 30.2893C22.4856 30.2893 22.614 30.2324 22.702 30.1188C22.79 30.0051 22.834 29.8786 22.834 29.7393C22.834 29.6806 22.8523 29.6311 22.889 29.5908C22.9256 29.5504 22.977 29.5303 23.043 29.5303H23.967C24.033 29.5303 24.0843 29.5504 24.121 29.5908C24.1576 29.6311 24.176 29.6806 24.176 29.7393C24.176 29.9153 24.143 30.0986 24.077 30.2893C24.011 30.4799 23.9028 30.6541 23.7525 30.8118C23.6022 30.9694 23.4097 31.0978 23.175 31.1968C22.9403 31.2958 22.6543 31.3453 22.317 31.3453ZM19.3914 39.5403C19.3108 39.5403 19.2411 39.5109 19.1824 39.4523C19.1238 39.3936 19.0944 39.3239 19.0944 39.2433V32.1373C19.0944 32.0566 19.1238 31.9869 19.1824 31.9283C19.2411 31.8696 19.3108 31.8403 19.3914 31.8403H20.8323C20.913 31.8403 20.9827 31.8696 21.0413 31.9283C21.1 31.9869 21.1293 32.0566 21.1293 32.1373V35.8553L23.6481 32.0933C23.6701 32.0566 23.7196 32.0053 23.7966 31.9393C23.8736 31.8733 23.9745 31.8403 24.0991 31.8403H25.243C25.3237 31.8403 25.3934 31.8696 25.452 31.9283C25.5107 31.9869 25.54 32.0566 25.54 32.1373V39.2433C25.54 39.3239 25.5107 39.3936 25.452 39.4523C25.3934 39.5109 25.3237 39.5403 25.243 39.5403H23.8021C23.7215 39.5403 23.6518 39.5109 23.5931 39.4523C23.5345 39.3936 23.5051 39.3239 23.5051 39.2433V35.5253L20.9863 39.2873C20.9643 39.3239 20.9148 39.3753 20.8378 39.4413C20.7608 39.5073 20.66 39.5403 20.5353 39.5403H19.3914ZM34.888 37.6923C34.778 37.6923 34.6918 37.6611 34.6295 37.5988C34.5671 37.5364 34.5176 37.4759 34.481 37.4173L33.447 35.6023V39.2433C33.447 39.3239 33.4177 39.3936 33.359 39.4523C33.3003 39.5109 33.2306 39.5403 33.15 39.5403H31.709C31.6283 39.5403 31.5587 39.5109 31.5 39.4523C31.4413 39.3936 31.412 39.3239 31.412 39.2433V32.1373C31.412 32.0566 31.4413 31.9869 31.5 31.9283C31.5587 31.8696 31.6283 31.8403 31.709 31.8403H32.985C33.1317 31.8403 33.2417 31.8806 33.315 31.9613C33.3883 32.0419 33.436 32.1006 33.458 32.1373L35.24 35.1843L37.022 32.1373C37.044 32.1006 37.0916 32.0419 37.165 31.9613C37.2383 31.8806 37.3483 31.8403 37.495 31.8403H38.771C38.8517 31.8403 38.9213 31.8696 38.98 31.9283C39.0386 31.9869 39.068 32.0566 39.068 32.1373V39.2433C39.068 39.3239 39.0386 39.3936 38.98 39.4523C38.9213 39.5109 38.8517 39.5403 38.771 39.5403H37.33C37.2493 39.5403 37.1796 39.5109 37.121 39.4523C37.0623 39.3936 37.033 39.3239 37.033 39.2433V35.6023L35.999 37.4173C35.9623 37.4759 35.9128 37.5364 35.8505 37.5988C35.7881 37.6611 35.702 37.6923 35.592 37.6923H34.888ZM43.0493 39.5403C43.174 39.5403 43.2748 39.5073 43.3518 39.4413C43.4288 39.3753 43.4783 39.3239 43.5003 39.2873L46.0192 35.5253V39.2433C46.0192 39.3239 46.0485 39.3936 46.1071 39.4523C46.1658 39.5109 46.2355 39.5403 46.3162 39.5403H47.757C47.8377 39.5403 47.9073 39.5109 47.966 39.4523C48.0247 39.3936 48.054 39.3239 48.054 39.2433V32.1373C48.054 32.0566 48.0247 31.9869 47.966 31.9283C47.9073 31.8696 47.8377 31.8403 47.757 31.8403H46.6131C46.4884 31.8403 46.3876 31.8733 46.3106 31.9393C46.2336 32.0053 46.1842 32.0566 46.1622 32.0933L43.6433 35.8553V32.1373C43.6433 32.0566 43.614 31.9869 43.5553 31.9283C43.4966 31.8696 43.427 31.8403 43.3463 31.8403H41.9054C41.8247 31.8403 41.7551 31.8696 41.6964 31.9283C41.6377 31.9869 41.6084 32.0566 41.6084 32.1373V39.2433C41.6084 39.3239 41.6377 39.3936 41.6964 39.4523C41.7551 39.5109 41.8247 39.5403 41.9054 39.5403H43.0493ZM54.037 31.8403C54.5063 31.8403 54.928 31.8934 55.302 31.9998C55.676 32.1061 55.995 32.2674 56.259 32.4838C56.523 32.7001 56.7265 32.9696 56.8695 33.2923C57.0125 33.6149 57.084 33.9889 57.084 34.4143C57.084 34.8469 57.0125 35.2246 56.8695 35.5473C56.7265 35.8699 56.523 36.1376 56.259 36.3503C55.995 36.5629 55.676 36.7243 55.302 36.8343C54.928 36.9443 54.5063 36.9993 54.037 36.9993H52.629V39.2433C52.629 39.3239 52.5996 39.3936 52.541 39.4523C52.4823 39.5109 52.4126 39.5403 52.332 39.5403H50.891C50.8103 39.5403 50.7407 39.5109 50.682 39.4523C50.6233 39.3936 50.594 39.3239 50.594 39.2433V32.1373C50.594 32.0566 50.6233 31.9869 50.682 31.9283C50.7407 31.8696 50.8103 31.8403 50.891 31.8403H54.037ZM52.629 35.2833H53.982C54.29 35.2833 54.5448 35.2154 54.7465 35.0798C54.9481 34.9441 55.049 34.7223 55.049 34.4143C55.049 34.1063 54.9481 33.8844 54.7465 33.7488C54.5448 33.6131 54.29 33.5453 53.982 33.5453H52.629V35.2833Z" fill="#55607A"/>
<path fill-rule="evenodd" clip-rule="evenodd" d="M138.474 1.73193L121.663 11.4378V30.8496L138.474 40.5554L155.285 30.8496V11.4378L138.474 1.73193Z" stroke="#55607A" stroke-width="3"/>
<path fill-rule="evenodd" clip-rule="evenodd" d="M172.586 25.132C174.566 25.132 175.523 24.12 175.523 22.778C175.523 20.039 171.31 20.82 171.31 19.654C171.31 19.214 171.684 18.917 172.355 18.917C173.103 18.917 173.895 19.17 174.489 19.72L175.358 18.576C174.632 17.905 173.664 17.553 172.498 17.553C170.771 17.553 169.715 18.565 169.715 19.786C169.715 22.547 173.939 21.656 173.939 22.954C173.939 23.372 173.521 23.768 172.663 23.768C171.651 23.768 170.848 23.317 170.331 22.778L169.484 23.966C170.166 24.659 171.178 25.132 172.586 25.132ZM181.055 25.132C178.844 25.132 177.227 23.548 177.227 21.337C177.227 19.126 178.844 17.542 181.055 17.542C183.277 17.542 184.894 19.126 184.894 21.337C184.894 23.548 183.277 25.132 181.055 25.132ZM181.055 23.746C182.408 23.746 183.288 22.701 183.288 21.337C183.288 19.962 182.408 18.928 181.055 18.928C179.702 18.928 178.833 19.962 178.833 21.337C178.833 22.701 179.702 23.746 181.055 23.746ZM190.547 25.132C192.164 25.132 193.088 24.241 193.616 23.328L192.274 22.679C191.966 23.284 191.306 23.746 190.547 23.746C189.216 23.746 188.248 22.723 188.248 21.337C188.248 19.951 189.216 18.928 190.547 18.928C191.306 18.928 191.966 19.401 192.274 19.995L193.616 19.335C193.099 18.422 192.164 17.542 190.547 17.542C188.347 17.542 186.642 19.082 186.642 21.337C186.642 23.592 188.347 25.132 190.547 25.132ZM197.113 25V17.663H195.551V25H197.113ZM203.041 25.132C200.83 25.132 199.213 23.548 199.213 21.337C199.213 19.126 200.83 17.542 203.041 17.542C205.263 17.542 206.88 19.126 206.88 21.337C206.88 23.548 205.263 25.132 203.041 25.132ZM203.041 23.746C204.394 23.746 205.274 22.701 205.274 21.337C205.274 19.962 204.394 18.928 203.041 18.928C201.688 18.928 200.819 19.962 200.819 21.337C200.819 22.701 201.688 23.746 203.041 23.746ZM215.58 25V17.663H214.007V20.545H210.542V17.663H208.98V25H210.542V21.92H214.007V25H215.58ZM221.332 25.132C223.565 25.132 224.643 23.889 224.643 22.063V17.663H223.048V22.019C223.048 23.042 222.465 23.746 221.332 23.746C220.199 23.746 219.605 23.042 219.605 22.019V17.663H218.021V22.074C218.021 23.878 219.099 25.132 221.332 25.132ZM231.066 25H227.084V17.663H230.945C232.342 17.663 233.057 18.554 233.057 19.533C233.057 20.457 232.485 21.073 231.792 21.216C232.573 21.337 233.2 22.096 233.2 23.02C233.2 24.12 232.463 25 231.066 25ZM230.604 20.6C231.132 20.6 231.462 20.27 231.462 19.808C231.462 19.346 231.132 19.005 230.604 19.005H228.646V20.6H230.604ZM230.659 23.647C231.253 23.647 231.605 23.328 231.605 22.8C231.605 22.338 231.275 21.942 230.659 21.942H228.646V23.647H230.659Z" fill="#55607A"/>
<path fill-rule="evenodd" clip-rule="evenodd" d="M245.919 25.0001H244.126L242.685 22.3931H241.542V25.0001H239.979V17.6631H243.411C244.94 17.6631 245.875 18.6641 245.875 20.0281C245.875 21.3261 245.061 22.0191 244.269 22.2061L245.919 25.0001ZM243.18 21.0181C243.807 21.0181 244.28 20.6441 244.28 20.0281C244.28 19.4121 243.807 19.0381 243.18 19.0381H241.542V21.0181H243.18ZM251.363 25.1321C253.596 25.1321 254.674 23.8891 254.674 22.0631V17.6631H253.079V22.0191C253.079 23.0421 252.496 23.7461 251.363 23.7461C250.23 23.7461 249.636 23.0421 249.636 22.0191V17.6631H248.052V22.0741C248.052 23.8781 249.13 25.1321 251.363 25.1321Z" fill="#55607A"/>
<path d="M236.254 23C236.806 23 237.254 22.5523 237.254 22C237.254 21.4477 236.806 21 236.254 21C235.702 21 235.254 21.4477 235.254 22C235.254 22.5523 235.702 23 236.254 23Z" fill="#55607A"/>
<path d="M145.254 16.5C145.254 15.6716 144.582 15 143.754 15C142.925 15 142.254 15.6716 142.254 16.5V25.5C142.254 26.3284 142.925 27 143.754 27C144.582 27 145.254 26.3284 145.254 25.5V16.5Z" fill="#55607A"/>
<path d="M137.465 23.4573C138.216 23.1072 138.541 22.2148 138.191 21.464C137.84 20.7131 136.948 20.3883 136.197 20.7384L128.04 24.542C127.29 24.8921 126.965 25.7846 127.315 26.5354C127.665 27.2862 128.557 27.611 129.308 27.2609L137.465 23.4573Z" fill="#55607A"/>
<path d="M137.465 18.4573C138.216 18.1072 138.541 17.2148 138.191 16.464C137.84 15.7131 136.948 15.3883 136.197 15.7384L128.04 19.542C127.29 19.8921 126.965 20.7846 127.315 21.5354C127.665 22.2862 128.557 22.611 129.308 22.2609L137.465 18.4573Z" fill="#55607A"/>
<path d="M150.254 16.5C150.254 15.6716 149.582 15 148.754 15C147.925 15 147.254 15.6716 147.254 16.5V25.5C147.254 26.3284 147.925 27 148.754 27C149.582 27 150.254 26.3284 150.254 25.5V16.5Z" fill="#55607A"/>
<path d="M333.869 26.4927L319.253 26.4927L322.641 10.6084L336.926 10.6084L336.315 13.819H328.588L327.986 16.448H334.87L334.036 19.7452H327.305L326.484 23.1203H334.639" fill="#55607A"/>
<path d="M345.708 14.3083C344.182 14.3361 343.155 14.935 342.706 16.0869C342.028 17.8312 341.317 20.4677 341.317 21.7565C341.317 22.2093 341.003 24.4505 343.66 24.4505C346.43 24.4505 347.261 21.3748 347.709 19.0335C348.21 16.4208 348.765 14.2526 345.708 14.3083ZM339.26 26.704C335.336 25.7724 335.647 23.9751 335.647 22.2565C335.647 19.8825 336.537 15.1425 338.427 13.2524C339.609 12.07 341.747 11.6493 345.986 11.5853C349.655 11.5296 350.194 11.9651 351.715 12.4662C354.101 13.2524 353.91 15.9747 353.91 15.9747L353.268 19.7557H348.432L358.27 31.6787H351.433L347.376 26.537C347.376 26.537 342.54 27.4824 339.26 26.704Z" fill="#55607A"/>
<path d="M359.883 26.9263L354.436 20.5894L356.234 12.4003L362.106 12.4003C362.106 12.4003 360.16 21.4789 359.911 22.4523C359.581 23.7449 360.95 24.3139 361.939 24.3139C363.381 24.3139 364.055 23.6444 364.2 23.3414C364.774 22.1461 366.886 12.4003 366.886 12.4003L372.722 12.4186C372.722 12.4186 370.973 23.6331 369.332 24.9812C367.776 26.2594 366.775 26.6478 364.718 26.9263" fill="#55607A"/>
<path d="M377.754 26.52H371.908L375.043 12.4003L380.971 12.4003" fill="#55607A"/>
<path d="M386.101 26.5361L380.137 26.4912L383.2 12.3416L395.965 12.3416L395.192 15.2199H388.618L388.075 17.6544H393.678L393.204 20.5183H387.381" fill="#55607A"/>
<path d="M398.318 20.3558H401.982L401.381 15.5535L398.318 20.3558ZM408.774 26.4844L402.574 26.4844L402.282 23.4392H396.079L394.078 26.4844H390.076L400.081 12.2927H407.09L408.774 26.4844Z" fill="#55607A"/>
<path d="M425.247 26.4844L418.021 26.4844L415.534 22.1971L411.287 26.4844H405.499L413.281 19.4471L408.565 12.3324L416.12 12.3324L418.459 16.141L422.132 12.3324L427.842 12.3324L420.245 19.0084" fill="#55607A"/>
<path d="M540.047 22.4561C540.394 22.4574 540.431 22.4917 540.491 22.5035C540.529 22.8446 540.276 24.4488 539.048 24.4488C538.414 24.4488 538.25 23.9694 538.25 23.6823C538.25 23.1252 538.552 22.4561 540.047 22.4561ZM506.987 22.4561C507.336 22.4574 507.373 22.4917 507.431 22.5035C507.471 22.8446 507.216 24.4488 505.988 24.4488C505.355 24.4488 505.19 23.9694 505.19 23.6823C505.19 23.1252 505.493 22.4561 506.987 22.4561ZM537.264 2.04688C532.32 2.04819 527.814 3.91579 524.417 6.98323C521.018 3.91974 516.515 2.05083 511.575 2.05083C500.936 2.11931 492.421 10.646 492.421 21.143C492.421 31.6808 501.002 40.2338 511.575 40.2338C514.867 40.2338 519.163 38.5761 524.463 35.2606C529.704 38.5814 533.974 40.2413 537.272 40.2404C547.851 40.2365 556.424 31.6861 556.421 21.143C556.421 10.5907 547.843 2.04424 537.264 2.04688ZM500.24 26.0056L501.401 18.7064L498.781 26.0056H497.376L497.194 18.7064L495.953 26.0056H493.985L495.616 16.3252H498.592L498.696 22.2651L500.706 16.3252H503.935L502.326 26.0056H500.24ZM507.197 25.9951L507.265 25.2167C507.233 25.2206 506.612 26.1505 505.173 26.1505C504.42 26.1505 503.204 25.7409 503.204 23.9602C503.204 21.6962 505.057 20.9454 506.821 20.9454C507.098 20.9454 507.697 20.9955 507.697 20.9955C507.697 20.9955 507.764 20.8572 507.764 20.4831C507.764 19.8681 507.209 19.7838 506.449 19.7838C505.111 19.7838 504.227 20.1407 504.227 20.1407L504.523 18.389C504.523 18.389 505.596 17.9412 506.992 17.9412C507.715 17.9412 509.794 18.0176 509.794 20.3923L508.993 25.9898H507.197V25.9951ZM514.788 23.5256C514.788 26.2269 512.162 26.111 511.703 26.111C509.992 26.111 509.464 25.8752 509.415 25.862L509.687 24.084C509.689 24.0682 510.546 24.3935 511.499 24.3935C512.048 24.3935 512.762 24.3395 512.762 23.6849C512.762 22.705 510.209 22.9395 510.209 20.6122C510.209 18.5589 511.739 17.9583 513.248 17.9583C514.414 17.9583 515.13 18.1177 515.13 18.1177L514.872 19.9115C514.872 19.9115 513.766 19.8207 513.479 19.8207C512.754 19.8207 512.359 19.9787 512.359 20.4845C512.357 21.4999 514.788 21.0007 514.788 23.5256ZM517.941 24.2328C518.122 24.2328 518.326 24.1709 518.466 24.1709L518.211 25.8976C518.007 25.9542 517.427 26.1597 516.683 26.165C515.732 26.1729 515.057 25.6434 515.057 24.4422C515.057 23.6362 516.216 16.9942 516.261 16.9508H518.3L518.093 18.1388H519.11L518.85 20.0525H517.77L517.197 23.5782C517.153 23.8575 517.231 24.2328 517.941 24.2328ZM522.426 17.9135C524.664 17.9135 525.334 19.5467 525.334 20.8862C525.334 21.4222 525.064 22.7393 525.064 22.7393H520.92C520.92 22.7393 520.537 24.3658 522.727 24.3658C523.754 24.3658 524.893 23.8654 524.893 23.8654L524.533 25.8252C524.533 25.8252 523.875 26.1597 522.379 26.1597C520.758 26.1597 518.856 25.4761 518.856 22.6049C518.858 20.117 520.375 17.9149 522.426 17.9135ZM527.372 26.0201H525.279L526.551 18.1414H528.45L528.268 19.2833C528.268 19.2833 528.944 18.0413 529.857 18.0413C530.123 18.0413 530.251 18.0676 530.251 18.0676C529.98 18.6182 529.741 19.1226 529.493 20.4252C528.076 19.9234 527.968 22.6537 527.372 26.0201ZM535.347 25.8976C535.347 25.8976 534.25 26.1768 533.563 26.1768C531.129 26.1768 529.893 24.5028 529.893 21.9675C529.893 18.144 532.183 16.1079 534.537 16.1079C535.6 16.1079 536.833 16.6057 536.833 16.6057L536.5 18.7591C536.5 18.7591 535.666 18.1783 534.629 18.1783C533.242 18.1783 531.997 19.498 531.997 21.8964C531.997 23.0778 532.577 24.1788 534.025 24.1788C534.714 24.1788 535.711 23.6797 535.711 23.6797L535.347 25.8976ZM540.256 25.9951L540.324 25.2167C540.291 25.2206 539.67 26.1505 538.233 26.1505C537.479 26.1505 536.264 25.7409 536.264 23.9602C536.264 21.6962 538.116 20.9454 539.879 20.9454C540.157 20.9454 540.757 20.9955 540.757 20.9955C540.757 20.9955 540.825 20.8585 540.825 20.4845C540.825 19.8694 540.27 19.7851 539.509 19.7851C538.17 19.7851 537.288 20.142 537.288 20.142L537.584 18.3903C537.584 18.3903 538.657 17.9425 540.055 17.9425C540.776 17.9425 542.856 18.0189 542.855 20.3936L542.054 25.9911C542.053 25.9951 540.256 25.9951 540.256 25.9951ZM544.494 26.0201H542.4L543.673 18.1414H545.573L545.391 19.2833C545.391 19.2833 546.069 18.0413 546.982 18.0413C547.247 18.0413 547.374 18.0676 547.374 18.0676C547.105 18.6182 546.863 19.1226 546.616 20.4252C545.198 19.9234 545.09 22.6537 544.494 26.0201ZM551.801 19.0568L552.243 16.337L554.287 16.3331L552.727 25.9977H550.744L550.833 25.272C550.833 25.272 550.156 26.1228 548.932 26.1228C547.237 26.1228 546.406 24.491 546.406 22.8236C546.406 20.2448 547.962 17.9965 549.831 17.9965C551.033 17.9992 551.801 19.0568 551.801 19.0568ZM523.372 21.1272H521.108C521.108 20.9942 521.322 19.7337 522.433 19.7337C523.584 19.7337 523.372 21.0245 523.372 21.1272ZM550.184 19.955C550.917 19.955 551.294 20.4568 551.294 21.6395C551.294 22.7103 550.761 24.1472 549.656 24.1472C548.922 24.1472 548.578 23.5308 548.578 22.5694C548.577 20.9928 549.286 19.955 550.184 19.955Z" fill="#55607A"/>
<path fill-rule="evenodd" clip-rule="evenodd" d="M672.03 31.0793C671.918 31.1798 671.786 31.1594 671.693 31.0389L670.794 29.7538C669.97 28.5686 668.921 27.8257 666.974 27.8257C663.303 27.8257 661 24.9938 661 20.4947C661 15.9756 663.303 13.1436 666.974 13.1436C670.644 13.1436 672.929 15.9756 672.929 20.4947C672.929 22.7844 672.18 25.114 670.925 25.9176C670.7 26.0585 670.7 26.1185 670.925 26.1988C672.011 26.6205 672.517 27.1228 673.097 27.926L673.94 29.151C674.034 29.2715 674.015 29.4119 673.902 29.5128L672.03 31.0793ZM666.974 24.9333C668.79 24.9333 669.876 23.2462 669.876 20.4947C669.876 17.6827 668.79 16.056 666.974 16.056C665.195 16.056 664.053 17.6827 664.053 20.4947C664.053 23.2462 665.195 24.9333 666.974 24.9333Z" fill="#55607A"/>
<path fill-rule="evenodd" clip-rule="evenodd" d="M678 26.8868C678 27.0451 677.907 27.1436 677.759 27.1436H675.241C675.093 27.1436 675 27.0451 675 26.8868V13.4005C675 13.2427 675.093 13.1436 675.241 13.1436H677.759C677.907 13.1436 678 13.2427 678 13.4005V26.8868Z" fill="#55607A"/>
<path fill-rule="evenodd" clip-rule="evenodd" d="M695.657 22.8983C695.317 24.2608 695.033 25.5641 694.787 26.9068C694.768 27.0647 694.674 27.1436 694.522 27.1436H691.061C690.91 27.1436 690.815 27.0647 690.797 26.9068C690.589 25.7618 690.381 24.7151 690.116 23.6287L689.53 21.062C689.416 20.5488 689.265 19.719 689.151 19.0278C689.113 18.7515 688.887 18.7515 688.849 19.0278C688.735 19.719 688.584 20.5288 688.471 21.062L687.884 23.6287C687.638 24.7151 687.43 25.7618 687.203 26.9068C687.185 27.0647 687.09 27.1436 686.939 27.1436H683.478C683.326 27.1436 683.231 27.0647 683.213 26.9068C682.967 25.5641 682.683 24.2608 682.343 22.8983L680.016 13.4202C679.96 13.262 680.054 13.1436 680.225 13.1436H682.834C682.986 13.1436 683.08 13.2227 683.118 13.3607L684.404 18.6922C684.726 20.035 684.991 21.7529 685.104 23.0364C685.123 23.2931 685.407 23.3131 685.444 23.0364C685.614 21.7726 685.917 20.035 686.277 18.6922L687.657 13.3607C687.695 13.2227 687.789 13.1436 687.922 13.1436H690.078C690.21 13.1436 690.305 13.2227 690.343 13.3607L691.742 18.6922C692.101 20.035 692.404 21.7726 692.575 23.0364C692.593 23.3131 692.877 23.2931 692.896 23.0364C692.991 21.7529 693.274 20.035 693.596 18.6922L694.882 13.3607C694.92 13.2227 695.014 13.1436 695.165 13.1436H697.775C697.946 13.1436 698.04 13.262 697.983 13.4202L695.657 22.8983Z" fill="#55607A"/>
<path fill-rule="evenodd" clip-rule="evenodd" d="M704 26.8868C704 27.0451 703.907 27.1436 703.759 27.1436H701.241C701.093 27.1436 701 27.0451 701 26.8868V13.4005C701 13.2427 701.093 13.1436 701.241 13.1436H703.759C703.907 13.1436 704 13.2427 704 13.4005V26.8868Z" fill="#55607A"/>
<path fill-rule="evenodd" clip-rule="evenodd" d="M645.258 28.4322C644.935 28.4322 644.665 28.5444 644.499 28.7481C644.074 29.2694 644.265 30.1872 644.916 30.7531C645.2 30.9999 645.61 31.1477 646.011 31.1477C646.42 31.1477 646.762 30.9949 646.972 30.7181C647.351 30.2131 647.133 29.4973 646.417 28.8951C646.063 28.5968 645.651 28.4322 645.258 28.4322ZM648.826 25.8124C648.51 25.7204 648.273 25.7889 648.156 26.0013C647.979 26.3226 648.11 26.9582 648.467 27.5121C648.828 28.0732 649.135 28.3577 649.379 28.3577C649.463 28.3577 649.538 28.3224 649.597 28.2562C649.732 28.1012 649.777 27.7764 649.72 27.3655C649.663 26.9456 649.404 26.082 648.826 25.8124ZM655.894 38.5391C656.221 38.9424 655.723 39.3518 655.352 39.0247C651.649 35.7604 648.534 34.8359 645.453 34.7077C643.818 34.6398 642.192 34.7957 640.493 34.9451C640.154 34.9748 639.812 35.0044 639.466 35.0317C639.315 35.0439 639.162 35.0552 639.01 35.0664C638.411 35.1306 637.804 35.1648 637.189 35.1648C634.29 35.1648 631.554 34.458 629.057 33.0631C626.551 31.6646 624.56 29.7109 623.138 27.2563C621.719 24.8072 621 22.1009 621 19.2124C621 16.327 621.719 13.6091 623.135 11.1347C624.555 8.65655 626.524 6.68359 628.987 5.27105C631.45 3.85939 634.137 3.14355 636.974 3.14355C639.936 3.14355 642.704 3.85071 645.203 5.24556C647.708 6.64429 649.706 8.6038 651.14 11.0704C652.573 13.5341 653.299 16.2475 653.299 19.1352C653.299 20.25 653.19 21.3387 652.977 22.3974C652.95 22.551 652.91 22.7372 652.854 22.9542C652.812 23.1279 652.768 23.301 652.72 23.4731L652.707 23.4656C652.42 24.3797 651.886 25.6735 650.892 27.3347C650.785 27.5094 650.725 27.3763 650.711 27.2786C650.363 24.8353 649.287 22.9799 647.391 21.7815C647.359 21.7619 647.327 21.7429 647.296 21.7238C646.985 21.5335 646.653 21.3606 646.299 21.2048C645.847 21.0068 645.359 20.8359 644.835 20.695C644.513 20.609 643.796 20.646 644.056 20.3893C644.164 20.2837 645.717 20.2594 647.502 20.372C647.536 20.3741 647.571 20.3763 647.606 20.3786C647.639 20.0061 647.656 19.6243 647.656 19.2326C647.656 16.1839 646.642 13.6982 644.555 11.6339C642.467 9.56816 640.026 8.56362 637.091 8.56362C634.086 8.56362 631.649 9.56922 629.642 11.6381C627.624 13.7173 626.643 16.1822 626.643 19.1735C626.643 22.1586 627.651 24.613 629.726 26.6771C631.801 28.7414 634.21 29.7452 637.091 29.7452C637.229 29.7452 637.366 29.741 637.502 29.7367C637.499 29.7021 637.497 29.6674 637.494 29.6332C637.328 27.5285 637.293 25.78 637.728 26.4854C637.881 26.7348 638.034 26.9704 638.186 27.1972C638.755 28.0422 639.317 28.7377 639.876 29.3144C639.904 29.3433 639.933 29.3714 639.961 29.3997C642.009 31.4681 644.025 31.977 646.168 32.5002C646.214 32.5117 646.259 32.5229 646.305 32.5339C646.656 32.6199 647.01 32.707 647.369 32.8024C649.916 33.4788 652.674 34.5691 655.894 38.5391Z" fill="#55607A"/>
</svg>
