<svg width="704" height="48" viewBox="0 0 704 48" fill="none" xmlns="http://www.w3.org/2000/svg">
<path d="M53.3689 23.2188C52.5129 23.2188 51.8958 23.4994 51.2703 23.7855V30.2561C51.8696 30.3132 52.213 30.3132 52.7818 30.3132C54.8365 30.3132 55.1181 29.3724 55.1181 28.0585V24.9679C55.1181 23.998 54.7962 23.2188 53.3689 23.2188ZM39.7243 22.8657C38.2989 22.8657 37.9732 23.6484 37.9732 24.6174V25.1619H41.4732V24.6174C41.4732 23.6484 41.148 22.8657 39.7243 22.8657ZM13.2919 29.601C13.2919 30.3676 13.6536 30.7659 14.452 30.7659C15.3085 30.7659 15.8155 30.4866 16.4406 30.1998V28.6648H14.5678C13.6815 28.6648 13.2919 28.8298 13.2919 29.601ZM66.6418 23.2188C65.2141 23.2188 64.7193 23.998 64.7193 24.9679V28.5083C64.7193 29.4811 65.2141 30.2626 66.6418 30.2626C68.0658 30.2626 68.5643 29.4811 68.5643 28.5083V24.9679C68.5643 23.998 68.0658 23.2188 66.6418 23.2188ZM6.29463 33.5707H2.09751V23.4111H0V19.9103H2.09751V17.8083C2.09751 14.9522 3.28132 13.2539 6.64558 13.2539H9.44663V16.7555H7.69586C6.386 16.7555 6.29978 17.2446 6.29978 18.1579L6.29463 19.9103H9.46631L9.09521 23.4111H6.29463V33.5707ZM20.6394 33.5969H17.1413L16.9897 32.7122C15.3924 33.5969 13.9668 33.7403 13.0264 33.7403C10.4611 33.7403 9.09521 32.0263 9.09521 29.6563C9.09521 26.8599 10.6885 25.8619 13.5393 25.8619H16.4406V25.2575C16.4406 23.8305 16.2771 23.4111 14.0821 23.4111H10.4932L10.8441 19.9103H14.7671C19.5835 19.9103 20.6394 21.4317 20.6394 25.2856V33.5969ZM32.5351 23.6679C30.3582 23.2949 29.7332 23.2129 28.6857 23.2129C26.8042 23.2129 26.2356 23.6281 26.2356 25.2256V28.2478C26.2356 29.8456 26.8042 30.2626 28.6857 30.2626C29.7332 30.2626 30.3582 30.1792 32.5351 29.8044V33.2192C30.6283 33.6466 29.3862 33.759 28.3361 33.759C23.8298 33.759 22.0385 31.389 22.0385 27.9657V25.5133C22.0385 22.087 23.8298 19.713 28.3361 19.713C29.3862 19.713 30.6283 19.8259 32.5351 20.2551V23.6679ZM45.6703 27.9657H37.9732V28.2478C37.9732 29.8456 38.5423 30.2626 40.4233 30.2626C42.1144 30.2626 43.1464 30.1792 45.3193 29.8044V33.2192C43.2237 33.6466 42.1317 33.759 40.0754 33.759C35.5688 33.759 33.7766 31.389 33.7766 27.9657V25.1619C33.7766 22.1666 35.1064 19.713 39.7243 19.713C44.3421 19.713 45.6703 22.138 45.6703 25.1619V27.9657ZM59.3145 28.0304C59.3145 31.3394 58.3689 33.7525 52.6399 33.7525C50.5712 33.7525 49.3576 33.5707 47.0743 33.2192V14.3051L51.2703 13.6049V20.2209C52.1769 19.884 53.3507 19.713 54.419 19.713C58.6154 19.713 59.3145 21.5943 59.3145 24.6174V28.0304ZM72.765 28.1026C72.765 30.957 71.5865 33.7253 66.6559 33.7253C61.7229 33.7253 60.5224 30.957 60.5224 28.1026V25.3465C60.5224 22.4906 61.7229 19.7219 66.6559 19.7219C71.5865 19.7219 72.765 22.4906 72.765 25.3465V28.1026ZM86.2061 28.1026C86.2061 30.957 85.0262 33.7253 80.0965 33.7253C75.1635 33.7253 73.9631 30.957 73.9631 28.1026V25.3465C73.9631 22.4906 75.1635 19.7219 80.0965 19.7219C85.0262 19.7219 86.2061 22.4906 86.2061 25.3465V28.1026ZM100 33.5707H95.4517L91.6053 27.1495V33.5707H87.4079V14.3051L91.6053 13.6049V26.0072L95.4517 19.9103H100L95.8008 26.5638L100 33.5707ZM80.0825 23.2188C78.6571 23.2188 78.1623 23.998 78.1623 24.9679V28.5083C78.1623 29.4811 78.6571 30.2626 80.0825 30.2626C81.506 30.2626 82.0097 29.4811 82.0097 28.5083V24.9679C82.0097 23.998 81.506 23.2188 80.0825 23.2188Z" fill="#55607A"/>
<path d="M212 12.8186C213.806 12.8186 215.275 14.2875 215.275 16.0934C215.275 17.8977 213.806 19.3667 212 19.3667C210.196 19.3667 208.726 17.8977 208.726 16.0934C208.726 14.2871 210.196 12.8186 212 12.8186ZM212 23.9998C216.363 23.9998 219.91 20.4536 219.91 16.0934C219.91 11.7309 216.363 8.18311 212 8.18311C207.639 8.18311 204.091 11.7313 204.091 16.0934C204.091 20.4536 207.639 23.9998 212 23.9998ZM215.2 30.4514C216.827 30.0808 218.38 29.4379 219.793 28.5497C220.876 27.8683 221.202 26.4379 220.52 25.3548C220.193 24.8342 219.673 24.4648 219.074 24.3282C218.474 24.1916 217.845 24.2989 217.325 24.6264C214.085 26.6636 209.914 26.6621 206.676 24.6264C206.156 24.2988 205.527 24.1915 204.928 24.3281C204.329 24.4647 203.808 24.8341 203.481 25.3548C202.8 26.4376 203.125 27.8679 204.208 28.5497C205.62 29.4376 207.173 30.0805 208.8 30.4514L204.378 34.8737C203.793 35.4592 203.564 36.3126 203.779 37.1122C203.993 37.9119 204.618 38.5364 205.417 38.7506C206.217 38.9647 207.07 38.7359 207.656 38.1504L212 33.8057L216.346 38.1508C216.78 38.5855 217.369 38.8297 217.984 38.8297C218.598 38.8297 219.187 38.5855 219.621 38.1508C220.056 37.7168 220.301 37.1273 220.301 36.5126C220.301 35.8979 220.056 35.3085 219.621 34.8745L215.2 30.4514ZM272.501 23.2858C272.903 23.0723 273.646 22.4022 273.897 21.5295L274.495 19.2088C274.507 19.173 274.501 19.1339 274.478 19.1035C274.457 19.0733 274.423 19.0551 274.386 19.0547H272.837C272.786 19.055 272.741 19.0893 272.727 19.1387C272.727 19.1387 272.34 20.9541 272.147 21.4421C271.956 21.9301 271.468 22.3719 271.182 22.5476C271.043 22.6345 270.888 22.6918 270.725 22.7157C270.561 22.7407 270.389 22.7528 270.214 22.7528H268.705V19.1728C268.705 19.1084 268.654 19.0556 268.589 19.0543H267.041C266.976 19.0554 266.925 19.1083 266.925 19.1728V28.7973C266.925 28.8628 266.976 28.9155 267.041 28.9155H268.589C268.62 28.9151 268.65 28.9024 268.672 28.8802C268.693 28.8581 268.705 28.8283 268.705 28.7973V24.2895H270.42C270.708 24.2895 272.375 24.5007 272.523 25.6986L272.86 28.8299C272.873 28.8802 272.918 28.9156 272.97 28.9166H274.556C274.593 28.9158 274.628 28.8976 274.65 28.8675C274.671 28.8375 274.677 28.799 274.666 28.7636C274.666 28.7636 274.377 26.6439 274.14 25.1655C273.904 23.686 272.473 23.2737 272.501 23.2858ZM301.008 26.3316C300.986 26.307 300.955 26.2927 300.923 26.2922C300.879 26.2843 300.859 26.307 300.837 26.3316C300.619 26.5799 300.34 26.8041 300.006 26.9956C299.682 27.1849 299.314 27.2841 298.938 27.283C298.095 27.283 297.436 27.0119 296.977 26.4773C296.514 25.9413 296.28 25.1099 296.28 24.0044C296.28 22.8868 296.514 22.0512 296.977 21.5216C297.435 20.9938 298.095 20.7266 298.938 20.7266C299.287 20.7266 299.632 20.8117 299.966 20.9779C300.3 21.1414 300.596 21.3724 300.837 21.6564C300.859 21.6808 300.89 21.6954 300.923 21.6969C300.957 21.697 300.988 21.6825 301.01 21.6571L302.011 20.4926C302.052 20.4448 302.049 20.3735 302.005 20.329C301.599 19.9246 301.129 19.5895 300.615 19.3371C300.096 19.085 299.507 18.9563 298.866 18.9563C298.314 18.9563 297.771 19.0505 297.251 19.2345C296.724 19.4234 296.245 19.7278 295.849 20.1254C295.443 20.5301 295.114 21.0559 294.869 21.6893C294.624 22.3216 294.501 23.1007 294.501 24.0036C294.501 24.8948 294.624 25.6672 294.869 26.2979C295.114 26.9332 295.443 27.4594 295.849 27.8641C296.244 28.2625 296.723 28.5667 297.251 28.7542C297.771 28.9385 298.315 29.0324 298.866 29.0324C299.522 29.0324 300.117 28.9045 300.634 28.6523C301.153 28.3972 301.623 28.0544 302.025 27.6392C302.069 27.5938 302.071 27.5225 302.029 27.4749L301.01 26.3312L301.008 26.3316ZM309.146 26.3316C309.124 26.307 309.093 26.2927 309.061 26.2922C309.04 26.2861 308.996 26.307 308.975 26.332C308.762 26.5758 308.483 26.798 308.146 26.9952C307.822 27.1844 307.453 27.2835 307.078 27.2822C306.236 27.2822 305.576 27.0115 305.115 26.477C304.652 25.9378 304.417 25.1065 304.417 24.0036C304.417 22.8891 304.652 22.0535 305.115 21.5208C305.575 20.9938 306.236 20.7258 307.078 20.7258C307.426 20.7258 307.771 20.811 308.105 20.9772C308.439 21.1404 308.735 21.3715 308.974 21.6556C308.996 21.6814 309.028 21.6962 309.061 21.6961C309.094 21.6961 309.126 21.6821 309.148 21.6564L310.15 20.4918C310.19 20.444 310.188 20.3729 310.144 20.3283C309.738 19.9239 309.268 19.5888 308.754 19.3364C308.233 19.0842 307.644 18.9555 307.005 18.9555C306.453 18.9555 305.909 19.0498 305.388 19.2338C304.861 19.4231 304.383 19.7274 303.988 20.1246C303.581 20.5293 303.251 21.0552 303.007 21.6885C302.763 22.3234 302.639 23.1026 302.639 24.0029C302.639 24.891 302.763 25.663 303.007 26.2967C303.251 26.932 303.58 27.4586 303.988 27.863C304.382 28.2609 304.861 28.5652 305.388 28.7534C305.909 28.9374 306.453 29.0313 307.005 29.0313C307.66 29.0313 308.255 28.9033 308.772 28.6512C309.29 28.3963 309.761 28.0535 310.163 27.6381C310.207 27.5927 310.209 27.5215 310.167 27.4742L309.147 26.3301V26.3316H309.146ZM291.461 25.6717C291.461 26.0109 291.396 26.2877 291.271 26.4925C291.145 26.7 290.97 26.8735 290.761 26.9975C290.535 27.1305 290.286 27.2207 290.027 27.2637C289.737 27.3155 289.453 27.339 289.16 27.339C288.497 27.339 288.003 27.2107 287.692 26.9578C287.385 26.7075 287.237 26.1453 287.237 25.7258C287.237 25.309 287.381 24.7619 287.679 24.5382C287.985 24.3084 288.432 24.1918 289.009 24.1918H291.462V25.6713L291.461 25.6717ZM293.24 22.1792C293.24 21.5572 293.135 21.0294 292.925 20.6126C292.717 20.1958 292.429 19.8603 292.068 19.618C291.715 19.3776 291.296 19.2058 290.823 19.1043C290.342 19.0046 289.852 18.955 289.36 18.9563C288.711 18.9563 288.095 19.0661 287.53 19.2834C286.96 19.5052 286.488 19.8335 286.127 20.2586C286.088 20.305 286.09 20.3734 286.131 20.4176L287.113 21.4841C287.135 21.5082 287.167 21.5217 287.199 21.5212C287.233 21.52 287.264 21.5049 287.285 21.4796C287.488 21.2358 287.752 21.0415 288.074 20.9018C288.397 20.7595 288.853 20.6876 289.425 20.6876C290.151 20.6876 290.68 20.8106 290.998 21.0525C291.309 21.2891 291.462 21.645 291.462 22.1413V22.6369H288.632C288.115 22.6369 287.658 22.7183 287.277 22.8781C286.891 23.0378 286.567 23.2563 286.311 23.5258C286.055 23.7974 285.857 24.1182 285.729 24.4689C285.599 24.821 285.532 25.4339 285.532 25.8235C285.532 26.684 285.834 27.6381 286.429 28.1958C287.02 28.7515 287.875 29.0321 288.971 29.0321C289.624 29.0321 290.191 28.9374 290.654 28.7534C290.995 28.6183 291.265 28.4487 291.461 28.2525L291.658 28.7973C291.658 28.8632 291.71 28.9158 291.773 28.9158H293.324C293.388 28.9148 293.44 28.8619 293.439 28.7973C293.439 28.7973 293.242 28.1484 293.242 27.258L293.24 22.1792ZM347.695 19.0543H346.388C346.35 19.0543 346.316 19.0729 346.295 19.1043L342.808 24.1509L341.617 25.9367V19.1728C341.618 19.1084 341.566 19.0556 341.502 19.0543H339.953C339.888 19.0558 339.837 19.1085 339.837 19.1728V28.7973C339.837 28.8617 339.888 28.9144 339.953 28.9155H341.443C341.482 28.9156 341.517 28.8965 341.538 28.8647L345.994 22.2504V28.7973C345.994 28.8628 346.046 28.9155 346.11 28.9155H347.696C347.759 28.9155 347.811 28.8625 347.811 28.7973V19.1732C347.811 19.1086 347.76 19.0558 347.695 19.0543ZM336.388 23.2858C336.79 23.0723 337.533 22.4022 337.784 21.5295L338.383 19.2088C338.394 19.173 338.388 19.1339 338.366 19.1035C338.344 19.0734 338.31 19.0553 338.273 19.0547H336.723C336.672 19.0552 336.627 19.0894 336.613 19.1387C336.613 19.1387 336.227 20.9541 336.034 21.4421C335.842 21.9301 335.355 22.3719 335.069 22.5476C334.93 22.6346 334.774 22.6919 334.611 22.7157C334.447 22.7407 334.274 22.7528 334.1 22.7528H332.591V19.1728C332.592 19.1083 332.54 19.0554 332.475 19.0543H330.926C330.862 19.0556 330.811 19.1084 330.811 19.1728V28.7973C330.811 28.8628 330.862 28.9155 330.926 28.9155H332.475C332.506 28.9152 332.536 28.9025 332.558 28.8804C332.579 28.8582 332.591 28.8283 332.591 28.7973V24.2895H334.306C334.594 24.2895 336.261 24.5007 336.409 25.6986L336.746 28.8299C336.759 28.8804 336.804 28.9159 336.856 28.9166H338.442C338.479 28.9163 338.514 28.8983 338.535 28.8681C338.557 28.8378 338.563 28.7993 338.553 28.7636C338.553 28.7636 338.262 26.6439 338.026 25.1655C337.79 23.686 336.36 23.2737 336.388 23.2858ZM328.85 19.0543H327.542C327.505 19.0543 327.469 19.073 327.448 19.1043L323.963 24.1509L322.772 25.939V19.1728C322.773 19.1085 322.721 19.0558 322.657 19.0543H321.108C321.044 19.0554 320.992 19.1083 320.993 19.1728V28.7973C320.993 28.8628 321.045 28.9155 321.108 28.9155H322.6C322.638 28.9156 322.674 28.8965 322.695 28.8647L327.149 22.2515V28.7973C327.149 28.8628 327.201 28.9155 327.264 28.9155H328.85C328.914 28.9155 328.966 28.8625 328.966 28.7973V19.1732C328.966 19.1088 328.914 19.056 328.85 19.0543ZM318.9 19.0543H317.352C317.287 19.0554 317.235 19.1083 317.236 19.1728V22.7138H313.123V19.1728C313.124 19.1083 313.072 19.0554 313.008 19.0543H311.458C311.394 19.0554 311.342 19.1083 311.343 19.1728V28.7973C311.343 28.8628 311.394 28.9155 311.458 28.9155H313.008C313.039 28.9152 313.068 28.9025 313.09 28.8804C313.111 28.8582 313.123 28.8283 313.123 28.7973V24.2315H317.236V28.7981C317.236 28.8636 317.288 28.9162 317.352 28.9162H318.9C318.931 28.9158 318.96 28.9031 318.982 28.881C319.004 28.8588 319.015 28.829 319.015 28.7981V19.1728C319.016 19.1084 318.964 19.0556 318.9 19.0543ZM263.762 25.2045C263.762 26.3903 262.78 27.3515 261.569 27.3515C260.357 27.3515 259.374 26.3903 259.374 25.2045V22.8179C259.374 21.6321 260.357 20.6709 261.569 20.6709C262.78 20.6709 263.762 21.6321 263.762 22.8179V25.2045ZM261.576 18.9756C259.387 18.9756 257.612 20.7152 257.612 22.8603V25.1462C257.612 27.2921 259.387 29.0321 261.576 29.0321C263.765 29.0321 265.539 27.2921 265.539 25.1462V22.8603C265.539 20.7148 263.765 18.9756 261.576 18.9756ZM244.134 27.2618H239.959C240.184 26.8427 240.335 26.3293 240.408 25.7357C240.49 25.0724 240.615 24.2251 240.665 23.215L240.887 20.6879H244.135L244.134 27.2618ZM246.817 27.2618H245.95V19.1724C245.951 19.1081 245.899 19.0552 245.835 19.0539H239.419C239.357 19.0551 239.306 19.1046 239.304 19.1668L238.999 23.2586C238.961 23.8787 238.865 24.4083 238.828 24.8475C238.79 25.281 238.731 25.6558 238.652 25.9621C238.572 26.268 238.464 26.5156 238.322 26.7193C238.183 26.9142 238.017 27.1304 237.766 27.2489C237.514 27.367 236.844 27.4189 236.844 27.4189C236.788 27.4294 236.748 27.4785 236.749 27.5351V31.4164C236.749 31.4819 236.801 31.5345 236.865 31.5345H238.414C238.478 31.5345 238.529 31.4815 238.529 31.4164V28.9158H245.154V31.4164C245.154 31.4819 245.205 31.5345 245.269 31.5345H246.816C246.881 31.5337 246.933 31.4809 246.932 31.4164V27.3799C246.933 27.3154 246.882 27.2626 246.817 27.2618ZM255.898 19.0539H254.348C254.284 19.0552 254.232 19.1081 254.233 19.1724V22.7134H250.12V19.1724C250.121 19.1081 250.07 19.0552 250.005 19.0539H248.456C248.392 19.0552 248.34 19.1081 248.341 19.1724V28.7966C248.341 28.8625 248.392 28.9155 248.456 28.9155H250.005C250.07 28.9142 250.121 28.8611 250.12 28.7966V24.2315H254.233V28.7973C254.233 28.8632 254.284 28.9158 254.348 28.9158H255.898C255.961 28.9158 256.013 28.8628 256.013 28.7973V19.1724C256.013 19.1081 255.962 19.0552 255.898 19.0539ZM234.422 25.2041C234.422 26.3899 233.439 27.3511 232.227 27.3511C231.016 27.3511 230.033 26.3899 230.033 25.2041V22.8175C230.033 21.6318 231.016 20.6705 232.227 20.6705C233.439 20.6705 234.422 21.6318 234.422 22.8175V25.2041ZM232.235 18.9752C230.046 18.9752 228.272 20.7148 228.272 22.8599V25.1455C228.272 27.2921 230.046 29.0313 232.235 29.0313C234.424 29.0313 236.198 27.2921 236.198 25.1455V22.8599C236.198 20.7144 234.424 18.9752 232.235 18.9752ZM284.165 19.0536H277.886C277.822 19.0546 277.77 19.1075 277.771 19.1721C277.771 19.1721 277.801 23.6292 277.447 25.5222C277.307 26.2801 277.235 26.3865 277.079 26.6496C276.929 26.9074 276.732 27.0978 276.494 27.2152C276.232 27.3473 275.934 27.4761 275.61 27.5995C275.552 27.6227 275.521 27.6865 275.539 27.7464L275.953 29.0858C275.969 29.1358 276.014 29.168 276.063 29.168L276.084 29.1661C276.586 29.0745 277.038 28.9219 277.429 28.7182C277.828 28.51 278.17 28.1942 278.445 27.7767C278.716 27.3682 278.927 26.8222 279.075 26.1559C279.223 25.4934 279.325 24.6022 279.384 23.6557L279.514 20.6879H282.465V28.797C282.465 28.8625 282.516 28.9151 282.581 28.9151H284.166C284.197 28.9147 284.227 28.902 284.248 28.8799C284.27 28.8577 284.282 28.8279 284.281 28.797V19.1721C284.282 19.1077 284.231 19.0548 284.166 19.0536H284.165Z" fill="#55607A"/>
<path fill-rule="evenodd" clip-rule="evenodd" d="M523.76 23.5065C523.76 35.6408 507.761 45.5133 488.097 45.5133C468.434 45.5133 452.435 35.6408 452.435 23.5065C452.435 11.3711 468.434 1.49859 488.097 1.49859C507.761 1.49859 523.76 11.3711 523.76 23.5065ZM488.097 0C467.607 0 450.937 10.5447 450.937 23.5065C450.937 36.4672 467.607 47.013 488.097 47.013C508.588 47.013 525.258 36.4672 525.258 23.5065C525.258 10.5447 508.588 0 488.097 0Z" fill="#55607A"/>
<path fill-rule="evenodd" clip-rule="evenodd" d="M465.775 24.0139L465.038 27.4575C464.974 27.7187 464.648 27.9338 464.41 27.9338C464.172 27.9338 463.955 27.7401 464.02 27.4575L466.448 16.0425C466.491 15.8038 466.836 15.5426 467.031 15.5426C467.206 15.5426 467.529 15.716 467.465 16.0425L466.836 19.0086H468.981L469.544 16.3668C469.631 15.9333 469.696 15.6079 469.696 15.2397C469.696 14.1564 468.7 14.1564 468.094 14.1564H466.62C464.692 14.1564 464.432 15.4356 464.236 16.3872L461.962 27.0454C461.876 27.481 461.832 27.8043 461.832 28.2164C461.832 29.3896 462.59 29.32 463.392 29.32H464.866C466.902 29.32 467.119 27.7604 467.27 27.0689L467.92 24.0139H465.775ZM475.264 17.19H473.445L471.235 27.6106C471.213 27.7187 471.148 28.0216 470.737 28.0216C470.562 28.0216 470.302 27.8921 470.369 27.6106L472.578 17.19H470.758L468.57 27.4371C468.505 27.784 468.484 28.0869 468.484 28.4112C468.484 28.9518 468.829 29.32 469.371 29.32C470.022 29.32 470.628 28.9753 471.017 28.5632L470.346 31.8141C470.325 31.9233 470.282 32.1845 469.87 32.1845C469.544 32.1845 469.436 31.9875 469.48 31.8141L469.674 30.84H467.854L467.747 31.4052C467.682 31.7938 467.682 32.0753 467.682 32.3996C467.682 33.2239 468.526 33.2677 469.025 33.2677H470.13C471.842 33.2677 472.166 31.7285 472.318 31.0348L475.264 17.19ZM479.25 14.1564H477.43L474.203 29.32H476.023L476.131 28.8223C476.651 29.3682 477.106 29.4538 477.344 29.4538C478.556 29.4538 478.926 28.2603 479.055 27.6544L480.94 18.8352C481.027 18.4467 481.07 18.1641 481.07 17.8173C481.07 17.1675 480.549 17.0605 480.009 17.0605C479.661 17.0605 479.164 17.2114 478.492 17.6663L479.25 14.1564ZM478.211 18.9883C478.253 18.8149 478.513 18.5762 478.73 18.5762C479.185 18.5762 479.098 18.8791 479.077 18.9883L477.278 27.5228C477.257 27.6106 477.193 27.9338 476.758 27.9338C476.585 27.9338 476.348 27.784 476.412 27.5228L478.211 18.9883ZM483.821 25.0737L483.258 27.6544C483.215 27.8921 482.955 28.0216 482.716 28.0216C482.457 28.0216 482.348 27.8257 482.391 27.6544L483.215 23.8619H485.9L486.94 18.9648C487.156 17.9907 486.703 17.19 485.576 17.19H484.449C483.452 17.19 482.673 17.7969 482.413 18.9883L480.593 27.5453C480.528 27.8696 480.528 28.1308 480.528 28.4112C480.528 29.32 481.264 29.32 481.871 29.32H482.999C483.604 29.32 484.752 29.2558 485.121 27.5228L485.64 25.0737H483.821ZM483.452 22.6491L484.276 18.8588C484.297 18.7293 484.449 18.4884 484.732 18.4884C484.991 18.4884 485.187 18.6201 485.142 18.8588L484.319 22.6491H483.452ZM488.067 29.32L490.255 19.0086C490.319 18.7057 490.667 18.5762 490.797 18.5762C490.948 18.5762 491.186 18.7057 491.121 19.0086L490.645 21.3068H492.464L493.029 18.6415C493.071 18.4028 493.135 18.1855 493.135 17.9489C493.135 17.4051 492.9 17.0605 492.291 17.0605C491.685 17.0605 491.273 17.2553 490.535 17.6877L490.645 17.19H488.825L486.247 29.32H488.067ZM492.032 29.32H494.177L495.324 23.9058H496.516C498.423 23.9058 498.77 22.4961 498.965 21.5873L500.069 16.3668C500.156 15.9333 500.198 15.6079 500.198 15.2397C500.198 14.0922 499.138 14.1564 498.597 14.1564H495.26L492.032 29.32ZM495.627 22.5196L497.101 15.5426H497.382C497.643 15.5426 498.097 15.6518 497.946 16.3229L496.776 21.781C496.667 22.2809 496.299 22.5196 495.888 22.5196H495.627ZM498.573 29.32H500.395L503.622 14.1564H501.802L498.573 29.32ZM503.708 20.8305H505.529L505.939 18.8791C505.983 18.664 506.286 18.4884 506.46 18.4884C506.612 18.4884 506.871 18.5762 506.807 18.8791L506.351 21.0242C506.156 21.9544 505.289 22.237 504.553 22.5838C503.296 23.1908 503.037 23.97 502.951 24.3822L502.236 27.7604C502.17 28.0216 502.148 28.2603 502.148 28.5193C502.148 29.214 502.431 29.4538 503.017 29.4538C503.773 29.4538 504.403 29.0396 504.726 28.7142L504.596 29.32H506.416L508.669 18.771C508.843 17.9489 508.41 17.19 507.434 17.19H506.2C505.594 17.19 504.488 17.2756 504.164 18.771L503.708 20.8305ZM504.986 27.4575C504.9 27.8257 504.618 27.9338 504.444 27.9338C504.164 27.9338 504.076 27.6309 504.12 27.4575L504.835 24.1649C504.944 23.6232 504.921 23.4081 505.962 22.8664L504.986 27.4575ZM509.731 18.4884H510.705L508.799 27.481C508.41 29.3682 509.773 29.32 510.359 29.32H511.55L511.833 28.0216H511.183C510.532 28.0216 510.641 27.4371 510.685 27.2188L512.524 18.4884H513.846L514.129 17.19H512.807L513.457 14.1564H511.638L510.988 17.19H510.012L509.731 18.4884Z" fill="#55607A"/>
<path fill-rule="evenodd" clip-rule="evenodd" d="M461.803 31.0303H467.287L467.044 32.6295H461.803V31.0303ZM472.851 31.0303H514.257V32.6295H472.488L472.851 31.0303Z" fill="#55607A"/>
<path fill-rule="evenodd" clip-rule="evenodd" d="M682.313 13.7775L663.141 38.7832L675.347 16.9113L666.461 16.9123L669.239 11.3311L680.756 11.2953C680.901 11.2953 680.901 11.2953 680.901 11.2953C683.708 11.29 682.751 13.1391 682.313 13.7775ZM634.24 28.8235C632.076 28.7616 630.585 26.4183 631.347 24.1279C632.009 22.1389 633.19 20.504 635.04 19.432C636.207 18.7256 637.492 18.4005 638.85 18.4005C639.846 18.4005 640.591 18.6392 640.862 18.8615L641.04 19.0038L639.66 21.2784L639.371 21.0966C639.208 20.9992 638.726 20.8268 637.964 20.8268C637.252 20.8268 636.529 21.0565 635.926 21.4763C635.036 22.082 634.334 23.09 634 24.2505C633.6 25.6426 634.113 26.4119 635.445 26.4119C636.028 26.4119 636.653 26.3055 637.114 26.1294L637.572 25.9533L637.131 28.2875C637.131 28.2875 636.135 28.8885 634.24 28.8235ZM686.203 28.8235C684.038 28.7616 682.547 26.4183 683.31 24.1279C683.971 22.1389 685.153 20.504 687.002 19.432C688.169 18.7256 689.454 18.4005 690.813 18.4005C691.808 18.4005 692.553 18.6392 692.824 18.8615L693.001 19.0038L691.622 21.2784L691.334 21.0966C691.17 20.9992 690.688 20.8268 689.926 20.8268C689.214 20.8268 688.491 21.0565 687.888 21.4763C686.998 22.082 686.296 23.09 685.962 24.2505C685.562 25.6426 686.075 26.4119 687.407 26.4119C687.991 26.4119 688.616 26.3055 689.075 26.1294L689.534 25.9533L689.093 28.2875C689.093 28.2875 688.097 28.8885 686.203 28.8235ZM645.054 20.7722C644.572 20.7722 644.067 20.9815 643.59 21.3799C642.724 22.0779 641.977 23.47 641.684 24.4882C641.424 25.3925 641.379 26.4675 642.639 26.4675C643.082 26.4675 643.589 26.2589 644.065 25.8803C644.863 25.2264 645.652 23.767 645.948 22.7375C646.515 20.7722 645.415 20.7722 645.054 20.7722ZM641.682 28.8376C639.346 28.8376 638.274 27.1184 639.012 24.5571C639.543 22.7147 640.695 20.9517 642.096 19.8428C643.278 18.9107 644.649 18.4005 645.961 18.4005C648.324 18.4005 649.366 20.0822 648.618 22.6823C648.087 24.5227 646.957 26.2767 645.594 27.3805C644.395 28.3374 643.043 28.8376 641.682 28.8376ZM652.091 28.6846L651.885 24.6854C651.864 24.0519 651.854 23.5029 651.861 22.9565C651.574 23.5969 651.24 24.3221 650.875 25.0975L649.191 28.6846H646.683L651.471 18.5552H654.289L654.473 22.3853C654.482 22.8684 654.482 23.3254 654.472 23.7754C654.67 23.308 654.896 22.8108 655.156 22.2644L656.901 18.5552H659.407L654.635 28.6846H652.091ZM663.514 28.6846L667.159 21.0099H664.703L665.869 18.5552H673.54L672.367 21.0099H669.862L666.218 28.6846H663.514ZM680.085 24.0024C680.085 24.0024 680.576 21.6993 680.608 21.5449C680.474 21.7368 678.841 24.0024 678.841 24.0024H680.085ZM679.022 28.6846L679.541 26.2335H677.347L675.5 28.6846H672.56L680.6 18.5552H683.63L681.867 28.6846H679.022ZM691.66 28.6846L695.306 21.0099H692.821L694.014 18.5552H701.685L700.512 21.0099H698.008L694.362 28.6846H691.66ZM659.277 30.1761H667.395L664.353 35.8175H653.812C653.722 35.8092 653.629 35.8035 653.529 35.8035C652.314 35.8072 651.915 35.3679 651.848 34.866C651.747 34.11 652.266 33.4418 652.266 33.4418L652.315 33.3802L669.81 9.18037L659.277 30.1761ZM670.252 30.1761L696.775 30.1674L693.343 35.8175H665.964L670.252 30.1761ZM666.19 0.577637C687.068 0.577637 704 10.8467 704 23.5042C704 36.1677 687.068 46.4358 666.19 46.4358C645.314 46.4358 628.384 36.1677 628.384 23.5042C628.384 10.8467 645.314 0.577637 666.19 0.577637Z" fill="#55607A"/>
</svg>
