<svg width="704" height="48" viewBox="0 0 704 48" fill="none" xmlns="http://www.w3.org/2000/svg">
<g clip-path="url(#clip0_9328_4250)">
<mask id="mask0_9328_4250" style="mask-type:luminance" maskUnits="userSpaceOnUse" x="0" y="9" width="144" height="30">
<path d="M144 9H0V39H144V9Z" fill="white"/>
</mask>
<g mask="url(#mask0_9328_4250)">
<path d="M25.9155 30.45C25.8789 33.075 23.6764 35.4376 20.9602 35.4376H0.000689059C0.000689059 28.275 -0.0360176 21.15 0.000689059 13.9875C0.000689059 13.6125 0.0373957 13.5375 0.0373957 13.35C0.404462 10.9875 2.53345 9 4.95608 9H12.9581V11.4375C10.2785 11.4375 7.59896 11.4 4.91937 11.4375C3.59793 11.475 2.38662 12.6375 2.38662 14.0625V33C8.59003 33 14.7935 33.0376 20.9602 33C22.2816 32.9626 23.4563 31.8376 23.4929 30.4126V22.3876H25.8789C25.9155 25.0876 25.9155 27.75 25.9155 30.45Z" fill="#55607A"/>
<path fill-rule="evenodd" clip-rule="evenodd" d="M21.95 11.4375H15.7466V9H24.7764C24.9966 9.0375 25.0701 9.0375 25.1801 9.075C25.6207 9.2625 25.9143 9.6375 25.9143 10.2V19.875H23.5283V13.275L16.5908 20.2875L14.9023 18.5625L21.95 11.4375Z" fill="#55607A"/>
<path d="M34.3936 31.4248C35.6783 32.3622 37.6972 32.9998 39.8262 32.9998C44.3044 32.9998 47.2042 30.1498 47.2042 25.6872C47.2042 21.6748 44.855 18.7873 40.8907 18.7873C39.3123 18.7873 37.6972 19.4998 36.7428 20.3998V11.5498H34.3936V31.4248ZM40.3768 21.0748C42.9462 21.0748 44.7081 22.8372 44.7081 25.8748C44.7081 28.9122 42.6526 30.7498 39.9364 30.7498C38.7984 30.7498 37.8073 30.5248 36.7428 29.8122V22.8372C37.4035 21.9748 38.8352 21.0748 40.3768 21.0748Z" fill="#55607A"/>
<path d="M59.942 29.3247C59.0977 30.1497 57.5928 30.7497 55.8675 30.7497C53.2614 30.7497 51.4261 29.2497 51.2425 26.6622H61.4837C61.5571 26.2497 61.6304 25.6872 61.6304 25.0497C61.6304 21.2997 58.8774 18.8247 55.4638 18.8247C51.0957 18.8247 48.5996 21.9747 48.5996 25.9122C48.5996 30.1872 51.3893 32.9997 55.7207 32.9997C57.4826 32.9997 59.428 32.4372 60.7128 31.1997L59.942 29.3247ZM55.2803 21.0747C57.5928 21.0747 58.9876 22.4622 59.1344 24.7122H51.059C51.316 22.6122 52.8576 21.0747 55.2803 21.0747Z" fill="#55607A"/>
<path d="M70.3667 29.025C70.3667 30.2624 69.2287 30.9 68.0174 30.9C66.696 30.9 64.9341 30.075 64.1632 29.175L62.8418 30.9C63.4658 31.875 65.5948 33 67.7604 33C70.44 33 72.8994 31.7624 72.8994 28.875C72.8994 24.1124 65.7049 25.4624 65.7049 22.575C65.7049 21.675 66.5125 20.8875 67.8339 20.8875C69.2287 20.8875 70.3667 21.4875 71.1742 22.2L72.3122 20.3625C71.5046 19.575 69.9262 18.75 67.7238 18.75C65.0809 18.75 63.2089 20.2125 63.2089 22.575C63.1722 27.6374 70.3667 26.25 70.3667 29.025Z" fill="#55607A"/>
<path d="M74.8447 27.5249C74.8447 31.0125 76.0192 32.9249 79.0292 32.9249C80.4975 32.9249 81.7088 32.3625 82.443 31.7625L81.7088 29.8875C81.2317 30.2625 80.5342 30.6375 79.6165 30.6375C77.928 30.6375 77.2673 29.3999 77.2673 27.2625V21.3749H82.1493V19.1249H77.2673V15.3374H74.918V27.5249H74.8447Z" fill="#55607A"/>
<path d="M101.788 38.7371H104.137V32.0621C105.091 32.6996 106.486 32.9996 107.881 32.9996C112.065 32.9996 114.782 29.8121 114.782 25.6871C114.782 21.6746 112.433 18.7871 108.615 18.7871C106.78 18.7871 105.018 19.6121 104.1 20.6996V19.1246H101.751V38.7371H101.788ZM107.991 21.0746C110.744 21.0746 112.322 23.0246 112.322 25.7996C112.322 28.6496 110.561 30.7496 107.697 30.7496C106.413 30.7496 105.348 30.5246 104.137 29.6996V22.9496C104.944 21.8996 106.413 21.0746 107.991 21.0746Z" fill="#55607A"/>
<path d="M126.858 32.6997H129.207V20.3622C127.849 19.4997 125.757 18.8247 123.628 18.8247C119.296 18.8247 116.14 21.9747 116.14 25.9122C116.14 30.1872 118.709 32.9997 122.747 32.9997C124.362 32.9997 125.904 32.2497 126.858 31.2747V32.6997ZM123.114 30.7497C120.471 30.7497 118.636 28.9872 118.636 26.0247C118.636 23.2872 120.581 21.0747 123.591 21.0747C124.692 21.0747 125.793 21.3372 126.858 21.9372V28.9497C126.087 29.8497 124.656 30.7497 123.114 30.7497Z" fill="#55607A"/>
<path d="M144 32.5501V19.125H141.65V28.7251C140.806 29.8125 139.375 30.7501 137.833 30.7501C135.41 30.7501 134.419 29.2501 134.419 26.6625V19.125H132.07V27.2251C131.997 31.2001 133.979 33.0001 136.915 33.0001C139.007 33.0001 140.696 31.9125 141.614 30.7501V32.8125C141.614 35.5125 140.071 36.7125 137.723 36.7125C135.998 36.7125 134.64 36.0375 133.869 35.4751L132.768 37.4251C133.538 37.9501 135.043 39.0001 137.87 39.0001C141.174 39.0001 144 37.1625 144 32.5501Z" fill="#55607A"/>
<path fill-rule="evenodd" clip-rule="evenodd" d="M97.8229 32.8875V30.8999H89.05C89.0868 29.7749 90.0045 28.6125 91.2892 27.8625C91.9131 27.4875 92.6106 27.0375 93.3448 26.5499C94.813 25.5375 96.0978 24.7499 96.942 23.3249C97.3825 22.6125 97.566 21.8249 97.566 20.9999C97.566 19.5749 97.0521 18.4499 96.0243 17.5874C94.9966 16.7249 93.675 16.2749 92.06 16.2749C89.6006 16.2749 87.5451 17.5499 86.4807 19.3874L88.2792 20.5124C89.05 19.2749 90.4082 18.4124 91.8398 18.4124C93.7118 18.4124 95.0332 19.5374 95.0332 21.1124C95.0332 24.9375 86.4072 25.8375 86.4072 31.6499C86.4072 31.9875 86.4439 32.3999 86.5173 32.8875H97.8229Z" fill="#55607A"/>
</g>
</g>
<g clip-path="url(#clip1_9328_4250)">
<mask id="mask1_9328_4250" style="mask-type:luminance" maskUnits="userSpaceOnUse" x="258" y="15" width="164" height="18">
<path d="M421.99 15H258.5V32.54H421.99V15Z" fill="white"/>
</mask>
<g mask="url(#mask1_9328_4250)">
<path d="M294.249 18.2422L286.789 32.3122H290.879L292.169 29.7622H302.769L304.059 32.3122H308.119L300.769 18.2422H294.249ZM293.289 27.4722L296.709 20.7422H298.249L301.669 27.4722H293.289Z" fill="#55607A"/>
<path d="M326.788 27.5034C326.748 28.0234 326.678 28.4234 326.548 28.7134C326.308 29.2634 325.788 29.5834 324.988 29.6734C324.318 29.7534 323.128 29.7834 321.328 29.7834C319.658 29.7834 318.518 29.7434 317.848 29.6634C316.578 29.5034 316.118 28.7634 315.958 28.1734C315.808 27.6334 315.738 26.7134 315.738 25.3534C315.738 24.0434 315.808 23.1034 315.958 22.4934C316.188 21.5834 316.808 21.0434 317.748 20.9134C318.378 20.8134 319.478 20.7734 321.108 20.7734C324.318 20.7734 325.188 20.9334 325.558 21.0634C325.938 21.1934 326.408 21.5134 326.508 22.3334C326.518 22.4034 326.528 22.5034 326.528 22.6434H330.138C330.148 22.4734 330.148 22.3534 330.148 22.2834C330.148 21.5534 330.088 20.9034 329.958 20.3434C329.808 19.6534 329.448 19.1334 328.868 18.7734C328.378 18.4634 327.558 18.2534 326.418 18.1434C325.628 18.0634 324.278 18.0234 322.388 18.0234C319.218 18.0234 316.998 18.1034 315.788 18.2634C314.678 18.4134 313.888 18.6534 313.408 18.9934C312.808 19.4134 312.448 20.1134 312.308 21.1034C312.198 21.8234 312.148 23.2734 312.148 25.3934C312.148 27.6034 312.218 29.0934 312.358 29.8534C312.468 30.5034 312.728 31.0034 313.138 31.3834C313.448 31.6734 313.848 31.8934 314.338 32.0434C314.858 32.2034 315.598 32.3334 316.528 32.4134C317.558 32.5034 319.588 32.5534 322.578 32.5534C325.248 32.5534 327.148 32.4134 328.208 32.1234C329.088 31.8834 329.668 31.4934 329.958 30.9334C330.268 30.3434 330.418 29.5334 330.418 28.5334C330.418 28.3334 330.408 27.9934 330.388 27.5234H326.788V27.5034Z" fill="#55607A"/>
<path d="M353.738 18.1484H348.888L342.318 23.7084H339.088V18.2384H335.508V32.3084H339.088V26.5384H342.298L349.658 32.3084H354.418L345.598 25.1484L353.738 18.1484Z" fill="#55607A"/>
<path d="M374.352 18.2634C373.152 18.1034 370.962 18.0234 367.832 18.0234C364.532 18.0234 362.252 18.1034 361.052 18.2634C359.502 18.4734 358.572 19.1734 358.242 20.4034C357.982 21.3334 357.852 22.9734 357.852 25.2834C357.852 27.5734 357.982 29.2134 358.242 30.1534C358.582 31.3834 359.502 32.0834 361.052 32.2934C362.252 32.4534 364.482 32.5334 367.702 32.5334C370.922 32.5334 373.162 32.4534 374.352 32.2934C375.902 32.0834 376.822 31.3834 377.162 30.1534C377.422 29.2134 377.552 27.5734 377.552 25.2834C377.552 22.9834 377.422 21.3434 377.162 20.4034C376.822 19.1734 375.912 18.4734 374.352 18.2634ZM373.812 27.7934C373.662 28.4634 373.162 29.3134 371.722 29.4934C371.012 29.5834 369.692 29.6334 367.712 29.6334C365.722 29.6334 364.402 29.5834 363.692 29.4934C362.252 29.3234 361.762 28.4734 361.592 27.7934C361.492 27.3334 361.432 26.6334 361.432 25.6534C361.432 24.1434 361.522 23.1234 361.692 22.5334C361.912 21.8234 362.442 21.3334 363.202 21.1334C363.552 21.0434 364.372 20.9334 367.522 20.9334C369.182 20.9334 370.212 20.9434 370.602 20.9634C371.792 21.0234 372.542 21.1834 372.962 21.4834C373.452 21.8134 373.752 22.4234 373.882 23.3434C373.942 23.8234 373.972 24.6034 373.972 25.7234C373.982 26.6534 373.932 27.3234 373.812 27.7934Z" fill="#55607A"/>
<path d="M397.421 18.3622C396.851 18.2822 395.551 18.2422 393.531 18.2422H383.711V32.3122H387.291V28.6222H393.581C394.531 28.6222 395.271 28.6122 395.791 28.6122C396.921 28.5822 397.821 28.4722 398.481 28.2922C399.311 28.0522 399.881 27.6522 400.221 27.0522C400.611 26.3822 400.801 25.1522 400.801 23.3822C400.801 21.2422 400.511 20.2722 400.271 19.8422C399.821 19.0522 398.861 18.5522 397.421 18.3622ZM396.981 24.9022C396.721 25.4722 396.131 25.7822 395.261 25.8422C395.131 25.8522 394.811 25.8622 393.541 25.8722H387.281V20.9922H393.531C394.501 21.0122 395.071 21.0222 395.281 21.0422C396.081 21.0922 396.641 21.3722 396.941 21.8922C397.121 22.2122 397.201 22.6822 397.201 23.3822C397.211 24.0922 397.131 24.5722 396.981 24.9022Z" fill="#55607A"/>
<path d="M404.758 18.2422V21.0722H411.468V32.3122H415.278V21.0722H421.988V18.2422H404.758Z" fill="#55607A"/>
<path d="M274.11 19.06L273.54 18.5L270.04 15L258.5 26.54L263.47 31.51L264.28 32.32H275.81L276.62 31.51L281.59 26.54L274.11 19.06ZM264.61 30.36L260.78 26.53L270.04 17.27L273.87 21.1L264.61 30.36ZM266.55 30.7L270.04 27.21L273.53 30.7H266.55ZM275.48 30.36L271.19 26.07L275.02 22.24L279.31 26.53L275.48 30.36Z" fill="#55607A"/>
</g>
</g>
<g clip-path="url(#clip2_9328_4250)">
<mask id="mask2_9328_4250" style="mask-type:luminance" maskUnits="userSpaceOnUse" x="537" y="0" width="167" height="48">
<path d="M703.637 0.533203H537V47.4665H703.637V0.533203Z" fill="white"/>
</mask>
<g mask="url(#mask2_9328_4250)">
<path opacity="0.6" d="M684.731 0.584502L699.459 4.70598L686.101 18.1008L682.905 2.24454C682.852 1.99956 682.863 1.74478 682.94 1.50597C683.015 1.26714 683.154 1.05271 683.339 0.884319C683.524 0.715929 683.75 0.599539 683.995 0.546898C684.24 0.494256 684.494 0.507227 684.731 0.584502Z" fill="#9FA7BC"/>
<path d="M537 25.8857C536.999 25.5608 537.104 25.2445 537.3 24.9857C537.496 24.727 537.772 24.5404 538.085 24.4547C539.846 23.9327 541.671 23.6628 543.508 23.6533C546.647 23.7106 549.787 25.4278 549.787 29.0914V35.6171C549.787 39.1661 546.59 41.1123 543.393 41.1123C541.816 41.0907 540.261 40.7398 538.827 40.082V46.0925C538.828 46.2132 538.806 46.333 538.76 46.4448C538.715 46.5566 538.648 46.6581 538.563 46.7436C538.478 46.8289 538.376 46.8963 538.265 46.9417C538.153 46.9873 538.034 47.0099 537.913 47.0083C537.793 47.0099 537.674 46.9873 537.562 46.9417C537.451 46.8963 537.349 46.8289 537.264 46.7436C537.179 46.6581 537.112 46.5566 537.066 46.4448C537.021 46.333 536.999 46.2132 537 46.0925V25.8857ZM538.827 38.4792C540.297 39.0736 541.865 39.3843 543.45 39.3951C545.734 39.3378 547.96 38.1929 547.96 35.7888V28.9197C547.96 26.5154 545.734 25.3705 543.508 25.3705C541.927 25.3028 540.345 25.4962 538.827 25.943V38.4792Z" fill="#55607A"/>
<path d="M562.916 28.9771C562.916 26.5729 560.632 25.3708 558.292 25.3708C556.936 25.329 555.607 25.7531 554.524 26.5729C554.457 26.6408 554.377 26.6946 554.289 26.7314C554.201 26.7681 554.106 26.7869 554.011 26.7869C553.915 26.7869 553.821 26.7681 553.732 26.7314C553.644 26.6946 553.564 26.6408 553.497 26.5729L553.383 26.4584C553.299 26.3862 553.233 26.2958 553.19 26.1942C553.147 26.0925 553.127 25.9823 553.133 25.872C553.138 25.7616 553.169 25.654 553.222 25.5572C553.275 25.4604 553.35 25.3771 553.44 25.3135C554.888 24.2249 556.653 23.6419 558.463 23.6535C561.66 23.6535 564.742 25.4853 564.742 29.0343V38.8229C564.743 39.1993 564.621 39.5657 564.394 39.8657C564.167 40.1656 563.848 40.3825 563.486 40.4829C561.657 40.9401 559.778 41.1707 557.892 41.1698C554.639 41.1126 552.013 39.4525 552.013 35.9607C552.07 32.1827 555.266 30.6943 558.463 30.6943C559.987 30.7084 561.495 30.9994 562.916 31.553V28.9771ZM562.916 33.0413C561.504 32.5354 560.019 32.2647 558.52 32.2399C556.066 32.2399 553.839 33.0986 553.839 35.9607C553.839 38.5367 555.609 39.5098 558.006 39.5098C559.678 39.5683 561.349 39.3949 562.973 38.9946V33.0413H562.916Z" fill="#55607A"/>
<path d="M647.799 29.0341C647.799 26.6299 645.458 25.4278 643.118 25.4278C641.762 25.386 640.432 25.8101 639.35 26.6299C639.283 26.6977 639.203 26.7516 639.114 26.7884C639.026 26.8251 638.932 26.8439 638.836 26.8439C638.741 26.8439 638.646 26.8251 638.558 26.7884C638.47 26.7516 638.39 26.6977 638.323 26.6299L638.208 26.5154C638.125 26.4432 638.059 26.3528 638.016 26.2512C637.972 26.1495 637.953 26.0394 637.958 25.9291C637.964 25.8187 637.994 25.7109 638.048 25.6142C638.101 25.5174 638.175 25.4341 638.266 25.3706C639.731 24.2731 641.517 23.6897 643.346 23.7105C646.542 23.7105 649.625 25.5423 649.625 29.0913V38.8799C649.626 39.2563 649.504 39.6227 649.277 39.9227C649.049 40.2226 648.731 40.4395 648.369 40.5399C646.539 40.9971 644.661 41.2277 642.775 41.2268C639.521 41.1696 636.896 39.5095 636.896 36.0177C636.953 32.2397 640.149 30.7514 643.346 30.7514C644.869 30.7654 646.379 31.0564 647.799 31.61V29.0341ZM647.741 33.0411C646.33 32.5351 644.845 32.2645 643.346 32.2397C640.891 32.2397 638.665 33.0983 638.665 35.9604C638.665 38.5364 640.435 39.5095 642.832 39.5095C644.503 39.5681 646.174 39.3947 647.799 38.9943V33.0411H647.741Z" fill="#55607A"/>
<path d="M569.709 44.6041C569.867 44.4703 570.064 44.3923 570.27 44.3819C570.476 44.3716 570.68 44.4296 570.85 44.5468C571.976 45.3678 573.341 45.7907 574.732 45.7489C577.244 45.7489 579.47 44.3751 579.47 41.6275V40.0247C578.043 40.9405 576.445 41.1123 574.789 41.1123C571.478 41.1695 568.225 39.1087 568.225 35.5024V24.7981C568.23 24.5722 568.322 24.3572 568.482 24.1974C568.641 24.0376 568.856 23.9452 569.081 23.9395H569.252C569.477 23.9452 569.692 24.0376 569.851 24.1974C570.011 24.3572 570.103 24.5722 570.108 24.7981V35.5597C570.108 38.0212 572.449 39.395 574.732 39.4522C576.348 39.4525 577.945 39.1011 579.413 38.4219V24.7981C579.419 24.5722 579.511 24.3572 579.67 24.1974C579.83 24.0376 580.044 23.9452 580.269 23.9395H580.383C580.609 23.9452 580.823 24.0376 580.982 24.1974C581.142 24.3572 581.234 24.5722 581.24 24.7981V41.6275C581.24 45.5772 578.157 47.4663 574.732 47.4663C572.929 47.4886 571.167 46.9264 569.709 45.8634C569.615 45.7878 569.539 45.692 569.487 45.583C569.435 45.474 569.407 45.3546 569.407 45.2337C569.407 45.1129 569.435 44.9935 569.487 44.8845C569.539 44.7756 569.615 44.6797 569.709 44.6041Z" fill="#55607A"/>
<path d="M668.121 44.6041C668.278 44.4703 668.475 44.3923 668.681 44.3819C668.888 44.3716 669.092 44.4296 669.262 44.5468C670.387 45.3678 671.752 45.7907 673.143 45.7489C675.655 45.7489 677.881 44.3751 677.881 41.6275V40.0247C676.455 40.9405 674.856 41.1123 673.201 41.1123C669.89 41.1695 666.636 39.1087 666.636 35.5024V24.7981C666.642 24.5722 666.734 24.3572 666.893 24.1974C667.053 24.0376 667.267 23.9452 667.492 23.9395H667.663C667.889 23.9452 668.104 24.0376 668.262 24.1974C668.422 24.3572 668.514 24.5722 668.52 24.7981V35.5597C668.52 38.0212 670.861 39.395 673.143 39.4522C674.76 39.4525 676.357 39.1011 677.825 38.4219V24.7981C677.83 24.5722 677.923 24.3572 678.081 24.1974C678.241 24.0376 678.456 23.9452 678.681 23.9395H678.795C679.02 23.9452 679.234 24.0376 679.394 24.1974C679.553 24.3572 679.645 24.5722 679.651 24.7981V41.6275C679.651 45.5772 676.569 47.4663 673.143 47.4663C671.34 47.4886 669.579 46.9264 668.121 45.8634C667.956 45.6954 667.863 45.4693 667.863 45.2337C667.863 44.9982 667.956 44.7721 668.121 44.6041Z" fill="#55607A"/>
<path d="M596.139 40.4253C595.987 40.4253 595.842 40.365 595.735 40.2576C595.628 40.1503 595.568 40.0047 595.568 39.8528V28.9767C595.568 26.2291 593.113 25.027 590.773 25.027C589.121 25.0417 587.49 25.3922 585.978 26.0574L585.749 26.1718V39.9674C585.749 40.1191 585.689 40.2647 585.582 40.3721C585.475 40.4795 585.33 40.5397 585.179 40.5397C585.027 40.5397 584.882 40.4795 584.775 40.3721C584.668 40.2647 584.608 40.1191 584.608 39.9674V25.9428C584.602 25.7283 584.666 25.5176 584.789 25.3423C584.913 25.1669 585.089 25.0363 585.293 24.9697C587.019 24.3624 588.83 24.0339 590.659 23.9966C593.57 24.0539 596.538 25.6566 596.538 29.0912V39.9101C596.561 39.9714 596.568 40.0374 596.558 40.1021C596.548 40.1668 596.522 40.2278 596.482 40.2795C596.442 40.3311 596.389 40.3715 596.329 40.3971C596.269 40.4226 596.203 40.4323 596.139 40.4253Z" fill="#55607A"/>
<path d="M619.314 40.826C618.703 40.8662 618.09 40.763 617.525 40.5246C616.961 40.2861 616.459 39.9189 616.06 39.4523C615.298 38.3667 614.916 37.0579 614.976 35.7314V20.9056C614.984 20.7868 615.034 20.6749 615.118 20.5907C615.202 20.5065 615.314 20.4557 615.432 20.4477C615.545 20.4428 615.656 20.4817 615.741 20.5563C615.826 20.6309 615.879 20.7355 615.889 20.8483L616.117 24.2829H619.257C619.378 24.2829 619.494 24.3312 619.58 24.4171C619.665 24.5029 619.714 24.6194 619.714 24.7408C619.714 24.8623 619.665 24.9788 619.58 25.0646C619.494 25.1505 619.378 25.1988 619.257 25.1988H616.06V35.6742C616.06 38.3646 617.316 39.8529 619.599 39.8529H619.714C619.778 39.8466 619.843 39.8537 619.904 39.8737C619.966 39.8937 620.022 39.9262 620.07 39.9693C620.119 40.0123 620.157 40.0649 620.184 40.1236C620.211 40.1824 620.226 40.2462 620.227 40.3108C620.232 40.4241 620.193 40.5348 620.119 40.6201C620.045 40.7054 619.94 40.7586 619.828 40.7689C619.66 40.8106 619.487 40.8298 619.314 40.826Z" fill="#55607A"/>
<path d="M652.822 37.1624C652.989 37.0532 653.188 37.0049 653.384 37.0258C653.582 37.0467 653.767 37.1353 653.907 37.2769C654.497 37.9327 655.22 38.4553 656.027 38.8105C656.834 39.1658 657.706 39.3455 658.588 39.3377C660.414 39.3377 662.356 38.5935 662.298 36.3038C662.241 34.0141 660.186 33.4989 658.417 33.1554C655.677 32.6402 652.594 31.8388 652.594 28.4042C652.594 24.9697 655.848 23.5959 658.588 23.5959C660.005 23.5604 661.399 23.9599 662.583 24.7408C662.772 24.8858 662.895 25.0994 662.927 25.3351C662.959 25.5709 662.897 25.8098 662.755 26.0001L662.698 26.0574C662.561 26.2232 662.364 26.3282 662.15 26.3496C661.937 26.3711 661.723 26.3072 661.556 26.1718C660.686 25.6225 659.673 25.3437 658.644 25.3704C656.932 25.3704 654.478 26.0574 654.478 28.4042C654.478 30.7512 657.161 31.0947 658.873 31.4382C661.499 31.9534 664.182 33.0409 664.238 36.3038C664.238 39.6812 661.499 41.0549 658.702 41.1122C657.571 41.1612 656.445 40.9431 655.414 40.4758C654.383 40.0085 653.476 39.3049 652.765 38.4217C652.658 38.3531 652.57 38.2572 652.511 38.1438C652.453 38.0303 652.425 37.9032 652.43 37.7756C652.436 37.6478 652.475 37.5238 652.544 37.4162C652.613 37.3086 652.709 37.221 652.822 37.1624Z" fill="#55607A"/>
<path d="M606.07 40.5971C602.246 40.5971 599.905 38.3646 599.905 34.1287V30.2934C600.019 26.2864 602.189 23.9395 605.899 23.9395C609.724 23.9395 611.95 26.3436 611.95 30.5797C611.964 30.848 611.893 31.9534 611.893 31.9534C611.893 31.9534 611.876 32.1646 611.837 32.2629C611.797 32.3612 611.739 32.4505 611.664 32.5254C611.589 32.6003 611.5 32.6591 611.402 32.6986C611.304 32.7381 611.199 32.7572 611.094 32.7548H600.99V33.7279V34.1287C601.047 38.6508 603.787 39.5095 605.385 39.6239H605.899C607.326 39.6239 609.381 39.166 610.409 37.8494C610.513 37.7317 610.654 37.6512 610.808 37.6205C610.839 37.6168 610.871 37.6199 610.9 37.6298C610.967 37.6521 611.03 37.7031 611.094 37.735C611.215 37.7997 611.314 37.8993 611.379 38.0212C611.4 38.088 611.406 38.1587 611.396 38.228C611.386 38.2973 611.361 38.3636 611.322 38.4219C610.18 39.9102 608.068 40.5399 606.413 40.5971H606.07ZM605.956 25.027C602.874 25.027 601.047 27.0878 601.047 30.6368V32.0107H610.865V30.6368C610.865 27.0878 609.039 25.027 605.956 25.027Z" fill="#55607A"/>
<path d="M634.84 30.637C634.84 26.2866 632.557 23.5962 628.447 23.5962C624.508 23.5962 622.168 26.1149 622.054 30.2936V34.0716C622.054 38.4221 624.337 41.1125 628.447 41.1125H628.904C630.845 40.998 632.957 40.2538 634.098 38.7656C634.175 38.6683 634.229 38.5551 634.256 38.4344C634.283 38.3136 634.283 38.1882 634.256 38.0674C634.228 37.9467 634.174 37.8336 634.098 37.7366C634.021 37.6394 633.924 37.5607 633.813 37.5062L633.699 37.449C633.522 37.3663 633.321 37.3498 633.132 37.4023C632.944 37.4548 632.781 37.5727 632.671 37.7352C631.815 38.8227 629.988 39.3952 628.447 39.3952H627.99C625.65 39.2235 623.938 37.7352 623.88 34.2433V33.2702H633.642C633.944 33.2702 634.235 33.1496 634.449 32.9349C634.663 32.7202 634.783 32.429 634.783 32.1254V31.553C634.833 31.2503 634.852 30.9435 634.84 30.637ZM623.938 31.6674V30.637C623.938 26.859 625.878 25.3707 628.504 25.3707C631.13 25.3707 633.014 26.859 633.071 30.637V31.6674H623.938Z" fill="#55607A"/>
<path opacity="0.9" d="M679.195 16.4407L686.044 18.158L699.402 4.76318L678.908 13.6931C678.639 13.8256 678.416 14.0379 678.27 14.3015C678.125 14.5651 678.064 14.8672 678.095 15.1668C678.126 15.4665 678.248 15.7494 678.445 15.9772C678.641 16.2051 678.903 16.3669 679.195 16.4407Z" fill="#E3E5E8"/>
<path d="M687.814 25.0272L686.102 18.1579L699.459 4.76318L690.554 25.2561C690.437 25.5391 690.233 25.7773 689.971 25.9367C689.711 26.096 689.405 26.1681 689.101 26.1427C688.796 26.1172 688.508 25.9955 688.277 25.7951C688.045 25.5945 687.883 25.3257 687.814 25.0272Z" fill="#9FA7BC"/>
<path opacity="0.6" d="M703.57 19.5318L699.459 4.76318L686.102 18.1579L701.913 21.3636C702.157 21.4117 702.409 21.3958 702.644 21.3176C702.88 21.2393 703.091 21.1013 703.258 20.917C703.425 20.7327 703.541 20.5082 703.595 20.2655C703.649 20.0228 703.641 19.77 703.57 19.5318Z" fill="#C0C2C8"/>
</g>
</g>
<defs>
<clipPath id="clip0_9328_4250">
<rect width="144" height="30" fill="white" transform="translate(0 9)"/>
</clipPath>
<clipPath id="clip1_9328_4250">
<rect width="164" height="18" fill="white" transform="translate(258.5 15)"/>
</clipPath>
<clipPath id="clip2_9328_4250">
<rect width="167" height="48" fill="white" transform="translate(537)"/>
</clipPath>
</defs>
</svg>
