<svg width="704" height="48" viewBox="0 0 704 48" fill="none" xmlns="http://www.w3.org/2000/svg">
<path d="M8.87549 13.3122C10.6814 13.3122 12.1503 14.7811 12.1503 16.587C12.1503 18.3914 10.681 19.8603 8.87549 19.8603C7.07076 19.8603 5.60145 18.3914 5.60145 16.587C5.60107 14.7808 7.07113 13.3122 8.87549 13.3122ZM8.87549 24.4935C13.2376 24.4935 16.785 20.9472 16.785 16.587C16.785 12.2245 13.238 8.67676 8.87549 8.67676C4.51376 8.67676 0.96599 12.2249 0.96599 16.587C0.96599 20.9472 4.51376 24.4935 8.87549 24.4935ZM12.0753 30.945C13.7024 30.5745 15.2552 29.9315 16.668 29.0434C17.7511 28.362 18.0767 26.9316 17.3953 25.8485C17.0684 25.3278 16.548 24.9585 15.9486 24.8219C15.3493 24.6852 14.7202 24.7925 14.2 25.1201C10.9596 27.1573 6.78908 27.1557 3.55138 25.1201C3.03126 24.7924 2.4022 24.6851 1.80287 24.8217C1.20355 24.9584 0.68317 25.3278 0.35646 25.8485C-0.325154 26.9313 -7.31945e-05 28.3616 1.0826 29.0434C2.49529 29.9312 4.04775 30.5741 5.67452 30.945L1.25296 35.3674C0.667636 35.9529 0.439149 36.8062 0.653569 37.6059C0.867988 38.4055 1.49274 39.0301 2.29248 39.2442C3.09223 39.4584 3.94547 39.2296 4.53079 38.6441L8.87474 34.2994L13.2213 38.6444C13.6554 39.0791 14.2444 39.3234 14.8587 39.3234C15.473 39.3234 16.0621 39.0791 16.4961 38.6444C16.9315 38.2104 17.1761 37.621 17.1761 37.0063C17.1761 36.3916 16.9315 35.8021 16.4961 35.3681L12.0753 30.945ZM69.3761 23.7795C69.7778 23.5659 70.5206 22.8958 70.7723 22.0232L71.3705 19.7024C71.3819 19.6666 71.3755 19.6276 71.3535 19.5972C71.3322 19.5669 71.2977 19.5487 71.2607 19.5484H69.7119C69.6605 19.5486 69.6156 19.5829 69.6017 19.6324C69.6017 19.6324 69.2148 21.4477 69.0225 21.9357C68.8305 22.4237 68.3429 22.8656 68.0571 23.0412C67.9181 23.1282 67.7627 23.1854 67.6005 23.2093C67.4358 23.2343 67.2635 23.2464 67.089 23.2464H65.5796V19.6665C65.5802 19.6021 65.5289 19.5492 65.4645 19.548H63.9157C63.8512 19.549 63.7996 19.6019 63.8002 19.6665V29.291C63.8002 29.3565 63.8513 29.4091 63.9157 29.4091H65.4645C65.4954 29.4087 65.5249 29.396 65.5465 29.3739C65.5681 29.3517 65.58 29.3219 65.5796 29.291V24.7831H67.2953C67.5835 24.7831 69.2496 24.9944 69.3977 26.1922L69.7346 29.3235C69.748 29.3739 69.7931 29.4093 69.8452 29.4102H71.4314C71.4685 29.4094 71.503 29.3913 71.5245 29.3612C71.5461 29.3311 71.5523 29.2926 71.5412 29.2573C71.5412 29.2573 71.252 27.1376 71.0154 25.6592C70.7788 24.1796 69.3481 23.7674 69.3761 23.7795ZM97.8832 26.8252C97.8614 26.8007 97.8304 26.7864 97.7976 26.7859C97.7544 26.7779 97.734 26.8006 97.712 26.8252C97.4943 27.0736 97.2146 27.2977 96.881 27.4893C96.5571 27.6785 96.1885 27.7777 95.8134 27.7766C94.9703 27.7766 94.3112 27.5056 93.8523 26.971C93.3893 26.4349 93.1546 25.6035 93.1546 24.498C93.1546 23.3804 93.3885 22.5449 93.8523 22.0152C94.3104 21.4875 94.9695 21.2202 95.8134 21.2202C96.1617 21.2202 96.507 21.3054 96.8405 21.4716C97.1747 21.6351 97.4713 21.8661 97.7117 22.15C97.734 22.1745 97.7652 22.1891 97.7983 22.1905C97.8317 22.1906 97.8634 22.1761 97.885 22.1508L98.886 20.9862C98.927 20.9384 98.9242 20.8671 98.8796 20.8227C98.4738 20.4183 98.0045 20.0832 97.4902 19.8308C96.9711 19.5786 96.3824 19.4499 95.7415 19.4499C95.1895 19.4499 94.6462 19.5442 94.1264 19.7282C93.5986 19.9171 93.1197 20.2214 92.7245 20.619C92.3183 21.0237 91.9885 21.5496 91.7439 22.183C91.4994 22.8152 91.3759 23.5943 91.3759 24.4973C91.3759 25.3885 91.4994 26.1608 91.7439 26.7915C91.9885 27.4268 92.3183 27.9531 92.7245 28.3578C93.1189 28.7561 93.5981 29.0604 94.1264 29.2478C94.6462 29.4322 95.1899 29.5261 95.7415 29.5261C96.3972 29.5261 96.992 29.3981 97.5091 29.146C98.0276 28.8908 98.4981 28.5481 98.9 28.1329C98.9439 28.0875 98.9457 28.0161 98.9042 27.9686L97.8854 26.8249L97.8832 26.8252ZM106.021 26.8252C105.999 26.8007 105.968 26.7864 105.936 26.7859C105.915 26.7798 105.871 26.8006 105.85 26.8256C105.637 27.0694 105.358 27.2917 105.021 27.4889C104.697 27.6781 104.328 27.7772 103.953 27.7759C103.111 27.7759 102.451 27.5052 101.99 26.9706C101.527 26.4315 101.292 25.6001 101.292 24.4973C101.292 23.3827 101.527 22.5472 101.99 22.0145C102.45 21.4875 103.111 21.2194 103.953 21.2194C104.301 21.2194 104.646 21.3046 104.98 21.4708C105.314 21.6341 105.61 21.8652 105.849 22.1493C105.871 22.175 105.903 22.1899 105.936 22.1898C105.969 22.1898 106.001 22.1758 106.023 22.15L107.025 20.9855C107.065 20.9377 107.063 20.8666 107.019 20.8219C106.613 20.4176 106.143 20.0825 105.629 19.83C105.108 19.5779 104.519 19.4492 103.88 19.4492C103.328 19.4492 102.784 19.5434 102.263 19.7274C101.736 19.9167 101.258 20.221 100.863 20.6182C100.456 21.023 100.126 21.5488 99.8821 22.1822C99.6379 22.8171 99.5137 23.5962 99.5137 24.4965C99.5137 25.3847 99.6379 26.1566 99.8821 26.7904C100.126 27.4257 100.455 27.9523 100.863 28.3566C101.257 28.7545 101.736 29.0588 102.263 29.2471C102.784 29.4311 103.328 29.525 103.88 29.525C104.535 29.525 105.13 29.397 105.647 29.1449C106.165 28.8899 106.636 28.5472 107.038 28.1317C107.082 28.0864 107.084 28.0151 107.042 27.9678L106.022 26.8237V26.8252H106.021ZM88.3359 26.1653C88.3359 26.5046 88.2711 26.7813 88.1458 26.9861C88.0199 27.1937 87.8449 27.3671 87.6362 27.4912C87.4099 27.6242 87.1611 27.7144 86.9022 27.7573C86.6118 27.8092 86.3282 27.8327 86.0348 27.8327C85.3723 27.8327 84.8778 27.7043 84.567 27.4514C84.2596 27.2012 84.1116 26.639 84.1116 26.2195C84.1116 25.8027 84.2558 25.2556 84.5538 25.0318C84.86 24.802 85.3071 24.6854 85.8841 24.6854H88.337V26.165L88.3359 26.1653ZM90.1152 22.6729C90.1152 22.0508 90.01 21.5231 89.7999 21.1062C89.5917 20.6894 89.3035 20.354 88.9427 20.1117C88.5899 19.8713 88.1708 19.6994 87.6976 19.5979C87.2166 19.4982 86.7266 19.4486 86.2355 19.4499C85.5858 19.4499 84.9702 19.5597 84.4046 19.777C83.8348 19.9989 83.3627 20.3271 83.0019 20.7523C82.9628 20.7987 82.9646 20.867 83.0061 20.9113L83.9881 21.9778C84.0103 22.0019 84.0417 22.0154 84.0745 22.0149C84.1076 22.0137 84.1387 21.9986 84.16 21.9732C84.3626 21.7294 84.6272 21.5352 84.949 21.3955C85.2723 21.2531 85.7281 21.1812 86.2998 21.1812C87.0256 21.1812 87.5548 21.3043 87.8732 21.5462C88.1844 21.7828 88.337 22.1387 88.337 22.635V23.1306H85.507C84.9895 23.1306 84.5326 23.212 84.1517 23.3717C83.7663 23.5315 83.4418 23.7499 83.1863 24.0195C82.9301 24.291 82.732 24.6119 82.604 24.9626C82.4738 25.3147 82.4072 25.9276 82.4072 26.3172C82.4072 27.1777 82.7089 28.1317 83.304 28.6894C83.8954 29.2452 84.7502 29.5257 85.8463 29.5257C86.4989 29.5257 87.0657 29.4311 87.5291 29.2471C87.8698 29.1119 88.1401 28.9423 88.3359 28.7462L88.5331 29.291C88.5331 29.3569 88.5846 29.4095 88.6482 29.4095H90.1989C90.2634 29.4084 90.315 29.3555 90.3144 29.291C90.3144 29.291 90.1171 28.6421 90.1171 27.7516L90.1152 22.6729ZM144.57 19.548H143.263C143.225 19.548 143.191 19.5665 143.17 19.5979L139.683 24.6446L138.492 26.4304V19.6665C138.493 19.6021 138.441 19.5492 138.377 19.548H136.828C136.763 19.5494 136.712 19.6021 136.712 19.6665V29.291C136.712 29.3554 136.763 29.4081 136.828 29.4091H138.318C138.357 29.4092 138.392 29.3902 138.413 29.3584L142.869 22.744V29.291C142.869 29.3565 142.921 29.4091 142.985 29.4091H144.571C144.634 29.4091 144.686 29.3561 144.686 29.291V19.6668C144.686 19.6023 144.635 19.5494 144.57 19.548ZM133.263 23.7795C133.665 23.5659 134.408 22.8958 134.659 22.0232L135.258 19.7024C135.269 19.6666 135.263 19.6276 135.241 19.5972C135.219 19.5671 135.185 19.5489 135.148 19.5484H133.598C133.547 19.5488 133.502 19.5831 133.488 19.6324C133.488 19.6324 133.102 21.4477 132.909 21.9357C132.717 22.4237 132.23 22.8656 131.944 23.0412C131.805 23.1283 131.649 23.1855 131.486 23.2093C131.322 23.2343 131.149 23.2464 130.975 23.2464H129.466V19.6665C129.467 19.6019 129.415 19.549 129.35 19.548H127.801C127.737 19.5492 127.686 19.6021 127.686 19.6665V29.291C127.686 29.3565 127.737 29.4091 127.801 29.4091H129.35C129.381 29.4088 129.411 29.3962 129.433 29.374C129.454 29.3519 129.466 29.322 129.466 29.291V24.7831H131.181C131.469 24.7831 133.136 24.9944 133.284 26.1922L133.621 29.3235C133.634 29.374 133.679 29.4095 133.731 29.4102H135.317C135.354 29.41 135.389 29.3919 135.41 29.3618C135.432 29.3315 135.438 29.2929 135.428 29.2573C135.428 29.2573 135.137 27.1376 134.901 25.6592C134.665 24.1796 133.235 23.7674 133.263 23.7795ZM125.725 19.548H124.417C124.38 19.5479 124.344 19.5666 124.323 19.5979L120.838 24.6446L119.647 26.4326V19.6665C119.648 19.6022 119.596 19.5494 119.532 19.548H117.983C117.919 19.549 117.867 19.6019 117.868 19.6665V29.291C117.868 29.3565 117.92 29.4091 117.983 29.4091H119.475C119.513 29.4093 119.549 29.3902 119.57 29.3584L124.024 22.7452V29.291C124.024 29.3565 124.076 29.4091 124.139 29.4091H125.725C125.789 29.4091 125.841 29.3561 125.841 29.291V19.6668C125.841 19.6024 125.789 19.5496 125.725 19.548ZM115.775 19.548H114.227C114.162 19.549 114.11 19.6019 114.111 19.6665V23.2074H109.998V19.6665C109.999 19.6019 109.947 19.549 109.883 19.548H108.333C108.269 19.549 108.217 19.6019 108.218 19.6665V29.291C108.218 29.3565 108.269 29.4091 108.333 29.4091H109.883C109.914 29.4088 109.943 29.3962 109.965 29.374C109.986 29.3519 109.998 29.322 109.998 29.291V24.7252H114.111V29.2917C114.111 29.3572 114.163 29.4099 114.227 29.4099H115.775C115.806 29.4095 115.835 29.3968 115.857 29.3746C115.879 29.3525 115.89 29.3227 115.89 29.2917V19.6665C115.891 19.6021 115.839 19.5492 115.775 19.548ZM60.6375 25.6982C60.6375 26.8839 59.655 27.8452 58.4435 27.8452C57.2317 27.8452 56.2489 26.8839 56.2489 25.6982V23.3115C56.2489 22.1258 57.2317 21.1646 58.4435 21.1646C59.655 21.1646 60.6375 22.1258 60.6375 23.3115V25.6982ZM58.4507 19.4692C56.2621 19.4692 54.4873 21.2088 54.4873 23.3539V25.6399C54.4873 27.7857 56.2621 29.5257 58.4507 29.5257C60.6397 29.5257 62.4142 27.7857 62.4142 25.6399V23.3539C62.4142 21.2085 60.6401 19.4692 58.4507 19.4692ZM41.0095 27.7554H36.8336C37.0593 27.3363 37.2099 26.823 37.2834 26.2293C37.3652 25.566 37.4897 24.7188 37.5404 23.7087L37.7623 21.1816H41.0102L41.0095 27.7554ZM43.6922 27.7554H42.8252V19.6661C42.8258 19.6017 42.7745 19.5488 42.7101 19.5476H36.2937C36.2315 19.5488 36.181 19.5982 36.1787 19.6604L35.8743 23.7522C35.8357 24.3723 35.7402 24.902 35.7028 25.3412C35.6649 25.7746 35.6058 26.1494 35.5271 26.4557C35.4472 26.7616 35.3393 27.0092 35.1966 27.2129C35.0576 27.4079 34.8922 27.6241 34.6408 27.7426C34.3894 27.8607 33.719 27.9125 33.719 27.9125C33.6633 27.923 33.6233 27.9721 33.6243 28.0288V31.9101C33.6243 31.9756 33.6758 32.0282 33.7398 32.0282H35.2893C35.3529 32.0282 35.4044 31.9752 35.4044 31.9101V29.4095H42.0286V31.9101C42.0286 31.9756 42.0797 32.0282 42.1437 32.0282H43.6914C43.7559 32.0274 43.8077 31.9746 43.8072 31.9101V27.8735C43.8077 27.809 43.7567 27.7563 43.6922 27.7554ZM52.7726 19.5476H51.2231C51.1587 19.5488 51.1073 19.6017 51.108 19.6661V23.207H46.9953V19.6661C46.996 19.6017 46.9446 19.5488 46.8803 19.5476H45.3311C45.2667 19.5488 45.2153 19.6017 45.216 19.6661V29.2902C45.216 29.3561 45.2671 29.4091 45.3311 29.4091H46.8803C46.9448 29.4079 46.9962 29.3548 46.9953 29.2902V24.7252H51.108V29.291C51.108 29.3569 51.1595 29.4095 51.2231 29.4095H52.7726C52.8362 29.4095 52.8877 29.3565 52.8877 29.291V19.6661C52.8884 19.6017 52.837 19.5488 52.7726 19.5476ZM31.2967 25.6978C31.2967 26.8835 30.3139 27.8448 29.1024 27.8448C27.8906 27.8448 26.9077 26.8835 26.9077 25.6978V23.3112C26.9077 22.1254 27.8906 21.1642 29.1024 21.1642C30.3139 21.1642 31.2967 22.1254 31.2967 23.3112V25.6978ZM29.11 19.4688C26.921 19.4688 25.1465 21.2085 25.1465 23.3536V25.6391C25.1465 27.7857 26.921 29.525 29.11 29.525C31.299 29.525 33.0735 27.7857 33.0735 25.6391V23.3536C33.0735 21.2081 31.299 19.4688 29.11 19.4688ZM81.0397 19.5472H74.7611C74.6966 19.5483 74.645 19.6012 74.6457 19.6657C74.6457 19.6657 74.676 24.1229 74.3224 26.0158C74.1815 26.7737 74.1096 26.8801 73.9544 27.1432C73.8037 27.4011 73.6068 27.5915 73.3694 27.7089C73.1067 27.841 72.8091 27.9697 72.4847 28.0931C72.4266 28.1164 72.396 28.1802 72.4143 28.24L72.8284 29.5795C72.844 29.6294 72.889 29.6616 72.9382 29.6616L72.9594 29.6597C73.4607 29.5681 73.9131 29.4155 74.3038 29.2119C74.7032 29.0036 75.0455 28.6879 75.3203 28.2703C75.5906 27.8618 75.8019 27.3159 75.9503 26.6496C76.0979 25.987 76.1998 25.0958 76.2589 24.1494L76.3887 21.1816H79.3402V29.2906C79.3402 29.3561 79.3913 29.4087 79.4557 29.4087H81.0412C81.0721 29.4083 81.1016 29.3957 81.1232 29.3735C81.1448 29.3514 81.1567 29.3215 81.1563 29.2906V19.6657C81.1569 19.6013 81.1056 19.5485 81.0412 19.5472H81.0397Z" fill="#55607A"/>
<g clip-path="url(#clip0_9328_4202)">
<mask id="mask0_9328_4202" style="mask-type:luminance" maskUnits="userSpaceOnUse" x="256" y="12" width="60" height="26">
<path d="M315.764 12.2324H256.196V37.8138H315.764V12.2324Z" fill="white"/>
</mask>
<g mask="url(#mask0_9328_4202)">
<path d="M256.196 16.1853C256.196 13.8731 257.873 12.2324 260.209 12.2324C261.761 12.2324 262.701 12.9038 263.204 13.5903L261.901 14.8079C261.542 14.2768 260.991 13.9962 260.302 13.9962C259.095 13.9962 258.248 14.8705 258.248 16.1831C258.248 17.4956 259.095 18.3851 260.302 18.3851C260.991 18.3851 261.542 18.072 261.901 17.5733L263.204 18.7758C262.701 19.4796 261.761 20.151 260.209 20.151C257.873 20.151 256.196 18.5103 256.196 16.1831V16.1853Z" fill="#55607A"/>
<path d="M269.413 19.9694L267.406 17.0637L266.496 18.033V19.9694H264.505V12.4243H266.496V15.7835L269.365 12.4243H271.811L268.817 15.8461L271.905 19.9694H269.413Z" fill="#55607A"/>
<path d="M272.315 16.1853C272.315 14.0458 273.821 12.2324 276.313 12.2324C278.805 12.2324 280.326 14.0437 280.326 16.1853C280.326 18.3268 278.82 20.1531 276.313 20.1531C273.806 20.1531 272.315 18.3419 272.315 16.1853ZM278.257 16.1853C278.257 15.013 277.55 13.9984 276.313 13.9984C275.076 13.9984 274.385 15.013 274.385 16.1853C274.385 17.3575 275.074 18.3872 276.313 18.3872C277.553 18.3872 278.257 17.3725 278.257 16.1853Z" fill="#55607A"/>
<path d="M283.791 18.996V22.8388H281.8V12.4202H283.791V13.3723C284.372 12.6382 285.202 12.2324 286.127 12.2324C288.07 12.2324 289.481 13.6702 289.481 16.1853C289.481 18.7002 288.07 20.1531 286.127 20.1531C285.234 20.1531 284.402 19.7775 283.791 18.9982V18.996ZM287.412 16.1853C287.412 14.8878 286.645 13.9984 285.498 13.9984C284.855 13.9984 284.118 14.374 283.789 14.8576V17.528C284.118 17.9965 284.855 18.3872 285.498 18.3872C286.643 18.3872 287.412 17.4978 287.412 16.1853Z" fill="#55607A"/>
<path d="M290.938 19.9616V12.4165H292.93V16.9781L296.05 12.4165H298.056V19.9616H296.065V15.2294L292.852 19.9616H290.938Z" fill="#55607A"/>
<path d="M300.033 19.9694V12.4243H302.025V15.22H305.16V12.4243H307.151V19.9694H305.16V16.9557H302.025V19.9694H300.033Z" fill="#55607A"/>
<path d="M314.972 14.15H311.115V19.9616H309.124V12.4165H314.972V14.15Z" fill="#55607A"/>
<path d="M256.196 30.3191C256.196 26.6491 257.529 25.0084 260.131 24.6651C261.401 24.4773 261.841 24.2895 261.841 24.0239H263.91C263.91 25.492 261.997 25.8978 260.76 26.0554C258.972 26.2886 258.235 27.0701 258.032 27.9444C258.643 27.1478 259.568 26.7096 260.619 26.7096C262.783 26.7096 264.194 28.5532 264.194 30.6451C264.194 32.737 262.72 34.6281 260.196 34.6281C257.672 34.6281 256.198 32.7694 256.198 30.317L256.196 30.3191ZM262.138 30.6321C262.138 29.4923 261.431 28.4755 260.194 28.4755C258.957 28.4755 258.266 29.4901 258.266 30.6321C258.266 31.8497 258.955 32.8665 260.194 32.8665C261.433 32.8665 262.138 31.8518 262.138 30.6321Z" fill="#55607A"/>
<path d="M268.974 31.4292H267.72V34.4429H265.729V26.8978H267.72V29.6935H269.022C269.399 28.0075 270.81 26.71 272.911 26.71C275.421 26.71 276.924 28.5212 276.924 30.6628C276.924 32.8044 275.418 34.6307 272.911 34.6307C270.732 34.6307 269.291 33.2405 268.977 31.4292H268.974ZM274.853 30.6628C274.853 29.4906 274.164 28.4759 272.909 28.4759C271.655 28.4759 270.981 29.4906 270.981 30.6628C270.981 31.835 271.67 32.8648 272.909 32.8648C274.149 32.8648 274.853 31.8502 274.853 30.6628Z" fill="#55607A"/>
<path d="M280.405 33.4736V37.3163H278.414V26.8978H280.405V27.8499C280.986 27.1159 281.816 26.71 282.741 26.71C284.685 26.71 286.095 28.1477 286.095 30.6628C286.095 33.1779 284.685 34.6307 282.741 34.6307C281.848 34.6307 281.016 34.255 280.405 33.4757V33.4736ZM284.026 30.6628C284.026 29.3676 283.257 28.4759 282.113 28.4759C281.469 28.4759 280.733 28.8515 280.403 29.3351V32.0056C280.733 32.4741 281.469 32.8648 282.113 32.8648C283.257 32.8648 284.026 31.9753 284.026 30.6628Z" fill="#55607A"/>
<path d="M287.063 30.6628C287.063 28.5234 288.569 26.71 291.061 26.71C293.553 26.71 295.074 28.5212 295.074 30.6628C295.074 32.8044 293.568 34.6307 291.061 34.6307C288.554 34.6307 287.063 32.8195 287.063 30.6628ZM293.005 30.6628C293.005 29.4906 292.298 28.4759 291.061 28.4759C289.824 28.4759 289.133 29.4906 289.133 30.6628C289.133 31.835 289.824 32.8648 291.061 32.8648C292.298 32.8648 293.005 31.8502 293.005 30.6628Z" fill="#55607A"/>
</g>
<mask id="mask1_9328_4202" style="mask-type:luminance" maskUnits="userSpaceOnUse" x="202" y="2" width="45" height="44">
<path d="M246.953 2H202.791V46H246.953V2Z" fill="white"/>
</mask>
<g mask="url(#mask1_9328_4202)">
<path d="M209.231 8.41603C205.255 12.3753 202.791 17.8609 202.791 23.9056C202.791 24.6202 203.374 25.2009 204.091 25.2009C204.808 25.2009 205.391 24.6202 205.391 23.9056C205.391 18.569 207.558 13.7483 211.068 10.2489C214.58 6.75157 219.419 4.59275 224.775 4.59275C230.131 4.59275 234.97 6.75157 238.482 10.2489C241.992 13.7483 244.159 18.569 244.159 23.9056C244.159 29.2422 241.992 34.0629 238.482 37.5623C234.97 41.0596 230.131 43.2184 224.775 43.2184C222.799 43.2184 220.897 42.9184 219.103 42.3722C219.614 41.038 220.123 39.7039 220.634 38.3675C221.952 38.741 223.341 38.9439 224.775 38.9439C228.94 38.9439 232.723 37.2579 235.451 34.5378C238.181 31.8198 239.873 28.0506 239.873 23.9013C239.873 19.7521 238.181 15.9827 235.451 13.2647C232.723 10.5446 228.94 8.85859 224.775 8.85859C220.611 8.85859 216.827 10.5446 214.099 13.2647C211.369 15.9827 209.677 19.7521 209.677 23.9013C209.677 24.6158 210.26 25.1966 210.977 25.1966C211.694 25.1966 212.277 24.6158 212.277 23.9013C212.277 20.4579 213.675 17.3535 215.937 15.0976C218.203 12.8416 221.319 11.4513 224.773 11.4513C228.229 11.4513 231.345 12.8437 233.609 15.0976C235.873 17.3557 237.269 20.4601 237.269 23.9013C237.269 27.3446 235.871 30.449 233.609 32.7049C231.343 34.9609 228.227 36.3512 224.773 36.3512C223.661 36.3512 222.587 36.2022 221.562 35.9302C222.075 34.5874 222.589 33.2469 223.102 31.904C223.642 32.0163 224.201 32.0768 224.773 32.0768C227.035 32.0768 229.096 31.1592 230.578 29.6804C232.062 28.2038 232.983 26.1529 232.983 23.897C232.983 21.6431 232.062 19.5901 230.578 18.1134C229.096 16.6347 227.037 15.7172 224.773 15.7172C222.511 15.7172 220.45 16.6347 218.968 18.1134C217.484 19.5901 216.563 21.641 216.563 23.897C216.563 24.6115 217.146 25.1922 217.863 25.1922C218.58 25.1922 219.163 24.6115 219.163 23.897C219.163 22.3491 219.789 20.9609 220.806 19.9463C221.824 18.9339 223.219 18.3099 224.771 18.3099C226.324 18.3099 227.718 18.9339 228.736 19.9463C229.752 20.9609 230.379 22.3491 230.379 23.897C230.379 25.4448 229.752 26.833 228.736 27.8476C227.718 28.8601 226.322 29.484 224.771 29.484C224.524 29.484 224.283 29.4624 224.045 29.4322C224.318 28.7155 224.593 28.0008 224.866 27.2841C225.765 27.2604 226.587 26.8869 227.178 26.2954C227.791 25.6866 228.175 24.8296 228.175 23.897C228.175 22.9644 227.791 22.1094 227.178 21.4984C226.567 20.8876 225.707 20.5055 224.771 20.5055C223.835 20.5055 222.977 20.8876 222.364 21.4984C221.75 22.1073 221.367 22.9644 221.367 23.897C221.367 24.8296 221.75 25.6845 222.364 26.2954C222.387 26.3191 222.413 26.3385 222.437 26.3623C221.172 29.6697 219.909 32.9748 218.643 36.2821L218.179 37.4933C217.516 39.2289 216.851 40.9647 216.188 42.7003C215.933 43.3695 216.268 44.1165 216.94 44.3713C219.373 45.2952 222.015 45.8047 224.771 45.8047C230.838 45.8047 236.341 43.3501 240.317 39.3886C244.293 35.4294 246.757 29.9438 246.757 23.8991C246.757 17.8544 244.293 12.371 240.317 8.40955C236.348 4.45459 230.844 2 224.777 2C218.71 2 213.205 4.45459 209.231 8.41603ZM224.208 24.4712C224.06 24.3222 223.973 24.1301 223.971 23.9056C223.971 23.6811 224.06 23.4889 224.208 23.34C224.357 23.1932 224.55 23.1068 224.775 23.1047C225 23.1047 225.193 23.1932 225.343 23.34C225.49 23.4889 225.577 23.6811 225.579 23.9056C225.579 24.1301 225.49 24.3222 225.343 24.4712C225.193 24.618 225 24.7043 224.775 24.7066C224.55 24.7066 224.357 24.618 224.208 24.4712Z" fill="#55607A"/>
</g>
</g>
<g clip-path="url(#clip1_9328_4202)">
<path d="M422.579 26.8095H416.214L414.882 31H411.896L418.112 13H420.679L426.896 31H423.925L422.579 26.8095ZM417.007 24.2991H421.778L419.391 16.8214L417.007 24.2991Z" fill="#55607A"/>
<path d="M429.896 31V18H435.038C436.773 18 438.093 18.3107 439 18.9321C439.434 19.2168 439.788 19.6133 440.026 20.0819C440.264 20.5507 440.378 21.0752 440.357 21.6033C440.362 22.1904 440.169 22.7613 439.812 23.2197C439.39 23.7383 438.831 24.1203 438.201 24.3194C438.951 24.4535 439.641 24.8277 440.171 25.3884C440.641 25.8978 440.901 26.5744 440.895 27.2762C440.895 28.4876 440.461 29.4087 439.591 30.0395C438.721 30.6704 437.47 30.985 435.836 30.9834L429.896 31ZM432.742 23.3709H435.086C436.701 23.3709 437.509 22.8824 437.511 21.9054C437.511 20.8797 436.744 20.3512 435.21 20.3196H432.742V23.3709ZM432.742 25.4617V28.6946H435.859C437.321 28.6946 438.051 28.1573 438.049 27.0828C438.048 26.0084 437.306 25.4679 435.825 25.4617H432.742Z" fill="#55607A"/>
<path d="M453.896 20.3196H449.421V31H446.32V20.3196H441.896V18H453.896V20.3196Z" fill="#55607A"/>
<path d="M454.907 24.3941C454.889 23.2451 455.146 22.1077 455.659 21.0724C456.117 20.1292 456.849 19.3375 457.765 18.7957C458.711 18.2553 459.792 17.9804 460.888 18.0011C462.63 18.0011 464.042 18.5459 465.125 19.6358C466.208 20.7255 466.794 22.1675 466.883 23.9615L466.894 24.624C466.915 25.769 466.664 26.9034 466.162 27.9389C465.706 28.8792 464.972 29.6662 464.055 30.1997C463.1 30.744 462.009 31.0206 460.902 30.9988C459.084 30.9988 457.628 30.4099 456.534 29.2321C455.44 28.0543 454.894 26.4833 454.896 24.5193L454.907 24.3941ZM457.803 24.6377C457.803 25.9278 458.077 26.938 458.627 27.668C458.884 28.0215 459.228 28.3068 459.627 28.4981C460.027 28.6894 460.469 28.7804 460.914 28.7632C461.36 28.7809 461.803 28.6883 462.202 28.494C462.601 28.2996 462.943 28.01 463.196 27.6522C463.742 26.91 464.014 25.824 464.013 24.3942C464.013 23.1268 463.733 22.122 463.173 21.3798C462.917 21.0243 462.575 20.7363 462.177 20.5419C461.778 20.3475 461.336 20.2529 460.89 20.2666C460.451 20.2535 460.015 20.3467 459.622 20.538C459.229 20.7291 458.891 21.0121 458.638 21.3617C458.081 22.0856 457.803 23.1776 457.803 24.6377Z" fill="#55607A"/>
<path d="M473.621 25.8581H472.368V31H469.896V18H472.368V23.1916H473.457L476.502 18H479.554L475.581 24.2251L479.896 31H476.68L473.621 25.8581Z" fill="#55607A"/>
<path d="M480.917 24.3941C480.899 23.2451 481.156 22.1078 481.669 21.0724C482.126 20.1293 482.859 19.3375 483.775 18.7957C484.721 18.2551 485.803 17.9801 486.9 18.0011C488.639 18.0011 490.051 18.546 491.137 19.6358C492.223 20.7256 492.809 22.1676 492.895 23.9615V24.624C492.916 25.769 492.665 26.9034 492.162 27.9389C491.704 28.878 490.971 29.6644 490.055 30.1997C489.1 30.744 488.009 31.0206 486.902 30.9988C485.081 30.9988 483.625 30.4099 482.535 29.2321C481.444 28.0543 480.898 26.4833 480.896 24.5193L480.917 24.3941ZM483.815 24.6376C483.815 25.9277 484.089 26.9379 484.637 27.6679C484.894 28.0217 485.238 28.3073 485.638 28.4985C486.038 28.6898 486.481 28.7807 486.926 28.763C487.372 28.7801 487.815 28.6871 488.214 28.4929C488.613 28.2986 488.955 28.0093 489.208 27.6519C489.751 26.9097 490.024 25.8237 490.025 24.3939C490.025 23.1266 489.745 22.1217 489.185 21.3796C488.929 21.0244 488.587 20.7368 488.188 20.5424C487.79 20.348 487.348 20.2532 486.902 20.2662C486.463 20.253 486.027 20.3462 485.633 20.5373C485.24 20.7284 484.902 21.0115 484.648 21.3612C484.091 22.0855 483.813 23.1776 483.815 24.6376Z" fill="#55607A"/>
<path d="M494.961 28.7531C495.66 28.0043 496.205 27.1207 496.566 26.154C496.873 25.1354 497.039 24.0781 497.059 23.0127L497.224 18H506.119V28.7531H507.896V35H505.03V31.1002H496.81V35H493.896V28.7531H494.961ZM498.339 28.7531H503.244V20.5301H500.011L499.927 23.0365C499.823 25.443 499.294 27.3485 498.339 28.7531Z" fill="#55607A"/>
<path d="M405.62 17.8713C405.476 17.6241 405.283 17.4079 405.053 17.2354C404.605 16.8635 404.078 16.5964 403.512 16.4536C402.946 16.3109 402.355 16.2962 401.782 16.4109C401.633 16.439 401.456 16.4978 401.309 16.5284L399.615 14.2921C399.495 14.0777 399.329 13.8927 399.127 13.7504C398.926 13.6081 398.696 13.5124 398.453 13.4699C395.716 13.1749 392.967 13.0182 390.214 13H389.978C387.423 13.0105 384.87 13.1673 382.333 13.4698C382.085 13.4973 381.849 13.5873 381.646 13.7312C381.443 13.8751 381.28 14.0682 381.174 14.292L379.446 16.5283C379.297 16.4978 379.089 16.439 378.973 16.4108C378.4 16.2962 377.809 16.3108 377.243 16.4535C376.677 16.5962 376.15 16.8634 375.702 17.2353C375.165 17.6745 374.869 18.2055 374.897 18.6753C374.902 18.8802 374.952 19.0814 375.045 19.2647C375.137 19.4478 375.27 19.6084 375.432 19.7347C375.828 19.9975 376.296 20.1313 376.772 20.1175C376.653 20.2632 376.535 20.4393 376.414 20.6178C375.82 21.588 375.91 22.5863 375.969 23.2347C375.969 23.3827 375.998 23.5001 375.998 23.6176V28.823C375.997 29.0659 376.046 29.3064 376.144 29.5292C376.241 29.7519 376.384 29.9523 376.563 30.1173L376.533 30.8831C376.519 31.1607 376.565 31.438 376.668 31.6964C376.771 31.9548 376.928 32.1885 377.129 32.3818C377.32 32.5813 377.551 32.7393 377.807 32.8457C378.063 32.952 378.338 33.0045 378.615 32.9997H382.899C383.078 33.0006 383.256 32.9663 383.422 32.8987C383.589 32.8311 383.739 32.7316 383.867 32.6057C383.994 32.48 384.095 32.3305 384.163 32.1658C384.232 32.0013 384.267 31.8247 384.267 31.6467V31.2356C385.666 31.2944 386.29 31.3225 386.397 31.3531C386.693 31.4119 388.054 31.44 390.678 31.44C393.303 31.44 394.1 31.44 394.396 31.3531C394.517 31.3226 395.142 31.2944 396.526 31.2356V31.6467C396.526 31.8248 396.561 32.0013 396.63 32.1658C396.698 32.3305 396.799 32.48 396.926 32.6057C397.053 32.7315 397.204 32.8311 397.37 32.8987C397.537 32.9663 397.714 33.0006 397.894 32.9997H402.178C402.455 33.0045 402.73 32.9521 402.986 32.8457C403.242 32.7394 403.473 32.5814 403.664 32.3818C404.048 31.9762 404.262 31.4399 404.26 30.8831L404.229 30.1173C404.409 29.9523 404.552 29.7521 404.649 29.5292C404.747 29.3064 404.796 29.0659 404.795 28.823V23.6176C404.792 23.4893 404.801 23.361 404.824 23.2347C404.885 22.5863 404.973 21.5903 404.379 20.6178C404.26 20.4393 404.142 20.2631 404.021 20.1175C404.497 20.1313 404.965 19.9974 405.361 19.7347C405.521 19.6061 405.651 19.445 405.743 19.2623C405.836 19.0796 405.888 18.8795 405.896 18.6753C405.858 18.3918 405.765 18.1185 405.62 17.8713ZM384.74 26.0302C384.682 26.0881 384.612 26.1335 384.536 26.1638C384.459 26.1941 384.378 26.2086 384.295 26.2064H384.265C383.64 26.2064 382.064 26.1476 381.141 26.0302C380.764 25.9592 380.414 25.7861 380.13 25.5299C379.209 24.6161 378.762 23.8527 378.793 23.2631C378.82 23.0245 378.937 22.8047 379.119 22.6476C379.505 22.3516 380.071 22.5865 381.23 23.0282C382.111 23.3916 383.016 23.6961 383.938 23.9396L384.025 23.9701C384.771 24.3225 384.858 25.2926 384.918 25.5604C384.921 25.7339 384.858 25.9021 384.74 26.0302ZM380.509 18.5061C381.292 16.8946 382.083 15.652 382.875 15.1822C384.061 14.4634 395.135 14.2873 397.712 15.1822C398.502 15.1822 399.887 17.6746 400.282 18.5061C401.271 21.3509 379.325 20.9351 380.509 18.5061ZM400.694 25.558C400.418 25.8266 400.065 26.0017 399.683 26.0584C398.76 26.1759 397.184 26.2064 396.559 26.2345H396.531C396.448 26.2371 396.366 26.2226 396.289 26.1924C396.212 26.1621 396.142 26.1164 396.083 26.0583C395.965 25.9305 395.901 25.762 395.906 25.5885C395.906 25.2925 396.024 24.3224 396.768 23.97L396.857 23.9395C397.778 23.695 398.682 23.3905 399.562 23.0281C400.682 22.5864 401.276 22.3515 401.692 22.6757C401.792 22.7467 401.875 22.8391 401.934 22.946C401.993 23.053 402.027 23.1717 402.033 23.2934C402.062 23.8807 401.617 24.6466 400.694 25.558Z" fill="#55607A"/>
</g>
<g clip-path="url(#clip2_9328_4202)">
<path d="M595.533 32.7764C595.022 32.5532 594.666 32.0393 594.666 31.503C594.666 30.7431 595.266 30.1622 596.066 30.1622C596.422 30.1622 596.755 30.2292 597.133 30.2292C597.977 30.2292 598.51 29.6707 598.51 28.7546V19.2356C598.51 18.3642 599.133 17.6938 600.022 17.6938C600.888 17.6938 601.51 18.3642 601.51 19.2356V28.777C601.51 31.5475 599.955 32.9776 596.91 32.9776C596.333 32.9776 595.888 32.9106 595.533 32.7764Z" fill="#55607A"/>
<path d="M604.443 27.8388V22.9229C604.443 22.0514 605.088 21.4033 605.954 21.4033C606.799 21.4033 607.443 22.0514 607.443 22.9229V28.0843C607.443 29.3134 608.31 30.2074 609.532 30.2074C610.732 30.2074 611.577 29.3134 611.577 28.0843V22.9229C611.577 22.0514 612.199 21.4033 613.088 21.4033C613.932 21.4033 614.577 22.0514 614.577 22.9229V27.8388C614.577 30.8776 612.488 32.9778 609.532 32.9778C606.532 32.9778 604.443 30.8776 604.443 27.8388Z" fill="#55607A"/>
<path d="M620.822 17.6272C620.822 18.6328 619.955 19.4372 618.955 19.4372C617.911 19.4372 617.066 18.6328 617.066 17.6272C617.066 16.5993 617.911 15.7949 618.955 15.7949C619.955 15.7949 620.822 16.5993 620.822 17.6272ZM617.444 31.4362V22.923C617.444 22.0515 618.089 21.4034 618.955 21.4034C619.8 21.4034 620.444 22.0515 620.444 22.923V31.4362C620.444 32.3077 619.8 32.978 618.933 32.978C618.089 32.978 617.444 32.3077 617.444 31.4362Z" fill="#55607A"/>
<path d="M622.799 27.1682C622.799 23.9283 625.377 21.4033 628.688 21.4033C630.554 21.4033 632.288 22.2972 633.132 23.5931C633.332 23.906 633.399 24.1518 633.399 24.3976C633.399 25.1349 632.799 25.7382 632.066 25.7382C631.643 25.7382 631.31 25.6043 631.043 25.2691C630.488 24.5987 629.71 24.1518 628.732 24.1518C627.043 24.1518 625.843 25.4032 625.843 27.1682C625.843 28.956 627.043 30.2074 628.732 30.2074C629.688 30.2074 630.443 29.7604 631.043 29.0898C631.354 28.7325 631.665 28.6207 632.066 28.6207C632.799 28.6207 633.399 29.224 633.399 29.9615C633.399 30.2295 633.332 30.4529 633.155 30.721C632.243 32.129 630.643 32.9778 628.688 32.9778C625.377 32.9778 622.799 30.4085 622.799 27.1682Z" fill="#55607A"/>
<path d="M646.155 22.8558C646.155 23.0793 646.111 23.3026 645.977 23.5484L641.133 33.5366C639.955 35.9722 638.622 37 636.622 37C636.133 37 635.689 36.9107 635.355 36.7541C634.889 36.553 634.6 36.0839 634.6 35.5699C634.6 34.8325 635.2 34.274 635.955 34.274C636.066 34.274 636.155 34.2961 636.222 34.2961C637.178 34.2961 637.822 33.894 638.311 32.8885L638.71 31.9948L634.911 23.5708C634.777 23.3026 634.71 23.0793 634.71 22.8558C634.71 22.0737 635.377 21.4033 636.177 21.4033C636.755 21.4033 637.266 21.7162 637.489 22.2525L640.399 28.7994L643.377 22.2525C643.599 21.7386 644.111 21.4033 644.711 21.4033C645.488 21.4033 646.155 22.0737 646.155 22.8558Z" fill="#55607A"/>
<path d="M647.977 30.4303C647.843 30.274 647.777 30.0954 647.777 29.8943C647.777 29.4472 648.155 29.0896 648.6 29.0896C648.866 29.0896 649.088 29.2014 649.266 29.4248C650.244 30.6762 651.488 31.3464 652.911 31.3464C654.688 31.3464 655.866 30.341 655.866 28.8885C655.866 27.7937 655.31 27.1904 653.422 26.2967L651.777 25.5144C649.444 24.3974 648.466 23.213 648.466 21.5595C648.466 19.3475 650.355 17.7163 652.888 17.7163C654.532 17.7163 655.91 18.3419 656.933 19.4814C657.177 19.7496 657.244 19.9954 657.244 20.1965C657.244 20.5987 656.844 20.9787 656.421 20.9787C656.199 20.9787 655.999 20.8669 655.822 20.688C655.021 19.7943 653.999 19.3251 652.866 19.3251C651.31 19.3251 650.266 20.1741 650.266 21.4701C650.266 22.5205 650.733 23.0342 652.622 23.9505L654.244 24.7325C656.71 25.917 657.666 27.0786 657.666 28.844C657.666 31.2571 655.733 32.9555 652.933 32.9555C651.043 32.9555 649.133 31.9945 647.977 30.4303Z" fill="#55607A"/>
<path d="M660.133 27.2574C660.133 24.0847 662.644 21.582 665.799 21.582C667.755 21.582 669.311 22.5206 670.2 23.8611C670.333 24.0622 670.355 24.1964 670.355 24.3304C670.355 24.755 669.999 25.1124 669.577 25.1124C669.378 25.1124 669.177 25.0679 668.955 24.7997C668.222 23.8836 667.221 23.1686 665.822 23.1686C663.6 23.1686 661.889 24.9337 661.889 27.2574C661.889 29.6037 663.577 31.369 665.822 31.369C667.221 31.369 668.222 30.654 668.955 29.7378C669.177 29.4919 669.378 29.4474 669.555 29.4474C669.999 29.4474 670.355 29.7827 670.355 30.2294C670.355 30.3635 670.333 30.4977 670.2 30.6988C669.288 32.0171 667.755 32.9557 665.799 32.9557C662.644 32.9557 660.133 30.4305 660.133 27.2574Z" fill="#55607A"/>
<path d="M683.489 27.2574C683.489 30.4084 680.977 32.9332 677.8 32.9332C674.644 32.9108 672.155 30.4084 672.155 27.2574C672.155 24.0622 674.644 21.582 677.822 21.582C680.977 21.582 683.489 24.0847 683.489 27.2574ZM673.91 27.2799C673.91 29.6037 675.577 31.3466 677.8 31.3466C680.022 31.3466 681.733 29.5816 681.733 27.2799C681.733 24.9337 680.044 23.1686 677.822 23.1686C675.577 23.1686 673.888 24.9337 673.91 27.2799Z" fill="#55607A"/>
<path d="M692.444 22.5429C692.444 23.0344 692.066 23.3472 691.577 23.3472C689.621 23.3472 688.199 24.7104 688.199 26.5649V32.0616C688.199 32.5755 687.822 32.9557 687.355 32.9557C686.844 32.9557 686.488 32.5534 686.488 32.0616V22.4758C686.488 21.9843 686.844 21.582 687.355 21.582C687.822 21.582 688.199 21.9843 688.199 22.4758V23.2803C688.999 22.3193 690.199 21.7385 691.577 21.7385C692.066 21.7385 692.444 22.0736 692.444 22.5429Z" fill="#55607A"/>
<path d="M704 26.6097V26.7215C704 27.4365 703.622 27.7938 702.955 27.7938H695.311C695.533 29.939 697.111 31.369 699.288 31.369C700.355 31.369 701.333 30.9892 702.111 30.3187C702.289 30.1624 702.489 30.0731 702.688 30.0731C703.111 30.0731 703.445 30.386 703.445 30.8326C703.445 31.1234 703.333 31.3245 703.022 31.6149C701.955 32.5087 700.666 32.9557 699.266 32.9557C695.978 32.9557 693.533 30.5198 693.533 27.2799C693.533 24.0847 695.978 21.582 699.067 21.582C701.933 21.582 704 23.6825 704 26.6097ZM695.378 26.2744H702.244C702.2 24.4422 700.911 23.1461 699.022 23.1461C697.178 23.1461 695.755 24.4197 695.378 26.2744Z" fill="#55607A"/>
<path opacity="0.1" d="M573.611 26.7886C573.272 26.7886 572.94 26.8234 572.622 26.8895V26.886C572.94 26.8199 573.272 26.7852 573.611 26.7852C574.86 26.7852 576.023 27.286 576.877 28.1139C576.023 27.2895 574.86 26.7886 573.611 26.7886Z" fill="#55607A"/>
<path d="M586.195 22.9695L576.973 32.2421L572.979 28.2256L582.2 18.953C583.355 17.7921 585.072 17.7921 586.224 18.9506C587.349 20.082 587.349 21.8086 586.195 22.9695Z" fill="#55607A"/>
<path d="M593.092 16.8831C591.76 18.2222 589.578 18.1703 588.289 16.8747C586.944 15.5214 586.921 13.356 588.252 12.0169C589.614 10.6482 591.767 10.6714 593.113 12.0246C594.401 13.3203 594.453 15.5144 593.092 16.8831Z" fill="#55607A"/>
<path d="M574.493 28.1099L570.861 24.4575C569.706 23.2965 567.989 23.2965 566.864 24.4279C565.712 25.5864 565.712 27.313 566.866 28.4739L570.499 32.1264C572.262 33.8997 575.207 34.0178 576.973 32.242L580.965 28.228C579.199 30.0038 576.257 29.8832 574.493 28.1099Z" fill="#55607A"/>
</g>
<defs>
<clipPath id="clip0_9328_4202">
<rect width="114" height="44" fill="white" transform="translate(202.791 2)"/>
</clipPath>
<clipPath id="clip1_9328_4202">
<rect width="133" height="22" fill="white" transform="translate(374.896 13)"/>
</clipPath>
<clipPath id="clip2_9328_4202">
<rect width="138" height="26" fill="white" transform="translate(566 11)"/>
</clipPath>
</defs>
</svg>
