<svg width="64" height="64" viewBox="0 0 64 64" fill="none" xmlns="http://www.w3.org/2000/svg">
<rect width="64" height="64" rx="32" fill="#725DD6" fill-opacity="0.08"/>
<path d="M32 37V44" stroke="#725DD6" stroke-width="1.6" stroke-linecap="round" stroke-linejoin="round"/>
<path d="M21.6067 26C20.286 28.2876 19.7569 30.9472 20.1017 33.5661C20.4464 36.1851 21.6457 38.6171 23.5135 40.485C25.3813 42.3529 27.8133 43.5524 30.4322 43.8973C33.0511 44.2422 35.7107 43.7133 37.9984 42.3927C40.2861 41.072 42.0742 39.0334 43.0853 36.593C44.0963 34.1526 44.2739 31.4468 43.5904 28.8952C42.907 26.3436 41.4007 24.0888 39.3052 22.4805C37.2097 20.8722 34.642 20.0003 32.0005 20V27C33.1011 27.0002 34.1709 27.3636 35.0439 28.0338C35.917 28.704 36.5445 29.6436 36.8292 30.7067C37.1139 31.7699 37.0398 32.8973 36.6185 33.9141C36.1972 34.9309 35.4521 35.7802 34.4989 36.3304C33.5456 36.8806 32.4375 37.1009 31.3463 36.9572C30.2551 36.8134 29.2418 36.3136 28.4636 35.5353C27.6854 34.757 27.1857 33.7437 27.0421 32.6525C26.8985 31.5613 27.1189 30.4532 27.6692 29.5L21.6067 26Z" stroke="#725DD6" stroke-width="1.6" stroke-linecap="round" stroke-linejoin="round"/>
<path d="M27.1687 33.2949L20.4062 35.1062" stroke="#725DD6" stroke-width="1.6" stroke-linecap="round" stroke-linejoin="round"/>
</svg>
