<svg width="704" height="48" viewBox="0 0 704 48" fill="none" xmlns="http://www.w3.org/2000/svg">
<g clip-path="url(#clip0_9328_4297)">
<mask id="mask0_9328_4297" style="mask-type:luminance" maskUnits="userSpaceOnUse" x="-1" y="2" width="193" height="45">
<path d="M191.052 2H-0.0263672V46.0474H191.052V2Z" fill="white"/>
</mask>
<g mask="url(#mask0_9328_4297)">
<path d="M0 15.8799H10.4522C15.1571 24.0536 21.9355 30.8356 30.1001 35.5384V45.9998C23.1197 43.6165 16.7773 39.6625 11.5595 34.4412C6.34174 29.22 2.3874 22.8704 0 15.8799Z" fill="#9FA7BC"/>
<path d="M30.1 15.8799V35.5384C21.9354 30.8356 15.1571 24.0536 10.4521 15.8799H30.1Z" fill="#55607A"/>
<path d="M30.0999 15.88H10.452C7.97664 11.5609 6.12337 6.91282 4.94727 2.07373H16.3038C19.96 2.07373 23.4667 3.52781 26.0535 6.11654C28.6403 8.70527 30.0957 12.2169 30.0999 15.88Z" fill="#9FA7BC"/>
<path d="M43.8904 29.6809V41.0431C39.0576 39.8684 34.4147 38.0152 30.0996 35.5385V15.8799C33.7544 15.8799 37.2598 17.3334 39.8456 19.9212C42.4315 22.5089 43.8863 26.0192 43.8904 29.6809Z" fill="#9FA7BC"/>
<path d="M30 2.07373C30.7466 5.47938 32.4519 8.59929 34.9137 11.0639C37.3756 13.5286 40.4909 15.2346 43.8907 15.9801V2.07373H30Z" fill="#9FA7BC"/>
<path d="M84.217 31.6669H82.4609C81.1045 31.6669 80.5735 31.9935 80.5735 33.0734C80.5589 33.2704 80.5865 33.4683 80.6545 33.6537C80.7225 33.8391 80.8293 34.0078 80.9677 34.1485C81.1061 34.2892 81.273 34.3986 81.4571 34.4694C81.6412 34.5401 81.8383 34.5706 82.0351 34.5588C82.4591 34.5428 82.8756 34.4413 83.2595 34.2603C83.6434 34.0792 83.987 33.8225 84.2696 33.5053L84.217 31.6669ZM85.2685 36.1444L84.7165 35.0909C83.7619 35.905 82.5526 36.3579 81.299 36.3709C79.5692 36.3709 78.034 35.2436 78.034 33.2103C78.034 30.5766 79.7165 29.9919 82.2401 29.9919H84.2485V29.3914C84.2485 28.1324 83.8963 27.4792 82.3926 27.4792C81.4068 27.5532 80.4348 27.7551 79.5009 28.0797L78.8384 26.4362C80.1038 25.9287 81.4461 25.6402 82.808 25.5829C85.6997 25.5829 86.7249 26.8893 86.7249 29.1016V36.1444H85.2685ZM93.155 11.4764H91.42C90.0635 11.4764 89.5115 11.8029 89.5115 12.8881C89.4987 13.0796 89.5264 13.2717 89.5928 13.4517C89.6592 13.6318 89.7628 13.7958 89.8968 13.933C90.0307 14.0702 90.1921 14.1776 90.3703 14.248C90.5486 14.3185 90.7396 14.3505 90.931 14.3419C91.3531 14.3293 91.7684 14.2318 92.1523 14.0554C92.5361 13.8789 92.8807 13.6271 93.1655 13.3147L93.155 11.4764ZM94.2065 15.9275L93.6808 14.8739C92.7094 15.7274 91.4658 16.2056 90.1739 16.2224C88.4389 16.2224 86.9089 15.0899 86.9089 13.0619C86.9089 10.4281 88.6177 9.86975 91.115 9.86975H93.1235V9.19023C93.1235 7.93128 92.7975 7.2781 91.2885 7.2781C90.3043 7.3543 89.3341 7.55792 88.4021 7.88387L87.7449 6.25093C89.0044 5.72076 90.3492 5.42275 91.7144 5.37124C94.6061 5.37124 95.6366 6.6776 95.6366 8.91632V15.9275H94.2065ZM135.826 11.4816H134.091C132.735 11.4816 132.183 11.8082 132.183 12.8933C132.169 13.0905 132.198 13.2884 132.268 13.4732C132.338 13.658 132.447 13.8253 132.588 13.9636C132.73 14.1019 132.899 14.2078 133.085 14.274C133.271 14.3403 133.469 14.3652 133.665 14.3472C134.516 14.314 135.32 13.9447 135.9 13.32L135.826 11.4816ZM136.878 15.9327L136.32 14.8792C135.371 15.7209 134.154 16.197 132.887 16.2224C132.462 16.2475 132.037 16.1836 131.638 16.0349C131.239 15.8861 130.875 15.6557 130.57 15.3584C130.265 15.0611 130.025 14.7033 129.865 14.3079C129.706 13.9125 129.63 13.4882 129.643 13.0619C129.643 10.4281 131.331 9.86975 133.818 9.86975H135.826V9.19023C135.826 7.93128 135.5 7.2781 133.991 7.2781C133.005 7.35473 132.033 7.55833 131.099 7.88387L130.448 6.25093C131.707 5.72076 133.052 5.42275 134.417 5.37124C137.309 5.37124 138.339 6.6776 138.339 8.91632V15.9275L136.878 15.9327ZM168.534 7.60996V15.9327H165.968V7.60469H163.255V5.64516H171.247V7.60469L168.534 7.60996ZM177.782 11.4816H176.052C174.696 11.4816 174.139 11.8082 174.139 12.8933C174.125 13.0905 174.154 13.2884 174.224 13.4732C174.294 13.658 174.404 13.8253 174.545 13.9636C174.686 14.1019 174.855 14.2078 175.041 14.274C175.227 14.3403 175.425 14.3652 175.621 14.3472C176.04 14.3318 176.451 14.233 176.831 14.0566C177.211 13.8803 177.552 13.6299 177.835 13.32L177.782 11.4816ZM178.834 15.9327L178.308 14.8792C177.347 15.7215 176.12 16.1971 174.843 16.2224C173.113 16.2224 171.578 15.0899 171.578 13.0619C171.578 10.4281 173.261 9.86975 175.784 9.86975H177.793V9.19023C177.793 7.93128 177.467 7.2781 175.937 7.2781C174.959 7.3541 173.996 7.55774 173.071 7.88387L172.425 6.25093C173.684 5.71965 175.029 5.4216 176.394 5.37124C179.26 5.37124 180.311 6.6776 180.311 8.91632V15.9275L178.834 15.9327ZM117.182 15.2269C116.116 15.8284 114.915 16.1474 113.691 16.154C110.7 16.154 109.396 14.2945 109.396 10.9233C109.396 7.23596 111.178 5.41865 113.965 5.41865C115.001 5.3901 116.023 5.66665 116.904 6.21405L116.126 7.94708C115.548 7.69726 114.925 7.56992 114.296 7.57309C112.719 7.57309 112.009 8.6266 112.009 10.7652C112.009 13.1778 112.661 14.0311 114.296 14.0311C115.028 14.0154 115.746 13.8354 116.399 13.5044L117.182 15.2269ZM106.956 36.1918L103.465 31.393V36.1918H100.921V25.9095H103.486V30.3606L106.599 25.9095H109.417L106.047 30.5344L109.969 36.1918H106.956ZM95.5735 36.1918V31.8408H91.8932V36.1918H89.3274V25.9095H91.8932V29.7548H95.5735V25.9095H98.2024V36.1918H95.5735ZM71.2569 29.9181H69.5692V34.1322H71.6302C73.1654 34.1322 73.8699 33.6054 73.8699 32.0251C73.8699 30.4449 73.2653 29.9181 71.2411 29.9181M71.5671 36.176H66.9404V22.238H76.136V24.345H69.5692V27.9428H71.7091C75.0214 27.9428 76.7091 28.9963 76.7091 31.9145C76.7091 34.9539 74.4693 36.2129 71.5829 36.2129M188.46 15.9275V7.75745H186.226C186.226 13.2621 184.969 15.1742 182.456 16.3067L181.552 14.2945C183.34 13.162 184.091 12.5088 184.091 5.64516H191V15.9275H188.46ZM159.291 15.9275V11.529L159.344 9.5695L154.612 15.9275H152.761V5.64516H155.321V12.0084L159.943 5.64516H161.857V15.9275H159.291ZM147.482 15.9275V7.75745H143.339V15.9275H140.879V5.64516H149.995V15.9275H147.482ZM126.252 15.9275L121.52 9.51682V15.9275H118.854V2H121.52V7.98396L125.879 2H128.991L123.965 8.41063L129.517 15.9275H126.252ZM104.869 15.9275V11.6291H100.852V15.9275H98.2917V5.64516H100.857V9.51682H104.874V5.64516H107.44V15.9275H104.869ZM80.8258 7.55728C80.3613 7.54379 79.9014 7.65243 79.4918 7.87238C79.0823 8.09234 78.7373 8.41594 78.4914 8.81097V13.4886C79.1264 13.8217 79.8359 13.9867 80.5524 13.9679C82.0351 13.9679 82.8395 13.162 82.8395 10.6968C82.8395 8.68981 82.2822 7.53621 80.8258 7.53621M81.0519 16.0855C80.1532 16.1217 79.2634 15.8947 78.4914 15.4323V19.2249H75.9257V5.59775H77.1823L78.1129 6.95151C78.5531 6.46492 79.0881 6.0737 79.6848 5.80194C80.2816 5.53017 80.9275 5.3836 81.5829 5.37124C84.0908 5.37124 85.4999 7.43086 85.4999 10.5967C85.4999 13.9679 83.7648 16.1065 81.0519 16.1065M72.0035 4.1597V15.9275H69.3378V4.1597H65.4209V2H75.8731V4.1597H72.0035Z" fill="#55607A"/>
</g>
</g>
<g clip-path="url(#clip1_9328_4297)">
<path d="M407.89 15.731H414.353C417.236 15.731 419.84 17.1021 419.84 20.66C419.84 24.194 417.329 25.4962 414.399 25.4962H410.028V32.0063H407.889L407.89 15.731ZM414.12 23.8452C416.236 23.8452 417.701 22.8687 417.701 20.66C417.701 18.4514 416.236 17.4749 414.12 17.4749H410.028V23.8452H414.12Z" fill="#55607A"/>
<path d="M425.069 25.0772L428.696 24.7284V23.5661C428.696 22.1479 427.812 21.0086 425.812 21.0316C424.161 21.0316 422.86 21.7522 422.766 23.4032H420.883C420.976 20.6369 423.115 19.5435 425.812 19.5435C429.02 19.5435 430.718 21.1016 430.718 23.9609V32.0051H428.858V29.4936C428.115 31.2146 426.51 32.2839 424.208 32.2839C421.465 32.2839 420.278 30.7499 420.278 28.82C420.279 26.5653 421.93 25.3801 425.069 25.0772ZM424.814 30.8198C427.255 30.8198 428.696 29.1228 428.696 26.7742V26.0307L425.301 26.3795C423.349 26.5653 422.302 27.3559 422.302 28.751C422.302 29.8904 423.046 30.8198 424.814 30.8198Z" fill="#55607A"/>
<path d="M444.438 19.8228H446.322V22.1244C446.996 20.4734 448.414 19.5439 450.297 19.5439C452.157 19.5439 453.505 20.4274 453.947 22.1944C454.621 20.4974 456.086 19.5439 457.992 19.5439C460.341 19.5439 461.852 21.0091 461.852 23.7754V32.0056H459.807V24.3101C459.807 22.4033 458.97 21.218 457.296 21.218C455.389 21.218 454.157 22.729 454.157 25.2406V32.0065H452.134V24.3111C452.134 22.4042 451.274 21.2189 449.599 21.2189C447.693 21.2189 446.484 22.7301 446.484 25.2416V32.0076H444.438V19.8228Z" fill="#55607A"/>
<path d="M469.588 19.5435C473.076 19.5435 475.075 21.6593 475.075 26.2166V26.4954H465.891C466.054 29.3317 467.565 30.7968 469.751 30.7968C471.378 30.7968 472.472 29.9593 472.983 28.7041L474.913 28.82C474.285 30.9358 472.495 32.2839 469.751 32.2839C466.24 32.2839 463.846 30.2142 463.846 25.9137C463.846 21.6363 466.263 19.5435 469.588 19.5435ZM473.052 25.1472C473.005 22.6127 471.657 21.0316 469.588 21.0316C467.588 21.0316 466.1 22.4268 465.914 25.1472H473.052Z" fill="#55607A"/>
<path d="M477.221 19.8223H479.104V22.1709C479.801 20.5199 481.312 19.5435 483.451 19.5435C486.101 19.5435 487.612 20.9847 487.612 23.9609V32.0051H485.567V24.6115C485.567 22.4028 484.706 21.2175 482.753 21.2175C480.475 21.2175 479.266 22.7986 479.266 25.2401V32.0061H477.22L477.221 19.8223Z" fill="#55607A"/>
<path d="M493.488 21.3809V28.4956C493.488 30.0297 493.814 30.5184 495.046 30.5184C495.465 30.5184 495.977 30.4725 496.464 30.4025V32.0296C495.883 32.1455 495.302 32.1925 494.674 32.1925C492.303 32.1925 491.442 31.262 491.442 28.8214V21.3809H488.885V19.8697H490.838C491.372 19.8697 491.581 19.6609 491.581 19.1492V17.1494H493.488V19.8228H496.464V21.3809H493.488Z" fill="#55607A"/>
<path d="M499.744 28.4482C499.907 30.0752 501.115 30.7968 503.045 30.7968C504.859 30.7968 506.067 30.1462 506.067 28.9139C506.067 28.0074 505.393 27.4728 503.719 26.9611L501.091 26.1935C499.208 25.6358 498.255 24.4965 498.255 22.8455C498.255 20.4969 500.185 19.5444 502.719 19.5444C505.417 19.5444 507.555 20.6368 507.787 23.1483L505.927 23.2643C505.718 21.7302 504.393 21.0326 502.719 21.0326C501.231 20.9866 500.254 21.6372 500.254 22.7765C500.254 23.753 500.952 24.3106 502.23 24.6834L504.881 25.4509C506.927 26.0326 508.089 27.055 508.089 28.8219C508.089 31.0776 506.159 32.2859 502.997 32.2859C500.021 32.2859 498.091 31.1466 497.882 28.5421L499.744 28.4482Z" fill="#55607A"/>
<path d="M442.583 19.8467L438.049 33.4246C437.212 36.075 436.328 36.9585 433.957 36.9585C433.585 36.9585 433.12 36.9355 432.609 36.8886V35.3075C433.028 35.3305 433.47 35.3545 433.841 35.3545C435.097 35.3545 435.631 34.8898 436.19 33.1228L436.539 32.0304H436.537L431.934 19.8477H434.165L437.547 29.463L440.399 19.8477H442.583V19.8467Z" fill="#55607A"/>
<path d="M342.477 24.2675C342.477 19.7131 345.859 16.2632 350.481 16.2632C354.173 16.2632 357.048 18.5408 357.954 21.8349H354.571C353.842 20.2428 352.36 19.2704 350.459 19.2704C347.606 19.2704 345.66 21.3712 345.66 24.2675C345.66 27.1637 347.606 29.2645 350.459 29.2645C352.36 29.2645 353.842 28.2921 354.571 26.7H357.954C357.048 29.9941 354.173 32.2717 350.481 32.2717C345.859 32.2707 342.477 28.8217 342.477 24.2675Z" fill="#55607A"/>
<path d="M359.573 15.731H362.735V32.0063H359.573V15.731Z" fill="#55607A"/>
<path d="M377.213 25.9263C377.213 29.5972 374.427 32.2726 370.867 32.2726C367.329 32.2726 364.544 29.5752 364.544 25.9263C364.544 22.2565 367.374 19.5801 370.867 19.5801C374.383 19.5801 377.213 22.2555 377.213 25.9263ZM367.728 25.9263C367.728 27.9382 369.099 29.2653 370.868 29.2653C372.637 29.2653 374.008 27.9392 374.008 25.9263C374.008 23.9365 372.637 22.5873 370.868 22.5873C369.099 22.5873 367.728 23.9365 367.728 25.9263Z" fill="#55607A"/>
<path d="M390.276 19.8462V32.007H387.113V30.326C386.229 31.5642 385.035 32.2718 383.355 32.2718C380.68 32.2718 379.021 30.4369 379.021 27.4736V19.8452H382.183V26.7881C382.183 28.3801 382.78 29.2646 384.417 29.2646C386.164 29.2646 387.115 28.2252 387.115 26.2354V19.8452L390.276 19.8462Z" fill="#55607A"/>
<path d="M404.567 15.731V32.0063H401.405V30.3703C400.564 31.5196 399.282 32.2722 397.58 32.2722C394.418 32.2722 392.03 29.6627 392.03 25.9259C392.03 22.1672 394.44 19.5797 397.558 19.5797C399.283 19.5797 400.565 20.3752 401.406 21.5475V15.731H404.567ZM401.406 25.9259C401.406 23.9361 400.057 22.5869 398.289 22.5869C396.521 22.5869 395.215 23.9361 395.215 25.9259C395.215 27.9377 396.542 29.2649 398.289 29.2649C400.057 29.2649 401.406 27.9377 401.406 25.9259Z" fill="#55607A"/>
<path fill-rule="evenodd" clip-rule="evenodd" d="M318.491 39.9937C327.322 39.9937 334.481 32.8345 334.481 24.0032C334.481 15.1719 327.322 8.0127 318.491 8.0127C309.659 8.0127 302.5 15.1719 302.5 24.0032C302.5 32.8345 309.659 39.9937 318.491 39.9937ZM315.055 28.4729L325.41 18.1177C326.487 17.0405 328.233 17.0405 329.31 18.1177L329.315 18.1226C330.392 19.1998 330.392 20.9452 329.315 22.0224L322.864 28.4729C320.708 30.6294 317.212 30.6294 315.055 28.4729ZM311.57 29.8887L321.925 19.5334C319.769 17.3771 316.272 17.3771 314.116 19.5334L307.665 25.984C306.588 27.0612 306.588 28.8065 307.665 29.8838L307.67 29.8887C308.748 30.9659 310.493 30.9659 311.57 29.8887Z" fill="#55607A"/>
</g>
<path d="M658.442 29.4598C658.416 29.3923 658.363 29.3352 658.294 29.3041C658.226 29.2729 658.147 29.2729 658.078 29.2937C656.854 29.7401 654.825 30.1034 653.227 30.1034C649.729 30.1034 648.062 29.1743 648.062 23.8955C648.062 19.6755 648.574 17.6875 653.227 17.6875C654.546 17.6875 656.142 17.8744 657.698 18.3208C657.825 18.3571 657.962 18.3 658.02 18.1858C658.511 17.1215 659.256 15.3091 659.721 14.1891C659.758 14.1164 659.758 14.0333 659.726 13.9607C659.695 13.888 659.631 13.8309 659.552 13.805C657.505 13.1613 655.063 12.7876 652.863 12.7876C645.535 12.7876 642.27 16.1874 642.27 23.8176C642.27 31.5568 645.535 35.0085 652.863 35.0085C654.699 35.0085 658.318 34.6296 660.064 33.9444C660.201 33.8873 660.275 33.7316 660.222 33.5967L658.442 29.4598Z" fill="#55607A"/>
<path fill-rule="evenodd" clip-rule="evenodd" d="M629.953 12.7876C622.789 12.7876 620 15.8795 620 23.8167C620 31.8746 622.789 35.0085 629.953 35.0085C635.387 35.0085 638.327 33.2337 639.449 28.9213C639.491 28.7578 639.365 28.5996 639.194 28.5996H634.181C634.074 28.5996 633.978 28.6641 633.931 28.7594C633.277 30.0865 631.873 30.3837 629.953 30.3837C627.018 30.3837 625.9 29.6621 625.705 25.4477H639.696C639.837 25.4477 639.953 25.3386 639.96 25.1993C639.98 24.7555 639.99 24.2947 639.99 23.8167C639.99 15.8795 637.174 12.7876 629.953 12.7876ZM634.208 21.6655C633.77 17.6885 632.068 16.9869 629.953 16.9869C627.839 16.9869 626.198 17.6885 625.778 21.6655H634.208Z" fill="#55607A"/>
<path d="M680.653 13.4702H675.553C675.404 13.4702 675.287 13.5855 675.287 13.7323V29.6042C674.182 29.9082 673.077 30.055 671.833 30.055C668.741 30.055 667.843 29.1954 667.726 25.61V13.7323C667.726 13.5855 667.609 13.4702 667.46 13.4702H662.359C662.211 13.4702 662.094 13.5855 662.094 13.7323V13.7638C662.094 13.7638 662.094 25.7096 662.099 25.7254C662.221 32.4715 664.697 35.1133 670.813 35.1133C674.384 35.1133 678.369 34.2169 680.733 33.3259C680.845 33.2892 680.914 33.1843 680.914 33.069V13.7638V13.7323C680.919 13.5855 680.802 13.4702 680.653 13.4702Z" fill="#55607A"/>
<path fill-rule="evenodd" clip-rule="evenodd" d="M697.86 21.6655H691.925C687.632 21.6655 683.619 24.4234 683.619 29.0783C683.619 32.3534 686.397 35.0085 689.824 35.0085H691.672C694.078 35.0085 696.42 34.4336 697.974 32.896V34.168C697.974 34.3131 698.093 34.4307 698.239 34.4307H703.343C703.49 34.4307 703.609 34.3131 703.609 34.168V24.187C703.609 24.1764 703.608 24.166 703.607 24.1557C703.607 24.0972 703.608 24.0385 703.608 23.9794C703.608 15.9215 700.818 12.7876 693.654 12.7876C688.22 12.7876 685.281 14.5624 684.159 18.8748C684.117 19.0383 684.243 19.1965 684.414 19.1965H689.427C689.534 19.1965 689.63 19.132 689.677 19.0367C690.331 17.7096 691.735 17.4124 693.654 17.4124C696.423 17.4124 697.575 18.0546 697.86 21.6655ZM697.974 25.4477V26.2882C697.974 29.125 695.262 30.806 693.172 30.806C690.735 30.806 689.255 30.1756 689.255 28.5687C689.255 26.5246 690.257 25.4477 693.706 25.4617L697.974 25.4477Z" fill="#55607A"/>
<defs>
<clipPath id="clip0_9328_4297">
<rect width="191" height="44" fill="white" transform="translate(0 2)"/>
</clipPath>
<clipPath id="clip1_9328_4297">
<rect width="206" height="32" fill="white" transform="translate(302.5 8)"/>
</clipPath>
</defs>
</svg>
