<svg width="704" height="48" viewBox="0 0 704 48" fill="none" xmlns="http://www.w3.org/2000/svg">
<path fill-rule="evenodd" clip-rule="evenodd" d="M24.5801 29.5297C24.5801 28.9363 24.6684 28.413 24.845 27.9597C25.0217 27.5063 25.2617 27.128 25.5651 26.8247C25.8684 26.5213 26.2217 26.293 26.6251 26.1397C27.0284 25.9863 27.4567 25.9097 27.91 25.9097C28.3567 25.9097 28.7784 25.9863 29.175 26.1397C29.5717 26.293 29.92 26.5213 30.22 26.8247C30.52 27.128 30.7584 27.5063 30.9351 27.9597C31.1117 28.413 31.2001 28.9363 31.2001 29.5297C31.2001 30.123 31.1117 30.6463 30.9351 31.0997C30.7584 31.553 30.52 31.9313 30.22 32.2347C29.92 32.538 29.5717 32.7663 29.175 32.9197C28.7784 33.073 28.3567 33.1497 27.91 33.1497C27.4567 33.1497 27.0284 33.073 26.6251 32.9197C26.2217 32.7663 25.8684 32.538 25.5651 32.2347C25.2617 31.9313 25.0217 31.553 24.845 31.0997C24.6684 30.6463 24.5801 30.123 24.5801 29.5297ZM25.6 29.5297C25.6 29.9497 25.6534 30.3313 25.7601 30.6747C25.8667 31.018 26.0184 31.3097 26.2151 31.5497C26.4118 31.7897 26.6517 31.9747 26.9351 32.1047C27.2184 32.2347 27.5367 32.2997 27.8901 32.2997C28.2434 32.2997 28.5601 32.2347 28.8401 32.1047C29.1201 31.9747 29.3584 31.7897 29.5551 31.5497C29.7517 31.3097 29.9034 31.018 30.0101 30.6747C30.1167 30.3313 30.17 29.9497 30.17 29.5297C30.17 29.1097 30.1167 28.728 30.0101 28.3847C29.9034 28.0413 29.7517 27.7497 29.5551 27.5097C29.3584 27.2697 29.1201 27.0847 28.8401 26.9547C28.5601 26.8247 28.2434 26.7597 27.8901 26.7597C27.5367 26.7597 27.2184 26.8247 26.9351 26.9547C26.6517 27.0847 26.4118 27.2697 26.2151 27.5097C26.0184 27.7497 25.8667 28.0413 25.7601 28.3847C25.6534 28.728 25.6 29.1097 25.6 29.5297ZM33.61 26.8997V28.6597H34.47C34.9567 28.6597 35.3918 28.6997 35.7751 28.7797C36.1584 28.8597 36.4834 28.988 36.7501 29.1647C37.0167 29.3413 37.22 29.568 37.36 29.8447C37.5 30.1213 37.5701 30.4597 37.5701 30.8597C37.5701 31.593 37.3034 32.1447 36.7701 32.5147C36.2367 32.8847 35.4834 33.0697 34.5101 33.0697C34.3701 33.0697 34.2184 33.0663 34.0551 33.0597C33.8917 33.053 33.7284 33.043 33.5651 33.0297C33.4017 33.0163 33.2401 32.9997 33.0801 32.9797C32.9201 32.9597 32.7734 32.933 32.6401 32.8997V26.0697H36.92V26.8997H33.61ZM34.5901 32.2197C34.8501 32.2197 35.0984 32.1997 35.3351 32.1597C35.5718 32.1197 35.7801 32.048 35.9601 31.9447C36.1401 31.8413 36.2834 31.703 36.3901 31.5297C36.4967 31.3563 36.55 31.1363 36.55 30.8697C36.55 30.5897 36.5018 30.3597 36.4051 30.1797C36.3084 29.9997 36.1701 29.8563 35.9901 29.7497C35.8101 29.643 35.5884 29.568 35.3251 29.5247C35.0617 29.4813 34.7634 29.4597 34.4301 29.4597H33.61V32.1897C33.6834 32.1963 33.7701 32.203 33.8701 32.2097C33.9567 32.2163 34.0601 32.2197 34.1801 32.2197H34.5901ZM44.86 30.8297C44.86 31.5763 44.5901 32.1363 44.05 32.5097C43.51 32.883 42.7501 33.0697 41.7701 33.0697C41.4901 33.0697 41.1834 33.058 40.85 33.0347C40.5167 33.0113 40.2101 32.9663 39.9301 32.8997V26.8997H38.1301V26.0697H40.9001V28.5897C41.0334 28.5763 41.1684 28.568 41.3051 28.5647C41.4417 28.5613 41.5767 28.5597 41.7101 28.5597C43.8101 28.5597 44.86 29.3163 44.86 30.8297ZM43.8401 30.8297C43.8401 30.5497 43.7867 30.3163 43.6801 30.1297C43.5734 29.943 43.425 29.7963 43.235 29.6897C43.045 29.583 42.8184 29.508 42.5551 29.4647C42.2917 29.4213 42.0001 29.3997 41.6801 29.3997H41.295C41.165 29.3997 41.0334 29.4063 40.9001 29.4197V32.1897C41.0201 32.203 41.1551 32.2113 41.3051 32.2147C41.4551 32.218 41.6367 32.2197 41.85 32.2197C42.11 32.2197 42.36 32.1997 42.6 32.1597C42.84 32.1197 43.0517 32.0463 43.235 31.9397C43.4184 31.833 43.565 31.6913 43.675 31.5147C43.785 31.338 43.8401 31.1097 43.8401 30.8297ZM46.0901 32.9997V26.0697H50.3201V26.8997H47.0601V28.9597H49.9601V29.7697H47.0601V32.1697H50.5701V32.9997H46.0901ZM52.0201 32.9997V34.8497H51.1V32.1697H51.8301C52.1701 31.783 52.4317 31.3547 52.6151 30.8847C52.7984 30.4147 52.9317 29.918 53.0151 29.3947C53.0984 28.8713 53.1484 28.3297 53.165 27.7697C53.1817 27.2097 53.1934 26.643 53.2001 26.0697H57.1201V32.1697H57.9901V34.8497H57.0701V32.9997H52.0201ZM54.1501 26.8997C54.1301 27.3397 54.1084 27.788 54.0851 28.2447C54.0618 28.7013 54.0117 29.1547 53.9351 29.6047C53.8584 30.0547 53.7467 30.4963 53.6 30.9297C53.4534 31.363 53.2467 31.7763 52.98 32.1697H56.1501V26.8997H54.1501ZM59.0301 32.9997V26.0697H59.98V31.1997C60.1934 30.8463 60.4551 30.443 60.7651 29.9897C61.0751 29.5363 61.4051 29.0747 61.7551 28.6047C62.1051 28.1347 62.4584 27.678 62.8151 27.2347C63.1717 26.7913 63.5067 26.403 63.8201 26.0697H64.5901V32.9997H63.6401V27.5897C63.4534 27.803 63.2501 28.0497 63.0301 28.3297C62.8101 28.6097 62.5834 28.908 62.35 29.2247C62.1167 29.5413 61.8817 29.8697 61.6451 30.2097C61.4084 30.5497 61.1801 30.8847 60.9601 31.2147C60.7401 31.5447 60.535 31.863 60.345 32.1697C60.155 32.4763 59.9868 32.753 59.8401 32.9997H59.0301ZM70.67 26.0697H71.6401V32.9997H70.67V29.7997H67.2801V32.9997H66.3101V26.0697H67.2801V28.9597H70.67V26.0697ZM73.36 32.9997V26.0697H77.5901V26.8997H74.3301V28.9597H77.23V29.7697H74.3301V32.1697H77.8401V32.9997H73.36ZM83.4301 26.0697H84.4001V32.9997H83.4301V29.7997H80.04V32.9997H79.0701V26.0697H80.04V28.9597H83.4301V26.0697ZM90.48 26.0697H91.4501V32.9997H90.48V29.7997H87.0901V32.9997H86.1201V26.0697H87.0901V28.9597H90.48V26.0697ZM92.8901 29.5297C92.8901 28.9363 92.9784 28.413 93.1551 27.9597C93.3318 27.5063 93.5717 27.128 93.8751 26.8247C94.1784 26.5213 94.5317 26.293 94.9351 26.1397C95.3384 25.9863 95.7667 25.9097 96.22 25.9097C96.6667 25.9097 97.0884 25.9863 97.485 26.1397C97.8817 26.293 98.2301 26.5213 98.5301 26.8247C98.8301 27.128 99.0684 27.5063 99.2451 27.9597C99.4217 28.413 99.5101 28.9363 99.5101 29.5297C99.5101 30.123 99.4217 30.6463 99.2451 31.0997C99.0684 31.553 98.8301 31.9313 98.5301 32.2347C98.2301 32.538 97.8817 32.7663 97.485 32.9197C97.0884 33.073 96.6667 33.1497 96.22 33.1497C95.7667 33.1497 95.3384 33.073 94.9351 32.9197C94.5317 32.7663 94.1784 32.538 93.8751 32.2347C93.5717 31.9313 93.3318 31.553 93.1551 31.0997C92.9784 30.6463 92.8901 30.123 92.8901 29.5297ZM93.91 29.5297C93.91 29.9497 93.9634 30.3313 94.0701 30.6747C94.1767 31.018 94.3284 31.3097 94.5251 31.5497C94.7218 31.7897 94.9617 31.9747 95.2451 32.1047C95.5284 32.2347 95.8467 32.2997 96.2001 32.2997C96.5534 32.2997 96.8701 32.2347 97.1501 32.1047C97.4301 31.9747 97.6684 31.7897 97.8651 31.5497C98.0617 31.3097 98.2134 31.018 98.3201 30.6747C98.4267 30.3313 98.48 29.9497 98.48 29.5297C98.48 29.1097 98.4267 28.728 98.3201 28.3847C98.2134 28.0413 98.0617 27.7497 97.8651 27.5097C97.6684 27.2697 97.4301 27.0847 97.1501 26.9547C96.8701 26.8247 96.5534 26.7597 96.2001 26.7597C95.8467 26.7597 95.5284 26.8247 95.2451 26.9547C94.9617 27.0847 94.7218 27.2697 94.5251 27.5097C94.3284 27.7497 94.1767 28.0413 94.0701 28.3847C93.9634 28.728 93.91 29.1097 93.91 29.5297ZM100.95 32.9997V26.0697H105.18V26.8997H101.92V28.9597H104.82V29.7697H101.92V32.1697H105.43V32.9997H100.95Z" fill="#55607A"/>
<path fill-rule="evenodd" clip-rule="evenodd" d="M29.9894 37.0697C29.7827 37.2963 29.5494 37.548 29.2894 37.8247C29.0294 38.1013 28.7577 38.3847 28.4744 38.6747C28.191 38.9647 27.9094 39.2497 27.6294 39.5297C27.3494 39.8097 27.0861 40.0697 26.8394 40.3097C27.1261 40.5097 27.4294 40.7563 27.7494 41.0497C28.0694 41.343 28.3827 41.6563 28.6894 41.9897C28.9961 42.323 29.2844 42.663 29.5544 43.0097C29.8244 43.3563 30.0494 43.6863 30.2294 43.9997H29.0894C28.8894 43.6863 28.6594 43.3713 28.3994 43.0547C28.1394 42.738 27.8644 42.4347 27.5744 42.1447C27.2844 41.8547 26.9911 41.5863 26.6944 41.3397C26.3977 41.093 26.1094 40.883 25.8294 40.7097V43.9997H24.8594V37.0697H25.8294V40.1297C26.0627 39.9097 26.3194 39.6613 26.5994 39.3847C26.8794 39.108 27.156 38.8297 27.4294 38.5497C27.7027 38.2697 27.9611 38.0013 28.2044 37.7447C28.4477 37.488 28.6527 37.263 28.8194 37.0697H29.9894ZM32.9894 36.9997C33.9627 36.9997 34.711 37.1847 35.2344 37.5547C35.7577 37.9247 36.0194 38.4763 36.0194 39.2097C36.0194 39.6097 35.9477 39.9513 35.8044 40.2347C35.661 40.518 35.4544 40.748 35.1844 40.9247C34.9144 41.1013 34.5861 41.2297 34.1994 41.3097C33.8127 41.3897 33.3761 41.4297 32.8894 41.4297H32.1194V43.9997H31.1494V37.1697C31.4227 37.103 31.7277 37.058 32.0644 37.0347C32.4011 37.0113 32.7094 36.9997 32.9894 36.9997ZM33.0694 37.8497C32.6561 37.8497 32.3394 37.8597 32.1194 37.8797V40.5997H32.8494C33.1827 40.5997 33.4827 40.578 33.7494 40.5347C34.0161 40.4913 34.241 40.418 34.4244 40.3147C34.6077 40.2113 34.7494 40.0697 34.8494 39.8897C34.9494 39.7097 34.9994 39.4797 34.9994 39.1997C34.9994 38.933 34.9477 38.713 34.8444 38.5397C34.741 38.3663 34.601 38.228 34.4244 38.1247C34.2477 38.0213 34.0427 37.9497 33.8094 37.9097C33.5761 37.8697 33.3294 37.8497 33.0694 37.8497ZM37.2294 43.9997V37.0697H41.4594V37.8997H38.1994V39.9597H41.0994V40.7697H38.1994V43.1697H41.7094V43.9997H37.2294ZM43.1594 43.9997V45.8497H42.2394V43.1697H42.9694C43.3094 42.783 43.5711 42.3547 43.7544 41.8847C43.9377 41.4147 44.0711 40.918 44.1544 40.3947C44.2378 39.8713 44.2877 39.3297 44.3044 38.7697C44.321 38.2097 44.3328 37.643 44.3394 37.0697H48.2594V43.1697H49.1294V45.8497H48.2094V43.9997H43.1594ZM45.2894 37.8997C45.2694 38.3397 45.2477 38.788 45.2244 39.2447C45.201 39.7013 45.1511 40.1547 45.0744 40.6047C44.9977 41.0547 44.886 41.4963 44.7394 41.9297C44.5927 42.363 44.3861 42.7763 44.1194 43.1697H47.2894V37.8997H45.2894ZM50.1694 43.9997V37.0697H51.1194V42.1997C51.3327 41.8463 51.5944 41.443 51.9044 40.9897C52.2144 40.5363 52.5444 40.0747 52.8944 39.6047C53.2444 39.1347 53.5977 38.678 53.9544 38.2347C54.3111 37.7913 54.6461 37.403 54.9594 37.0697H55.7294V43.9997H54.7794V38.5897C54.5928 38.803 54.3894 39.0497 54.1694 39.3297C53.9494 39.6097 53.7227 39.908 53.4894 40.2247C53.256 40.5413 53.021 40.8697 52.7844 41.2097C52.5477 41.5497 52.3194 41.8847 52.0994 42.2147C51.8794 42.5447 51.6744 42.863 51.4844 43.1697C51.2944 43.4763 51.126 43.753 50.9794 43.9997H50.1694ZM62.0794 37.0697V37.9097H59.8994V43.9997H58.9294V37.9097H56.7494V37.0697H62.0794ZM67.4594 37.0697H68.4294V43.9997H67.4594V40.7997H64.0694V43.9997H63.0994V37.0697H64.0694V39.9597H67.4594V37.0697ZM69.8694 40.5297C69.8694 39.9363 69.9577 39.413 70.1344 38.9597C70.3111 38.5063 70.551 38.128 70.8544 37.8247C71.1577 37.5213 71.511 37.293 71.9144 37.1397C72.3177 36.9863 72.7461 36.9097 73.1994 36.9097C73.6461 36.9097 74.0677 36.9863 74.4644 37.1397C74.8611 37.293 75.2094 37.5213 75.5094 37.8247C75.8094 38.128 76.0477 38.5063 76.2244 38.9597C76.401 39.413 76.4894 39.9363 76.4894 40.5297C76.4894 41.123 76.401 41.6463 76.2244 42.0997C76.0477 42.553 75.8094 42.9313 75.5094 43.2347C75.2094 43.538 74.8611 43.7663 74.4644 43.9197C74.0677 44.073 73.6461 44.1497 73.1994 44.1497C72.7461 44.1497 72.3177 44.073 71.9144 43.9197C71.511 43.7663 71.1577 43.538 70.8544 43.2347C70.551 42.9313 70.3111 42.553 70.1344 42.0997C69.9577 41.6463 69.8694 41.123 69.8694 40.5297ZM70.8894 40.5297C70.8894 40.9497 70.9427 41.3313 71.0494 41.6747C71.156 42.018 71.3077 42.3097 71.5044 42.5497C71.7011 42.7897 71.941 42.9747 72.2244 43.1047C72.5077 43.2347 72.826 43.2997 73.1794 43.2997C73.5327 43.2997 73.8494 43.2347 74.1294 43.1047C74.4094 42.9747 74.6477 42.7897 74.8444 42.5497C75.041 42.3097 75.1927 42.018 75.2994 41.6747C75.406 41.3313 75.4594 40.9497 75.4594 40.5297C75.4594 40.1097 75.406 39.728 75.2994 39.3847C75.1927 39.0413 75.041 38.7497 74.8444 38.5097C74.6477 38.2697 74.4094 38.0847 74.1294 37.9547C73.8494 37.8247 73.5327 37.7597 73.1794 37.7597C72.826 37.7597 72.5077 37.8247 72.2244 37.9547C71.941 38.0847 71.7011 38.2697 71.5044 38.5097C71.3077 38.7497 71.156 39.0413 71.0494 39.3847C70.9427 39.728 70.8894 40.1097 70.8894 40.5297ZM77.9294 43.9997V37.0697H82.1594V37.8997H78.8994V39.9597H81.7994V40.7697H78.8994V43.1697H82.4094V43.9997H77.9294ZM86.9194 37.8997V39.6597H87.7794C88.2661 39.6597 88.7011 39.6997 89.0844 39.7797C89.4677 39.8597 89.7927 39.988 90.0594 40.1647C90.3261 40.3413 90.5294 40.568 90.6694 40.8447C90.8094 41.1213 90.8794 41.4597 90.8794 41.8597C90.8794 42.593 90.6127 43.1447 90.0794 43.5147C89.5461 43.8847 88.7927 44.0697 87.8194 44.0697C87.6794 44.0697 87.5277 44.0663 87.3644 44.0597C87.201 44.053 87.0377 44.043 86.8744 44.0297C86.7111 44.0163 86.5494 43.9997 86.3894 43.9797C86.2294 43.9597 86.0827 43.933 85.9494 43.8997V37.0697H90.2294V37.8997H86.9194ZM87.8994 43.2197C88.1594 43.2197 88.4077 43.1997 88.6444 43.1597C88.8811 43.1197 89.0894 43.048 89.2694 42.9447C89.4494 42.8413 89.5927 42.703 89.6994 42.5297C89.8061 42.3563 89.8594 42.1363 89.8594 41.8697C89.8594 41.5897 89.8111 41.3597 89.7144 41.1797C89.6178 40.9997 89.4794 40.8563 89.2994 40.7497C89.1194 40.643 88.8977 40.568 88.6344 40.5247C88.3711 40.4813 88.0727 40.4597 87.7394 40.4597H86.9194V43.1897C86.9927 43.1963 87.0794 43.203 87.1794 43.2097C87.266 43.2163 87.3694 43.2197 87.4894 43.2197H87.8994ZM97.8294 36.9197C98.2561 36.9197 98.661 36.9963 99.0444 37.1497C99.4277 37.303 99.7644 37.5313 100.054 37.8347C100.344 38.138 100.574 38.5147 100.744 38.9647C100.914 39.4147 100.999 39.9363 100.999 40.5297C100.999 41.123 100.916 41.6447 100.749 42.0947C100.583 42.5447 100.354 42.9213 100.064 43.2247C99.7744 43.528 99.4377 43.7563 99.0544 43.9097C98.6711 44.063 98.2627 44.1397 97.8294 44.1397C97.4094 44.1397 97.0127 44.068 96.6394 43.9247C96.2661 43.7813 95.9378 43.5697 95.6544 43.2897C95.3711 43.0097 95.1411 42.6613 94.9644 42.2447C94.7878 41.828 94.686 41.343 94.6594 40.7897H93.1094V43.9997H92.1394V37.0697H93.1094V39.9597H94.6894C94.7427 39.4597 94.8627 39.0197 95.0494 38.6397C95.236 38.2597 95.4694 37.943 95.7494 37.6897C96.0294 37.4363 96.3477 37.2447 96.7044 37.1147C97.0611 36.9847 97.4361 36.9197 97.8294 36.9197ZM97.8294 43.2897C98.1694 43.2897 98.4727 43.2247 98.7394 43.0947C99.0061 42.9647 99.231 42.7797 99.4144 42.5397C99.5977 42.2997 99.7377 42.0097 99.8344 41.6697C99.9311 41.3297 99.9794 40.9497 99.9794 40.5297C99.9794 40.1097 99.9311 39.7297 99.8344 39.3897C99.7377 39.0497 99.5977 38.7597 99.4144 38.5197C99.231 38.2797 99.0061 38.0947 98.7394 37.9647C98.4727 37.8347 98.1694 37.7697 97.8294 37.7697C97.4894 37.7697 97.186 37.8347 96.9194 37.9647C96.6527 38.0947 96.426 38.2797 96.2394 38.5197C96.0527 38.7597 95.9111 39.0497 95.8144 39.3897C95.7177 39.7297 95.6694 40.1097 95.6694 40.5297C95.6694 40.9497 95.7177 41.3297 95.8144 41.6697C95.9111 42.0097 96.0527 42.2997 96.2394 42.5397C96.426 42.7797 96.6527 42.9647 96.9194 43.0947C97.186 43.2247 97.4894 43.2897 97.8294 43.2897ZM104.279 36.9997C105.253 36.9997 106.001 37.1847 106.524 37.5547C107.048 37.9247 107.309 38.4763 107.309 39.2097C107.309 39.6097 107.238 39.9513 107.094 40.2347C106.951 40.518 106.744 40.748 106.474 40.9247C106.204 41.1013 105.876 41.2297 105.489 41.3097C105.103 41.3897 104.666 41.4297 104.179 41.4297H103.409V43.9997H102.439V37.1697C102.713 37.103 103.018 37.058 103.354 37.0347C103.691 37.0113 103.999 36.9997 104.279 36.9997ZM104.359 37.8497C103.946 37.8497 103.629 37.8597 103.409 37.8797V40.5997H104.139C104.473 40.5997 104.773 40.578 105.039 40.5347C105.306 40.4913 105.531 40.418 105.714 40.3147C105.898 40.2113 106.039 40.0697 106.139 39.8897C106.239 39.7097 106.289 39.4797 106.289 39.1997C106.289 38.933 106.238 38.713 106.134 38.5397C106.031 38.3663 105.891 38.228 105.714 38.1247C105.538 38.0213 105.333 37.9497 105.099 37.9097C104.866 37.8697 104.619 37.8497 104.359 37.8497ZM108.239 40.5297C108.239 39.9363 108.328 39.413 108.504 38.9597C108.681 38.5063 108.921 38.128 109.224 37.8247C109.528 37.5213 109.881 37.293 110.284 37.1397C110.688 36.9863 111.116 36.9097 111.569 36.9097C112.016 36.9097 112.438 36.9863 112.834 37.1397C113.231 37.293 113.579 37.5213 113.879 37.8247C114.179 38.128 114.418 38.5063 114.594 38.9597C114.771 39.413 114.859 39.9363 114.859 40.5297C114.859 41.123 114.771 41.6463 114.594 42.0997C114.418 42.553 114.179 42.9313 113.879 43.2347C113.579 43.538 113.231 43.7663 112.834 43.9197C112.438 44.073 112.016 44.1497 111.569 44.1497C111.116 44.1497 110.688 44.073 110.284 43.9197C109.881 43.7663 109.528 43.538 109.224 43.2347C108.921 42.9313 108.681 42.553 108.504 42.0997C108.328 41.6463 108.239 41.123 108.239 40.5297ZM109.259 40.5297C109.259 40.9497 109.313 41.3313 109.419 41.6747C109.526 42.018 109.678 42.3097 109.874 42.5497C110.071 42.7897 110.311 42.9747 110.594 43.1047C110.878 43.2347 111.196 43.2997 111.549 43.2997C111.903 43.2997 112.219 43.2347 112.499 43.1047C112.779 42.9747 113.018 42.7897 113.214 42.5497C113.411 42.3097 113.563 42.018 113.669 41.6747C113.776 41.3313 113.829 40.9497 113.829 40.5297C113.829 40.1097 113.776 39.728 113.669 39.3847C113.563 39.0413 113.411 38.7497 113.214 38.5097C113.018 38.2697 112.779 38.0847 112.499 37.9547C112.219 37.8247 111.903 37.7597 111.549 37.7597C111.196 37.7597 110.878 37.8247 110.594 37.9547C110.311 38.0847 110.071 38.2697 109.874 38.5097C109.678 38.7497 109.526 39.0413 109.419 39.3847C109.313 39.728 109.259 40.1097 109.259 40.5297Z" fill="#55607A"/>
<path d="M10.5 48C12.433 48 14 46.433 14 44.5C14 42.567 12.433 41 10.5 41C8.567 41 7 42.567 7 44.5C7 46.433 8.567 48 10.5 48Z" fill="#55607A"/>
<path d="M5.5 40C7.433 40 9 38.433 9 36.5C9 34.567 7.433 33 5.5 33C3.567 33 2 34.567 2 36.5C2 38.433 3.567 40 5.5 40Z" fill="#55607A"/>
<path d="M3.5 31C5.433 31 7 29.433 7 27.5C7 25.567 5.433 24 3.5 24C1.567 24 0 25.567 0 27.5C0 29.433 1.567 31 3.5 31Z" fill="#55607A"/>
<path d="M5.5 22C7.433 22 9 20.433 9 18.5C9 16.567 7.433 15 5.5 15C3.567 15 2 16.567 2 18.5C2 20.433 3.567 22 5.5 22Z" fill="#55607A"/>
<path d="M10.5 14C12.433 14 14 12.433 14 10.5C14 8.567 12.433 7 10.5 7C8.567 7 7 8.567 7 10.5C7 12.433 8.567 14 10.5 14Z" fill="#55607A"/>
<path d="M18.5 9C20.433 9 22 7.433 22 5.5C22 3.567 20.433 2 18.5 2C16.567 2 15 3.567 15 5.5C15 7.433 16.567 9 18.5 9Z" fill="#55607A"/>
<path d="M27.5 7C29.433 7 31 5.433 31 3.5C31 1.567 29.433 0 27.5 0C25.567 0 24 1.567 24 3.5C24 5.433 25.567 7 27.5 7Z" fill="#55607A"/>
<path d="M36.5 9C38.433 9 40 7.433 40 5.5C40 3.567 38.433 2 36.5 2C34.567 2 33 3.567 33 5.5C33 7.433 34.567 9 36.5 9Z" fill="#55607A"/>
<path d="M44.5 14C46.433 14 48 12.433 48 10.5C48 8.567 46.433 7 44.5 7C42.567 7 41 8.567 41 10.5C41 12.433 42.567 14 44.5 14Z" fill="#55607A"/>
<path d="M33.5 15C34.8807 15 36 13.8807 36 12.5C36 11.1193 34.8807 10 33.5 10C32.1193 10 31 11.1193 31 12.5C31 13.8807 32.1193 15 33.5 15Z" fill="#55607A"/>
<path d="M27.5 14C28.8807 14 30 12.8807 30 11.5C30 10.1193 28.8807 9 27.5 9C26.1193 9 25 10.1193 25 11.5C25 12.8807 26.1193 14 27.5 14Z" fill="#55607A"/>
<path d="M21.5 15C22.8807 15 24 13.8807 24 12.5C24 11.1193 22.8807 10 21.5 10C20.1193 10 19 11.1193 19 12.5C19 13.8807 20.1193 15 21.5 15Z" fill="#55607A"/>
<path d="M16.5 18C17.8807 18 19 16.8807 19 15.5C19 14.1193 17.8807 13 16.5 13C15.1193 13 14 14.1193 14 15.5C14 16.8807 15.1193 18 16.5 18Z" fill="#55607A"/>
<path d="M12.5 23C13.8807 23 15 21.8807 15 20.5C15 19.1193 13.8807 18 12.5 18C11.1193 18 10 19.1193 10 20.5C10 21.8807 11.1193 23 12.5 23Z" fill="#55607A"/>
<path d="M11.5 30C12.8807 30 14 28.8807 14 27.5C14 26.1193 12.8807 25 11.5 25C10.1193 25 9 26.1193 9 27.5C9 28.8807 10.1193 30 11.5 30Z" fill="#55607A"/>
<path d="M12.5 36C13.8807 36 15 34.8807 15 33.5C15 32.1193 13.8807 31 12.5 31C11.1193 31 10 32.1193 10 33.5C10 34.8807 11.1193 36 12.5 36Z" fill="#55607A"/>
<path d="M16.5 41C17.8807 41 19 39.8807 19 38.5C19 37.1193 17.8807 36 16.5 36C15.1193 36 14 37.1193 14 38.5C14 39.8807 15.1193 41 16.5 41Z" fill="#55607A"/>
<path d="M20.5 36C21.3284 36 22 35.3284 22 34.5C22 33.6716 21.3284 33 20.5 33C19.6716 33 19 33.6716 19 34.5C19 35.3284 19.6716 36 20.5 36Z" fill="#55607A"/>
<path d="M17.5 33C18.3284 33 19 32.3284 19 31.5C19 30.6716 18.3284 30 17.5 30C16.6716 30 16 30.6716 16 31.5C16 32.3284 16.6716 33 17.5 33Z" fill="#55607A"/>
<path d="M17.5 29C18.3284 29 19 28.3284 19 27.5C19 26.6716 18.3284 26 17.5 26C16.6716 26 16 26.6716 16 27.5C16 28.3284 16.6716 29 17.5 29Z" fill="#55607A"/>
<path d="M17.5 25C18.3284 25 19 24.3284 19 23.5C19 22.6716 18.3284 22 17.5 22C16.6716 22 16 22.6716 16 23.5C16 24.3284 16.6716 25 17.5 25Z" fill="#55607A"/>
<path d="M19.5 21C20.3284 21 21 20.3284 21 19.5C21 18.6716 20.3284 18 19.5 18C18.6716 18 18 18.6716 18 19.5C18 20.3284 18.6716 21 19.5 21Z" fill="#55607A"/>
<path d="M23.5 19C24.3284 19 25 18.3284 25 17.5C25 16.6716 24.3284 16 23.5 16C22.6716 16 22 16.6716 22 17.5C22 18.3284 22.6716 19 23.5 19Z" fill="#55607A"/>
<path d="M27.5 18C28.3284 18 29 17.3284 29 16.5C29 15.6716 28.3284 15 27.5 15C26.6716 15 26 15.6716 26 16.5C26 17.3284 26.6716 18 27.5 18Z" fill="#55607A"/>
<path d="M31.5 19C32.3284 19 33 18.3284 33 17.5C33 16.6716 32.3284 16 31.5 16C30.6716 16 30 16.6716 30 17.5C30 18.3284 30.6716 19 31.5 19Z" fill="#55607A"/>
<path d="M35.5 22C36.3284 22 37 21.3284 37 20.5C37 19.6716 36.3284 19 35.5 19C34.6716 19 34 19.6716 34 20.5C34 21.3284 34.6716 22 35.5 22Z" fill="#55607A"/>
<path d="M38.5 18C39.8807 18 41 16.8807 41 15.5C41 14.1193 39.8807 13 38.5 13C37.1193 13 36 14.1193 36 15.5C36 16.8807 37.1193 18 38.5 18Z" fill="#55607A"/>
<path fill-rule="evenodd" clip-rule="evenodd" d="M199.562 15.1595C199.448 16.0334 199.128 15.9556 198.984 15.9131C198.828 15.8678 198.786 15.8025 198.318 15.7587C198.171 15.7446 197.488 15.6681 197.853 15.9556C198.44 16.4245 198.938 17.3763 198.938 17.3763C199.006 17.066 198.848 16.6229 198.763 16.4683C198.675 16.3111 198.786 16.2686 198.893 16.2899C199.006 16.3111 199.069 16.3536 199.273 16.4683C199.471 16.5774 199.604 16.5576 199.65 16.2899C199.686 16.0588 199.675 15.5874 199.63 15.161C199.624 15.1298 199.573 15.1144 199.562 15.1595ZM194.391 14.0915C193.238 15.0251 191.34 17.2575 190.445 19.3494C190.377 19.5053 190.445 19.5293 190.666 19.3949C190.89 19.2603 191.533 18.9513 191.842 18.8622C191.842 18.8622 191.508 20.0208 191.397 20.6595C191.309 21.1853 191.746 21.1441 192.018 21.0816C192.29 21.0207 193.417 20.9713 193.615 20.9472C193.615 20.9472 192.573 20.702 192.462 20.2801C192.352 19.8608 192.649 18.9232 192.861 18.2871C192.907 18.1511 192.839 17.9543 192.618 18.0406C192.394 18.1286 192.086 18.1951 191.93 18.2871C191.93 18.2871 192.907 15.8905 194.414 14.1594L194.391 14.0915ZM195.856 11.6991C195.921 11.6256 195.856 11.5658 195.681 11.6779C195.502 11.7869 194.72 12.2571 194.193 13.1398C194.128 13.2514 194.168 13.4173 194.448 13.321C194.791 13.2005 195.145 13.1398 195.301 13.117C195.457 13.0942 195.457 12.9852 195.346 12.9427C195.236 12.8961 195.21 12.8534 195.258 12.6751C195.301 12.498 195.612 11.9868 195.856 11.6991ZM185.66 26.7796C185.796 26.6125 186.08 26.3775 186.454 26.1932C186.986 25.9239 188.505 25.7483 189.346 25.7598C189.845 25.7652 190.179 25.992 190.411 26.2244C190.643 26.4566 190.244 26.4906 190.045 26.3235C189.845 26.1592 189.624 26.1026 189.391 26.1026C189.159 26.1026 188.913 26.1932 188.782 26.2895C188.649 26.3913 188.615 26.5275 188.284 26.6235C187.882 26.7369 187.417 26.3744 187.417 26.3744C187.743 26.9893 188.303 26.9693 188.615 26.893C188.842 26.8334 188.913 26.7285 189.247 26.7228C189.779 26.7144 190.012 27.0233 190.012 27.0233C189.346 26.9893 188.219 27.4058 187.683 27.5218C187.017 27.6692 186.386 27.6889 186.386 27.6889C186.816 28.2216 187.451 28.2216 187.918 28.2216C188.383 28.2216 189.878 28.111 190.777 28.1876C191.904 28.281 192.805 29.0205 192.805 30.1169C192.805 31.213 192.043 31.8108 192.043 31.8108C193.006 31.5135 193.406 30.7484 193.406 30.7484C193.919 32.7259 192.853 34.3068 191.879 34.9527C191.069 35.4908 188.638 36.0462 186.771 35.1538C184.706 34.1652 183.924 33.202 183.924 33.202C188.414 33.5673 190.61 32.3237 190.61 32.3237C186.553 32.5587 183.723 31.533 181.893 30.7315C181.162 29.5701 180.629 28.3009 180.317 26.9212V26.924C183.674 29.4509 186.652 29.8845 186.652 29.8845C183.026 27.9213 181.221 25.7229 180.023 23.5309C180.085 22.2504 180.34 21.0535 180.759 19.9046L180.768 19.8847C182.114 23.4643 183.592 24.5301 183.592 24.5301C182.128 21.2009 182.139 18.8169 182.272 17.0207C182.833 16.2246 183.47 15.5194 184.199 14.8761L184.21 14.8633C183.643 18.059 184.323 20.1357 184.323 20.1357C184.323 17.6085 185.743 14.6014 186.873 13.0689C187.59 12.7105 188.281 12.4455 189.066 12.2259H189.068C188.037 13.5222 187.584 14.7799 187.584 14.7799C189.7 12.7658 193.204 11.556 193.737 11.4201C194.269 11.2898 195.802 10.7231 196.236 10.6255C196.632 10.5305 196.825 10.7827 196.799 11.0235C196.766 11.3364 196.632 11.8563 196.632 11.8563C197.808 12.1425 198.318 12.7205 198.318 12.7205C198.273 12.5646 198.295 12.2983 198.295 12.2983C199.916 13.7401 200.358 14.4273 200.403 15.7344C200.448 17.0433 201.023 17.2432 201.355 17.4201C201.689 17.5974 202.511 18.0661 202.774 18.2871C202.972 18.4542 202.887 18.6413 202.774 18.7744C202.664 18.906 202.664 18.9513 202.644 19.1057C202.545 19.7856 202.241 20.0605 201.822 20.2136C201.4 20.3679 200.933 20.1255 200.933 20.1255C200.468 20.6357 200.38 20.3027 200.358 20.1045C200.338 19.9046 200.091 20.0605 199.916 20.1255C199.737 20.1921 199.672 19.9486 199.672 19.9486C198.828 19.8381 198.46 20.3367 198.46 20.3367C199.193 20.436 199.562 20.9344 199.593 21.1341C199.627 21.3381 199.958 21.2009 199.958 21.2009C199.958 21.2009 199.99 21.1341 200.126 21.0691C200.259 21.0023 200.293 21.035 200.259 21.2009C200.225 21.3663 200.19 21.5012 200.19 21.5012L200.559 21.7349C200.423 22.6344 200.027 22.5958 199.825 22.4982C198.547 21.8595 196.267 21.7349 196.267 21.7349C196.4 21.535 196.72 21.2787 196.72 21.2787C190.867 21.2787 189.878 21.9896 189.578 22.3651C189.371 22.6257 189.55 23.0294 189.55 23.0294C188.853 23.1627 187.085 23.6089 186.408 24.2298C185.757 24.825 185.539 26.2214 185.516 26.7369C185.51 26.8447 185.615 26.8419 185.66 26.7796ZM201.04 33.0348L201.052 33.0261C200.445 33.6185 199.794 34.1396 199.077 34.5956C199.233 34.3068 199.783 32.7259 198.786 30.6381C197.785 28.5559 196.431 27.4227 195.123 26.536C193.816 25.6492 191.686 24.9806 191.264 24.8503C190.845 24.7172 190.867 24.5841 190.955 24.3179C191.043 24.0514 191.443 23.4318 191.443 23.4318C191.264 23.4517 190.777 23.6074 190.536 23.7193C190.289 23.8298 190.091 23.8071 190.023 23.7405C189.575 23.2915 190.51 22.4119 190.51 22.4119C190.536 22.7207 190.643 22.8763 191.108 22.8085C191.575 22.7447 193.128 22.6088 193.482 22.6088C193.482 22.6088 191.797 23.9161 191.508 24.3601C191.222 24.805 191.686 24.7172 191.91 24.7625C192.131 24.805 193.76 24.8956 195.323 25.6039C196.12 25.9638 197.19 26.7909 197.808 27.5302C198.029 27.7993 198.584 28.4622 198.828 28.6634C198.828 28.6634 197.941 28.5303 197.474 28.2641C197.474 28.2641 197.955 28.8165 198.281 29.2102C199.08 30.1763 200.519 31.2896 201.04 33.0348ZM203.958 28.6151C203.692 29.3065 203.375 29.9551 202.995 30.5813C201.596 26.6379 197.675 25.0712 197.675 25.0712C200.423 25.7115 202.675 27.5727 203.958 28.6151ZM196.261 35.9356L196.256 35.9384C195.496 36.1878 194.658 36.3692 193.842 36.4655C196.745 35.0686 196.655 30.8364 196.655 30.8364C197.142 32.6353 196.681 34.9583 196.261 35.9356ZM204.783 23.9948C204.786 24.0627 204.786 24.0967 204.786 24.1589C204.786 24.6719 204.752 25.1734 204.695 25.6633V25.6833C202.553 23.6512 200.403 22.7207 200.403 22.7207C201.332 22.8538 202.443 22.7645 203.173 22.5676C203.173 22.5676 202.862 23.1428 202.086 23.1853C202.086 23.1853 204.406 23.8424 204.783 23.9948ZM192.358 10.9314C185.051 10.9314 179.128 16.8549 179.128 24.1589C179.128 31.468 185.051 37.3947 192.358 37.3947C199.666 37.3947 205.59 31.468 205.59 24.1589C205.59 19.0379 202.672 14.6042 198.411 12.4059C198.372 12.369 198.338 12.3365 198.295 12.2983C198.295 12.2983 198.293 12.3181 198.293 12.348C197.774 12.0859 197.233 11.8591 196.677 11.6666C196.72 11.4866 196.777 11.2202 196.799 11.0235C196.825 10.7827 196.632 10.5305 196.236 10.6255C195.961 10.6862 195.256 10.9327 194.638 11.1411C193.896 11.0121 193.137 10.9314 192.358 10.9314Z" fill="#55607A"/>
<path fill-rule="evenodd" clip-rule="evenodd" d="M318.738 25.8675L319.511 24.1282L320.276 25.8675H318.738ZM323.368 27.6108L320.532 21.1665H317.736C318.099 21.4267 318.509 21.8643 318.675 22.247L316.301 27.6147C316.056 28.1707 315.871 28.4308 315.283 28.975H318.091C317.736 28.573 317.701 28.2298 317.847 27.8906C317.847 27.8906 317.997 27.5435 318.095 27.3108H320.915L321.167 27.8906C321.333 28.2576 321.333 28.4822 320.93 28.975H324.444C323.865 28.4665 323.628 28.1985 323.368 27.6108Z" fill="#55607A"/>
<path fill-rule="evenodd" clip-rule="evenodd" d="M241.188 22.3971C242.335 22.3971 242.591 22.7716 243.143 23.454L244.307 20.7881C243.881 21.0522 243.483 21.2613 242.97 21.2613C242.371 21.2613 242.071 21.0326 241.101 21.0326C238.632 21.0326 236.968 22.6536 236.968 25.0669C236.968 27.5279 238.471 29.1212 240.978 29.1212C242.367 29.1212 243.352 28.4861 244.011 27.5674L243.443 26.2856C242.824 27.169 242.165 27.7606 241.188 27.7567C239.937 27.7567 239.204 26.5382 239.204 25.0669C239.204 23.6511 239.882 22.3971 241.188 22.3971Z" fill="#55607A"/>
<path fill-rule="evenodd" clip-rule="evenodd" d="M251.472 27.5317L249.074 24.641L251.327 22.4957C252.005 21.8528 252.32 21.5963 252.999 21.1665H249.327C249.769 21.6515 249.816 21.8329 249.501 22.1405C249.505 22.1405 247.308 24.2308 247.308 24.2308V22.3891C247.308 21.829 247.513 21.5057 247.84 21.1665H244.622C244.957 21.5057 245.159 21.829 245.159 22.3891V27.7566C245.159 28.3125 244.957 28.6322 244.622 28.975H247.84C247.513 28.6322 247.308 28.3125 247.308 27.7566V25.8084L249.114 27.9733C249.426 28.3482 249.319 28.5416 248.96 28.975H253.073C252.352 28.4822 252.068 28.2537 251.472 27.5317Z" fill="#55607A"/>
<path fill-rule="evenodd" clip-rule="evenodd" d="M261.065 21.1665H257.85C258.178 21.5057 258.383 21.829 258.383 22.3891V22.4208L255.851 25.4139V22.3891C255.851 21.829 256.052 21.5057 256.383 21.1665H253.169C253.496 21.5057 253.701 21.829 253.701 22.3891V27.7566C253.701 28.3125 253.496 28.6322 253.169 28.975H256.383C256.052 28.6322 255.851 28.3125 255.851 27.7566V27.6974L258.383 24.7001V27.7566C258.383 28.3125 258.178 28.6322 257.85 28.975H261.065C260.738 28.6322 260.532 28.3125 260.532 27.7566V22.3891C260.532 21.829 260.738 21.5057 261.065 21.1665Z" fill="#55607A"/>
<path fill-rule="evenodd" clip-rule="evenodd" d="M227.396 21.1665C227.601 21.5018 227.664 21.7384 227.455 22.2548C227.451 22.2548 226.544 24.4436 226.051 25.6306L224.6 22.2548C224.402 21.8172 224.399 21.5531 224.632 21.1665H221.252C221.721 21.5924 221.969 21.9437 222.265 22.531C222.261 22.531 224.497 27.4412 224.9 28.3325C224.363 29.5826 223.902 30.0754 223.291 30.0754C222.51 30.0754 222.182 29.5666 221.733 28.7309L220.952 30.3911C221.386 30.8448 222.139 31.4798 223.244 31.4798C225.057 31.4798 225.775 30.1424 226.469 28.5217L229.033 22.5192C229.309 21.8884 229.557 21.5254 229.885 21.1665H227.396Z" fill="#55607A"/>
<path fill-rule="evenodd" clip-rule="evenodd" d="M216.657 21.5449H217.083C218.215 21.5449 218.952 21.9116 218.952 23.0833C218.952 24.2703 218.404 24.8223 217.229 24.8223H216.657V21.5449ZM220.471 20.9893C219.796 20.3147 218.763 19.9556 217.485 19.9556H213.786C214.224 20.3857 214.386 20.7053 214.386 21.3204V27.6065C214.386 28.2259 214.224 28.5416 213.786 28.975H217.252C216.815 28.5416 216.657 28.2259 216.657 27.6065V26.4195H217.485C218.688 26.4195 219.729 26.0371 220.419 25.3469C220.995 24.771 221.299 23.9902 221.299 23.095C221.299 22.259 221.011 21.5331 220.471 20.9893Z" fill="#55607A"/>
<path fill-rule="evenodd" clip-rule="evenodd" d="M233.848 27.7567C232.605 27.7567 231.868 26.5382 231.868 25.0669C231.868 23.6511 232.55 22.3971 233.848 22.3971C235.003 22.3971 235.256 22.7716 235.811 23.454L236.967 20.7881C236.545 21.0522 236.146 21.2613 235.634 21.2613C235.035 21.2613 234.735 21.0326 233.765 21.0326C231.296 21.0326 229.636 22.6536 229.636 25.0669C229.636 27.5279 231.138 29.1212 233.643 29.1212C235.031 29.1212 236.017 28.4861 236.679 27.5674L236.108 26.2856C235.488 27.169 234.834 27.7606 233.848 27.7567Z" fill="#55607A"/>
<path fill-rule="evenodd" clip-rule="evenodd" d="M306.599 21.1665H303.381C303.712 21.5057 303.917 21.829 303.917 22.3891V24.223H301.594V22.3891C301.594 21.829 301.791 21.5057 302.127 21.1665H298.909C299.24 21.5057 299.445 21.829 299.445 22.3891V27.7566C299.445 28.3125 299.24 28.6322 298.909 28.975H302.127C301.791 28.6322 301.594 28.3125 301.594 27.7566V25.6862H303.917V27.7566C303.917 28.3125 303.712 28.6322 303.381 28.975H306.599C306.268 28.6322 306.063 28.3125 306.063 27.7566V22.3891C306.063 21.829 306.268 21.5057 306.599 21.1665Z" fill="#55607A"/>
<path fill-rule="evenodd" clip-rule="evenodd" d="M293.166 25.8675L293.939 24.1282L294.7 25.8675H293.166ZM297.796 27.6108L294.953 21.1665H292.16C292.527 21.4267 292.929 21.8643 293.099 22.247L290.729 27.6147C290.48 28.1707 290.295 28.4308 289.707 28.975H292.515C292.16 28.573 292.121 28.2298 292.267 27.8906C292.267 27.8906 292.421 27.5435 292.523 27.3108H295.343L295.591 27.8906C295.757 28.2576 295.757 28.4822 295.359 28.975H298.869C298.293 28.4665 298.052 28.1985 297.796 27.6108Z" fill="#55607A"/>
<path fill-rule="evenodd" clip-rule="evenodd" d="M262.307 28.975H265.525C265.197 28.6322 264.993 28.3125 264.993 27.7566V27.6974L267.524 24.7001V27.7566C267.524 28.3125 267.319 28.6322 266.992 28.975H270.206C269.879 28.6322 269.674 28.3125 269.674 27.7566V22.3891C269.674 21.829 269.879 21.5057 270.206 21.1665H266.992C267.319 21.5057 267.524 21.829 267.524 22.3891V22.4208L264.993 25.4139V22.3891C264.993 21.829 265.197 21.5057 265.525 21.1665H262.307C262.642 21.5057 262.843 21.829 262.843 22.3891V27.7566C262.843 28.3125 262.642 28.6322 262.307 28.975Z" fill="#55607A"/>
<path fill-rule="evenodd" clip-rule="evenodd" d="M311.836 27.5082H310.05C310.31 27.0033 310.362 26.4235 310.362 25.5799V22.7875C310.362 22.7006 310.393 22.6336 310.511 22.6336H311.951V27.3621C311.951 27.4765 311.919 27.5082 311.836 27.5082ZM314.101 27.0467V22.3891C314.101 21.829 314.305 21.5057 314.633 21.1665H308.24C308.571 21.5057 308.772 21.829 308.772 22.3891V25.5799C308.772 26.9363 308.528 27.5121 307.258 28.0325V29.9333C307.889 29.3695 308.82 28.975 309.675 28.975H312.574C313.603 28.975 314.431 29.4917 314.991 29.9333V27.9733C314.443 27.8079 314.101 27.6187 314.101 27.0467Z" fill="#55607A"/>
<path fill-rule="evenodd" clip-rule="evenodd" d="M327.162 22.6179H327.497C328.061 22.6179 328.444 22.732 328.68 22.9647C328.878 23.166 328.976 23.4618 328.976 23.8759C328.976 24.8776 328.554 25.3195 327.619 25.3195H327.162V22.6179ZM331.086 23.3C330.991 22.8189 330.771 22.397 330.431 22.0578C329.847 21.478 328.948 21.1665 327.836 21.1665H324.484C324.812 21.5057 325.017 21.829 325.017 22.3891V27.7566C325.017 28.3125 324.812 28.6322 324.484 28.975H327.698C327.367 28.6322 327.162 28.3125 327.162 27.7566V26.7863H327.836C328.878 26.7863 329.781 26.4552 330.384 25.8558C330.881 25.3508 331.149 24.6727 331.149 23.8916C331.149 23.7337 331.137 23.584 331.114 23.438C331.717 22.9886 332.281 22.6297 332.928 22.6297L333.913 22.6336V27.7566C333.913 28.3125 333.713 28.6322 333.381 28.975H336.595C336.268 28.6322 336.063 28.3125 336.063 27.7566V22.6336H336.749C337.404 22.6336 337.55 22.7402 337.944 23.3435L338.899 21.1665H332.005L331.086 23.3Z" fill="#55607A"/>
<path fill-rule="evenodd" clip-rule="evenodd" d="M283.5 27.3661L282.877 25.9938C282.242 26.9481 281.536 27.658 280.243 27.658C278.795 27.658 277.75 26.2856 277.75 24.4397C277.75 22.8308 278.574 21.2453 280.243 21.2453C281.564 21.2453 282.018 21.766 282.523 22.4363L283.788 19.5615C283.323 19.8612 282.881 20.0269 282.337 20.0269C281.742 20.0269 281.095 19.7586 280.141 19.7586C277.269 19.7586 275.345 21.6437 275.345 24.4397C275.345 27.1573 277.084 29.145 280.002 29.145C281.655 29.145 282.783 28.3956 283.5 27.3661Z" fill="#55607A"/>
<path fill-rule="evenodd" clip-rule="evenodd" d="M285.933 27.7566C285.933 28.3125 285.732 28.6322 285.402 28.975H288.62C288.288 28.6322 288.087 28.3125 288.087 27.7566V22.6336H288.891C289.546 22.6336 289.692 22.7402 290.086 23.3435L291.041 21.1665H283.902L282.889 23.5327C283.536 23.0359 284.135 22.6297 284.825 22.6297L285.933 22.6336V27.7566Z" fill="#55607A"/>
<path fill-rule="evenodd" clip-rule="evenodd" d="M217.083 21.1979H216.314V25.1616H217.229C218.282 25.1616 219.295 24.7436 219.295 23.0834C219.295 21.5689 218.195 21.1979 217.083 21.1979ZM217.485 26.0804H216.314V27.6066C216.314 28.2024 216.459 28.4982 216.558 28.6322H214.456C214.551 28.4982 214.724 28.2024 214.724 27.6066V21.3205C214.724 20.725 214.551 20.4368 214.456 20.2988H217.485C219.638 20.2988 220.96 21.3718 220.96 23.0951C220.96 25.1381 219.283 26.0804 217.485 26.0804Z" fill="#55607A"/>
<path fill-rule="evenodd" clip-rule="evenodd" d="M228.717 22.3893L226.154 28.3878C225.408 30.1347 224.746 31.1367 223.244 31.1367C222.34 31.1367 221.694 30.6478 221.362 30.3203L221.765 29.4644C222.155 30.1347 222.66 30.4151 223.291 30.4151C224.162 30.4151 224.711 29.6735 225.275 28.3244L222.569 22.3893C222.392 21.9951 222.218 21.6637 222.021 21.5059H224.139C224.064 21.699 224.064 21.8605 224.285 22.3893L226.056 26.5066L227.767 22.3893C227.952 21.9592 228 21.7582 227.913 21.5059H229.199C229.002 21.7582 228.879 22.0066 228.717 22.3893Z" fill="#55607A"/>
<path fill-rule="evenodd" clip-rule="evenodd" d="M233.851 22.0576C232.239 22.0576 231.529 23.5721 231.529 25.0667C231.529 27.24 232.822 28.0918 233.851 28.0918C234.865 28.0918 235.511 27.6064 236.024 26.944L236.285 27.5198C235.65 28.3637 234.68 28.7781 233.643 28.7781C231.221 28.7781 229.975 27.1057 229.975 25.0667C229.975 22.8622 231.43 21.3716 233.764 21.3716C234.644 21.3716 235.172 21.6082 235.634 21.6082C235.918 21.6082 236.087 21.5804 236.297 21.4857L235.721 22.8031C235.307 22.2903 234.68 22.0576 233.851 22.0576Z" fill="#55607A"/>
<path fill-rule="evenodd" clip-rule="evenodd" d="M241.188 22.0576C239.571 22.0576 238.864 23.5721 238.864 25.0667C238.864 27.24 240.158 28.0918 241.188 28.0918C242.197 28.0918 242.848 27.6064 243.36 26.944L243.616 27.5198C242.981 28.3637 242.016 28.7781 240.978 28.7781C238.557 28.7781 237.311 27.1057 237.311 25.0667C237.311 22.8622 238.766 21.3716 241.101 21.3716C241.98 21.3716 242.504 21.6082 242.97 21.6082C243.25 21.6082 243.423 21.5804 243.629 21.4857L243.053 22.8031C242.638 22.2903 242.016 22.0576 241.188 22.0576Z" fill="#55607A"/>
<path fill-rule="evenodd" clip-rule="evenodd" d="M246.965 22.3893C246.965 21.8765 247.099 21.6281 247.186 21.5059H245.281C245.364 21.6281 245.498 21.8765 245.498 22.3893V27.7567C245.498 28.2653 245.364 28.51 245.281 28.6323H247.186C247.099 28.51 246.965 28.2653 246.965 27.7567V22.3893Z" fill="#55607A"/>
<path fill-rule="evenodd" clip-rule="evenodd" d="M252.053 28.6323C251.856 28.4862 251.536 28.1433 251.209 27.7567L248.61 24.6136L250.952 22.3893C251.465 21.8964 251.635 21.7265 251.943 21.5059H249.986C250.132 21.7147 250.18 21.9592 249.742 22.3893L247.04 24.9568L249.375 27.7567C249.765 28.23 249.765 28.427 249.619 28.6323H252.053Z" fill="#55607A"/>
<path fill-rule="evenodd" clip-rule="evenodd" d="M258.516 28.6323C258.603 28.51 258.721 28.2653 258.721 27.7567V23.7695L255.507 27.5714V27.7567C255.507 28.2653 255.641 28.51 255.732 28.6323H253.823C253.906 28.51 254.044 28.2653 254.044 27.7567V22.3893C254.044 21.8765 253.906 21.6281 253.823 21.5059H255.732C255.641 21.6281 255.507 21.8765 255.507 22.3893V26.3485L258.721 22.5471V22.3893C258.721 21.8765 258.603 21.6281 258.516 21.5059H260.398C260.311 21.6281 260.192 21.8765 260.192 22.3893V27.7567C260.192 28.2653 260.311 28.51 260.398 28.6323H258.516Z" fill="#55607A"/>
<path fill-rule="evenodd" clip-rule="evenodd" d="M267.662 28.6321C267.741 28.5098 267.867 28.2651 267.867 27.7565V23.7693L264.649 27.5712V27.7565C264.649 28.2651 264.787 28.5098 264.87 28.6321H262.961C263.052 28.5098 263.182 28.2651 263.182 27.7565V22.3891C263.182 21.8763 263.052 21.6279 262.961 21.5057H264.87C264.787 21.6279 264.649 21.8763 264.649 22.3891V26.3483L267.867 22.5469V22.3891C267.867 21.8763 267.741 21.6279 267.662 21.5057H269.539C269.452 21.6279 269.33 21.8763 269.33 22.3891V27.7565C269.33 28.2651 269.452 28.5098 269.539 28.6321H267.662ZM266.266 20.3856C265.032 20.3856 264.515 19.9163 264.515 19.4784C264.515 19.2457 264.637 18.9777 264.826 18.8198H265.469C265.359 18.9894 265.3 19.1277 265.3 19.3444C265.3 19.5849 265.591 20.0385 266.266 20.0385C266.937 20.0385 267.22 19.5849 267.22 19.3444C267.22 19.1277 267.157 18.9894 267.047 18.8198H267.694C267.879 18.9777 268.002 19.2457 268.002 19.4784C268.002 19.9163 267.5 20.3856 266.266 20.3856Z" fill="#55607A"/>
<path fill-rule="evenodd" clip-rule="evenodd" d="M280.242 20.9096C278.35 20.9096 277.407 22.6807 277.407 24.4394C277.407 26.9951 279.036 27.9968 280.242 27.9968C281.434 27.9968 282.199 27.433 282.799 26.6519L283.106 27.3265C282.361 28.324 281.225 28.8054 280.002 28.8054C277.167 28.8054 275.684 26.8333 275.684 24.4394C275.684 21.8486 277.395 20.0972 280.133 20.0972C281.174 20.0972 281.789 20.3697 282.337 20.3697C282.68 20.3697 282.873 20.3419 283.118 20.2354L282.436 21.7855C281.947 21.1858 281.225 20.9096 280.242 20.9096Z" fill="#55607A"/>
<path fill-rule="evenodd" clip-rule="evenodd" d="M290.007 22.6811C289.712 22.3023 289.282 22.2906 288.891 22.2906H287.744V27.7567C287.744 28.2653 287.878 28.51 287.965 28.6323H286.056C286.143 28.51 286.277 28.2653 286.277 27.7567V22.2906H285.31C284.774 22.2906 284.261 22.2236 283.61 22.6811L284.123 21.5059H290.516L290.007 22.6811Z" fill="#55607A"/>
<path fill-rule="evenodd" clip-rule="evenodd" d="M293.94 23.2766L292.638 26.2148H295.225L293.94 23.2766ZM295.955 28.6323C296.041 28.51 296.117 28.23 295.903 27.7567L295.565 26.9717H292.303L291.956 27.7567C291.747 28.23 291.826 28.51 291.908 28.6323H290.48C290.639 28.4744 290.808 28.2653 291.041 27.7567L293.474 22.2393L293.451 22.1883C293.305 21.849 293.143 21.6516 292.973 21.5059H294.732L297.481 27.7567C297.717 28.2653 297.887 28.4744 298.045 28.6323H295.955Z" fill="#55607A"/>
<path fill-rule="evenodd" clip-rule="evenodd" d="M304.035 28.6323C304.122 28.51 304.256 28.2653 304.256 27.7567V25.347H301.251V27.7567C301.251 28.2653 301.397 28.51 301.472 28.6323H299.563C299.65 28.51 299.784 28.2653 299.784 27.7567V22.3893C299.784 21.8765 299.65 21.6281 299.563 21.5059H301.472C301.397 21.6281 301.251 21.8765 301.251 22.3893V24.5623H304.256V22.3893C304.256 21.8765 304.122 21.6281 304.035 21.5059H305.944C305.869 21.6281 305.723 21.8765 305.723 22.3893V27.7567C305.723 28.2653 305.869 28.51 305.944 28.6323H304.035Z" fill="#55607A"/>
<path fill-rule="evenodd" clip-rule="evenodd" d="M312.29 22.2906H310.432C310.2 22.2906 310.018 22.4723 310.018 22.6929V25.58C310.018 26.6249 309.869 27.374 309.419 27.8512H311.875C312.108 27.8512 312.29 27.6662 312.29 27.4335V22.2906ZM312.574 28.6323H309.675C309.139 28.6323 308.247 28.8297 307.597 29.283V28.2538C308.843 27.6819 309.111 26.9204 309.111 25.58V22.3893C309.111 21.8765 308.977 21.6281 308.891 21.5059H313.978C313.891 21.6281 313.757 21.8765 313.757 22.3893V27.0469C313.757 27.5554 313.97 27.9894 314.649 28.2143V29.283C314.001 28.8297 313.11 28.6323 312.574 28.6323Z" fill="#55607A"/>
<path fill-rule="evenodd" clip-rule="evenodd" d="M319.515 23.2766L318.217 26.2148H320.8L319.515 23.2766ZM321.53 28.6323C321.617 28.51 321.688 28.23 321.483 27.7567L321.143 26.9717H317.874L317.531 27.7567C317.326 28.23 317.401 28.51 317.484 28.6323H316.056C316.214 28.4744 316.387 28.2653 316.62 27.7567L319.053 22.2393L319.022 22.1883C318.88 21.849 318.722 21.6516 318.548 21.5059H320.307L323.056 27.7567C323.289 28.2653 323.458 28.4744 323.62 28.6323H321.53Z" fill="#55607A"/>
<path fill-rule="evenodd" clip-rule="evenodd" d="M327.497 22.2749H326.822V25.6624H327.619C328.507 25.6624 329.319 25.2997 329.319 23.876C329.319 22.5824 328.451 22.2749 327.497 22.2749ZM327.836 26.4474H326.822V27.7567C326.822 28.2653 326.972 28.51 327.043 28.6323H325.139C325.221 28.51 325.355 28.2653 325.355 27.7567V22.3893C325.355 21.8765 325.221 21.6281 325.139 21.5059C327.142 21.5059 327.836 21.5059 327.836 21.5059C329.686 21.5059 330.809 22.4128 330.809 23.8917C330.809 25.635 329.378 26.4474 327.836 26.4474Z" fill="#55607A"/>
<path fill-rule="evenodd" clip-rule="evenodd" d="M337.862 22.6811C337.566 22.3023 337.14 22.2906 336.749 22.2906H335.724V27.7567C335.724 28.2653 335.854 28.51 335.941 28.6323H334.036C334.123 28.51 334.253 28.2653 334.253 27.7567V22.2906H333.413C332.872 22.2906 332.36 22.2236 331.713 22.6811L332.226 21.5059H338.374L337.862 22.6811Z" fill="#55607A"/>
<path d="M428.988 33.3639H424.161L427.18 14.6963H432.007L428.988 33.3639Z" fill="#55607A"/>
<path d="M446.486 15.1527C445.534 14.775 444.024 14.3579 442.157 14.3579C437.39 14.3579 434.033 16.8997 434.013 20.5338C433.973 23.215 436.416 24.7042 438.243 25.5982C440.111 26.5118 440.745 27.108 440.745 27.9223C440.726 29.1729 439.236 29.7494 437.847 29.7494C435.92 29.7494 434.887 29.4522 433.318 28.7564L432.682 28.4581L432.007 32.6486C433.139 33.1644 435.225 33.622 437.39 33.6421C442.455 33.6421 445.752 31.1396 445.791 27.2669C445.81 25.1419 444.52 23.5135 441.739 22.183C440.051 21.3288 439.017 20.7529 439.017 19.879C439.037 19.0845 439.892 18.2707 441.798 18.2707C443.367 18.2309 444.52 18.608 445.393 18.9855L445.83 19.1837L446.486 15.1527Z" fill="#55607A"/>
<path d="M452.902 26.7506C453.299 25.6782 454.829 21.5276 454.829 21.5276C454.809 21.5674 455.225 20.4354 455.464 19.7404L455.801 21.3489C455.801 21.3489 456.715 25.8173 456.914 26.7506C456.159 26.7506 453.855 26.7506 452.902 26.7506ZM458.86 14.6963H455.126C453.975 14.6963 453.1 15.0336 452.603 16.2451L445.434 33.3636H450.498C450.498 33.3636 451.332 31.0596 451.511 30.5634C452.067 30.5634 456.994 30.5634 457.709 30.5634C457.847 31.2188 458.285 33.3636 458.285 33.3636H462.754L458.86 14.6963Z" fill="#55607A"/>
<path d="M420.13 14.6963L415.403 27.4258L414.886 24.8441C414.012 21.8652 411.272 18.6286 408.213 17.0193L412.543 33.3441H417.647L425.234 14.6963H420.13Z" fill="#55607A"/>
<path d="M411.013 14.6963H403.247L403.168 15.0735C409.226 16.6226 413.238 20.3567 414.886 24.8449L413.198 16.2655C412.92 15.0732 412.066 14.7356 411.013 14.6963Z" fill="#55607A"/>
<path d="M543.026 33.5237H544.981C544.981 33.5237 545.571 33.4567 545.873 33.1224C546.151 32.8151 546.142 32.2384 546.142 32.2384C546.142 32.2384 546.103 29.5379 547.321 29.1402C548.521 28.7483 550.062 31.7501 551.696 32.9044C552.931 33.7777 553.87 33.5866 553.87 33.5866L558.238 33.5237C558.238 33.5237 560.523 33.3786 559.439 31.5292C559.351 31.3782 558.808 30.1612 556.191 27.6609C553.452 25.044 553.82 25.4674 557.119 20.9407C559.128 18.184 559.931 16.5011 559.68 15.7804C559.441 15.0937 557.963 15.275 557.963 15.275L553.045 15.3064C553.045 15.3064 552.68 15.2552 552.41 15.4217C552.146 15.5845 551.976 15.9649 551.976 15.9649C551.976 15.9649 551.197 18.098 550.16 19.9123C547.97 23.7402 547.094 23.9429 546.736 23.7048C545.903 23.1508 546.111 21.4795 546.111 20.2918C546.111 16.5819 546.658 15.0352 545.047 14.6347C544.512 14.5019 544.118 14.4141 542.751 14.3998C540.996 14.3814 539.511 14.4053 538.67 14.8294C538.111 15.1115 537.679 15.7399 537.942 15.7761C538.267 15.8206 539.003 15.9806 539.393 16.5272C539.897 17.2332 539.88 18.8182 539.88 18.8182C539.88 18.8182 540.169 23.1853 539.203 23.7276C538.541 24.0997 537.631 23.3401 535.679 19.8671C534.678 18.0882 533.923 16.1216 533.923 16.1216C533.923 16.1216 533.777 15.7541 533.518 15.5574C533.203 15.3191 532.762 15.2436 532.762 15.2436L528.089 15.275C528.089 15.275 527.387 15.2952 527.129 15.6092C526.9 15.8887 527.111 16.4663 527.111 16.4663C527.111 16.4663 530.77 25.2782 534.913 29.719C538.712 33.791 543.026 33.5237 543.026 33.5237Z" fill="#55607A"/>
<path fill-rule="evenodd" clip-rule="evenodd" d="M696.672 33.3838C696.401 33.3838 696.139 33.4828 695.933 33.6614C689.297 39.4524 676.882 43.3497 662.657 43.3497C646.581 43.3497 632.813 38.3718 627.091 31.3083C627.01 31.209 627.072 31.0561 627.199 31.0561C627.387 31.0561 627.571 31.1275 627.698 31.2659C633.133 37.1334 644.947 41.1999 658.646 41.1999C669.551 41.1999 679.259 38.6234 685.508 34.6127C686.069 34.252 685.788 33.3838 685.122 33.3838H683.221C682.946 33.3838 682.677 33.467 682.449 33.621C676.616 37.5683 667.286 40.1253 656.769 40.1253C639.095 40.1253 624.938 32.9052 624.938 24.0001C624.938 15.0945 639.095 7.87496 656.769 7.87496C667.286 7.87496 676.616 10.4317 682.449 14.3792C682.677 14.533 682.946 14.6162 683.221 14.6162H685.122C685.788 14.6162 686.069 13.748 685.508 13.3881C679.259 9.37743 669.551 6.80037 658.646 6.80037C644.922 6.80037 633.091 10.8816 627.669 16.7671C627.543 16.905 627.359 16.9769 627.173 16.9769C627.045 16.9769 626.985 16.8235 627.065 16.7242C632.771 9.64312 646.557 4.65032 662.657 4.65032C676.882 4.65032 689.297 8.54849 695.933 14.3395C696.139 14.518 696.401 14.6162 696.672 14.6162H701.653C702.87 14.6162 703.491 13.0971 702.529 12.3463C694.93 6.42186 681.709 2.5 666.668 2.5C643.103 2.5 624 12.1257 624 24.0001C624 35.8743 643.103 45.5 666.668 45.5C681.709 45.5 694.93 41.5784 702.529 35.654C703.491 34.9032 702.87 33.3838 701.653 33.3838H696.672Z" fill="#55607A"/>
<path fill-rule="evenodd" clip-rule="evenodd" d="M678 27.4966L684 27.5C683.966 27.0193 683.569 26.185 682.703 26.185H680.04C679.855 26.1678 679.722 26.0273 679.714 25.8575L679.714 24.4922C679.722 24.3111 679.855 24.1723 680.022 24.1562L683.487 24.1557V22.8429H680.047C679.868 22.8404 679.723 22.6962 679.714 22.5157L679.714 21.1515C679.722 20.9696 679.851 20.833 680.019 20.8145L682.674 20.8136C683.54 20.8136 683.936 19.9815 683.971 19.5H678V27.4966Z" fill="#55607A"/>
<path fill-rule="evenodd" clip-rule="evenodd" d="M640 19.5106H639.721C638.713 19.5106 638.199 20.064 638.193 21.156L638.174 25.4008C638.089 25.8981 637.692 26.1984 637.095 26.1984H635.901C635.241 26.1984 634.821 25.8258 634.808 25.2253L634.81 21.1446C634.805 20.0528 634.29 19.5 633.279 19.5H633V24.9864C633 26.3725 634.18 27.5 635.63 27.5H637.371C638.82 27.5 640 26.3725 640 24.9864V19.5106Z" fill="#55607A"/>
<path fill-rule="evenodd" clip-rule="evenodd" d="M672.022 23.2098C671.837 23.2048 671.692 23.0511 671.692 22.8686V21.1429C671.692 20.9632 671.832 20.8145 672.011 20.8039H672.022L674.042 20.8139C674.624 20.8658 674.866 21.1655 674.866 21.808V22.2048C674.866 22.8245 674.473 23.2093 673.84 23.2093L672.022 23.2098ZM673.737 24.7213L674.916 26.9174C675.171 27.3172 675.474 27.4955 675.921 27.5H677L675.609 24.8153C675.543 24.6808 675.457 24.5706 675.351 24.4827L675.128 24.2977L675.373 24.1459C676.117 23.6855 676.56 22.882 676.56 21.998V21.2955C676.56 20.3089 675.776 19.5045 674.811 19.5022L670 19.5V27.4389H671.692V24.8541C671.701 24.6691 671.837 24.5296 672.01 24.5184H673.413C673.551 24.5184 673.675 24.5963 673.737 24.7213Z" fill="#55607A"/>
<path fill-rule="evenodd" clip-rule="evenodd" d="M689.918 24.0781H688.083C687.887 24.0781 687.729 23.9276 687.729 23.7427L687.738 23.6763C687.738 23.6763 688.29 21.1318 688.364 21.0058C688.467 20.8298 688.621 20.8071 688.713 20.8071H689.288C689.379 20.8071 689.533 20.8298 689.637 21.0058C689.711 21.1318 690.262 23.6763 690.262 23.6763L690.272 23.7427C690.272 23.9276 690.113 24.0781 689.918 24.0781ZM690.881 19.7317C690.851 19.5838 690.744 19.5017 690.619 19.5L687.38 19.5022C687.255 19.5022 687.15 19.5871 687.124 19.7087L685 27.5H685.215C686.253 27.5 686.937 26.9355 687.245 25.8217L687.297 25.6301C687.34 25.4835 687.479 25.383 687.634 25.383H690.254C690.653 25.383 690.741 25.7542 690.741 25.7542L690.81 26.0167C691.078 27.0425 691.163 27.3594 691.188 27.4692H693L690.881 19.7317Z" fill="#55607A"/>
<path fill-rule="evenodd" clip-rule="evenodd" d="M651.001 27.5H653V19.5H652.69C651.575 19.5 651.007 20.0534 651 21.1463L651.001 27.5Z" fill="#55607A"/>
<path fill-rule="evenodd" clip-rule="evenodd" d="M662.226 19.5C661.41 19.5 661.034 20.317 661 20.7922H663.342C663.526 20.8071 663.654 20.9461 663.662 21.1232L663.663 27.5H665.282V21.126C665.299 20.9387 665.425 20.8071 665.582 20.7936L666.773 20.7922C667.59 20.7922 667.966 19.9753 668 19.5H662.226Z" fill="#55607A"/>
<path fill-rule="evenodd" clip-rule="evenodd" d="M661 24.6487C661 23.6526 660.158 22.8423 659.123 22.8423H656.162C655.97 22.8423 655.812 22.6899 655.808 22.5028V21.8017C655.819 21.19 656.219 20.8207 656.877 20.812H659.277C660.187 20.812 660.606 19.9815 660.643 19.5H656.627C655.214 19.5 654.057 20.5794 654 21.928L654.002 22.3456C654.002 23.3438 654.844 24.1557 655.878 24.1557H658.837C659.04 24.1647 659.191 24.3177 659.191 24.5039L659.172 25.3803C659.088 25.8823 658.691 26.186 658.094 26.186L655.349 26.1888C654.439 26.2215 654.1 27.059 654.068 27.5L658.371 27.4983C659.795 27.4983 660.958 26.4017 660.999 25.0397L661 24.6487Z" fill="#55607A"/>
<path fill-rule="evenodd" clip-rule="evenodd" d="M643.105 22.6792C642.933 22.4617 642.671 22.5423 642.644 22.7375V25.8974C642.639 26.9611 642.185 27.5 641.256 27.5H641V19.5878H642.704C642.714 19.6057 645.895 24.3908 645.895 24.3908C646.067 24.6082 646.33 24.5277 646.356 24.3325V21.1026C646.361 20.0392 646.815 19.5 647.745 19.5H648V27.4272H646.296C646.286 27.4091 643.105 22.6792 643.105 22.6792Z" fill="#55607A"/>
<path fill-rule="evenodd" clip-rule="evenodd" d="M702.332 19.5C702.03 19.5 701.83 19.5 701.712 19.5332C701.572 19.5729 701.517 19.6794 701.31 20.198C701.31 20.198 699.961 23.9681 699.758 24.335C699.688 24.4617 699.592 24.5116 699.5 24.5121C699.408 24.5116 699.312 24.4617 699.242 24.335C699.04 23.9681 697.69 20.198 697.69 20.198C697.482 19.6794 697.428 19.5729 697.288 19.5332C697.17 19.5 696.97 19.5 696.668 19.5H695L695.002 27.5H695.269C696.238 27.5 696.725 26.9495 696.731 25.8618V24.4747L696.725 22.8125C696.725 22.5774 696.871 22.5281 696.977 22.5281C697.122 22.5281 697.25 22.6202 697.294 22.7576L698.721 26.372H700.279L701.706 22.7576C701.75 22.6202 701.878 22.5281 702.023 22.5281C702.129 22.5281 702.275 22.5774 702.275 22.8125L702.269 24.4747V25.8618C702.275 26.9495 702.762 27.5 703.731 27.5H703.998L704 19.5H702.332Z" fill="#55607A"/>
</svg>
