<svg width="704" height="34" viewBox="0 0 704 34" fill="none" xmlns="http://www.w3.org/2000/svg">
<path fill-rule="evenodd" clip-rule="evenodd" d="M0 8.75977H3.34752V21.2068H9.21312V24.1238H0V8.75977ZM113.85 24.1238H110.504V11.6778H104.64V8.75977H113.85V24.1238ZM11.52 24.1238H14.8685V8.75977H11.52V24.1238ZM17.28 8.75977H21.1757L24.216 14.3918C25.1126 16.0098 25.9661 17.9238 26.6448 19.6548H26.7101C26.4912 17.6278 26.4259 15.5538 26.4259 13.2288V8.75977H29.4902V24.1238H26.0112L22.8384 18.2208C21.9629 16.5558 20.977 14.5948 20.2771 12.7968H20.1898C20.2992 14.8238 20.3424 17.0118 20.3424 19.5188V24.1238H17.28V8.75977ZM32.64 8.75977H35.9443V15.5538H36.0106C36.3379 14.9608 36.6883 14.4128 37.0176 13.8668L40.3642 8.75977H44.4566L39.577 15.3028L44.7197 24.1238H40.8461L37.2125 17.5138L35.9443 19.1088V24.1238H32.64V8.75977ZM46.08 9.07877C47.1082 8.89677 48.5971 8.75977 50.5872 8.75977C52.6224 8.75977 54.1104 9.17077 55.0954 10.0138C56.0362 10.7648 56.6707 12.0428 56.6707 13.5698C56.6707 15.0728 56.1888 16.3508 55.3142 17.1938C54.1757 18.3098 52.4909 18.8348 50.545 18.8348C50.0851 18.8348 49.6906 18.7878 49.3834 18.7668V24.2358H46.08V9.07877ZM50.4998 16.1448C52.2509 16.1448 53.3443 15.2108 53.3443 13.6608C53.3443 12.2478 52.4256 11.4028 50.7418 11.4028C50.063 11.4028 49.6253 11.4258 49.3834 11.4958V16.0768C49.6483 16.1218 50.0198 16.1448 50.4998 16.1448ZM58.56 9.07877C59.6314 8.89677 61.2298 8.75977 63.0019 8.75977C65.1898 8.75977 66.721 9.10277 67.7722 9.96677C68.6467 10.6978 69.1286 11.7688 69.1286 13.1818C69.1286 15.1428 67.7952 16.4878 66.5242 16.9668V17.0348C67.5754 17.4668 68.1446 18.4938 68.4941 19.9068C68.9539 21.6368 69.4128 23.6448 69.6979 24.2358H66.2842C66.0422 23.8038 65.6717 22.5728 65.255 20.6588C64.8605 18.7438 64.2288 18.2188 62.8502 18.1968H61.8634V24.2358H58.56V9.07877ZM63.1776 15.6898C64.8403 15.6898 65.8243 14.8228 65.8243 13.4788C65.8243 12.0868 64.8835 11.3578 63.3744 11.3348C62.5853 11.3348 62.1053 11.4028 61.8634 11.4498V15.6898H63.1776ZM71.04 16.8058C71.04 12.0428 73.9498 8.75977 78.2822 8.75977C82.7251 8.75977 85.2202 12.1798 85.2202 16.6688C85.2202 21.8218 81.959 24.6238 77.9981 24.6238C73.7318 24.6238 71.04 21.4108 71.04 16.8058ZM81.696 16.7148C81.696 14.1168 80.6026 11.5178 78.1526 11.5178C75.8102 11.5178 74.5632 13.8658 74.5632 16.7388C74.5632 19.5868 75.8544 21.8658 78.1296 21.8658C80.4931 21.8658 81.696 19.4958 81.696 16.7148ZM87.36 8.75977H96.3754V11.6108H90.7094V15.1418H96.0038V17.9458H90.7094V24.1238H87.36V8.75977ZM98.88 24.1238H102.229V8.75977H98.88V24.1238ZM117.12 11.6588H119.903V8.75977H117.12V11.6588Z" fill="#55607A"/>
<path d="M288.307 23.29C293.829 23.29 298.307 18.8129 298.307 13.29C298.307 7.76719 293.829 3.29004 288.307 3.29004C282.784 3.29004 278.307 7.76719 278.307 13.29C278.307 18.8129 282.784 23.29 288.307 23.29Z" stroke="#55607A" stroke-width="2"/>
<path d="M288.307 19.29C291.62 19.29 294.307 16.6037 294.307 13.29C294.307 9.97633 291.62 7.29004 288.307 7.29004C284.993 7.29004 282.307 9.97633 282.307 13.29C282.307 16.6037 284.993 19.29 288.307 19.29Z" stroke="#55607A" stroke-width="2"/>
<path fill-rule="evenodd" clip-rule="evenodd" d="M211.789 31.7056V32.29H210.798V31.7056C209.998 31.6759 209.434 31.4783 209.104 31.1125C208.775 30.7468 208.61 30.2894 208.61 29.7402C208.61 29.1615 208.782 28.6972 209.126 28.3474C209.471 27.9976 210.028 27.8079 210.798 27.7783V27.2827H211.789V27.7783C212.584 27.8079 213.148 28.0039 213.479 28.3662C213.811 28.7285 213.977 29.1877 213.977 29.7437C213.977 30.2951 213.811 30.7525 213.481 31.116C213.151 31.4794 212.587 31.6759 211.789 31.7056ZM211.789 30.8613C212.053 30.8613 212.281 30.8169 212.471 30.728C212.661 30.6392 212.796 30.5195 212.876 30.3691C212.956 30.2187 212.996 29.9989 212.996 29.7095C212.996 28.9849 212.593 28.6226 211.789 28.6226V30.8613ZM210.798 30.8613V28.6226C210.372 28.6226 210.064 28.7177 209.875 28.908C209.686 29.0982 209.591 29.3859 209.591 29.771C209.591 30.4979 209.993 30.8613 210.798 30.8613ZM214.804 27.2793H215.75V30.6152L217.781 27.2793H218.789V32.29H217.842V29.019L215.815 32.29H214.804V27.2793ZM219.825 32.29V27.2793H220.836V29.2515H222.819V27.2793H223.831V32.29H222.819V30.0991H220.836V32.29H219.825ZM229.395 32.29H228.294L227.857 31.1519H225.854L225.44 32.29H224.367L226.319 27.2793H227.389L229.395 32.29ZM227.532 30.3076L226.842 28.4482L226.165 30.3076H227.532ZM229.935 32.29V27.2793H230.947V29.2515H232.929V27.2793H233.941V32.29H232.929V30.0991H230.947V32.29H229.935ZM238.193 30.4478L239.174 30.7588C239.023 31.3057 238.773 31.7118 238.424 31.9773C238.074 32.2428 237.63 32.3755 237.092 32.3755C236.427 32.3755 235.88 32.1482 235.452 31.6936C235.023 31.239 234.809 30.6175 234.809 29.8291C234.809 28.9951 235.024 28.3474 235.455 27.886C235.886 27.4246 236.452 27.1938 237.154 27.1938C237.767 27.1938 238.265 27.375 238.647 27.7373C238.875 27.9515 239.046 28.2591 239.16 28.6602L238.159 28.8994C238.099 28.6396 237.976 28.4346 237.788 28.2842C237.6 28.1338 237.371 28.0586 237.103 28.0586C236.731 28.0586 236.43 28.1919 236.198 28.4585C235.967 28.7251 235.852 29.1569 235.852 29.7539C235.852 30.3874 235.965 30.8385 236.193 31.1074C236.421 31.3763 236.717 31.5107 237.082 31.5107C237.351 31.5107 237.582 31.4253 237.776 31.2544C237.97 31.0835 238.109 30.8146 238.193 30.4478ZM239.837 29.8154C239.837 29.305 239.913 28.8766 240.066 28.5303C240.18 28.2751 240.335 28.0461 240.532 27.8433C240.73 27.6405 240.945 27.4901 241.18 27.3921C241.492 27.2599 241.852 27.1938 242.26 27.1938C242.999 27.1938 243.589 27.4228 244.032 27.8809C244.476 28.3389 244.697 28.9757 244.697 29.7915C244.697 30.6004 244.477 31.2333 244.038 31.6902C243.598 32.1471 243.01 32.3755 242.274 32.3755C241.529 32.3755 240.936 32.1482 240.497 31.6936C240.057 31.239 239.837 30.613 239.837 29.8154ZM240.879 29.7812C240.879 30.3486 241.01 30.7787 241.272 31.0715C241.535 31.3643 241.867 31.5107 242.271 31.5107C242.674 31.5107 243.005 31.3655 243.263 31.075C243.522 30.7844 243.651 30.3486 243.651 29.7676C243.651 29.1934 243.525 28.765 243.274 28.4824C243.022 28.1999 242.688 28.0586 242.271 28.0586C241.854 28.0586 241.517 28.2016 241.262 28.4875C241.007 28.7735 240.879 29.2047 240.879 29.7812ZM245.49 27.2793H247.493C247.89 27.2793 248.185 27.2958 248.38 27.3289C248.575 27.3619 248.749 27.4308 248.903 27.5356C249.057 27.6405 249.185 27.78 249.288 27.9543C249.39 28.1287 249.441 28.3241 249.441 28.5405C249.441 28.7752 249.378 28.9906 249.252 29.1865C249.125 29.3825 248.954 29.5295 248.737 29.6274C249.043 29.7163 249.277 29.8678 249.441 30.082C249.605 30.2962 249.688 30.548 249.688 30.8374C249.688 31.0653 249.635 31.2869 249.529 31.5022C249.423 31.7175 249.278 31.8896 249.094 32.0183C248.911 32.1471 248.685 32.2262 248.416 32.2559C248.247 32.2741 247.841 32.2855 247.196 32.29H245.49V27.2793ZM246.502 28.1133V29.272H247.165C247.559 29.272 247.804 29.2663 247.9 29.2549C248.073 29.2344 248.209 29.1746 248.308 29.0754C248.407 28.9763 248.457 28.8459 248.457 28.6841C248.457 28.5291 248.414 28.4032 248.329 28.3064C248.243 28.2096 248.116 28.1509 247.948 28.1304C247.847 28.119 247.559 28.1133 247.083 28.1133H246.502ZM246.502 30.106V31.4458H247.438C247.803 31.4458 248.034 31.4355 248.132 31.415C248.283 31.3877 248.405 31.321 248.5 31.2151C248.594 31.1091 248.642 30.9673 248.642 30.7896C248.642 30.6392 248.605 30.5116 248.532 30.4067C248.459 30.3019 248.354 30.2256 248.216 30.1777C248.078 30.1299 247.779 30.106 247.319 30.106H246.502ZM250.569 27.2793H251.581V29.2822H252.935C253.29 29.2822 253.596 29.3306 253.852 29.4275C254.109 29.5243 254.322 29.6975 254.493 29.947C254.664 30.1965 254.75 30.4831 254.75 30.8066C254.75 31.1462 254.661 31.4384 254.483 31.6833C254.305 31.9283 254.108 32.0907 253.89 32.1704C253.672 32.2502 253.354 32.29 252.935 32.29H250.569V27.2793ZM251.581 31.4492H252.569C252.883 31.4492 253.103 31.4338 253.227 31.4031C253.351 31.3723 253.462 31.3022 253.558 31.1929C253.655 31.0835 253.704 30.9502 253.704 30.793C253.704 30.5697 253.624 30.4022 253.466 30.2905C253.308 30.1789 253.022 30.123 252.61 30.123H251.581V31.4492ZM255.334 27.2793H256.346V32.29H255.334V27.2793ZM257.409 27.2793H258.355V30.6152L260.386 27.2793H261.394V32.29H260.447V29.019L258.42 32.29H257.409V27.2793ZM260.006 26.0317H260.475C260.447 26.3416 260.338 26.5849 260.148 26.7615C259.958 26.9381 259.711 27.0264 259.408 27.0264C259.105 27.0264 258.858 26.9381 258.668 26.7615C258.478 26.5849 258.369 26.3416 258.342 26.0317H258.81C258.826 26.1935 258.883 26.316 258.981 26.3992C259.079 26.4823 259.221 26.5239 259.408 26.5239C259.595 26.5239 259.737 26.4823 259.835 26.3992C259.933 26.316 259.99 26.1935 260.006 26.0317ZM264.73 27.2793H268.24V32.29H267.229V28.127H265.721V30.2666C265.721 30.8796 265.701 31.3074 265.66 31.55C265.619 31.7927 265.519 31.9819 265.361 32.1174C265.202 32.253 264.954 32.3208 264.617 32.3208C264.499 32.3208 264.283 32.3094 263.971 32.2866V31.5039L264.197 31.5073C264.409 31.5073 264.551 31.4788 264.624 31.4219C264.697 31.3649 264.733 31.2248 264.733 31.0015L264.73 30.1401V27.2793ZM269.296 27.2793H270.243V30.6152L272.273 27.2793H273.282V32.29H272.335V29.019L270.308 32.29H269.296V27.2793ZM274.717 27.2793H278.18V31.4492H278.621V33.3838H277.78V32.29H274.625V33.3838H273.784V31.4492H274.208C274.415 31.0208 274.552 30.5235 274.618 29.9573C274.684 29.391 274.717 28.675 274.717 27.8091V27.2793ZM275.681 28.1201C275.681 29.6423 275.543 30.7519 275.268 31.4492H277.171V28.1201H275.681ZM279.096 29.8154C279.096 29.305 279.172 28.8766 279.325 28.5303C279.439 28.2751 279.594 28.0461 279.791 27.8433C279.988 27.6405 280.204 27.4901 280.439 27.3921C280.751 27.2599 281.111 27.1938 281.519 27.1938C282.257 27.1938 282.848 27.4228 283.291 27.8809C283.734 28.3389 283.956 28.9757 283.956 29.7915C283.956 30.6004 283.736 31.2333 283.296 31.6902C282.857 32.1471 282.269 32.3755 281.533 32.3755C280.788 32.3755 280.195 32.1482 279.755 31.6936C279.316 31.239 279.096 30.613 279.096 29.8154ZM280.138 29.7812C280.138 30.3486 280.269 30.7787 280.531 31.0715C280.793 31.3643 281.126 31.5107 281.529 31.5107C281.933 31.5107 282.264 31.3655 282.522 31.075C282.781 30.7844 282.91 30.3486 282.91 29.7676C282.91 29.1934 282.784 28.765 282.532 28.4824C282.281 28.1999 281.946 28.0586 281.529 28.0586C281.112 28.0586 280.776 28.2016 280.521 28.4875C280.266 28.7735 280.138 29.2047 280.138 29.7812ZM284.797 27.2793H288.191V28.1201H285.809V32.29H284.797V27.2793ZM288.714 32.29V27.2793H292.429V28.127H289.726V29.2378H292.241V30.082H289.726V31.4458H292.525V32.29H288.714ZM293.386 32.29V27.2793H294.398V29.2515H296.38V27.2793H297.392V32.29H296.38V30.0991H294.398V32.29H293.386ZM298.438 32.29V27.2793H302.153V28.127H299.45V29.2378H301.965V30.082H299.45V31.4458H302.249V32.29H298.438ZM303.107 32.29V27.2793H304.73C305.346 27.2793 305.747 27.3044 305.934 27.3545C306.221 27.4297 306.461 27.5932 306.655 27.845C306.848 28.0968 306.945 28.422 306.945 28.8208C306.945 29.1284 306.889 29.387 306.778 29.5967C306.666 29.8063 306.524 29.9709 306.352 30.0906C306.18 30.2102 306.005 30.2894 305.828 30.3281C305.586 30.376 305.236 30.3999 304.778 30.3999H304.119V32.29H303.107ZM304.119 28.127V29.5488H304.672C305.071 29.5488 305.338 29.5226 305.472 29.4702C305.607 29.4178 305.712 29.3358 305.788 29.2241C305.865 29.1125 305.903 28.9826 305.903 28.8345C305.903 28.6522 305.849 28.5018 305.742 28.3833C305.635 28.2648 305.5 28.1908 305.335 28.1611C305.215 28.1383 304.972 28.127 304.607 28.127H304.119ZM312.294 32.29H311.194L310.756 31.1519H308.753L308.34 32.29H307.267L309.218 27.2793H310.288L312.294 32.29ZM310.432 30.3076L309.741 28.4482L309.064 30.3076H310.432ZM313.959 32.29V28.127H312.472V27.2793H316.454V28.127H314.971V32.29H313.959ZM316.902 29.8154C316.902 29.305 316.978 28.8766 317.131 28.5303C317.245 28.2751 317.4 28.0461 317.597 27.8433C317.795 27.6405 318.01 27.4901 318.245 27.3921C318.557 27.2599 318.917 27.1938 319.325 27.1938C320.063 27.1938 320.654 27.4228 321.097 27.8809C321.541 28.3389 321.762 28.9757 321.762 29.7915C321.762 30.6004 321.542 31.2333 321.103 31.6902C320.663 32.1471 320.075 32.3755 319.339 32.3755C318.594 32.3755 318.001 32.1482 317.562 31.6936C317.122 31.239 316.902 30.613 316.902 29.8154ZM317.944 29.7812C317.944 30.3486 318.075 30.7787 318.337 31.0715C318.599 31.3643 318.932 31.5107 319.335 31.5107C319.739 31.5107 320.07 31.3655 320.328 31.075C320.587 30.7844 320.716 30.3486 320.716 29.7676C320.716 29.1934 320.59 28.765 320.339 28.4824C320.087 28.1999 319.752 28.0586 319.335 28.0586C318.918 28.0586 318.582 28.2016 318.327 28.4875C318.072 28.7735 317.944 29.2047 317.944 29.7812ZM322.552 32.29V27.2793H324.175C324.791 27.2793 325.192 27.3044 325.378 27.3545C325.666 27.4297 325.906 27.5932 326.1 27.845C326.293 28.0968 326.39 28.422 326.39 28.8208C326.39 29.1284 326.334 29.387 326.223 29.5967C326.111 29.8063 325.969 29.9709 325.797 30.0906C325.625 30.2102 325.45 30.2894 325.272 30.3281C325.031 30.376 324.681 30.3999 324.223 30.3999H323.563V32.29H322.552ZM323.563 28.127V29.5488H324.117C324.516 29.5488 324.783 29.5226 324.917 29.4702C325.051 29.4178 325.157 29.3358 325.233 29.2241C325.309 29.1125 325.348 28.9826 325.348 28.8345C325.348 28.6522 325.294 28.5018 325.187 28.3833C325.08 28.2648 324.944 28.1908 324.78 28.1611C324.66 28.1383 324.417 28.127 324.052 28.127H323.563Z" fill="#55607A"/>
<path fill-rule="evenodd" clip-rule="evenodd" d="M212.984 20.29V8.39551H208.736V5.97363H220.113V8.39551H215.875V20.29H212.984ZM221.979 20.29V5.97363H232.594V8.39551H224.869V11.5693H232.057V13.9814H224.869V17.8779H232.867V20.29H221.979ZM236.344 5.97363H246.373V20.29H243.482V8.39551H239.176V14.5088C239.176 16.2601 239.117 17.4824 239 18.1758C238.883 18.8691 238.598 19.4095 238.146 19.7969C237.693 20.1842 236.985 20.3779 236.021 20.3779C235.683 20.3779 235.068 20.3454 234.176 20.2803V18.0439L234.82 18.0537C235.426 18.0537 235.833 17.9723 236.041 17.8096C236.249 17.6468 236.354 17.2464 236.354 16.6084L236.344 14.1475V5.97363ZM249.352 20.29V5.97363H259.967V8.39551H252.242V11.5693H259.43V13.9814H252.242V17.8779H260.24V20.29H249.352ZM262.73 5.97363H274.117V20.29H271.227V8.37598H265.621V20.29H262.73V5.97363Z" fill="#55607A"/>
<path fill-rule="evenodd" clip-rule="evenodd" d="M288.984 13.4233L302.972 6.88574L288.307 0L288.984 13.4233Z" fill="#55607A"/>
<path d="M288.307 19.29C291.62 19.29 294.307 16.6037 294.307 13.29C294.307 9.97633 291.62 7.29004 288.307 7.29004C284.993 7.29004 282.307 9.97633 282.307 13.29C282.307 16.6037 284.993 19.29 288.307 19.29Z" stroke="#55607A" stroke-width="2"/>
<path fill-rule="evenodd" clip-rule="evenodd" d="M288.196 21.6938L291.556 11.9306L279.894 14.2745C280.768 15.8985 281.47 17.4488 281.999 18.9256C282.528 20.4023 284.594 21.3251 288.196 21.6938Z" fill="#55607A"/>
<path d="M288.307 15.29C289.411 15.29 290.307 14.3946 290.307 13.29C290.307 12.1855 289.411 11.29 288.307 11.29C287.202 11.29 286.307 12.1855 286.307 13.29C286.307 14.3946 287.202 15.29 288.307 15.29Z" stroke="#55607A" stroke-width="2"/>
<path fill-rule="evenodd" clip-rule="evenodd" d="M301.762 20.29V5.97363H306.4C308.158 5.97363 309.304 6.04525 309.838 6.18848C310.658 6.40332 311.345 6.87044 311.898 7.58984C312.452 8.30925 312.729 9.2386 312.729 10.3779C312.729 11.2568 312.569 11.9958 312.25 12.5947C311.931 13.1937 311.526 13.6641 311.034 14.0059C310.543 14.3477 310.043 14.5739 309.535 14.6846C308.845 14.8213 307.846 14.8896 306.537 14.8896H304.652V20.29H301.762ZM304.652 8.39551V12.458H306.234C307.374 12.458 308.135 12.3831 308.52 12.2334C308.904 12.0837 309.205 11.8493 309.423 11.5303C309.641 11.2113 309.75 10.8402 309.75 10.417C309.75 9.89616 309.597 9.46647 309.291 9.12793C308.985 8.78939 308.598 8.5778 308.129 8.49316C307.784 8.42806 307.09 8.39551 306.049 8.39551H304.652ZM318.324 20.29V8.39551H314.076V5.97363H325.453V8.39551H321.215V20.29H318.324Z" fill="#55607A"/>
<path fill-rule="evenodd" clip-rule="evenodd" d="M457.303 7.19189V2.18115H458.314V4.15332H460.297V2.18115H461.309V7.19189H460.297V5.00098H458.314V7.19189H457.303ZM466.873 7.19189H465.772L465.335 6.05371H463.332L462.918 7.19189H461.845L463.797 2.18115H464.867L466.873 7.19189ZM465.01 5.20947L464.32 3.3501L463.643 5.20947H465.01ZM467.427 2.18115H468.438V6.35107H470.4V2.18115H471.412V6.35107H471.829V8.28564H470.988V7.19189H467.427V2.18115ZM472.537 2.18115H473.483V5.51709L475.514 2.18115H476.522V7.19189H475.575V3.9209L473.548 7.19189H472.537V2.18115ZM477.349 4.71729C477.349 4.20687 477.425 3.77848 477.578 3.43213C477.692 3.17692 477.848 2.94792 478.045 2.74512C478.242 2.54232 478.458 2.39193 478.692 2.29395C479.005 2.16178 479.365 2.0957 479.772 2.0957C480.511 2.0957 481.101 2.3247 481.545 2.78271C481.988 3.24072 482.209 3.8776 482.209 4.69336C482.209 5.50228 481.99 6.13517 481.55 6.59204C481.11 7.04891 480.522 7.27734 479.786 7.27734C479.041 7.27734 478.449 7.05005 478.009 6.59546C477.569 6.14087 477.349 5.51482 477.349 4.71729ZM478.392 4.68311C478.392 5.25049 478.523 5.68058 478.785 5.97339C479.047 6.2662 479.379 6.4126 479.783 6.4126C480.186 6.4126 480.517 6.26734 480.776 5.97681C481.034 5.68628 481.164 5.25049 481.164 4.66943C481.164 4.09521 481.038 3.66683 480.786 3.38428C480.534 3.10172 480.2 2.96045 479.783 2.96045C479.366 2.96045 479.03 3.10343 478.774 3.3894C478.519 3.67538 478.392 4.10661 478.392 4.68311ZM483.002 7.19189V2.18115H484.014V4.15332H485.997V2.18115H487.008V7.19189H485.997V5.00098H484.014V7.19189H483.002ZM492.573 7.19189H491.472L491.035 6.05371H489.032L488.618 7.19189H487.545L489.497 2.18115H490.566L492.573 7.19189ZM490.71 5.20947L490.02 3.3501L489.343 5.20947H490.71ZM493.468 2.18115H496.979V7.19189H495.967V3.02881H494.459V5.16846C494.459 5.78142 494.439 6.20923 494.398 6.4519C494.357 6.69458 494.257 6.88371 494.099 7.01929C493.941 7.15487 493.693 7.22266 493.355 7.22266C493.237 7.22266 493.022 7.21126 492.709 7.18848V6.40576L492.935 6.40918C493.147 6.40918 493.289 6.3807 493.362 6.32373C493.435 6.26676 493.472 6.12663 493.472 5.90332L493.468 5.04199V2.18115ZM498.042 2.18115H499.053V4.18408H500.407C501.045 4.18408 501.507 4.33333 501.793 4.63184C502.079 4.93034 502.222 5.28808 502.222 5.70508C502.222 6.04688 502.135 6.3374 501.962 6.57666C501.789 6.81592 501.591 6.97827 501.369 7.06372C501.147 7.14917 500.826 7.19189 500.407 7.19189H498.042V2.18115ZM499.053 6.35107H500.038C500.357 6.35107 500.578 6.33569 500.701 6.30493C500.824 6.27417 500.934 6.2041 501.031 6.09473C501.127 5.98535 501.176 5.85091 501.176 5.69141C501.176 5.46126 501.093 5.29264 500.928 5.18555C500.763 5.07845 500.481 5.0249 500.082 5.0249H499.053V6.35107ZM503.056 7.19189V2.18115H504.067V4.15332H506.05V2.18115H507.062V7.19189H506.05V5.00098H504.067V7.19189H503.056ZM507.902 4.71729C507.902 4.20687 507.979 3.77848 508.131 3.43213C508.245 3.17692 508.401 2.94792 508.598 2.74512C508.795 2.54232 509.011 2.39193 509.246 2.29395C509.558 2.16178 509.918 2.0957 510.326 2.0957C511.064 2.0957 511.655 2.3247 512.098 2.78271C512.541 3.24072 512.763 3.8776 512.763 4.69336C512.763 5.50228 512.543 6.13517 512.103 6.59204C511.663 7.04891 511.075 7.27734 510.339 7.27734C509.594 7.27734 509.002 7.05005 508.562 6.59546C508.122 6.14087 507.902 5.51482 507.902 4.71729ZM508.945 4.68311C508.945 5.25049 509.076 5.68058 509.338 5.97339C509.6 6.2662 509.933 6.4126 510.336 6.4126C510.739 6.4126 511.07 6.26734 511.329 5.97681C511.587 5.68628 511.717 5.25049 511.717 4.66943C511.717 4.09521 511.591 3.66683 511.339 3.38428C511.087 3.10172 510.753 2.96045 510.336 2.96045C509.919 2.96045 509.583 3.10343 509.328 3.3894C509.072 3.67538 508.945 4.10661 508.945 4.68311ZM513.552 7.19189V2.18115H517.268V3.02881H514.564V4.13965H517.08V4.98389H514.564V6.34766H517.363V7.19189H513.552Z" fill="#55607A"/>
<path fill-rule="evenodd" clip-rule="evenodd" d="M457.05 10.5917H467.326V13.8397H460.578V18.0957C460.858 18.0397 461.194 17.9837 461.586 17.9277C461.978 17.8717 462.36 17.8437 462.734 17.8437C463.63 17.8437 464.432 17.951 465.142 18.1657C465.851 18.3804 466.458 18.7257 466.962 19.2017C467.466 19.6777 467.853 20.2984 468.124 21.0637C468.394 21.829 468.53 22.7624 468.53 23.8637C468.53 26.0664 467.979 27.7184 466.878 28.8197C465.776 29.921 464.143 30.4717 461.978 30.4717C461.716 30.4717 461.38 30.4624 460.97 30.4437C460.559 30.425 460.12 30.4017 459.654 30.3737C459.187 30.3457 458.725 30.3037 458.268 30.2477C457.81 30.1917 457.404 30.117 457.05 30.0237V10.5917ZM462.23 27.3357C463.014 27.3357 463.644 27.093 464.12 26.6077C464.596 26.1224 464.834 25.301 464.834 24.1437C464.834 23.453 464.759 22.9024 464.61 22.4917C464.46 22.081 464.26 21.7637 464.008 21.5397C463.756 21.3157 463.457 21.1664 463.112 21.0917C462.766 21.017 462.388 20.9797 461.978 20.9797C461.772 20.9797 461.516 21.003 461.208 21.0497C460.9 21.0964 460.69 21.1384 460.578 21.1757V27.1957C460.746 27.233 460.988 27.2657 461.306 27.2937C461.623 27.3217 461.931 27.3357 462.23 27.3357ZM473.906 18.6557H475.894C476.043 15.9864 476.645 13.9097 477.7 12.4257C478.754 10.9417 480.336 10.1997 482.446 10.1997C483.659 10.1997 484.69 10.4424 485.54 10.9277C486.389 11.413 487.08 12.1037 487.612 12.9997C488.144 13.8957 488.526 14.969 488.76 16.2197C488.993 17.4704 489.11 18.861 489.11 20.3917C489.11 23.6584 488.568 26.1737 487.486 27.9377C486.403 29.7017 484.714 30.5837 482.418 30.5837C481.354 30.5837 480.43 30.383 479.646 29.9817C478.862 29.5804 478.204 29.0017 477.672 28.2457C477.14 27.4897 476.729 26.575 476.44 25.5017C476.15 24.4284 475.968 23.229 475.894 21.9037H473.906V30.1917H470.378V10.5917H473.906V18.6557ZM479.422 20.3917C479.422 21.3997 479.468 22.3284 479.562 23.1777C479.655 24.027 479.818 24.7597 480.052 25.3757C480.285 25.9917 480.593 26.4724 480.976 26.8177C481.358 27.163 481.839 27.3357 482.418 27.3357C483.5 27.3357 484.27 26.7897 484.728 25.6977C485.185 24.6057 485.414 22.8371 485.414 20.3917C485.414 19.421 485.372 18.511 485.288 17.6617C485.204 16.8124 485.05 16.075 484.826 15.4497C484.602 14.8244 484.298 14.3344 483.916 13.9797C483.533 13.625 483.034 13.4477 482.418 13.4477C481.354 13.4477 480.588 14.0124 480.122 15.1417C479.655 16.271 479.422 18.021 479.422 20.3917ZM491.182 10.7877C491.854 10.6384 492.591 10.5217 493.394 10.4377C494.196 10.3537 494.999 10.3117 495.802 10.3117C496.66 10.3117 497.505 10.391 498.336 10.5497C499.166 10.7084 499.908 11.021 500.562 11.4877C501.215 11.9544 501.747 12.6124 502.158 13.4617C502.568 14.311 502.774 15.417 502.774 16.7797C502.774 18.0117 502.601 19.057 502.256 19.9157C501.91 20.7744 501.448 21.4744 500.87 22.0157C500.291 22.557 499.624 22.949 498.868 23.1917C498.112 23.4344 497.332 23.5557 496.53 23.5557H496.166C495.998 23.5557 495.82 23.551 495.634 23.5417C495.447 23.5324 495.265 23.5184 495.088 23.4997C494.91 23.481 494.784 23.4624 494.71 23.4437V30.1917H491.182V10.7877ZM494.71 20.2797C494.822 20.317 495.032 20.3497 495.34 20.3777C495.648 20.4057 495.858 20.4197 495.97 20.4197C496.38 20.4197 496.772 20.3637 497.146 20.2517C497.519 20.1397 497.85 19.9484 498.14 19.6777C498.429 19.407 498.658 19.0337 498.826 18.5577C498.994 18.0817 499.078 17.4797 499.078 16.7517C499.078 16.1357 498.998 15.613 498.84 15.1837C498.681 14.7544 498.466 14.4137 498.196 14.1617C497.925 13.9097 497.612 13.7277 497.258 13.6157C496.903 13.5037 496.53 13.4477 496.138 13.4477C495.559 13.4477 495.083 13.4944 494.71 13.5877V20.2797ZM504.09 20.3917C504.09 17.069 504.659 14.5397 505.798 12.8037C506.936 11.0677 508.672 10.1997 511.006 10.1997C512.219 10.1997 513.264 10.4377 514.142 10.9137C515.019 11.3897 515.738 12.071 516.298 12.9577C516.858 13.8444 517.273 14.9177 517.544 16.1777C517.814 17.4377 517.95 18.8424 517.95 20.3917C517.95 23.7144 517.366 26.2437 516.2 27.9797C515.033 29.7157 513.302 30.5837 511.006 30.5837C509.774 30.5837 508.724 30.3457 507.856 29.8697C506.988 29.3937 506.274 28.7124 505.714 27.8257C505.154 26.939 504.743 25.8657 504.482 24.6057C504.22 23.3457 504.09 21.941 504.09 20.3917ZM507.786 20.3917C507.786 21.381 507.842 22.3004 507.954 23.1497C508.066 23.999 508.252 24.7317 508.514 25.3477C508.775 25.9637 509.106 26.449 509.508 26.8037C509.909 27.1584 510.408 27.3357 511.006 27.3357C512.088 27.3357 512.9 26.785 513.442 25.6837C513.983 24.5824 514.254 22.8184 514.254 20.3917C514.254 19.4397 514.198 18.539 514.086 17.6897C513.974 16.8404 513.792 16.103 513.54 15.4777C513.288 14.8524 512.956 14.3577 512.546 13.9937C512.135 13.6297 511.622 13.4477 511.006 13.4477C508.859 13.4477 507.786 15.7624 507.786 20.3917Z" fill="#55607A"/>
<path d="M428.484 3.2213L420.631 1.69482L415.097 30.162L422.95 31.6885L428.484 3.2213Z" fill="#55607A"/>
<path d="M420.021 28.6118C421.402 28.6118 422.521 27.4925 422.521 26.1118C422.521 24.7311 421.402 23.6118 420.021 23.6118C418.641 23.6118 417.521 24.7311 417.521 26.1118C417.521 27.4925 418.641 28.6118 420.021 28.6118Z" fill="#55607A"/>
<path d="M440.484 3.2213L432.631 1.69482L427.097 30.162L434.95 31.6885L440.484 3.2213Z" fill="#55607A"/>
<path d="M432.021 28.6118C433.402 28.6118 434.521 27.4925 434.521 26.1118C434.521 24.7311 433.402 23.6118 432.021 23.6118C430.641 23.6118 429.521 24.7311 429.521 26.1118C429.521 27.4925 430.641 28.6118 432.021 28.6118Z" fill="#55607A"/>
<path d="M452.484 3.2213L444.631 1.69482L439.097 30.162L446.95 31.6885L452.484 3.2213Z" fill="#55607A"/>
<path d="M444.021 28.6118C445.402 28.6118 446.521 27.4925 446.521 26.1118C446.521 24.7311 445.402 23.6118 444.021 23.6118C442.641 23.6118 441.521 24.7311 441.521 26.1118C441.521 27.4925 442.641 28.6118 444.021 28.6118Z" fill="#55607A"/>
<path fill-rule="evenodd" clip-rule="evenodd" d="M642.74 20.9118C644.5 20.9118 645.54 20.1918 646.28 19.2318L645.28 18.3118C644.64 19.1718 643.82 19.5718 642.82 19.5718C640.76 19.5718 639.48 17.9718 639.48 15.8318C639.48 13.6918 640.76 12.1118 642.82 12.1118C643.82 12.1118 644.64 12.4918 645.28 13.3718L646.28 12.4518C645.54 11.4918 644.5 10.7718 642.74 10.7718C639.86 10.7718 637.92 12.9718 637.92 15.8318C637.92 18.7118 639.86 20.9118 642.74 20.9118ZM650.12 9.63182C650.68 9.63182 651.14 9.19182 651.14 8.63182C651.14 8.07182 650.68 7.61182 650.12 7.61182C649.58 7.61182 649.12 8.07182 649.12 8.63182C649.12 9.19182 649.58 9.63182 650.12 9.63182ZM650.88 20.6718V11.0118H649.38V20.6718H650.88ZM657.32 20.9118C658.2 20.9118 658.74 20.6518 659.12 20.2918L658.68 19.1718C658.48 19.3918 658.08 19.5718 657.66 19.5718C657 19.5718 656.68 19.0518 656.68 18.3318V12.3318H658.64V11.0118H656.68V8.37181H655.18V11.0118H653.58V12.3318H655.18V18.6518C655.18 20.0918 655.9 20.9118 657.32 20.9118ZM661.22 24.4518C661.5 24.5318 662 24.5918 662.32 24.5918C663.6 24.5718 664.58 24.0318 665.16 22.6318L670 11.0118H668.36L665.16 18.9318L661.94 11.0118H660.32L664.36 20.7718L663.72 22.2318C663.38 23.0318 662.94 23.2518 662.28 23.2518C662.04 23.2518 661.68 23.1918 661.46 23.0918L661.22 24.4518Z" fill="#55607A"/>
<path fill-rule="evenodd" clip-rule="evenodd" d="M680.34 20.672H678.24V19.632C677.52 20.452 676.4 20.912 675.12 20.912C673.54 20.912 671.76 19.852 671.76 17.712C671.76 15.492 673.54 14.572 675.12 14.572C676.42 14.572 677.54 14.992 678.24 15.812V14.372C678.24 13.252 677.32 12.572 675.98 12.572C674.9 12.572 673.96 12.972 673.12 13.792L672.26 12.332C673.38 11.272 674.78 10.772 676.32 10.772C678.46 10.772 680.34 11.672 680.34 14.272V20.672ZM675.94 19.472C676.86 19.472 677.76 19.132 678.24 18.472V17.012C677.76 16.352 676.86 16.012 675.94 16.012C674.76 16.012 673.88 16.692 673.88 17.752C673.88 18.792 674.76 19.472 675.94 19.472ZM692.96 20.672H690.86V19.352C690.12 20.312 689 20.912 687.76 20.912C685.28 20.912 683.46 19.032 683.46 15.852C683.46 12.732 685.26 10.772 687.76 10.772C688.96 10.772 690.08 11.332 690.86 12.352V7.33203H692.96V20.672ZM688.36 19.052C689.36 19.052 690.38 18.492 690.86 17.772V13.932C690.38 13.212 689.36 12.632 688.36 12.632C686.7 12.632 685.64 13.972 685.64 15.852C685.64 17.712 686.7 19.052 688.36 19.052ZM699.98 20.912C702.58 20.912 704 19.612 704 17.912C704 14.072 698.16 15.352 698.16 13.632C698.16 12.952 698.86 12.452 699.96 12.452C701.16 12.452 702.24 12.952 702.82 13.612L703.7 12.132C702.82 11.352 701.58 10.772 699.94 10.772C697.5 10.772 696.14 12.132 696.14 13.712C696.14 17.412 701.98 16.052 701.98 17.952C701.98 18.712 701.34 19.252 700.08 19.252C698.82 19.252 697.48 18.592 696.8 17.892L695.84 19.412C696.84 20.392 698.34 20.912 699.98 20.912Z" fill="#55607A"/>
<path d="M617.656 26.7119C623.731 26.7119 628.656 21.787 628.656 15.7119C628.656 9.63678 623.731 4.71191 617.656 4.71191C611.581 4.71191 606.656 9.63678 606.656 15.7119C606.656 21.787 611.581 26.7119 617.656 26.7119Z" stroke="#55607A" stroke-width="2"/>
<path d="M615.979 25.6719H614.979V28.6719H615.979V25.6719Z" stroke="#55607A" stroke-width="2"/>
<path d="M620.979 25.6719H619.979V28.6719H620.979V25.6719Z" stroke="#55607A" stroke-width="2"/>
<path fill-rule="evenodd" clip-rule="evenodd" d="M611.979 16.6719L613.979 15.6719V25.6719H611.979V16.6719Z" fill="#55607A"/>
<path fill-rule="evenodd" clip-rule="evenodd" d="M616.979 14.6719L618.979 13.6719V26.6719H616.979V14.6719Z" fill="#55607A"/>
<path fill-rule="evenodd" clip-rule="evenodd" d="M621.979 12.6719L623.979 11.6719V25.6719H621.979V12.6719Z" fill="#55607A"/>
</svg>
