<svg width="704" height="48" viewBox="0 0 704 48" fill="none" xmlns="http://www.w3.org/2000/svg">
<path d="M7.71387 6.60269C8.29376 6.02634 8.8595 5.43495 9.45354 4.87451C10.075 5.44733 10.6849 6.03341 11.3081 6.60357C10.6823 7.1702 10.0759 7.75805 9.4553 8.33087C8.85862 7.77219 8.29552 7.17816 7.71387 6.60269Z" fill="#55607A"/>
<path d="M5.92 9.33882C6.9242 9.07451 7.9611 8.96755 8.99536 8.90479C8.99889 12.2064 8.99624 15.5081 8.99624 18.8098C7.88066 18.8159 6.76508 18.8177 5.6495 18.8106C5.27293 18.8204 4.95735 18.5278 4.8221 18.1954C4.01238 16.2931 3.23359 14.3775 2.40972 12.4814C2.19492 12.6334 1.97746 12.7837 1.7547 12.9251C2.50961 14.9043 3.36884 16.8447 4.15116 18.8133C3.56862 18.808 2.98519 18.8301 2.40354 18.7983C1.80243 16.6175 0.859227 14.5552 0 12.469C1.68928 10.9768 3.72243 9.86302 5.92 9.33882ZM3.92398 11.7954C4.66917 13.5872 5.37017 15.3994 6.12331 17.1877C6.34873 17.68 6.94983 17.5298 7.38122 17.5289C7.36796 15.2694 7.38033 13.01 7.37503 10.7505C6.19138 10.9742 5.0263 11.3101 3.92398 11.7954Z" fill="#55607A"/>
<path d="M9.90713 8.90283C11.3507 8.98239 12.7951 9.19985 14.1617 9.68515C15.9111 10.2659 17.5014 11.256 18.8937 12.4547C18.1343 14.6213 17.1761 16.711 16.2541 18.8122C15.7529 18.8149 15.2525 18.8149 14.7513 18.8122C15.4223 17.1769 16.0985 15.5442 16.7703 13.9088C16.9056 13.5844 17.0488 13.2617 17.1513 12.9258C16.9303 12.7738 16.7058 12.627 16.4733 12.4935C15.6981 14.3826 14.8928 16.2593 14.1078 18.1439C13.9734 18.4966 13.6561 18.8211 13.2556 18.8105C12.1392 18.8202 11.0227 18.8113 9.90625 18.8131C9.91244 15.5097 9.90713 12.2063 9.90713 8.90283ZM11.5248 10.753C11.531 13.0142 11.5345 15.2763 11.5257 17.5384C11.8254 17.5358 12.1286 17.5667 12.4256 17.5181C12.7703 17.3837 12.872 17.001 12.9958 16.6907C13.5827 15.2374 14.167 13.7833 14.7584 12.3327C14.8088 12.1506 14.9617 11.9614 14.9193 11.7749C13.8391 11.2896 12.6881 10.9696 11.5248 10.753Z" fill="#55607A"/>
<path d="M19.4723 12.9453C20.7161 11.8713 22.4487 11.5902 24.0416 11.6954C25.1722 11.8129 26.3939 12.0392 27.2345 12.871C27.9461 13.5393 28.1132 14.609 27.9284 15.5318C27.7711 16.3362 27.2336 17.0461 26.5079 17.4244C27.1797 17.8063 27.8436 18.3102 28.1008 19.0722C28.3766 19.9676 28.176 20.9594 27.7357 21.7692C27.1603 22.8114 26.0668 23.4673 24.9326 23.7369C23.7534 24.0092 22.5132 23.8739 21.3702 23.508C20.5534 23.2375 19.772 22.8361 19.124 22.2651C19.3777 21.9018 19.6005 21.519 19.8427 21.1486C19.9691 20.9488 20.1565 20.7614 20.4067 20.7455C20.8275 20.6801 21.1837 20.9497 21.5373 21.1301C22.4195 21.6109 23.4723 21.8284 24.4624 21.6039C24.9335 21.5031 25.3534 21.1566 25.4789 20.6828C25.6107 20.1966 25.6504 19.6176 25.3384 19.1897C24.9954 18.715 24.3872 18.5435 23.833 18.4878C23.147 18.4472 22.4602 18.487 21.7751 18.4649C21.7892 17.7736 21.7698 17.0814 21.7839 16.391C22.5371 16.3769 23.2955 16.4379 24.0442 16.3301C24.4774 16.2744 24.9238 16.0498 25.1218 15.6423C25.326 15.1243 25.2712 14.4083 24.7629 14.0848C24.1715 13.7029 23.4237 13.7082 22.7528 13.8178C22.1437 13.923 21.6168 14.2589 21.0546 14.4923C20.7541 14.624 20.3757 14.5223 20.2007 14.2394C19.9355 13.8213 19.7269 13.3705 19.4723 12.9453Z" fill="#55607A"/>
<path d="M32.5748 15.0756C33.8133 14.9006 35.1675 15.0853 36.1876 15.8526C37.046 16.4856 37.5825 17.4871 37.7337 18.5337C37.9034 19.7236 37.7417 21.0053 37.0769 22.0272C36.5138 22.9112 35.5856 23.5318 34.5664 23.7563C33.3235 24.025 31.9613 23.8756 30.8634 23.2109C29.8822 22.6071 29.2219 21.5552 29.0203 20.429C28.8391 19.3921 28.9063 18.28 29.3792 17.3262C29.9573 16.086 31.232 15.2471 32.5748 15.0756ZM32.7383 17.0946C32.4033 17.2166 32.1284 17.4809 31.9825 17.8045C31.6855 18.4162 31.6988 19.1136 31.6749 19.7775C31.6537 20.3919 31.7704 21.0513 32.1814 21.5313C32.855 22.2597 34.2641 22.2102 34.7741 21.313C35.1666 20.6076 35.1657 19.766 35.1286 18.9819C35.0827 18.3455 34.9324 17.6135 34.3666 17.2325C33.8884 16.9293 33.2643 16.9231 32.7383 17.0946Z" fill="#55607A"/>
<path d="M50.7895 15.0745C52.0845 14.8906 53.5122 15.1099 54.5393 15.97C55.3411 16.6223 55.8211 17.6062 55.9502 18.6228C56.104 19.8444 55.9104 21.1607 55.1776 22.1773C54.6127 22.9834 53.7332 23.5412 52.7758 23.7552C51.5214 24.031 50.1274 23.8754 49.0507 23.1426C48.18 22.5538 47.5886 21.6053 47.3738 20.5834C47.121 19.3715 47.2289 18.0455 47.8565 16.9591C48.4717 15.9169 49.597 15.2283 50.7895 15.0745ZM50.9504 17.0908C50.6118 17.2111 50.336 17.4771 50.1866 17.8024C49.8861 18.415 49.9055 19.116 49.8826 19.7817C49.8578 20.3978 49.9789 21.0573 50.3926 21.5364C50.9159 22.1012 51.8459 22.1737 52.5009 21.806C53.1489 21.3949 53.3018 20.5675 53.3416 19.8568C53.3548 19.0683 53.3663 18.1967 52.8881 17.5258C52.4443 16.9476 51.6001 16.8805 50.9504 17.0908Z" fill="#55607A"/>
<path d="M64.8702 15.3542C66.022 15.2101 67.1721 14.9918 68.338 15.0218C69.2026 15.0466 70.0485 15.4134 70.6682 16.0154C71.3347 16.6784 71.7387 17.5986 71.7873 18.5365C71.7882 20.3186 71.7873 22.1016 71.7873 23.8846C71.2861 23.874 70.7831 23.9085 70.2837 23.8696C69.8249 23.8254 69.8099 23.2658 69.5959 22.9573C69.0214 23.2755 68.5352 23.7723 67.8775 23.9217C66.9741 24.1489 65.9495 24.0702 65.1593 23.5478C64.5095 23.1076 64.2222 22.3014 64.1851 21.5456C64.1321 20.6519 64.5564 19.7361 65.2963 19.2269C65.8373 18.8813 66.449 18.6709 67.0572 18.4747C67.7316 18.2828 68.4379 18.251 69.1354 18.2386C69.1566 17.7436 68.8826 17.2274 68.3858 17.0868C67.5442 16.8614 66.6894 17.1567 65.8488 17.2327C65.5164 17.2804 65.1937 17.0842 65.0479 16.7898C64.8295 16.3452 64.8543 15.8351 64.8702 15.3542ZM66.7761 20.3416C66.1909 20.6378 66.1396 21.6791 66.8008 21.916C67.6026 22.2112 68.5422 21.8797 69.0983 21.2592C69.1513 20.8305 69.0329 20.392 69.0187 19.9597C68.2647 19.9933 67.4567 19.9651 66.7761 20.3416Z" fill="#55607A"/>
<path d="M39.4994 19.932C39.7823 18.385 39.6594 16.8053 39.7531 15.2433C41.9427 15.2425 44.1324 15.2425 46.322 15.2433C46.3184 18.1242 46.3264 21.0042 46.3176 23.8851C45.4742 23.8851 44.6309 23.8842 43.7885 23.886C43.7832 21.6575 43.7876 19.429 43.7858 17.2013C43.1715 17.1996 42.5562 17.2005 41.9419 17.2013C41.8685 18.4911 41.8358 19.7914 41.5635 21.059C41.385 21.8741 41.0888 22.7068 40.4851 23.3061C39.8504 23.9576 38.8859 24.1494 38.009 24.1105C37.8066 24.1149 37.5724 23.9868 37.5768 23.7605C37.5494 23.2301 37.5741 22.697 37.5662 22.1658C37.9595 22.1331 38.3617 22.0093 38.6729 21.7609C39.145 21.2676 39.3872 20.5958 39.4994 19.932Z" fill="#55607A"/>
<path d="M55.8848 15.2446C58.5738 15.242 61.2638 15.2437 63.9528 15.2437C63.9537 15.8555 63.9537 16.4672 63.9528 17.078C63.0689 17.0789 62.1858 17.078 61.3018 17.0789C61.3 19.3074 61.3027 21.535 61.3009 23.7635C60.4169 23.7644 59.5329 23.7644 58.649 23.7635C58.6472 21.535 58.6499 19.3074 58.6481 17.0789C57.727 17.0771 56.8059 17.0806 55.8848 17.0771C55.8856 16.4663 55.8848 15.8555 55.8848 15.2446Z" fill="#55607A"/>
<path d="M73.6826 16.0222C74.4632 15.4697 75.4329 15.2514 76.3779 15.2461C77.5368 15.2381 78.6957 15.2452 79.8545 15.2434C79.8545 18.0836 79.8554 20.923 79.8545 23.7632C79.0475 23.7641 78.2404 23.7632 77.4342 23.7632C77.4298 22.6458 77.443 21.5276 77.4263 20.4103C77.1133 20.4341 76.7518 20.4677 76.5564 20.7488C75.9774 21.4799 75.8112 22.439 75.3136 23.2178C75.0678 23.6058 74.5922 23.742 74.1582 23.7552C73.4837 23.7738 72.8092 23.7596 72.1348 23.7614C72.7553 22.7307 73.367 21.6938 73.9982 20.6701C74.2165 20.3024 74.5852 20.0549 74.9997 19.9612C74.2006 19.7968 73.3617 19.391 73.0037 18.614C72.5856 17.7274 72.9507 16.6268 73.6826 16.0222ZM76.0269 16.9557C75.333 17.2085 75.2039 18.2569 75.744 18.7272C76.1807 19.1913 76.8693 19.0083 77.4333 19.0445C77.4351 18.3152 77.4333 17.5868 77.4342 16.8575C76.9666 16.8779 76.476 16.7939 76.0269 16.9557Z" fill="#55607A"/>
<path d="M2.7373 19.5971C7.24559 19.5971 11.7539 19.5962 16.2622 19.5971C16.2622 20.1275 16.2622 20.6587 16.2622 21.1891C11.7539 21.1891 7.24559 21.1891 2.7373 21.1891C2.7373 20.6587 2.7373 20.1275 2.7373 19.5971Z" fill="#55607A"/>
<path d="M2.7708 22.2703C4.11533 22.2694 5.45986 22.2712 6.80439 22.2703C6.80527 24.535 6.8035 26.8007 6.80527 29.0663C7.27201 29.0787 7.74671 29.0628 8.19842 28.9302C8.39024 28.8515 8.53345 28.6888 8.65897 28.5297C9.65345 27.1931 10.1971 25.5843 11.1942 24.2486C11.5841 23.7041 12.0632 23.202 12.6722 22.9059C13.7949 22.4091 15.0439 22.3489 16.2532 22.3817C16.2515 23.194 16.2585 24.0064 16.2515 24.8188C16.263 25.1123 16.1339 25.4181 15.8758 25.571C15.4868 25.7947 15.0236 25.8247 14.6196 26.0122C14.2669 26.1589 13.9823 26.4312 13.7675 26.7414C13.1098 27.6431 12.8623 28.7737 12.1913 29.6674C11.9659 29.9671 11.6504 30.1801 11.3153 30.3401C11.8378 30.4683 12.3337 30.7167 12.7279 31.0853C13.1628 31.5193 13.4961 32.0418 13.8081 32.5677C15.0386 34.7432 16.2851 36.9107 17.512 39.0888C16.3001 39.0906 15.0881 39.0888 13.8762 39.0906C13.4678 39.1012 13.0311 38.9819 12.7606 38.6583C12.4937 38.3923 12.3911 38.021 12.2011 37.7054C11.2481 36.0382 10.3023 34.3657 9.34848 32.6994C9.16019 32.3671 8.85257 32.1001 8.47422 32.0179C7.92527 31.9047 7.36041 31.9675 6.80439 31.9525C6.80439 34.2941 6.80439 36.6367 6.80439 38.9792C5.5677 38.981 4.3319 38.9757 3.09522 38.9819C2.9971 38.9501 2.73721 39.0508 2.77168 38.867C2.76815 33.335 2.7708 27.8031 2.7708 22.2703Z" fill="#55607A"/>
<path d="M21.791 26.4743C23.3256 26.3117 24.9495 26.5398 26.2772 27.3654C27.3945 28.0523 28.2334 29.1563 28.6471 30.3974C29.0476 31.5537 29.1059 32.8036 28.9804 34.012C28.9203 34.6697 28.7081 35.3035 28.3979 35.8843C27.9064 36.946 27.094 37.8618 26.0854 38.4584C24.7055 39.2567 23.0383 39.4591 21.4781 39.2142C20.0938 39.0092 18.7696 38.3471 17.8255 37.3048C17.0255 36.3864 16.4721 35.2399 16.3245 34.0253C16.13 32.4474 16.313 30.7767 17.1077 29.3764C18.0279 27.6721 19.8949 26.6414 21.791 26.4743ZM21.8785 29.2925C21.3791 29.426 20.9477 29.7654 20.6958 30.2162C20.2379 31.0145 20.1804 31.963 20.168 32.862C20.1336 33.7265 20.1645 34.6458 20.5968 35.4202C20.8619 35.9223 21.326 36.3113 21.8803 36.4509C22.6688 36.6489 23.5908 36.5932 24.2432 36.062C24.8982 35.4794 25.1192 34.5787 25.1961 33.738C25.2677 32.8204 25.2509 31.8825 25.0184 30.9871C24.8496 30.4134 24.5384 29.8388 24.0169 29.5161C23.3777 29.1431 22.5831 29.1121 21.8785 29.2925Z" fill="#55607A"/>
<path d="M35.7902 26.6293C36.7643 26.3729 37.8366 26.3128 38.7877 26.6885C39.9961 27.1773 40.8297 28.2779 41.3327 29.443C41.7482 30.3137 41.8684 31.2878 41.9197 32.2408C41.9992 33.9955 41.5625 35.7997 40.5424 37.2441C39.8423 38.2394 38.7771 38.9855 37.5767 39.2198C36.569 39.4151 35.4825 39.3294 34.5606 38.8573C34.2361 38.7018 33.9462 38.4861 33.6465 38.2898C33.6492 39.8624 33.6527 41.435 33.6483 43.0085C32.4204 43.0545 31.1926 43.0925 29.9639 43.1252C29.9639 37.6322 29.9639 32.14 29.9639 26.647C30.7276 26.6505 31.4923 26.6381 32.2569 26.6514C32.6229 26.647 33.0207 26.822 33.1612 27.1809C33.2708 27.4965 33.3309 27.8262 33.4185 28.148C34.0593 27.447 34.8646 26.8786 35.7902 26.6293ZM33.6421 30.4551C33.6642 32.2089 33.6324 33.9636 33.6562 35.7175C34.077 36.2452 34.7727 36.5281 35.4428 36.5484C36.134 36.6023 36.8775 36.3477 37.285 35.7643C37.9718 34.8034 38.0319 33.5614 38.0169 32.422C37.9869 31.4982 37.9064 30.4587 37.2337 29.7541C36.7855 29.2626 36.0501 29.2512 35.4401 29.3528C34.7188 29.4615 34.1088 29.9159 33.6421 30.4551Z" fill="#55607A"/>
<path d="M48.2283 26.4781C49.8929 26.2925 51.6732 26.5577 53.0708 27.5292C54.3172 28.384 55.1154 29.7877 55.3859 31.2587C55.6502 32.7243 55.5857 34.2783 55.0394 35.6741C54.5355 37.0143 53.4827 38.1404 52.1726 38.7212C50.844 39.3179 49.3351 39.4355 47.9057 39.2127C46.4728 38.9838 45.0876 38.2828 44.17 37.1415C43.1234 35.8854 42.6964 34.2059 42.7565 32.5926C42.7998 31.0129 43.3143 29.3838 44.4502 28.247C45.4297 27.2056 46.8263 26.6399 48.2283 26.4781ZM48.3874 29.2909C47.9755 29.4014 47.5972 29.6445 47.347 29.9919C46.8476 30.6549 46.7273 31.5115 46.6805 32.3177C46.6531 33.2759 46.6557 34.2713 47.0208 35.1738C47.2445 35.7457 47.6979 36.2478 48.2999 36.4238C49.054 36.6448 49.93 36.6129 50.6 36.1683C51.2268 35.7219 51.5132 34.9528 51.6352 34.2209C51.7695 33.3502 51.7678 32.4565 51.6458 31.5849C51.5318 30.845 51.2551 30.0688 50.6407 29.5995C49.9928 29.1477 49.1344 29.1018 48.3874 29.2909Z" fill="#55607A"/>
<path d="M70.1785 26.875C71.8749 26.5948 73.5924 26.3782 75.3162 26.4321C76.811 26.494 78.2979 27.2445 79.1306 28.5077C79.7759 29.4359 80.0075 30.5912 79.9659 31.7077C79.9642 34.2085 79.9659 36.7092 79.9659 39.2109C79.3259 39.2074 78.6859 39.2233 78.0468 39.2029C77.7171 39.1923 77.3379 39.103 77.1549 38.8007C76.9595 38.4648 76.8711 38.0812 76.7394 37.7187C75.3551 39.3011 72.9392 39.8553 71.005 39.0314C70.3297 38.753 69.7763 38.2067 69.4881 37.5358C69.0214 36.4661 68.9242 35.2144 69.2963 34.1015C69.748 32.9435 70.7876 32.0834 71.9571 31.7068C72.7102 31.4796 73.4625 31.2303 74.2475 31.1366C74.9228 31.05 75.6053 31.035 76.2859 31.0288C76.3549 30.2916 75.8713 29.5313 75.1279 29.3828C74.3049 29.2255 73.4616 29.389 72.6475 29.5278C72.1206 29.6118 71.5681 29.8054 71.0448 29.61C70.6435 29.4659 70.3916 29.0787 70.2846 28.6827C70.1334 28.0931 70.137 27.4779 70.1785 26.875ZM73.177 33.9777C72.43 34.235 72.0959 35.2135 72.4415 35.8995C72.6872 36.3486 73.2495 36.4661 73.7206 36.4723C74.2828 36.4538 74.8645 36.3689 75.3613 36.0887C75.7051 35.9013 75.9297 35.5618 76.2691 35.3674C76.2877 34.7291 76.2727 34.09 76.2753 33.4518C75.2366 33.5844 74.175 33.6409 73.177 33.9777Z" fill="#55607A"/>
<path d="M56.5752 26.646C57.8048 26.6478 59.0344 26.6451 60.264 26.6469C60.2614 28.1435 60.2685 29.64 60.2596 31.1357C61.5635 31.1552 62.8673 31.1357 64.1712 31.1463C64.1862 29.6462 64.173 28.1461 64.1774 26.646C65.4088 26.6478 66.6402 26.6442 67.8715 26.6478C67.8715 30.7945 67.8715 34.9404 67.8715 39.0871C66.6402 39.0933 65.4088 39.0862 64.1774 39.0906C64.1765 37.3633 64.1783 35.6361 64.1765 33.9079C62.8727 33.9079 61.5679 33.9079 60.264 33.9088C60.2658 35.6334 60.2587 37.3589 60.2676 39.0844C59.0371 39.0968 57.8066 39.0844 56.5752 39.0906C56.5752 34.9421 56.5752 30.7945 56.5752 26.646Z" fill="#55607A"/>
<path d="M289.462 28.2448H287.823V26.9612C285.927 26.8295 284.433 26.2898 283.34 25.3419C282.248 24.394 281.701 23.1697 281.701 21.6689C281.701 20.1812 282.248 18.9635 283.34 18.0156C284.433 17.0677 285.927 16.528 287.823 16.3963V15.0732H289.462V16.3963C291.344 16.528 292.839 17.0743 293.945 18.0354C295.05 18.9832 295.603 20.1944 295.603 21.6689C295.603 23.1697 295.05 24.394 293.945 25.3419C292.852 26.2898 291.358 26.8295 289.462 26.9612V28.2448ZM292.72 24.2755C293.51 23.591 293.905 22.7221 293.905 21.6689C293.905 20.6157 293.51 19.7468 292.72 19.0622C291.93 18.3776 290.844 17.9761 289.462 17.8576V25.4801C290.844 25.3616 291.93 24.9601 292.72 24.2755ZM284.565 19.0622C283.788 19.7468 283.399 20.6157 283.399 21.6689C283.399 22.7221 283.788 23.591 284.565 24.2755C285.354 24.9601 286.441 25.3616 287.823 25.4801V17.8576C286.441 17.9761 285.354 18.3776 284.565 19.0622Z" fill="#55607A"/>
<path d="M304.815 28.2448H303.235V15.0732H304.874V25.3616L312.457 15.0732H314.136V28.2448H312.497V17.7391L304.815 28.2448Z" fill="#55607A"/>
<path d="M333.287 28.2448H331.648V22.2021H323.947V28.2448H322.308V15.0732H323.947V20.7407H331.648V15.0732H333.287V28.2448Z" fill="#55607A"/>
<path d="M351.449 28.2448H349.415L344.419 22.3205L343.096 23.8213V28.2448H341.457V15.0732H343.096V21.8861L348.922 15.0732H350.976L345.486 21.3332L351.449 28.2448Z" fill="#55607A"/>
<path d="M369.684 28.2448H367.808L366.643 25.3221H360.087L358.922 28.2448H357.046L362.338 15.0732H364.372L369.684 28.2448ZM366.149 23.8608L363.365 16.7715L360.561 23.8608H366.149Z" fill="#55607A"/>
<path d="M378.136 28.2448H376.497V15.0732H381.79C383.067 15.0732 384.074 15.455 384.811 16.2186C385.548 16.9822 385.917 17.9235 385.917 19.0425C385.917 20.1615 385.542 21.1028 384.791 21.8664C384.054 22.6299 383.054 23.0117 381.79 23.0117H378.136V28.2448ZM381.592 21.5504C382.369 21.5504 383.001 21.32 383.488 20.8592C383.975 20.3853 384.219 19.7797 384.219 19.0425C384.219 18.3052 383.975 17.7062 383.488 17.2455C383.001 16.7715 382.369 16.5346 381.592 16.5346H378.136V21.5504H381.592Z" fill="#55607A"/>
<path d="M398.076 28.2448H396.437V16.5346H392.27V15.0732H402.262V16.5346H398.076V28.2448Z" fill="#55607A"/>
<path d="M420.808 28.2448H418.932L417.767 25.3221H411.21L410.045 28.2448H408.169L413.462 15.0732H415.496L420.808 28.2448ZM417.273 23.8608L414.488 16.7715L411.684 23.8608H417.273Z" fill="#55607A"/>
<path fill-rule="evenodd" clip-rule="evenodd" d="M265.35 10L251.235 23.9211L265.35 38L270.299 33.1789L265.35 28.5451L270.299 23.9211L265.35 19.4214L270.299 14.4933L265.35 10Z" fill="#55607A"/>
<path d="M609.799 16.6138L621.169 28.9687H613.469L609.799 16.6138Z" fill="#55607A"/>
<path d="M621.169 28.9688L599.324 39.5331L613.47 28.9688H621.169Z" fill="#9FA7BC"/>
<path d="M609.799 16.6138L613.469 28.9687H604.248L609.799 16.6138Z" fill="#55607A"/>
<path d="M613.47 28.9688L599.324 39.5331L604.248 28.9688H613.47Z" fill="#9FA7BC"/>
<path d="M609.799 16.6138L604.248 28.9687L599.324 20.6694L609.799 16.6138Z" fill="#55607A"/>
<path d="M609.799 16.6139L599.324 20.6695L592.072 8.4668L609.799 16.6139Z" fill="#55607A"/>
<path d="M599.324 20.6694L604.248 28.9687L599.324 39.5331V20.6694Z" fill="#9FA7BC"/>
<path d="M599.324 20.6695V39.5331L592.072 8.4668L599.324 20.6695Z" fill="#9FA7BC"/>
<path d="M626.2 21.4037V36.8115H636.442V34.2062H629.217V21.4037H626.2ZM676.954 22.5765C675.897 21.5022 673.561 21.4395 673.561 21.4395H665.19V36.7757H673.337C673.337 36.7757 675.781 36.8384 677.008 35.585C678.252 34.3226 678.565 32.9618 678.565 30.3118V26.5963C678.565 26.5963 678.646 24.0895 676.954 22.5765ZM675.647 31.2249C675.647 32.6663 674.939 34.2958 672.791 34.2958L668.18 34.3137V23.9642H672.764C674.787 23.9642 675.647 25.0654 675.647 27.2051V31.2249ZM661.143 36.7847H664.133L658.932 21.4305H654.572L649.504 36.7847H652.557L656.828 23.6419L661.143 36.7847ZM689.237 25.7906H692.12V24.7162C692.12 22.4153 690.482 21.162 688.458 21.162L683.722 21.1261C681.726 21.1261 680.105 22.6392 680.105 24.6357L680.123 26.6769C680.132 28.3421 681.43 29.7209 683.095 29.8373L688.27 30.1954C688.942 30.2401 689.47 30.8042 689.47 31.4846V32.917C689.47 33.6422 689.013 34.3226 688.055 34.3226L684.286 34.3137C683.633 34.3137 682.952 33.6153 682.952 32.9618L682.943 31.6994H680.06V32.9618C680.06 35.4238 681.69 36.7309 683.758 36.7309H688.19C691.341 36.7309 692.415 35.1105 692.415 33.1408V30.9832C692.415 29.1658 691.055 27.8855 689.228 27.8318L684.349 27.4558C683.955 27.4558 683.095 27.0977 683.095 26.0144L683.078 25.1012C683.078 24.0537 683.758 23.5345 684.805 23.5345H687.778C688.584 23.5345 689.228 24.1253 689.228 24.9221V25.7906H689.237ZM698.593 22.5765H699.497V22.2363C699.497 21.5201 698.987 21.1261 698.351 21.1261L696.874 21.1172C696.247 21.1172 695.746 21.5917 695.746 22.2184L695.755 22.854C695.755 23.3733 696.167 23.812 696.686 23.8478L698.306 23.9642C698.521 23.9821 698.682 24.1522 698.682 24.3671V24.8147C698.682 25.0385 698.539 25.2534 698.244 25.2534H697.062C696.856 25.2534 696.641 25.0296 696.641 24.8326V24.4387H695.719V24.8326C695.719 25.6026 696.229 26.0144 696.874 26.0144H698.262C699.246 26.0144 699.587 25.5041 699.587 24.8863V24.197C699.587 23.624 699.157 23.2301 698.593 23.2122L697.062 23.0958C696.937 23.0958 696.668 22.9883 696.668 22.6392L696.659 22.3527C696.659 22.0214 696.874 21.8603 697.196 21.8603H698.127C698.378 21.8603 698.584 22.0483 698.584 22.299V22.5765H698.593ZM703.078 21.1172V24.8058C703.078 25.0296 702.935 25.2444 702.64 25.2444H701.458C701.252 25.2444 701.037 25.0206 701.037 24.8237V21.1172H700.133V24.8237C700.133 25.5936 700.643 26.0054 701.288 26.0054H702.675C703.66 26.0054 704 25.4951 704 24.8774V21.1172H703.078ZM640.892 34.3584V30.0342H646.407V27.8766H640.892V23.8747H648.448V21.4305H637.928V36.7847H648.502V34.3584H640.892Z" fill="#55607A"/>
<path d="M654.519 34.0719H659.111L658.422 31.9053H655.208L654.519 34.0719Z" fill="#55607A"/>
<path d="M695.406 25.7281C695.406 25.8803 695.28 25.9967 695.137 25.9967H694.806C694.653 25.9967 694.537 25.8713 694.537 25.7281V25.4058C694.537 25.2536 694.662 25.1372 694.806 25.1372H695.137C695.289 25.1372 695.406 25.2625 695.406 25.4058V25.7281Z" fill="#55607A"/>
</svg>
