<svg width="704" height="48" viewBox="0 0 704 48" fill="none" xmlns="http://www.w3.org/2000/svg">
<path fill-rule="evenodd" clip-rule="evenodd" d="M0 16.0679H3.34752V28.5149H9.21312V31.4319H0V16.0679ZM113.85 31.4319H110.504V18.9859H104.64V16.0679H113.85V31.4319ZM11.52 31.4319H14.8685V16.0679H11.52V31.4319ZM17.28 16.0679H21.1757L24.216 21.6999C25.1126 23.3179 25.9661 25.2319 26.6448 26.9629H26.7101C26.4912 24.9359 26.4259 22.8619 26.4259 20.5369V16.0679H29.4902V31.4319H26.0112L22.8384 25.5289C21.9629 23.8639 20.977 21.9029 20.2771 20.1049H20.1898C20.2992 22.1319 20.3424 24.3199 20.3424 26.8269V31.4319H17.28V16.0679ZM32.64 16.0679H35.9443V22.8619H36.0106C36.3379 22.2689 36.6883 21.7209 37.0176 21.1749L40.3642 16.0679H44.4566L39.577 22.6109L44.7197 31.4319H40.8461L37.2125 24.8219L35.9443 26.4169V31.4319H32.64V16.0679ZM46.08 16.3869C47.1082 16.2049 48.5971 16.0679 50.5872 16.0679C52.6224 16.0679 54.1104 16.4789 55.0954 17.3219C56.0362 18.0729 56.6707 19.3509 56.6707 20.8779C56.6707 22.3809 56.1888 23.6589 55.3142 24.5019C54.1757 25.6179 52.4909 26.1429 50.545 26.1429C50.0851 26.1429 49.6906 26.0959 49.3834 26.0749V31.5439H46.08V16.3869ZM50.4998 23.4529C52.2509 23.4529 53.3443 22.5189 53.3443 20.9689C53.3443 19.5559 52.4256 18.7109 50.7418 18.7109C50.063 18.7109 49.6253 18.7339 49.3834 18.8039V23.3849C49.6483 23.4299 50.0198 23.4529 50.4998 23.4529ZM58.56 16.3869C59.6314 16.2049 61.2298 16.0679 63.0019 16.0679C65.1898 16.0679 66.721 16.4109 67.7722 17.2749C68.6467 18.0059 69.1286 19.0769 69.1286 20.4899C69.1286 22.4509 67.7952 23.7959 66.5242 24.2749V24.3429C67.5754 24.7749 68.1446 25.8019 68.4941 27.2149C68.9539 28.9449 69.4128 30.9529 69.6979 31.5439H66.2842C66.0422 31.1119 65.6717 29.8809 65.255 27.9669C64.8605 26.0519 64.2288 25.5269 62.8502 25.5049H61.8634V31.5439H58.56V16.3869ZM63.1776 22.9979C64.8403 22.9979 65.8243 22.1309 65.8243 20.7869C65.8243 19.3949 64.8835 18.6659 63.3744 18.6429C62.5853 18.6429 62.1053 18.7109 61.8634 18.7579V22.9979H63.1776ZM71.04 24.1139C71.04 19.3509 73.9498 16.0679 78.2822 16.0679C82.7251 16.0679 85.2202 19.4879 85.2202 23.9769C85.2202 29.1299 81.959 31.9319 77.9981 31.9319C73.7318 31.9319 71.04 28.7189 71.04 24.1139ZM81.696 24.0229C81.696 21.4249 80.6026 18.8259 78.1526 18.8259C75.8102 18.8259 74.5632 21.1739 74.5632 24.0469C74.5632 26.8949 75.8544 29.1739 78.1296 29.1739C80.4931 29.1739 81.696 26.8039 81.696 24.0229ZM87.36 16.0679H96.3754V18.9189H90.7094V22.4499H96.0038V25.2539H90.7094V31.4319H87.36V16.0679ZM98.88 31.4319H102.229V16.0679H98.88V31.4319ZM117.12 18.9669H119.903V16.0679H117.12V18.9669Z" fill="#55607A"/>
<path d="M288.307 30.5981C293.829 30.5981 298.307 26.121 298.307 20.5981C298.307 15.0753 293.829 10.5981 288.307 10.5981C282.784 10.5981 278.307 15.0753 278.307 20.5981C278.307 26.121 282.784 30.5981 288.307 30.5981Z" stroke="#55607A" stroke-width="2"/>
<path d="M288.307 26.5981C291.62 26.5981 294.307 23.9119 294.307 20.5981C294.307 17.2844 291.62 14.5981 288.307 14.5981C284.993 14.5981 282.307 17.2844 282.307 20.5981C282.307 23.9119 284.993 26.5981 288.307 26.5981Z" stroke="#55607A" stroke-width="2"/>
<path fill-rule="evenodd" clip-rule="evenodd" d="M211.789 39.0137V39.5981H210.798V39.0137C209.998 38.984 209.434 38.7864 209.104 38.4207C208.775 38.0549 208.61 37.5975 208.61 37.0483C208.61 36.4696 208.782 36.0053 209.126 35.6555C209.471 35.3057 210.028 35.116 210.798 35.0864V34.5908H211.789V35.0864C212.584 35.116 213.148 35.312 213.479 35.6743C213.811 36.0366 213.977 36.4958 213.977 37.0518C213.977 37.6032 213.811 38.0606 213.481 38.4241C213.151 38.7875 212.587 38.984 211.789 39.0137ZM211.789 38.1694C212.053 38.1694 212.281 38.125 212.471 38.0361C212.661 37.9473 212.796 37.8276 212.876 37.6772C212.956 37.5269 212.996 37.307 212.996 37.0176C212.996 36.293 212.593 35.9307 211.789 35.9307V38.1694ZM210.798 38.1694V35.9307C210.372 35.9307 210.064 36.0258 209.875 36.2161C209.686 36.4063 209.591 36.694 209.591 37.0791C209.591 37.806 209.993 38.1694 210.798 38.1694ZM214.804 34.5874H215.75V37.9233L217.781 34.5874H218.789V39.5981H217.842V36.3271L215.815 39.5981H214.804V34.5874ZM219.825 39.5981V34.5874H220.836V36.5596H222.819V34.5874H223.831V39.5981H222.819V37.4072H220.836V39.5981H219.825ZM229.395 39.5981H228.294L227.857 38.46H225.854L225.44 39.5981H224.367L226.319 34.5874H227.389L229.395 39.5981ZM227.532 37.6157L226.842 35.7563L226.165 37.6157H227.532ZM229.935 39.5981V34.5874H230.947V36.5596H232.929V34.5874H233.941V39.5981H232.929V37.4072H230.947V39.5981H229.935ZM238.193 37.7559L239.174 38.0669C239.023 38.6138 238.773 39.0199 238.424 39.2854C238.074 39.5509 237.63 39.6836 237.092 39.6836C236.427 39.6836 235.88 39.4563 235.452 39.0017C235.023 38.5471 234.809 37.9256 234.809 37.1372C234.809 36.3032 235.024 35.6555 235.455 35.1941C235.886 34.7327 236.452 34.502 237.154 34.502C237.767 34.502 238.265 34.6831 238.647 35.0454C238.875 35.2596 239.046 35.5672 239.16 35.9683L238.159 36.2075C238.099 35.9478 237.976 35.7427 237.788 35.5923C237.6 35.4419 237.371 35.3667 237.103 35.3667C236.731 35.3667 236.43 35.5 236.198 35.7666C235.967 36.0332 235.852 36.465 235.852 37.062C235.852 37.6955 235.965 38.1466 236.193 38.4155C236.421 38.6844 236.717 38.8188 237.082 38.8188C237.351 38.8188 237.582 38.7334 237.776 38.5625C237.97 38.3916 238.109 38.1227 238.193 37.7559ZM239.837 37.1235C239.837 36.6131 239.913 36.1847 240.066 35.8384C240.18 35.5832 240.335 35.3542 240.532 35.1514C240.73 34.9486 240.945 34.7982 241.18 34.7002C241.492 34.568 241.852 34.502 242.26 34.502C242.999 34.502 243.589 34.731 244.032 35.189C244.476 35.647 244.697 36.2839 244.697 37.0996C244.697 37.9085 244.477 38.5414 244.038 38.9983C243.598 39.4552 243.01 39.6836 242.274 39.6836C241.529 39.6836 240.936 39.4563 240.497 39.0017C240.057 38.5471 239.837 37.9211 239.837 37.1235ZM240.879 37.0894C240.879 37.6567 241.01 38.0868 241.272 38.3796C241.535 38.6724 241.867 38.8188 242.271 38.8188C242.674 38.8188 243.005 38.6736 243.263 38.3831C243.522 38.0925 243.651 37.6567 243.651 37.0757C243.651 36.5015 243.525 36.0731 243.274 35.7905C243.022 35.508 242.688 35.3667 242.271 35.3667C241.854 35.3667 241.517 35.5097 241.262 35.7957C241.007 36.0816 240.879 36.5129 240.879 37.0894ZM245.49 34.5874H247.493C247.89 34.5874 248.185 34.6039 248.38 34.637C248.575 34.67 248.749 34.7389 248.903 34.8438C249.057 34.9486 249.185 35.0881 249.288 35.2625C249.39 35.4368 249.441 35.6322 249.441 35.8486C249.441 36.0833 249.378 36.2987 249.252 36.4946C249.125 36.6906 248.954 36.8376 248.737 36.9355C249.043 37.0244 249.277 37.1759 249.441 37.3901C249.605 37.6043 249.688 37.8561 249.688 38.1455C249.688 38.3734 249.635 38.595 249.529 38.8103C249.423 39.0256 249.278 39.1977 249.094 39.3264C248.911 39.4552 248.685 39.5343 248.416 39.564C248.247 39.5822 247.841 39.5936 247.196 39.5981H245.49V34.5874ZM246.502 35.4214V36.5801H247.165C247.559 36.5801 247.804 36.5744 247.9 36.563C248.073 36.5425 248.209 36.4827 248.308 36.3835C248.407 36.2844 248.457 36.154 248.457 35.9922C248.457 35.8372 248.414 35.7113 248.329 35.6145C248.243 35.5177 248.116 35.459 247.948 35.4385C247.847 35.4271 247.559 35.4214 247.083 35.4214H246.502ZM246.502 37.4141V38.7539H247.438C247.803 38.7539 248.034 38.7437 248.132 38.7231C248.283 38.6958 248.405 38.6292 248.5 38.5232C248.594 38.4172 248.642 38.2754 248.642 38.0977C248.642 37.9473 248.605 37.8197 248.532 37.7148C248.459 37.61 248.354 37.5337 248.216 37.4858C248.078 37.438 247.779 37.4141 247.319 37.4141H246.502ZM250.569 34.5874H251.581V36.5903H252.935C253.29 36.5903 253.596 36.6388 253.852 36.7356C254.109 36.8324 254.322 37.0056 254.493 37.2551C254.664 37.5046 254.75 37.7912 254.75 38.1147C254.75 38.4543 254.661 38.7465 254.483 38.9915C254.305 39.2364 254.108 39.3988 253.89 39.4785C253.672 39.5583 253.354 39.5981 252.935 39.5981H250.569V34.5874ZM251.581 38.7573H252.569C252.883 38.7573 253.103 38.7419 253.227 38.7112C253.351 38.6804 253.462 38.6104 253.558 38.501C253.655 38.3916 253.704 38.2583 253.704 38.1011C253.704 37.8778 253.624 37.7103 253.466 37.5986C253.308 37.487 253.022 37.4312 252.61 37.4312H251.581V38.7573ZM255.334 34.5874H256.346V39.5981H255.334V34.5874ZM257.409 34.5874H258.355V37.9233L260.386 34.5874H261.394V39.5981H260.447V36.3271L258.42 39.5981H257.409V34.5874ZM260.006 33.3398H260.475C260.447 33.6497 260.338 33.893 260.148 34.0696C259.958 34.2462 259.711 34.3345 259.408 34.3345C259.105 34.3345 258.858 34.2462 258.668 34.0696C258.478 33.893 258.369 33.6497 258.342 33.3398H258.81C258.826 33.5016 258.883 33.6241 258.981 33.7073C259.079 33.7904 259.221 33.832 259.408 33.832C259.595 33.832 259.737 33.7904 259.835 33.7073C259.933 33.6241 259.99 33.5016 260.006 33.3398ZM264.73 34.5874H268.24V39.5981H267.229V35.4351H265.721V37.5747C265.721 38.1877 265.701 38.6155 265.66 38.8582C265.619 39.1008 265.519 39.29 265.361 39.4255C265.202 39.5611 264.954 39.6289 264.617 39.6289C264.499 39.6289 264.283 39.6175 263.971 39.5947V38.812L264.197 38.8154C264.409 38.8154 264.551 38.7869 264.624 38.73C264.697 38.673 264.733 38.5329 264.733 38.3096L264.73 37.4482V34.5874ZM269.296 34.5874H270.243V37.9233L272.273 34.5874H273.282V39.5981H272.335V36.3271L270.308 39.5981H269.296V34.5874ZM274.717 34.5874H278.18V38.7573H278.621V40.6919H277.78V39.5981H274.625V40.6919H273.784V38.7573H274.208C274.415 38.3289 274.552 37.8316 274.618 37.2654C274.684 36.6991 274.717 35.9831 274.717 35.1172V34.5874ZM275.681 35.4282C275.681 36.9504 275.543 38.0601 275.268 38.7573H277.171V35.4282H275.681ZM279.096 37.1235C279.096 36.6131 279.172 36.1847 279.325 35.8384C279.439 35.5832 279.594 35.3542 279.791 35.1514C279.988 34.9486 280.204 34.7982 280.439 34.7002C280.751 34.568 281.111 34.502 281.519 34.502C282.257 34.502 282.848 34.731 283.291 35.189C283.734 35.647 283.956 36.2839 283.956 37.0996C283.956 37.9085 283.736 38.5414 283.296 38.9983C282.857 39.4552 282.269 39.6836 281.533 39.6836C280.788 39.6836 280.195 39.4563 279.755 39.0017C279.316 38.5471 279.096 37.9211 279.096 37.1235ZM280.138 37.0894C280.138 37.6567 280.269 38.0868 280.531 38.3796C280.793 38.6724 281.126 38.8188 281.529 38.8188C281.933 38.8188 282.264 38.6736 282.522 38.3831C282.781 38.0925 282.91 37.6567 282.91 37.0757C282.91 36.5015 282.784 36.0731 282.532 35.7905C282.281 35.508 281.946 35.3667 281.529 35.3667C281.112 35.3667 280.776 35.5097 280.521 35.7957C280.266 36.0816 280.138 36.5129 280.138 37.0894ZM284.797 34.5874H288.191V35.4282H285.809V39.5981H284.797V34.5874ZM288.714 39.5981V34.5874H292.429V35.4351H289.726V36.5459H292.241V37.3901H289.726V38.7539H292.525V39.5981H288.714ZM293.386 39.5981V34.5874H294.398V36.5596H296.38V34.5874H297.392V39.5981H296.38V37.4072H294.398V39.5981H293.386ZM298.438 39.5981V34.5874H302.153V35.4351H299.45V36.5459H301.965V37.3901H299.45V38.7539H302.249V39.5981H298.438ZM303.107 39.5981V34.5874H304.73C305.346 34.5874 305.747 34.6125 305.934 34.6626C306.221 34.7378 306.461 34.9013 306.655 35.1531C306.848 35.4049 306.945 35.7301 306.945 36.1289C306.945 36.4365 306.889 36.6951 306.778 36.9048C306.666 37.1144 306.524 37.2791 306.352 37.3987C306.18 37.5183 306.005 37.5975 305.828 37.6362C305.586 37.6841 305.236 37.708 304.778 37.708H304.119V39.5981H303.107ZM304.119 35.4351V36.8569H304.672C305.071 36.8569 305.338 36.8307 305.472 36.7783C305.607 36.7259 305.712 36.6439 305.788 36.5322C305.865 36.4206 305.903 36.2907 305.903 36.1426C305.903 35.9603 305.849 35.8099 305.742 35.6914C305.635 35.5729 305.5 35.4989 305.335 35.4692C305.215 35.4465 304.972 35.4351 304.607 35.4351H304.119ZM312.294 39.5981H311.194L310.756 38.46H308.753L308.34 39.5981H307.267L309.218 34.5874H310.288L312.294 39.5981ZM310.432 37.6157L309.741 35.7563L309.064 37.6157H310.432ZM313.959 39.5981V35.4351H312.472V34.5874H316.454V35.4351H314.971V39.5981H313.959ZM316.902 37.1235C316.902 36.6131 316.978 36.1847 317.131 35.8384C317.245 35.5832 317.4 35.3542 317.597 35.1514C317.795 34.9486 318.01 34.7982 318.245 34.7002C318.557 34.568 318.917 34.502 319.325 34.502C320.063 34.502 320.654 34.731 321.097 35.189C321.541 35.647 321.762 36.2839 321.762 37.0996C321.762 37.9085 321.542 38.5414 321.103 38.9983C320.663 39.4552 320.075 39.6836 319.339 39.6836C318.594 39.6836 318.001 39.4563 317.562 39.0017C317.122 38.5471 316.902 37.9211 316.902 37.1235ZM317.944 37.0894C317.944 37.6567 318.075 38.0868 318.337 38.3796C318.599 38.6724 318.932 38.8188 319.335 38.8188C319.739 38.8188 320.07 38.6736 320.328 38.3831C320.587 38.0925 320.716 37.6567 320.716 37.0757C320.716 36.5015 320.59 36.0731 320.339 35.7905C320.087 35.508 319.752 35.3667 319.335 35.3667C318.918 35.3667 318.582 35.5097 318.327 35.7957C318.072 36.0816 317.944 36.5129 317.944 37.0894ZM322.552 39.5981V34.5874H324.175C324.791 34.5874 325.192 34.6125 325.378 34.6626C325.666 34.7378 325.906 34.9013 326.1 35.1531C326.293 35.4049 326.39 35.7301 326.39 36.1289C326.39 36.4365 326.334 36.6951 326.223 36.9048C326.111 37.1144 325.969 37.2791 325.797 37.3987C325.625 37.5183 325.45 37.5975 325.272 37.6362C325.031 37.6841 324.681 37.708 324.223 37.708H323.563V39.5981H322.552ZM323.563 35.4351V36.8569H324.117C324.516 36.8569 324.783 36.8307 324.917 36.7783C325.051 36.7259 325.157 36.6439 325.233 36.5322C325.309 36.4206 325.348 36.2907 325.348 36.1426C325.348 35.9603 325.294 35.8099 325.187 35.6914C325.08 35.5729 324.944 35.4989 324.78 35.4692C324.66 35.4465 324.417 35.4351 324.052 35.4351H323.563Z" fill="#55607A"/>
<path fill-rule="evenodd" clip-rule="evenodd" d="M212.984 27.5981V15.7036H208.736V13.2817H220.113V15.7036H215.875V27.5981H212.984ZM221.979 27.5981V13.2817H232.594V15.7036H224.869V18.8774H232.057V21.2896H224.869V25.186H232.867V27.5981H221.979ZM236.344 13.2817H246.373V27.5981H243.482V15.7036H239.176V21.8169C239.176 23.5682 239.117 24.7905 239 25.4839C238.883 26.1772 238.598 26.7176 238.146 27.105C237.693 27.4924 236.985 27.686 236.021 27.686C235.683 27.686 235.068 27.6535 234.176 27.5884V25.3521L234.82 25.3618C235.426 25.3618 235.833 25.2804 236.041 25.1177C236.249 24.9549 236.354 24.5545 236.354 23.9165L236.344 21.4556V13.2817ZM249.352 27.5981V13.2817H259.967V15.7036H252.242V18.8774H259.43V21.2896H252.242V25.186H260.24V27.5981H249.352ZM262.73 13.2817H274.117V27.5981H271.227V15.6841H265.621V27.5981H262.73V13.2817Z" fill="#55607A"/>
<path fill-rule="evenodd" clip-rule="evenodd" d="M288.984 20.7314L302.972 14.1938L288.307 7.30811L288.984 20.7314Z" fill="#55607A"/>
<path d="M288.307 26.5981C291.62 26.5981 294.307 23.9119 294.307 20.5981C294.307 17.2844 291.62 14.5981 288.307 14.5981C284.993 14.5981 282.307 17.2844 282.307 20.5981C282.307 23.9119 284.993 26.5981 288.307 26.5981Z" stroke="#55607A" stroke-width="2"/>
<path fill-rule="evenodd" clip-rule="evenodd" d="M288.196 29.0019L291.556 19.2387L279.894 21.5826C280.768 23.2066 281.47 24.7569 281.999 26.2337C282.528 27.7104 284.594 28.6332 288.196 29.0019Z" fill="#55607A"/>
<path d="M288.307 22.5981C289.411 22.5981 290.307 21.7027 290.307 20.5981C290.307 19.4936 289.411 18.5981 288.307 18.5981C287.202 18.5981 286.307 19.4936 286.307 20.5981C286.307 21.7027 287.202 22.5981 288.307 22.5981Z" stroke="#55607A" stroke-width="2"/>
<path fill-rule="evenodd" clip-rule="evenodd" d="M301.762 27.5981V13.2817H306.4C308.158 13.2817 309.304 13.3534 309.838 13.4966C310.658 13.7114 311.345 14.1785 311.898 14.8979C312.452 15.6174 312.729 16.5467 312.729 17.686C312.729 18.5649 312.569 19.3039 312.25 19.9028C311.931 20.5018 311.526 20.9722 311.034 21.314C310.543 21.6558 310.043 21.882 309.535 21.9927C308.845 22.1294 307.846 22.1978 306.537 22.1978H304.652V27.5981H301.762ZM304.652 15.7036V19.7661H306.234C307.374 19.7661 308.135 19.6912 308.52 19.5415C308.904 19.3918 309.205 19.1574 309.423 18.8384C309.641 18.5194 309.75 18.1483 309.75 17.7251C309.75 17.2043 309.597 16.7746 309.291 16.436C308.985 16.0975 308.598 15.8859 308.129 15.8013C307.784 15.7362 307.09 15.7036 306.049 15.7036H304.652ZM318.324 27.5981V15.7036H314.076V13.2817H325.453V15.7036H321.215V27.5981H318.324Z" fill="#55607A"/>
<path fill-rule="evenodd" clip-rule="evenodd" d="M457.302 14.5V9.48926H458.313V11.4614H460.296V9.48926H461.308V14.5H460.296V12.3091H458.313V14.5H457.302ZM466.872 14.5H465.771L465.334 13.3618H463.331L462.917 14.5H461.844L463.796 9.48926H464.866L466.872 14.5ZM465.009 12.5176L464.319 10.6582L463.642 12.5176H465.009ZM467.426 9.48926H468.438V13.6592H470.399V9.48926H471.411V13.6592H471.828V15.5938H470.987V14.5H467.426V9.48926ZM472.536 9.48926H473.482V12.8252L475.513 9.48926H476.521V14.5H475.574V11.229L473.547 14.5H472.536V9.48926ZM477.348 12.0254C477.348 11.515 477.424 11.0866 477.577 10.7402C477.691 10.485 477.847 10.256 478.044 10.0532C478.241 9.85042 478.457 9.70003 478.691 9.60205C479.004 9.46989 479.364 9.40381 479.771 9.40381C480.51 9.40381 481.101 9.63281 481.544 10.0908C481.987 10.5488 482.208 11.1857 482.208 12.0015C482.208 12.8104 481.989 13.4433 481.549 13.9001C481.109 14.357 480.521 14.5854 479.785 14.5854C479.04 14.5854 478.448 14.3582 478.008 13.9036C477.568 13.449 477.348 12.8229 477.348 12.0254ZM478.391 11.9912C478.391 12.5586 478.522 12.9887 478.784 13.2815C479.046 13.5743 479.378 13.7207 479.782 13.7207C480.185 13.7207 480.516 13.5754 480.775 13.2849C481.033 12.9944 481.163 12.5586 481.163 11.9775C481.163 11.4033 481.037 10.9749 480.785 10.6924C480.533 10.4098 480.199 10.2686 479.782 10.2686C479.365 10.2686 479.029 10.4115 478.773 10.6975C478.518 10.9835 478.391 11.4147 478.391 11.9912ZM483.001 14.5V9.48926H484.013V11.4614H485.996V9.48926H487.007V14.5H485.996V12.3091H484.013V14.5H483.001ZM492.572 14.5H491.471L491.034 13.3618H489.031L488.617 14.5H487.544L489.496 9.48926H490.565L492.572 14.5ZM490.709 12.5176L490.019 10.6582L489.342 12.5176H490.709ZM493.467 9.48926H496.978V14.5H495.966V10.3369H494.458V12.4766C494.458 13.0895 494.438 13.5173 494.397 13.76C494.356 14.0027 494.256 14.1918 494.098 14.3274C493.94 14.463 493.692 14.5308 493.354 14.5308C493.236 14.5308 493.021 14.5194 492.708 14.4966V13.7139L492.934 13.7173C493.146 13.7173 493.288 13.6888 493.361 13.6318C493.434 13.5749 493.471 13.4347 493.471 13.2114L493.467 12.3501V9.48926ZM498.041 9.48926H499.052V11.4922H500.406C501.044 11.4922 501.506 11.6414 501.792 11.9399C502.078 12.2384 502.221 12.5962 502.221 13.0132C502.221 13.355 502.134 13.6455 501.961 13.8848C501.788 14.124 501.59 14.2864 501.368 14.3718C501.146 14.4573 500.825 14.5 500.406 14.5H498.041V9.48926ZM499.052 13.6592H500.037C500.356 13.6592 500.577 13.6438 500.7 13.613C500.823 13.5823 500.933 13.5122 501.03 13.4028C501.126 13.2935 501.175 13.159 501.175 12.9995C501.175 12.7694 501.092 12.6007 500.927 12.4937C500.762 12.3866 500.48 12.333 500.081 12.333H499.052V13.6592ZM503.055 14.5V9.48926H504.066V11.4614H506.049V9.48926H507.061V14.5H506.049V12.3091H504.066V14.5H503.055ZM507.901 12.0254C507.901 11.515 507.978 11.0866 508.13 10.7402C508.244 10.485 508.4 10.256 508.597 10.0532C508.794 9.85042 509.01 9.70003 509.245 9.60205C509.557 9.46989 509.917 9.40381 510.325 9.40381C511.063 9.40381 511.654 9.63281 512.097 10.0908C512.54 10.5488 512.762 11.1857 512.762 12.0015C512.762 12.8104 512.542 13.4433 512.102 13.9001C511.662 14.357 511.074 14.5854 510.338 14.5854C509.593 14.5854 509.001 14.3582 508.561 13.9036C508.121 13.449 507.901 12.8229 507.901 12.0254ZM508.944 11.9912C508.944 12.5586 509.075 12.9887 509.337 13.2815C509.599 13.5743 509.932 13.7207 510.335 13.7207C510.738 13.7207 511.069 13.5754 511.328 13.2849C511.587 12.9944 511.716 12.5586 511.716 11.9775C511.716 11.4033 511.59 10.9749 511.338 10.6924C511.086 10.4098 510.752 10.2686 510.335 10.2686C509.918 10.2686 509.582 10.4115 509.327 10.6975C509.071 10.9835 508.944 11.4147 508.944 11.9912ZM513.551 14.5V9.48926H517.267V10.3369H514.563V11.4478H517.079V12.292H514.563V13.6558H517.362V14.5H513.551Z" fill="#55607A"/>
<path fill-rule="evenodd" clip-rule="evenodd" d="M457.049 17.8998H467.325V21.1478H460.577V25.4038C460.857 25.3478 461.193 25.2918 461.585 25.2358C461.977 25.1798 462.359 25.1518 462.733 25.1518C463.629 25.1518 464.431 25.2591 465.141 25.4738C465.85 25.6885 466.457 26.0338 466.961 26.5098C467.465 26.9858 467.852 27.6065 468.123 28.3718C468.393 29.1371 468.529 30.0705 468.529 31.1718C468.529 33.3745 467.978 35.0265 466.877 36.1278C465.775 37.2292 464.142 37.7798 461.977 37.7798C461.715 37.7798 461.379 37.7705 460.969 37.7518C460.558 37.7331 460.119 37.7098 459.653 37.6818C459.186 37.6538 458.724 37.6118 458.267 37.5558C457.809 37.4998 457.403 37.4251 457.049 37.3318V17.8998ZM462.229 34.6438C463.013 34.6438 463.643 34.4011 464.119 33.9158C464.595 33.4305 464.833 32.6092 464.833 31.4518C464.833 30.7611 464.758 30.2105 464.609 29.7998C464.459 29.3891 464.259 29.0718 464.007 28.8478C463.755 28.6238 463.456 28.4745 463.111 28.3998C462.765 28.3251 462.387 28.2878 461.977 28.2878C461.771 28.2878 461.515 28.3111 461.207 28.3578C460.899 28.4045 460.689 28.4465 460.577 28.4838V34.5038C460.745 34.5411 460.987 34.5738 461.305 34.6018C461.622 34.6298 461.93 34.6438 462.229 34.6438ZM473.905 25.9638H475.893C476.042 23.2945 476.644 21.2178 477.699 19.7338C478.753 18.2498 480.335 17.5078 482.445 17.5078C483.658 17.5078 484.689 17.7505 485.539 18.2358C486.388 18.7211 487.079 19.4118 487.611 20.3078C488.143 21.2038 488.525 22.2771 488.759 23.5278C488.992 24.7785 489.109 26.1691 489.109 27.6998C489.109 30.9665 488.567 33.4818 487.485 35.2458C486.402 37.0098 484.713 37.8918 482.417 37.8918C481.353 37.8918 480.429 37.6911 479.645 37.2898C478.861 36.8885 478.203 36.3098 477.671 35.5538C477.139 34.7978 476.728 33.8832 476.439 32.8098C476.149 31.7365 475.967 30.5372 475.893 29.2118H473.905V37.4998H470.377V17.8998H473.905V25.9638ZM479.421 27.6998C479.421 28.7078 479.467 29.6365 479.561 30.4858C479.654 31.3351 479.817 32.0678 480.051 32.6838C480.284 33.2998 480.592 33.7805 480.975 34.1258C481.357 34.4711 481.838 34.6438 482.417 34.6438C483.5 34.6438 484.269 34.0978 484.727 33.0058C485.184 31.9138 485.413 30.1452 485.413 27.6998C485.413 26.7291 485.371 25.8191 485.287 24.9698C485.203 24.1205 485.049 23.3831 484.825 22.7578C484.601 22.1325 484.297 21.6425 483.915 21.2878C483.532 20.9331 483.033 20.7558 482.417 20.7558C481.353 20.7558 480.587 21.3205 480.121 22.4498C479.654 23.5792 479.421 25.3291 479.421 27.6998ZM491.181 18.0958C491.853 17.9465 492.59 17.8298 493.393 17.7458C494.195 17.6618 494.998 17.6198 495.801 17.6198C496.66 17.6198 497.504 17.6991 498.335 17.8578C499.166 18.0165 499.907 18.3291 500.561 18.7958C501.214 19.2625 501.746 19.9205 502.157 20.7698C502.567 21.6192 502.773 22.7251 502.773 24.0878C502.773 25.3198 502.6 26.3651 502.255 27.2238C501.909 28.0825 501.448 28.7825 500.869 29.3238C500.29 29.8651 499.623 30.2571 498.867 30.4998C498.111 30.7425 497.332 30.8638 496.529 30.8638H496.165C495.997 30.8638 495.819 30.8591 495.633 30.8498C495.446 30.8405 495.264 30.8265 495.087 30.8078C494.909 30.7891 494.783 30.7705 494.709 30.7518V37.4998H491.181V18.0958ZM494.709 27.5878C494.821 27.6251 495.031 27.6578 495.339 27.6858C495.647 27.7138 495.857 27.7278 495.969 27.7278C496.379 27.7278 496.771 27.6718 497.145 27.5598C497.518 27.4478 497.849 27.2565 498.139 26.9858C498.428 26.7151 498.657 26.3418 498.825 25.8658C498.993 25.3898 499.077 24.7878 499.077 24.0598C499.077 23.4438 498.997 22.9211 498.839 22.4918C498.68 22.0625 498.465 21.7218 498.195 21.4698C497.924 21.2178 497.611 21.0358 497.257 20.9238C496.902 20.8118 496.529 20.7558 496.137 20.7558C495.558 20.7558 495.082 20.8025 494.709 20.8958V27.5878ZM504.089 27.6998C504.089 24.3771 504.658 21.8478 505.797 20.1118C506.936 18.3758 508.671 17.5078 511.005 17.5078C512.218 17.5078 513.263 17.7458 514.141 18.2218C515.018 18.6978 515.737 19.3791 516.297 20.2658C516.857 21.1525 517.272 22.2258 517.543 23.4858C517.813 24.7458 517.949 26.1505 517.949 27.6998C517.949 31.0225 517.366 33.5518 516.199 35.2878C515.032 37.0238 513.301 37.8918 511.005 37.8918C509.773 37.8918 508.723 37.6538 507.855 37.1778C506.987 36.7018 506.273 36.0205 505.713 35.1338C505.153 34.2471 504.742 33.1738 504.481 31.9138C504.219 30.6538 504.089 29.2492 504.089 27.6998ZM507.785 27.6998C507.785 28.6892 507.841 29.6085 507.953 30.4578C508.065 31.3071 508.251 32.0398 508.513 32.6558C508.774 33.2718 509.105 33.7571 509.507 34.1118C509.908 34.4665 510.407 34.6438 511.005 34.6438C512.088 34.6438 512.899 34.0932 513.441 32.9918C513.982 31.8905 514.253 30.1265 514.253 27.6998C514.253 26.7478 514.197 25.8471 514.085 24.9978C513.973 24.1485 513.791 23.4111 513.539 22.7858C513.287 22.1605 512.955 21.6658 512.545 21.3018C512.134 20.9378 511.621 20.7558 511.005 20.7558C508.858 20.7558 507.785 23.0705 507.785 27.6998Z" fill="#55607A"/>
<path d="M428.483 10.5294L420.63 9.00293L415.096 37.4701L422.949 38.9966L428.483 10.5294Z" fill="#55607A"/>
<path d="M420.021 35.9199C421.401 35.9199 422.521 34.8006 422.521 33.4199C422.521 32.0392 421.401 30.9199 420.021 30.9199C418.64 30.9199 417.521 32.0392 417.521 33.4199C417.521 34.8006 418.64 35.9199 420.021 35.9199Z" fill="#55607A"/>
<path d="M440.483 10.5294L432.63 9.00293L427.096 37.4701L434.949 38.9966L440.483 10.5294Z" fill="#55607A"/>
<path d="M432.021 35.9199C433.401 35.9199 434.521 34.8006 434.521 33.4199C434.521 32.0392 433.401 30.9199 432.021 30.9199C430.64 30.9199 429.521 32.0392 429.521 33.4199C429.521 34.8006 430.64 35.9199 432.021 35.9199Z" fill="#55607A"/>
<path d="M452.483 10.5294L444.63 9.00293L439.096 37.4701L446.949 38.9966L452.483 10.5294Z" fill="#55607A"/>
<path d="M444.021 35.9199C445.401 35.9199 446.521 34.8006 446.521 33.4199C446.521 32.0392 445.401 30.9199 444.021 30.9199C442.64 30.9199 441.521 32.0392 441.521 33.4199C441.521 34.8006 442.64 35.9199 444.021 35.9199Z" fill="#55607A"/>
<path fill-rule="evenodd" clip-rule="evenodd" d="M642.74 28.2199C644.5 28.2199 645.54 27.4999 646.28 26.5399L645.28 25.6199C644.64 26.4799 643.82 26.8799 642.82 26.8799C640.76 26.8799 639.48 25.2799 639.48 23.1399C639.48 20.9999 640.76 19.4199 642.82 19.4199C643.82 19.4199 644.64 19.7999 645.28 20.6799L646.28 19.7599C645.54 18.7999 644.5 18.0799 642.74 18.0799C639.86 18.0799 637.92 20.2799 637.92 23.1399C637.92 26.0199 639.86 28.2199 642.74 28.2199ZM650.12 16.9399C650.68 16.9399 651.14 16.4999 651.14 15.9399C651.14 15.3799 650.68 14.9199 650.12 14.9199C649.58 14.9199 649.12 15.3799 649.12 15.9399C649.12 16.4999 649.58 16.9399 650.12 16.9399ZM650.88 27.9799V18.3199H649.38V27.9799H650.88ZM657.32 28.2199C658.2 28.2199 658.74 27.9599 659.12 27.5999L658.68 26.4799C658.48 26.6999 658.08 26.8799 657.66 26.8799C657 26.8799 656.68 26.3599 656.68 25.6399V19.6399H658.64V18.3199H656.68V15.6799H655.18V18.3199H653.58V19.6399H655.18V25.9599C655.18 27.3999 655.9 28.2199 657.32 28.2199ZM661.22 31.7599C661.5 31.8399 662 31.8999 662.32 31.8999C663.6 31.8799 664.58 31.3399 665.16 29.9399L670 18.3199H668.36L665.16 26.2399L661.94 18.3199H660.32L664.36 28.0799L663.72 29.5399C663.38 30.3399 662.94 30.5599 662.28 30.5599C662.04 30.5599 661.68 30.4999 661.46 30.3999L661.22 31.7599Z" fill="#55607A"/>
<path fill-rule="evenodd" clip-rule="evenodd" d="M680.34 27.9801H678.24V26.9401C677.52 27.7601 676.4 28.2201 675.12 28.2201C673.54 28.2201 671.76 27.1601 671.76 25.0201C671.76 22.8001 673.54 21.8801 675.12 21.8801C676.42 21.8801 677.54 22.3001 678.24 23.1201V21.6801C678.24 20.5601 677.32 19.8801 675.98 19.8801C674.9 19.8801 673.96 20.2801 673.12 21.1001L672.26 19.6401C673.38 18.5801 674.78 18.0801 676.32 18.0801C678.46 18.0801 680.34 18.9801 680.34 21.5801V27.9801ZM675.94 26.7801C676.86 26.7801 677.76 26.4401 678.24 25.7801V24.3201C677.76 23.6601 676.86 23.3201 675.94 23.3201C674.76 23.3201 673.88 24.0001 673.88 25.0601C673.88 26.1001 674.76 26.7801 675.94 26.7801ZM692.96 27.9801H690.86V26.6601C690.12 27.6201 689 28.2201 687.76 28.2201C685.28 28.2201 683.46 26.3401 683.46 23.1601C683.46 20.0401 685.26 18.0801 687.76 18.0801C688.96 18.0801 690.08 18.6401 690.86 19.6601V14.6401H692.96V27.9801ZM688.36 26.3601C689.36 26.3601 690.38 25.8001 690.86 25.0801V21.2401C690.38 20.5201 689.36 19.9401 688.36 19.9401C686.7 19.9401 685.64 21.2801 685.64 23.1601C685.64 25.0201 686.7 26.3601 688.36 26.3601ZM699.98 28.2201C702.58 28.2201 704 26.9201 704 25.2201C704 21.3801 698.16 22.6601 698.16 20.9401C698.16 20.2601 698.86 19.7601 699.96 19.7601C701.16 19.7601 702.24 20.2601 702.82 20.9201L703.7 19.4401C702.82 18.6601 701.58 18.0801 699.94 18.0801C697.5 18.0801 696.14 19.4401 696.14 21.0201C696.14 24.7201 701.98 23.3601 701.98 25.2601C701.98 26.0201 701.34 26.5601 700.08 26.5601C698.82 26.5601 697.48 25.9001 696.8 25.2001L695.84 26.7201C696.84 27.7001 698.34 28.2201 699.98 28.2201Z" fill="#55607A"/>
<path d="M617.656 34.02C623.731 34.02 628.656 29.0952 628.656 23.02C628.656 16.9449 623.731 12.02 617.656 12.02C611.581 12.02 606.656 16.9449 606.656 23.02C606.656 29.0952 611.581 34.02 617.656 34.02Z" stroke="#55607A" stroke-width="2"/>
<path d="M615.979 32.98H614.979V35.98H615.979V32.98Z" stroke="#55607A" stroke-width="2"/>
<path d="M620.979 32.98H619.979V35.98H620.979V32.98Z" stroke="#55607A" stroke-width="2"/>
<path fill-rule="evenodd" clip-rule="evenodd" d="M611.979 23.98L613.979 22.98V32.98H611.979V23.98Z" fill="#55607A"/>
<path fill-rule="evenodd" clip-rule="evenodd" d="M616.979 21.98L618.979 20.98V33.98H616.979V21.98Z" fill="#55607A"/>
<path fill-rule="evenodd" clip-rule="evenodd" d="M621.979 19.98L623.979 18.98V32.98H621.979V19.98Z" fill="#55607A"/>
</svg>
