<svg width="191" height="44" viewBox="0 0 191 44" fill="none" xmlns="http://www.w3.org/2000/svg">
<g clip-path="url(#clip0_0_116)">
<mask id="mask0_0_116" style="mask-type:luminance" maskUnits="userSpaceOnUse" x="-1" y="0" width="193" height="45">
<path d="M191.052 0H-0.0263672V44.0474H191.052V0Z" fill="white"/>
</mask>
<g mask="url(#mask0_0_116)">
<path d="M0 13.8799H10.4522C15.1571 22.0536 21.9355 28.8356 30.1001 33.5384V43.9998C23.1197 41.6165 16.7773 37.6625 11.5595 32.4412C6.34174 27.22 2.3874 20.8704 0 13.8799Z" fill="#9FA7BC"/>
<path d="M30.1 13.8799V33.5384C21.9354 28.8356 15.1571 22.0536 10.4521 13.8799H30.1Z" fill="#55607A"/>
<path d="M30.0999 13.88H10.452C7.97664 9.56094 6.12337 4.91282 4.94727 0.0737305H16.3038C19.96 0.0737281 23.4667 1.52781 26.0535 4.11654C28.6403 6.70527 30.0957 10.2169 30.0999 13.88Z" fill="#9FA7BC"/>
<path d="M43.8909 27.6809V39.0431C39.0581 37.8684 34.4152 36.0152 30.1001 33.5385V13.8799C33.7549 13.8799 37.2603 15.3334 39.8461 17.9212C42.4319 20.5089 43.8867 24.0192 43.8909 27.6809Z" fill="#9FA7BC"/>
<path d="M30 0.0737305C30.7466 3.47938 32.4519 6.59929 34.9137 9.06392C37.3756 11.5286 40.4909 13.2346 43.8907 13.9801V0.0737305H30Z" fill="#9FA7BC"/>
<path d="M84.217 29.6669H82.4609C81.1045 29.6669 80.5735 29.9935 80.5735 31.0734C80.5589 31.2704 80.5865 31.4683 80.6545 31.6537C80.7225 31.8391 80.8293 32.0078 80.9677 32.1485C81.1061 32.2892 81.273 32.3986 81.4571 32.4694C81.6412 32.5401 81.8383 32.5706 82.0351 32.5588C82.4591 32.5428 82.8756 32.4413 83.2595 32.2603C83.6434 32.0792 83.987 31.8225 84.2696 31.5053L84.217 29.6669ZM85.2685 34.1444L84.7165 33.0909C83.7619 33.905 82.5526 34.3579 81.299 34.3709C79.5692 34.3709 78.034 33.2436 78.034 31.2103C78.034 28.5766 79.7165 27.9919 82.2401 27.9919H84.2485V27.3914C84.2485 26.1324 83.8963 25.4792 82.3926 25.4792C81.4068 25.5532 80.4348 25.7551 79.5009 26.0797L78.8384 24.4362C80.1038 23.9287 81.4461 23.6402 82.808 23.5829C85.6997 23.5829 86.7249 24.8893 86.7249 27.1016V34.1444H85.2685ZM93.155 9.47636H91.42C90.0635 9.47636 89.5115 9.80294 89.5115 10.8881C89.4987 11.0796 89.5264 11.2717 89.5928 11.4517C89.6592 11.6318 89.7628 11.7958 89.8968 11.933C90.0307 12.0702 90.1921 12.1776 90.3703 12.248C90.5486 12.3185 90.7396 12.3505 90.931 12.3419C91.3531 12.3293 91.7684 12.2318 92.1523 12.0554C92.5361 11.8789 92.8807 11.6271 93.1655 11.3147L93.155 9.47636ZM94.2065 13.9275L93.6808 12.8739C92.7094 13.7274 91.4658 14.2056 90.1739 14.2224C88.4389 14.2224 86.9089 13.0899 86.9089 11.0619C86.9089 8.42811 88.6177 7.86975 91.115 7.86975H93.1235V7.19023C93.1235 5.93128 92.7975 5.2781 91.2885 5.2781C90.3043 5.3543 89.3341 5.55792 88.4021 5.88387L87.7449 4.25093C89.0044 3.72076 90.3492 3.42275 91.7144 3.37124C94.6061 3.37124 95.6366 4.6776 95.6366 6.91632V13.9275H94.2065ZM135.826 9.48162H134.091C132.735 9.48162 132.183 9.80821 132.183 10.8933C132.169 11.0905 132.198 11.2884 132.268 11.4732C132.338 11.658 132.447 11.8253 132.588 11.9636C132.73 12.1019 132.899 12.2078 133.085 12.274C133.271 12.3403 133.469 12.3652 133.665 12.3472C134.516 12.314 135.32 11.9447 135.9 11.32L135.826 9.48162ZM136.878 13.9327L136.32 12.8792C135.371 13.7209 134.154 14.197 132.887 14.2224C132.462 14.2475 132.037 14.1836 131.638 14.0349C131.239 13.8861 130.875 13.6557 130.57 13.3584C130.265 13.0611 130.025 12.7033 129.865 12.3079C129.706 11.9125 129.63 11.4882 129.643 11.0619C129.643 8.42811 131.331 7.86975 133.818 7.86975H135.826V7.19023C135.826 5.93128 135.5 5.2781 133.991 5.2781C133.005 5.35473 132.033 5.55833 131.099 5.88387L130.448 4.25093C131.707 3.72076 133.052 3.42275 134.417 3.37124C137.309 3.37124 138.339 4.6776 138.339 6.91632V13.9275L136.878 13.9327ZM168.534 5.60996V13.9327H165.968V5.60469H163.255V3.64516H171.247V5.60469L168.534 5.60996ZM177.782 9.48162H176.052C174.696 9.48162 174.139 9.80821 174.139 10.8933C174.125 11.0905 174.154 11.2884 174.224 11.4732C174.294 11.658 174.404 11.8253 174.545 11.9636C174.686 12.1019 174.855 12.2078 175.041 12.274C175.227 12.3403 175.425 12.3652 175.621 12.3472C176.04 12.3318 176.451 12.233 176.831 12.0566C177.211 11.8803 177.552 11.6299 177.835 11.32L177.782 9.48162ZM178.834 13.9327L178.308 12.8792C177.347 13.7215 176.12 14.1971 174.843 14.2224C173.113 14.2224 171.578 13.0899 171.578 11.0619C171.578 8.42811 173.261 7.86975 175.784 7.86975H177.793V7.19023C177.793 5.93128 177.467 5.2781 175.937 5.2781C174.959 5.3541 173.996 5.55774 173.071 5.88387L172.425 4.25093C173.684 3.71965 175.029 3.4216 176.394 3.37124C179.26 3.37124 180.311 4.6776 180.311 6.91632V13.9275L178.834 13.9327ZM117.182 13.2269C116.116 13.8284 114.915 14.1474 113.691 14.154C110.7 14.154 109.396 12.2945 109.396 8.92326C109.396 5.23596 111.178 3.41865 113.965 3.41865C115.001 3.3901 116.023 3.66665 116.904 4.21405L116.126 5.94708C115.548 5.69726 114.925 5.56992 114.296 5.57309C112.719 5.57309 112.009 6.6266 112.009 8.76523C112.009 11.1778 112.661 12.0311 114.296 12.0311C115.028 12.0154 115.746 11.8354 116.399 11.5044L117.182 13.2269ZM106.956 34.1918L103.465 29.393V34.1918H100.921V23.9095H103.486V28.3606L106.599 23.9095H109.417L106.047 28.5344L109.969 34.1918H106.956ZM95.5735 34.1918V29.8408H91.8932V34.1918H89.3274V23.9095H91.8932V27.7548H95.5735V23.9095H98.2024V34.1918H95.5735ZM71.2569 27.9181H69.5692V32.1322H71.6302C73.1654 32.1322 73.8699 31.6054 73.8699 30.0251C73.8699 28.4449 73.2653 27.9181 71.2411 27.9181M71.5671 34.176H66.9404V20.238H76.136V22.345H69.5692V25.9428H71.7091C75.0214 25.9428 76.7091 26.9963 76.7091 29.9145C76.7091 32.9539 74.4693 34.2129 71.5829 34.2129M188.46 13.9275V5.75745H186.226C186.226 11.2621 184.969 13.1742 182.456 14.3067L181.552 12.2945C183.34 11.162 184.091 10.5088 184.091 3.64516H191V13.9275H188.46ZM159.291 13.9275V9.52903L159.344 7.5695L154.612 13.9275H152.761V3.64516H155.321V10.0084L159.943 3.64516H161.857V13.9275H159.291ZM147.482 13.9275V5.75745H143.339V13.9275H140.879V3.64516H149.995V13.9275H147.482ZM126.252 13.9275L121.52 7.51682V13.9275H118.854V0H121.52V5.98396L125.879 0H128.991L123.965 6.41063L129.517 13.9275H126.252ZM104.869 13.9275V9.62912H100.852V13.9275H98.2917V3.64516H100.857V7.51682H104.874V3.64516H107.44V13.9275H104.869ZM80.8258 5.55728C80.3613 5.54379 79.9014 5.65243 79.4918 5.87238C79.0823 6.09234 78.7373 6.41594 78.4914 6.81097V11.4886C79.1264 11.8217 79.8359 11.9867 80.5524 11.9679C82.0351 11.9679 82.8395 11.162 82.8395 8.69676C82.8395 6.68981 82.2822 5.53621 80.8258 5.53621M81.0519 14.0855C80.1532 14.1217 79.2634 13.8947 78.4914 13.4323V17.2249H75.9257V3.59775H77.1823L78.1129 4.95151C78.5531 4.46492 79.0881 4.0737 79.6848 3.80194C80.2816 3.53017 80.9275 3.3836 81.5829 3.37124C84.0908 3.37124 85.4999 5.43086 85.4999 8.59667C85.4999 11.9679 83.7648 14.1065 81.0519 14.1065M72.0035 2.1597V13.9275H69.3378V2.1597H65.4209V0H75.8731V2.1597H72.0035Z" fill="#55607A"/>
</g>
</g>
<defs>
<clipPath id="clip0_0_116">
<rect width="191" height="44" fill="white"/>
</clipPath>
</defs>
</svg>
