<svg width="84" height="24" viewBox="0 0 84 24" fill="none" xmlns="http://www.w3.org/2000/svg">
<path d="M38.4422 17.4598C38.4158 17.3923 38.363 17.3352 38.2945 17.3041C38.2259 17.2729 38.1467 17.2729 38.0782 17.2937C36.8542 17.7401 34.8252 18.1034 33.2267 18.1034C29.7291 18.1034 28.062 17.1743 28.062 11.8955C28.062 7.67551 28.5738 5.68751 33.2267 5.68751C34.5456 5.68751 36.1417 5.87437 37.698 6.32077C37.8246 6.3571 37.9617 6.3 38.0198 6.18581C38.5113 5.12146 39.2556 3.30912 39.7209 2.18906C39.7578 2.11639 39.7578 2.03334 39.7262 1.96067C39.6945 1.888 39.6312 1.83091 39.5521 1.80495C37.5052 1.16132 35.0626 0.787598 32.8627 0.787598C25.5351 0.787598 22.2695 4.18743 22.2695 11.8176C22.2695 19.5568 25.5351 23.0085 32.8627 23.0085C34.6986 23.0085 38.3176 22.6296 40.0638 21.9444C40.201 21.8873 40.2748 21.7316 40.2221 21.5967L38.4422 17.4598Z" fill="#55607A"/>
<path fill-rule="evenodd" clip-rule="evenodd" d="M9.95324 0.787598C2.78941 0.787598 0 3.87952 0 11.8167C0 19.8746 2.78941 23.0085 9.95324 23.0085C15.3874 23.0085 18.3266 21.2337 19.4485 16.9213C19.4911 16.7578 19.3647 16.5996 19.1938 16.5996H14.1808C14.0735 16.5996 13.9777 16.6641 13.9308 16.7594C13.2767 18.0865 11.873 18.3837 9.95324 18.3837C7.01827 18.3837 5.90039 17.6621 5.7049 13.4477H19.6956C19.8368 13.4477 19.9535 13.3386 19.9598 13.1993C19.98 12.7555 19.9899 12.2947 19.9899 11.8167C19.9899 3.87952 17.1744 0.787598 9.95324 0.787598ZM14.2078 9.66546C13.7703 5.68853 12.0675 4.98686 9.95324 4.98686C7.83896 4.98686 6.19778 5.68853 5.77758 9.66546H14.2078Z" fill="#55607A"/>
<path d="M60.654 1.47021H55.5531C55.4043 1.47021 55.2874 1.58553 55.2874 1.7323V17.6042C54.1822 17.9082 53.0771 18.055 51.8337 18.055C48.7413 18.055 47.8433 17.1954 47.7265 13.61V1.7323C47.7265 1.58553 47.6096 1.47021 47.4608 1.47021H42.3599C42.2111 1.47021 42.0942 1.58553 42.0942 1.7323V1.76375C42.0942 1.76375 42.0942 13.7096 42.0996 13.7254C42.2218 20.4715 44.6978 23.1133 50.8135 23.1133C54.3842 23.1133 58.3692 22.2169 60.7337 21.3259C60.8453 21.2892 60.9143 21.1843 60.9143 21.069V1.76375V1.7323C60.9197 1.58553 60.8028 1.47021 60.654 1.47021Z" fill="#55607A"/>
<path fill-rule="evenodd" clip-rule="evenodd" d="M77.861 9.66546H71.9257C67.6322 9.66546 63.6196 12.4234 63.6196 17.0783C63.6196 20.3534 66.3978 23.0085 69.8248 23.0085H71.6723C74.0789 23.0085 76.4206 22.4336 77.9741 20.896V22.168C77.9741 22.3131 78.0931 22.4307 78.2399 22.4307H83.3437C83.4905 22.4307 83.6095 22.3131 83.6095 22.168V12.187C83.6095 12.1764 83.6089 12.166 83.6077 12.1557C83.608 12.0972 83.6081 12.0385 83.6081 11.9794C83.6081 3.92152 80.8187 0.787598 73.6549 0.787598C68.2207 0.787597 65.2815 2.56237 64.1596 6.87477C64.117 7.0383 64.2434 7.19647 64.4143 7.19647H69.4274C69.5346 7.19647 69.6304 7.13201 69.6774 7.03674C70.3314 5.70961 71.7351 5.41236 73.6549 5.41236C76.4236 5.41236 77.5753 6.05455 77.861 9.66546ZM77.9741 13.4477V14.2882C77.9741 17.125 75.2627 18.806 73.1728 18.806C70.7352 18.806 69.2551 18.1756 69.2551 16.5687C69.2551 14.5246 70.2579 13.4477 73.7069 13.4617L77.9741 13.4477Z" fill="#55607A"/>
</svg>
