<svg width="206" height="32" viewBox="0 0 206 32" fill="none" xmlns="http://www.w3.org/2000/svg">
<g clip-path="url(#clip0_0_129)">
<path d="M105.39 7.73096H111.853C114.736 7.73096 117.34 9.10215 117.34 12.66C117.34 16.194 114.829 17.4962 111.899 17.4962H107.528V24.0063H105.389L105.39 7.73096ZM111.62 15.8452C113.736 15.8452 115.201 14.8687 115.201 12.66C115.201 10.4514 113.736 9.47494 111.62 9.47494H107.528V15.8452H111.62Z" fill="#55607A"/>
<path d="M122.569 17.0772L126.196 16.7284V15.5661C126.196 14.1479 125.312 13.0086 123.312 13.0316C121.661 13.0316 120.36 13.7522 120.266 15.4032H118.383C118.476 12.6369 120.615 11.5435 123.312 11.5435C126.52 11.5435 128.218 13.1016 128.218 15.9609V24.0051H126.358V21.4936C125.615 23.2146 124.01 24.2839 121.708 24.2839C118.965 24.2839 117.778 22.7499 117.778 20.82C117.779 18.5653 119.43 17.3801 122.569 17.0772ZM122.314 22.8198C124.755 22.8198 126.196 21.1228 126.196 18.7742V18.0307L122.801 18.3795C120.849 18.5653 119.802 19.3559 119.802 20.751C119.802 21.8904 120.546 22.8198 122.314 22.8198Z" fill="#55607A"/>
<path d="M141.938 11.8228H143.822V14.1244C144.496 12.4734 145.914 11.5439 147.797 11.5439C149.657 11.5439 151.005 12.4274 151.447 14.1944C152.121 12.4974 153.586 11.5439 155.492 11.5439C157.841 11.5439 159.352 13.0091 159.352 15.7754V24.0056H157.307V16.3101C157.307 14.4033 156.47 13.218 154.796 13.218C152.889 13.218 151.657 14.729 151.657 17.2406V24.0065H149.634V16.3111C149.634 14.4042 148.774 13.2189 147.099 13.2189C145.193 13.2189 143.984 14.7301 143.984 17.2416V24.0076H141.938V11.8228Z" fill="#55607A"/>
<path d="M167.088 11.5435C170.576 11.5435 172.575 13.6593 172.575 18.2166V18.4954H163.391C163.554 21.3317 165.065 22.7968 167.251 22.7968C168.878 22.7968 169.972 21.9593 170.483 20.7041L172.413 20.82C171.785 22.9358 169.995 24.2839 167.251 24.2839C163.74 24.2839 161.346 22.2142 161.346 17.9137C161.346 13.6363 163.763 11.5435 167.088 11.5435ZM170.552 17.1472C170.505 14.6127 169.157 13.0316 167.088 13.0316C165.088 13.0316 163.6 14.4268 163.414 17.1472H170.552Z" fill="#55607A"/>
<path d="M174.721 11.8223H176.604V14.1709C177.301 12.5199 178.812 11.5435 180.951 11.5435C183.601 11.5435 185.112 12.9847 185.112 15.9609V24.0051H183.067V16.6115C183.067 14.4028 182.206 13.2175 180.253 13.2175C177.975 13.2175 176.766 14.7986 176.766 17.2401V24.0061H174.72L174.721 11.8223Z" fill="#55607A"/>
<path d="M190.988 13.3809V20.4956C190.988 22.0297 191.314 22.5184 192.546 22.5184C192.965 22.5184 193.477 22.4725 193.964 22.4025V24.0296C193.383 24.1455 192.802 24.1925 192.174 24.1925C189.803 24.1925 188.942 23.262 188.942 20.8214V13.3809H186.385V11.8697H188.338C188.872 11.8697 189.081 11.6609 189.081 11.1492V9.14941H190.988V11.8228H193.964V13.3809H190.988Z" fill="#55607A"/>
<path d="M197.244 20.4482C197.407 22.0752 198.615 22.7968 200.545 22.7968C202.359 22.7968 203.567 22.1462 203.567 20.9139C203.567 20.0074 202.893 19.4728 201.219 18.9611L198.591 18.1935C196.708 17.6358 195.755 16.4965 195.755 14.8455C195.755 12.4969 197.685 11.5444 200.219 11.5444C202.917 11.5444 205.055 12.6368 205.287 15.1483L203.427 15.2643C203.218 13.7302 201.893 13.0326 200.219 13.0326C198.731 12.9866 197.754 13.6372 197.754 14.7765C197.754 15.753 198.452 16.3106 199.73 16.6834L202.381 17.4509C204.427 18.0326 205.589 19.055 205.589 20.8219C205.589 23.0776 203.659 24.2859 200.497 24.2859C197.521 24.2859 195.591 23.1466 195.382 20.5421L197.244 20.4482Z" fill="#55607A"/>
<path d="M140.083 11.8467L135.549 25.4246C134.712 28.075 133.828 28.9585 131.457 28.9585C131.085 28.9585 130.62 28.9355 130.109 28.8886V27.3075C130.528 27.3305 130.97 27.3545 131.341 27.3545C132.597 27.3545 133.131 26.8898 133.69 25.1228L134.039 24.0304H134.037L129.434 11.8477H131.665L135.047 21.463L137.899 11.8477H140.083V11.8467Z" fill="#55607A"/>
<path d="M39.9766 16.2675C39.9766 11.7131 43.3595 8.26318 47.9807 8.26318C51.6735 8.26318 54.5479 10.5408 55.4543 13.8349H52.0714C51.3416 12.2428 49.8604 11.2704 47.9587 11.2704C45.1062 11.2704 43.1605 13.3712 43.1605 16.2675C43.1605 19.1637 45.1062 21.2645 47.9587 21.2645C49.8604 21.2645 51.3416 20.2921 52.0714 18.7H55.4543C54.5479 21.9941 51.6735 24.2717 47.9807 24.2717C43.3595 24.2707 39.9766 20.8217 39.9766 16.2675Z" fill="#55607A"/>
<path d="M57.0732 7.73096H60.2352V24.0063H57.0732V7.73096Z" fill="#55607A"/>
<path d="M74.7132 17.9263C74.7132 21.5972 71.9271 24.2726 68.3672 24.2726C64.8293 24.2726 62.0439 21.5752 62.0439 17.9263C62.0439 14.2565 64.874 11.5801 68.3672 11.5801C71.8831 11.5801 74.7132 14.2555 74.7132 17.9263ZM65.2279 17.9263C65.2279 19.9382 66.5992 21.2653 68.368 21.2653C70.1371 21.2653 71.5083 19.9392 71.5083 17.9263C71.5083 15.9365 70.1371 14.5873 68.368 14.5873C66.5992 14.5873 65.2279 15.9365 65.2279 17.9263Z" fill="#55607A"/>
<path d="M87.7759 11.8462V24.007H84.6135V22.326C83.7291 23.5642 82.5348 24.2718 80.8551 24.2718C78.1796 24.2718 76.5215 22.4369 76.5215 19.4736V11.8452H79.6835V18.7881C79.6835 20.3801 80.2803 21.2646 81.9172 21.2646C83.6643 21.2646 84.6146 20.2252 84.6146 18.2354V11.8452L87.7759 11.8462Z" fill="#55607A"/>
<path d="M102.067 7.73096V24.0063H98.9049V22.3703C98.0641 23.5196 96.7819 24.2722 95.0802 24.2722C91.9178 24.2722 89.5303 21.6627 89.5303 17.9259C89.5303 14.1672 91.9398 11.5797 95.0582 11.5797C96.783 11.5797 98.0652 12.3752 98.9056 13.5475V7.73096H102.067ZM98.9056 17.9259C98.9056 15.9361 97.5567 14.5869 95.7887 14.5869C94.0207 14.5869 92.7154 15.9361 92.7154 17.9259C92.7154 19.9377 94.0416 21.2649 95.7887 21.2649C97.5567 21.2649 98.9056 19.9377 98.9056 17.9259Z" fill="#55607A"/>
<path fill-rule="evenodd" clip-rule="evenodd" d="M15.9905 31.9937C24.8219 31.9937 31.981 24.8345 31.981 16.0032C31.981 7.1719 24.8219 0.0126953 15.9905 0.0126953C7.15921 0.0126953 0 7.1719 0 16.0032C0 24.8345 7.15921 31.9937 15.9905 31.9937ZM12.5551 20.4729L22.9103 10.1177C23.9875 9.04053 25.7328 9.04053 26.8101 10.1177L26.815 10.1226C27.8922 11.1998 27.8922 12.9452 26.815 14.0224L20.3644 20.4729C18.208 22.6294 14.7115 22.6294 12.5551 20.4729ZM9.07016 21.8887L19.4254 11.5334C17.269 9.37707 13.7724 9.37707 11.616 11.5334L5.16549 17.984C4.08825 19.0612 4.08825 20.8065 5.16549 21.8838L5.17037 21.8887C6.2476 22.9659 7.99292 22.9659 9.07016 21.8887Z" fill="#55607A"/>
</g>
<defs>
<clipPath id="clip0_0_129">
<rect width="206" height="32" fill="white"/>
</clipPath>
</defs>
</svg>
