<svg width="64" height="64" viewBox="0 0 64 64" fill="none" xmlns="http://www.w3.org/2000/svg">
<rect width="64" height="64" rx="24" fill="#F9FAFD"/>
<path d="M32 32C38.0751 32 43 29.3137 43 26C43 22.6863 38.0751 20 32 20C25.9249 20 21 22.6863 21 26C21 29.3137 25.9249 32 32 32Z" stroke="#01AD7C" stroke-width="1.6" stroke-linecap="round" stroke-linejoin="round"/>
<path d="M21 26V32C21 35.3138 25.925 38 32 38C38.075 38 43 35.3138 43 32V26" stroke="#01AD7C" stroke-width="1.6" stroke-linecap="round" stroke-linejoin="round"/>
<path d="M21 32V38C21 41.3138 25.925 44 32 44C38.075 44 43 41.3138 43 38V32" stroke="#01AD7C" stroke-width="1.6" stroke-linecap="round" stroke-linejoin="round"/>
</svg>
