<svg width="64" height="64" viewBox="0 0 64 64" fill="none" xmlns="http://www.w3.org/2000/svg">
<rect width="64" height="64" rx="24" fill="#F9FAFD"/>
<path d="M34.9999 41.8C33.1929 40.8788 31.6758 39.476 30.6162 37.7465C29.5567 36.017 28.9959 34.0282 28.9959 32C28.9959 29.9718 29.5567 27.983 30.6162 26.2535C31.6758 24.524 33.1929 23.1212 34.9999 22.2C33.3229 21.3451 31.4547 20.9348 29.5738 21.0084C27.693 21.082 25.8625 21.637 24.2574 22.6203C22.6524 23.6037 21.3266 24.9824 20.4067 26.6247C19.4869 28.2669 19.0039 30.1177 19.0039 32C19.0039 33.8823 19.4869 35.7331 20.4067 37.3754C21.3266 39.0176 22.6524 40.3963 24.2574 41.3797C25.8625 42.363 27.693 42.918 29.5738 42.9916C31.4547 43.0652 33.3229 42.6549 34.9999 41.8Z" stroke="#01AD7C" stroke-width="1.6" stroke-linecap="round" stroke-linejoin="round"/>
<path d="M38.1825 32L36 28.2913L40.0737 29.3L42.7987 26L43.1325 30.3313L47 32L43.1325 33.6688L42.7987 38L40.0737 34.7L36 35.7087L38.1825 32Z" stroke="#01AD7C" stroke-width="1.6" stroke-linecap="round" stroke-linejoin="round"/>
</svg>
