<svg width="704" height="48" viewBox="0 0 704 48" fill="none" xmlns="http://www.w3.org/2000/svg">
<path d="M7.71338 6.60269C8.29327 6.02634 8.85901 5.43495 9.45305 4.87451C10.0745 5.44733 10.6844 6.03341 11.3076 6.60357C10.6818 7.1702 10.0754 7.75805 9.45482 8.33087C8.85813 7.77219 8.29504 7.17816 7.71338 6.60269Z" fill="#55607A"/>
<path d="M5.92 9.33882C6.9242 9.07451 7.9611 8.96755 8.99536 8.90479C8.99889 12.2064 8.99624 15.5081 8.99624 18.8098C7.88066 18.8159 6.76508 18.8177 5.6495 18.8106C5.27293 18.8204 4.95735 18.5278 4.8221 18.1954C4.01238 16.2931 3.23359 14.3775 2.40972 12.4814C2.19492 12.6334 1.97746 12.7837 1.7547 12.9251C2.50961 14.9043 3.36884 16.8447 4.15116 18.8133C3.56862 18.808 2.98519 18.8301 2.40354 18.7983C1.80243 16.6175 0.859227 14.5552 0 12.469C1.68928 10.9768 3.72243 9.86302 5.92 9.33882ZM3.92398 11.7954C4.66917 13.5872 5.37017 15.3994 6.12331 17.1877C6.34873 17.68 6.94983 17.5298 7.38122 17.5289C7.36796 15.2694 7.38033 13.01 7.37503 10.7505C6.19138 10.9742 5.0263 11.3101 3.92398 11.7954Z" fill="#55607A"/>
<path d="M9.90665 8.90283C11.3502 8.98239 12.7946 9.19985 14.1612 9.68515C15.9106 10.2659 17.5009 11.256 18.8932 12.4547C18.1338 14.6213 17.1756 16.711 16.2536 18.8122C15.7524 18.8149 15.2521 18.8149 14.7508 18.8122C15.4218 17.1769 16.098 15.5442 16.7698 13.9088C16.9051 13.5844 17.0483 13.2617 17.1508 12.9258C16.9299 12.7738 16.7053 12.627 16.4728 12.4935C15.6976 14.3826 14.8923 16.2593 14.1073 18.1439C13.9729 18.4966 13.6556 18.8211 13.2552 18.8105C12.1387 18.8202 11.0222 18.8113 9.90576 18.8131C9.91195 15.5097 9.90665 12.2063 9.90665 8.90283ZM11.5243 10.753C11.5305 13.0142 11.534 15.2763 11.5252 17.5384C11.8249 17.5358 12.1281 17.5667 12.4251 17.5181C12.7698 17.3837 12.8715 17.001 12.9953 16.6907C13.5822 15.2374 14.1665 13.7833 14.7579 12.3327C14.8083 12.1506 14.9612 11.9614 14.9188 11.7749C13.8386 11.2896 12.6876 10.9696 11.5243 10.753Z" fill="#55607A"/>
<path d="M19.4723 12.9453C20.7161 11.8713 22.4487 11.5902 24.0416 11.6954C25.1722 11.8129 26.3939 12.0392 27.2345 12.871C27.9461 13.5393 28.1132 14.609 27.9284 15.5318C27.7711 16.3362 27.2336 17.0461 26.5079 17.4244C27.1797 17.8063 27.8436 18.3102 28.1008 19.0722C28.3766 19.9676 28.176 20.9594 27.7357 21.7692C27.1603 22.8114 26.0668 23.4673 24.9326 23.7369C23.7534 24.0092 22.5132 23.8739 21.3702 23.508C20.5534 23.2375 19.772 22.8361 19.124 22.2651C19.3777 21.9018 19.6005 21.519 19.8427 21.1486C19.9691 20.9488 20.1565 20.7614 20.4067 20.7455C20.8275 20.6801 21.1837 20.9497 21.5373 21.1301C22.4195 21.6109 23.4723 21.8284 24.4624 21.6039C24.9335 21.5031 25.3534 21.1566 25.4789 20.6828C25.6107 20.1966 25.6504 19.6176 25.3384 19.1897C24.9954 18.715 24.3872 18.5435 23.833 18.4878C23.147 18.4472 22.4602 18.487 21.7751 18.4649C21.7892 17.7736 21.7698 17.0814 21.7839 16.391C22.5371 16.3769 23.2955 16.4379 24.0442 16.3301C24.4774 16.2744 24.9238 16.0498 25.1218 15.6423C25.326 15.1243 25.2712 14.4083 24.7629 14.0848C24.1715 13.7029 23.4237 13.7082 22.7528 13.8178C22.1437 13.923 21.6168 14.2589 21.0546 14.4923C20.7541 14.624 20.3757 14.5223 20.2007 14.2394C19.9355 13.8213 19.7269 13.3705 19.4723 12.9453Z" fill="#55607A"/>
<path d="M32.5748 15.0756C33.8133 14.9006 35.1675 15.0853 36.1876 15.8526C37.046 16.4856 37.5825 17.4871 37.7337 18.5337C37.9034 19.7236 37.7417 21.0053 37.0769 22.0272C36.5138 22.9112 35.5856 23.5318 34.5664 23.7563C33.3235 24.025 31.9613 23.8756 30.8634 23.2109C29.8822 22.6071 29.2219 21.5552 29.0203 20.429C28.8391 19.3921 28.9063 18.28 29.3792 17.3262C29.9573 16.086 31.232 15.2471 32.5748 15.0756ZM32.7383 17.0946C32.4033 17.2166 32.1284 17.4809 31.9825 17.8045C31.6855 18.4162 31.6988 19.1136 31.6749 19.7775C31.6537 20.3919 31.7704 21.0513 32.1814 21.5313C32.855 22.2597 34.2641 22.2102 34.7741 21.313C35.1666 20.6076 35.1657 19.766 35.1286 18.9819C35.0827 18.3455 34.9324 17.6135 34.3666 17.2325C33.8884 16.9293 33.2643 16.9231 32.7383 17.0946Z" fill="#55607A"/>
<path d="M50.79 15.0745C52.085 14.8906 53.5127 15.1099 54.5398 15.97C55.3416 16.6223 55.8216 17.6062 55.9507 18.6228C56.1045 19.8444 55.9109 21.1607 55.1781 22.1773C54.6132 22.9834 53.7337 23.5412 52.7763 23.7552C51.5219 24.031 50.1279 23.8754 49.0512 23.1426C48.1805 22.5538 47.5891 21.6053 47.3743 20.5834C47.1215 19.3715 47.2293 18.0455 47.857 16.9591C48.4722 15.9169 49.5975 15.2283 50.79 15.0745ZM50.9509 17.0908C50.6123 17.2111 50.3365 17.4771 50.1871 17.8024C49.8866 18.415 49.906 19.116 49.883 19.7817C49.8583 20.3978 49.9794 21.0573 50.3931 21.5364C50.9164 22.1012 51.8464 22.1737 52.5014 21.806C53.1493 21.3949 53.3023 20.5675 53.342 19.8568C53.3553 19.0683 53.3668 18.1967 52.8886 17.5258C52.4448 16.9476 51.6006 16.8805 50.9509 17.0908Z" fill="#55607A"/>
<path d="M64.8697 15.3542C66.0215 15.2101 67.1716 14.9918 68.3376 15.0218C69.2021 15.0466 70.048 15.4134 70.6677 16.0154C71.3342 16.6784 71.7382 17.5986 71.7868 18.5365C71.7877 20.3186 71.7868 22.1016 71.7868 23.8846C71.2856 23.874 70.7826 23.9085 70.2832 23.8696C69.8244 23.8254 69.8094 23.2658 69.5955 22.9573C69.0209 23.2755 68.5347 23.7723 67.877 23.9217C66.9736 24.1489 65.949 24.0702 65.1588 23.5478C64.509 23.1076 64.2218 22.3014 64.1846 21.5456C64.1316 20.6519 64.5559 19.7361 65.2958 19.2269C65.8368 18.8813 66.4485 18.6709 67.0567 18.4747C67.7311 18.2828 68.4374 18.251 69.1349 18.2386C69.1561 17.7436 68.8821 17.2274 68.3853 17.0868C67.5437 16.8614 66.6889 17.1567 65.8483 17.2327C65.5159 17.2804 65.1932 17.0842 65.0474 16.7898C64.829 16.3452 64.8538 15.8351 64.8697 15.3542ZM66.7756 20.3416C66.1904 20.6378 66.1391 21.6791 66.8003 21.916C67.6021 22.2112 68.5418 21.8797 69.0978 21.2592C69.1508 20.8305 69.0324 20.392 69.0182 19.9597C68.2642 19.9933 67.4562 19.9651 66.7756 20.3416Z" fill="#55607A"/>
<path d="M39.4994 19.932C39.7823 18.385 39.6594 16.8053 39.7531 15.2433C41.9427 15.2425 44.1324 15.2425 46.322 15.2433C46.3184 18.1242 46.3264 21.0042 46.3176 23.8851C45.4742 23.8851 44.6309 23.8842 43.7885 23.886C43.7832 21.6575 43.7876 19.429 43.7858 17.2013C43.1715 17.1996 42.5562 17.2005 41.9419 17.2013C41.8685 18.4911 41.8358 19.7914 41.5635 21.059C41.385 21.8741 41.0888 22.7068 40.4851 23.3061C39.8504 23.9576 38.8859 24.1494 38.009 24.1105C37.8066 24.1149 37.5724 23.9868 37.5768 23.7605C37.5494 23.2301 37.5741 22.697 37.5662 22.1658C37.9595 22.1331 38.3617 22.0093 38.6729 21.7609C39.145 21.2676 39.3872 20.5958 39.4994 19.932Z" fill="#55607A"/>
<path d="M55.8853 15.2446C58.5743 15.242 61.2643 15.2437 63.9533 15.2437C63.9542 15.8555 63.9542 16.4672 63.9533 17.078C63.0693 17.0789 62.1863 17.078 61.3023 17.0789C61.3005 19.3074 61.3032 21.535 61.3014 23.7635C60.4174 23.7644 59.5334 23.7644 58.6495 23.7635C58.6477 21.535 58.6503 19.3074 58.6486 17.0789C57.7275 17.0771 56.8064 17.0806 55.8853 17.0771C55.8861 16.4663 55.8853 15.8555 55.8853 15.2446Z" fill="#55607A"/>
<path d="M73.6821 16.0222C74.4627 15.4697 75.4324 15.2514 76.3774 15.2461C77.5363 15.2381 78.6952 15.2452 79.8541 15.2434C79.8541 18.0836 79.8549 20.923 79.8541 23.7632C79.047 23.7641 78.2399 23.7632 77.4337 23.7632C77.4293 22.6458 77.4426 21.5276 77.4258 20.4103C77.1128 20.4341 76.7513 20.4677 76.5559 20.7488C75.9769 21.4799 75.8107 22.439 75.3131 23.2178C75.0673 23.6058 74.5917 23.742 74.1577 23.7552C73.4832 23.7738 72.8088 23.7596 72.1343 23.7614C72.7548 22.7307 73.3665 21.6938 73.9977 20.6701C74.216 20.3024 74.5847 20.0549 74.9993 19.9612C74.2001 19.7968 73.3612 19.391 73.0032 18.614C72.5851 17.7274 72.9502 16.6268 73.6821 16.0222ZM76.0264 16.9557C75.3325 17.2085 75.2035 18.2569 75.7436 18.7272C76.1802 19.1913 76.8689 19.0083 77.4328 19.0445C77.4346 18.3152 77.4328 17.5868 77.4337 16.8575C76.9661 16.8779 76.4755 16.7939 76.0264 16.9557Z" fill="#55607A"/>
<path d="M2.73779 19.5971C7.24608 19.5971 11.7544 19.5962 16.2627 19.5971C16.2627 20.1275 16.2627 20.6587 16.2627 21.1891C11.7544 21.1891 7.24608 21.1891 2.73779 21.1891C2.73779 20.6587 2.73779 20.1275 2.73779 19.5971Z" fill="#55607A"/>
<path d="M2.77031 22.2703C4.11484 22.2694 5.45937 22.2712 6.8039 22.2703C6.80478 24.535 6.80302 26.8007 6.80478 29.0663C7.27152 29.0787 7.74622 29.0628 8.19793 28.9302C8.38976 28.8515 8.53296 28.6888 8.65849 28.5297C9.65296 27.1931 10.1966 25.5843 11.1937 24.2486C11.5836 23.7041 12.0627 23.202 12.6717 22.9059C13.7944 22.4091 15.0435 22.3489 16.2527 22.3817C16.251 23.194 16.258 24.0064 16.251 24.8188C16.2625 25.1123 16.1334 25.4181 15.8753 25.571C15.4863 25.7947 15.0231 25.8247 14.6191 26.0122C14.2664 26.1589 13.9818 26.4312 13.767 26.7414C13.1093 27.6431 12.8618 28.7737 12.1909 29.6674C11.9654 29.9671 11.6499 30.1801 11.3148 30.3401C11.8373 30.4683 12.3332 30.7167 12.7274 31.0853C13.1624 31.5193 13.4956 32.0418 13.8077 32.5677C15.0382 34.7432 16.2846 36.9107 17.5115 39.0888C16.2996 39.0906 15.0877 39.0888 13.8757 39.0906C13.4673 39.1012 13.0306 38.9819 12.7601 38.6583C12.4932 38.3923 12.3906 38.021 12.2006 37.7054C11.2477 36.0382 10.3018 34.3657 9.34799 32.6994C9.1597 32.3671 8.85208 32.1001 8.47373 32.0179C7.92478 31.9047 7.35992 31.9675 6.8039 31.9525C6.8039 34.2941 6.8039 36.6367 6.8039 38.9792C5.56722 38.981 4.33141 38.9757 3.09473 38.9819C2.99661 38.9501 2.73672 39.0508 2.77119 38.867C2.76766 33.335 2.77031 27.8031 2.77031 22.2703Z" fill="#55607A"/>
<path d="M21.791 26.4743C23.3256 26.3117 24.9495 26.5398 26.2772 27.3654C27.3945 28.0523 28.2334 29.1563 28.6471 30.3974C29.0476 31.5537 29.1059 32.8036 28.9804 34.012C28.9203 34.6697 28.7081 35.3035 28.3979 35.8843C27.9064 36.946 27.094 37.8618 26.0854 38.4584C24.7055 39.2567 23.0383 39.4591 21.4781 39.2142C20.0938 39.0092 18.7696 38.3471 17.8255 37.3048C17.0255 36.3864 16.4721 35.2399 16.3245 34.0253C16.13 32.4474 16.313 30.7767 17.1077 29.3764C18.0279 27.6721 19.8949 26.6414 21.791 26.4743ZM21.8785 29.2925C21.3791 29.426 20.9477 29.7654 20.6958 30.2162C20.2379 31.0145 20.1804 31.963 20.168 32.862C20.1336 33.7265 20.1645 34.6458 20.5968 35.4202C20.8619 35.9223 21.326 36.3113 21.8803 36.4509C22.6688 36.6489 23.5908 36.5932 24.2432 36.062C24.8982 35.4794 25.1192 34.5787 25.1961 33.738C25.2677 32.8204 25.2509 31.8825 25.0184 30.9871C24.8496 30.4134 24.5384 29.8388 24.0169 29.5161C23.3777 29.1431 22.5831 29.1121 21.8785 29.2925Z" fill="#55607A"/>
<path d="M35.7907 26.6293C36.7648 26.3729 37.8371 26.3128 38.7882 26.6885C39.9966 27.1773 40.8302 28.2779 41.3332 29.443C41.7487 30.3137 41.8689 31.2878 41.9202 32.2408C41.9997 33.9955 41.563 35.7997 40.5429 37.2441C39.8428 38.2394 38.7776 38.9855 37.5772 39.2198C36.5694 39.4151 35.483 39.3294 34.561 38.8573C34.2366 38.7018 33.9467 38.4861 33.647 38.2898C33.6497 39.8624 33.6532 41.435 33.6488 43.0085C32.4209 43.0545 31.1931 43.0925 29.9644 43.1252C29.9644 37.6322 29.9644 32.14 29.9644 26.647C30.7281 26.6505 31.4928 26.6381 32.2574 26.6514C32.6234 26.647 33.0212 26.822 33.1617 27.1809C33.2713 27.4965 33.3314 27.8262 33.4189 28.148C34.0598 27.447 34.8651 26.8786 35.7907 26.6293ZM33.6426 30.4551C33.6647 32.2089 33.6329 33.9636 33.6567 35.7175C34.0775 36.2452 34.7732 36.5281 35.4433 36.5484C36.1345 36.6023 36.8779 36.3477 37.2855 35.7643C37.9723 34.8034 38.0324 33.5614 38.0174 32.422C37.9873 31.4982 37.9069 30.4587 37.2342 29.7541C36.786 29.2626 36.0505 29.2512 35.4406 29.3528C34.7193 29.4615 34.1093 29.9159 33.6426 30.4551Z" fill="#55607A"/>
<path d="M48.2278 26.4781C49.8924 26.2925 51.6727 26.5577 53.0703 27.5292C54.3167 28.384 55.1149 29.7877 55.3854 31.2587C55.6497 32.7243 55.5852 34.2783 55.0389 35.6741C54.535 37.0143 53.4822 38.1404 52.1722 38.7212C50.8435 39.3179 49.3346 39.4355 47.9052 39.2127C46.4723 38.9838 45.0871 38.2828 44.1695 37.1415C43.1229 35.8854 42.6959 34.2059 42.756 32.5926C42.7993 31.0129 43.3138 29.3838 44.4497 28.247C45.4292 27.2056 46.8259 26.6399 48.2278 26.4781ZM48.387 29.2909C47.975 29.4014 47.5967 29.6445 47.3465 29.9919C46.8471 30.6549 46.7268 31.5115 46.68 32.3177C46.6526 33.2759 46.6552 34.2713 47.0203 35.1738C47.244 35.7457 47.6975 36.2478 48.2994 36.4238C49.0535 36.6448 49.9295 36.6129 50.5996 36.1683C51.2263 35.7219 51.5127 34.9528 51.6347 34.2209C51.7691 33.3502 51.7673 32.4565 51.6453 31.5849C51.5313 30.845 51.2546 30.0688 50.6402 29.5995C49.9923 29.1477 49.1339 29.1018 48.387 29.2909Z" fill="#55607A"/>
<path d="M70.178 26.875C71.8744 26.5948 73.592 26.3782 75.3157 26.4321C76.8105 26.494 78.2974 27.2445 79.1301 28.5077C79.7754 29.4359 80.007 30.5912 79.9654 31.7077C79.9637 34.2085 79.9654 36.7092 79.9654 39.2109C79.3254 39.2074 78.6854 39.2233 78.0463 39.2029C77.7166 39.1923 77.3374 39.103 77.1544 38.8007C76.959 38.4648 76.8706 38.0812 76.7389 37.7187C75.3546 39.3011 72.9387 39.8553 71.0046 39.0314C70.3292 38.753 69.7758 38.2067 69.4876 37.5358C69.0209 36.4661 68.9237 35.2144 69.2958 34.1015C69.7475 32.9435 70.7871 32.0834 71.9566 31.7068C72.7097 31.4796 73.462 31.2303 74.247 31.1366C74.9223 31.05 75.6048 31.035 76.2854 31.0288C76.3544 30.2916 75.8708 29.5313 75.1274 29.3828C74.3044 29.2255 73.4611 29.389 72.647 29.5278C72.1201 29.6118 71.5676 29.8054 71.0443 29.61C70.643 29.4659 70.3911 29.0787 70.2841 28.6827C70.1329 28.0931 70.1365 27.4779 70.178 26.875ZM73.1765 33.9777C72.4295 34.235 72.0954 35.2135 72.441 35.8995C72.6868 36.3486 73.249 36.4661 73.7201 36.4723C74.2823 36.4538 74.864 36.3689 75.3608 36.0887C75.7047 35.9013 75.9292 35.5618 76.2686 35.3674C76.2872 34.7291 76.2722 34.09 76.2748 33.4518C75.2362 33.5844 74.1745 33.6409 73.1765 33.9777Z" fill="#55607A"/>
<path d="M56.5757 26.646C57.8053 26.6478 59.0349 26.6451 60.2645 26.6469C60.2619 28.1435 60.2689 29.64 60.2601 31.1357C61.564 31.1552 62.8678 31.1357 64.1717 31.1463C64.1867 29.6462 64.1735 28.1461 64.1779 26.646C65.4093 26.6478 66.6407 26.6442 67.872 26.6478C67.872 30.7945 67.872 34.9404 67.872 39.0871C66.6407 39.0933 65.4093 39.0862 64.1779 39.0906C64.177 37.3633 64.1788 35.6361 64.177 33.9079C62.8731 33.9079 61.5684 33.9079 60.2645 33.9088C60.2663 35.6334 60.2592 37.3589 60.2681 39.0844C59.0376 39.0968 57.8071 39.0844 56.5757 39.0906C56.5757 34.9421 56.5757 30.7945 56.5757 26.646Z" fill="#55607A"/>
<path d="M289.461 28.2448H287.822V26.9612C285.926 26.8295 284.432 26.2898 283.339 25.3419C282.247 24.394 281.7 23.1697 281.7 21.6689C281.7 20.1812 282.247 18.9635 283.339 18.0156C284.432 17.0677 285.926 16.528 287.822 16.3963V15.0732H289.461V16.3963C291.344 16.528 292.838 17.0743 293.944 18.0354C295.049 18.9832 295.602 20.1944 295.602 21.6689C295.602 23.1697 295.049 24.394 293.944 25.3419C292.851 26.2898 291.357 26.8295 289.461 26.9612V28.2448ZM292.719 24.2755C293.509 23.591 293.904 22.7221 293.904 21.6689C293.904 20.6157 293.509 19.7468 292.719 19.0622C291.929 18.3776 290.843 17.9761 289.461 17.8576V25.4801C290.843 25.3616 291.929 24.9601 292.719 24.2755ZM284.564 19.0622C283.787 19.7468 283.398 20.6157 283.398 21.6689C283.398 22.7221 283.787 23.591 284.564 24.2755C285.353 24.9601 286.44 25.3616 287.822 25.4801V17.8576C286.44 17.9761 285.353 18.3776 284.564 19.0622Z" fill="#55607A"/>
<path d="M304.814 28.2448H303.234V15.0732H304.873V25.3616L312.456 15.0732H314.135V28.2448H312.496V17.7391L304.814 28.2448Z" fill="#55607A"/>
<path d="M333.286 28.2448H331.647V22.2021H323.946V28.2448H322.307V15.0732H323.946V20.7407H331.647V15.0732H333.286V28.2448Z" fill="#55607A"/>
<path d="M351.449 28.2448H349.415L344.418 22.3205L343.095 23.8213V28.2448H341.456V15.0732H343.095V21.8861L348.921 15.0732H350.975L345.485 21.3332L351.449 28.2448Z" fill="#55607A"/>
<path d="M369.683 28.2448H367.807L366.642 25.3221H360.086L358.921 28.2448H357.045L362.337 15.0732H364.371L369.683 28.2448ZM366.148 23.8608L363.364 16.7715L360.56 23.8608H366.148Z" fill="#55607A"/>
<path d="M378.135 28.2448H376.496V15.0732H381.789C383.066 15.0732 384.073 15.455 384.81 16.2186C385.547 16.9822 385.916 17.9235 385.916 19.0425C385.916 20.1615 385.541 21.1028 384.79 21.8664C384.053 22.6299 383.053 23.0117 381.789 23.0117H378.135V28.2448ZM381.591 21.5504C382.368 21.5504 383 21.32 383.487 20.8592C383.974 20.3853 384.218 19.7797 384.218 19.0425C384.218 18.3052 383.974 17.7062 383.487 17.2455C383 16.7715 382.368 16.5346 381.591 16.5346H378.135V21.5504H381.591Z" fill="#55607A"/>
<path d="M398.075 28.2448H396.436V16.5346H392.269V15.0732H402.261V16.5346H398.075V28.2448Z" fill="#55607A"/>
<path d="M420.807 28.2448H418.931L417.766 25.3221H411.209L410.044 28.2448H408.168L413.461 15.0732H415.495L420.807 28.2448ZM417.272 23.8608L414.487 16.7715L411.683 23.8608H417.272Z" fill="#55607A"/>
<path fill-rule="evenodd" clip-rule="evenodd" d="M265.35 10L251.235 23.9211L265.35 38L270.299 33.1789L265.35 28.5451L270.299 23.9211L265.35 19.4214L270.299 14.4933L265.35 10Z" fill="#55607A"/>
<path d="M609.798 16.6138L621.168 28.9687H613.469L609.798 16.6138Z" fill="#55607A"/>
<path d="M621.168 28.9688L599.323 39.5331L613.469 28.9688H621.168Z" fill="#9FA7BC"/>
<path d="M609.798 16.6138L613.468 28.9687H604.247L609.798 16.6138Z" fill="#55607A"/>
<path d="M613.469 28.9688L599.323 39.5331L604.247 28.9688H613.469Z" fill="#9FA7BC"/>
<path d="M609.798 16.6138L604.247 28.9687L599.323 20.6694L609.798 16.6138Z" fill="#55607A"/>
<path d="M609.798 16.6139L599.323 20.6695L592.071 8.4668L609.798 16.6139Z" fill="#55607A"/>
<path d="M599.323 20.6694L604.247 28.9687L599.323 39.5331V20.6694Z" fill="#9FA7BC"/>
<path d="M599.323 20.6695V39.5331L592.071 8.4668L599.323 20.6695Z" fill="#9FA7BC"/>
<path d="M626.2 21.4037V36.8115H636.442V34.2062H629.217V21.4037H626.2ZM676.953 22.5765C675.897 21.5022 673.56 21.4395 673.56 21.4395H665.189V36.7757H673.336C673.336 36.7757 675.781 36.8384 677.007 35.585C678.252 34.3226 678.565 32.9618 678.565 30.3118V26.5963C678.565 26.5963 678.645 24.0895 676.953 22.5765ZM675.646 31.2249C675.646 32.6663 674.939 34.2958 672.79 34.2958L668.18 34.3137V23.9642H672.763C674.787 23.9642 675.646 25.0654 675.646 27.2051V31.2249ZM661.143 36.7847H664.133L658.931 21.4305H654.571L649.504 36.7847H652.557L656.827 23.6419L661.143 36.7847ZM689.237 25.7906H692.119V24.7162C692.119 22.4153 690.481 21.162 688.458 21.162L683.722 21.1261C681.725 21.1261 680.105 22.6392 680.105 24.6357L680.123 26.6769C680.132 28.3421 681.43 29.7209 683.095 29.8373L688.27 30.1954C688.941 30.2401 689.469 30.8042 689.469 31.4846V32.917C689.469 33.6422 689.013 34.3226 688.055 34.3226L684.286 34.3137C683.632 34.3137 682.952 33.6153 682.952 32.9618L682.943 31.6994H680.06V32.9618C680.06 35.4238 681.689 36.7309 683.757 36.7309H688.189C691.341 36.7309 692.415 35.1105 692.415 33.1408V30.9832C692.415 29.1658 691.054 27.8855 689.228 27.8318L684.348 27.4558C683.954 27.4558 683.095 27.0977 683.095 26.0144L683.077 25.1012C683.077 24.0537 683.758 23.5345 684.805 23.5345H687.777C688.583 23.5345 689.228 24.1253 689.228 24.9221V25.7906H689.237ZM698.592 22.5765H699.497V22.2363C699.497 21.5201 698.986 21.1261 698.351 21.1261L696.873 21.1172C696.247 21.1172 695.745 21.5917 695.745 22.2184L695.754 22.854C695.754 23.3733 696.166 23.812 696.685 23.8478L698.306 23.9642C698.521 23.9821 698.682 24.1522 698.682 24.3671V24.8147C698.682 25.0385 698.539 25.2534 698.243 25.2534H697.061C696.855 25.2534 696.641 25.0296 696.641 24.8326V24.4387H695.718V24.8326C695.718 25.6026 696.229 26.0144 696.873 26.0144H698.261C699.246 26.0144 699.586 25.5041 699.586 24.8863V24.197C699.586 23.624 699.156 23.2301 698.592 23.2122L697.061 23.0958C696.936 23.0958 696.667 22.9883 696.667 22.6392L696.659 22.3527C696.659 22.0214 696.873 21.8603 697.196 21.8603H698.127C698.377 21.8603 698.583 22.0483 698.583 22.299V22.5765H698.592ZM703.078 21.1172V24.8058C703.078 25.0296 702.934 25.2444 702.639 25.2444H701.457C701.251 25.2444 701.036 25.0206 701.036 24.8237V21.1172H700.132V24.8237C700.132 25.5936 700.643 26.0054 701.287 26.0054H702.675C703.66 26.0054 704 25.4951 704 24.8774V21.1172H703.078ZM640.891 34.3584V30.0342H646.406V27.8766H640.891V23.8747H648.448V21.4305H637.928V36.7847H648.501V34.3584H640.891Z" fill="#55607A"/>
<path d="M654.517 34.0719H659.11L658.421 31.9053H655.206L654.517 34.0719Z" fill="#55607A"/>
<path d="M695.405 25.7281C695.405 25.8803 695.28 25.9967 695.136 25.9967H694.805C694.653 25.9967 694.537 25.8713 694.537 25.7281V25.4058C694.537 25.2536 694.662 25.1372 694.805 25.1372H695.136C695.289 25.1372 695.405 25.2625 695.405 25.4058V25.7281Z" fill="#55607A"/>
</svg>
