<svg width="704" height="48" viewBox="0 0 704 48" fill="none" xmlns="http://www.w3.org/2000/svg">
<path fill-rule="evenodd" clip-rule="evenodd" d="M24.5801 29.5302C24.5801 28.9368 24.6684 28.4135 24.845 27.9602C25.0217 27.5068 25.2617 27.1285 25.5651 26.8252C25.8684 26.5218 26.2217 26.2935 26.6251 26.1402C27.0284 25.9868 27.4567 25.9102 27.91 25.9102C28.3567 25.9102 28.7784 25.9868 29.175 26.1402C29.5717 26.2935 29.92 26.5218 30.22 26.8252C30.52 27.1285 30.7584 27.5068 30.9351 27.9602C31.1117 28.4135 31.2001 28.9368 31.2001 29.5302C31.2001 30.1235 31.1117 30.6468 30.9351 31.1002C30.7584 31.5535 30.52 31.9318 30.22 32.2352C29.92 32.5385 29.5717 32.7668 29.175 32.9202C28.7784 33.0735 28.3567 33.1502 27.91 33.1502C27.4567 33.1502 27.0284 33.0735 26.6251 32.9202C26.2217 32.7668 25.8684 32.5385 25.5651 32.2352C25.2617 31.9318 25.0217 31.5535 24.845 31.1002C24.6684 30.6468 24.5801 30.1235 24.5801 29.5302ZM25.6 29.5302C25.6 29.9502 25.6534 30.3318 25.7601 30.6752C25.8667 31.0185 26.0184 31.3102 26.2151 31.5502C26.4118 31.7902 26.6517 31.9752 26.9351 32.1052C27.2184 32.2352 27.5367 32.3002 27.8901 32.3002C28.2434 32.3002 28.5601 32.2352 28.8401 32.1052C29.1201 31.9752 29.3584 31.7902 29.5551 31.5502C29.7517 31.3102 29.9034 31.0185 30.0101 30.6752C30.1167 30.3318 30.17 29.9502 30.17 29.5302C30.17 29.1102 30.1167 28.7285 30.0101 28.3852C29.9034 28.0418 29.7517 27.7502 29.5551 27.5102C29.3584 27.2702 29.1201 27.0852 28.8401 26.9552C28.5601 26.8252 28.2434 26.7602 27.8901 26.7602C27.5367 26.7602 27.2184 26.8252 26.9351 26.9552C26.6517 27.0852 26.4118 27.2702 26.2151 27.5102C26.0184 27.7502 25.8667 28.0418 25.7601 28.3852C25.6534 28.7285 25.6 29.1102 25.6 29.5302ZM33.61 26.9002V28.6602H34.47C34.9567 28.6602 35.3918 28.7002 35.7751 28.7802C36.1584 28.8602 36.4834 28.9885 36.7501 29.1652C37.0167 29.3418 37.22 29.5685 37.36 29.8452C37.5 30.1218 37.5701 30.4602 37.5701 30.8602C37.5701 31.5935 37.3034 32.1452 36.7701 32.5152C36.2367 32.8852 35.4834 33.0702 34.5101 33.0702C34.3701 33.0702 34.2184 33.0668 34.0551 33.0602C33.8917 33.0535 33.7284 33.0435 33.5651 33.0302C33.4017 33.0168 33.2401 33.0002 33.0801 32.9802C32.9201 32.9602 32.7734 32.9335 32.6401 32.9002V26.0702H36.92V26.9002H33.61ZM34.5901 32.2202C34.8501 32.2202 35.0984 32.2002 35.3351 32.1602C35.5718 32.1202 35.7801 32.0485 35.9601 31.9452C36.1401 31.8418 36.2834 31.7035 36.3901 31.5302C36.4967 31.3568 36.55 31.1368 36.55 30.8702C36.55 30.5902 36.5018 30.3602 36.4051 30.1802C36.3084 30.0002 36.1701 29.8568 35.9901 29.7502C35.8101 29.6435 35.5884 29.5685 35.3251 29.5252C35.0617 29.4818 34.7634 29.4602 34.4301 29.4602H33.61V32.1902C33.6834 32.1968 33.7701 32.2035 33.8701 32.2102C33.9567 32.2168 34.0601 32.2202 34.1801 32.2202H34.5901ZM44.86 30.8302C44.86 31.5768 44.5901 32.1368 44.05 32.5102C43.51 32.8835 42.7501 33.0702 41.7701 33.0702C41.4901 33.0702 41.1834 33.0585 40.85 33.0352C40.5167 33.0118 40.2101 32.9668 39.9301 32.9002V26.9002H38.1301V26.0702H40.9001V28.5902C41.0334 28.5768 41.1684 28.5685 41.3051 28.5652C41.4417 28.5618 41.5767 28.5602 41.7101 28.5602C43.8101 28.5602 44.86 29.3168 44.86 30.8302ZM43.8401 30.8302C43.8401 30.5502 43.7867 30.3168 43.6801 30.1302C43.5734 29.9435 43.425 29.7968 43.235 29.6902C43.045 29.5835 42.8184 29.5085 42.5551 29.4652C42.2917 29.4218 42.0001 29.4002 41.6801 29.4002H41.295C41.165 29.4002 41.0334 29.4068 40.9001 29.4202V32.1902C41.0201 32.2035 41.1551 32.2118 41.3051 32.2152C41.4551 32.2185 41.6367 32.2202 41.85 32.2202C42.11 32.2202 42.36 32.2002 42.6 32.1602C42.84 32.1202 43.0517 32.0468 43.235 31.9402C43.4184 31.8335 43.565 31.6918 43.675 31.5152C43.785 31.3385 43.8401 31.1102 43.8401 30.8302ZM46.0901 33.0002V26.0702H50.3201V26.9002H47.0601V28.9602H49.9601V29.7702H47.0601V32.1702H50.5701V33.0002H46.0901ZM52.0201 33.0002V34.8502H51.1V32.1702H51.8301C52.1701 31.7835 52.4317 31.3552 52.6151 30.8852C52.7984 30.4152 52.9317 29.9185 53.0151 29.3952C53.0984 28.8718 53.1484 28.3302 53.165 27.7702C53.1817 27.2102 53.1934 26.6435 53.2001 26.0702H57.1201V32.1702H57.9901V34.8502H57.0701V33.0002H52.0201ZM54.1501 26.9002C54.1301 27.3402 54.1084 27.7885 54.0851 28.2452C54.0618 28.7018 54.0117 29.1552 53.9351 29.6052C53.8584 30.0552 53.7467 30.4968 53.6 30.9302C53.4534 31.3635 53.2467 31.7768 52.98 32.1702H56.1501V26.9002H54.1501ZM59.0301 33.0002V26.0702H59.98V31.2002C60.1934 30.8468 60.4551 30.4435 60.7651 29.9902C61.0751 29.5368 61.4051 29.0752 61.7551 28.6052C62.1051 28.1352 62.4584 27.6785 62.8151 27.2352C63.1717 26.7918 63.5067 26.4035 63.8201 26.0702H64.5901V33.0002H63.6401V27.5902C63.4534 27.8035 63.2501 28.0502 63.0301 28.3302C62.8101 28.6102 62.5834 28.9085 62.35 29.2252C62.1167 29.5418 61.8817 29.8702 61.6451 30.2102C61.4084 30.5502 61.1801 30.8852 60.9601 31.2152C60.7401 31.5452 60.535 31.8635 60.345 32.1702C60.155 32.4768 59.9868 32.7535 59.8401 33.0002H59.0301ZM70.67 26.0702H71.6401V33.0002H70.67V29.8002H67.2801V33.0002H66.3101V26.0702H67.2801V28.9602H70.67V26.0702ZM73.36 33.0002V26.0702H77.5901V26.9002H74.3301V28.9602H77.23V29.7702H74.3301V32.1702H77.8401V33.0002H73.36ZM83.4301 26.0702H84.4001V33.0002H83.4301V29.8002H80.04V33.0002H79.0701V26.0702H80.04V28.9602H83.4301V26.0702ZM90.48 26.0702H91.4501V33.0002H90.48V29.8002H87.0901V33.0002H86.1201V26.0702H87.0901V28.9602H90.48V26.0702ZM92.8901 29.5302C92.8901 28.9368 92.9784 28.4135 93.1551 27.9602C93.3318 27.5068 93.5717 27.1285 93.8751 26.8252C94.1784 26.5218 94.5317 26.2935 94.9351 26.1402C95.3384 25.9868 95.7667 25.9102 96.22 25.9102C96.6667 25.9102 97.0884 25.9868 97.485 26.1402C97.8817 26.2935 98.2301 26.5218 98.5301 26.8252C98.8301 27.1285 99.0684 27.5068 99.2451 27.9602C99.4217 28.4135 99.5101 28.9368 99.5101 29.5302C99.5101 30.1235 99.4217 30.6468 99.2451 31.1002C99.0684 31.5535 98.8301 31.9318 98.5301 32.2352C98.2301 32.5385 97.8817 32.7668 97.485 32.9202C97.0884 33.0735 96.6667 33.1502 96.22 33.1502C95.7667 33.1502 95.3384 33.0735 94.9351 32.9202C94.5317 32.7668 94.1784 32.5385 93.8751 32.2352C93.5717 31.9318 93.3318 31.5535 93.1551 31.1002C92.9784 30.6468 92.8901 30.1235 92.8901 29.5302ZM93.91 29.5302C93.91 29.9502 93.9634 30.3318 94.0701 30.6752C94.1767 31.0185 94.3284 31.3102 94.5251 31.5502C94.7218 31.7902 94.9617 31.9752 95.2451 32.1052C95.5284 32.2352 95.8467 32.3002 96.2001 32.3002C96.5534 32.3002 96.8701 32.2352 97.1501 32.1052C97.4301 31.9752 97.6684 31.7902 97.8651 31.5502C98.0617 31.3102 98.2134 31.0185 98.3201 30.6752C98.4267 30.3318 98.48 29.9502 98.48 29.5302C98.48 29.1102 98.4267 28.7285 98.3201 28.3852C98.2134 28.0418 98.0617 27.7502 97.8651 27.5102C97.6684 27.2702 97.4301 27.0852 97.1501 26.9552C96.8701 26.8252 96.5534 26.7602 96.2001 26.7602C95.8467 26.7602 95.5284 26.8252 95.2451 26.9552C94.9617 27.0852 94.7218 27.2702 94.5251 27.5102C94.3284 27.7502 94.1767 28.0418 94.0701 28.3852C93.9634 28.7285 93.91 29.1102 93.91 29.5302ZM100.95 33.0002V26.0702H105.18V26.9002H101.92V28.9602H104.82V29.7702H101.92V32.1702H105.43V33.0002H100.95Z" fill="#55607A"/>
<path fill-rule="evenodd" clip-rule="evenodd" d="M29.9899 37.0702C29.7832 37.2968 29.5499 37.5485 29.2899 37.8252C29.0299 38.1018 28.7582 38.3852 28.4749 38.6752C28.1915 38.9652 27.9099 39.2502 27.6299 39.5302C27.3499 39.8102 27.0866 40.0702 26.8399 40.3102C27.1266 40.5102 27.4299 40.7568 27.7499 41.0502C28.0699 41.3435 28.3832 41.6568 28.6899 41.9902C28.9965 42.3235 29.2849 42.6635 29.5549 43.0102C29.8249 43.3568 30.0499 43.6868 30.2299 44.0002H29.0899C28.8899 43.6868 28.6599 43.3718 28.3999 43.0552C28.1399 42.7385 27.8649 42.4352 27.5749 42.1452C27.2849 41.8552 26.9916 41.5868 26.6949 41.3402C26.3982 41.0935 26.1099 40.8835 25.8299 40.7102V44.0002H24.8599V37.0702H25.8299V40.1302C26.0632 39.9102 26.3199 39.6618 26.5999 39.3852C26.8799 39.1085 27.1565 38.8302 27.4299 38.5502C27.7032 38.2702 27.9616 38.0018 28.2049 37.7452C28.4482 37.4885 28.6532 37.2635 28.8199 37.0702H29.9899ZM32.9899 37.0002C33.9632 37.0002 34.7115 37.1852 35.2349 37.5552C35.7582 37.9252 36.0199 38.4768 36.0199 39.2102C36.0199 39.6102 35.9482 39.9518 35.8049 40.2352C35.6615 40.5185 35.4549 40.7485 35.1849 40.9252C34.9149 41.1018 34.5866 41.2302 34.1999 41.3102C33.8132 41.3902 33.3766 41.4302 32.8899 41.4302H32.1199V44.0002H31.1499V37.1702C31.4232 37.1035 31.7282 37.0585 32.0649 37.0352C32.4015 37.0118 32.7099 37.0002 32.9899 37.0002ZM33.0699 37.8502C32.6566 37.8502 32.3399 37.8602 32.1199 37.8802V40.6002H32.8499C33.1832 40.6002 33.4832 40.5785 33.7499 40.5352C34.0165 40.4918 34.2415 40.4185 34.4249 40.3152C34.6082 40.2118 34.7499 40.0702 34.8499 39.8902C34.9499 39.7102 34.9999 39.4802 34.9999 39.2002C34.9999 38.9335 34.9482 38.7135 34.8448 38.5402C34.7415 38.3668 34.6015 38.2285 34.4249 38.1252C34.2482 38.0218 34.0432 37.9502 33.8099 37.9102C33.5765 37.8702 33.3299 37.8502 33.0699 37.8502ZM37.2299 44.0002V37.0702H41.4599V37.9002H38.1999V39.9602H41.0999V40.7702H38.1999V43.1702H41.7099V44.0002H37.2299ZM43.1599 44.0002V45.8502H42.2399V43.1702H42.9698C43.3099 42.7835 43.5715 42.3552 43.7549 41.8852C43.9382 41.4152 44.0716 40.9185 44.1549 40.3952C44.2382 39.8718 44.2882 39.3302 44.3049 38.7702C44.3215 38.2102 44.3332 37.6435 44.3399 37.0702H48.2599V43.1702H49.1299V45.8502H48.2099V44.0002H43.1599ZM45.2899 37.9002C45.2699 38.3402 45.2482 38.7885 45.2249 39.2452C45.2015 39.7018 45.1516 40.1552 45.0749 40.6052C44.9982 41.0552 44.8865 41.4968 44.7399 41.9302C44.5932 42.3635 44.3865 42.7768 44.1199 43.1702H47.2899V37.9002H45.2899ZM50.1699 44.0002V37.0702H51.1199V42.2002C51.3332 41.8468 51.5949 41.4435 51.9049 40.9902C52.2149 40.5368 52.5449 40.0752 52.8949 39.6052C53.2449 39.1352 53.5982 38.6785 53.9549 38.2352C54.3116 37.7918 54.6466 37.4035 54.9599 37.0702H55.7299V44.0002H54.7799V38.5902C54.5932 38.8035 54.3899 39.0502 54.1699 39.3302C53.9499 39.6102 53.7232 39.9085 53.4899 40.2252C53.2565 40.5418 53.0215 40.8702 52.7849 41.2102C52.5482 41.5502 52.3199 41.8852 52.0999 42.2152C51.8799 42.5452 51.6749 42.8635 51.4849 43.1702C51.2949 43.4768 51.1265 43.7535 50.9799 44.0002H50.1699ZM62.0799 37.0702V37.9102H59.8999V44.0002H58.9299V37.9102H56.7499V37.0702H62.0799ZM67.4599 37.0702H68.4299V44.0002H67.4599V40.8002H64.0699V44.0002H63.0999V37.0702H64.0699V39.9602H67.4599V37.0702ZM69.8699 40.5302C69.8699 39.9368 69.9582 39.4135 70.1349 38.9602C70.3116 38.5068 70.5515 38.1285 70.8549 37.8252C71.1582 37.5218 71.5115 37.2935 71.9149 37.1402C72.3182 36.9868 72.7466 36.9102 73.1999 36.9102C73.6466 36.9102 74.0682 36.9868 74.4649 37.1402C74.8616 37.2935 75.2099 37.5218 75.5099 37.8252C75.8099 38.1285 76.0482 38.5068 76.2249 38.9602C76.4015 39.4135 76.4899 39.9368 76.4899 40.5302C76.4899 41.1235 76.4015 41.6468 76.2249 42.1002C76.0482 42.5535 75.8099 42.9318 75.5099 43.2352C75.2099 43.5385 74.8616 43.7668 74.4649 43.9202C74.0682 44.0735 73.6466 44.1502 73.1999 44.1502C72.7466 44.1502 72.3182 44.0735 71.9149 43.9202C71.5115 43.7668 71.1582 43.5385 70.8549 43.2352C70.5515 42.9318 70.3116 42.5535 70.1349 42.1002C69.9582 41.6468 69.8699 41.1235 69.8699 40.5302ZM70.8899 40.5302C70.8899 40.9502 70.9432 41.3318 71.0499 41.6752C71.1565 42.0185 71.3082 42.3102 71.5049 42.5502C71.7015 42.7902 71.9415 42.9752 72.2249 43.1052C72.5082 43.2352 72.8265 43.3002 73.1799 43.3002C73.5332 43.3002 73.8499 43.2352 74.1299 43.1052C74.4099 42.9752 74.6482 42.7902 74.8448 42.5502C75.0415 42.3102 75.1932 42.0185 75.2999 41.6752C75.4065 41.3318 75.4599 40.9502 75.4599 40.5302C75.4599 40.1102 75.4065 39.7285 75.2999 39.3852C75.1932 39.0418 75.0415 38.7502 74.8448 38.5102C74.6482 38.2702 74.4099 38.0852 74.1299 37.9552C73.8499 37.8252 73.5332 37.7602 73.1799 37.7602C72.8265 37.7602 72.5082 37.8252 72.2249 37.9552C71.9415 38.0852 71.7015 38.2702 71.5049 38.5102C71.3082 38.7502 71.1565 39.0418 71.0499 39.3852C70.9432 39.7285 70.8899 40.1102 70.8899 40.5302ZM77.9299 44.0002V37.0702H82.1599V37.9002H78.8999V39.9602H81.7999V40.7702H78.8999V43.1702H82.4099V44.0002H77.9299ZM86.9199 37.9002V39.6602H87.7799C88.2666 39.6602 88.7016 39.7002 89.0849 39.7802C89.4682 39.8602 89.7932 39.9885 90.0599 40.1652C90.3265 40.3418 90.5299 40.5685 90.6699 40.8452C90.8099 41.1218 90.8799 41.4602 90.8799 41.8602C90.8799 42.5935 90.6132 43.1452 90.0799 43.5152C89.5466 43.8852 88.7932 44.0702 87.8199 44.0702C87.6799 44.0702 87.5282 44.0668 87.3649 44.0602C87.2015 44.0535 87.0382 44.0435 86.8749 44.0302C86.7115 44.0168 86.5499 44.0002 86.3899 43.9802C86.2299 43.9602 86.0832 43.9335 85.9499 43.9002V37.0702H90.2299V37.9002H86.9199ZM87.8999 43.2202C88.1599 43.2202 88.4082 43.2002 88.6449 43.1602C88.8816 43.1202 89.0899 43.0485 89.2699 42.9452C89.4499 42.8418 89.5932 42.7035 89.6999 42.5302C89.8066 42.3568 89.8599 42.1368 89.8599 41.8702C89.8599 41.5902 89.8116 41.3602 89.7149 41.1802C89.6182 41.0002 89.4799 40.8568 89.2999 40.7502C89.1199 40.6435 88.8982 40.5685 88.6349 40.5252C88.3716 40.4818 88.0732 40.4602 87.7399 40.4602H86.9199V43.1902C86.9932 43.1968 87.0799 43.2035 87.1799 43.2102C87.2665 43.2168 87.3699 43.2202 87.4899 43.2202H87.8999ZM97.8299 36.9202C98.2566 36.9202 98.6615 36.9968 99.0449 37.1502C99.4282 37.3035 99.7649 37.5318 100.055 37.8352C100.345 38.1385 100.575 38.5152 100.745 38.9652C100.915 39.4152 101 39.9368 101 40.5302C101 41.1235 100.917 41.6452 100.75 42.0952C100.583 42.5452 100.355 42.9218 100.065 43.2252C99.7749 43.5285 99.4382 43.7568 99.0549 43.9102C98.6715 44.0635 98.2632 44.1402 97.8299 44.1402C97.4099 44.1402 97.0132 44.0685 96.6399 43.9252C96.2666 43.7818 95.9382 43.5702 95.6549 43.2902C95.3716 43.0102 95.1416 42.6618 94.9649 42.2452C94.7882 41.8285 94.6865 41.3435 94.6599 40.7902H93.1099V44.0002H92.1399V37.0702H93.1099V39.9602H94.6899C94.7432 39.4602 94.8632 39.0202 95.0499 38.6402C95.2365 38.2602 95.4699 37.9435 95.7499 37.6902C96.0299 37.4368 96.3482 37.2452 96.7049 37.1152C97.0616 36.9852 97.4366 36.9202 97.8299 36.9202ZM97.8299 43.2902C98.1699 43.2902 98.4732 43.2252 98.7399 43.0952C99.0065 42.9652 99.2315 42.7802 99.4149 42.5402C99.5982 42.3002 99.7382 42.0102 99.8349 41.6702C99.9316 41.3302 99.9799 40.9502 99.9799 40.5302C99.9799 40.1102 99.9316 39.7302 99.8349 39.3902C99.7382 39.0502 99.5982 38.7602 99.4149 38.5202C99.2315 38.2802 99.0065 38.0952 98.7399 37.9652C98.4732 37.8352 98.1699 37.7702 97.8299 37.7702C97.4899 37.7702 97.1865 37.8352 96.9199 37.9652C96.6532 38.0952 96.4265 38.2802 96.2399 38.5202C96.0532 38.7602 95.9115 39.0502 95.8149 39.3902C95.7182 39.7302 95.6699 40.1102 95.6699 40.5302C95.6699 40.9502 95.7182 41.3302 95.8149 41.6702C95.9115 42.0102 96.0532 42.3002 96.2399 42.5402C96.4265 42.7802 96.6532 42.9652 96.9199 43.0952C97.1865 43.2252 97.4899 43.2902 97.8299 43.2902ZM104.28 37.0002C105.253 37.0002 106.002 37.1852 106.525 37.5552C107.048 37.9252 107.31 38.4768 107.31 39.2102C107.31 39.6102 107.238 39.9518 107.095 40.2352C106.952 40.5185 106.745 40.7485 106.475 40.9252C106.205 41.1018 105.877 41.2302 105.49 41.3102C105.103 41.3902 104.667 41.4302 104.18 41.4302H103.41V44.0002H102.44V37.1702C102.713 37.1035 103.018 37.0585 103.355 37.0352C103.692 37.0118 104 37.0002 104.28 37.0002ZM104.36 37.8502C103.947 37.8502 103.63 37.8602 103.41 37.8802V40.6002H104.14C104.473 40.6002 104.773 40.5785 105.04 40.5352C105.307 40.4918 105.532 40.4185 105.715 40.3152C105.898 40.2118 106.04 40.0702 106.14 39.8902C106.24 39.7102 106.29 39.4802 106.29 39.2002C106.29 38.9335 106.238 38.7135 106.135 38.5402C106.032 38.3668 105.892 38.2285 105.715 38.1252C105.538 38.0218 105.333 37.9502 105.1 37.9102C104.867 37.8702 104.62 37.8502 104.36 37.8502ZM108.24 40.5302C108.24 39.9368 108.328 39.4135 108.505 38.9602C108.682 38.5068 108.922 38.1285 109.225 37.8252C109.528 37.5218 109.882 37.2935 110.285 37.1402C110.688 36.9868 111.117 36.9102 111.57 36.9102C112.017 36.9102 112.438 36.9868 112.835 37.1402C113.232 37.2935 113.58 37.5218 113.88 37.8252C114.18 38.1285 114.418 38.5068 114.595 38.9602C114.772 39.4135 114.86 39.9368 114.86 40.5302C114.86 41.1235 114.772 41.6468 114.595 42.1002C114.418 42.5535 114.18 42.9318 113.88 43.2352C113.58 43.5385 113.232 43.7668 112.835 43.9202C112.438 44.0735 112.017 44.1502 111.57 44.1502C111.117 44.1502 110.688 44.0735 110.285 43.9202C109.882 43.7668 109.528 43.5385 109.225 43.2352C108.922 42.9318 108.682 42.5535 108.505 42.1002C108.328 41.6468 108.24 41.1235 108.24 40.5302ZM109.26 40.5302C109.26 40.9502 109.313 41.3318 109.42 41.6752C109.527 42.0185 109.678 42.3102 109.875 42.5502C110.072 42.7902 110.312 42.9752 110.595 43.1052C110.878 43.2352 111.197 43.3002 111.55 43.3002C111.903 43.3002 112.22 43.2352 112.5 43.1052C112.78 42.9752 113.018 42.7902 113.215 42.5502C113.412 42.3102 113.563 42.0185 113.67 41.6752C113.777 41.3318 113.83 40.9502 113.83 40.5302C113.83 40.1102 113.777 39.7285 113.67 39.3852C113.563 39.0418 113.412 38.7502 113.215 38.5102C113.018 38.2702 112.78 38.0852 112.5 37.9552C112.22 37.8252 111.903 37.7602 111.55 37.7602C111.197 37.7602 110.878 37.8252 110.595 37.9552C110.312 38.0852 110.072 38.2702 109.875 38.5102C109.678 38.7502 109.527 39.0418 109.42 39.3852C109.313 39.7285 109.26 40.1102 109.26 40.5302Z" fill="#55607A"/>
<path d="M10.5 48C12.433 48 14 46.433 14 44.5C14 42.567 12.433 41 10.5 41C8.567 41 7 42.567 7 44.5C7 46.433 8.567 48 10.5 48Z" fill="#55607A"/>
<path d="M5.5 40C7.433 40 9 38.433 9 36.5C9 34.567 7.433 33 5.5 33C3.567 33 2 34.567 2 36.5C2 38.433 3.567 40 5.5 40Z" fill="#55607A"/>
<path d="M3.5 31C5.433 31 7 29.433 7 27.5C7 25.567 5.433 24 3.5 24C1.567 24 0 25.567 0 27.5C0 29.433 1.567 31 3.5 31Z" fill="#55607A"/>
<path d="M5.5 22C7.433 22 9 20.433 9 18.5C9 16.567 7.433 15 5.5 15C3.567 15 2 16.567 2 18.5C2 20.433 3.567 22 5.5 22Z" fill="#55607A"/>
<path d="M10.5 14C12.433 14 14 12.433 14 10.5C14 8.567 12.433 7 10.5 7C8.567 7 7 8.567 7 10.5C7 12.433 8.567 14 10.5 14Z" fill="#55607A"/>
<path d="M18.5 9C20.433 9 22 7.433 22 5.5C22 3.567 20.433 2 18.5 2C16.567 2 15 3.567 15 5.5C15 7.433 16.567 9 18.5 9Z" fill="#55607A"/>
<path d="M27.5 7C29.433 7 31 5.433 31 3.5C31 1.567 29.433 0 27.5 0C25.567 0 24 1.567 24 3.5C24 5.433 25.567 7 27.5 7Z" fill="#55607A"/>
<path d="M36.5 9C38.433 9 40 7.433 40 5.5C40 3.567 38.433 2 36.5 2C34.567 2 33 3.567 33 5.5C33 7.433 34.567 9 36.5 9Z" fill="#55607A"/>
<path d="M44.5 14C46.433 14 48 12.433 48 10.5C48 8.567 46.433 7 44.5 7C42.567 7 41 8.567 41 10.5C41 12.433 42.567 14 44.5 14Z" fill="#55607A"/>
<path d="M33.5 15C34.8807 15 36 13.8807 36 12.5C36 11.1193 34.8807 10 33.5 10C32.1193 10 31 11.1193 31 12.5C31 13.8807 32.1193 15 33.5 15Z" fill="#55607A"/>
<path d="M27.5 14C28.8807 14 30 12.8807 30 11.5C30 10.1193 28.8807 9 27.5 9C26.1193 9 25 10.1193 25 11.5C25 12.8807 26.1193 14 27.5 14Z" fill="#55607A"/>
<path d="M21.5 15C22.8807 15 24 13.8807 24 12.5C24 11.1193 22.8807 10 21.5 10C20.1193 10 19 11.1193 19 12.5C19 13.8807 20.1193 15 21.5 15Z" fill="#55607A"/>
<path d="M16.5 18C17.8807 18 19 16.8807 19 15.5C19 14.1193 17.8807 13 16.5 13C15.1193 13 14 14.1193 14 15.5C14 16.8807 15.1193 18 16.5 18Z" fill="#55607A"/>
<path d="M12.5 23C13.8807 23 15 21.8807 15 20.5C15 19.1193 13.8807 18 12.5 18C11.1193 18 10 19.1193 10 20.5C10 21.8807 11.1193 23 12.5 23Z" fill="#55607A"/>
<path d="M11.5 30C12.8807 30 14 28.8807 14 27.5C14 26.1193 12.8807 25 11.5 25C10.1193 25 9 26.1193 9 27.5C9 28.8807 10.1193 30 11.5 30Z" fill="#55607A"/>
<path d="M12.5 36C13.8807 36 15 34.8807 15 33.5C15 32.1193 13.8807 31 12.5 31C11.1193 31 10 32.1193 10 33.5C10 34.8807 11.1193 36 12.5 36Z" fill="#55607A"/>
<path d="M16.5 41C17.8807 41 19 39.8807 19 38.5C19 37.1193 17.8807 36 16.5 36C15.1193 36 14 37.1193 14 38.5C14 39.8807 15.1193 41 16.5 41Z" fill="#55607A"/>
<path d="M20.5 36C21.3284 36 22 35.3284 22 34.5C22 33.6716 21.3284 33 20.5 33C19.6716 33 19 33.6716 19 34.5C19 35.3284 19.6716 36 20.5 36Z" fill="#55607A"/>
<path d="M17.5 33C18.3284 33 19 32.3284 19 31.5C19 30.6716 18.3284 30 17.5 30C16.6716 30 16 30.6716 16 31.5C16 32.3284 16.6716 33 17.5 33Z" fill="#55607A"/>
<path d="M17.5 29C18.3284 29 19 28.3284 19 27.5C19 26.6716 18.3284 26 17.5 26C16.6716 26 16 26.6716 16 27.5C16 28.3284 16.6716 29 17.5 29Z" fill="#55607A"/>
<path d="M17.5 25C18.3284 25 19 24.3284 19 23.5C19 22.6716 18.3284 22 17.5 22C16.6716 22 16 22.6716 16 23.5C16 24.3284 16.6716 25 17.5 25Z" fill="#55607A"/>
<path d="M19.5 21C20.3284 21 21 20.3284 21 19.5C21 18.6716 20.3284 18 19.5 18C18.6716 18 18 18.6716 18 19.5C18 20.3284 18.6716 21 19.5 21Z" fill="#55607A"/>
<path d="M23.5 19C24.3284 19 25 18.3284 25 17.5C25 16.6716 24.3284 16 23.5 16C22.6716 16 22 16.6716 22 17.5C22 18.3284 22.6716 19 23.5 19Z" fill="#55607A"/>
<path d="M27.5 18C28.3284 18 29 17.3284 29 16.5C29 15.6716 28.3284 15 27.5 15C26.6716 15 26 15.6716 26 16.5C26 17.3284 26.6716 18 27.5 18Z" fill="#55607A"/>
<path d="M31.5 19C32.3284 19 33 18.3284 33 17.5C33 16.6716 32.3284 16 31.5 16C30.6716 16 30 16.6716 30 17.5C30 18.3284 30.6716 19 31.5 19Z" fill="#55607A"/>
<path d="M35.5 22C36.3284 22 37 21.3284 37 20.5C37 19.6716 36.3284 19 35.5 19C34.6716 19 34 19.6716 34 20.5C34 21.3284 34.6716 22 35.5 22Z" fill="#55607A"/>
<path d="M38.5 18C39.8807 18 41 16.8807 41 15.5C41 14.1193 39.8807 13 38.5 13C37.1193 13 36 14.1193 36 15.5C36 16.8807 37.1193 18 38.5 18Z" fill="#55607A"/>
<path fill-rule="evenodd" clip-rule="evenodd" d="M226.843 12.1203C226.691 13.2947 226.261 13.1901 226.067 13.133C225.858 13.0721 225.801 12.9844 225.172 12.9256C224.974 12.9067 224.057 12.8038 224.548 13.1901C225.336 13.8203 226.006 15.0993 226.006 15.0993C226.097 14.6824 225.884 14.0869 225.77 13.8791C225.652 13.6679 225.801 13.6108 225.945 13.6394C226.097 13.6679 226.181 13.725 226.455 13.8791C226.722 14.0257 226.9 13.9992 226.962 13.6394C227.011 13.3288 226.996 12.6954 226.935 12.1224C226.927 12.0804 226.859 12.0597 226.843 12.1203ZM219.896 10.6852C218.346 11.9397 215.796 14.9396 214.593 17.7507C214.501 17.9602 214.593 17.9925 214.89 17.8119C215.19 17.631 216.055 17.2158 216.47 17.0961C216.47 17.0961 216.02 18.653 215.872 19.5113C215.754 20.2178 216.34 20.1624 216.706 20.0785C217.071 19.9967 218.586 19.9302 218.853 19.8979C218.853 19.8979 217.452 19.5684 217.304 19.0015C217.155 18.438 217.555 17.178 217.84 16.3232C217.901 16.1405 217.81 15.876 217.513 15.9919C217.212 16.1102 216.797 16.1996 216.588 16.3232C216.588 16.3232 217.901 13.1027 219.926 10.7764L219.896 10.6852ZM221.864 7.47028C221.952 7.37151 221.864 7.2911 221.628 7.44173C221.388 7.58827 220.337 8.22018 219.629 9.40622C219.542 9.55626 219.595 9.77913 219.972 9.64978C220.433 9.4878 220.909 9.40622 221.118 9.37563C221.327 9.34504 221.327 9.1985 221.179 9.14139C221.031 9.07876 220.996 9.02136 221.061 8.78188C221.118 8.54386 221.537 7.85688 221.864 7.47028ZM208.163 27.7355C208.345 27.5109 208.727 27.1951 209.229 26.9474C209.945 26.5856 211.985 26.3496 213.116 26.365C213.786 26.3723 214.235 26.6771 214.547 26.9894C214.859 27.3014 214.323 27.3471 214.056 27.1225C213.786 26.9017 213.489 26.8256 213.176 26.8256C212.865 26.8256 212.533 26.9474 212.358 27.0768C212.179 27.2137 212.134 27.3967 211.688 27.5257C211.148 27.6781 210.523 27.191 210.523 27.191C210.961 28.0172 211.715 27.9904 212.134 27.8879C212.438 27.8077 212.533 27.6667 212.982 27.6592C213.698 27.6478 214.011 28.063 214.011 28.063C213.116 28.0172 211.601 28.5769 210.881 28.7327C209.987 28.9308 209.138 28.9574 209.138 28.9574C209.716 29.6732 210.569 29.6732 211.197 29.6732C211.821 29.6732 213.831 29.5246 215.038 29.6274C216.553 29.753 217.764 30.7468 217.764 32.2201C217.764 33.6931 216.74 34.4963 216.74 34.4963C218.034 34.0969 218.571 33.0687 218.571 33.0687C219.26 35.726 217.829 37.8505 216.519 38.7184C215.431 39.4415 212.164 40.1879 209.655 38.9887C206.88 37.6602 205.829 36.3658 205.829 36.3658C211.863 36.8567 214.814 35.1856 214.814 35.1856C209.362 35.5014 205.559 34.1231 203.1 33.046C202.118 31.4853 201.402 29.7798 200.983 27.9257V27.9295C205.494 31.3251 209.496 31.9077 209.496 31.9077C204.623 29.2697 202.198 26.3155 200.587 23.3698C200.671 21.6491 201.014 20.0407 201.577 18.4969L201.588 18.4701C203.397 23.2803 205.384 24.7126 205.384 24.7126C203.416 20.2388 203.431 17.0352 203.61 14.6215C204.364 13.5517 205.22 12.604 206.199 11.7395L206.214 11.7224C205.453 16.0167 206.366 18.8074 206.366 18.8074C206.366 15.4113 208.273 11.3704 209.793 9.31095C210.756 8.82937 211.684 8.47335 212.739 8.17823H212.743C211.357 9.92014 210.748 11.6102 210.748 11.6102C213.592 8.90366 218.301 7.27799 219.016 7.09532C219.732 6.92023 221.792 6.15867 222.374 6.02757C222.907 5.89996 223.166 6.23879 223.132 6.56247C223.087 6.98287 222.907 7.6815 222.907 7.6815C224.487 8.06606 225.172 8.84277 225.172 8.84277C225.112 8.6333 225.142 8.27554 225.142 8.27554C227.319 10.2129 227.913 11.1365 227.974 12.893C228.035 14.6518 228.808 14.9204 229.254 15.1581C229.703 15.3964 230.807 16.0263 231.161 16.3232C231.427 16.5478 231.313 16.7992 231.161 16.9781C231.012 17.1549 231.012 17.2158 230.985 17.4233C230.852 18.3369 230.445 18.7063 229.881 18.912C229.314 19.1194 228.686 18.7937 228.686 18.7937C228.062 19.4792 227.943 19.0318 227.913 18.7655C227.887 18.4969 227.555 18.7063 227.319 18.7937C227.08 18.8832 226.992 18.556 226.992 18.556C225.858 18.4074 225.363 19.0775 225.363 19.0775C226.349 19.2109 226.843 19.8807 226.885 20.149C226.931 20.4232 227.377 20.2388 227.377 20.2388C227.377 20.2388 227.419 20.149 227.601 20.0616C227.78 19.9719 227.826 20.0159 227.78 20.2388C227.735 20.4611 227.689 20.6423 227.689 20.6423L228.184 20.9563C228.001 22.1651 227.468 22.1132 227.198 21.9821C225.48 21.1239 222.416 20.9563 222.416 20.9563C222.595 20.6877 223.025 20.3434 223.025 20.3434C215.16 20.3434 213.831 21.2987 213.428 21.8033C213.15 22.1534 213.39 22.6959 213.39 22.6959C212.453 22.8751 210.078 23.4747 209.168 24.3091C208.292 25.1088 208 26.9853 207.969 27.6781C207.961 27.8229 208.102 27.8191 208.163 27.7355ZM228.831 36.1412L228.846 36.1295C228.031 36.9255 227.156 37.6258 226.193 38.2385C226.402 37.8505 227.141 35.726 225.801 32.9204C224.457 30.1224 222.637 28.5996 220.878 27.408C219.123 26.2164 216.26 25.318 215.693 25.1429C215.13 24.964 215.16 24.7851 215.278 24.4273C215.396 24.0693 215.933 23.2366 215.933 23.2366C215.693 23.2634 215.038 23.4726 214.715 23.623C214.383 23.7715 214.117 23.7409 214.026 23.6515C213.424 23.0481 214.681 21.8662 214.681 21.8662C214.715 22.281 214.859 22.4902 215.484 22.399C216.112 22.3134 218.198 22.1307 218.674 22.1307C218.674 22.1307 216.409 23.8875 216.02 24.4841C215.636 25.082 216.26 24.964 216.561 25.0249C216.858 25.082 219.047 25.2038 221.148 26.1556C222.218 26.6392 223.657 27.7506 224.487 28.7441C224.784 29.1057 225.53 29.9966 225.858 30.2669C225.858 30.2669 224.666 30.088 224.038 29.7303C224.038 29.7303 224.685 30.4726 225.123 31.0017C226.196 32.2999 228.13 33.7959 228.831 36.1412ZM232.751 30.202C232.394 31.131 231.968 32.0027 231.457 32.8441C229.577 27.545 224.308 25.4397 224.308 25.4397C228.001 26.3001 231.028 28.8012 232.751 30.202ZM222.408 40.0393L222.401 40.0431C221.38 40.3781 220.254 40.622 219.157 40.7513C223.059 38.8742 222.938 33.187 222.938 33.187C223.593 35.6042 222.972 38.7259 222.408 40.0393ZM233.86 23.9932C233.863 24.0844 233.863 24.1302 233.863 24.2138C233.863 24.9031 233.818 25.577 233.742 26.2354V26.2622C230.864 23.5315 227.974 22.281 227.974 22.281C229.223 22.4599 230.715 22.3399 231.697 22.0754C231.697 22.0754 231.279 22.8483 230.235 22.9054C230.235 22.9054 233.354 23.7884 233.86 23.9932ZM217.163 6.43865C207.345 6.43865 199.385 14.3986 199.385 24.2138C199.385 34.0357 207.345 42 217.163 42C226.984 42 234.945 34.0357 234.945 24.2138C234.945 17.3321 231.023 11.3742 225.298 8.42004C225.245 8.37051 225.199 8.32681 225.142 8.27554C225.142 8.27554 225.138 8.30205 225.138 8.34225C224.441 7.99002 223.714 7.68528 222.968 7.42658C223.025 7.18476 223.101 6.82671 223.132 6.56247C223.166 6.23879 222.907 5.89996 222.374 6.02757C222.005 6.10914 221.057 6.44039 220.227 6.72037C219.23 6.54702 218.21 6.43865 217.163 6.43865Z" fill="#55607A"/>
<path fill-rule="evenodd" clip-rule="evenodd" d="M386.991 26.5101L388.03 24.1728L389.058 26.5101H386.991ZM393.213 28.8527L389.402 20.1929H385.645C386.133 20.5425 386.684 21.1306 386.906 21.6448L383.716 28.858C383.387 29.6051 383.138 29.9547 382.349 30.6859H386.122C385.645 30.1457 385.597 29.6846 385.794 29.2287C385.794 29.2287 385.995 28.7623 386.127 28.4496H389.916L390.256 29.2287C390.478 29.7219 390.478 30.0236 389.937 30.6859H394.659C393.881 30.0025 393.562 29.6424 393.213 28.8527Z" fill="#55607A"/>
<path fill-rule="evenodd" clip-rule="evenodd" d="M282.779 21.8462C284.321 21.8462 284.665 22.3495 285.407 23.2665L286.97 19.6841C286.398 20.039 285.864 20.32 285.174 20.32C284.369 20.32 283.965 20.0126 282.662 20.0126C279.344 20.0126 277.108 22.1909 277.108 25.4339C277.108 28.741 279.128 30.882 282.498 30.882C284.363 30.882 285.688 30.0287 286.573 28.7941L285.81 27.0717C284.978 28.2588 284.093 29.0537 282.779 29.0484C281.098 29.0484 280.113 27.4111 280.113 25.4339C280.113 23.5314 281.025 21.8462 282.779 21.8462Z" fill="#55607A"/>
<path fill-rule="evenodd" clip-rule="evenodd" d="M296.601 28.7465L293.379 24.8619L296.405 21.979C297.316 21.1152 297.741 20.7704 298.652 20.1929H293.718C294.312 20.8446 294.375 21.0884 293.951 21.5017C293.957 21.5017 291.005 24.3107 291.005 24.3107V21.8359C291.005 21.0831 291.28 20.6487 291.72 20.1929H287.396C287.846 20.6487 288.117 21.0831 288.117 21.8359V29.0486C288.117 29.7957 287.846 30.2252 287.396 30.6859H291.72C291.28 30.2252 291.005 29.7957 291.005 29.0486V26.4306L293.432 29.3398C293.851 29.8436 293.707 30.1035 293.225 30.6859H298.752C297.783 30.0236 297.401 29.7166 296.601 28.7465Z" fill="#55607A"/>
<path fill-rule="evenodd" clip-rule="evenodd" d="M309.489 20.1929H305.17C305.61 20.6487 305.885 21.0831 305.885 21.8359V21.8784L302.482 25.9005V21.8359C302.482 21.0831 302.753 20.6487 303.198 20.1929H298.879C299.319 20.6487 299.594 21.0831 299.594 21.8359V29.0486C299.594 29.7957 299.319 30.2252 298.879 30.6859H303.198C302.753 30.2252 302.482 29.7957 302.482 29.0486V28.9691L305.885 24.9414V29.0486C305.885 29.7957 305.61 30.2252 305.17 30.6859H309.489C309.05 30.2252 308.774 29.7957 308.774 29.0486V21.8359C308.774 21.0831 309.05 20.6487 309.489 20.1929Z" fill="#55607A"/>
<path fill-rule="evenodd" clip-rule="evenodd" d="M264.247 20.1929C264.522 20.6435 264.607 20.9614 264.326 21.6554C264.321 21.6554 263.102 24.5966 262.44 26.1918L260.489 21.6554C260.224 21.0673 260.219 20.7124 260.532 20.1929H255.99C256.621 20.7651 256.954 21.2372 257.352 22.0265C257.346 22.0265 260.351 28.6248 260.892 29.8225C260.171 31.5024 259.551 32.1647 258.73 32.1647C257.68 32.1647 257.241 31.4809 256.636 30.3578L255.587 32.5889C256.17 33.1985 257.182 34.0518 258.667 34.0518C261.104 34.0518 262.069 32.2547 263.001 30.0768L266.446 22.0107C266.817 21.163 267.151 20.6751 267.591 20.1929H264.247Z" fill="#55607A"/>
<path fill-rule="evenodd" clip-rule="evenodd" d="M249.816 20.7007H250.389C251.909 20.7007 252.9 21.1935 252.9 22.7679C252.9 24.3631 252.164 25.1049 250.584 25.1049H249.816V20.7007ZM254.941 19.954C254.035 19.0476 252.646 18.5649 250.929 18.5649H245.958C246.546 19.1429 246.763 19.5724 246.763 20.399V28.8463C246.763 29.6785 246.546 30.1028 245.958 30.6852H250.616C250.028 30.1028 249.816 29.6785 249.816 28.8463V27.2512H250.929C252.545 27.2512 253.944 26.7373 254.872 25.8098C255.646 25.0359 256.054 23.9867 256.054 22.7837C256.054 21.6603 255.667 20.6849 254.941 19.954Z" fill="#55607A"/>
<path fill-rule="evenodd" clip-rule="evenodd" d="M272.917 29.0484C271.248 29.0484 270.257 27.4111 270.257 25.4339C270.257 23.5314 271.174 21.8462 272.917 21.8462C274.47 21.8462 274.81 22.3495 275.556 23.2665L277.11 19.6841C276.543 20.039 276.006 20.32 275.318 20.32C274.512 20.32 274.11 20.0126 272.806 20.0126C269.488 20.0126 267.257 22.1909 267.257 25.4339C267.257 28.741 269.277 30.882 272.642 30.882C274.507 30.882 275.832 30.0287 276.722 28.7941L275.954 27.0717C275.122 28.2588 274.243 29.0537 272.917 29.0484Z" fill="#55607A"/>
<path fill-rule="evenodd" clip-rule="evenodd" d="M370.679 20.1929H366.355C366.8 20.6487 367.075 21.0831 367.075 21.8359V24.3001H363.954V21.8359C363.954 21.0831 364.218 20.6487 364.669 20.1929H360.345C360.79 20.6487 361.066 21.0831 361.066 21.8359V29.0486C361.066 29.7957 360.79 30.2252 360.345 30.6859H364.669C364.218 30.2252 363.954 29.7957 363.954 29.0486V26.2664H367.075V29.0486C367.075 29.7957 366.8 30.2252 366.355 30.6859H370.679C370.234 30.2252 369.959 29.7957 369.959 29.0486V21.8359C369.959 21.0831 370.234 20.6487 370.679 20.1929Z" fill="#55607A"/>
<path fill-rule="evenodd" clip-rule="evenodd" d="M352.628 26.5101L353.667 24.1728L354.69 26.5101H352.628ZM358.85 28.8527L355.029 20.1929H351.277C351.77 20.5425 352.31 21.1306 352.539 21.6448L349.353 28.858C349.019 29.6051 348.77 29.9547 347.98 30.6859H351.754C351.277 30.1457 351.224 29.6846 351.42 29.2287C351.42 29.2287 351.627 28.7623 351.764 28.4496H355.554L355.887 29.2287C356.11 29.7219 356.11 30.0236 355.575 30.6859H360.292C359.518 30.0025 359.195 29.6424 358.85 28.8527Z" fill="#55607A"/>
<path fill-rule="evenodd" clip-rule="evenodd" d="M311.159 30.6859H315.483C315.044 30.2252 314.769 29.7957 314.769 29.0486V28.9691L318.171 24.9414V29.0486C318.171 29.7957 317.895 30.2252 317.455 30.6859H321.775C321.335 30.2252 321.059 29.7957 321.059 29.0486V21.8359C321.059 21.0831 321.335 20.6487 321.775 20.1929H317.455C317.895 20.6487 318.171 21.0831 318.171 21.8359V21.8784L314.769 25.9005V21.8359C314.769 21.0831 315.044 20.6487 315.483 20.1929H311.159C311.61 20.6487 311.88 21.0831 311.88 21.8359V29.0486C311.88 29.7957 311.61 30.2252 311.159 30.6859Z" fill="#55607A"/>
<path fill-rule="evenodd" clip-rule="evenodd" d="M377.717 28.7148H375.317C375.666 28.0363 375.735 27.2572 375.735 26.1236V22.3712C375.735 22.2544 375.778 22.1644 375.936 22.1644H377.871V28.5185C377.871 28.6723 377.829 28.7148 377.717 28.7148ZM380.76 28.0947V21.8359C380.76 21.0831 381.035 20.6487 381.475 20.1929H372.884C373.329 20.6487 373.599 21.0831 373.599 21.8359V26.1236C373.599 27.9463 373.271 28.7201 371.564 29.4193V31.9736C372.412 31.216 373.663 30.6859 374.813 30.6859H378.708C380.091 30.6859 381.204 31.3803 381.957 31.9736V29.3398C381.22 29.1176 380.76 28.8633 380.76 28.0947Z" fill="#55607A"/>
<path fill-rule="evenodd" clip-rule="evenodd" d="M398.312 22.1433H398.762C399.52 22.1433 400.034 22.2966 400.353 22.6093C400.617 22.8798 400.75 23.2773 400.75 23.8337C400.75 25.1798 400.183 25.7736 398.927 25.7736H398.312V22.1433ZM403.585 23.0599C403.457 22.4134 403.161 21.8464 402.705 21.3905C401.921 20.6114 400.713 20.1929 399.218 20.1929H394.714C395.154 20.6487 395.429 21.0831 395.429 21.8359V29.0486C395.429 29.7957 395.154 30.2252 394.714 30.6859H399.032C398.588 30.2252 398.312 29.7957 398.312 29.0486V27.7447H399.218C400.617 27.7447 401.831 27.2998 402.642 26.4943C403.31 25.8158 403.67 24.9045 403.67 23.8548C403.67 23.6427 403.654 23.4415 403.622 23.2452C404.433 22.6413 405.191 22.1591 406.06 22.1591L407.384 22.1644V29.0486C407.384 29.7957 407.115 30.2252 406.669 30.6859H410.988C410.549 30.2252 410.273 29.7957 410.273 29.0486V22.1644H411.195C412.075 22.1644 412.271 22.3075 412.801 23.1183L414.084 20.1929H404.82L403.585 23.0599Z" fill="#55607A"/>
<path fill-rule="evenodd" clip-rule="evenodd" d="M339.64 28.5239L338.802 26.6798C337.949 27.9622 337.001 28.9161 335.262 28.9161C333.317 28.9161 331.913 27.072 331.913 24.5915C331.913 22.4293 333.02 20.2988 335.262 20.2988C337.037 20.2988 337.647 20.9985 338.326 21.8992L340.027 18.0361C339.402 18.4389 338.807 18.6615 338.076 18.6615C337.276 18.6615 336.407 18.301 335.125 18.301C331.267 18.301 328.68 20.8342 328.68 24.5915C328.68 28.2433 331.017 30.9144 334.939 30.9144C337.16 30.9144 338.675 29.9074 339.64 28.5239Z" fill="#55607A"/>
<path fill-rule="evenodd" clip-rule="evenodd" d="M342.908 29.0486C342.908 29.7957 342.639 30.2252 342.194 30.6859H346.518C346.073 30.2252 345.803 29.7957 345.803 29.0486V22.1644H346.883C347.764 22.1644 347.96 22.3075 348.489 23.1183L349.772 20.1929H340.18L338.817 23.3726C339.687 22.705 340.492 22.1591 341.42 22.1591L342.908 22.1644V29.0486Z" fill="#55607A"/>
<path fill-rule="evenodd" clip-rule="evenodd" d="M250.389 20.2346H249.355V25.561H250.585C252 25.561 253.361 24.9993 253.361 22.7682C253.361 20.733 251.883 20.2346 250.389 20.2346ZM250.929 26.7956H249.355V28.8466C249.355 29.6472 249.551 30.0447 249.684 30.2247H246.859C246.986 30.0447 247.219 29.6472 247.219 28.8466V20.3992C247.219 19.599 246.986 19.2117 246.859 19.0264H250.929C253.823 19.0264 255.598 20.4682 255.598 22.784C255.598 25.5294 253.346 26.7956 250.929 26.7956Z" fill="#55607A"/>
<path fill-rule="evenodd" clip-rule="evenodd" d="M266.022 21.8356L262.577 29.8964C261.575 32.2439 260.685 33.5904 258.666 33.5904C257.452 33.5904 256.583 32.9333 256.138 32.4933L256.678 31.3431C257.203 32.2439 257.881 32.6206 258.729 32.6206C259.9 32.6206 260.637 31.6241 261.395 29.8112L257.76 21.8356C257.521 21.3059 257.288 20.8606 257.023 20.6484H259.869C259.768 20.908 259.768 21.125 260.065 21.8356L262.444 27.3684L264.744 21.8356C264.993 21.2576 265.057 20.9875 264.94 20.6484H266.668C266.403 20.9875 266.239 21.3213 266.022 21.8356Z" fill="#55607A"/>
<path fill-rule="evenodd" clip-rule="evenodd" d="M272.921 21.3896C270.754 21.3896 269.8 23.4248 269.8 25.4332C269.8 28.3538 271.539 29.4983 272.921 29.4983C274.283 29.4983 275.152 28.8462 275.842 27.9559L276.191 28.7298C275.338 29.8638 274.035 30.4206 272.641 30.4206C269.387 30.4206 267.712 28.1733 267.712 25.4332C267.712 22.4709 269.668 20.4678 272.805 20.4678C273.987 20.4678 274.697 20.7857 275.317 20.7857C275.699 20.7857 275.926 20.7484 276.208 20.6211L275.434 22.3914C274.878 21.7023 274.035 21.3896 272.921 21.3896Z" fill="#55607A"/>
<path fill-rule="evenodd" clip-rule="evenodd" d="M282.779 21.3896C280.606 21.3896 279.657 23.4248 279.657 25.4332C279.657 28.3538 281.396 29.4983 282.779 29.4983C284.136 29.4983 285.01 28.8462 285.699 27.9559L286.043 28.7298C285.19 29.8638 283.892 30.4206 282.498 30.4206C279.244 30.4206 277.569 28.1733 277.569 25.4332C277.569 22.4709 279.525 20.4678 282.663 20.4678C283.844 20.4678 284.549 20.7857 285.174 20.7857C285.551 20.7857 285.784 20.7484 286.06 20.6211L285.286 22.3914C284.729 21.7023 283.892 21.3896 282.779 21.3896Z" fill="#55607A"/>
<path fill-rule="evenodd" clip-rule="evenodd" d="M290.544 21.8356C290.544 21.1465 290.724 20.8127 290.84 20.6484H288.281C288.392 20.8127 288.572 21.1465 288.572 21.8356V29.0483C288.572 29.7317 288.392 30.0606 288.281 30.2249H290.84C290.724 30.0606 290.544 29.7317 290.544 29.0483V21.8356Z" fill="#55607A"/>
<path fill-rule="evenodd" clip-rule="evenodd" d="M297.379 30.2249C297.115 30.0286 296.685 29.5679 296.245 29.0483L292.753 24.8247L295.901 21.8356C296.59 21.1733 296.818 20.9449 297.231 20.6484H294.602C294.798 20.9291 294.862 21.2576 294.274 21.8356L290.643 25.2858L293.781 29.0483C294.305 29.6843 294.305 29.9491 294.109 30.2249H297.379Z" fill="#55607A"/>
<path fill-rule="evenodd" clip-rule="evenodd" d="M306.066 30.2249C306.183 30.0606 306.342 29.7317 306.342 29.0483V23.6903L302.022 28.7993V29.0483C302.022 29.7317 302.203 30.0606 302.325 30.2249H299.76C299.871 30.0606 300.057 29.7317 300.057 29.0483V21.8356C300.057 21.1465 299.871 20.8127 299.76 20.6484H302.325C302.203 20.8127 302.022 21.1465 302.022 21.8356V27.1559L306.342 22.0477V21.8356C306.342 21.1465 306.183 20.8127 306.066 20.6484H308.594C308.478 20.8127 308.319 21.1465 308.319 21.8356V29.0483C308.319 29.7317 308.478 30.0606 308.594 30.2249H306.066Z" fill="#55607A"/>
<path fill-rule="evenodd" clip-rule="evenodd" d="M318.356 30.2248C318.462 30.0605 318.632 29.7316 318.632 29.0482V23.6901L314.307 28.7992V29.0482C314.307 29.7316 314.493 30.0605 314.603 30.2248H312.039C312.161 30.0605 312.335 29.7316 312.335 29.0482V21.8354C312.335 21.1463 312.161 20.8125 312.039 20.6483H314.603C314.493 20.8125 314.307 21.1463 314.307 21.8354V27.1558L318.632 22.0475V21.8354C318.632 21.1463 318.462 20.8125 318.356 20.6483H320.878C320.762 20.8125 320.597 21.1463 320.597 21.8354V29.0482C320.597 29.7316 320.762 30.0605 320.878 30.2248H318.356ZM316.48 19.1432C314.821 19.1432 314.127 18.5125 314.127 17.924C314.127 17.6113 314.291 17.2512 314.545 17.0391H315.409C315.26 17.267 315.181 17.4528 315.181 17.744C315.181 18.0672 315.573 18.6768 316.48 18.6768C317.381 18.6768 317.762 18.0672 317.762 17.744C317.762 17.4528 317.677 17.267 317.53 17.0391H318.398C318.647 17.2512 318.812 17.6113 318.812 17.924C318.812 18.5125 318.138 19.1432 316.48 19.1432Z" fill="#55607A"/>
<path fill-rule="evenodd" clip-rule="evenodd" d="M335.261 19.8477C332.717 19.8477 331.451 22.2276 331.451 24.5909C331.451 28.0253 333.639 29.3714 335.261 29.3714C336.862 29.3714 337.89 28.6138 338.696 27.5642L339.109 28.4706C338.107 29.8111 336.581 30.458 334.938 30.458C331.128 30.458 329.135 27.8079 329.135 24.5909C329.135 21.1094 331.435 18.7559 335.113 18.7559C336.512 18.7559 337.339 19.1221 338.075 19.1221C338.536 19.1221 338.796 19.0848 339.125 18.9416L338.208 21.0247C337.551 20.2188 336.581 19.8477 335.261 19.8477Z" fill="#55607A"/>
<path fill-rule="evenodd" clip-rule="evenodd" d="M348.383 22.2278C347.986 21.7188 347.408 21.7029 346.883 21.7029H345.341V29.0483C345.341 29.7317 345.522 30.0606 345.639 30.2249H343.073C343.19 30.0606 343.37 29.7317 343.37 29.0483V21.7029H342.072C341.351 21.7029 340.662 21.6129 339.787 22.2278L340.477 20.6484H349.068L348.383 22.2278Z" fill="#55607A"/>
<path fill-rule="evenodd" clip-rule="evenodd" d="M353.668 23.028L351.918 26.9762H355.395L353.668 23.028ZM356.376 30.2249C356.492 30.0606 356.593 29.6843 356.307 29.0483L355.851 27.9934H351.468L351.002 29.0483C350.721 29.6843 350.827 30.0606 350.938 30.2249H349.02C349.232 30.0128 349.46 29.7317 349.773 29.0483L353.043 21.634L353.011 21.5654C352.815 21.1096 352.597 20.8443 352.369 20.6484H354.733L358.427 29.0483C358.744 29.7317 358.973 30.0128 359.184 30.2249H356.376Z" fill="#55607A"/>
<path fill-rule="evenodd" clip-rule="evenodd" d="M367.235 30.2249C367.351 30.0606 367.531 29.7317 367.531 29.0483V25.8102H363.493V29.0483C363.493 29.7317 363.689 30.0606 363.79 30.2249H361.225C361.341 30.0606 361.522 29.7317 361.522 29.0483V21.8356C361.522 21.1465 361.341 20.8127 361.225 20.6484H363.79C363.689 20.8127 363.493 21.1465 363.493 21.8356V24.7557H367.531V21.8356C367.531 21.1465 367.351 20.8127 367.235 20.6484H369.799C369.698 20.8127 369.502 21.1465 369.502 21.8356V29.0483C369.502 29.7317 369.698 30.0606 369.799 30.2249H367.235Z" fill="#55607A"/>
<path fill-rule="evenodd" clip-rule="evenodd" d="M378.327 21.7029H375.83C375.518 21.7029 375.274 21.9471 375.274 22.2436V26.1233C375.274 27.5274 375.073 28.5341 374.468 29.1753H377.77C378.083 29.1753 378.327 28.9267 378.327 28.614V21.7029ZM378.708 30.2249H374.813C374.093 30.2249 372.894 30.4902 372.02 31.0993V29.7163C373.695 28.9477 374.055 27.9245 374.055 26.1233V21.8356C374.055 21.1465 373.875 20.8127 373.759 20.6484H380.595C380.478 20.8127 380.298 21.1465 380.298 21.8356V28.0944C380.298 28.7778 380.585 29.361 381.496 29.6632V31.0993C380.626 30.4902 379.429 30.2249 378.708 30.2249Z" fill="#55607A"/>
<path fill-rule="evenodd" clip-rule="evenodd" d="M388.036 23.028L386.292 26.9762H389.763L388.036 23.028ZM390.744 30.2249C390.86 30.0606 390.955 29.6843 390.68 29.0483L390.224 27.9934H385.831L385.37 29.0483C385.094 29.6843 385.195 30.0606 385.306 30.2249H383.387C383.6 30.0128 383.833 29.7317 384.145 29.0483L387.415 21.634L387.373 21.5654C387.182 21.1096 386.97 20.8443 386.737 20.6484H389.101L392.795 29.0483C393.107 29.7317 393.335 30.0128 393.553 30.2249H390.744Z" fill="#55607A"/>
<path fill-rule="evenodd" clip-rule="evenodd" d="M398.762 21.6818H397.856V26.234H398.926C400.119 26.234 401.21 25.7465 401.21 23.8334C401.21 22.0951 400.044 21.6818 398.762 21.6818ZM399.218 27.2889H397.856V29.0483C397.856 29.7317 398.057 30.0606 398.152 30.2249H395.593C395.704 30.0606 395.884 29.7317 395.884 29.0483V21.8356C395.884 21.1465 395.704 20.8127 395.593 20.6484C398.285 20.6484 399.218 20.6484 399.218 20.6484C401.704 20.6484 403.214 21.8672 403.214 23.8545C403.214 26.1971 401.29 27.2889 399.218 27.2889Z" fill="#55607A"/>
<path fill-rule="evenodd" clip-rule="evenodd" d="M412.69 22.2278C412.292 21.7188 411.719 21.7029 411.195 21.7029H409.817V29.0483C409.817 29.7317 409.992 30.0606 410.108 30.2249H407.548C407.665 30.0606 407.84 29.7317 407.84 29.0483V21.7029H406.711C405.985 21.7029 405.297 21.6129 404.427 22.2278L405.116 20.6484H413.378L412.69 22.2278Z" fill="#55607A"/>
<path d="M518.603 35.8993H521.046C521.046 35.8993 521.784 35.8156 522.161 35.3979C522.508 35.0139 522.497 34.2934 522.497 34.2934C522.497 34.2934 522.449 30.9194 523.97 30.4225C525.47 29.9328 527.395 33.6833 529.436 35.1256C530.979 36.2166 532.152 35.9779 532.152 35.9779L537.61 35.8993C537.61 35.8993 540.465 35.718 539.111 33.4074C539 33.2187 538.322 31.6981 535.053 28.5742C531.631 25.3046 532.089 25.8335 536.212 20.1778C538.722 16.7335 539.725 14.6308 539.412 13.7303C539.113 12.8723 537.267 13.0989 537.267 13.0989L531.122 13.138C531.122 13.138 530.666 13.0741 530.328 13.2821C529.998 13.4855 529.786 13.9608 529.786 13.9608C529.786 13.9608 528.813 16.6259 527.517 18.8928C524.78 23.6756 523.686 23.9288 523.239 23.6313C522.198 22.9391 522.458 20.8509 522.458 19.367C522.458 14.7318 523.141 12.7992 521.128 12.2989C520.46 12.133 519.968 12.0232 518.26 12.0053C516.067 11.9824 514.212 12.0122 513.161 12.5421C512.462 12.8946 511.923 13.6797 512.251 13.725C512.658 13.7806 513.577 13.9804 514.065 14.6633C514.695 15.5455 514.673 17.5258 514.673 17.5258C514.673 17.5258 515.035 22.9822 513.828 23.6598C512.999 24.1246 511.863 23.1756 509.424 18.8364C508.174 16.6137 507.23 14.1566 507.23 14.1566C507.23 14.1566 507.048 13.6975 506.724 13.4517C506.33 13.154 505.78 13.0596 505.78 13.0596L499.94 13.0988C499.94 13.0988 499.064 13.1241 498.742 13.5164C498.455 13.8657 498.719 14.5873 498.719 14.5873C498.719 14.5873 503.29 25.5972 508.467 31.1456C513.214 36.2332 518.603 35.8993 518.603 35.8993Z" fill="#55607A"/>
<path fill-rule="evenodd" clip-rule="evenodd" d="M696.672 33.3838C696.401 33.3838 696.139 33.4828 695.933 33.6614C689.297 39.4524 676.882 43.3497 662.657 43.3497C646.581 43.3497 632.813 38.3718 627.091 31.3083C627.01 31.209 627.072 31.0561 627.199 31.0561C627.387 31.0561 627.571 31.1275 627.698 31.2659C633.133 37.1334 644.947 41.1999 658.646 41.1999C669.551 41.1999 679.259 38.6234 685.508 34.6127C686.069 34.252 685.788 33.3838 685.122 33.3838H683.221C682.946 33.3838 682.677 33.467 682.449 33.621C676.616 37.5683 667.286 40.1253 656.769 40.1253C639.095 40.1253 624.938 32.9052 624.938 24.0001C624.938 15.0945 639.095 7.87496 656.769 7.87496C667.286 7.87496 676.616 10.4317 682.449 14.3792C682.677 14.533 682.946 14.6162 683.221 14.6162H685.122C685.788 14.6162 686.069 13.748 685.508 13.3881C679.259 9.37743 669.551 6.80037 658.646 6.80037C644.922 6.80037 633.091 10.8816 627.669 16.7671C627.543 16.905 627.359 16.9769 627.173 16.9769C627.045 16.9769 626.985 16.8235 627.065 16.7242C632.771 9.64312 646.557 4.65032 662.657 4.65032C676.882 4.65032 689.297 8.54849 695.933 14.3395C696.139 14.518 696.401 14.6162 696.672 14.6162H701.653C702.87 14.6162 703.491 13.0971 702.529 12.3463C694.93 6.42186 681.709 2.5 666.668 2.5C643.103 2.5 624 12.1257 624 24.0001C624 35.8743 643.103 45.5 666.668 45.5C681.709 45.5 694.93 41.5784 702.529 35.654C703.491 34.9032 702.87 33.3838 701.653 33.3838H696.672Z" fill="#55607A"/>
<path fill-rule="evenodd" clip-rule="evenodd" d="M678 27.4966L684 27.5C683.966 27.0193 683.569 26.185 682.703 26.185H680.04C679.855 26.1678 679.722 26.0273 679.714 25.8575L679.714 24.4922C679.722 24.3111 679.855 24.1723 680.022 24.1562L683.487 24.1557V22.8429H680.047C679.868 22.8404 679.723 22.6962 679.714 22.5157L679.714 21.1515C679.722 20.9696 679.851 20.833 680.019 20.8145L682.674 20.8136C683.54 20.8136 683.936 19.9815 683.971 19.5H678V27.4966Z" fill="#55607A"/>
<path fill-rule="evenodd" clip-rule="evenodd" d="M640 19.5106H639.721C638.713 19.5106 638.199 20.064 638.193 21.156L638.174 25.4008C638.089 25.8981 637.692 26.1984 637.095 26.1984H635.901C635.241 26.1984 634.821 25.8258 634.808 25.2253L634.81 21.1446C634.805 20.0528 634.29 19.5 633.279 19.5H633V24.9864C633 26.3725 634.18 27.5 635.63 27.5H637.371C638.82 27.5 640 26.3725 640 24.9864V19.5106Z" fill="#55607A"/>
<path fill-rule="evenodd" clip-rule="evenodd" d="M672.022 23.2098C671.837 23.2048 671.692 23.0511 671.692 22.8686V21.1429C671.692 20.9632 671.832 20.8145 672.011 20.8039H672.022L674.042 20.8139C674.624 20.8658 674.866 21.1655 674.866 21.808V22.2048C674.866 22.8245 674.473 23.2093 673.84 23.2093L672.022 23.2098ZM673.737 24.7213L674.916 26.9174C675.171 27.3172 675.474 27.4955 675.921 27.5H677L675.609 24.8153C675.543 24.6808 675.457 24.5706 675.351 24.4827L675.128 24.2977L675.373 24.1459C676.117 23.6855 676.56 22.882 676.56 21.998V21.2955C676.56 20.3089 675.776 19.5045 674.811 19.5022L670 19.5V27.4389H671.692V24.8541C671.701 24.6691 671.837 24.5296 672.01 24.5184H673.413C673.551 24.5184 673.675 24.5963 673.737 24.7213Z" fill="#55607A"/>
<path fill-rule="evenodd" clip-rule="evenodd" d="M689.918 24.0781H688.083C687.887 24.0781 687.729 23.9276 687.729 23.7427L687.738 23.6763C687.738 23.6763 688.29 21.1318 688.364 21.0058C688.467 20.8298 688.621 20.8071 688.713 20.8071H689.288C689.379 20.8071 689.533 20.8298 689.637 21.0058C689.711 21.1318 690.262 23.6763 690.262 23.6763L690.272 23.7427C690.272 23.9276 690.113 24.0781 689.918 24.0781ZM690.881 19.7317C690.851 19.5838 690.744 19.5017 690.619 19.5L687.38 19.5022C687.255 19.5022 687.15 19.5871 687.124 19.7087L685 27.5H685.215C686.253 27.5 686.937 26.9355 687.245 25.8217L687.297 25.6301C687.34 25.4835 687.479 25.383 687.634 25.383H690.254C690.653 25.383 690.741 25.7542 690.741 25.7542L690.81 26.0167C691.078 27.0425 691.163 27.3594 691.188 27.4692H693L690.881 19.7317Z" fill="#55607A"/>
<path fill-rule="evenodd" clip-rule="evenodd" d="M651.001 27.5H653V19.5H652.69C651.575 19.5 651.007 20.0534 651 21.1463L651.001 27.5Z" fill="#55607A"/>
<path fill-rule="evenodd" clip-rule="evenodd" d="M662.226 19.5C661.41 19.5 661.034 20.317 661 20.7922H663.342C663.526 20.8071 663.654 20.9461 663.662 21.1232L663.663 27.5H665.282V21.126C665.299 20.9387 665.425 20.8071 665.582 20.7936L666.773 20.7922C667.59 20.7922 667.966 19.9753 668 19.5H662.226Z" fill="#55607A"/>
<path fill-rule="evenodd" clip-rule="evenodd" d="M661 24.6487C661 23.6526 660.158 22.8423 659.123 22.8423H656.162C655.97 22.8423 655.812 22.6899 655.808 22.5028V21.8017C655.819 21.19 656.219 20.8207 656.877 20.812H659.277C660.187 20.812 660.606 19.9815 660.643 19.5H656.627C655.214 19.5 654.057 20.5794 654 21.928L654.002 22.3456C654.002 23.3438 654.844 24.1557 655.878 24.1557H658.837C659.04 24.1647 659.191 24.3177 659.191 24.5039L659.172 25.3803C659.088 25.8823 658.691 26.186 658.094 26.186L655.349 26.1888C654.439 26.2215 654.1 27.059 654.068 27.5L658.371 27.4983C659.795 27.4983 660.958 26.4017 660.999 25.0397L661 24.6487Z" fill="#55607A"/>
<path fill-rule="evenodd" clip-rule="evenodd" d="M643.105 22.6792C642.933 22.4617 642.671 22.5423 642.644 22.7375V25.8974C642.639 26.9611 642.185 27.5 641.256 27.5H641V19.5878H642.704C642.714 19.6057 645.895 24.3908 645.895 24.3908C646.067 24.6082 646.33 24.5277 646.356 24.3325V21.1026C646.361 20.0392 646.815 19.5 647.745 19.5H648V27.4272H646.296C646.286 27.4091 643.105 22.6792 643.105 22.6792Z" fill="#55607A"/>
<path fill-rule="evenodd" clip-rule="evenodd" d="M702.332 19.5C702.03 19.5 701.83 19.5 701.712 19.5332C701.572 19.5729 701.517 19.6794 701.31 20.198C701.31 20.198 699.961 23.9681 699.758 24.335C699.688 24.4617 699.592 24.5116 699.5 24.5121C699.408 24.5116 699.312 24.4617 699.242 24.335C699.04 23.9681 697.69 20.198 697.69 20.198C697.482 19.6794 697.428 19.5729 697.288 19.5332C697.17 19.5 696.97 19.5 696.668 19.5H695L695.002 27.5H695.269C696.238 27.5 696.725 26.9495 696.731 25.8618V24.4747L696.725 22.8125C696.725 22.5774 696.871 22.5281 696.977 22.5281C697.122 22.5281 697.25 22.6202 697.294 22.7576L698.721 26.372H700.279L701.706 22.7576C701.75 22.6202 701.878 22.5281 702.023 22.5281C702.129 22.5281 702.275 22.5774 702.275 22.8125L702.269 24.4747V25.8618C702.275 26.9495 702.762 27.5 703.731 27.5H703.998L704 19.5H702.332Z" fill="#55607A"/>
</svg>
