<svg width="704" height="48" viewBox="0 0 704 48" fill="none" xmlns="http://www.w3.org/2000/svg">
<path fill-rule="evenodd" clip-rule="evenodd" d="M0 16.0679H3.34752V28.5149H9.21312V31.4319H0V16.0679ZM113.85 31.4319H110.504V18.9859H104.64V16.0679H113.85V31.4319ZM11.52 31.4319H14.8685V16.0679H11.52V31.4319ZM17.28 16.0679H21.1757L24.216 21.6999C25.1126 23.3179 25.9661 25.2319 26.6448 26.9629H26.7101C26.4912 24.9359 26.4259 22.8619 26.4259 20.5369V16.0679H29.4902V31.4319H26.0112L22.8384 25.5289C21.9629 23.8639 20.977 21.9029 20.2771 20.1049H20.1898C20.2992 22.1319 20.3424 24.3199 20.3424 26.8269V31.4319H17.28V16.0679ZM32.64 16.0679H35.9443V22.8619H36.0106C36.3379 22.2689 36.6883 21.7209 37.0176 21.1749L40.3642 16.0679H44.4566L39.577 22.6109L44.7197 31.4319H40.8461L37.2125 24.8219L35.9443 26.4169V31.4319H32.64V16.0679ZM46.08 16.3869C47.1082 16.2049 48.5971 16.0679 50.5872 16.0679C52.6224 16.0679 54.1104 16.4789 55.0954 17.3219C56.0362 18.0729 56.6707 19.3509 56.6707 20.8779C56.6707 22.3809 56.1888 23.6589 55.3142 24.5019C54.1757 25.6179 52.4909 26.1429 50.545 26.1429C50.0851 26.1429 49.6906 26.0959 49.3834 26.0749V31.5439H46.08V16.3869ZM50.4998 23.4529C52.2509 23.4529 53.3443 22.5189 53.3443 20.9689C53.3443 19.5559 52.4256 18.7109 50.7418 18.7109C50.063 18.7109 49.6253 18.7339 49.3834 18.8039V23.3849C49.6483 23.4299 50.0198 23.4529 50.4998 23.4529ZM58.56 16.3869C59.6314 16.2049 61.2298 16.0679 63.0019 16.0679C65.1898 16.0679 66.721 16.4109 67.7722 17.2749C68.6467 18.0059 69.1286 19.0769 69.1286 20.4899C69.1286 22.4509 67.7952 23.7959 66.5242 24.2749V24.3429C67.5754 24.7749 68.1446 25.8019 68.4941 27.2149C68.9539 28.9449 69.4128 30.9529 69.6979 31.5439H66.2842C66.0422 31.1119 65.6717 29.8809 65.255 27.9669C64.8605 26.0519 64.2288 25.5269 62.8502 25.5049H61.8634V31.5439H58.56V16.3869ZM63.1776 22.9979C64.8403 22.9979 65.8243 22.1309 65.8243 20.7869C65.8243 19.3949 64.8835 18.6659 63.3744 18.6429C62.5853 18.6429 62.1053 18.7109 61.8634 18.7579V22.9979H63.1776ZM71.04 24.1139C71.04 19.3509 73.9498 16.0679 78.2822 16.0679C82.7251 16.0679 85.2202 19.4879 85.2202 23.9769C85.2202 29.1299 81.959 31.9319 77.9981 31.9319C73.7318 31.9319 71.04 28.7189 71.04 24.1139ZM81.696 24.0229C81.696 21.4249 80.6026 18.8259 78.1526 18.8259C75.8102 18.8259 74.5632 21.1739 74.5632 24.0469C74.5632 26.8949 75.8544 29.1739 78.1296 29.1739C80.4931 29.1739 81.696 26.8039 81.696 24.0229ZM87.36 16.0679H96.3754V18.9189H90.7094V22.4499H96.0038V25.2539H90.7094V31.4319H87.36V16.0679ZM98.88 31.4319H102.229V16.0679H98.88V31.4319ZM117.12 18.9669H119.903V16.0679H117.12V18.9669Z" fill="#55607A"/>
<path d="M288.306 30.5981C293.829 30.5981 298.306 26.121 298.306 20.5981C298.306 15.0753 293.829 10.5981 288.306 10.5981C282.783 10.5981 278.306 15.0753 278.306 20.5981C278.306 26.121 282.783 30.5981 288.306 30.5981Z" stroke="#55607A" stroke-width="2"/>
<path d="M288.306 26.5981C291.619 26.5981 294.306 23.9119 294.306 20.5981C294.306 17.2844 291.619 14.5981 288.306 14.5981C284.992 14.5981 282.306 17.2844 282.306 20.5981C282.306 23.9119 284.992 26.5981 288.306 26.5981Z" stroke="#55607A" stroke-width="2"/>
<path fill-rule="evenodd" clip-rule="evenodd" d="M211.789 39.0137V39.5981H210.797V39.0137C209.998 38.984 209.433 38.7864 209.104 38.4207C208.774 38.0549 208.61 37.5975 208.61 37.0483C208.61 36.4696 208.782 36.0053 209.126 35.6555C209.47 35.3057 210.027 35.116 210.797 35.0864V34.5908H211.789V35.0864C212.584 35.116 213.147 35.312 213.479 35.6743C213.81 36.0366 213.976 36.4958 213.976 37.0518C213.976 37.6032 213.811 38.0606 213.48 38.4241C213.15 38.7875 212.586 38.984 211.789 39.0137ZM211.789 38.1694C212.053 38.1694 212.28 38.125 212.47 38.0361C212.661 37.9473 212.796 37.8276 212.875 37.6772C212.955 37.5269 212.995 37.307 212.995 37.0176C212.995 36.293 212.593 35.9307 211.789 35.9307V38.1694ZM210.797 38.1694V35.9307C210.371 35.9307 210.064 36.0258 209.875 36.2161C209.685 36.4063 209.591 36.694 209.591 37.0791C209.591 37.806 209.993 38.1694 210.797 38.1694ZM214.803 34.5874H215.75V37.9233L217.78 34.5874H218.789V39.5981H217.842V36.3271L215.815 39.5981H214.803V34.5874ZM219.824 39.5981V34.5874H220.836V36.5596H222.818V34.5874H223.83V39.5981H222.818V37.4072H220.836V39.5981H219.824ZM229.395 39.5981H228.294L227.856 38.46H225.854L225.44 39.5981H224.367L226.318 34.5874H227.388L229.395 39.5981ZM227.532 37.6157L226.841 35.7563L226.165 37.6157H227.532ZM229.935 39.5981V34.5874H230.946V36.5596H232.929V34.5874H233.94V39.5981H232.929V37.4072H230.946V39.5981H229.935ZM238.192 37.7559L239.173 38.0669C239.023 38.6138 238.773 39.0199 238.423 39.2854C238.073 39.5509 237.63 39.6836 237.092 39.6836C236.426 39.6836 235.88 39.4563 235.451 39.0017C235.023 38.5471 234.809 37.9256 234.809 37.1372C234.809 36.3032 235.024 35.6555 235.455 35.1941C235.885 34.7327 236.451 34.502 237.153 34.502C237.766 34.502 238.264 34.6831 238.647 35.0454C238.875 35.2596 239.046 35.5672 239.16 35.9683L238.158 36.2075C238.099 35.9478 237.975 35.7427 237.787 35.5923C237.599 35.4419 237.371 35.3667 237.102 35.3667C236.731 35.3667 236.429 35.5 236.198 35.7666C235.967 36.0332 235.851 36.465 235.851 37.062C235.851 37.6955 235.965 38.1466 236.193 38.4155C236.421 38.6844 236.717 38.8188 237.082 38.8188C237.35 38.8188 237.582 38.7334 237.775 38.5625C237.969 38.3916 238.108 38.1227 238.192 37.7559ZM239.836 37.1235C239.836 36.6131 239.913 36.1847 240.065 35.8384C240.179 35.5832 240.335 35.3542 240.532 35.1514C240.729 34.9486 240.945 34.7982 241.18 34.7002C241.492 34.568 241.852 34.502 242.26 34.502C242.998 34.502 243.589 34.731 244.032 35.189C244.475 35.647 244.697 36.2839 244.697 37.0996C244.697 37.9085 244.477 38.5414 244.037 38.9983C243.597 39.4552 243.009 39.6836 242.273 39.6836C241.528 39.6836 240.936 39.4563 240.496 39.0017C240.056 38.5471 239.836 37.9211 239.836 37.1235ZM240.879 37.0894C240.879 37.6567 241.01 38.0868 241.272 38.3796C241.534 38.6724 241.867 38.8188 242.27 38.8188C242.673 38.8188 243.004 38.6736 243.263 38.3831C243.522 38.0925 243.651 37.6567 243.651 37.0757C243.651 36.5015 243.525 36.0731 243.273 35.7905C243.021 35.508 242.687 35.3667 242.27 35.3667C241.853 35.3667 241.517 35.5097 241.262 35.7957C241.007 36.0816 240.879 36.5129 240.879 37.0894ZM245.49 34.5874H247.493C247.889 34.5874 248.185 34.6039 248.38 34.637C248.574 34.67 248.749 34.7389 248.903 34.8438C249.056 34.9486 249.185 35.0881 249.287 35.2625C249.39 35.4368 249.441 35.6322 249.441 35.8486C249.441 36.0833 249.378 36.2987 249.251 36.4946C249.125 36.6906 248.953 36.8376 248.737 36.9355C249.042 37.0244 249.277 37.1759 249.441 37.3901C249.605 37.6043 249.687 37.8561 249.687 38.1455C249.687 38.3734 249.634 38.595 249.528 38.8103C249.422 39.0256 249.277 39.1977 249.094 39.3264C248.911 39.4552 248.684 39.5343 248.416 39.564C248.247 39.5822 247.84 39.5936 247.195 39.5981H245.49V34.5874ZM246.501 35.4214V36.5801H247.165C247.559 36.5801 247.804 36.5744 247.899 36.563C248.073 36.5425 248.209 36.4827 248.308 36.3835C248.407 36.2844 248.457 36.154 248.457 35.9922C248.457 35.8372 248.414 35.7113 248.328 35.6145C248.243 35.5177 248.116 35.459 247.947 35.4385C247.847 35.4271 247.559 35.4214 247.083 35.4214H246.501ZM246.501 37.4141V38.7539H247.438C247.803 38.7539 248.034 38.7437 248.132 38.7231C248.282 38.6958 248.405 38.6292 248.499 38.5232C248.594 38.4172 248.641 38.2754 248.641 38.0977C248.641 37.9473 248.605 37.8197 248.532 37.7148C248.459 37.61 248.353 37.5337 248.216 37.4858C248.078 37.438 247.779 37.4141 247.318 37.4141H246.501ZM250.569 34.5874H251.581V36.5903H252.934C253.29 36.5903 253.595 36.6388 253.852 36.7356C254.108 36.8324 254.322 37.0056 254.493 37.2551C254.664 37.5046 254.749 37.7912 254.749 38.1147C254.749 38.4543 254.66 38.7465 254.482 38.9915C254.305 39.2364 254.107 39.3988 253.889 39.4785C253.672 39.5583 253.353 39.5981 252.934 39.5981H250.569V34.5874ZM251.581 38.7573H252.568C252.883 38.7573 253.102 38.7419 253.226 38.7112C253.351 38.6804 253.461 38.6104 253.558 38.501C253.655 38.3916 253.703 38.2583 253.703 38.1011C253.703 37.8778 253.624 37.7103 253.466 37.5986C253.307 37.487 253.022 37.4312 252.609 37.4312H251.581V38.7573ZM255.333 34.5874H256.345V39.5981H255.333V34.5874ZM257.408 34.5874H258.355V37.9233L260.385 34.5874H261.394V39.5981H260.447V36.3271L258.42 39.5981H257.408V34.5874ZM260.006 33.3398H260.474C260.447 33.6497 260.338 33.893 260.148 34.0696C259.957 34.2462 259.711 34.3345 259.408 34.3345C259.105 34.3345 258.858 34.2462 258.668 34.0696C258.477 33.893 258.369 33.6497 258.341 33.3398H258.81C258.826 33.5016 258.882 33.6241 258.98 33.7073C259.078 33.7904 259.221 33.832 259.408 33.832C259.595 33.832 259.737 33.7904 259.835 33.7073C259.933 33.6241 259.99 33.5016 260.006 33.3398ZM264.729 34.5874H268.24V39.5981H267.228V35.4351H265.721V37.5747C265.721 38.1877 265.7 38.6155 265.659 38.8582C265.618 39.1008 265.518 39.29 265.36 39.4255C265.202 39.5611 264.954 39.6289 264.617 39.6289C264.498 39.6289 264.283 39.6175 263.971 39.5947V38.812L264.196 38.8154C264.408 38.8154 264.551 38.7869 264.624 38.73C264.696 38.673 264.733 38.5329 264.733 38.3096L264.729 37.4482V34.5874ZM269.296 34.5874H270.243V37.9233L272.273 34.5874H273.281V39.5981H272.334V36.3271L270.308 39.5981H269.296V34.5874ZM274.717 34.5874H278.179V38.7573H278.62V40.6919H277.779V39.5981H274.625V40.6919H273.784V38.7573H274.208C274.415 38.3289 274.552 37.8316 274.618 37.2654C274.684 36.6991 274.717 35.9831 274.717 35.1172V34.5874ZM275.681 35.4282C275.681 36.9504 275.543 38.0601 275.267 38.7573H277.171V35.4282H275.681ZM279.095 37.1235C279.095 36.6131 279.172 36.1847 279.324 35.8384C279.438 35.5832 279.594 35.3542 279.791 35.1514C279.988 34.9486 280.204 34.7982 280.438 34.7002C280.751 34.568 281.111 34.502 281.519 34.502C282.257 34.502 282.848 34.731 283.291 35.189C283.734 35.647 283.956 36.2839 283.956 37.0996C283.956 37.9085 283.736 38.5414 283.296 38.9983C282.856 39.4552 282.268 39.6836 281.532 39.6836C280.787 39.6836 280.195 39.4563 279.755 39.0017C279.315 38.5471 279.095 37.9211 279.095 37.1235ZM280.138 37.0894C280.138 37.6567 280.269 38.0868 280.531 38.3796C280.793 38.6724 281.125 38.8188 281.529 38.8188C281.932 38.8188 282.263 38.6736 282.522 38.3831C282.78 38.0925 282.91 37.6567 282.91 37.0757C282.91 36.5015 282.784 36.0731 282.532 35.7905C282.28 35.508 281.946 35.3667 281.529 35.3667C281.112 35.3667 280.776 35.5097 280.521 35.7957C280.265 36.0816 280.138 36.5129 280.138 37.0894ZM284.796 34.5874H288.19V35.4282H285.808V39.5981H284.796V34.5874ZM288.713 39.5981V34.5874H292.429V35.4351H289.725V36.5459H292.241V37.3901H289.725V38.7539H292.524V39.5981H288.713ZM293.386 39.5981V34.5874H294.397V36.5596H296.38V34.5874H297.392V39.5981H296.38V37.4072H294.397V39.5981H293.386ZM298.438 39.5981V34.5874H302.153V35.4351H299.449V36.5459H301.965V37.3901H299.449V38.7539H302.249V39.5981H298.438ZM303.106 39.5981V34.5874H304.73C305.345 34.5874 305.746 34.6125 305.933 34.6626C306.22 34.7378 306.461 34.9013 306.654 35.1531C306.848 35.4049 306.945 35.7301 306.945 36.1289C306.945 36.4365 306.889 36.6951 306.777 36.9048C306.666 37.1144 306.524 37.2791 306.352 37.3987C306.18 37.5183 306.005 37.5975 305.827 37.6362C305.586 37.6841 305.236 37.708 304.778 37.708H304.118V39.5981H303.106ZM304.118 35.4351V36.8569H304.672C305.071 36.8569 305.337 36.8307 305.472 36.7783C305.606 36.7259 305.712 36.6439 305.788 36.5322C305.864 36.4206 305.902 36.2907 305.902 36.1426C305.902 35.9603 305.849 35.8099 305.742 35.6914C305.635 35.5729 305.499 35.4989 305.335 35.4692C305.214 35.4465 304.972 35.4351 304.607 35.4351H304.118ZM312.294 39.5981H311.193L310.756 38.46H308.753L308.339 39.5981H307.266L309.218 34.5874H310.288L312.294 39.5981ZM310.431 37.6157L309.741 35.7563L309.064 37.6157H310.431ZM313.958 39.5981V35.4351H312.472V34.5874H316.454V35.4351H314.97V39.5981H313.958ZM316.901 37.1235C316.901 36.6131 316.978 36.1847 317.13 35.8384C317.244 35.5832 317.4 35.3542 317.597 35.1514C317.794 34.9486 318.01 34.7982 318.245 34.7002C318.557 34.568 318.917 34.502 319.325 34.502C320.063 34.502 320.654 34.731 321.097 35.189C321.54 35.647 321.762 36.2839 321.762 37.0996C321.762 37.9085 321.542 38.5414 321.102 38.9983C320.662 39.4552 320.074 39.6836 319.338 39.6836C318.593 39.6836 318.001 39.4563 317.561 39.0017C317.121 38.5471 316.901 37.9211 316.901 37.1235ZM317.944 37.0894C317.944 37.6567 318.075 38.0868 318.337 38.3796C318.599 38.6724 318.932 38.8188 319.335 38.8188C319.738 38.8188 320.069 38.6736 320.328 38.3831C320.587 38.0925 320.716 37.6567 320.716 37.0757C320.716 36.5015 320.59 36.0731 320.338 35.7905C320.086 35.508 319.752 35.3667 319.335 35.3667C318.918 35.3667 318.582 35.5097 318.327 35.7957C318.071 36.0816 317.944 36.5129 317.944 37.0894ZM322.551 39.5981V34.5874H324.175C324.79 34.5874 325.191 34.6125 325.378 34.6626C325.665 34.7378 325.905 34.9013 326.099 35.1531C326.293 35.4049 326.39 35.7301 326.39 36.1289C326.39 36.4365 326.334 36.6951 326.222 36.9048C326.111 37.1144 325.969 37.2791 325.797 37.3987C325.625 37.5183 325.45 37.5975 325.272 37.6362C325.03 37.6841 324.681 37.708 324.223 37.708H323.563V39.5981H322.551ZM323.563 35.4351V36.8569H324.117C324.515 36.8569 324.782 36.8307 324.917 36.7783C325.051 36.7259 325.156 36.6439 325.233 36.5322C325.309 36.4206 325.347 36.2907 325.347 36.1426C325.347 35.9603 325.294 35.8099 325.187 35.6914C325.079 35.5729 324.944 35.4989 324.78 35.4692C324.659 35.4465 324.416 35.4351 324.052 35.4351H323.563Z" fill="#55607A"/>
<path fill-rule="evenodd" clip-rule="evenodd" d="M212.983 27.5981V15.7036H208.735V13.2817H220.112V15.7036H215.874V27.5981H212.983ZM221.978 27.5981V13.2817H232.593V15.7036H224.868V18.8774H232.056V21.2896H224.868V25.186H232.866V27.5981H221.978ZM236.343 13.2817H246.372V27.5981H243.481V15.7036H239.175V21.8169C239.175 23.5682 239.116 24.7905 238.999 25.4839C238.882 26.1772 238.597 26.7176 238.145 27.105C237.692 27.4924 236.984 27.686 236.021 27.686C235.682 27.686 235.067 27.6535 234.175 27.5884V25.3521L234.819 25.3618C235.425 25.3618 235.832 25.2804 236.04 25.1177C236.248 24.9549 236.353 24.5545 236.353 23.9165L236.343 21.4556V13.2817ZM249.351 27.5981V13.2817H259.966V15.7036H252.241V18.8774H259.429V21.2896H252.241V25.186H260.239V27.5981H249.351ZM262.729 13.2817H274.116V27.5981H271.226V15.6841H265.62V27.5981H262.729V13.2817Z" fill="#55607A"/>
<path fill-rule="evenodd" clip-rule="evenodd" d="M288.983 20.7314L302.971 14.1938L288.306 7.30811L288.983 20.7314Z" fill="#55607A"/>
<path d="M288.306 26.5981C291.619 26.5981 294.306 23.9119 294.306 20.5981C294.306 17.2844 291.619 14.5981 288.306 14.5981C284.992 14.5981 282.306 17.2844 282.306 20.5981C282.306 23.9119 284.992 26.5981 288.306 26.5981Z" stroke="#55607A" stroke-width="2"/>
<path fill-rule="evenodd" clip-rule="evenodd" d="M288.196 29.0019L291.556 19.2387L279.894 21.5826C280.768 23.2066 281.47 24.7569 281.999 26.2337C282.528 27.7104 284.594 28.6332 288.196 29.0019Z" fill="#55607A"/>
<path d="M288.306 22.5981C289.41 22.5981 290.306 21.7027 290.306 20.5981C290.306 19.4936 289.41 18.5981 288.306 18.5981C287.201 18.5981 286.306 19.4936 286.306 20.5981C286.306 21.7027 287.201 22.5981 288.306 22.5981Z" stroke="#55607A" stroke-width="2"/>
<path fill-rule="evenodd" clip-rule="evenodd" d="M301.761 27.5981V13.2817H306.399C308.157 13.2817 309.303 13.3534 309.837 13.4966C310.657 13.7114 311.344 14.1785 311.897 14.8979C312.451 15.6174 312.728 16.5467 312.728 17.686C312.728 18.5649 312.568 19.3039 312.249 19.9028C311.93 20.5018 311.525 20.9722 311.033 21.314C310.542 21.6558 310.042 21.882 309.534 21.9927C308.844 22.1294 307.845 22.1978 306.536 22.1978H304.651V27.5981H301.761ZM304.651 15.7036V19.7661H306.233C307.373 19.7661 308.134 19.6912 308.519 19.5415C308.903 19.3918 309.204 19.1574 309.422 18.8384C309.64 18.5194 309.749 18.1483 309.749 17.7251C309.749 17.2043 309.596 16.7746 309.29 16.436C308.984 16.0975 308.597 15.8859 308.128 15.8013C307.783 15.7362 307.09 15.7036 306.048 15.7036H304.651ZM318.323 27.5981V15.7036H314.075V13.2817H325.452V15.7036H321.214V27.5981H318.323Z" fill="#55607A"/>
<path fill-rule="evenodd" clip-rule="evenodd" d="M457.303 14.5V9.48926H458.314V11.4614H460.297V9.48926H461.309V14.5H460.297V12.3091H458.314V14.5H457.303ZM466.873 14.5H465.772L465.335 13.3618H463.332L462.918 14.5H461.845L463.797 9.48926H464.867L466.873 14.5ZM465.01 12.5176L464.32 10.6582L463.643 12.5176H465.01ZM467.427 9.48926H468.438V13.6592H470.4V9.48926H471.412V13.6592H471.829V15.5938H470.988V14.5H467.427V9.48926ZM472.537 9.48926H473.483V12.8252L475.514 9.48926H476.522V14.5H475.575V11.229L473.548 14.5H472.537V9.48926ZM477.349 12.0254C477.349 11.515 477.425 11.0866 477.578 10.7402C477.692 10.485 477.848 10.256 478.045 10.0532C478.242 9.85042 478.458 9.70003 478.692 9.60205C479.005 9.46989 479.365 9.40381 479.772 9.40381C480.511 9.40381 481.101 9.63281 481.545 10.0908C481.988 10.5488 482.209 11.1857 482.209 12.0015C482.209 12.8104 481.99 13.4433 481.55 13.9001C481.11 14.357 480.522 14.5854 479.786 14.5854C479.041 14.5854 478.449 14.3582 478.009 13.9036C477.569 13.449 477.349 12.8229 477.349 12.0254ZM478.392 11.9912C478.392 12.5586 478.523 12.9887 478.785 13.2815C479.047 13.5743 479.379 13.7207 479.783 13.7207C480.186 13.7207 480.517 13.5754 480.776 13.2849C481.034 12.9944 481.164 12.5586 481.164 11.9775C481.164 11.4033 481.038 10.9749 480.786 10.6924C480.534 10.4098 480.2 10.2686 479.783 10.2686C479.366 10.2686 479.03 10.4115 478.774 10.6975C478.519 10.9835 478.392 11.4147 478.392 11.9912ZM483.002 14.5V9.48926H484.014V11.4614H485.997V9.48926H487.008V14.5H485.997V12.3091H484.014V14.5H483.002ZM492.573 14.5H491.472L491.035 13.3618H489.032L488.618 14.5H487.545L489.497 9.48926H490.566L492.573 14.5ZM490.71 12.5176L490.02 10.6582L489.343 12.5176H490.71ZM493.468 9.48926H496.979V14.5H495.967V10.3369H494.459V12.4766C494.459 13.0895 494.439 13.5173 494.398 13.76C494.357 14.0027 494.257 14.1918 494.099 14.3274C493.941 14.463 493.693 14.5308 493.355 14.5308C493.237 14.5308 493.022 14.5194 492.709 14.4966V13.7139L492.935 13.7173C493.147 13.7173 493.289 13.6888 493.362 13.6318C493.435 13.5749 493.472 13.4347 493.472 13.2114L493.468 12.3501V9.48926ZM498.042 9.48926H499.053V11.4922H500.407C501.045 11.4922 501.507 11.6414 501.793 11.9399C502.079 12.2384 502.222 12.5962 502.222 13.0132C502.222 13.355 502.135 13.6455 501.962 13.8848C501.789 14.124 501.591 14.2864 501.369 14.3718C501.147 14.4573 500.826 14.5 500.407 14.5H498.042V9.48926ZM499.053 13.6592H500.038C500.357 13.6592 500.578 13.6438 500.701 13.613C500.824 13.5823 500.934 13.5122 501.031 13.4028C501.127 13.2935 501.176 13.159 501.176 12.9995C501.176 12.7694 501.093 12.6007 500.928 12.4937C500.763 12.3866 500.481 12.333 500.082 12.333H499.053V13.6592ZM503.056 14.5V9.48926H504.067V11.4614H506.05V9.48926H507.062V14.5H506.05V12.3091H504.067V14.5H503.056ZM507.902 12.0254C507.902 11.515 507.979 11.0866 508.131 10.7402C508.245 10.485 508.401 10.256 508.598 10.0532C508.795 9.85042 509.011 9.70003 509.246 9.60205C509.558 9.46989 509.918 9.40381 510.326 9.40381C511.064 9.40381 511.655 9.63281 512.098 10.0908C512.541 10.5488 512.763 11.1857 512.763 12.0015C512.763 12.8104 512.543 13.4433 512.103 13.9001C511.663 14.357 511.075 14.5854 510.339 14.5854C509.594 14.5854 509.002 14.3582 508.562 13.9036C508.122 13.449 507.902 12.8229 507.902 12.0254ZM508.945 11.9912C508.945 12.5586 509.076 12.9887 509.338 13.2815C509.6 13.5743 509.933 13.7207 510.336 13.7207C510.739 13.7207 511.07 13.5754 511.329 13.2849C511.587 12.9944 511.717 12.5586 511.717 11.9775C511.717 11.4033 511.591 10.9749 511.339 10.6924C511.087 10.4098 510.753 10.2686 510.336 10.2686C509.919 10.2686 509.583 10.4115 509.328 10.6975C509.072 10.9835 508.945 11.4147 508.945 11.9912ZM513.552 14.5V9.48926H517.268V10.3369H514.564V11.4478H517.08V12.292H514.564V13.6558H517.363V14.5H513.552Z" fill="#55607A"/>
<path fill-rule="evenodd" clip-rule="evenodd" d="M457.05 17.8998H467.326V21.1478H460.578V25.4038C460.858 25.3478 461.194 25.2918 461.586 25.2358C461.978 25.1798 462.36 25.1518 462.734 25.1518C463.63 25.1518 464.432 25.2591 465.142 25.4738C465.851 25.6885 466.458 26.0338 466.962 26.5098C467.466 26.9858 467.853 27.6065 468.124 28.3718C468.394 29.1371 468.53 30.0705 468.53 31.1718C468.53 33.3745 467.979 35.0265 466.878 36.1278C465.776 37.2292 464.143 37.7798 461.978 37.7798C461.716 37.7798 461.38 37.7705 460.97 37.7518C460.559 37.7331 460.12 37.7098 459.654 37.6818C459.187 37.6538 458.725 37.6118 458.268 37.5558C457.81 37.4998 457.404 37.4251 457.05 37.3318V17.8998ZM462.23 34.6438C463.014 34.6438 463.644 34.4011 464.12 33.9158C464.596 33.4305 464.834 32.6092 464.834 31.4518C464.834 30.7611 464.759 30.2105 464.61 29.7998C464.46 29.3891 464.26 29.0718 464.008 28.8478C463.756 28.6238 463.457 28.4745 463.112 28.3998C462.766 28.3251 462.388 28.2878 461.978 28.2878C461.772 28.2878 461.516 28.3111 461.208 28.3578C460.9 28.4045 460.69 28.4465 460.578 28.4838V34.5038C460.746 34.5411 460.988 34.5738 461.306 34.6018C461.623 34.6298 461.931 34.6438 462.23 34.6438ZM473.906 25.9638H475.894C476.043 23.2945 476.645 21.2178 477.7 19.7338C478.754 18.2498 480.336 17.5078 482.446 17.5078C483.659 17.5078 484.69 17.7505 485.54 18.2358C486.389 18.7211 487.08 19.4118 487.612 20.3078C488.144 21.2038 488.526 22.2771 488.76 23.5278C488.993 24.7785 489.11 26.1691 489.11 27.6998C489.11 30.9665 488.568 33.4818 487.486 35.2458C486.403 37.0098 484.714 37.8918 482.418 37.8918C481.354 37.8918 480.43 37.6911 479.646 37.2898C478.862 36.8885 478.204 36.3098 477.672 35.5538C477.14 34.7978 476.729 33.8832 476.44 32.8098C476.15 31.7365 475.968 30.5372 475.894 29.2118H473.906V37.4998H470.378V17.8998H473.906V25.9638ZM479.422 27.6998C479.422 28.7078 479.468 29.6365 479.562 30.4858C479.655 31.3351 479.818 32.0678 480.052 32.6838C480.285 33.2998 480.593 33.7805 480.976 34.1258C481.358 34.4711 481.839 34.6438 482.418 34.6438C483.5 34.6438 484.27 34.0978 484.728 33.0058C485.185 31.9138 485.414 30.1452 485.414 27.6998C485.414 26.7291 485.372 25.8191 485.288 24.9698C485.204 24.1205 485.05 23.3831 484.826 22.7578C484.602 22.1325 484.298 21.6425 483.916 21.2878C483.533 20.9331 483.034 20.7558 482.418 20.7558C481.354 20.7558 480.588 21.3205 480.122 22.4498C479.655 23.5792 479.422 25.3291 479.422 27.6998ZM491.182 18.0958C491.854 17.9465 492.591 17.8298 493.394 17.7458C494.196 17.6618 494.999 17.6198 495.802 17.6198C496.66 17.6198 497.505 17.6991 498.336 17.8578C499.166 18.0165 499.908 18.3291 500.562 18.7958C501.215 19.2625 501.747 19.9205 502.158 20.7698C502.568 21.6192 502.774 22.7251 502.774 24.0878C502.774 25.3198 502.601 26.3651 502.256 27.2238C501.91 28.0825 501.448 28.7825 500.87 29.3238C500.291 29.8651 499.624 30.2571 498.868 30.4998C498.112 30.7425 497.332 30.8638 496.53 30.8638H496.166C495.998 30.8638 495.82 30.8591 495.634 30.8498C495.447 30.8405 495.265 30.8265 495.088 30.8078C494.91 30.7891 494.784 30.7705 494.71 30.7518V37.4998H491.182V18.0958ZM494.71 27.5878C494.822 27.6251 495.032 27.6578 495.34 27.6858C495.648 27.7138 495.858 27.7278 495.97 27.7278C496.38 27.7278 496.772 27.6718 497.146 27.5598C497.519 27.4478 497.85 27.2565 498.14 26.9858C498.429 26.7151 498.658 26.3418 498.826 25.8658C498.994 25.3898 499.078 24.7878 499.078 24.0598C499.078 23.4438 498.998 22.9211 498.84 22.4918C498.681 22.0625 498.466 21.7218 498.196 21.4698C497.925 21.2178 497.612 21.0358 497.258 20.9238C496.903 20.8118 496.53 20.7558 496.138 20.7558C495.559 20.7558 495.083 20.8025 494.71 20.8958V27.5878ZM504.09 27.6998C504.09 24.3771 504.659 21.8478 505.798 20.1118C506.936 18.3758 508.672 17.5078 511.006 17.5078C512.219 17.5078 513.264 17.7458 514.142 18.2218C515.019 18.6978 515.738 19.3791 516.298 20.2658C516.858 21.1525 517.273 22.2258 517.544 23.4858C517.814 24.7458 517.95 26.1505 517.95 27.6998C517.95 31.0225 517.366 33.5518 516.2 35.2878C515.033 37.0238 513.302 37.8918 511.006 37.8918C509.774 37.8918 508.724 37.6538 507.856 37.1778C506.988 36.7018 506.274 36.0205 505.714 35.1338C505.154 34.2471 504.743 33.1738 504.482 31.9138C504.22 30.6538 504.09 29.2492 504.09 27.6998ZM507.786 27.6998C507.786 28.6892 507.842 29.6085 507.954 30.4578C508.066 31.3071 508.252 32.0398 508.514 32.6558C508.775 33.2718 509.106 33.7571 509.508 34.1118C509.909 34.4665 510.408 34.6438 511.006 34.6438C512.088 34.6438 512.9 34.0932 513.442 32.9918C513.983 31.8905 514.254 30.1265 514.254 27.6998C514.254 26.7478 514.198 25.8471 514.086 24.9978C513.974 24.1485 513.792 23.4111 513.54 22.7858C513.288 22.1605 512.956 21.6658 512.546 21.3018C512.135 20.9378 511.622 20.7558 511.006 20.7558C508.859 20.7558 507.786 23.0705 507.786 27.6998Z" fill="#55607A"/>
<path d="M428.483 10.5294L420.63 9.00293L415.097 37.4701L422.95 38.9966L428.483 10.5294Z" fill="#55607A"/>
<path d="M420.021 35.9199C421.402 35.9199 422.521 34.8006 422.521 33.4199C422.521 32.0392 421.402 30.9199 420.021 30.9199C418.64 30.9199 417.521 32.0392 417.521 33.4199C417.521 34.8006 418.64 35.9199 420.021 35.9199Z" fill="#55607A"/>
<path d="M440.483 10.5294L432.63 9.00293L427.097 37.4701L434.95 38.9966L440.483 10.5294Z" fill="#55607A"/>
<path d="M432.021 35.9199C433.402 35.9199 434.521 34.8006 434.521 33.4199C434.521 32.0392 433.402 30.9199 432.021 30.9199C430.64 30.9199 429.521 32.0392 429.521 33.4199C429.521 34.8006 430.64 35.9199 432.021 35.9199Z" fill="#55607A"/>
<path d="M452.483 10.5294L444.63 9.00293L439.097 37.4701L446.95 38.9966L452.483 10.5294Z" fill="#55607A"/>
<path d="M444.021 35.9199C445.402 35.9199 446.521 34.8006 446.521 33.4199C446.521 32.0392 445.402 30.9199 444.021 30.9199C442.64 30.9199 441.521 32.0392 441.521 33.4199C441.521 34.8006 442.64 35.9199 444.021 35.9199Z" fill="#55607A"/>
<path fill-rule="evenodd" clip-rule="evenodd" d="M642.739 28.2199C644.499 28.2199 645.539 27.4999 646.279 26.5399L645.279 25.6199C644.639 26.4799 643.819 26.8799 642.819 26.8799C640.759 26.8799 639.479 25.2799 639.479 23.1399C639.479 20.9999 640.759 19.4199 642.819 19.4199C643.819 19.4199 644.639 19.7999 645.279 20.6799L646.279 19.7599C645.539 18.7999 644.499 18.0799 642.739 18.0799C639.859 18.0799 637.919 20.2799 637.919 23.1399C637.919 26.0199 639.859 28.2199 642.739 28.2199ZM650.119 16.9399C650.679 16.9399 651.139 16.4999 651.139 15.9399C651.139 15.3799 650.679 14.9199 650.119 14.9199C649.579 14.9199 649.119 15.3799 649.119 15.9399C649.119 16.4999 649.579 16.9399 650.119 16.9399ZM650.879 27.9799V18.3199H649.379V27.9799H650.879ZM657.319 28.2199C658.199 28.2199 658.739 27.9599 659.119 27.5999L658.679 26.4799C658.479 26.6999 658.079 26.8799 657.659 26.8799C656.999 26.8799 656.679 26.3599 656.679 25.6399V19.6399H658.639V18.3199H656.679V15.6799H655.179V18.3199H653.579V19.6399H655.179V25.9599C655.179 27.3999 655.899 28.2199 657.319 28.2199ZM661.219 31.7599C661.499 31.8399 661.999 31.8999 662.319 31.8999C663.599 31.8799 664.579 31.3399 665.159 29.9399L669.999 18.3199H668.359L665.159 26.2399L661.939 18.3199H660.319L664.359 28.0799L663.719 29.5399C663.379 30.3399 662.939 30.5599 662.279 30.5599C662.039 30.5599 661.679 30.4999 661.459 30.3999L661.219 31.7599Z" fill="#55607A"/>
<path fill-rule="evenodd" clip-rule="evenodd" d="M680.34 27.9801H678.24V26.9401C677.52 27.7601 676.4 28.2201 675.12 28.2201C673.54 28.2201 671.76 27.1601 671.76 25.0201C671.76 22.8001 673.54 21.8801 675.12 21.8801C676.42 21.8801 677.54 22.3001 678.24 23.1201V21.6801C678.24 20.5601 677.32 19.8801 675.98 19.8801C674.9 19.8801 673.96 20.2801 673.12 21.1001L672.26 19.6401C673.38 18.5801 674.78 18.0801 676.32 18.0801C678.46 18.0801 680.34 18.9801 680.34 21.5801V27.9801ZM675.94 26.7801C676.86 26.7801 677.76 26.4401 678.24 25.7801V24.3201C677.76 23.6601 676.86 23.3201 675.94 23.3201C674.76 23.3201 673.88 24.0001 673.88 25.0601C673.88 26.1001 674.76 26.7801 675.94 26.7801ZM692.96 27.9801H690.86V26.6601C690.12 27.6201 689 28.2201 687.76 28.2201C685.28 28.2201 683.46 26.3401 683.46 23.1601C683.46 20.0401 685.26 18.0801 687.76 18.0801C688.96 18.0801 690.08 18.6401 690.86 19.6601V14.6401H692.96V27.9801ZM688.36 26.3601C689.36 26.3601 690.38 25.8001 690.86 25.0801V21.2401C690.38 20.5201 689.36 19.9401 688.36 19.9401C686.7 19.9401 685.64 21.2801 685.64 23.1601C685.64 25.0201 686.7 26.3601 688.36 26.3601ZM699.98 28.2201C702.58 28.2201 704 26.9201 704 25.2201C704 21.3801 698.16 22.6601 698.16 20.9401C698.16 20.2601 698.86 19.7601 699.96 19.7601C701.16 19.7601 702.24 20.2601 702.82 20.9201L703.7 19.4401C702.82 18.6601 701.58 18.0801 699.94 18.0801C697.5 18.0801 696.14 19.4401 696.14 21.0201C696.14 24.7201 701.98 23.3601 701.98 25.2601C701.98 26.0201 701.34 26.5601 700.08 26.5601C698.82 26.5601 697.48 25.9001 696.8 25.2001L695.84 26.7201C696.84 27.7001 698.34 28.2201 699.98 28.2201Z" fill="#55607A"/>
<path d="M617.656 34.02C623.731 34.02 628.656 29.0952 628.656 23.02C628.656 16.9449 623.731 12.02 617.656 12.02C611.581 12.02 606.656 16.9449 606.656 23.02C606.656 29.0952 611.581 34.02 617.656 34.02Z" stroke="#55607A" stroke-width="2"/>
<path d="M615.979 32.98H614.979V35.98H615.979V32.98Z" stroke="#55607A" stroke-width="2"/>
<path d="M620.979 32.98H619.979V35.98H620.979V32.98Z" stroke="#55607A" stroke-width="2"/>
<path fill-rule="evenodd" clip-rule="evenodd" d="M611.979 23.98L613.979 22.98V32.98H611.979V23.98Z" fill="#55607A"/>
<path fill-rule="evenodd" clip-rule="evenodd" d="M616.979 21.98L618.979 20.98V33.98H616.979V21.98Z" fill="#55607A"/>
<path fill-rule="evenodd" clip-rule="evenodd" d="M621.979 19.98L623.979 18.98V32.98H621.979V19.98Z" fill="#55607A"/>
</svg>
