<svg width="37" height="48" viewBox="0 0 37 48" fill="none" xmlns="http://www.w3.org/2000/svg">
<g clip-path="url(#clip0_9263_4176)">
<path d="M0.128906 41.9929V0.129028H36.8697V42.1065C36.8697 42.1065 36.5691 44.8778 33.6663 44.8778C30.7635 44.8778 21.0496 44.8778 21.0496 44.8778C20.1995 44.3152 17.9862 46.0338 18.349 47.8658C18.349 47.8658 17.8462 44.8778 15.8454 44.8778C13.8445 44.8778 2.93319 44.8778 2.93319 44.8778C2.93319 44.8778 0.128906 43.985 0.128906 41.9929Z" fill="#005197"/>
<path d="M0.128906 41.993V28.3376H36.8697V42.1065C36.8697 42.1065 36.5691 44.8778 33.6663 44.8778C30.7635 44.8778 21.0496 44.8778 21.0496 44.8778C20.1062 44.2946 18.1417 46.1473 18.349 47.8659C18.349 47.8659 17.8462 44.8778 15.8454 44.8778C13.8445 44.8778 2.93319 44.8778 2.93319 44.8778C2.93319 44.8778 0.128906 44.3101 0.128906 41.993Z" fill="#FDDC00"/>
<path d="M16.5408 33.6893L15.5663 34.4996C9.84365 34.4325 8.73438 35.9239 8.73438 35.9239C9.60002 37.2915 14.3429 37.8128 14.3429 37.8128C14.3948 36.2387 13.498 35.4749 13.498 35.4749C13.498 35.4749 13.3995 35.4079 13.4721 35.2788C13.5447 35.1498 13.7779 35.2737 13.7779 35.2737C14.3326 35.7278 14.5607 36.12 14.6902 37.2502C14.8561 38.7262 15.3745 38.6075 15.3745 38.6075C15.2138 38.4114 15.3693 38.0037 15.3693 38.0037C20.0189 38.1379 23.5333 37.3122 24.0569 37.0541C24.5752 36.7961 24.7411 37.0232 24.9692 37.1831C25.1973 37.3431 26.1096 37.2812 26.3324 36.858C26.5605 36.4348 27.5039 36.3729 27.5039 36.3729C28.6443 36.3058 29.8469 36.8271 29.8469 36.8271C29.7795 36.1458 28.6443 35.4698 28.6443 35.4698C29.1626 35.0466 28.9242 34.128 28.9242 34.128C28.9242 34.128 28.0897 35.1137 26.5294 35.5317C24.9588 35.9549 21.9109 35.3356 21.9109 35.3356L21.8435 34.7215C18.298 34.9176 16.5408 33.6893 16.5408 33.6893ZM12.2903 34.9279C12.6013 34.9279 12.8501 35.1808 12.8501 35.4853C12.8501 35.7949 12.5961 36.0426 12.2903 36.0426C11.9844 36.0426 11.7305 35.7949 11.7305 35.4853C11.7305 35.1756 11.9793 34.9279 12.2903 34.9279Z" fill="#005197"/>
<path d="M14.3944 19.5541V23.1563H13.197L12.7202 22.6815H8.11719C8.11719 22.6815 8.4593 25.0296 10.0247 25.0296H27.4725L28.6232 24.2245V23.4453H24.2742V20.0856H23.6159V23.4453H21.7706V22.7124L21.3093 22.2531H19.9875V20.5501H18.987L18.5931 21.2262H16.784V23.1563H15.0476V19.5541H14.3944Z" fill="#FDDC00"/>
<path d="M6.92337 6.44805L6.42969 6.60535L9.60062 16.4699L10.0943 16.3126L6.92337 6.44805Z" fill="#FDDC00"/>
<path d="M8.53272 6.3465L8.03516 6.49121L10.9188 16.3195L11.4164 16.1748L8.53272 6.3465Z" fill="#FDDC00"/>
<path d="M9.9286 5.26211L9.42383 5.37952L11.7705 15.3803L12.2753 15.2629L9.9286 5.26211Z" fill="#FDDC00"/>
<path d="M11.1786 3.69235L10.6699 3.79138L12.8205 14.7414L13.3292 14.6423L11.1786 3.69235Z" fill="#FDDC00"/>
<path d="M12.4753 3.18288L11.9648 3.27283L13.92 14.2698L14.4304 14.1798L12.4753 3.18288Z" fill="#FDDC00"/>
<path d="M13.7448 3.77685L13.2324 3.85535L14.7966 13.9755L15.309 13.897L13.7448 3.77685Z" fill="#FDDC00"/>
<path d="M15.4798 6.5609L14.9648 6.61963L15.8691 14.4796L16.3841 14.4209L15.4798 6.5609Z" fill="#FDDC00"/>
<path d="M16.8533 6.64443L16.3359 6.67737L16.8735 15.0468L17.3909 15.0139L16.8533 6.64443Z" fill="#FDDC00"/>
<path d="M18.5827 14.6668L18.0747 14.5636C18.0747 14.5687 18.0695 14.5791 18.0695 14.5945C18.0799 14.3468 17.8103 9.13448 17.6289 5.69743L18.1473 5.67163C18.6138 14.512 18.5879 14.6255 18.5827 14.6668Z" fill="#FDDC00"/>
<path d="M19.784 4.88648L19.2656 4.88794L19.2901 13.5219L19.8084 13.5204L19.784 4.88648Z" fill="#FDDC00"/>
<path d="M21.2976 4.86078L20.7793 4.8623L20.8037 13.0834L21.3221 13.0818L21.2976 4.86078Z" fill="#FDDC00"/>
<path d="M22.3696 5.2896L22.125 12.175L22.643 12.1933L22.8877 5.30784L22.3696 5.2896Z" fill="#FDDC00"/>
<path d="M23.6867 5.71667L23.1738 12.3077L23.6906 12.3476L24.2035 5.75653L23.6867 5.71667Z" fill="#FDDC00"/>
<path d="M24.7632 6.29409L24.1523 12.4727L24.6682 12.5232L25.279 6.34465L24.7632 6.29409Z" fill="#FDDC00"/>
<path d="M25.9115 5.66666L25.3008 12.0629L25.8168 12.1117L26.4275 5.7155L25.9115 5.66666Z" fill="#FDDC00"/>
<path d="M27.2596 5.04705L26.502 11.2043L27.0165 11.2671L27.7741 5.1098L27.2596 5.04705Z" fill="#FDDC00"/>
<path d="M28.6502 4.43381L27.6484 10.88L28.1607 10.9589L29.1625 4.51271L28.6502 4.43381Z" fill="#FDDC00"/>
<path d="M29.5552 5.89065L28.5781 11.8496L29.0897 11.9327L30.0667 5.97379L29.5552 5.89065Z" fill="#FDDC00"/>
<path d="M30.5809 6.69077L29.5547 12.432L30.065 12.5224L31.0912 6.78118L30.5809 6.69077Z" fill="#FDDC00"/>
<path d="M31.9779 6.04622L30.707 12.0082L31.2141 12.1153L32.485 6.15336L31.9779 6.04622Z" fill="#FDDC00"/>
<path d="M18.1164 47.8916C18.1112 47.8607 17.6499 45.0119 15.846 45.0119H2.92351H2.91314C2.88204 45.0068 2.17708 44.9139 1.46175 44.4959C0.507986 43.9385 0 43.0715 0 41.9929V0H37V42.1219C36.9948 42.1529 36.9171 42.8547 36.4661 43.5618C36.0514 44.2223 35.2272 45.0068 33.667 45.0068H21.0555C19.1065 45.0068 18.5881 46.106 18.3756 47.8813L18.1164 47.8916ZM2.94424 44.7539H15.8512C17.2974 44.7539 17.9557 46.266 18.2201 47.1794C18.4585 45.9099 19.0391 44.7539 21.0555 44.7539H33.6722C34.8281 44.7539 35.6989 44.3101 36.2536 43.4276C36.6475 42.8031 36.7356 42.1684 36.746 42.1013V0.258037H0.259176V41.9929C0.259176 44.3101 2.78355 44.7281 2.94424 44.7539Z" fill="black"/>
</g>
<defs>
<clipPath id="clip0_9263_4176">
<rect width="37" height="48" fill="white"/>
</clipPath>
</defs>
</svg>
