<svg width="64" height="64" viewBox="0 0 64 64" fill="none" xmlns="http://www.w3.org/2000/svg">
<rect width="64" height="64" rx="24" fill="#F9FAFD"/>
<path d="M32 37V44" stroke="#FBAB00" stroke-width="1.6" stroke-linecap="round" stroke-linejoin="round"/>
<path d="M21.6062 26C20.2855 28.2876 19.7564 30.9472 20.1012 33.5661C20.4459 36.1851 21.6452 38.6171 23.513 40.485C25.3808 42.3529 27.8128 43.5524 30.4317 43.8973C33.0506 44.2422 35.7102 43.7133 37.9979 42.3927C40.2857 41.072 42.0737 39.0334 43.0848 36.593C44.0958 34.1526 44.2734 31.4468 43.5899 28.8952C42.9065 26.3436 41.4002 24.0888 39.3047 22.4805C37.2092 20.8722 34.6415 20.0003 32 20V27C33.1006 27.0002 34.1704 27.3636 35.0435 28.0338C35.9165 28.704 36.544 29.6436 36.8287 30.7067C37.1134 31.7699 37.0393 32.8973 36.618 33.9141C36.1967 34.9309 35.4516 35.7802 34.4984 36.3304C33.5452 36.8806 32.437 37.1009 31.3458 36.9572C30.2546 36.8134 29.2414 36.3136 28.4631 35.5353C27.6849 34.757 27.1853 33.7437 27.0416 32.6525C26.898 31.5613 27.1184 30.4532 27.6687 29.5L21.6062 26Z" stroke="#FBAB00" stroke-width="1.6" stroke-linecap="round" stroke-linejoin="round"/>
<path d="M27.1687 33.295L20.4062 35.1062" stroke="#FBAB00" stroke-width="1.6" stroke-linecap="round" stroke-linejoin="round"/>
</svg>
